{
    "header": {
      "keySignatures": [
        {
          "key": "Ab",
          "scale": "major",
          "ticks": 0
        }
      ],
      "meta": [
        {
          "text": "Mel Ofrecio\n",
          "ticks": 0,
          "type": "text"
        },
        {
          "text": "Something Special Band\n",
          "ticks": 0,
          "type": "text"
        }
      ],
      "name": "Party rock anthem",
      "ppq": 120,
      "tempos": [
        {
          "bpm": 130.00013000013,
          "ticks": 0
        },
        {
          "bpm": 130.00013000013,
          "ticks": 480
        }
      ],
      "timeSignatures": [
        {
          "ticks": 0,
          "timeSignature": [
            4,
            4
          ],
          "measures": 0
        }
      ]
    },
    "tracks": [
      {
        "channel": 0,
        "controlChanges": {
          "1": [
            {
              "number": 1,
              "ticks": 483,
              "time": 1.8576904499999998,
              "value": 0.15748031496062992
            }
          ],
          "7": [
            {
              "number": 7,
              "ticks": 0,
              "time": 0,
              "value": 0.6299212598425197
            }
          ],
          "91": [
            {
              "number": 91,
              "ticks": 483,
              "time": 1.8576904499999998,
              "value": 1
            }
          ],
          "93": [
            {
              "number": 93,
              "ticks": 483,
              "time": 1.8576904499999998,
              "value": 0.15748031496062992
            }
          ]
        },
        "pitchBends": [],
        "instrument": {
          "family": "synth lead",
          "name": "lead 2 (sawtooth)",
          "number": 81
        },
        "name": "Sawtooth",
        "notes": [
          {
            "duration": 0.23076900000000222,
            "durationTicks": 60,
            "midi": 77,
            "name": "F5",
            "ticks": 4320,
            "time": 16.615367999999997,
            "velocity": 0.6299212598425197
          },
          {
            "duration": 0.23076900000000222,
            "durationTicks": 60,
            "midi": 80,
            "name": "G#5",
            "ticks": 4320,
            "time": 16.615367999999997,
            "velocity": 0.6299212598425197
          },
          {
            "duration": 0.23076900000000222,
            "durationTicks": 60,
            "midi": 72,
            "name": "C5",
            "ticks": 4320,
            "time": 16.615367999999997,
            "velocity": 0.6299212598425197
          },
          {
            "duration": 0.23076900000000222,
            "durationTicks": 60,
            "midi": 80,
            "name": "G#5",
            "ticks": 4410,
            "time": 16.961521499999996,
            "velocity": 0.6299212598425197
          },
          {
            "duration": 0.23076900000000222,
            "durationTicks": 60,
            "midi": 77,
            "name": "F5",
            "ticks": 4410,
            "time": 16.961521499999996,
            "velocity": 0.6299212598425197
          },
          {
            "duration": 0.23076900000000222,
            "durationTicks": 60,
            "midi": 72,
            "name": "C5",
            "ticks": 4410,
            "time": 16.961521499999996,
            "velocity": 0.6299212598425197
          },
          {
            "duration": 0.23076900000000222,
            "durationTicks": 60,
            "midi": 77,
            "name": "F5",
            "ticks": 4500,
            "time": 17.307674999999996,
            "velocity": 0.6299212598425197
          },
          {
            "duration": 0.23076900000000222,
            "durationTicks": 60,
            "midi": 80,
            "name": "G#5",
            "ticks": 4500,
            "time": 17.307674999999996,
            "velocity": 0.6299212598425197
          },
          {
            "duration": 0.23076900000000222,
            "durationTicks": 60,
            "midi": 72,
            "name": "C5",
            "ticks": 4500,
            "time": 17.307674999999996,
            "velocity": 0.6299212598425197
          },
          {
            "duration": 0.23076900000000222,
            "durationTicks": 60,
            "midi": 80,
            "name": "G#5",
            "ticks": 4620,
            "time": 17.769212999999997,
            "velocity": 0.6299212598425197
          },
          {
            "duration": 0.23076900000000222,
            "durationTicks": 60,
            "midi": 77,
            "name": "F5",
            "ticks": 4620,
            "time": 17.769212999999997,
            "velocity": 0.6299212598425197
          },
          {
            "duration": 0.23076900000000222,
            "durationTicks": 60,
            "midi": 72,
            "name": "C5",
            "ticks": 4620,
            "time": 17.769212999999997,
            "velocity": 0.6299212598425197
          },
          {
            "duration": 0.23076900000000222,
            "durationTicks": 60,
            "midi": 77,
            "name": "F5",
            "ticks": 4710,
            "time": 18.115366499999997,
            "velocity": 0.6299212598425197
          },
          {
            "duration": 0.23076900000000222,
            "durationTicks": 60,
            "midi": 80,
            "name": "G#5",
            "ticks": 4710,
            "time": 18.115366499999997,
            "velocity": 0.6299212598425197
          },
          {
            "duration": 0.23076900000000222,
            "durationTicks": 60,
            "midi": 72,
            "name": "C5",
            "ticks": 4710,
            "time": 18.115366499999997,
            "velocity": 0.6299212598425197
          },
          {
            "duration": 0.23076900000000222,
            "durationTicks": 60,
            "midi": 75,
            "name": "D#5",
            "ticks": 4800,
            "time": 18.461519999999997,
            "velocity": 0.6299212598425197
          },
          {
            "duration": 0.23076900000000222,
            "durationTicks": 60,
            "midi": 79,
            "name": "G5",
            "ticks": 4800,
            "time": 18.461519999999997,
            "velocity": 0.6299212598425197
          },
          {
            "duration": 0.23076900000000222,
            "durationTicks": 60,
            "midi": 70,
            "name": "A#4",
            "ticks": 4800,
            "time": 18.461519999999997,
            "velocity": 0.6299212598425197
          },
          {
            "duration": 0.23076900000000222,
            "durationTicks": 60,
            "midi": 75,
            "name": "D#5",
            "ticks": 4890,
            "time": 18.807673499999996,
            "velocity": 0.6299212598425197
          },
          {
            "duration": 0.23076900000000222,
            "durationTicks": 60,
            "midi": 79,
            "name": "G5",
            "ticks": 4890,
            "time": 18.807673499999996,
            "velocity": 0.6299212598425197
          },
          {
            "duration": 0.23076900000000222,
            "durationTicks": 60,
            "midi": 70,
            "name": "A#4",
            "ticks": 4890,
            "time": 18.807673499999996,
            "velocity": 0.6299212598425197
          },
          {
            "duration": 0.23076899999999867,
            "durationTicks": 60,
            "midi": 73,
            "name": "C#5",
            "ticks": 4980,
            "time": 19.153827,
            "velocity": 0.6299212598425197
          },
          {
            "duration": 0.23076899999999867,
            "durationTicks": 60,
            "midi": 77,
            "name": "F5",
            "ticks": 4980,
            "time": 19.153827,
            "velocity": 0.6299212598425197
          },
          {
            "duration": 0.23076899999999867,
            "durationTicks": 60,
            "midi": 68,
            "name": "G#4",
            "ticks": 4980,
            "time": 19.153827,
            "velocity": 0.6299212598425197
          },
          {
            "duration": 0.23076900000000222,
            "durationTicks": 60,
            "midi": 77,
            "name": "F5",
            "ticks": 5100,
            "time": 19.615364999999997,
            "velocity": 0.6299212598425197
          },
          {
            "duration": 0.23076900000000222,
            "durationTicks": 60,
            "midi": 73,
            "name": "C#5",
            "ticks": 5100,
            "time": 19.615364999999997,
            "velocity": 0.6299212598425197
          },
          {
            "duration": 0.23076900000000222,
            "durationTicks": 60,
            "midi": 68,
            "name": "G#4",
            "ticks": 5100,
            "time": 19.615364999999997,
            "velocity": 0.6299212598425197
          },
          {
            "duration": 0.23076900000000222,
            "durationTicks": 60,
            "midi": 77,
            "name": "F5",
            "ticks": 5190,
            "time": 19.961518499999997,
            "velocity": 0.6299212598425197
          },
          {
            "duration": 0.23076900000000222,
            "durationTicks": 60,
            "midi": 73,
            "name": "C#5",
            "ticks": 5190,
            "time": 19.961518499999997,
            "velocity": 0.6299212598425197
          },
          {
            "duration": 0.23076900000000222,
            "durationTicks": 60,
            "midi": 68,
            "name": "G#4",
            "ticks": 5190,
            "time": 19.961518499999997,
            "velocity": 0.6299212598425197
          },
          {
            "duration": 0.23076900000000222,
            "durationTicks": 60,
            "midi": 77,
            "name": "F5",
            "ticks": 5280,
            "time": 20.307671999999997,
            "velocity": 0.6299212598425197
          },
          {
            "duration": 0.23076900000000222,
            "durationTicks": 60,
            "midi": 80,
            "name": "G#5",
            "ticks": 5280,
            "time": 20.307671999999997,
            "velocity": 0.6299212598425197
          },
          {
            "duration": 0.23076900000000222,
            "durationTicks": 60,
            "midi": 72,
            "name": "C5",
            "ticks": 5280,
            "time": 20.307671999999997,
            "velocity": 0.6299212598425197
          },
          {
            "duration": 0.23076900000000222,
            "durationTicks": 60,
            "midi": 77,
            "name": "F5",
            "ticks": 5370,
            "time": 20.653825499999996,
            "velocity": 0.6299212598425197
          },
          {
            "duration": 0.23076900000000222,
            "durationTicks": 60,
            "midi": 80,
            "name": "G#5",
            "ticks": 5370,
            "time": 20.653825499999996,
            "velocity": 0.6299212598425197
          },
          {
            "duration": 0.23076900000000222,
            "durationTicks": 60,
            "midi": 72,
            "name": "C5",
            "ticks": 5370,
            "time": 20.653825499999996,
            "velocity": 0.6299212598425197
          },
          {
            "duration": 0.23076900000000222,
            "durationTicks": 60,
            "midi": 77,
            "name": "F5",
            "ticks": 5460,
            "time": 20.999978999999996,
            "velocity": 0.6299212598425197
          },
          {
            "duration": 0.23076900000000222,
            "durationTicks": 60,
            "midi": 80,
            "name": "G#5",
            "ticks": 5460,
            "time": 20.999978999999996,
            "velocity": 0.6299212598425197
          },
          {
            "duration": 0.23076900000000222,
            "durationTicks": 60,
            "midi": 72,
            "name": "C5",
            "ticks": 5460,
            "time": 20.999978999999996,
            "velocity": 0.6299212598425197
          },
          {
            "duration": 0.23076900000000222,
            "durationTicks": 60,
            "midi": 77,
            "name": "F5",
            "ticks": 5580,
            "time": 21.461516999999997,
            "velocity": 0.6299212598425197
          },
          {
            "duration": 0.23076900000000222,
            "durationTicks": 60,
            "midi": 80,
            "name": "G#5",
            "ticks": 5580,
            "time": 21.461516999999997,
            "velocity": 0.6299212598425197
          },
          {
            "duration": 0.23076900000000222,
            "durationTicks": 60,
            "midi": 72,
            "name": "C5",
            "ticks": 5580,
            "time": 21.461516999999997,
            "velocity": 0.6299212598425197
          },
          {
            "duration": 0.23076900000000222,
            "durationTicks": 60,
            "midi": 77,
            "name": "F5",
            "ticks": 5670,
            "time": 21.807670499999997,
            "velocity": 0.6299212598425197
          },
          {
            "duration": 0.23076900000000222,
            "durationTicks": 60,
            "midi": 80,
            "name": "G#5",
            "ticks": 5670,
            "time": 21.807670499999997,
            "velocity": 0.6299212598425197
          },
          {
            "duration": 0.23076900000000222,
            "durationTicks": 60,
            "midi": 72,
            "name": "C5",
            "ticks": 5670,
            "time": 21.807670499999997,
            "velocity": 0.6299212598425197
          },
          {
            "duration": 0.23076900000000222,
            "durationTicks": 60,
            "midi": 79,
            "name": "G5",
            "ticks": 5760,
            "time": 22.153823999999997,
            "velocity": 0.6299212598425197
          },
          {
            "duration": 0.23076900000000222,
            "durationTicks": 60,
            "midi": 75,
            "name": "D#5",
            "ticks": 5760,
            "time": 22.153823999999997,
            "velocity": 0.6299212598425197
          },
          {
            "duration": 0.23076900000000222,
            "durationTicks": 60,
            "midi": 70,
            "name": "A#4",
            "ticks": 5760,
            "time": 22.153823999999997,
            "velocity": 0.6299212598425197
          },
          {
            "duration": 0.23076900000000222,
            "durationTicks": 60,
            "midi": 70,
            "name": "A#4",
            "ticks": 5850,
            "time": 22.499977499999996,
            "velocity": 0.6299212598425197
          },
          {
            "duration": 0.23076900000000222,
            "durationTicks": 60,
            "midi": 79,
            "name": "G5",
            "ticks": 5850,
            "time": 22.499977499999996,
            "velocity": 0.6299212598425197
          },
          {
            "duration": 0.23076900000000222,
            "durationTicks": 60,
            "midi": 75,
            "name": "D#5",
            "ticks": 5850,
            "time": 22.499977499999996,
            "velocity": 0.6299212598425197
          },
          {
            "duration": 0.23076900000000222,
            "durationTicks": 60,
            "midi": 73,
            "name": "C#5",
            "ticks": 5940,
            "time": 22.846130999999996,
            "velocity": 0.6299212598425197
          },
          {
            "duration": 0.23076900000000222,
            "durationTicks": 60,
            "midi": 77,
            "name": "F5",
            "ticks": 5940,
            "time": 22.846130999999996,
            "velocity": 0.6299212598425197
          },
          {
            "duration": 0.23076900000000222,
            "durationTicks": 60,
            "midi": 80,
            "name": "G#5",
            "ticks": 5940,
            "time": 22.846130999999996,
            "velocity": 0.6299212598425197
          },
          {
            "duration": 0.23076900000000222,
            "durationTicks": 60,
            "midi": 68,
            "name": "G#4",
            "ticks": 5940,
            "time": 22.846130999999996,
            "velocity": 0.6299212598425197
          },
          {
            "duration": 0.23076900000000222,
            "durationTicks": 60,
            "midi": 68,
            "name": "G#4",
            "ticks": 6060,
            "time": 23.307668999999997,
            "velocity": 0.6299212598425197
          },
          {
            "duration": 0.23076900000000222,
            "durationTicks": 60,
            "midi": 77,
            "name": "F5",
            "ticks": 6060,
            "time": 23.307668999999997,
            "velocity": 0.6299212598425197
          },
          {
            "duration": 0.23076900000000222,
            "durationTicks": 60,
            "midi": 73,
            "name": "C#5",
            "ticks": 6060,
            "time": 23.307668999999997,
            "velocity": 0.6299212598425197
          },
          {
            "duration": 0.23076900000000222,
            "durationTicks": 60,
            "midi": 80,
            "name": "G#5",
            "ticks": 6060,
            "time": 23.307668999999997,
            "velocity": 0.6299212598425197
          },
          {
            "duration": 0.23076900000000222,
            "durationTicks": 60,
            "midi": 77,
            "name": "F5",
            "ticks": 6150,
            "time": 23.653822499999997,
            "velocity": 0.6299212598425197
          },
          {
            "duration": 0.23076900000000222,
            "durationTicks": 60,
            "midi": 68,
            "name": "G#4",
            "ticks": 6150,
            "time": 23.653822499999997,
            "velocity": 0.6299212598425197
          },
          {
            "duration": 0.23076900000000222,
            "durationTicks": 60,
            "midi": 80,
            "name": "G#5",
            "ticks": 6150,
            "time": 23.653822499999997,
            "velocity": 0.6299212598425197
          },
          {
            "duration": 0.23076900000000222,
            "durationTicks": 60,
            "midi": 73,
            "name": "C#5",
            "ticks": 6150,
            "time": 23.653822499999997,
            "velocity": 0.6299212598425197
          },
          {
            "duration": 0.23076900000000222,
            "durationTicks": 60,
            "midi": 77,
            "name": "F5",
            "ticks": 6240,
            "time": 23.999975999999997,
            "velocity": 0.6299212598425197
          },
          {
            "duration": 0.23076900000000222,
            "durationTicks": 60,
            "midi": 80,
            "name": "G#5",
            "ticks": 6240,
            "time": 23.999975999999997,
            "velocity": 0.6299212598425197
          },
          {
            "duration": 0.23076900000000222,
            "durationTicks": 60,
            "midi": 72,
            "name": "C5",
            "ticks": 6240,
            "time": 23.999975999999997,
            "velocity": 0.6299212598425197
          },
          {
            "duration": 0.23076900000000222,
            "durationTicks": 60,
            "midi": 80,
            "name": "G#5",
            "ticks": 6330,
            "time": 24.346129499999996,
            "velocity": 0.6299212598425197
          },
          {
            "duration": 0.23076900000000222,
            "durationTicks": 60,
            "midi": 77,
            "name": "F5",
            "ticks": 6330,
            "time": 24.346129499999996,
            "velocity": 0.6299212598425197
          },
          {
            "duration": 0.23076900000000222,
            "durationTicks": 60,
            "midi": 72,
            "name": "C5",
            "ticks": 6330,
            "time": 24.346129499999996,
            "velocity": 0.6299212598425197
          },
          {
            "duration": 0.23076900000000222,
            "durationTicks": 60,
            "midi": 77,
            "name": "F5",
            "ticks": 6420,
            "time": 24.692282999999996,
            "velocity": 0.6299212598425197
          },
          {
            "duration": 0.23076900000000222,
            "durationTicks": 60,
            "midi": 80,
            "name": "G#5",
            "ticks": 6420,
            "time": 24.692282999999996,
            "velocity": 0.6299212598425197
          },
          {
            "duration": 0.23076900000000222,
            "durationTicks": 60,
            "midi": 72,
            "name": "C5",
            "ticks": 6420,
            "time": 24.692282999999996,
            "velocity": 0.6299212598425197
          },
          {
            "duration": 0.23076899999999867,
            "durationTicks": 60,
            "midi": 80,
            "name": "G#5",
            "ticks": 6540,
            "time": 25.153820999999997,
            "velocity": 0.6299212598425197
          },
          {
            "duration": 0.23076899999999867,
            "durationTicks": 60,
            "midi": 77,
            "name": "F5",
            "ticks": 6540,
            "time": 25.153820999999997,
            "velocity": 0.6299212598425197
          },
          {
            "duration": 0.23076899999999867,
            "durationTicks": 60,
            "midi": 72,
            "name": "C5",
            "ticks": 6540,
            "time": 25.153820999999997,
            "velocity": 0.6299212598425197
          },
          {
            "duration": 0.23076900000000222,
            "durationTicks": 60,
            "midi": 77,
            "name": "F5",
            "ticks": 6630,
            "time": 25.499974499999997,
            "velocity": 0.6299212598425197
          },
          {
            "duration": 0.23076900000000222,
            "durationTicks": 60,
            "midi": 80,
            "name": "G#5",
            "ticks": 6630,
            "time": 25.499974499999997,
            "velocity": 0.6299212598425197
          },
          {
            "duration": 0.23076900000000222,
            "durationTicks": 60,
            "midi": 72,
            "name": "C5",
            "ticks": 6630,
            "time": 25.499974499999997,
            "velocity": 0.6299212598425197
          },
          {
            "duration": 0.23076900000000222,
            "durationTicks": 60,
            "midi": 75,
            "name": "D#5",
            "ticks": 6720,
            "time": 25.846127999999997,
            "velocity": 0.6299212598425197
          },
          {
            "duration": 0.23076900000000222,
            "durationTicks": 60,
            "midi": 79,
            "name": "G5",
            "ticks": 6720,
            "time": 25.846127999999997,
            "velocity": 0.6299212598425197
          },
          {
            "duration": 0.23076900000000222,
            "durationTicks": 60,
            "midi": 70,
            "name": "A#4",
            "ticks": 6720,
            "time": 25.846127999999997,
            "velocity": 0.6299212598425197
          },
          {
            "duration": 0.23076900000000222,
            "durationTicks": 60,
            "midi": 75,
            "name": "D#5",
            "ticks": 6810,
            "time": 26.192281499999996,
            "velocity": 0.6299212598425197
          },
          {
            "duration": 0.23076900000000222,
            "durationTicks": 60,
            "midi": 79,
            "name": "G5",
            "ticks": 6810,
            "time": 26.192281499999996,
            "velocity": 0.6299212598425197
          },
          {
            "duration": 0.23076900000000222,
            "durationTicks": 60,
            "midi": 70,
            "name": "A#4",
            "ticks": 6810,
            "time": 26.192281499999996,
            "velocity": 0.6299212598425197
          },
          {
            "duration": 0.23076900000000222,
            "durationTicks": 60,
            "midi": 73,
            "name": "C#5",
            "ticks": 6900,
            "time": 26.538434999999996,
            "velocity": 0.6299212598425197
          },
          {
            "duration": 0.23076900000000222,
            "durationTicks": 60,
            "midi": 77,
            "name": "F5",
            "ticks": 6900,
            "time": 26.538434999999996,
            "velocity": 0.6299212598425197
          },
          {
            "duration": 0.23076900000000222,
            "durationTicks": 60,
            "midi": 68,
            "name": "G#4",
            "ticks": 6900,
            "time": 26.538434999999996,
            "velocity": 0.6299212598425197
          },
          {
            "duration": 0.23076899999999867,
            "durationTicks": 60,
            "midi": 77,
            "name": "F5",
            "ticks": 7020,
            "time": 26.999972999999997,
            "velocity": 0.6299212598425197
          },
          {
            "duration": 0.23076899999999867,
            "durationTicks": 60,
            "midi": 73,
            "name": "C#5",
            "ticks": 7020,
            "time": 26.999972999999997,
            "velocity": 0.6299212598425197
          },
          {
            "duration": 0.23076899999999867,
            "durationTicks": 60,
            "midi": 68,
            "name": "G#4",
            "ticks": 7020,
            "time": 26.999972999999997,
            "velocity": 0.6299212598425197
          },
          {
            "duration": 0.23076899999999867,
            "durationTicks": 60,
            "midi": 77,
            "name": "F5",
            "ticks": 7110,
            "time": 27.346126499999997,
            "velocity": 0.6299212598425197
          },
          {
            "duration": 0.23076899999999867,
            "durationTicks": 60,
            "midi": 73,
            "name": "C#5",
            "ticks": 7110,
            "time": 27.346126499999997,
            "velocity": 0.6299212598425197
          },
          {
            "duration": 0.23076899999999867,
            "durationTicks": 60,
            "midi": 68,
            "name": "G#4",
            "ticks": 7110,
            "time": 27.346126499999997,
            "velocity": 0.6299212598425197
          },
          {
            "duration": 0.23076899999999867,
            "durationTicks": 60,
            "midi": 77,
            "name": "F5",
            "ticks": 7200,
            "time": 27.692279999999997,
            "velocity": 0.6299212598425197
          },
          {
            "duration": 0.23076899999999867,
            "durationTicks": 60,
            "midi": 80,
            "name": "G#5",
            "ticks": 7200,
            "time": 27.692279999999997,
            "velocity": 0.6299212598425197
          },
          {
            "duration": 0.23076899999999867,
            "durationTicks": 60,
            "midi": 72,
            "name": "C5",
            "ticks": 7200,
            "time": 27.692279999999997,
            "velocity": 0.6299212598425197
          },
          {
            "duration": 0.23076900000000222,
            "durationTicks": 60,
            "midi": 77,
            "name": "F5",
            "ticks": 7290,
            "time": 28.038433499999996,
            "velocity": 0.6299212598425197
          },
          {
            "duration": 0.23076900000000222,
            "durationTicks": 60,
            "midi": 80,
            "name": "G#5",
            "ticks": 7290,
            "time": 28.038433499999996,
            "velocity": 0.6299212598425197
          },
          {
            "duration": 0.23076900000000222,
            "durationTicks": 60,
            "midi": 72,
            "name": "C5",
            "ticks": 7290,
            "time": 28.038433499999996,
            "velocity": 0.6299212598425197
          },
          {
            "duration": 0.23076900000000222,
            "durationTicks": 60,
            "midi": 77,
            "name": "F5",
            "ticks": 7380,
            "time": 28.384586999999996,
            "velocity": 0.6299212598425197
          },
          {
            "duration": 0.23076900000000222,
            "durationTicks": 60,
            "midi": 80,
            "name": "G#5",
            "ticks": 7380,
            "time": 28.384586999999996,
            "velocity": 0.6299212598425197
          },
          {
            "duration": 0.23076900000000222,
            "durationTicks": 60,
            "midi": 72,
            "name": "C5",
            "ticks": 7380,
            "time": 28.384586999999996,
            "velocity": 0.6299212598425197
          },
          {
            "duration": 0.23076899999999867,
            "durationTicks": 60,
            "midi": 77,
            "name": "F5",
            "ticks": 7500,
            "time": 28.846124999999997,
            "velocity": 0.6299212598425197
          },
          {
            "duration": 0.23076899999999867,
            "durationTicks": 60,
            "midi": 80,
            "name": "G#5",
            "ticks": 7500,
            "time": 28.846124999999997,
            "velocity": 0.6299212598425197
          },
          {
            "duration": 0.23076899999999867,
            "durationTicks": 60,
            "midi": 72,
            "name": "C5",
            "ticks": 7500,
            "time": 28.846124999999997,
            "velocity": 0.6299212598425197
          },
          {
            "duration": 0.23076899999999867,
            "durationTicks": 60,
            "midi": 77,
            "name": "F5",
            "ticks": 7590,
            "time": 29.192278499999997,
            "velocity": 0.6299212598425197
          },
          {
            "duration": 0.23076899999999867,
            "durationTicks": 60,
            "midi": 80,
            "name": "G#5",
            "ticks": 7590,
            "time": 29.192278499999997,
            "velocity": 0.6299212598425197
          },
          {
            "duration": 0.23076899999999867,
            "durationTicks": 60,
            "midi": 72,
            "name": "C5",
            "ticks": 7590,
            "time": 29.192278499999997,
            "velocity": 0.6299212598425197
          },
          {
            "duration": 0.23076899999999867,
            "durationTicks": 60,
            "midi": 79,
            "name": "G5",
            "ticks": 7680,
            "time": 29.538431999999997,
            "velocity": 0.6299212598425197
          },
          {
            "duration": 0.23076899999999867,
            "durationTicks": 60,
            "midi": 75,
            "name": "D#5",
            "ticks": 7680,
            "time": 29.538431999999997,
            "velocity": 0.6299212598425197
          },
          {
            "duration": 0.23076899999999867,
            "durationTicks": 60,
            "midi": 70,
            "name": "A#4",
            "ticks": 7680,
            "time": 29.538431999999997,
            "velocity": 0.6299212598425197
          },
          {
            "duration": 0.23076899999999867,
            "durationTicks": 60,
            "midi": 70,
            "name": "A#4",
            "ticks": 7770,
            "time": 29.884585499999996,
            "velocity": 0.6299212598425197
          },
          {
            "duration": 0.23076899999999867,
            "durationTicks": 60,
            "midi": 79,
            "name": "G5",
            "ticks": 7770,
            "time": 29.884585499999996,
            "velocity": 0.6299212598425197
          },
          {
            "duration": 0.23076899999999867,
            "durationTicks": 60,
            "midi": 75,
            "name": "D#5",
            "ticks": 7770,
            "time": 29.884585499999996,
            "velocity": 0.6299212598425197
          },
          {
            "duration": 0.23076900000000222,
            "durationTicks": 60,
            "midi": 73,
            "name": "C#5",
            "ticks": 7860,
            "time": 30.230738999999996,
            "velocity": 0.6299212598425197
          },
          {
            "duration": 0.23076900000000222,
            "durationTicks": 60,
            "midi": 77,
            "name": "F5",
            "ticks": 7860,
            "time": 30.230738999999996,
            "velocity": 0.6299212598425197
          },
          {
            "duration": 0.23076900000000222,
            "durationTicks": 60,
            "midi": 80,
            "name": "G#5",
            "ticks": 7860,
            "time": 30.230738999999996,
            "velocity": 0.6299212598425197
          },
          {
            "duration": 0.23076900000000222,
            "durationTicks": 60,
            "midi": 68,
            "name": "G#4",
            "ticks": 7860,
            "time": 30.230738999999996,
            "velocity": 0.6299212598425197
          },
          {
            "duration": 0.23076899999999867,
            "durationTicks": 60,
            "midi": 68,
            "name": "G#4",
            "ticks": 7980,
            "time": 30.692276999999997,
            "velocity": 0.6299212598425197
          },
          {
            "duration": 0.23076899999999867,
            "durationTicks": 60,
            "midi": 77,
            "name": "F5",
            "ticks": 7980,
            "time": 30.692276999999997,
            "velocity": 0.6299212598425197
          },
          {
            "duration": 0.23076899999999867,
            "durationTicks": 60,
            "midi": 73,
            "name": "C#5",
            "ticks": 7980,
            "time": 30.692276999999997,
            "velocity": 0.6299212598425197
          },
          {
            "duration": 0.23076899999999867,
            "durationTicks": 60,
            "midi": 80,
            "name": "G#5",
            "ticks": 7980,
            "time": 30.692276999999997,
            "velocity": 0.6299212598425197
          },
          {
            "duration": 0.23076899999999867,
            "durationTicks": 60,
            "midi": 77,
            "name": "F5",
            "ticks": 8070,
            "time": 31.038430499999997,
            "velocity": 0.6299212598425197
          },
          {
            "duration": 0.23076899999999867,
            "durationTicks": 60,
            "midi": 68,
            "name": "G#4",
            "ticks": 8070,
            "time": 31.038430499999997,
            "velocity": 0.6299212598425197
          },
          {
            "duration": 0.23076899999999867,
            "durationTicks": 60,
            "midi": 80,
            "name": "G#5",
            "ticks": 8070,
            "time": 31.038430499999997,
            "velocity": 0.6299212598425197
          },
          {
            "duration": 0.23076899999999867,
            "durationTicks": 60,
            "midi": 73,
            "name": "C#5",
            "ticks": 8070,
            "time": 31.038430499999997,
            "velocity": 0.6299212598425197
          },
          {
            "duration": 0.23076899999999867,
            "durationTicks": 60,
            "midi": 77,
            "name": "F5",
            "ticks": 8160,
            "time": 31.384583999999997,
            "velocity": 0.6299212598425197
          },
          {
            "duration": 0.23076899999999867,
            "durationTicks": 60,
            "midi": 80,
            "name": "G#5",
            "ticks": 8160,
            "time": 31.384583999999997,
            "velocity": 0.6299212598425197
          },
          {
            "duration": 0.23076899999999867,
            "durationTicks": 60,
            "midi": 72,
            "name": "C5",
            "ticks": 8160,
            "time": 31.384583999999997,
            "velocity": 0.6299212598425197
          },
          {
            "duration": 0.23076899999999867,
            "durationTicks": 60,
            "midi": 80,
            "name": "G#5",
            "ticks": 8250,
            "time": 31.730737499999996,
            "velocity": 0.6299212598425197
          },
          {
            "duration": 0.23076899999999867,
            "durationTicks": 60,
            "midi": 77,
            "name": "F5",
            "ticks": 8250,
            "time": 31.730737499999996,
            "velocity": 0.6299212598425197
          },
          {
            "duration": 0.23076899999999867,
            "durationTicks": 60,
            "midi": 72,
            "name": "C5",
            "ticks": 8250,
            "time": 31.730737499999996,
            "velocity": 0.6299212598425197
          },
          {
            "duration": 0.23076899999999512,
            "durationTicks": 60,
            "midi": 77,
            "name": "F5",
            "ticks": 8340,
            "time": 32.076890999999996,
            "velocity": 0.6299212598425197
          },
          {
            "duration": 0.23076899999999512,
            "durationTicks": 60,
            "midi": 80,
            "name": "G#5",
            "ticks": 8340,
            "time": 32.076890999999996,
            "velocity": 0.6299212598425197
          },
          {
            "duration": 0.23076899999999512,
            "durationTicks": 60,
            "midi": 72,
            "name": "C5",
            "ticks": 8340,
            "time": 32.076890999999996,
            "velocity": 0.6299212598425197
          },
          {
            "duration": 0.23076900000000222,
            "durationTicks": 60,
            "midi": 80,
            "name": "G#5",
            "ticks": 8460,
            "time": 32.538428999999994,
            "velocity": 0.6299212598425197
          },
          {
            "duration": 0.23076900000000222,
            "durationTicks": 60,
            "midi": 77,
            "name": "F5",
            "ticks": 8460,
            "time": 32.538428999999994,
            "velocity": 0.6299212598425197
          },
          {
            "duration": 0.23076900000000222,
            "durationTicks": 60,
            "midi": 72,
            "name": "C5",
            "ticks": 8460,
            "time": 32.538428999999994,
            "velocity": 0.6299212598425197
          },
          {
            "duration": 0.23076900000000222,
            "durationTicks": 60,
            "midi": 77,
            "name": "F5",
            "ticks": 8550,
            "time": 32.88458249999999,
            "velocity": 0.6299212598425197
          },
          {
            "duration": 0.23076900000000222,
            "durationTicks": 60,
            "midi": 80,
            "name": "G#5",
            "ticks": 8550,
            "time": 32.88458249999999,
            "velocity": 0.6299212598425197
          },
          {
            "duration": 0.23076900000000222,
            "durationTicks": 60,
            "midi": 72,
            "name": "C5",
            "ticks": 8550,
            "time": 32.88458249999999,
            "velocity": 0.6299212598425197
          },
          {
            "duration": 0.23076900000000222,
            "durationTicks": 60,
            "midi": 75,
            "name": "D#5",
            "ticks": 8640,
            "time": 33.23073599999999,
            "velocity": 0.6299212598425197
          },
          {
            "duration": 0.23076900000000222,
            "durationTicks": 60,
            "midi": 79,
            "name": "G5",
            "ticks": 8640,
            "time": 33.23073599999999,
            "velocity": 0.6299212598425197
          },
          {
            "duration": 0.23076900000000222,
            "durationTicks": 60,
            "midi": 70,
            "name": "A#4",
            "ticks": 8640,
            "time": 33.23073599999999,
            "velocity": 0.6299212598425197
          },
          {
            "duration": 0.23076900000000222,
            "durationTicks": 60,
            "midi": 75,
            "name": "D#5",
            "ticks": 8730,
            "time": 33.57688949999999,
            "velocity": 0.6299212598425197
          },
          {
            "duration": 0.23076900000000222,
            "durationTicks": 60,
            "midi": 79,
            "name": "G5",
            "ticks": 8730,
            "time": 33.57688949999999,
            "velocity": 0.6299212598425197
          },
          {
            "duration": 0.23076900000000222,
            "durationTicks": 60,
            "midi": 70,
            "name": "A#4",
            "ticks": 8730,
            "time": 33.57688949999999,
            "velocity": 0.6299212598425197
          },
          {
            "duration": 0.23076900000000222,
            "durationTicks": 60,
            "midi": 73,
            "name": "C#5",
            "ticks": 8820,
            "time": 33.92304299999999,
            "velocity": 0.6299212598425197
          },
          {
            "duration": 0.23076900000000222,
            "durationTicks": 60,
            "midi": 77,
            "name": "F5",
            "ticks": 8820,
            "time": 33.92304299999999,
            "velocity": 0.6299212598425197
          },
          {
            "duration": 0.23076900000000222,
            "durationTicks": 60,
            "midi": 68,
            "name": "G#4",
            "ticks": 8820,
            "time": 33.92304299999999,
            "velocity": 0.6299212598425197
          },
          {
            "duration": 0.23076900000000222,
            "durationTicks": 60,
            "midi": 77,
            "name": "F5",
            "ticks": 8940,
            "time": 34.38458099999999,
            "velocity": 0.6299212598425197
          },
          {
            "duration": 0.23076900000000222,
            "durationTicks": 60,
            "midi": 73,
            "name": "C#5",
            "ticks": 8940,
            "time": 34.38458099999999,
            "velocity": 0.6299212598425197
          },
          {
            "duration": 0.23076900000000222,
            "durationTicks": 60,
            "midi": 68,
            "name": "G#4",
            "ticks": 8940,
            "time": 34.38458099999999,
            "velocity": 0.6299212598425197
          },
          {
            "duration": 0.23076900000000222,
            "durationTicks": 60,
            "midi": 77,
            "name": "F5",
            "ticks": 9030,
            "time": 34.73073449999999,
            "velocity": 0.6299212598425197
          },
          {
            "duration": 0.23076900000000222,
            "durationTicks": 60,
            "midi": 73,
            "name": "C#5",
            "ticks": 9030,
            "time": 34.73073449999999,
            "velocity": 0.6299212598425197
          },
          {
            "duration": 0.23076900000000222,
            "durationTicks": 60,
            "midi": 68,
            "name": "G#4",
            "ticks": 9030,
            "time": 34.73073449999999,
            "velocity": 0.6299212598425197
          },
          {
            "duration": 0.23076900000000222,
            "durationTicks": 60,
            "midi": 77,
            "name": "F5",
            "ticks": 9120,
            "time": 35.07688799999999,
            "velocity": 0.6299212598425197
          },
          {
            "duration": 0.23076900000000222,
            "durationTicks": 60,
            "midi": 80,
            "name": "G#5",
            "ticks": 9120,
            "time": 35.07688799999999,
            "velocity": 0.6299212598425197
          },
          {
            "duration": 0.23076900000000222,
            "durationTicks": 60,
            "midi": 72,
            "name": "C5",
            "ticks": 9120,
            "time": 35.07688799999999,
            "velocity": 0.6299212598425197
          },
          {
            "duration": 0.23076900000000222,
            "durationTicks": 60,
            "midi": 77,
            "name": "F5",
            "ticks": 9210,
            "time": 35.42304149999999,
            "velocity": 0.6299212598425197
          },
          {
            "duration": 0.23076900000000222,
            "durationTicks": 60,
            "midi": 80,
            "name": "G#5",
            "ticks": 9210,
            "time": 35.42304149999999,
            "velocity": 0.6299212598425197
          },
          {
            "duration": 0.23076900000000222,
            "durationTicks": 60,
            "midi": 72,
            "name": "C5",
            "ticks": 9210,
            "time": 35.42304149999999,
            "velocity": 0.6299212598425197
          },
          {
            "duration": 0.23076900000000222,
            "durationTicks": 60,
            "midi": 77,
            "name": "F5",
            "ticks": 9300,
            "time": 35.76919499999999,
            "velocity": 0.6299212598425197
          },
          {
            "duration": 0.23076900000000222,
            "durationTicks": 60,
            "midi": 80,
            "name": "G#5",
            "ticks": 9300,
            "time": 35.76919499999999,
            "velocity": 0.6299212598425197
          },
          {
            "duration": 0.23076900000000222,
            "durationTicks": 60,
            "midi": 72,
            "name": "C5",
            "ticks": 9300,
            "time": 35.76919499999999,
            "velocity": 0.6299212598425197
          },
          {
            "duration": 0.23076900000000222,
            "durationTicks": 60,
            "midi": 77,
            "name": "F5",
            "ticks": 9420,
            "time": 36.230732999999994,
            "velocity": 0.6299212598425197
          },
          {
            "duration": 0.23076900000000222,
            "durationTicks": 60,
            "midi": 80,
            "name": "G#5",
            "ticks": 9420,
            "time": 36.230732999999994,
            "velocity": 0.6299212598425197
          },
          {
            "duration": 0.23076900000000222,
            "durationTicks": 60,
            "midi": 72,
            "name": "C5",
            "ticks": 9420,
            "time": 36.230732999999994,
            "velocity": 0.6299212598425197
          },
          {
            "duration": 0.23076900000000222,
            "durationTicks": 60,
            "midi": 77,
            "name": "F5",
            "ticks": 9510,
            "time": 36.57688649999999,
            "velocity": 0.6299212598425197
          },
          {
            "duration": 0.23076900000000222,
            "durationTicks": 60,
            "midi": 80,
            "name": "G#5",
            "ticks": 9510,
            "time": 36.57688649999999,
            "velocity": 0.6299212598425197
          },
          {
            "duration": 0.23076900000000222,
            "durationTicks": 60,
            "midi": 72,
            "name": "C5",
            "ticks": 9510,
            "time": 36.57688649999999,
            "velocity": 0.6299212598425197
          },
          {
            "duration": 0.23076900000000222,
            "durationTicks": 60,
            "midi": 79,
            "name": "G5",
            "ticks": 9600,
            "time": 36.92303999999999,
            "velocity": 0.6299212598425197
          },
          {
            "duration": 0.23076900000000222,
            "durationTicks": 60,
            "midi": 75,
            "name": "D#5",
            "ticks": 9600,
            "time": 36.92303999999999,
            "velocity": 0.6299212598425197
          },
          {
            "duration": 0.23076900000000222,
            "durationTicks": 60,
            "midi": 70,
            "name": "A#4",
            "ticks": 9600,
            "time": 36.92303999999999,
            "velocity": 0.6299212598425197
          },
          {
            "duration": 0.23076900000000222,
            "durationTicks": 60,
            "midi": 70,
            "name": "A#4",
            "ticks": 9690,
            "time": 37.26919349999999,
            "velocity": 0.6299212598425197
          },
          {
            "duration": 0.23076900000000222,
            "durationTicks": 60,
            "midi": 79,
            "name": "G5",
            "ticks": 9690,
            "time": 37.26919349999999,
            "velocity": 0.6299212598425197
          },
          {
            "duration": 0.23076900000000222,
            "durationTicks": 60,
            "midi": 75,
            "name": "D#5",
            "ticks": 9690,
            "time": 37.26919349999999,
            "velocity": 0.6299212598425197
          },
          {
            "duration": 0.23076900000000222,
            "durationTicks": 60,
            "midi": 73,
            "name": "C#5",
            "ticks": 9780,
            "time": 37.61534699999999,
            "velocity": 0.6299212598425197
          },
          {
            "duration": 0.23076900000000222,
            "durationTicks": 60,
            "midi": 77,
            "name": "F5",
            "ticks": 9780,
            "time": 37.61534699999999,
            "velocity": 0.6299212598425197
          },
          {
            "duration": 0.23076900000000222,
            "durationTicks": 60,
            "midi": 80,
            "name": "G#5",
            "ticks": 9780,
            "time": 37.61534699999999,
            "velocity": 0.6299212598425197
          },
          {
            "duration": 0.23076900000000222,
            "durationTicks": 60,
            "midi": 68,
            "name": "G#4",
            "ticks": 9780,
            "time": 37.61534699999999,
            "velocity": 0.6299212598425197
          },
          {
            "duration": 0.23076900000000222,
            "durationTicks": 60,
            "midi": 68,
            "name": "G#4",
            "ticks": 9900,
            "time": 38.07688499999999,
            "velocity": 0.6299212598425197
          },
          {
            "duration": 0.23076900000000222,
            "durationTicks": 60,
            "midi": 77,
            "name": "F5",
            "ticks": 9900,
            "time": 38.07688499999999,
            "velocity": 0.6299212598425197
          },
          {
            "duration": 0.23076900000000222,
            "durationTicks": 60,
            "midi": 73,
            "name": "C#5",
            "ticks": 9900,
            "time": 38.07688499999999,
            "velocity": 0.6299212598425197
          },
          {
            "duration": 0.23076900000000222,
            "durationTicks": 60,
            "midi": 80,
            "name": "G#5",
            "ticks": 9900,
            "time": 38.07688499999999,
            "velocity": 0.6299212598425197
          },
          {
            "duration": 0.23076900000000222,
            "durationTicks": 60,
            "midi": 77,
            "name": "F5",
            "ticks": 9990,
            "time": 38.42303849999999,
            "velocity": 0.6299212598425197
          },
          {
            "duration": 0.23076900000000222,
            "durationTicks": 60,
            "midi": 68,
            "name": "G#4",
            "ticks": 9990,
            "time": 38.42303849999999,
            "velocity": 0.6299212598425197
          },
          {
            "duration": 0.23076900000000222,
            "durationTicks": 60,
            "midi": 80,
            "name": "G#5",
            "ticks": 9990,
            "time": 38.42303849999999,
            "velocity": 0.6299212598425197
          },
          {
            "duration": 0.23076900000000222,
            "durationTicks": 60,
            "midi": 73,
            "name": "C#5",
            "ticks": 9990,
            "time": 38.42303849999999,
            "velocity": 0.6299212598425197
          },
          {
            "duration": 0.23076900000000222,
            "durationTicks": 60,
            "midi": 77,
            "name": "F5",
            "ticks": 10080,
            "time": 38.76919199999999,
            "velocity": 0.6299212598425197
          },
          {
            "duration": 0.23076900000000222,
            "durationTicks": 60,
            "midi": 80,
            "name": "G#5",
            "ticks": 10080,
            "time": 38.76919199999999,
            "velocity": 0.6299212598425197
          },
          {
            "duration": 0.23076900000000222,
            "durationTicks": 60,
            "midi": 72,
            "name": "C5",
            "ticks": 10080,
            "time": 38.76919199999999,
            "velocity": 0.6299212598425197
          },
          {
            "duration": 0.23076900000000222,
            "durationTicks": 60,
            "midi": 80,
            "name": "G#5",
            "ticks": 10170,
            "time": 39.11534549999999,
            "velocity": 0.6299212598425197
          },
          {
            "duration": 0.23076900000000222,
            "durationTicks": 60,
            "midi": 77,
            "name": "F5",
            "ticks": 10170,
            "time": 39.11534549999999,
            "velocity": 0.6299212598425197
          },
          {
            "duration": 0.23076900000000222,
            "durationTicks": 60,
            "midi": 72,
            "name": "C5",
            "ticks": 10170,
            "time": 39.11534549999999,
            "velocity": 0.6299212598425197
          },
          {
            "duration": 0.23076900000000222,
            "durationTicks": 60,
            "midi": 77,
            "name": "F5",
            "ticks": 10260,
            "time": 39.46149899999999,
            "velocity": 0.6299212598425197
          },
          {
            "duration": 0.23076900000000222,
            "durationTicks": 60,
            "midi": 80,
            "name": "G#5",
            "ticks": 10260,
            "time": 39.46149899999999,
            "velocity": 0.6299212598425197
          },
          {
            "duration": 0.23076900000000222,
            "durationTicks": 60,
            "midi": 72,
            "name": "C5",
            "ticks": 10260,
            "time": 39.46149899999999,
            "velocity": 0.6299212598425197
          },
          {
            "duration": 0.23076899999999512,
            "durationTicks": 60,
            "midi": 80,
            "name": "G#5",
            "ticks": 10380,
            "time": 39.923036999999994,
            "velocity": 0.6299212598425197
          },
          {
            "duration": 0.23076899999999512,
            "durationTicks": 60,
            "midi": 77,
            "name": "F5",
            "ticks": 10380,
            "time": 39.923036999999994,
            "velocity": 0.6299212598425197
          },
          {
            "duration": 0.23076899999999512,
            "durationTicks": 60,
            "midi": 72,
            "name": "C5",
            "ticks": 10380,
            "time": 39.923036999999994,
            "velocity": 0.6299212598425197
          },
          {
            "duration": 0.23076900000000222,
            "durationTicks": 60,
            "midi": 77,
            "name": "F5",
            "ticks": 10470,
            "time": 40.26919049999999,
            "velocity": 0.6299212598425197
          },
          {
            "duration": 0.23076900000000222,
            "durationTicks": 60,
            "midi": 80,
            "name": "G#5",
            "ticks": 10470,
            "time": 40.26919049999999,
            "velocity": 0.6299212598425197
          },
          {
            "duration": 0.23076900000000222,
            "durationTicks": 60,
            "midi": 72,
            "name": "C5",
            "ticks": 10470,
            "time": 40.26919049999999,
            "velocity": 0.6299212598425197
          },
          {
            "duration": 0.23076900000000222,
            "durationTicks": 60,
            "midi": 75,
            "name": "D#5",
            "ticks": 10560,
            "time": 40.61534399999999,
            "velocity": 0.6299212598425197
          },
          {
            "duration": 0.23076900000000222,
            "durationTicks": 60,
            "midi": 79,
            "name": "G5",
            "ticks": 10560,
            "time": 40.61534399999999,
            "velocity": 0.6299212598425197
          },
          {
            "duration": 0.23076900000000222,
            "durationTicks": 60,
            "midi": 70,
            "name": "A#4",
            "ticks": 10560,
            "time": 40.61534399999999,
            "velocity": 0.6299212598425197
          },
          {
            "duration": 0.23076900000000222,
            "durationTicks": 60,
            "midi": 75,
            "name": "D#5",
            "ticks": 10650,
            "time": 40.96149749999999,
            "velocity": 0.6299212598425197
          },
          {
            "duration": 0.23076900000000222,
            "durationTicks": 60,
            "midi": 79,
            "name": "G5",
            "ticks": 10650,
            "time": 40.96149749999999,
            "velocity": 0.6299212598425197
          },
          {
            "duration": 0.23076900000000222,
            "durationTicks": 60,
            "midi": 70,
            "name": "A#4",
            "ticks": 10650,
            "time": 40.96149749999999,
            "velocity": 0.6299212598425197
          },
          {
            "duration": 0.23076900000000222,
            "durationTicks": 60,
            "midi": 73,
            "name": "C#5",
            "ticks": 10740,
            "time": 41.30765099999999,
            "velocity": 0.6299212598425197
          },
          {
            "duration": 0.23076900000000222,
            "durationTicks": 60,
            "midi": 77,
            "name": "F5",
            "ticks": 10740,
            "time": 41.30765099999999,
            "velocity": 0.6299212598425197
          },
          {
            "duration": 0.23076900000000222,
            "durationTicks": 60,
            "midi": 68,
            "name": "G#4",
            "ticks": 10740,
            "time": 41.30765099999999,
            "velocity": 0.6299212598425197
          },
          {
            "duration": 0.23076900000000222,
            "durationTicks": 60,
            "midi": 77,
            "name": "F5",
            "ticks": 10860,
            "time": 41.76918899999999,
            "velocity": 0.6299212598425197
          },
          {
            "duration": 0.23076900000000222,
            "durationTicks": 60,
            "midi": 73,
            "name": "C#5",
            "ticks": 10860,
            "time": 41.76918899999999,
            "velocity": 0.6299212598425197
          },
          {
            "duration": 0.23076900000000222,
            "durationTicks": 60,
            "midi": 68,
            "name": "G#4",
            "ticks": 10860,
            "time": 41.76918899999999,
            "velocity": 0.6299212598425197
          },
          {
            "duration": 0.23076900000000222,
            "durationTicks": 60,
            "midi": 77,
            "name": "F5",
            "ticks": 10950,
            "time": 42.11534249999999,
            "velocity": 0.6299212598425197
          },
          {
            "duration": 0.23076900000000222,
            "durationTicks": 60,
            "midi": 73,
            "name": "C#5",
            "ticks": 10950,
            "time": 42.11534249999999,
            "velocity": 0.6299212598425197
          },
          {
            "duration": 0.23076900000000222,
            "durationTicks": 60,
            "midi": 68,
            "name": "G#4",
            "ticks": 10950,
            "time": 42.11534249999999,
            "velocity": 0.6299212598425197
          },
          {
            "duration": 0.23076900000000222,
            "durationTicks": 60,
            "midi": 77,
            "name": "F5",
            "ticks": 11040,
            "time": 42.46149599999999,
            "velocity": 0.6299212598425197
          },
          {
            "duration": 0.23076900000000222,
            "durationTicks": 60,
            "midi": 80,
            "name": "G#5",
            "ticks": 11040,
            "time": 42.46149599999999,
            "velocity": 0.6299212598425197
          },
          {
            "duration": 0.23076900000000222,
            "durationTicks": 60,
            "midi": 72,
            "name": "C5",
            "ticks": 11040,
            "time": 42.46149599999999,
            "velocity": 0.6299212598425197
          },
          {
            "duration": 0.23076900000000222,
            "durationTicks": 60,
            "midi": 77,
            "name": "F5",
            "ticks": 11130,
            "time": 42.80764949999999,
            "velocity": 0.6299212598425197
          },
          {
            "duration": 0.23076900000000222,
            "durationTicks": 60,
            "midi": 80,
            "name": "G#5",
            "ticks": 11130,
            "time": 42.80764949999999,
            "velocity": 0.6299212598425197
          },
          {
            "duration": 0.23076900000000222,
            "durationTicks": 60,
            "midi": 72,
            "name": "C5",
            "ticks": 11130,
            "time": 42.80764949999999,
            "velocity": 0.6299212598425197
          },
          {
            "duration": 0.23076900000000222,
            "durationTicks": 60,
            "midi": 77,
            "name": "F5",
            "ticks": 11220,
            "time": 43.15380299999999,
            "velocity": 0.6299212598425197
          },
          {
            "duration": 0.23076900000000222,
            "durationTicks": 60,
            "midi": 80,
            "name": "G#5",
            "ticks": 11220,
            "time": 43.15380299999999,
            "velocity": 0.6299212598425197
          },
          {
            "duration": 0.23076900000000222,
            "durationTicks": 60,
            "midi": 72,
            "name": "C5",
            "ticks": 11220,
            "time": 43.15380299999999,
            "velocity": 0.6299212598425197
          },
          {
            "duration": 0.23076899999999512,
            "durationTicks": 60,
            "midi": 77,
            "name": "F5",
            "ticks": 11340,
            "time": 43.615340999999994,
            "velocity": 0.6299212598425197
          },
          {
            "duration": 0.23076899999999512,
            "durationTicks": 60,
            "midi": 80,
            "name": "G#5",
            "ticks": 11340,
            "time": 43.615340999999994,
            "velocity": 0.6299212598425197
          },
          {
            "duration": 0.23076899999999512,
            "durationTicks": 60,
            "midi": 72,
            "name": "C5",
            "ticks": 11340,
            "time": 43.615340999999994,
            "velocity": 0.6299212598425197
          },
          {
            "duration": 0.23076900000000222,
            "durationTicks": 60,
            "midi": 77,
            "name": "F5",
            "ticks": 12000,
            "time": 46.15379999999999,
            "velocity": 0.6299212598425197
          },
          {
            "duration": 0.23076900000000222,
            "durationTicks": 60,
            "midi": 80,
            "name": "G#5",
            "ticks": 12000,
            "time": 46.15379999999999,
            "velocity": 0.6299212598425197
          },
          {
            "duration": 0.23076900000000222,
            "durationTicks": 60,
            "midi": 72,
            "name": "C5",
            "ticks": 12000,
            "time": 46.15379999999999,
            "velocity": 0.6299212598425197
          },
          {
            "duration": 0.23076900000000222,
            "durationTicks": 60,
            "midi": 80,
            "name": "G#5",
            "ticks": 12090,
            "time": 46.49995349999999,
            "velocity": 0.6299212598425197
          },
          {
            "duration": 0.23076900000000222,
            "durationTicks": 60,
            "midi": 77,
            "name": "F5",
            "ticks": 12090,
            "time": 46.49995349999999,
            "velocity": 0.6299212598425197
          },
          {
            "duration": 0.23076900000000222,
            "durationTicks": 60,
            "midi": 72,
            "name": "C5",
            "ticks": 12090,
            "time": 46.49995349999999,
            "velocity": 0.6299212598425197
          },
          {
            "duration": 0.23076900000000222,
            "durationTicks": 60,
            "midi": 77,
            "name": "F5",
            "ticks": 12180,
            "time": 46.84610699999999,
            "velocity": 0.6299212598425197
          },
          {
            "duration": 0.23076900000000222,
            "durationTicks": 60,
            "midi": 80,
            "name": "G#5",
            "ticks": 12180,
            "time": 46.84610699999999,
            "velocity": 0.6299212598425197
          },
          {
            "duration": 0.23076900000000222,
            "durationTicks": 60,
            "midi": 72,
            "name": "C5",
            "ticks": 12180,
            "time": 46.84610699999999,
            "velocity": 0.6299212598425197
          },
          {
            "duration": 0.23076899999999512,
            "durationTicks": 60,
            "midi": 80,
            "name": "G#5",
            "ticks": 12300,
            "time": 47.307644999999994,
            "velocity": 0.6299212598425197
          },
          {
            "duration": 0.23076899999999512,
            "durationTicks": 60,
            "midi": 77,
            "name": "F5",
            "ticks": 12300,
            "time": 47.307644999999994,
            "velocity": 0.6299212598425197
          },
          {
            "duration": 0.23076899999999512,
            "durationTicks": 60,
            "midi": 72,
            "name": "C5",
            "ticks": 12300,
            "time": 47.307644999999994,
            "velocity": 0.6299212598425197
          },
          {
            "duration": 0.23076899999999512,
            "durationTicks": 60,
            "midi": 77,
            "name": "F5",
            "ticks": 12390,
            "time": 47.65379849999999,
            "velocity": 0.6299212598425197
          },
          {
            "duration": 0.23076899999999512,
            "durationTicks": 60,
            "midi": 80,
            "name": "G#5",
            "ticks": 12390,
            "time": 47.65379849999999,
            "velocity": 0.6299212598425197
          },
          {
            "duration": 0.23076899999999512,
            "durationTicks": 60,
            "midi": 72,
            "name": "C5",
            "ticks": 12390,
            "time": 47.65379849999999,
            "velocity": 0.6299212598425197
          },
          {
            "duration": 0.23076899999999512,
            "durationTicks": 60,
            "midi": 75,
            "name": "D#5",
            "ticks": 12480,
            "time": 47.99995199999999,
            "velocity": 0.6299212598425197
          },
          {
            "duration": 0.23076899999999512,
            "durationTicks": 60,
            "midi": 79,
            "name": "G5",
            "ticks": 12480,
            "time": 47.99995199999999,
            "velocity": 0.6299212598425197
          },
          {
            "duration": 0.23076899999999512,
            "durationTicks": 60,
            "midi": 70,
            "name": "A#4",
            "ticks": 12480,
            "time": 47.99995199999999,
            "velocity": 0.6299212598425197
          },
          {
            "duration": 0.23076899999999512,
            "durationTicks": 60,
            "midi": 75,
            "name": "D#5",
            "ticks": 12570,
            "time": 48.34610549999999,
            "velocity": 0.6299212598425197
          },
          {
            "duration": 0.23076899999999512,
            "durationTicks": 60,
            "midi": 79,
            "name": "G5",
            "ticks": 12570,
            "time": 48.34610549999999,
            "velocity": 0.6299212598425197
          },
          {
            "duration": 0.23076899999999512,
            "durationTicks": 60,
            "midi": 70,
            "name": "A#4",
            "ticks": 12570,
            "time": 48.34610549999999,
            "velocity": 0.6299212598425197
          },
          {
            "duration": 0.23076899999999512,
            "durationTicks": 60,
            "midi": 73,
            "name": "C#5",
            "ticks": 12660,
            "time": 48.69225899999999,
            "velocity": 0.6299212598425197
          },
          {
            "duration": 0.23076899999999512,
            "durationTicks": 60,
            "midi": 77,
            "name": "F5",
            "ticks": 12660,
            "time": 48.69225899999999,
            "velocity": 0.6299212598425197
          },
          {
            "duration": 0.23076899999999512,
            "durationTicks": 60,
            "midi": 68,
            "name": "G#4",
            "ticks": 12660,
            "time": 48.69225899999999,
            "velocity": 0.6299212598425197
          },
          {
            "duration": 0.23076900000000222,
            "durationTicks": 60,
            "midi": 77,
            "name": "F5",
            "ticks": 12780,
            "time": 49.15379699999999,
            "velocity": 0.6299212598425197
          },
          {
            "duration": 0.23076900000000222,
            "durationTicks": 60,
            "midi": 73,
            "name": "C#5",
            "ticks": 12780,
            "time": 49.15379699999999,
            "velocity": 0.6299212598425197
          },
          {
            "duration": 0.23076900000000222,
            "durationTicks": 60,
            "midi": 68,
            "name": "G#4",
            "ticks": 12780,
            "time": 49.15379699999999,
            "velocity": 0.6299212598425197
          },
          {
            "duration": 0.23076900000000222,
            "durationTicks": 60,
            "midi": 77,
            "name": "F5",
            "ticks": 12870,
            "time": 49.49995049999999,
            "velocity": 0.6299212598425197
          },
          {
            "duration": 0.23076900000000222,
            "durationTicks": 60,
            "midi": 73,
            "name": "C#5",
            "ticks": 12870,
            "time": 49.49995049999999,
            "velocity": 0.6299212598425197
          },
          {
            "duration": 0.23076900000000222,
            "durationTicks": 60,
            "midi": 68,
            "name": "G#4",
            "ticks": 12870,
            "time": 49.49995049999999,
            "velocity": 0.6299212598425197
          },
          {
            "duration": 0.23076900000000222,
            "durationTicks": 60,
            "midi": 77,
            "name": "F5",
            "ticks": 12960,
            "time": 49.84610399999999,
            "velocity": 0.6299212598425197
          },
          {
            "duration": 0.23076900000000222,
            "durationTicks": 60,
            "midi": 80,
            "name": "G#5",
            "ticks": 12960,
            "time": 49.84610399999999,
            "velocity": 0.6299212598425197
          },
          {
            "duration": 0.23076900000000222,
            "durationTicks": 60,
            "midi": 72,
            "name": "C5",
            "ticks": 12960,
            "time": 49.84610399999999,
            "velocity": 0.6299212598425197
          },
          {
            "duration": 0.23076900000000222,
            "durationTicks": 60,
            "midi": 77,
            "name": "F5",
            "ticks": 13050,
            "time": 50.19225749999999,
            "velocity": 0.6299212598425197
          },
          {
            "duration": 0.23076900000000222,
            "durationTicks": 60,
            "midi": 80,
            "name": "G#5",
            "ticks": 13050,
            "time": 50.19225749999999,
            "velocity": 0.6299212598425197
          },
          {
            "duration": 0.23076900000000222,
            "durationTicks": 60,
            "midi": 72,
            "name": "C5",
            "ticks": 13050,
            "time": 50.19225749999999,
            "velocity": 0.6299212598425197
          },
          {
            "duration": 0.23076900000000222,
            "durationTicks": 60,
            "midi": 77,
            "name": "F5",
            "ticks": 13140,
            "time": 50.53841099999999,
            "velocity": 0.6299212598425197
          },
          {
            "duration": 0.23076900000000222,
            "durationTicks": 60,
            "midi": 80,
            "name": "G#5",
            "ticks": 13140,
            "time": 50.53841099999999,
            "velocity": 0.6299212598425197
          },
          {
            "duration": 0.23076900000000222,
            "durationTicks": 60,
            "midi": 72,
            "name": "C5",
            "ticks": 13140,
            "time": 50.53841099999999,
            "velocity": 0.6299212598425197
          },
          {
            "duration": 0.23076899999999512,
            "durationTicks": 60,
            "midi": 77,
            "name": "F5",
            "ticks": 13260,
            "time": 50.999948999999994,
            "velocity": 0.6299212598425197
          },
          {
            "duration": 0.23076899999999512,
            "durationTicks": 60,
            "midi": 80,
            "name": "G#5",
            "ticks": 13260,
            "time": 50.999948999999994,
            "velocity": 0.6299212598425197
          },
          {
            "duration": 0.23076899999999512,
            "durationTicks": 60,
            "midi": 72,
            "name": "C5",
            "ticks": 13260,
            "time": 50.999948999999994,
            "velocity": 0.6299212598425197
          },
          {
            "duration": 0.23076899999999512,
            "durationTicks": 60,
            "midi": 77,
            "name": "F5",
            "ticks": 13350,
            "time": 51.34610249999999,
            "velocity": 0.6299212598425197
          },
          {
            "duration": 0.23076899999999512,
            "durationTicks": 60,
            "midi": 80,
            "name": "G#5",
            "ticks": 13350,
            "time": 51.34610249999999,
            "velocity": 0.6299212598425197
          },
          {
            "duration": 0.23076899999999512,
            "durationTicks": 60,
            "midi": 72,
            "name": "C5",
            "ticks": 13350,
            "time": 51.34610249999999,
            "velocity": 0.6299212598425197
          },
          {
            "duration": 0.23076899999999512,
            "durationTicks": 60,
            "midi": 79,
            "name": "G5",
            "ticks": 13440,
            "time": 51.69225599999999,
            "velocity": 0.6299212598425197
          },
          {
            "duration": 0.23076899999999512,
            "durationTicks": 60,
            "midi": 75,
            "name": "D#5",
            "ticks": 13440,
            "time": 51.69225599999999,
            "velocity": 0.6299212598425197
          },
          {
            "duration": 0.23076899999999512,
            "durationTicks": 60,
            "midi": 70,
            "name": "A#4",
            "ticks": 13440,
            "time": 51.69225599999999,
            "velocity": 0.6299212598425197
          },
          {
            "duration": 0.23076899999999512,
            "durationTicks": 60,
            "midi": 70,
            "name": "A#4",
            "ticks": 13530,
            "time": 52.03840949999999,
            "velocity": 0.6299212598425197
          },
          {
            "duration": 0.23076899999999512,
            "durationTicks": 60,
            "midi": 79,
            "name": "G5",
            "ticks": 13530,
            "time": 52.03840949999999,
            "velocity": 0.6299212598425197
          },
          {
            "duration": 0.23076899999999512,
            "durationTicks": 60,
            "midi": 75,
            "name": "D#5",
            "ticks": 13530,
            "time": 52.03840949999999,
            "velocity": 0.6299212598425197
          },
          {
            "duration": 0.23076899999999512,
            "durationTicks": 60,
            "midi": 73,
            "name": "C#5",
            "ticks": 13620,
            "time": 52.38456299999999,
            "velocity": 0.6299212598425197
          },
          {
            "duration": 0.23076899999999512,
            "durationTicks": 60,
            "midi": 77,
            "name": "F5",
            "ticks": 13620,
            "time": 52.38456299999999,
            "velocity": 0.6299212598425197
          },
          {
            "duration": 0.23076899999999512,
            "durationTicks": 60,
            "midi": 80,
            "name": "G#5",
            "ticks": 13620,
            "time": 52.38456299999999,
            "velocity": 0.6299212598425197
          },
          {
            "duration": 0.23076899999999512,
            "durationTicks": 60,
            "midi": 68,
            "name": "G#4",
            "ticks": 13620,
            "time": 52.38456299999999,
            "velocity": 0.6299212598425197
          },
          {
            "duration": 0.23076900000000222,
            "durationTicks": 60,
            "midi": 68,
            "name": "G#4",
            "ticks": 13740,
            "time": 52.84610099999999,
            "velocity": 0.6299212598425197
          },
          {
            "duration": 0.23076900000000222,
            "durationTicks": 60,
            "midi": 77,
            "name": "F5",
            "ticks": 13740,
            "time": 52.84610099999999,
            "velocity": 0.6299212598425197
          },
          {
            "duration": 0.23076900000000222,
            "durationTicks": 60,
            "midi": 73,
            "name": "C#5",
            "ticks": 13740,
            "time": 52.84610099999999,
            "velocity": 0.6299212598425197
          },
          {
            "duration": 0.23076900000000222,
            "durationTicks": 60,
            "midi": 80,
            "name": "G#5",
            "ticks": 13740,
            "time": 52.84610099999999,
            "velocity": 0.6299212598425197
          },
          {
            "duration": 0.23076900000000222,
            "durationTicks": 60,
            "midi": 77,
            "name": "F5",
            "ticks": 13830,
            "time": 53.19225449999999,
            "velocity": 0.6299212598425197
          },
          {
            "duration": 0.23076900000000222,
            "durationTicks": 60,
            "midi": 68,
            "name": "G#4",
            "ticks": 13830,
            "time": 53.19225449999999,
            "velocity": 0.6299212598425197
          },
          {
            "duration": 0.23076900000000222,
            "durationTicks": 60,
            "midi": 80,
            "name": "G#5",
            "ticks": 13830,
            "time": 53.19225449999999,
            "velocity": 0.6299212598425197
          },
          {
            "duration": 0.23076900000000222,
            "durationTicks": 60,
            "midi": 73,
            "name": "C#5",
            "ticks": 13830,
            "time": 53.19225449999999,
            "velocity": 0.6299212598425197
          },
          {
            "duration": 0.23076900000000222,
            "durationTicks": 60,
            "midi": 77,
            "name": "F5",
            "ticks": 13920,
            "time": 53.53840799999999,
            "velocity": 0.6299212598425197
          },
          {
            "duration": 0.23076900000000222,
            "durationTicks": 60,
            "midi": 80,
            "name": "G#5",
            "ticks": 13920,
            "time": 53.53840799999999,
            "velocity": 0.6299212598425197
          },
          {
            "duration": 0.23076900000000222,
            "durationTicks": 60,
            "midi": 72,
            "name": "C5",
            "ticks": 13920,
            "time": 53.53840799999999,
            "velocity": 0.6299212598425197
          },
          {
            "duration": 0.23076900000000222,
            "durationTicks": 60,
            "midi": 80,
            "name": "G#5",
            "ticks": 14010,
            "time": 53.88456149999999,
            "velocity": 0.6299212598425197
          },
          {
            "duration": 0.23076900000000222,
            "durationTicks": 60,
            "midi": 77,
            "name": "F5",
            "ticks": 14010,
            "time": 53.88456149999999,
            "velocity": 0.6299212598425197
          },
          {
            "duration": 0.23076900000000222,
            "durationTicks": 60,
            "midi": 72,
            "name": "C5",
            "ticks": 14010,
            "time": 53.88456149999999,
            "velocity": 0.6299212598425197
          },
          {
            "duration": 0.23076900000000222,
            "durationTicks": 60,
            "midi": 77,
            "name": "F5",
            "ticks": 14100,
            "time": 54.23071499999999,
            "velocity": 0.6299212598425197
          },
          {
            "duration": 0.23076900000000222,
            "durationTicks": 60,
            "midi": 80,
            "name": "G#5",
            "ticks": 14100,
            "time": 54.23071499999999,
            "velocity": 0.6299212598425197
          },
          {
            "duration": 0.23076900000000222,
            "durationTicks": 60,
            "midi": 72,
            "name": "C5",
            "ticks": 14100,
            "time": 54.23071499999999,
            "velocity": 0.6299212598425197
          },
          {
            "duration": 0.23076899999999512,
            "durationTicks": 60,
            "midi": 80,
            "name": "G#5",
            "ticks": 14220,
            "time": 54.692252999999994,
            "velocity": 0.6299212598425197
          },
          {
            "duration": 0.23076899999999512,
            "durationTicks": 60,
            "midi": 77,
            "name": "F5",
            "ticks": 14220,
            "time": 54.692252999999994,
            "velocity": 0.6299212598425197
          },
          {
            "duration": 0.23076899999999512,
            "durationTicks": 60,
            "midi": 72,
            "name": "C5",
            "ticks": 14220,
            "time": 54.692252999999994,
            "velocity": 0.6299212598425197
          },
          {
            "duration": 0.23076899999999512,
            "durationTicks": 60,
            "midi": 77,
            "name": "F5",
            "ticks": 14310,
            "time": 55.038406499999994,
            "velocity": 0.6299212598425197
          },
          {
            "duration": 0.23076899999999512,
            "durationTicks": 60,
            "midi": 80,
            "name": "G#5",
            "ticks": 14310,
            "time": 55.038406499999994,
            "velocity": 0.6299212598425197
          },
          {
            "duration": 0.23076899999999512,
            "durationTicks": 60,
            "midi": 72,
            "name": "C5",
            "ticks": 14310,
            "time": 55.038406499999994,
            "velocity": 0.6299212598425197
          },
          {
            "duration": 0.23076899999999512,
            "durationTicks": 60,
            "midi": 75,
            "name": "D#5",
            "ticks": 14400,
            "time": 55.38455999999999,
            "velocity": 0.6299212598425197
          },
          {
            "duration": 0.23076899999999512,
            "durationTicks": 60,
            "midi": 79,
            "name": "G5",
            "ticks": 14400,
            "time": 55.38455999999999,
            "velocity": 0.6299212598425197
          },
          {
            "duration": 0.23076899999999512,
            "durationTicks": 60,
            "midi": 70,
            "name": "A#4",
            "ticks": 14400,
            "time": 55.38455999999999,
            "velocity": 0.6299212598425197
          },
          {
            "duration": 0.23076899999999512,
            "durationTicks": 60,
            "midi": 75,
            "name": "D#5",
            "ticks": 14490,
            "time": 55.73071349999999,
            "velocity": 0.6299212598425197
          },
          {
            "duration": 0.23076899999999512,
            "durationTicks": 60,
            "midi": 79,
            "name": "G5",
            "ticks": 14490,
            "time": 55.73071349999999,
            "velocity": 0.6299212598425197
          },
          {
            "duration": 0.23076899999999512,
            "durationTicks": 60,
            "midi": 70,
            "name": "A#4",
            "ticks": 14490,
            "time": 55.73071349999999,
            "velocity": 0.6299212598425197
          },
          {
            "duration": 0.23076899999999512,
            "durationTicks": 60,
            "midi": 73,
            "name": "C#5",
            "ticks": 14580,
            "time": 56.07686699999999,
            "velocity": 0.6299212598425197
          },
          {
            "duration": 0.23076899999999512,
            "durationTicks": 60,
            "midi": 77,
            "name": "F5",
            "ticks": 14580,
            "time": 56.07686699999999,
            "velocity": 0.6299212598425197
          },
          {
            "duration": 0.23076899999999512,
            "durationTicks": 60,
            "midi": 68,
            "name": "G#4",
            "ticks": 14580,
            "time": 56.07686699999999,
            "velocity": 0.6299212598425197
          },
          {
            "duration": 0.23076900000000222,
            "durationTicks": 60,
            "midi": 77,
            "name": "F5",
            "ticks": 14700,
            "time": 56.53840499999999,
            "velocity": 0.6299212598425197
          },
          {
            "duration": 0.23076900000000222,
            "durationTicks": 60,
            "midi": 73,
            "name": "C#5",
            "ticks": 14700,
            "time": 56.53840499999999,
            "velocity": 0.6299212598425197
          },
          {
            "duration": 0.23076900000000222,
            "durationTicks": 60,
            "midi": 68,
            "name": "G#4",
            "ticks": 14700,
            "time": 56.53840499999999,
            "velocity": 0.6299212598425197
          },
          {
            "duration": 0.23076900000000222,
            "durationTicks": 60,
            "midi": 77,
            "name": "F5",
            "ticks": 14790,
            "time": 56.88455849999999,
            "velocity": 0.6299212598425197
          },
          {
            "duration": 0.23076900000000222,
            "durationTicks": 60,
            "midi": 73,
            "name": "C#5",
            "ticks": 14790,
            "time": 56.88455849999999,
            "velocity": 0.6299212598425197
          },
          {
            "duration": 0.23076900000000222,
            "durationTicks": 60,
            "midi": 68,
            "name": "G#4",
            "ticks": 14790,
            "time": 56.88455849999999,
            "velocity": 0.6299212598425197
          },
          {
            "duration": 0.23076900000000222,
            "durationTicks": 60,
            "midi": 77,
            "name": "F5",
            "ticks": 14880,
            "time": 57.23071199999999,
            "velocity": 0.6299212598425197
          },
          {
            "duration": 0.23076900000000222,
            "durationTicks": 60,
            "midi": 80,
            "name": "G#5",
            "ticks": 14880,
            "time": 57.23071199999999,
            "velocity": 0.6299212598425197
          },
          {
            "duration": 0.23076900000000222,
            "durationTicks": 60,
            "midi": 72,
            "name": "C5",
            "ticks": 14880,
            "time": 57.23071199999999,
            "velocity": 0.6299212598425197
          },
          {
            "duration": 0.23076900000000222,
            "durationTicks": 60,
            "midi": 77,
            "name": "F5",
            "ticks": 14970,
            "time": 57.57686549999999,
            "velocity": 0.6299212598425197
          },
          {
            "duration": 0.23076900000000222,
            "durationTicks": 60,
            "midi": 80,
            "name": "G#5",
            "ticks": 14970,
            "time": 57.57686549999999,
            "velocity": 0.6299212598425197
          },
          {
            "duration": 0.23076900000000222,
            "durationTicks": 60,
            "midi": 72,
            "name": "C5",
            "ticks": 14970,
            "time": 57.57686549999999,
            "velocity": 0.6299212598425197
          },
          {
            "duration": 0.23076900000000222,
            "durationTicks": 60,
            "midi": 77,
            "name": "F5",
            "ticks": 15060,
            "time": 57.92301899999999,
            "velocity": 0.6299212598425197
          },
          {
            "duration": 0.23076900000000222,
            "durationTicks": 60,
            "midi": 80,
            "name": "G#5",
            "ticks": 15060,
            "time": 57.92301899999999,
            "velocity": 0.6299212598425197
          },
          {
            "duration": 0.23076900000000222,
            "durationTicks": 60,
            "midi": 72,
            "name": "C5",
            "ticks": 15060,
            "time": 57.92301899999999,
            "velocity": 0.6299212598425197
          },
          {
            "duration": 0.23076900000000222,
            "durationTicks": 60,
            "midi": 77,
            "name": "F5",
            "ticks": 15180,
            "time": 58.38455699999999,
            "velocity": 0.6299212598425197
          },
          {
            "duration": 0.23076900000000222,
            "durationTicks": 60,
            "midi": 80,
            "name": "G#5",
            "ticks": 15180,
            "time": 58.38455699999999,
            "velocity": 0.6299212598425197
          },
          {
            "duration": 0.23076900000000222,
            "durationTicks": 60,
            "midi": 72,
            "name": "C5",
            "ticks": 15180,
            "time": 58.38455699999999,
            "velocity": 0.6299212598425197
          },
          {
            "duration": 0.23076899999999512,
            "durationTicks": 60,
            "midi": 79,
            "name": "G5",
            "ticks": 19200,
            "time": 73.84608,
            "velocity": 0.6299212598425197
          },
          {
            "duration": 0.23076899999999512,
            "durationTicks": 60,
            "midi": 75,
            "name": "D#5",
            "ticks": 19200,
            "time": 73.84608,
            "velocity": 0.6299212598425197
          },
          {
            "duration": 0.23076899999999512,
            "durationTicks": 60,
            "midi": 70,
            "name": "A#4",
            "ticks": 19200,
            "time": 73.84608,
            "velocity": 0.6299212598425197
          },
          {
            "duration": 0.23076899999999512,
            "durationTicks": 60,
            "midi": 70,
            "name": "A#4",
            "ticks": 19290,
            "time": 74.1922335,
            "velocity": 0.6299212598425197
          },
          {
            "duration": 0.23076899999999512,
            "durationTicks": 60,
            "midi": 79,
            "name": "G5",
            "ticks": 19290,
            "time": 74.1922335,
            "velocity": 0.6299212598425197
          },
          {
            "duration": 0.23076899999999512,
            "durationTicks": 60,
            "midi": 75,
            "name": "D#5",
            "ticks": 19290,
            "time": 74.1922335,
            "velocity": 0.6299212598425197
          },
          {
            "duration": 0.23076899999999512,
            "durationTicks": 60,
            "midi": 73,
            "name": "C#5",
            "ticks": 19380,
            "time": 74.538387,
            "velocity": 0.6299212598425197
          },
          {
            "duration": 0.23076899999999512,
            "durationTicks": 60,
            "midi": 77,
            "name": "F5",
            "ticks": 19380,
            "time": 74.538387,
            "velocity": 0.6299212598425197
          },
          {
            "duration": 0.23076899999999512,
            "durationTicks": 60,
            "midi": 80,
            "name": "G#5",
            "ticks": 19380,
            "time": 74.538387,
            "velocity": 0.6299212598425197
          },
          {
            "duration": 0.23076899999999512,
            "durationTicks": 60,
            "midi": 68,
            "name": "G#4",
            "ticks": 19380,
            "time": 74.538387,
            "velocity": 0.6299212598425197
          },
          {
            "duration": 0.23076900000000933,
            "durationTicks": 60,
            "midi": 68,
            "name": "G#4",
            "ticks": 19500,
            "time": 74.99992499999999,
            "velocity": 0.6299212598425197
          },
          {
            "duration": 0.23076900000000933,
            "durationTicks": 60,
            "midi": 77,
            "name": "F5",
            "ticks": 19500,
            "time": 74.99992499999999,
            "velocity": 0.6299212598425197
          },
          {
            "duration": 0.23076900000000933,
            "durationTicks": 60,
            "midi": 73,
            "name": "C#5",
            "ticks": 19500,
            "time": 74.99992499999999,
            "velocity": 0.6299212598425197
          },
          {
            "duration": 0.23076900000000933,
            "durationTicks": 60,
            "midi": 80,
            "name": "G#5",
            "ticks": 19500,
            "time": 74.99992499999999,
            "velocity": 0.6299212598425197
          },
          {
            "duration": 0.23076900000000933,
            "durationTicks": 60,
            "midi": 77,
            "name": "F5",
            "ticks": 19590,
            "time": 75.34607849999999,
            "velocity": 0.6299212598425197
          },
          {
            "duration": 0.23076900000000933,
            "durationTicks": 60,
            "midi": 68,
            "name": "G#4",
            "ticks": 19590,
            "time": 75.34607849999999,
            "velocity": 0.6299212598425197
          },
          {
            "duration": 0.23076900000000933,
            "durationTicks": 60,
            "midi": 80,
            "name": "G#5",
            "ticks": 19590,
            "time": 75.34607849999999,
            "velocity": 0.6299212598425197
          },
          {
            "duration": 0.23076900000000933,
            "durationTicks": 60,
            "midi": 73,
            "name": "C#5",
            "ticks": 19590,
            "time": 75.34607849999999,
            "velocity": 0.6299212598425197
          },
          {
            "duration": 0.23076900000000933,
            "durationTicks": 60,
            "midi": 77,
            "name": "F5",
            "ticks": 25440,
            "time": 97.84605599999999,
            "velocity": 0.6299212598425197
          },
          {
            "duration": 0.23076900000000933,
            "durationTicks": 60,
            "midi": 80,
            "name": "G#5",
            "ticks": 25440,
            "time": 97.84605599999999,
            "velocity": 0.6299212598425197
          },
          {
            "duration": 0.23076900000000933,
            "durationTicks": 60,
            "midi": 72,
            "name": "C5",
            "ticks": 25440,
            "time": 97.84605599999999,
            "velocity": 0.6299212598425197
          },
          {
            "duration": 0.23076900000000933,
            "durationTicks": 60,
            "midi": 80,
            "name": "G#5",
            "ticks": 25530,
            "time": 98.19220949999999,
            "velocity": 0.6299212598425197
          },
          {
            "duration": 0.23076900000000933,
            "durationTicks": 60,
            "midi": 77,
            "name": "F5",
            "ticks": 25530,
            "time": 98.19220949999999,
            "velocity": 0.6299212598425197
          },
          {
            "duration": 0.23076900000000933,
            "durationTicks": 60,
            "midi": 72,
            "name": "C5",
            "ticks": 25530,
            "time": 98.19220949999999,
            "velocity": 0.6299212598425197
          },
          {
            "duration": 0.23076900000000933,
            "durationTicks": 60,
            "midi": 77,
            "name": "F5",
            "ticks": 25620,
            "time": 98.53836299999999,
            "velocity": 0.6299212598425197
          },
          {
            "duration": 0.23076900000000933,
            "durationTicks": 60,
            "midi": 80,
            "name": "G#5",
            "ticks": 25620,
            "time": 98.53836299999999,
            "velocity": 0.6299212598425197
          },
          {
            "duration": 0.23076900000000933,
            "durationTicks": 60,
            "midi": 72,
            "name": "C5",
            "ticks": 25620,
            "time": 98.53836299999999,
            "velocity": 0.6299212598425197
          },
          {
            "duration": 0.23076899999999512,
            "durationTicks": 60,
            "midi": 80,
            "name": "G#5",
            "ticks": 25740,
            "time": 98.999901,
            "velocity": 0.6299212598425197
          },
          {
            "duration": 0.23076899999999512,
            "durationTicks": 60,
            "midi": 77,
            "name": "F5",
            "ticks": 25740,
            "time": 98.999901,
            "velocity": 0.6299212598425197
          },
          {
            "duration": 0.23076899999999512,
            "durationTicks": 60,
            "midi": 72,
            "name": "C5",
            "ticks": 25740,
            "time": 98.999901,
            "velocity": 0.6299212598425197
          },
          {
            "duration": 0.23076899999999512,
            "durationTicks": 60,
            "midi": 77,
            "name": "F5",
            "ticks": 25830,
            "time": 99.3460545,
            "velocity": 0.6299212598425197
          },
          {
            "duration": 0.23076899999999512,
            "durationTicks": 60,
            "midi": 80,
            "name": "G#5",
            "ticks": 25830,
            "time": 99.3460545,
            "velocity": 0.6299212598425197
          },
          {
            "duration": 0.23076899999999512,
            "durationTicks": 60,
            "midi": 72,
            "name": "C5",
            "ticks": 25830,
            "time": 99.3460545,
            "velocity": 0.6299212598425197
          },
          {
            "duration": 0.23076899999999512,
            "durationTicks": 60,
            "midi": 75,
            "name": "D#5",
            "ticks": 25920,
            "time": 99.692208,
            "velocity": 0.6299212598425197
          },
          {
            "duration": 0.23076899999999512,
            "durationTicks": 60,
            "midi": 79,
            "name": "G5",
            "ticks": 25920,
            "time": 99.692208,
            "velocity": 0.6299212598425197
          },
          {
            "duration": 0.23076899999999512,
            "durationTicks": 60,
            "midi": 70,
            "name": "A#4",
            "ticks": 25920,
            "time": 99.692208,
            "velocity": 0.6299212598425197
          },
          {
            "duration": 0.23076899999999512,
            "durationTicks": 60,
            "midi": 75,
            "name": "D#5",
            "ticks": 26010,
            "time": 100.0383615,
            "velocity": 0.6299212598425197
          },
          {
            "duration": 0.23076899999999512,
            "durationTicks": 60,
            "midi": 79,
            "name": "G5",
            "ticks": 26010,
            "time": 100.0383615,
            "velocity": 0.6299212598425197
          },
          {
            "duration": 0.23076899999999512,
            "durationTicks": 60,
            "midi": 70,
            "name": "A#4",
            "ticks": 26010,
            "time": 100.0383615,
            "velocity": 0.6299212598425197
          },
          {
            "duration": 0.23076899999999512,
            "durationTicks": 60,
            "midi": 73,
            "name": "C#5",
            "ticks": 26100,
            "time": 100.384515,
            "velocity": 0.6299212598425197
          },
          {
            "duration": 0.23076899999999512,
            "durationTicks": 60,
            "midi": 77,
            "name": "F5",
            "ticks": 26100,
            "time": 100.384515,
            "velocity": 0.6299212598425197
          },
          {
            "duration": 0.23076899999999512,
            "durationTicks": 60,
            "midi": 68,
            "name": "G#4",
            "ticks": 26100,
            "time": 100.384515,
            "velocity": 0.6299212598425197
          },
          {
            "duration": 0.23076899999999512,
            "durationTicks": 60,
            "midi": 77,
            "name": "F5",
            "ticks": 26220,
            "time": 100.846053,
            "velocity": 0.6299212598425197
          },
          {
            "duration": 0.23076899999999512,
            "durationTicks": 60,
            "midi": 73,
            "name": "C#5",
            "ticks": 26220,
            "time": 100.846053,
            "velocity": 0.6299212598425197
          },
          {
            "duration": 0.23076899999999512,
            "durationTicks": 60,
            "midi": 68,
            "name": "G#4",
            "ticks": 26220,
            "time": 100.846053,
            "velocity": 0.6299212598425197
          },
          {
            "duration": 0.23076899999999512,
            "durationTicks": 60,
            "midi": 77,
            "name": "F5",
            "ticks": 26310,
            "time": 101.1922065,
            "velocity": 0.6299212598425197
          },
          {
            "duration": 0.23076899999999512,
            "durationTicks": 60,
            "midi": 73,
            "name": "C#5",
            "ticks": 26310,
            "time": 101.1922065,
            "velocity": 0.6299212598425197
          },
          {
            "duration": 0.23076899999999512,
            "durationTicks": 60,
            "midi": 68,
            "name": "G#4",
            "ticks": 26310,
            "time": 101.1922065,
            "velocity": 0.6299212598425197
          },
          {
            "duration": 0.23076899999999512,
            "durationTicks": 60,
            "midi": 77,
            "name": "F5",
            "ticks": 26400,
            "time": 101.53836,
            "velocity": 0.6299212598425197
          },
          {
            "duration": 0.23076899999999512,
            "durationTicks": 60,
            "midi": 80,
            "name": "G#5",
            "ticks": 26400,
            "time": 101.53836,
            "velocity": 0.6299212598425197
          },
          {
            "duration": 0.23076899999999512,
            "durationTicks": 60,
            "midi": 72,
            "name": "C5",
            "ticks": 26400,
            "time": 101.53836,
            "velocity": 0.6299212598425197
          },
          {
            "duration": 0.23076899999999512,
            "durationTicks": 60,
            "midi": 77,
            "name": "F5",
            "ticks": 26490,
            "time": 101.8845135,
            "velocity": 0.6299212598425197
          },
          {
            "duration": 0.23076899999999512,
            "durationTicks": 60,
            "midi": 80,
            "name": "G#5",
            "ticks": 26490,
            "time": 101.8845135,
            "velocity": 0.6299212598425197
          },
          {
            "duration": 0.23076899999999512,
            "durationTicks": 60,
            "midi": 72,
            "name": "C5",
            "ticks": 26490,
            "time": 101.8845135,
            "velocity": 0.6299212598425197
          },
          {
            "duration": 0.23076899999999512,
            "durationTicks": 60,
            "midi": 77,
            "name": "F5",
            "ticks": 26580,
            "time": 102.230667,
            "velocity": 0.6299212598425197
          },
          {
            "duration": 0.23076899999999512,
            "durationTicks": 60,
            "midi": 80,
            "name": "G#5",
            "ticks": 26580,
            "time": 102.230667,
            "velocity": 0.6299212598425197
          },
          {
            "duration": 0.23076899999999512,
            "durationTicks": 60,
            "midi": 72,
            "name": "C5",
            "ticks": 26580,
            "time": 102.230667,
            "velocity": 0.6299212598425197
          },
          {
            "duration": 0.23076900000000933,
            "durationTicks": 60,
            "midi": 77,
            "name": "F5",
            "ticks": 26700,
            "time": 102.69220499999999,
            "velocity": 0.6299212598425197
          },
          {
            "duration": 0.23076900000000933,
            "durationTicks": 60,
            "midi": 80,
            "name": "G#5",
            "ticks": 26700,
            "time": 102.69220499999999,
            "velocity": 0.6299212598425197
          },
          {
            "duration": 0.23076900000000933,
            "durationTicks": 60,
            "midi": 72,
            "name": "C5",
            "ticks": 26700,
            "time": 102.69220499999999,
            "velocity": 0.6299212598425197
          },
          {
            "duration": 0.23076900000000933,
            "durationTicks": 60,
            "midi": 77,
            "name": "F5",
            "ticks": 26790,
            "time": 103.03835849999999,
            "velocity": 0.6299212598425197
          },
          {
            "duration": 0.23076900000000933,
            "durationTicks": 60,
            "midi": 80,
            "name": "G#5",
            "ticks": 26790,
            "time": 103.03835849999999,
            "velocity": 0.6299212598425197
          },
          {
            "duration": 0.23076900000000933,
            "durationTicks": 60,
            "midi": 72,
            "name": "C5",
            "ticks": 26790,
            "time": 103.03835849999999,
            "velocity": 0.6299212598425197
          },
          {
            "duration": 0.23076899999999512,
            "durationTicks": 60,
            "midi": 77,
            "name": "F5",
            "ticks": 27360,
            "time": 105.23066399999999,
            "velocity": 0.6299212598425197
          },
          {
            "duration": 0.23076899999999512,
            "durationTicks": 60,
            "midi": 80,
            "name": "G#5",
            "ticks": 27360,
            "time": 105.23066399999999,
            "velocity": 0.6299212598425197
          },
          {
            "duration": 0.23076899999999512,
            "durationTicks": 60,
            "midi": 72,
            "name": "C5",
            "ticks": 27360,
            "time": 105.23066399999999,
            "velocity": 0.6299212598425197
          },
          {
            "duration": 0.23076899999999512,
            "durationTicks": 60,
            "midi": 80,
            "name": "G#5",
            "ticks": 27450,
            "time": 105.57681749999999,
            "velocity": 0.6299212598425197
          },
          {
            "duration": 0.23076899999999512,
            "durationTicks": 60,
            "midi": 77,
            "name": "F5",
            "ticks": 27450,
            "time": 105.57681749999999,
            "velocity": 0.6299212598425197
          },
          {
            "duration": 0.23076899999999512,
            "durationTicks": 60,
            "midi": 72,
            "name": "C5",
            "ticks": 27450,
            "time": 105.57681749999999,
            "velocity": 0.6299212598425197
          },
          {
            "duration": 0.23076899999999512,
            "durationTicks": 60,
            "midi": 77,
            "name": "F5",
            "ticks": 27540,
            "time": 105.92297099999999,
            "velocity": 0.6299212598425197
          },
          {
            "duration": 0.23076899999999512,
            "durationTicks": 60,
            "midi": 80,
            "name": "G#5",
            "ticks": 27540,
            "time": 105.92297099999999,
            "velocity": 0.6299212598425197
          },
          {
            "duration": 0.23076899999999512,
            "durationTicks": 60,
            "midi": 72,
            "name": "C5",
            "ticks": 27540,
            "time": 105.92297099999999,
            "velocity": 0.6299212598425197
          },
          {
            "duration": 0.23076899999999512,
            "durationTicks": 60,
            "midi": 80,
            "name": "G#5",
            "ticks": 27660,
            "time": 106.384509,
            "velocity": 0.6299212598425197
          },
          {
            "duration": 0.23076899999999512,
            "durationTicks": 60,
            "midi": 77,
            "name": "F5",
            "ticks": 27660,
            "time": 106.384509,
            "velocity": 0.6299212598425197
          },
          {
            "duration": 0.23076899999999512,
            "durationTicks": 60,
            "midi": 72,
            "name": "C5",
            "ticks": 27660,
            "time": 106.384509,
            "velocity": 0.6299212598425197
          },
          {
            "duration": 0.23076899999999512,
            "durationTicks": 60,
            "midi": 77,
            "name": "F5",
            "ticks": 27750,
            "time": 106.7306625,
            "velocity": 0.6299212598425197
          },
          {
            "duration": 0.23076899999999512,
            "durationTicks": 60,
            "midi": 80,
            "name": "G#5",
            "ticks": 27750,
            "time": 106.7306625,
            "velocity": 0.6299212598425197
          },
          {
            "duration": 0.23076899999999512,
            "durationTicks": 60,
            "midi": 72,
            "name": "C5",
            "ticks": 27750,
            "time": 106.7306625,
            "velocity": 0.6299212598425197
          },
          {
            "duration": 0.23076899999999512,
            "durationTicks": 60,
            "midi": 75,
            "name": "D#5",
            "ticks": 27840,
            "time": 107.076816,
            "velocity": 0.6299212598425197
          },
          {
            "duration": 0.23076899999999512,
            "durationTicks": 60,
            "midi": 79,
            "name": "G5",
            "ticks": 27840,
            "time": 107.076816,
            "velocity": 0.6299212598425197
          },
          {
            "duration": 0.23076899999999512,
            "durationTicks": 60,
            "midi": 70,
            "name": "A#4",
            "ticks": 27840,
            "time": 107.076816,
            "velocity": 0.6299212598425197
          },
          {
            "duration": 0.23076899999999512,
            "durationTicks": 60,
            "midi": 75,
            "name": "D#5",
            "ticks": 27930,
            "time": 107.4229695,
            "velocity": 0.6299212598425197
          },
          {
            "duration": 0.23076899999999512,
            "durationTicks": 60,
            "midi": 79,
            "name": "G5",
            "ticks": 27930,
            "time": 107.4229695,
            "velocity": 0.6299212598425197
          },
          {
            "duration": 0.23076899999999512,
            "durationTicks": 60,
            "midi": 70,
            "name": "A#4",
            "ticks": 27930,
            "time": 107.4229695,
            "velocity": 0.6299212598425197
          },
          {
            "duration": 0.23076899999999512,
            "durationTicks": 60,
            "midi": 73,
            "name": "C#5",
            "ticks": 28020,
            "time": 107.769123,
            "velocity": 0.6299212598425197
          },
          {
            "duration": 0.23076899999999512,
            "durationTicks": 60,
            "midi": 77,
            "name": "F5",
            "ticks": 28020,
            "time": 107.769123,
            "velocity": 0.6299212598425197
          },
          {
            "duration": 0.23076899999999512,
            "durationTicks": 60,
            "midi": 68,
            "name": "G#4",
            "ticks": 28020,
            "time": 107.769123,
            "velocity": 0.6299212598425197
          },
          {
            "duration": 0.23076899999999512,
            "durationTicks": 60,
            "midi": 77,
            "name": "F5",
            "ticks": 28140,
            "time": 108.230661,
            "velocity": 0.6299212598425197
          },
          {
            "duration": 0.23076899999999512,
            "durationTicks": 60,
            "midi": 73,
            "name": "C#5",
            "ticks": 28140,
            "time": 108.230661,
            "velocity": 0.6299212598425197
          },
          {
            "duration": 0.23076899999999512,
            "durationTicks": 60,
            "midi": 68,
            "name": "G#4",
            "ticks": 28140,
            "time": 108.230661,
            "velocity": 0.6299212598425197
          },
          {
            "duration": 0.23076899999999512,
            "durationTicks": 60,
            "midi": 77,
            "name": "F5",
            "ticks": 28230,
            "time": 108.5768145,
            "velocity": 0.6299212598425197
          },
          {
            "duration": 0.23076899999999512,
            "durationTicks": 60,
            "midi": 73,
            "name": "C#5",
            "ticks": 28230,
            "time": 108.5768145,
            "velocity": 0.6299212598425197
          },
          {
            "duration": 0.23076899999999512,
            "durationTicks": 60,
            "midi": 68,
            "name": "G#4",
            "ticks": 28230,
            "time": 108.5768145,
            "velocity": 0.6299212598425197
          },
          {
            "duration": 0.23076899999999512,
            "durationTicks": 60,
            "midi": 77,
            "name": "F5",
            "ticks": 28320,
            "time": 108.922968,
            "velocity": 0.6299212598425197
          },
          {
            "duration": 0.23076899999999512,
            "durationTicks": 60,
            "midi": 80,
            "name": "G#5",
            "ticks": 28320,
            "time": 108.922968,
            "velocity": 0.6299212598425197
          },
          {
            "duration": 0.23076899999999512,
            "durationTicks": 60,
            "midi": 72,
            "name": "C5",
            "ticks": 28320,
            "time": 108.922968,
            "velocity": 0.6299212598425197
          },
          {
            "duration": 0.23076899999999512,
            "durationTicks": 60,
            "midi": 77,
            "name": "F5",
            "ticks": 28410,
            "time": 109.2691215,
            "velocity": 0.6299212598425197
          },
          {
            "duration": 0.23076899999999512,
            "durationTicks": 60,
            "midi": 80,
            "name": "G#5",
            "ticks": 28410,
            "time": 109.2691215,
            "velocity": 0.6299212598425197
          },
          {
            "duration": 0.23076899999999512,
            "durationTicks": 60,
            "midi": 72,
            "name": "C5",
            "ticks": 28410,
            "time": 109.2691215,
            "velocity": 0.6299212598425197
          },
          {
            "duration": 0.23076899999999512,
            "durationTicks": 60,
            "midi": 77,
            "name": "F5",
            "ticks": 28500,
            "time": 109.615275,
            "velocity": 0.6299212598425197
          },
          {
            "duration": 0.23076899999999512,
            "durationTicks": 60,
            "midi": 80,
            "name": "G#5",
            "ticks": 28500,
            "time": 109.615275,
            "velocity": 0.6299212598425197
          },
          {
            "duration": 0.23076899999999512,
            "durationTicks": 60,
            "midi": 72,
            "name": "C5",
            "ticks": 28500,
            "time": 109.615275,
            "velocity": 0.6299212598425197
          },
          {
            "duration": 0.23076900000000933,
            "durationTicks": 60,
            "midi": 77,
            "name": "F5",
            "ticks": 28620,
            "time": 110.07681299999999,
            "velocity": 0.6299212598425197
          },
          {
            "duration": 0.23076900000000933,
            "durationTicks": 60,
            "midi": 80,
            "name": "G#5",
            "ticks": 28620,
            "time": 110.07681299999999,
            "velocity": 0.6299212598425197
          },
          {
            "duration": 0.23076900000000933,
            "durationTicks": 60,
            "midi": 72,
            "name": "C5",
            "ticks": 28620,
            "time": 110.07681299999999,
            "velocity": 0.6299212598425197
          },
          {
            "duration": 0.23076900000000933,
            "durationTicks": 60,
            "midi": 77,
            "name": "F5",
            "ticks": 28710,
            "time": 110.42296649999999,
            "velocity": 0.6299212598425197
          },
          {
            "duration": 0.23076900000000933,
            "durationTicks": 60,
            "midi": 80,
            "name": "G#5",
            "ticks": 28710,
            "time": 110.42296649999999,
            "velocity": 0.6299212598425197
          },
          {
            "duration": 0.23076900000000933,
            "durationTicks": 60,
            "midi": 72,
            "name": "C5",
            "ticks": 28710,
            "time": 110.42296649999999,
            "velocity": 0.6299212598425197
          },
          {
            "duration": 0.23076900000000933,
            "durationTicks": 60,
            "midi": 79,
            "name": "G5",
            "ticks": 28800,
            "time": 110.76911999999999,
            "velocity": 0.6299212598425197
          },
          {
            "duration": 0.23076900000000933,
            "durationTicks": 60,
            "midi": 75,
            "name": "D#5",
            "ticks": 28800,
            "time": 110.76911999999999,
            "velocity": 0.6299212598425197
          },
          {
            "duration": 0.23076900000000933,
            "durationTicks": 60,
            "midi": 70,
            "name": "A#4",
            "ticks": 28800,
            "time": 110.76911999999999,
            "velocity": 0.6299212598425197
          },
          {
            "duration": 0.23076900000000933,
            "durationTicks": 60,
            "midi": 70,
            "name": "A#4",
            "ticks": 28890,
            "time": 111.11527349999999,
            "velocity": 0.6299212598425197
          },
          {
            "duration": 0.23076900000000933,
            "durationTicks": 60,
            "midi": 79,
            "name": "G5",
            "ticks": 28890,
            "time": 111.11527349999999,
            "velocity": 0.6299212598425197
          },
          {
            "duration": 0.23076900000000933,
            "durationTicks": 60,
            "midi": 75,
            "name": "D#5",
            "ticks": 28890,
            "time": 111.11527349999999,
            "velocity": 0.6299212598425197
          },
          {
            "duration": 0.23076900000000933,
            "durationTicks": 60,
            "midi": 73,
            "name": "C#5",
            "ticks": 28980,
            "time": 111.46142699999999,
            "velocity": 0.6299212598425197
          },
          {
            "duration": 0.23076900000000933,
            "durationTicks": 60,
            "midi": 77,
            "name": "F5",
            "ticks": 28980,
            "time": 111.46142699999999,
            "velocity": 0.6299212598425197
          },
          {
            "duration": 0.23076900000000933,
            "durationTicks": 60,
            "midi": 80,
            "name": "G#5",
            "ticks": 28980,
            "time": 111.46142699999999,
            "velocity": 0.6299212598425197
          },
          {
            "duration": 0.23076900000000933,
            "durationTicks": 60,
            "midi": 68,
            "name": "G#4",
            "ticks": 28980,
            "time": 111.46142699999999,
            "velocity": 0.6299212598425197
          },
          {
            "duration": 0.23076899999999512,
            "durationTicks": 60,
            "midi": 68,
            "name": "G#4",
            "ticks": 29100,
            "time": 111.92296499999999,
            "velocity": 0.6299212598425197
          },
          {
            "duration": 0.23076899999999512,
            "durationTicks": 60,
            "midi": 77,
            "name": "F5",
            "ticks": 29100,
            "time": 111.92296499999999,
            "velocity": 0.6299212598425197
          },
          {
            "duration": 0.23076899999999512,
            "durationTicks": 60,
            "midi": 73,
            "name": "C#5",
            "ticks": 29100,
            "time": 111.92296499999999,
            "velocity": 0.6299212598425197
          },
          {
            "duration": 0.23076899999999512,
            "durationTicks": 60,
            "midi": 80,
            "name": "G#5",
            "ticks": 29100,
            "time": 111.92296499999999,
            "velocity": 0.6299212598425197
          },
          {
            "duration": 0.23076899999999512,
            "durationTicks": 60,
            "midi": 77,
            "name": "F5",
            "ticks": 29190,
            "time": 112.26911849999999,
            "velocity": 0.6299212598425197
          },
          {
            "duration": 0.23076899999999512,
            "durationTicks": 60,
            "midi": 68,
            "name": "G#4",
            "ticks": 29190,
            "time": 112.26911849999999,
            "velocity": 0.6299212598425197
          },
          {
            "duration": 0.23076899999999512,
            "durationTicks": 60,
            "midi": 80,
            "name": "G#5",
            "ticks": 29190,
            "time": 112.26911849999999,
            "velocity": 0.6299212598425197
          },
          {
            "duration": 0.23076899999999512,
            "durationTicks": 60,
            "midi": 73,
            "name": "C#5",
            "ticks": 29190,
            "time": 112.26911849999999,
            "velocity": 0.6299212598425197
          },
          {
            "duration": 0.23076899999999512,
            "durationTicks": 60,
            "midi": 77,
            "name": "F5",
            "ticks": 29280,
            "time": 112.61527199999999,
            "velocity": 0.6299212598425197
          },
          {
            "duration": 0.23076899999999512,
            "durationTicks": 60,
            "midi": 80,
            "name": "G#5",
            "ticks": 29280,
            "time": 112.61527199999999,
            "velocity": 0.6299212598425197
          },
          {
            "duration": 0.23076899999999512,
            "durationTicks": 60,
            "midi": 72,
            "name": "C5",
            "ticks": 29280,
            "time": 112.61527199999999,
            "velocity": 0.6299212598425197
          },
          {
            "duration": 0.23076899999999512,
            "durationTicks": 60,
            "midi": 80,
            "name": "G#5",
            "ticks": 29370,
            "time": 112.96142549999999,
            "velocity": 0.6299212598425197
          },
          {
            "duration": 0.23076899999999512,
            "durationTicks": 60,
            "midi": 77,
            "name": "F5",
            "ticks": 29370,
            "time": 112.96142549999999,
            "velocity": 0.6299212598425197
          },
          {
            "duration": 0.23076899999999512,
            "durationTicks": 60,
            "midi": 72,
            "name": "C5",
            "ticks": 29370,
            "time": 112.96142549999999,
            "velocity": 0.6299212598425197
          },
          {
            "duration": 0.23076899999999512,
            "durationTicks": 60,
            "midi": 77,
            "name": "F5",
            "ticks": 29460,
            "time": 113.30757899999999,
            "velocity": 0.6299212598425197
          },
          {
            "duration": 0.23076899999999512,
            "durationTicks": 60,
            "midi": 80,
            "name": "G#5",
            "ticks": 29460,
            "time": 113.30757899999999,
            "velocity": 0.6299212598425197
          },
          {
            "duration": 0.23076899999999512,
            "durationTicks": 60,
            "midi": 72,
            "name": "C5",
            "ticks": 29460,
            "time": 113.30757899999999,
            "velocity": 0.6299212598425197
          },
          {
            "duration": 0.23076899999999512,
            "durationTicks": 60,
            "midi": 80,
            "name": "G#5",
            "ticks": 29580,
            "time": 113.769117,
            "velocity": 0.6299212598425197
          },
          {
            "duration": 0.23076899999999512,
            "durationTicks": 60,
            "midi": 77,
            "name": "F5",
            "ticks": 29580,
            "time": 113.769117,
            "velocity": 0.6299212598425197
          },
          {
            "duration": 0.23076899999999512,
            "durationTicks": 60,
            "midi": 72,
            "name": "C5",
            "ticks": 29580,
            "time": 113.769117,
            "velocity": 0.6299212598425197
          },
          {
            "duration": 0.23076899999999512,
            "durationTicks": 60,
            "midi": 77,
            "name": "F5",
            "ticks": 29670,
            "time": 114.1152705,
            "velocity": 0.6299212598425197
          },
          {
            "duration": 0.23076899999999512,
            "durationTicks": 60,
            "midi": 80,
            "name": "G#5",
            "ticks": 29670,
            "time": 114.1152705,
            "velocity": 0.6299212598425197
          },
          {
            "duration": 0.23076899999999512,
            "durationTicks": 60,
            "midi": 72,
            "name": "C5",
            "ticks": 29670,
            "time": 114.1152705,
            "velocity": 0.6299212598425197
          },
          {
            "duration": 0.23076899999999512,
            "durationTicks": 60,
            "midi": 75,
            "name": "D#5",
            "ticks": 29760,
            "time": 114.461424,
            "velocity": 0.6299212598425197
          },
          {
            "duration": 0.23076899999999512,
            "durationTicks": 60,
            "midi": 79,
            "name": "G5",
            "ticks": 29760,
            "time": 114.461424,
            "velocity": 0.6299212598425197
          },
          {
            "duration": 0.23076899999999512,
            "durationTicks": 60,
            "midi": 70,
            "name": "A#4",
            "ticks": 29760,
            "time": 114.461424,
            "velocity": 0.6299212598425197
          },
          {
            "duration": 0.23076899999999512,
            "durationTicks": 60,
            "midi": 75,
            "name": "D#5",
            "ticks": 29850,
            "time": 114.8075775,
            "velocity": 0.6299212598425197
          },
          {
            "duration": 0.23076899999999512,
            "durationTicks": 60,
            "midi": 79,
            "name": "G5",
            "ticks": 29850,
            "time": 114.8075775,
            "velocity": 0.6299212598425197
          },
          {
            "duration": 0.23076899999999512,
            "durationTicks": 60,
            "midi": 70,
            "name": "A#4",
            "ticks": 29850,
            "time": 114.8075775,
            "velocity": 0.6299212598425197
          },
          {
            "duration": 0.23076899999999512,
            "durationTicks": 60,
            "midi": 73,
            "name": "C#5",
            "ticks": 29940,
            "time": 115.153731,
            "velocity": 0.6299212598425197
          },
          {
            "duration": 0.23076899999999512,
            "durationTicks": 60,
            "midi": 77,
            "name": "F5",
            "ticks": 29940,
            "time": 115.153731,
            "velocity": 0.6299212598425197
          },
          {
            "duration": 0.23076899999999512,
            "durationTicks": 60,
            "midi": 68,
            "name": "G#4",
            "ticks": 29940,
            "time": 115.153731,
            "velocity": 0.6299212598425197
          },
          {
            "duration": 0.23076899999999512,
            "durationTicks": 60,
            "midi": 77,
            "name": "F5",
            "ticks": 30060,
            "time": 115.615269,
            "velocity": 0.6299212598425197
          },
          {
            "duration": 0.23076899999999512,
            "durationTicks": 60,
            "midi": 73,
            "name": "C#5",
            "ticks": 30060,
            "time": 115.615269,
            "velocity": 0.6299212598425197
          },
          {
            "duration": 0.23076899999999512,
            "durationTicks": 60,
            "midi": 68,
            "name": "G#4",
            "ticks": 30060,
            "time": 115.615269,
            "velocity": 0.6299212598425197
          },
          {
            "duration": 0.23076899999999512,
            "durationTicks": 60,
            "midi": 77,
            "name": "F5",
            "ticks": 30150,
            "time": 115.9614225,
            "velocity": 0.6299212598425197
          },
          {
            "duration": 0.23076899999999512,
            "durationTicks": 60,
            "midi": 73,
            "name": "C#5",
            "ticks": 30150,
            "time": 115.9614225,
            "velocity": 0.6299212598425197
          },
          {
            "duration": 0.23076899999999512,
            "durationTicks": 60,
            "midi": 68,
            "name": "G#4",
            "ticks": 30150,
            "time": 115.9614225,
            "velocity": 0.6299212598425197
          },
          {
            "duration": 0.23076899999999512,
            "durationTicks": 60,
            "midi": 77,
            "name": "F5",
            "ticks": 30240,
            "time": 116.307576,
            "velocity": 0.6299212598425197
          },
          {
            "duration": 0.23076899999999512,
            "durationTicks": 60,
            "midi": 80,
            "name": "G#5",
            "ticks": 30240,
            "time": 116.307576,
            "velocity": 0.6299212598425197
          },
          {
            "duration": 0.23076899999999512,
            "durationTicks": 60,
            "midi": 72,
            "name": "C5",
            "ticks": 30240,
            "time": 116.307576,
            "velocity": 0.6299212598425197
          },
          {
            "duration": 0.23076899999999512,
            "durationTicks": 60,
            "midi": 77,
            "name": "F5",
            "ticks": 30330,
            "time": 116.6537295,
            "velocity": 0.6299212598425197
          },
          {
            "duration": 0.23076899999999512,
            "durationTicks": 60,
            "midi": 80,
            "name": "G#5",
            "ticks": 30330,
            "time": 116.6537295,
            "velocity": 0.6299212598425197
          },
          {
            "duration": 0.23076899999999512,
            "durationTicks": 60,
            "midi": 72,
            "name": "C5",
            "ticks": 30330,
            "time": 116.6537295,
            "velocity": 0.6299212598425197
          },
          {
            "duration": 0.23076899999999512,
            "durationTicks": 60,
            "midi": 77,
            "name": "F5",
            "ticks": 30420,
            "time": 116.999883,
            "velocity": 0.6299212598425197
          },
          {
            "duration": 0.23076899999999512,
            "durationTicks": 60,
            "midi": 80,
            "name": "G#5",
            "ticks": 30420,
            "time": 116.999883,
            "velocity": 0.6299212598425197
          },
          {
            "duration": 0.23076899999999512,
            "durationTicks": 60,
            "midi": 72,
            "name": "C5",
            "ticks": 30420,
            "time": 116.999883,
            "velocity": 0.6299212598425197
          },
          {
            "duration": 0.23076900000000933,
            "durationTicks": 60,
            "midi": 77,
            "name": "F5",
            "ticks": 30540,
            "time": 117.46142099999999,
            "velocity": 0.6299212598425197
          },
          {
            "duration": 0.23076900000000933,
            "durationTicks": 60,
            "midi": 80,
            "name": "G#5",
            "ticks": 30540,
            "time": 117.46142099999999,
            "velocity": 0.6299212598425197
          },
          {
            "duration": 0.23076900000000933,
            "durationTicks": 60,
            "midi": 72,
            "name": "C5",
            "ticks": 30540,
            "time": 117.46142099999999,
            "velocity": 0.6299212598425197
          },
          {
            "duration": 0.23076900000000933,
            "durationTicks": 60,
            "midi": 77,
            "name": "F5",
            "ticks": 30630,
            "time": 117.80757449999999,
            "velocity": 0.6299212598425197
          },
          {
            "duration": 0.23076900000000933,
            "durationTicks": 60,
            "midi": 80,
            "name": "G#5",
            "ticks": 30630,
            "time": 117.80757449999999,
            "velocity": 0.6299212598425197
          },
          {
            "duration": 0.23076900000000933,
            "durationTicks": 60,
            "midi": 72,
            "name": "C5",
            "ticks": 30630,
            "time": 117.80757449999999,
            "velocity": 0.6299212598425197
          },
          {
            "duration": 0.23076900000000933,
            "durationTicks": 60,
            "midi": 79,
            "name": "G5",
            "ticks": 30720,
            "time": 118.15372799999999,
            "velocity": 0.6299212598425197
          },
          {
            "duration": 0.23076900000000933,
            "durationTicks": 60,
            "midi": 75,
            "name": "D#5",
            "ticks": 30720,
            "time": 118.15372799999999,
            "velocity": 0.6299212598425197
          },
          {
            "duration": 0.23076900000000933,
            "durationTicks": 60,
            "midi": 70,
            "name": "A#4",
            "ticks": 30720,
            "time": 118.15372799999999,
            "velocity": 0.6299212598425197
          },
          {
            "duration": 0.23076900000000933,
            "durationTicks": 60,
            "midi": 70,
            "name": "A#4",
            "ticks": 30810,
            "time": 118.49988149999999,
            "velocity": 0.6299212598425197
          },
          {
            "duration": 0.23076900000000933,
            "durationTicks": 60,
            "midi": 79,
            "name": "G5",
            "ticks": 30810,
            "time": 118.49988149999999,
            "velocity": 0.6299212598425197
          },
          {
            "duration": 0.23076900000000933,
            "durationTicks": 60,
            "midi": 75,
            "name": "D#5",
            "ticks": 30810,
            "time": 118.49988149999999,
            "velocity": 0.6299212598425197
          },
          {
            "duration": 0.23076900000000933,
            "durationTicks": 60,
            "midi": 73,
            "name": "C#5",
            "ticks": 30900,
            "time": 118.84603499999999,
            "velocity": 0.6299212598425197
          },
          {
            "duration": 0.23076900000000933,
            "durationTicks": 60,
            "midi": 77,
            "name": "F5",
            "ticks": 30900,
            "time": 118.84603499999999,
            "velocity": 0.6299212598425197
          },
          {
            "duration": 0.23076900000000933,
            "durationTicks": 60,
            "midi": 80,
            "name": "G#5",
            "ticks": 30900,
            "time": 118.84603499999999,
            "velocity": 0.6299212598425197
          },
          {
            "duration": 0.23076900000000933,
            "durationTicks": 60,
            "midi": 68,
            "name": "G#4",
            "ticks": 30900,
            "time": 118.84603499999999,
            "velocity": 0.6299212598425197
          },
          {
            "duration": 0.23076899999999512,
            "durationTicks": 60,
            "midi": 68,
            "name": "G#4",
            "ticks": 31020,
            "time": 119.30757299999999,
            "velocity": 0.6299212598425197
          },
          {
            "duration": 0.23076899999999512,
            "durationTicks": 60,
            "midi": 77,
            "name": "F5",
            "ticks": 31020,
            "time": 119.30757299999999,
            "velocity": 0.6299212598425197
          },
          {
            "duration": 0.23076899999999512,
            "durationTicks": 60,
            "midi": 73,
            "name": "C#5",
            "ticks": 31020,
            "time": 119.30757299999999,
            "velocity": 0.6299212598425197
          },
          {
            "duration": 0.23076899999999512,
            "durationTicks": 60,
            "midi": 80,
            "name": "G#5",
            "ticks": 31020,
            "time": 119.30757299999999,
            "velocity": 0.6299212598425197
          },
          {
            "duration": 0.23076899999999512,
            "durationTicks": 60,
            "midi": 77,
            "name": "F5",
            "ticks": 31110,
            "time": 119.65372649999999,
            "velocity": 0.6299212598425197
          },
          {
            "duration": 0.23076899999999512,
            "durationTicks": 60,
            "midi": 68,
            "name": "G#4",
            "ticks": 31110,
            "time": 119.65372649999999,
            "velocity": 0.6299212598425197
          },
          {
            "duration": 0.23076899999999512,
            "durationTicks": 60,
            "midi": 80,
            "name": "G#5",
            "ticks": 31110,
            "time": 119.65372649999999,
            "velocity": 0.6299212598425197
          },
          {
            "duration": 0.23076899999999512,
            "durationTicks": 60,
            "midi": 73,
            "name": "C#5",
            "ticks": 31110,
            "time": 119.65372649999999,
            "velocity": 0.6299212598425197
          },
          {
            "duration": 0.23076899999999512,
            "durationTicks": 60,
            "midi": 77,
            "name": "F5",
            "ticks": 31200,
            "time": 119.99987999999999,
            "velocity": 0.6299212598425197
          },
          {
            "duration": 0.23076899999999512,
            "durationTicks": 60,
            "midi": 80,
            "name": "G#5",
            "ticks": 31200,
            "time": 119.99987999999999,
            "velocity": 0.6299212598425197
          },
          {
            "duration": 0.23076899999999512,
            "durationTicks": 60,
            "midi": 72,
            "name": "C5",
            "ticks": 31200,
            "time": 119.99987999999999,
            "velocity": 0.6299212598425197
          },
          {
            "duration": 0.23076899999999512,
            "durationTicks": 60,
            "midi": 80,
            "name": "G#5",
            "ticks": 31290,
            "time": 120.34603349999999,
            "velocity": 0.6299212598425197
          },
          {
            "duration": 0.23076899999999512,
            "durationTicks": 60,
            "midi": 77,
            "name": "F5",
            "ticks": 31290,
            "time": 120.34603349999999,
            "velocity": 0.6299212598425197
          },
          {
            "duration": 0.23076899999999512,
            "durationTicks": 60,
            "midi": 72,
            "name": "C5",
            "ticks": 31290,
            "time": 120.34603349999999,
            "velocity": 0.6299212598425197
          },
          {
            "duration": 0.23076899999999512,
            "durationTicks": 60,
            "midi": 77,
            "name": "F5",
            "ticks": 31380,
            "time": 120.69218699999999,
            "velocity": 0.6299212598425197
          },
          {
            "duration": 0.23076899999999512,
            "durationTicks": 60,
            "midi": 80,
            "name": "G#5",
            "ticks": 31380,
            "time": 120.69218699999999,
            "velocity": 0.6299212598425197
          },
          {
            "duration": 0.23076899999999512,
            "durationTicks": 60,
            "midi": 72,
            "name": "C5",
            "ticks": 31380,
            "time": 120.69218699999999,
            "velocity": 0.6299212598425197
          },
          {
            "duration": 0.23076899999999512,
            "durationTicks": 60,
            "midi": 80,
            "name": "G#5",
            "ticks": 31500,
            "time": 121.153725,
            "velocity": 0.6299212598425197
          },
          {
            "duration": 0.23076899999999512,
            "durationTicks": 60,
            "midi": 77,
            "name": "F5",
            "ticks": 31500,
            "time": 121.153725,
            "velocity": 0.6299212598425197
          },
          {
            "duration": 0.23076899999999512,
            "durationTicks": 60,
            "midi": 72,
            "name": "C5",
            "ticks": 31500,
            "time": 121.153725,
            "velocity": 0.6299212598425197
          },
          {
            "duration": 0.23076899999999512,
            "durationTicks": 60,
            "midi": 77,
            "name": "F5",
            "ticks": 31590,
            "time": 121.4998785,
            "velocity": 0.6299212598425197
          },
          {
            "duration": 0.23076899999999512,
            "durationTicks": 60,
            "midi": 80,
            "name": "G#5",
            "ticks": 31590,
            "time": 121.4998785,
            "velocity": 0.6299212598425197
          },
          {
            "duration": 0.23076899999999512,
            "durationTicks": 60,
            "midi": 72,
            "name": "C5",
            "ticks": 31590,
            "time": 121.4998785,
            "velocity": 0.6299212598425197
          },
          {
            "duration": 0.23076899999999512,
            "durationTicks": 60,
            "midi": 75,
            "name": "D#5",
            "ticks": 31680,
            "time": 121.846032,
            "velocity": 0.6299212598425197
          },
          {
            "duration": 0.23076899999999512,
            "durationTicks": 60,
            "midi": 79,
            "name": "G5",
            "ticks": 31680,
            "time": 121.846032,
            "velocity": 0.6299212598425197
          },
          {
            "duration": 0.23076899999999512,
            "durationTicks": 60,
            "midi": 70,
            "name": "A#4",
            "ticks": 31680,
            "time": 121.846032,
            "velocity": 0.6299212598425197
          },
          {
            "duration": 0.23076899999999512,
            "durationTicks": 60,
            "midi": 75,
            "name": "D#5",
            "ticks": 31770,
            "time": 122.1921855,
            "velocity": 0.6299212598425197
          },
          {
            "duration": 0.23076899999999512,
            "durationTicks": 60,
            "midi": 79,
            "name": "G5",
            "ticks": 31770,
            "time": 122.1921855,
            "velocity": 0.6299212598425197
          },
          {
            "duration": 0.23076899999999512,
            "durationTicks": 60,
            "midi": 70,
            "name": "A#4",
            "ticks": 31770,
            "time": 122.1921855,
            "velocity": 0.6299212598425197
          },
          {
            "duration": 0.23076899999999512,
            "durationTicks": 60,
            "midi": 73,
            "name": "C#5",
            "ticks": 31860,
            "time": 122.538339,
            "velocity": 0.6299212598425197
          },
          {
            "duration": 0.23076899999999512,
            "durationTicks": 60,
            "midi": 77,
            "name": "F5",
            "ticks": 31860,
            "time": 122.538339,
            "velocity": 0.6299212598425197
          },
          {
            "duration": 0.23076899999999512,
            "durationTicks": 60,
            "midi": 68,
            "name": "G#4",
            "ticks": 31860,
            "time": 122.538339,
            "velocity": 0.6299212598425197
          },
          {
            "duration": 0.23076900000000933,
            "durationTicks": 60,
            "midi": 77,
            "name": "F5",
            "ticks": 31980,
            "time": 122.99987699999998,
            "velocity": 0.6299212598425197
          },
          {
            "duration": 0.23076900000000933,
            "durationTicks": 60,
            "midi": 73,
            "name": "C#5",
            "ticks": 31980,
            "time": 122.99987699999998,
            "velocity": 0.6299212598425197
          },
          {
            "duration": 0.23076900000000933,
            "durationTicks": 60,
            "midi": 68,
            "name": "G#4",
            "ticks": 31980,
            "time": 122.99987699999998,
            "velocity": 0.6299212598425197
          },
          {
            "duration": 0.23076900000000933,
            "durationTicks": 60,
            "midi": 77,
            "name": "F5",
            "ticks": 32070,
            "time": 123.34603049999998,
            "velocity": 0.6299212598425197
          },
          {
            "duration": 0.23076900000000933,
            "durationTicks": 60,
            "midi": 73,
            "name": "C#5",
            "ticks": 32070,
            "time": 123.34603049999998,
            "velocity": 0.6299212598425197
          },
          {
            "duration": 0.23076900000000933,
            "durationTicks": 60,
            "midi": 68,
            "name": "G#4",
            "ticks": 32070,
            "time": 123.34603049999998,
            "velocity": 0.6299212598425197
          },
          {
            "duration": 0.23076900000000933,
            "durationTicks": 60,
            "midi": 77,
            "name": "F5",
            "ticks": 32160,
            "time": 123.69218399999998,
            "velocity": 0.6299212598425197
          },
          {
            "duration": 0.23076900000000933,
            "durationTicks": 60,
            "midi": 80,
            "name": "G#5",
            "ticks": 32160,
            "time": 123.69218399999998,
            "velocity": 0.6299212598425197
          },
          {
            "duration": 0.23076900000000933,
            "durationTicks": 60,
            "midi": 72,
            "name": "C5",
            "ticks": 32160,
            "time": 123.69218399999998,
            "velocity": 0.6299212598425197
          },
          {
            "duration": 0.23076900000000933,
            "durationTicks": 60,
            "midi": 77,
            "name": "F5",
            "ticks": 32250,
            "time": 124.03833749999998,
            "velocity": 0.6299212598425197
          },
          {
            "duration": 0.23076900000000933,
            "durationTicks": 60,
            "midi": 80,
            "name": "G#5",
            "ticks": 32250,
            "time": 124.03833749999998,
            "velocity": 0.6299212598425197
          },
          {
            "duration": 0.23076900000000933,
            "durationTicks": 60,
            "midi": 72,
            "name": "C5",
            "ticks": 32250,
            "time": 124.03833749999998,
            "velocity": 0.6299212598425197
          },
          {
            "duration": 0.23076900000000933,
            "durationTicks": 60,
            "midi": 77,
            "name": "F5",
            "ticks": 32340,
            "time": 124.38449099999998,
            "velocity": 0.6299212598425197
          },
          {
            "duration": 0.23076900000000933,
            "durationTicks": 60,
            "midi": 80,
            "name": "G#5",
            "ticks": 32340,
            "time": 124.38449099999998,
            "velocity": 0.6299212598425197
          },
          {
            "duration": 0.23076900000000933,
            "durationTicks": 60,
            "midi": 72,
            "name": "C5",
            "ticks": 32340,
            "time": 124.38449099999998,
            "velocity": 0.6299212598425197
          },
          {
            "duration": 0.23076900000000933,
            "durationTicks": 60,
            "midi": 77,
            "name": "F5",
            "ticks": 32460,
            "time": 124.84602899999999,
            "velocity": 0.6299212598425197
          },
          {
            "duration": 0.23076900000000933,
            "durationTicks": 60,
            "midi": 80,
            "name": "G#5",
            "ticks": 32460,
            "time": 124.84602899999999,
            "velocity": 0.6299212598425197
          },
          {
            "duration": 0.23076900000000933,
            "durationTicks": 60,
            "midi": 72,
            "name": "C5",
            "ticks": 32460,
            "time": 124.84602899999999,
            "velocity": 0.6299212598425197
          },
          {
            "duration": 0.23076900000000933,
            "durationTicks": 60,
            "midi": 77,
            "name": "F5",
            "ticks": 32550,
            "time": 125.19218249999999,
            "velocity": 0.6299212598425197
          },
          {
            "duration": 0.23076900000000933,
            "durationTicks": 60,
            "midi": 80,
            "name": "G#5",
            "ticks": 32550,
            "time": 125.19218249999999,
            "velocity": 0.6299212598425197
          },
          {
            "duration": 0.23076900000000933,
            "durationTicks": 60,
            "midi": 72,
            "name": "C5",
            "ticks": 32550,
            "time": 125.19218249999999,
            "velocity": 0.6299212598425197
          },
          {
            "duration": 0.23076900000000933,
            "durationTicks": 60,
            "midi": 79,
            "name": "G5",
            "ticks": 32640,
            "time": 125.53833599999999,
            "velocity": 0.6299212598425197
          },
          {
            "duration": 0.23076900000000933,
            "durationTicks": 60,
            "midi": 75,
            "name": "D#5",
            "ticks": 32640,
            "time": 125.53833599999999,
            "velocity": 0.6299212598425197
          },
          {
            "duration": 0.23076900000000933,
            "durationTicks": 60,
            "midi": 70,
            "name": "A#4",
            "ticks": 32640,
            "time": 125.53833599999999,
            "velocity": 0.6299212598425197
          },
          {
            "duration": 0.23076900000000933,
            "durationTicks": 60,
            "midi": 70,
            "name": "A#4",
            "ticks": 32730,
            "time": 125.88448949999999,
            "velocity": 0.6299212598425197
          },
          {
            "duration": 0.23076900000000933,
            "durationTicks": 60,
            "midi": 79,
            "name": "G5",
            "ticks": 32730,
            "time": 125.88448949999999,
            "velocity": 0.6299212598425197
          },
          {
            "duration": 0.23076900000000933,
            "durationTicks": 60,
            "midi": 75,
            "name": "D#5",
            "ticks": 32730,
            "time": 125.88448949999999,
            "velocity": 0.6299212598425197
          },
          {
            "duration": 0.23076900000000933,
            "durationTicks": 60,
            "midi": 73,
            "name": "C#5",
            "ticks": 32820,
            "time": 126.23064299999999,
            "velocity": 0.6299212598425197
          },
          {
            "duration": 0.23076900000000933,
            "durationTicks": 60,
            "midi": 77,
            "name": "F5",
            "ticks": 32820,
            "time": 126.23064299999999,
            "velocity": 0.6299212598425197
          },
          {
            "duration": 0.23076900000000933,
            "durationTicks": 60,
            "midi": 80,
            "name": "G#5",
            "ticks": 32820,
            "time": 126.23064299999999,
            "velocity": 0.6299212598425197
          },
          {
            "duration": 0.23076900000000933,
            "durationTicks": 60,
            "midi": 68,
            "name": "G#4",
            "ticks": 32820,
            "time": 126.23064299999999,
            "velocity": 0.6299212598425197
          },
          {
            "duration": 0.23076899999999512,
            "durationTicks": 60,
            "midi": 68,
            "name": "G#4",
            "ticks": 32940,
            "time": 126.69218099999999,
            "velocity": 0.6299212598425197
          },
          {
            "duration": 0.23076899999999512,
            "durationTicks": 60,
            "midi": 77,
            "name": "F5",
            "ticks": 32940,
            "time": 126.69218099999999,
            "velocity": 0.6299212598425197
          },
          {
            "duration": 0.23076899999999512,
            "durationTicks": 60,
            "midi": 73,
            "name": "C#5",
            "ticks": 32940,
            "time": 126.69218099999999,
            "velocity": 0.6299212598425197
          },
          {
            "duration": 0.23076899999999512,
            "durationTicks": 60,
            "midi": 80,
            "name": "G#5",
            "ticks": 32940,
            "time": 126.69218099999999,
            "velocity": 0.6299212598425197
          },
          {
            "duration": 0.23076899999999512,
            "durationTicks": 60,
            "midi": 77,
            "name": "F5",
            "ticks": 33030,
            "time": 127.03833449999999,
            "velocity": 0.6299212598425197
          },
          {
            "duration": 0.23076899999999512,
            "durationTicks": 60,
            "midi": 68,
            "name": "G#4",
            "ticks": 33030,
            "time": 127.03833449999999,
            "velocity": 0.6299212598425197
          },
          {
            "duration": 0.23076899999999512,
            "durationTicks": 60,
            "midi": 80,
            "name": "G#5",
            "ticks": 33030,
            "time": 127.03833449999999,
            "velocity": 0.6299212598425197
          },
          {
            "duration": 0.23076899999999512,
            "durationTicks": 60,
            "midi": 73,
            "name": "C#5",
            "ticks": 33030,
            "time": 127.03833449999999,
            "velocity": 0.6299212598425197
          },
          {
            "duration": 0.23076899999999512,
            "durationTicks": 60,
            "midi": 77,
            "name": "F5",
            "ticks": 33120,
            "time": 127.38448799999999,
            "velocity": 0.6299212598425197
          },
          {
            "duration": 0.23076899999999512,
            "durationTicks": 60,
            "midi": 80,
            "name": "G#5",
            "ticks": 33120,
            "time": 127.38448799999999,
            "velocity": 0.6299212598425197
          },
          {
            "duration": 0.23076899999999512,
            "durationTicks": 60,
            "midi": 72,
            "name": "C5",
            "ticks": 33120,
            "time": 127.38448799999999,
            "velocity": 0.6299212598425197
          },
          {
            "duration": 0.23076899999999512,
            "durationTicks": 60,
            "midi": 80,
            "name": "G#5",
            "ticks": 33210,
            "time": 127.73064149999999,
            "velocity": 0.6299212598425197
          },
          {
            "duration": 0.23076899999999512,
            "durationTicks": 60,
            "midi": 77,
            "name": "F5",
            "ticks": 33210,
            "time": 127.73064149999999,
            "velocity": 0.6299212598425197
          },
          {
            "duration": 0.23076899999999512,
            "durationTicks": 60,
            "midi": 72,
            "name": "C5",
            "ticks": 33210,
            "time": 127.73064149999999,
            "velocity": 0.6299212598425197
          },
          {
            "duration": 0.23076900000000933,
            "durationTicks": 60,
            "midi": 77,
            "name": "F5",
            "ticks": 33300,
            "time": 128.07679499999998,
            "velocity": 0.6299212598425197
          },
          {
            "duration": 0.23076900000000933,
            "durationTicks": 60,
            "midi": 80,
            "name": "G#5",
            "ticks": 33300,
            "time": 128.07679499999998,
            "velocity": 0.6299212598425197
          },
          {
            "duration": 0.23076900000000933,
            "durationTicks": 60,
            "midi": 72,
            "name": "C5",
            "ticks": 33300,
            "time": 128.07679499999998,
            "velocity": 0.6299212598425197
          },
          {
            "duration": 0.2307689999999809,
            "durationTicks": 60,
            "midi": 80,
            "name": "G#5",
            "ticks": 33420,
            "time": 128.538333,
            "velocity": 0.6299212598425197
          },
          {
            "duration": 0.2307689999999809,
            "durationTicks": 60,
            "midi": 77,
            "name": "F5",
            "ticks": 33420,
            "time": 128.538333,
            "velocity": 0.6299212598425197
          },
          {
            "duration": 0.2307689999999809,
            "durationTicks": 60,
            "midi": 72,
            "name": "C5",
            "ticks": 33420,
            "time": 128.538333,
            "velocity": 0.6299212598425197
          },
          {
            "duration": 0.23076900000000933,
            "durationTicks": 60,
            "midi": 77,
            "name": "F5",
            "ticks": 33510,
            "time": 128.88448649999998,
            "velocity": 0.6299212598425197
          },
          {
            "duration": 0.23076900000000933,
            "durationTicks": 60,
            "midi": 80,
            "name": "G#5",
            "ticks": 33510,
            "time": 128.88448649999998,
            "velocity": 0.6299212598425197
          },
          {
            "duration": 0.23076900000000933,
            "durationTicks": 60,
            "midi": 72,
            "name": "C5",
            "ticks": 33510,
            "time": 128.88448649999998,
            "velocity": 0.6299212598425197
          },
          {
            "duration": 0.2307689999999809,
            "durationTicks": 60,
            "midi": 75,
            "name": "D#5",
            "ticks": 33600,
            "time": 129.23064,
            "velocity": 0.6299212598425197
          },
          {
            "duration": 0.2307689999999809,
            "durationTicks": 60,
            "midi": 79,
            "name": "G5",
            "ticks": 33600,
            "time": 129.23064,
            "velocity": 0.6299212598425197
          },
          {
            "duration": 0.2307689999999809,
            "durationTicks": 60,
            "midi": 70,
            "name": "A#4",
            "ticks": 33600,
            "time": 129.23064,
            "velocity": 0.6299212598425197
          },
          {
            "duration": 0.23076900000000933,
            "durationTicks": 60,
            "midi": 75,
            "name": "D#5",
            "ticks": 33690,
            "time": 129.57679349999998,
            "velocity": 0.6299212598425197
          },
          {
            "duration": 0.23076900000000933,
            "durationTicks": 60,
            "midi": 79,
            "name": "G5",
            "ticks": 33690,
            "time": 129.57679349999998,
            "velocity": 0.6299212598425197
          },
          {
            "duration": 0.23076900000000933,
            "durationTicks": 60,
            "midi": 70,
            "name": "A#4",
            "ticks": 33690,
            "time": 129.57679349999998,
            "velocity": 0.6299212598425197
          },
          {
            "duration": 0.23076900000000933,
            "durationTicks": 60,
            "midi": 73,
            "name": "C#5",
            "ticks": 33780,
            "time": 129.92294699999997,
            "velocity": 0.6299212598425197
          },
          {
            "duration": 0.23076900000000933,
            "durationTicks": 60,
            "midi": 77,
            "name": "F5",
            "ticks": 33780,
            "time": 129.92294699999997,
            "velocity": 0.6299212598425197
          },
          {
            "duration": 0.23076900000000933,
            "durationTicks": 60,
            "midi": 68,
            "name": "G#4",
            "ticks": 33780,
            "time": 129.92294699999997,
            "velocity": 0.6299212598425197
          },
          {
            "duration": 0.2307689999999809,
            "durationTicks": 60,
            "midi": 77,
            "name": "F5",
            "ticks": 33900,
            "time": 130.38448499999998,
            "velocity": 0.6299212598425197
          },
          {
            "duration": 0.2307689999999809,
            "durationTicks": 60,
            "midi": 73,
            "name": "C#5",
            "ticks": 33900,
            "time": 130.38448499999998,
            "velocity": 0.6299212598425197
          },
          {
            "duration": 0.2307689999999809,
            "durationTicks": 60,
            "midi": 68,
            "name": "G#4",
            "ticks": 33900,
            "time": 130.38448499999998,
            "velocity": 0.6299212598425197
          },
          {
            "duration": 0.23076900000000933,
            "durationTicks": 60,
            "midi": 77,
            "name": "F5",
            "ticks": 33990,
            "time": 130.73063849999997,
            "velocity": 0.6299212598425197
          },
          {
            "duration": 0.23076900000000933,
            "durationTicks": 60,
            "midi": 73,
            "name": "C#5",
            "ticks": 33990,
            "time": 130.73063849999997,
            "velocity": 0.6299212598425197
          },
          {
            "duration": 0.23076900000000933,
            "durationTicks": 60,
            "midi": 68,
            "name": "G#4",
            "ticks": 33990,
            "time": 130.73063849999997,
            "velocity": 0.6299212598425197
          },
          {
            "duration": 0.2307689999999809,
            "durationTicks": 60,
            "midi": 77,
            "name": "F5",
            "ticks": 34080,
            "time": 131.07679199999998,
            "velocity": 0.6299212598425197
          },
          {
            "duration": 0.2307689999999809,
            "durationTicks": 60,
            "midi": 80,
            "name": "G#5",
            "ticks": 34080,
            "time": 131.07679199999998,
            "velocity": 0.6299212598425197
          },
          {
            "duration": 0.2307689999999809,
            "durationTicks": 60,
            "midi": 72,
            "name": "C5",
            "ticks": 34080,
            "time": 131.07679199999998,
            "velocity": 0.6299212598425197
          },
          {
            "duration": 0.23076900000000933,
            "durationTicks": 60,
            "midi": 77,
            "name": "F5",
            "ticks": 34170,
            "time": 131.42294549999997,
            "velocity": 0.6299212598425197
          },
          {
            "duration": 0.23076900000000933,
            "durationTicks": 60,
            "midi": 80,
            "name": "G#5",
            "ticks": 34170,
            "time": 131.42294549999997,
            "velocity": 0.6299212598425197
          },
          {
            "duration": 0.23076900000000933,
            "durationTicks": 60,
            "midi": 72,
            "name": "C5",
            "ticks": 34170,
            "time": 131.42294549999997,
            "velocity": 0.6299212598425197
          },
          {
            "duration": 0.2307689999999809,
            "durationTicks": 60,
            "midi": 77,
            "name": "F5",
            "ticks": 34260,
            "time": 131.76909899999998,
            "velocity": 0.6299212598425197
          },
          {
            "duration": 0.2307689999999809,
            "durationTicks": 60,
            "midi": 80,
            "name": "G#5",
            "ticks": 34260,
            "time": 131.76909899999998,
            "velocity": 0.6299212598425197
          },
          {
            "duration": 0.2307689999999809,
            "durationTicks": 60,
            "midi": 72,
            "name": "C5",
            "ticks": 34260,
            "time": 131.76909899999998,
            "velocity": 0.6299212598425197
          },
          {
            "duration": 0.23076900000000933,
            "durationTicks": 60,
            "midi": 77,
            "name": "F5",
            "ticks": 34380,
            "time": 132.23063699999997,
            "velocity": 0.6299212598425197
          },
          {
            "duration": 0.23076900000000933,
            "durationTicks": 60,
            "midi": 80,
            "name": "G#5",
            "ticks": 34380,
            "time": 132.23063699999997,
            "velocity": 0.6299212598425197
          },
          {
            "duration": 0.23076900000000933,
            "durationTicks": 60,
            "midi": 72,
            "name": "C5",
            "ticks": 34380,
            "time": 132.23063699999997,
            "velocity": 0.6299212598425197
          },
          {
            "duration": 0.2307689999999809,
            "durationTicks": 60,
            "midi": 77,
            "name": "F5",
            "ticks": 34470,
            "time": 132.5767905,
            "velocity": 0.6299212598425197
          },
          {
            "duration": 0.2307689999999809,
            "durationTicks": 60,
            "midi": 80,
            "name": "G#5",
            "ticks": 34470,
            "time": 132.5767905,
            "velocity": 0.6299212598425197
          },
          {
            "duration": 0.2307689999999809,
            "durationTicks": 60,
            "midi": 72,
            "name": "C5",
            "ticks": 34470,
            "time": 132.5767905,
            "velocity": 0.6299212598425197
          },
          {
            "duration": 0.23076900000000933,
            "durationTicks": 60,
            "midi": 79,
            "name": "G5",
            "ticks": 34560,
            "time": 132.92294399999997,
            "velocity": 0.6299212598425197
          },
          {
            "duration": 0.23076900000000933,
            "durationTicks": 60,
            "midi": 75,
            "name": "D#5",
            "ticks": 34560,
            "time": 132.92294399999997,
            "velocity": 0.6299212598425197
          },
          {
            "duration": 0.23076900000000933,
            "durationTicks": 60,
            "midi": 70,
            "name": "A#4",
            "ticks": 34560,
            "time": 132.92294399999997,
            "velocity": 0.6299212598425197
          },
          {
            "duration": 0.2307689999999809,
            "durationTicks": 60,
            "midi": 70,
            "name": "A#4",
            "ticks": 34650,
            "time": 133.2690975,
            "velocity": 0.6299212598425197
          },
          {
            "duration": 0.2307689999999809,
            "durationTicks": 60,
            "midi": 79,
            "name": "G5",
            "ticks": 34650,
            "time": 133.2690975,
            "velocity": 0.6299212598425197
          },
          {
            "duration": 0.2307689999999809,
            "durationTicks": 60,
            "midi": 75,
            "name": "D#5",
            "ticks": 34650,
            "time": 133.2690975,
            "velocity": 0.6299212598425197
          },
          {
            "duration": 0.23076900000000933,
            "durationTicks": 60,
            "midi": 73,
            "name": "C#5",
            "ticks": 34740,
            "time": 133.61525099999997,
            "velocity": 0.6299212598425197
          },
          {
            "duration": 0.23076900000000933,
            "durationTicks": 60,
            "midi": 77,
            "name": "F5",
            "ticks": 34740,
            "time": 133.61525099999997,
            "velocity": 0.6299212598425197
          },
          {
            "duration": 0.23076900000000933,
            "durationTicks": 60,
            "midi": 80,
            "name": "G#5",
            "ticks": 34740,
            "time": 133.61525099999997,
            "velocity": 0.6299212598425197
          },
          {
            "duration": 0.23076900000000933,
            "durationTicks": 60,
            "midi": 68,
            "name": "G#4",
            "ticks": 34740,
            "time": 133.61525099999997,
            "velocity": 0.6299212598425197
          },
          {
            "duration": 0.23076900000000933,
            "durationTicks": 60,
            "midi": 77,
            "name": "F5",
            "ticks": 42720,
            "time": 164.30752799999996,
            "velocity": 0.5511811023622047
          },
          {
            "duration": 0.23076900000000933,
            "durationTicks": 60,
            "midi": 80,
            "name": "G#5",
            "ticks": 42720,
            "time": 164.30752799999996,
            "velocity": 0.5511811023622047
          },
          {
            "duration": 0.23076900000000933,
            "durationTicks": 60,
            "midi": 72,
            "name": "C5",
            "ticks": 42720,
            "time": 164.30752799999996,
            "velocity": 0.5511811023622047
          },
          {
            "duration": 0.2307689999999809,
            "durationTicks": 60,
            "midi": 80,
            "name": "G#5",
            "ticks": 42810,
            "time": 164.65368149999998,
            "velocity": 0.5748031496062992
          },
          {
            "duration": 0.2307689999999809,
            "durationTicks": 60,
            "midi": 77,
            "name": "F5",
            "ticks": 42810,
            "time": 164.65368149999998,
            "velocity": 0.5748031496062992
          },
          {
            "duration": 0.2307689999999809,
            "durationTicks": 60,
            "midi": 72,
            "name": "C5",
            "ticks": 42810,
            "time": 164.65368149999998,
            "velocity": 0.5748031496062992
          },
          {
            "duration": 0.23076900000000933,
            "durationTicks": 60,
            "midi": 80,
            "name": "G#5",
            "ticks": 42900,
            "time": 164.99983499999996,
            "velocity": 0.6062992125984252
          },
          {
            "duration": 0.23076900000000933,
            "durationTicks": 60,
            "midi": 77,
            "name": "F5",
            "ticks": 42900,
            "time": 164.99983499999996,
            "velocity": 0.6062992125984252
          },
          {
            "duration": 0.23076900000000933,
            "durationTicks": 60,
            "midi": 72,
            "name": "C5",
            "ticks": 42900,
            "time": 164.99983499999996,
            "velocity": 0.6062992125984252
          },
          {
            "duration": 0.2307689999999809,
            "durationTicks": 60,
            "midi": 77,
            "name": "F5",
            "ticks": 43020,
            "time": 165.46137299999998,
            "velocity": 0.6535433070866141
          },
          {
            "duration": 0.2307689999999809,
            "durationTicks": 60,
            "midi": 80,
            "name": "G#5",
            "ticks": 43020,
            "time": 165.46137299999998,
            "velocity": 0.6535433070866141
          },
          {
            "duration": 0.2307689999999809,
            "durationTicks": 60,
            "midi": 72,
            "name": "C5",
            "ticks": 43020,
            "time": 165.46137299999998,
            "velocity": 0.6535433070866141
          },
          {
            "duration": 0.23076900000000933,
            "durationTicks": 60,
            "midi": 80,
            "name": "G#5",
            "ticks": 43110,
            "time": 165.80752649999997,
            "velocity": 0.6850393700787402
          },
          {
            "duration": 0.23076900000000933,
            "durationTicks": 60,
            "midi": 77,
            "name": "F5",
            "ticks": 43110,
            "time": 165.80752649999997,
            "velocity": 0.6850393700787402
          },
          {
            "duration": 0.23076900000000933,
            "durationTicks": 60,
            "midi": 72,
            "name": "C5",
            "ticks": 43110,
            "time": 165.80752649999997,
            "velocity": 0.6850393700787402
          },
          {
            "duration": 0.2307689999999809,
            "durationTicks": 60,
            "midi": 75,
            "name": "D#5",
            "ticks": 43200,
            "time": 166.15367999999998,
            "velocity": 0.7165354330708661
          },
          {
            "duration": 0.2307689999999809,
            "durationTicks": 60,
            "midi": 79,
            "name": "G5",
            "ticks": 43200,
            "time": 166.15367999999998,
            "velocity": 0.7165354330708661
          },
          {
            "duration": 0.2307689999999809,
            "durationTicks": 60,
            "midi": 70,
            "name": "A#4",
            "ticks": 43200,
            "time": 166.15367999999998,
            "velocity": 0.7165354330708661
          },
          {
            "duration": 0.23076900000000933,
            "durationTicks": 60,
            "midi": 75,
            "name": "D#5",
            "ticks": 43290,
            "time": 166.49983349999997,
            "velocity": 0.7480314960629921
          },
          {
            "duration": 0.23076900000000933,
            "durationTicks": 60,
            "midi": 79,
            "name": "G5",
            "ticks": 43290,
            "time": 166.49983349999997,
            "velocity": 0.7480314960629921
          },
          {
            "duration": 0.23076900000000933,
            "durationTicks": 60,
            "midi": 70,
            "name": "A#4",
            "ticks": 43290,
            "time": 166.49983349999997,
            "velocity": 0.7480314960629921
          },
          {
            "duration": 0.2307689999999809,
            "durationTicks": 60,
            "midi": 77,
            "name": "F5",
            "ticks": 43380,
            "time": 166.84598699999998,
            "velocity": 0.7716535433070866
          },
          {
            "duration": 0.2307689999999809,
            "durationTicks": 60,
            "midi": 73,
            "name": "C#5",
            "ticks": 43380,
            "time": 166.84598699999998,
            "velocity": 0.7716535433070866
          },
          {
            "duration": 0.2307689999999809,
            "durationTicks": 60,
            "midi": 68,
            "name": "G#4",
            "ticks": 43380,
            "time": 166.84598699999998,
            "velocity": 0.7716535433070866
          },
          {
            "duration": 0.23076900000000933,
            "durationTicks": 60,
            "midi": 77,
            "name": "F5",
            "ticks": 43500,
            "time": 167.30752499999997,
            "velocity": 0.8188976377952756
          },
          {
            "duration": 0.23076900000000933,
            "durationTicks": 60,
            "midi": 68,
            "name": "G#4",
            "ticks": 43500,
            "time": 167.30752499999997,
            "velocity": 0.8188976377952756
          },
          {
            "duration": 0.23076900000000933,
            "durationTicks": 60,
            "midi": 73,
            "name": "C#5",
            "ticks": 43500,
            "time": 167.30752499999997,
            "velocity": 0.8188976377952756
          },
          {
            "duration": 0.2307689999999809,
            "durationTicks": 60,
            "midi": 68,
            "name": "G#4",
            "ticks": 43590,
            "time": 167.65367849999998,
            "velocity": 0.8503937007874016
          },
          {
            "duration": 0.2307689999999809,
            "durationTicks": 60,
            "midi": 73,
            "name": "C#5",
            "ticks": 43590,
            "time": 167.65367849999998,
            "velocity": 0.8503937007874016
          },
          {
            "duration": 0.2307689999999809,
            "durationTicks": 60,
            "midi": 77,
            "name": "F5",
            "ticks": 43590,
            "time": 167.65367849999998,
            "velocity": 0.8503937007874016
          },
          {
            "duration": 0.23076900000000933,
            "durationTicks": 60,
            "midi": 77,
            "name": "F5",
            "ticks": 43680,
            "time": 167.99983199999997,
            "velocity": 0.6299212598425197
          },
          {
            "duration": 0.23076900000000933,
            "durationTicks": 60,
            "midi": 80,
            "name": "G#5",
            "ticks": 43680,
            "time": 167.99983199999997,
            "velocity": 0.6299212598425197
          },
          {
            "duration": 0.23076900000000933,
            "durationTicks": 60,
            "midi": 72,
            "name": "C5",
            "ticks": 43680,
            "time": 167.99983199999997,
            "velocity": 0.6299212598425197
          },
          {
            "duration": 0.2307689999999809,
            "durationTicks": 60,
            "midi": 80,
            "name": "G#5",
            "ticks": 43770,
            "time": 168.34598549999998,
            "velocity": 0.6299212598425197
          },
          {
            "duration": 0.2307689999999809,
            "durationTicks": 60,
            "midi": 77,
            "name": "F5",
            "ticks": 43770,
            "time": 168.34598549999998,
            "velocity": 0.6299212598425197
          },
          {
            "duration": 0.2307689999999809,
            "durationTicks": 60,
            "midi": 72,
            "name": "C5",
            "ticks": 43770,
            "time": 168.34598549999998,
            "velocity": 0.6299212598425197
          },
          {
            "duration": 0.23076900000000933,
            "durationTicks": 60,
            "midi": 77,
            "name": "F5",
            "ticks": 43860,
            "time": 168.69213899999997,
            "velocity": 0.6299212598425197
          },
          {
            "duration": 0.23076900000000933,
            "durationTicks": 60,
            "midi": 80,
            "name": "G#5",
            "ticks": 43860,
            "time": 168.69213899999997,
            "velocity": 0.6299212598425197
          },
          {
            "duration": 0.23076900000000933,
            "durationTicks": 60,
            "midi": 72,
            "name": "C5",
            "ticks": 43860,
            "time": 168.69213899999997,
            "velocity": 0.6299212598425197
          },
          {
            "duration": 0.23076900000000933,
            "durationTicks": 60,
            "midi": 80,
            "name": "G#5",
            "ticks": 43980,
            "time": 169.15367699999996,
            "velocity": 0.6299212598425197
          },
          {
            "duration": 0.23076900000000933,
            "durationTicks": 60,
            "midi": 77,
            "name": "F5",
            "ticks": 43980,
            "time": 169.15367699999996,
            "velocity": 0.6299212598425197
          },
          {
            "duration": 0.23076900000000933,
            "durationTicks": 60,
            "midi": 72,
            "name": "C5",
            "ticks": 43980,
            "time": 169.15367699999996,
            "velocity": 0.6299212598425197
          },
          {
            "duration": 0.23076900000000933,
            "durationTicks": 60,
            "midi": 77,
            "name": "F5",
            "ticks": 44070,
            "time": 169.49983049999997,
            "velocity": 0.6299212598425197
          },
          {
            "duration": 0.23076900000000933,
            "durationTicks": 60,
            "midi": 80,
            "name": "G#5",
            "ticks": 44070,
            "time": 169.49983049999997,
            "velocity": 0.6299212598425197
          },
          {
            "duration": 0.23076900000000933,
            "durationTicks": 60,
            "midi": 72,
            "name": "C5",
            "ticks": 44070,
            "time": 169.49983049999997,
            "velocity": 0.6299212598425197
          },
          {
            "duration": 0.23076900000000933,
            "durationTicks": 60,
            "midi": 75,
            "name": "D#5",
            "ticks": 44160,
            "time": 169.84598399999996,
            "velocity": 0.6299212598425197
          },
          {
            "duration": 0.23076900000000933,
            "durationTicks": 60,
            "midi": 79,
            "name": "G5",
            "ticks": 44160,
            "time": 169.84598399999996,
            "velocity": 0.6299212598425197
          },
          {
            "duration": 0.23076900000000933,
            "durationTicks": 60,
            "midi": 70,
            "name": "A#4",
            "ticks": 44160,
            "time": 169.84598399999996,
            "velocity": 0.6299212598425197
          },
          {
            "duration": 0.23076900000000933,
            "durationTicks": 60,
            "midi": 75,
            "name": "D#5",
            "ticks": 44250,
            "time": 170.19213749999997,
            "velocity": 0.6299212598425197
          },
          {
            "duration": 0.23076900000000933,
            "durationTicks": 60,
            "midi": 79,
            "name": "G5",
            "ticks": 44250,
            "time": 170.19213749999997,
            "velocity": 0.6299212598425197
          },
          {
            "duration": 0.23076900000000933,
            "durationTicks": 60,
            "midi": 70,
            "name": "A#4",
            "ticks": 44250,
            "time": 170.19213749999997,
            "velocity": 0.6299212598425197
          },
          {
            "duration": 0.23076900000000933,
            "durationTicks": 60,
            "midi": 73,
            "name": "C#5",
            "ticks": 44340,
            "time": 170.53829099999996,
            "velocity": 0.6299212598425197
          },
          {
            "duration": 0.23076900000000933,
            "durationTicks": 60,
            "midi": 77,
            "name": "F5",
            "ticks": 44340,
            "time": 170.53829099999996,
            "velocity": 0.6299212598425197
          },
          {
            "duration": 0.23076900000000933,
            "durationTicks": 60,
            "midi": 68,
            "name": "G#4",
            "ticks": 44340,
            "time": 170.53829099999996,
            "velocity": 0.6299212598425197
          },
          {
            "duration": 0.2307689999999809,
            "durationTicks": 60,
            "midi": 77,
            "name": "F5",
            "ticks": 44460,
            "time": 170.99982899999998,
            "velocity": 0.6299212598425197
          },
          {
            "duration": 0.2307689999999809,
            "durationTicks": 60,
            "midi": 73,
            "name": "C#5",
            "ticks": 44460,
            "time": 170.99982899999998,
            "velocity": 0.6299212598425197
          },
          {
            "duration": 0.2307689999999809,
            "durationTicks": 60,
            "midi": 68,
            "name": "G#4",
            "ticks": 44460,
            "time": 170.99982899999998,
            "velocity": 0.6299212598425197
          },
          {
            "duration": 0.23076900000000933,
            "durationTicks": 60,
            "midi": 77,
            "name": "F5",
            "ticks": 44550,
            "time": 171.34598249999996,
            "velocity": 0.6299212598425197
          },
          {
            "duration": 0.23076900000000933,
            "durationTicks": 60,
            "midi": 73,
            "name": "C#5",
            "ticks": 44550,
            "time": 171.34598249999996,
            "velocity": 0.6299212598425197
          },
          {
            "duration": 0.23076900000000933,
            "durationTicks": 60,
            "midi": 68,
            "name": "G#4",
            "ticks": 44550,
            "time": 171.34598249999996,
            "velocity": 0.6299212598425197
          },
          {
            "duration": 0.2307689999999809,
            "durationTicks": 60,
            "midi": 77,
            "name": "F5",
            "ticks": 44640,
            "time": 171.69213599999998,
            "velocity": 0.6299212598425197
          },
          {
            "duration": 0.2307689999999809,
            "durationTicks": 60,
            "midi": 80,
            "name": "G#5",
            "ticks": 44640,
            "time": 171.69213599999998,
            "velocity": 0.6299212598425197
          },
          {
            "duration": 0.2307689999999809,
            "durationTicks": 60,
            "midi": 72,
            "name": "C5",
            "ticks": 44640,
            "time": 171.69213599999998,
            "velocity": 0.6299212598425197
          },
          {
            "duration": 0.23076900000000933,
            "durationTicks": 60,
            "midi": 77,
            "name": "F5",
            "ticks": 44730,
            "time": 172.03828949999996,
            "velocity": 0.6299212598425197
          },
          {
            "duration": 0.23076900000000933,
            "durationTicks": 60,
            "midi": 80,
            "name": "G#5",
            "ticks": 44730,
            "time": 172.03828949999996,
            "velocity": 0.6299212598425197
          },
          {
            "duration": 0.23076900000000933,
            "durationTicks": 60,
            "midi": 72,
            "name": "C5",
            "ticks": 44730,
            "time": 172.03828949999996,
            "velocity": 0.6299212598425197
          },
          {
            "duration": 0.2307689999999809,
            "durationTicks": 60,
            "midi": 77,
            "name": "F5",
            "ticks": 44820,
            "time": 172.38444299999998,
            "velocity": 0.6299212598425197
          },
          {
            "duration": 0.2307689999999809,
            "durationTicks": 60,
            "midi": 80,
            "name": "G#5",
            "ticks": 44820,
            "time": 172.38444299999998,
            "velocity": 0.6299212598425197
          },
          {
            "duration": 0.2307689999999809,
            "durationTicks": 60,
            "midi": 72,
            "name": "C5",
            "ticks": 44820,
            "time": 172.38444299999998,
            "velocity": 0.6299212598425197
          },
          {
            "duration": 0.23076900000000933,
            "durationTicks": 60,
            "midi": 77,
            "name": "F5",
            "ticks": 44940,
            "time": 172.84598099999997,
            "velocity": 0.6299212598425197
          },
          {
            "duration": 0.23076900000000933,
            "durationTicks": 60,
            "midi": 80,
            "name": "G#5",
            "ticks": 44940,
            "time": 172.84598099999997,
            "velocity": 0.6299212598425197
          },
          {
            "duration": 0.23076900000000933,
            "durationTicks": 60,
            "midi": 72,
            "name": "C5",
            "ticks": 44940,
            "time": 172.84598099999997,
            "velocity": 0.6299212598425197
          },
          {
            "duration": 0.2307689999999809,
            "durationTicks": 60,
            "midi": 77,
            "name": "F5",
            "ticks": 45030,
            "time": 173.19213449999998,
            "velocity": 0.6299212598425197
          },
          {
            "duration": 0.2307689999999809,
            "durationTicks": 60,
            "midi": 80,
            "name": "G#5",
            "ticks": 45030,
            "time": 173.19213449999998,
            "velocity": 0.6299212598425197
          },
          {
            "duration": 0.2307689999999809,
            "durationTicks": 60,
            "midi": 72,
            "name": "C5",
            "ticks": 45030,
            "time": 173.19213449999998,
            "velocity": 0.6299212598425197
          },
          {
            "duration": 0.23076900000000933,
            "durationTicks": 60,
            "midi": 79,
            "name": "G5",
            "ticks": 45120,
            "time": 173.53828799999997,
            "velocity": 0.6299212598425197
          },
          {
            "duration": 0.23076900000000933,
            "durationTicks": 60,
            "midi": 75,
            "name": "D#5",
            "ticks": 45120,
            "time": 173.53828799999997,
            "velocity": 0.6299212598425197
          },
          {
            "duration": 0.23076900000000933,
            "durationTicks": 60,
            "midi": 70,
            "name": "A#4",
            "ticks": 45120,
            "time": 173.53828799999997,
            "velocity": 0.6299212598425197
          },
          {
            "duration": 0.2307689999999809,
            "durationTicks": 60,
            "midi": 70,
            "name": "A#4",
            "ticks": 45210,
            "time": 173.88444149999998,
            "velocity": 0.6299212598425197
          },
          {
            "duration": 0.2307689999999809,
            "durationTicks": 60,
            "midi": 79,
            "name": "G5",
            "ticks": 45210,
            "time": 173.88444149999998,
            "velocity": 0.6299212598425197
          },
          {
            "duration": 0.2307689999999809,
            "durationTicks": 60,
            "midi": 75,
            "name": "D#5",
            "ticks": 45210,
            "time": 173.88444149999998,
            "velocity": 0.6299212598425197
          },
          {
            "duration": 0.23076900000000933,
            "durationTicks": 60,
            "midi": 73,
            "name": "C#5",
            "ticks": 45300,
            "time": 174.23059499999997,
            "velocity": 0.6299212598425197
          },
          {
            "duration": 0.23076900000000933,
            "durationTicks": 60,
            "midi": 77,
            "name": "F5",
            "ticks": 45300,
            "time": 174.23059499999997,
            "velocity": 0.6299212598425197
          },
          {
            "duration": 0.23076900000000933,
            "durationTicks": 60,
            "midi": 80,
            "name": "G#5",
            "ticks": 45300,
            "time": 174.23059499999997,
            "velocity": 0.6299212598425197
          },
          {
            "duration": 0.23076900000000933,
            "durationTicks": 60,
            "midi": 68,
            "name": "G#4",
            "ticks": 45300,
            "time": 174.23059499999997,
            "velocity": 0.6299212598425197
          },
          {
            "duration": 0.2307689999999809,
            "durationTicks": 60,
            "midi": 68,
            "name": "G#4",
            "ticks": 45420,
            "time": 174.69213299999998,
            "velocity": 0.6299212598425197
          },
          {
            "duration": 0.2307689999999809,
            "durationTicks": 60,
            "midi": 77,
            "name": "F5",
            "ticks": 45420,
            "time": 174.69213299999998,
            "velocity": 0.6299212598425197
          },
          {
            "duration": 0.2307689999999809,
            "durationTicks": 60,
            "midi": 73,
            "name": "C#5",
            "ticks": 45420,
            "time": 174.69213299999998,
            "velocity": 0.6299212598425197
          },
          {
            "duration": 0.2307689999999809,
            "durationTicks": 60,
            "midi": 80,
            "name": "G#5",
            "ticks": 45420,
            "time": 174.69213299999998,
            "velocity": 0.6299212598425197
          },
          {
            "duration": 0.23076900000000933,
            "durationTicks": 60,
            "midi": 77,
            "name": "F5",
            "ticks": 45510,
            "time": 175.03828649999997,
            "velocity": 0.6299212598425197
          },
          {
            "duration": 0.23076900000000933,
            "durationTicks": 60,
            "midi": 68,
            "name": "G#4",
            "ticks": 45510,
            "time": 175.03828649999997,
            "velocity": 0.6299212598425197
          },
          {
            "duration": 0.23076900000000933,
            "durationTicks": 60,
            "midi": 80,
            "name": "G#5",
            "ticks": 45510,
            "time": 175.03828649999997,
            "velocity": 0.6299212598425197
          },
          {
            "duration": 0.23076900000000933,
            "durationTicks": 60,
            "midi": 73,
            "name": "C#5",
            "ticks": 45510,
            "time": 175.03828649999997,
            "velocity": 0.6299212598425197
          },
          {
            "duration": 0.2307689999999809,
            "durationTicks": 60,
            "midi": 77,
            "name": "F5",
            "ticks": 45600,
            "time": 175.38443999999998,
            "velocity": 0.6299212598425197
          },
          {
            "duration": 0.2307689999999809,
            "durationTicks": 60,
            "midi": 80,
            "name": "G#5",
            "ticks": 45600,
            "time": 175.38443999999998,
            "velocity": 0.6299212598425197
          },
          {
            "duration": 0.2307689999999809,
            "durationTicks": 60,
            "midi": 72,
            "name": "C5",
            "ticks": 45600,
            "time": 175.38443999999998,
            "velocity": 0.6299212598425197
          },
          {
            "duration": 0.23076900000000933,
            "durationTicks": 60,
            "midi": 80,
            "name": "G#5",
            "ticks": 45690,
            "time": 175.73059349999997,
            "velocity": 0.6299212598425197
          },
          {
            "duration": 0.23076900000000933,
            "durationTicks": 60,
            "midi": 77,
            "name": "F5",
            "ticks": 45690,
            "time": 175.73059349999997,
            "velocity": 0.6299212598425197
          },
          {
            "duration": 0.23076900000000933,
            "durationTicks": 60,
            "midi": 72,
            "name": "C5",
            "ticks": 45690,
            "time": 175.73059349999997,
            "velocity": 0.6299212598425197
          },
          {
            "duration": 0.2307689999999809,
            "durationTicks": 60,
            "midi": 77,
            "name": "F5",
            "ticks": 45780,
            "time": 176.07674699999998,
            "velocity": 0.6299212598425197
          },
          {
            "duration": 0.2307689999999809,
            "durationTicks": 60,
            "midi": 80,
            "name": "G#5",
            "ticks": 45780,
            "time": 176.07674699999998,
            "velocity": 0.6299212598425197
          },
          {
            "duration": 0.2307689999999809,
            "durationTicks": 60,
            "midi": 72,
            "name": "C5",
            "ticks": 45780,
            "time": 176.07674699999998,
            "velocity": 0.6299212598425197
          },
          {
            "duration": 0.23076900000000933,
            "durationTicks": 60,
            "midi": 80,
            "name": "G#5",
            "ticks": 45900,
            "time": 176.53828499999997,
            "velocity": 0.6299212598425197
          },
          {
            "duration": 0.23076900000000933,
            "durationTicks": 60,
            "midi": 77,
            "name": "F5",
            "ticks": 45900,
            "time": 176.53828499999997,
            "velocity": 0.6299212598425197
          },
          {
            "duration": 0.23076900000000933,
            "durationTicks": 60,
            "midi": 72,
            "name": "C5",
            "ticks": 45900,
            "time": 176.53828499999997,
            "velocity": 0.6299212598425197
          },
          {
            "duration": 0.23076900000000933,
            "durationTicks": 60,
            "midi": 77,
            "name": "F5",
            "ticks": 45990,
            "time": 176.88443849999996,
            "velocity": 0.6299212598425197
          },
          {
            "duration": 0.23076900000000933,
            "durationTicks": 60,
            "midi": 80,
            "name": "G#5",
            "ticks": 45990,
            "time": 176.88443849999996,
            "velocity": 0.6299212598425197
          },
          {
            "duration": 0.23076900000000933,
            "durationTicks": 60,
            "midi": 72,
            "name": "C5",
            "ticks": 45990,
            "time": 176.88443849999996,
            "velocity": 0.6299212598425197
          },
          {
            "duration": 0.23076900000000933,
            "durationTicks": 60,
            "midi": 75,
            "name": "D#5",
            "ticks": 46080,
            "time": 177.23059199999997,
            "velocity": 0.6299212598425197
          },
          {
            "duration": 0.23076900000000933,
            "durationTicks": 60,
            "midi": 79,
            "name": "G5",
            "ticks": 46080,
            "time": 177.23059199999997,
            "velocity": 0.6299212598425197
          },
          {
            "duration": 0.23076900000000933,
            "durationTicks": 60,
            "midi": 70,
            "name": "A#4",
            "ticks": 46080,
            "time": 177.23059199999997,
            "velocity": 0.6299212598425197
          },
          {
            "duration": 0.23076900000000933,
            "durationTicks": 60,
            "midi": 75,
            "name": "D#5",
            "ticks": 46170,
            "time": 177.57674549999996,
            "velocity": 0.6299212598425197
          },
          {
            "duration": 0.23076900000000933,
            "durationTicks": 60,
            "midi": 79,
            "name": "G5",
            "ticks": 46170,
            "time": 177.57674549999996,
            "velocity": 0.6299212598425197
          },
          {
            "duration": 0.23076900000000933,
            "durationTicks": 60,
            "midi": 70,
            "name": "A#4",
            "ticks": 46170,
            "time": 177.57674549999996,
            "velocity": 0.6299212598425197
          },
          {
            "duration": 0.23076900000000933,
            "durationTicks": 60,
            "midi": 73,
            "name": "C#5",
            "ticks": 46260,
            "time": 177.92289899999997,
            "velocity": 0.6299212598425197
          },
          {
            "duration": 0.23076900000000933,
            "durationTicks": 60,
            "midi": 77,
            "name": "F5",
            "ticks": 46260,
            "time": 177.92289899999997,
            "velocity": 0.6299212598425197
          },
          {
            "duration": 0.23076900000000933,
            "durationTicks": 60,
            "midi": 68,
            "name": "G#4",
            "ticks": 46260,
            "time": 177.92289899999997,
            "velocity": 0.6299212598425197
          },
          {
            "duration": 0.23076900000000933,
            "durationTicks": 60,
            "midi": 77,
            "name": "F5",
            "ticks": 46380,
            "time": 178.38443699999996,
            "velocity": 0.6299212598425197
          },
          {
            "duration": 0.23076900000000933,
            "durationTicks": 60,
            "midi": 73,
            "name": "C#5",
            "ticks": 46380,
            "time": 178.38443699999996,
            "velocity": 0.6299212598425197
          },
          {
            "duration": 0.23076900000000933,
            "durationTicks": 60,
            "midi": 68,
            "name": "G#4",
            "ticks": 46380,
            "time": 178.38443699999996,
            "velocity": 0.6299212598425197
          },
          {
            "duration": 0.2307689999999809,
            "durationTicks": 60,
            "midi": 77,
            "name": "F5",
            "ticks": 46470,
            "time": 178.73059049999998,
            "velocity": 0.6299212598425197
          },
          {
            "duration": 0.2307689999999809,
            "durationTicks": 60,
            "midi": 73,
            "name": "C#5",
            "ticks": 46470,
            "time": 178.73059049999998,
            "velocity": 0.6299212598425197
          },
          {
            "duration": 0.2307689999999809,
            "durationTicks": 60,
            "midi": 68,
            "name": "G#4",
            "ticks": 46470,
            "time": 178.73059049999998,
            "velocity": 0.6299212598425197
          },
          {
            "duration": 0.23076900000000933,
            "durationTicks": 60,
            "midi": 77,
            "name": "F5",
            "ticks": 46560,
            "time": 179.07674399999996,
            "velocity": 0.6299212598425197
          },
          {
            "duration": 0.23076900000000933,
            "durationTicks": 60,
            "midi": 80,
            "name": "G#5",
            "ticks": 46560,
            "time": 179.07674399999996,
            "velocity": 0.6299212598425197
          },
          {
            "duration": 0.23076900000000933,
            "durationTicks": 60,
            "midi": 72,
            "name": "C5",
            "ticks": 46560,
            "time": 179.07674399999996,
            "velocity": 0.6299212598425197
          },
          {
            "duration": 0.2307689999999809,
            "durationTicks": 60,
            "midi": 77,
            "name": "F5",
            "ticks": 46650,
            "time": 179.42289749999998,
            "velocity": 0.6299212598425197
          },
          {
            "duration": 0.2307689999999809,
            "durationTicks": 60,
            "midi": 80,
            "name": "G#5",
            "ticks": 46650,
            "time": 179.42289749999998,
            "velocity": 0.6299212598425197
          },
          {
            "duration": 0.2307689999999809,
            "durationTicks": 60,
            "midi": 72,
            "name": "C5",
            "ticks": 46650,
            "time": 179.42289749999998,
            "velocity": 0.6299212598425197
          },
          {
            "duration": 0.23076900000000933,
            "durationTicks": 60,
            "midi": 77,
            "name": "F5",
            "ticks": 46740,
            "time": 179.76905099999996,
            "velocity": 0.6299212598425197
          },
          {
            "duration": 0.23076900000000933,
            "durationTicks": 60,
            "midi": 80,
            "name": "G#5",
            "ticks": 46740,
            "time": 179.76905099999996,
            "velocity": 0.6299212598425197
          },
          {
            "duration": 0.23076900000000933,
            "durationTicks": 60,
            "midi": 72,
            "name": "C5",
            "ticks": 46740,
            "time": 179.76905099999996,
            "velocity": 0.6299212598425197
          },
          {
            "duration": 0.2307689999999809,
            "durationTicks": 60,
            "midi": 77,
            "name": "F5",
            "ticks": 46860,
            "time": 180.23058899999998,
            "velocity": 0.6299212598425197
          },
          {
            "duration": 0.2307689999999809,
            "durationTicks": 60,
            "midi": 80,
            "name": "G#5",
            "ticks": 46860,
            "time": 180.23058899999998,
            "velocity": 0.6299212598425197
          },
          {
            "duration": 0.2307689999999809,
            "durationTicks": 60,
            "midi": 72,
            "name": "C5",
            "ticks": 46860,
            "time": 180.23058899999998,
            "velocity": 0.6299212598425197
          },
          {
            "duration": 0.23076900000000933,
            "durationTicks": 60,
            "midi": 77,
            "name": "F5",
            "ticks": 46950,
            "time": 180.57674249999997,
            "velocity": 0.6299212598425197
          },
          {
            "duration": 0.23076900000000933,
            "durationTicks": 60,
            "midi": 80,
            "name": "G#5",
            "ticks": 46950,
            "time": 180.57674249999997,
            "velocity": 0.6299212598425197
          },
          {
            "duration": 0.23076900000000933,
            "durationTicks": 60,
            "midi": 72,
            "name": "C5",
            "ticks": 46950,
            "time": 180.57674249999997,
            "velocity": 0.6299212598425197
          },
          {
            "duration": 0.2307689999999809,
            "durationTicks": 60,
            "midi": 79,
            "name": "G5",
            "ticks": 47040,
            "time": 180.92289599999998,
            "velocity": 0.6299212598425197
          },
          {
            "duration": 0.2307689999999809,
            "durationTicks": 60,
            "midi": 75,
            "name": "D#5",
            "ticks": 47040,
            "time": 180.92289599999998,
            "velocity": 0.6299212598425197
          },
          {
            "duration": 0.2307689999999809,
            "durationTicks": 60,
            "midi": 70,
            "name": "A#4",
            "ticks": 47040,
            "time": 180.92289599999998,
            "velocity": 0.6299212598425197
          },
          {
            "duration": 0.23076900000000933,
            "durationTicks": 60,
            "midi": 70,
            "name": "A#4",
            "ticks": 47130,
            "time": 181.26904949999997,
            "velocity": 0.6299212598425197
          },
          {
            "duration": 0.23076900000000933,
            "durationTicks": 60,
            "midi": 79,
            "name": "G5",
            "ticks": 47130,
            "time": 181.26904949999997,
            "velocity": 0.6299212598425197
          },
          {
            "duration": 0.23076900000000933,
            "durationTicks": 60,
            "midi": 75,
            "name": "D#5",
            "ticks": 47130,
            "time": 181.26904949999997,
            "velocity": 0.6299212598425197
          },
          {
            "duration": 0.2307689999999809,
            "durationTicks": 60,
            "midi": 73,
            "name": "C#5",
            "ticks": 47220,
            "time": 181.61520299999998,
            "velocity": 0.6299212598425197
          },
          {
            "duration": 0.2307689999999809,
            "durationTicks": 60,
            "midi": 77,
            "name": "F5",
            "ticks": 47220,
            "time": 181.61520299999998,
            "velocity": 0.6299212598425197
          },
          {
            "duration": 0.2307689999999809,
            "durationTicks": 60,
            "midi": 80,
            "name": "G#5",
            "ticks": 47220,
            "time": 181.61520299999998,
            "velocity": 0.6299212598425197
          },
          {
            "duration": 0.2307689999999809,
            "durationTicks": 60,
            "midi": 68,
            "name": "G#4",
            "ticks": 47220,
            "time": 181.61520299999998,
            "velocity": 0.6299212598425197
          },
          {
            "duration": 0.23076900000000933,
            "durationTicks": 60,
            "midi": 68,
            "name": "G#4",
            "ticks": 47340,
            "time": 182.07674099999997,
            "velocity": 0.6299212598425197
          },
          {
            "duration": 0.23076900000000933,
            "durationTicks": 60,
            "midi": 77,
            "name": "F5",
            "ticks": 47340,
            "time": 182.07674099999997,
            "velocity": 0.6299212598425197
          },
          {
            "duration": 0.23076900000000933,
            "durationTicks": 60,
            "midi": 73,
            "name": "C#5",
            "ticks": 47340,
            "time": 182.07674099999997,
            "velocity": 0.6299212598425197
          },
          {
            "duration": 0.23076900000000933,
            "durationTicks": 60,
            "midi": 80,
            "name": "G#5",
            "ticks": 47340,
            "time": 182.07674099999997,
            "velocity": 0.6299212598425197
          },
          {
            "duration": 0.23076900000000933,
            "durationTicks": 60,
            "midi": 77,
            "name": "F5",
            "ticks": 47430,
            "time": 182.42289449999996,
            "velocity": 0.6299212598425197
          },
          {
            "duration": 0.23076900000000933,
            "durationTicks": 60,
            "midi": 68,
            "name": "G#4",
            "ticks": 47430,
            "time": 182.42289449999996,
            "velocity": 0.6299212598425197
          },
          {
            "duration": 0.23076900000000933,
            "durationTicks": 60,
            "midi": 80,
            "name": "G#5",
            "ticks": 47430,
            "time": 182.42289449999996,
            "velocity": 0.6299212598425197
          },
          {
            "duration": 0.23076900000000933,
            "durationTicks": 60,
            "midi": 73,
            "name": "C#5",
            "ticks": 47430,
            "time": 182.42289449999996,
            "velocity": 0.6299212598425197
          },
          {
            "duration": 0.23076900000000933,
            "durationTicks": 60,
            "midi": 77,
            "name": "F5",
            "ticks": 47520,
            "time": 182.76904799999997,
            "velocity": 0.6299212598425197
          },
          {
            "duration": 0.23076900000000933,
            "durationTicks": 60,
            "midi": 80,
            "name": "G#5",
            "ticks": 47520,
            "time": 182.76904799999997,
            "velocity": 0.6299212598425197
          },
          {
            "duration": 0.23076900000000933,
            "durationTicks": 60,
            "midi": 72,
            "name": "C5",
            "ticks": 47520,
            "time": 182.76904799999997,
            "velocity": 0.6299212598425197
          },
          {
            "duration": 0.23076900000000933,
            "durationTicks": 60,
            "midi": 80,
            "name": "G#5",
            "ticks": 47610,
            "time": 183.11520149999996,
            "velocity": 0.6299212598425197
          },
          {
            "duration": 0.23076900000000933,
            "durationTicks": 60,
            "midi": 77,
            "name": "F5",
            "ticks": 47610,
            "time": 183.11520149999996,
            "velocity": 0.6299212598425197
          },
          {
            "duration": 0.23076900000000933,
            "durationTicks": 60,
            "midi": 72,
            "name": "C5",
            "ticks": 47610,
            "time": 183.11520149999996,
            "velocity": 0.6299212598425197
          },
          {
            "duration": 0.23076900000000933,
            "durationTicks": 60,
            "midi": 77,
            "name": "F5",
            "ticks": 47700,
            "time": 183.46135499999997,
            "velocity": 0.6299212598425197
          },
          {
            "duration": 0.23076900000000933,
            "durationTicks": 60,
            "midi": 80,
            "name": "G#5",
            "ticks": 47700,
            "time": 183.46135499999997,
            "velocity": 0.6299212598425197
          },
          {
            "duration": 0.23076900000000933,
            "durationTicks": 60,
            "midi": 72,
            "name": "C5",
            "ticks": 47700,
            "time": 183.46135499999997,
            "velocity": 0.6299212598425197
          },
          {
            "duration": 0.23076900000000933,
            "durationTicks": 60,
            "midi": 80,
            "name": "G#5",
            "ticks": 47820,
            "time": 183.92289299999996,
            "velocity": 0.6299212598425197
          },
          {
            "duration": 0.23076900000000933,
            "durationTicks": 60,
            "midi": 77,
            "name": "F5",
            "ticks": 47820,
            "time": 183.92289299999996,
            "velocity": 0.6299212598425197
          },
          {
            "duration": 0.23076900000000933,
            "durationTicks": 60,
            "midi": 72,
            "name": "C5",
            "ticks": 47820,
            "time": 183.92289299999996,
            "velocity": 0.6299212598425197
          },
          {
            "duration": 0.23076900000000933,
            "durationTicks": 60,
            "midi": 77,
            "name": "F5",
            "ticks": 47910,
            "time": 184.26904649999997,
            "velocity": 0.6299212598425197
          },
          {
            "duration": 0.23076900000000933,
            "durationTicks": 60,
            "midi": 80,
            "name": "G#5",
            "ticks": 47910,
            "time": 184.26904649999997,
            "velocity": 0.6299212598425197
          },
          {
            "duration": 0.23076900000000933,
            "durationTicks": 60,
            "midi": 72,
            "name": "C5",
            "ticks": 47910,
            "time": 184.26904649999997,
            "velocity": 0.6299212598425197
          },
          {
            "duration": 0.23076900000000933,
            "durationTicks": 60,
            "midi": 77,
            "name": "F5",
            "ticks": 48000,
            "time": 184.61519999999996,
            "velocity": 0.6299212598425197
          },
          {
            "duration": 0.23076900000000933,
            "durationTicks": 60,
            "midi": 80,
            "name": "G#5",
            "ticks": 48000,
            "time": 184.61519999999996,
            "velocity": 0.6299212598425197
          },
          {
            "duration": 0.23076900000000933,
            "durationTicks": 60,
            "midi": 72,
            "name": "C5",
            "ticks": 48000,
            "time": 184.61519999999996,
            "velocity": 0.6299212598425197
          },
          {
            "duration": 0.23076900000000933,
            "durationTicks": 60,
            "midi": 80,
            "name": "G#5",
            "ticks": 48090,
            "time": 184.96135349999997,
            "velocity": 0.6299212598425197
          },
          {
            "duration": 0.23076900000000933,
            "durationTicks": 60,
            "midi": 77,
            "name": "F5",
            "ticks": 48090,
            "time": 184.96135349999997,
            "velocity": 0.6299212598425197
          },
          {
            "duration": 0.23076900000000933,
            "durationTicks": 60,
            "midi": 72,
            "name": "C5",
            "ticks": 48090,
            "time": 184.96135349999997,
            "velocity": 0.6299212598425197
          },
          {
            "duration": 0.23076900000000933,
            "durationTicks": 60,
            "midi": 77,
            "name": "F5",
            "ticks": 48180,
            "time": 185.30750699999996,
            "velocity": 0.6299212598425197
          },
          {
            "duration": 0.23076900000000933,
            "durationTicks": 60,
            "midi": 80,
            "name": "G#5",
            "ticks": 48180,
            "time": 185.30750699999996,
            "velocity": 0.6299212598425197
          },
          {
            "duration": 0.23076900000000933,
            "durationTicks": 60,
            "midi": 72,
            "name": "C5",
            "ticks": 48180,
            "time": 185.30750699999996,
            "velocity": 0.6299212598425197
          },
          {
            "duration": 0.2307689999999809,
            "durationTicks": 60,
            "midi": 80,
            "name": "G#5",
            "ticks": 48300,
            "time": 185.76904499999998,
            "velocity": 0.6299212598425197
          },
          {
            "duration": 0.2307689999999809,
            "durationTicks": 60,
            "midi": 77,
            "name": "F5",
            "ticks": 48300,
            "time": 185.76904499999998,
            "velocity": 0.6299212598425197
          },
          {
            "duration": 0.2307689999999809,
            "durationTicks": 60,
            "midi": 72,
            "name": "C5",
            "ticks": 48300,
            "time": 185.76904499999998,
            "velocity": 0.6299212598425197
          },
          {
            "duration": 0.23076900000000933,
            "durationTicks": 60,
            "midi": 77,
            "name": "F5",
            "ticks": 48390,
            "time": 186.11519849999996,
            "velocity": 0.6299212598425197
          },
          {
            "duration": 0.23076900000000933,
            "durationTicks": 60,
            "midi": 80,
            "name": "G#5",
            "ticks": 48390,
            "time": 186.11519849999996,
            "velocity": 0.6299212598425197
          },
          {
            "duration": 0.23076900000000933,
            "durationTicks": 60,
            "midi": 72,
            "name": "C5",
            "ticks": 48390,
            "time": 186.11519849999996,
            "velocity": 0.6299212598425197
          },
          {
            "duration": 0.2307689999999809,
            "durationTicks": 60,
            "midi": 77,
            "name": "F5",
            "ticks": 48480,
            "time": 186.46135199999998,
            "velocity": 0.6299212598425197
          },
          {
            "duration": 0.2307689999999809,
            "durationTicks": 60,
            "midi": 80,
            "name": "G#5",
            "ticks": 48480,
            "time": 186.46135199999998,
            "velocity": 0.6299212598425197
          },
          {
            "duration": 0.2307689999999809,
            "durationTicks": 60,
            "midi": 72,
            "name": "C5",
            "ticks": 48480,
            "time": 186.46135199999998,
            "velocity": 0.6299212598425197
          },
          {
            "duration": 0.23076900000000933,
            "durationTicks": 60,
            "midi": 80,
            "name": "G#5",
            "ticks": 48570,
            "time": 186.80750549999996,
            "velocity": 0.6299212598425197
          },
          {
            "duration": 0.23076900000000933,
            "durationTicks": 60,
            "midi": 77,
            "name": "F5",
            "ticks": 48570,
            "time": 186.80750549999996,
            "velocity": 0.6299212598425197
          },
          {
            "duration": 0.23076900000000933,
            "durationTicks": 60,
            "midi": 72,
            "name": "C5",
            "ticks": 48570,
            "time": 186.80750549999996,
            "velocity": 0.6299212598425197
          },
          {
            "duration": 0.2307689999999809,
            "durationTicks": 60,
            "midi": 77,
            "name": "F5",
            "ticks": 48660,
            "time": 187.15365899999998,
            "velocity": 0.6299212598425197
          },
          {
            "duration": 0.2307689999999809,
            "durationTicks": 60,
            "midi": 80,
            "name": "G#5",
            "ticks": 48660,
            "time": 187.15365899999998,
            "velocity": 0.6299212598425197
          },
          {
            "duration": 0.2307689999999809,
            "durationTicks": 60,
            "midi": 72,
            "name": "C5",
            "ticks": 48660,
            "time": 187.15365899999998,
            "velocity": 0.6299212598425197
          },
          {
            "duration": 0.23076900000000933,
            "durationTicks": 60,
            "midi": 80,
            "name": "G#5",
            "ticks": 48780,
            "time": 187.61519699999997,
            "velocity": 0.6299212598425197
          },
          {
            "duration": 0.23076900000000933,
            "durationTicks": 60,
            "midi": 77,
            "name": "F5",
            "ticks": 48780,
            "time": 187.61519699999997,
            "velocity": 0.6299212598425197
          },
          {
            "duration": 0.23076900000000933,
            "durationTicks": 60,
            "midi": 72,
            "name": "C5",
            "ticks": 48780,
            "time": 187.61519699999997,
            "velocity": 0.6299212598425197
          },
          {
            "duration": 0.2307689999999809,
            "durationTicks": 60,
            "midi": 77,
            "name": "F5",
            "ticks": 48870,
            "time": 187.96135049999998,
            "velocity": 0.6299212598425197
          },
          {
            "duration": 0.2307689999999809,
            "durationTicks": 60,
            "midi": 80,
            "name": "G#5",
            "ticks": 48870,
            "time": 187.96135049999998,
            "velocity": 0.6299212598425197
          },
          {
            "duration": 0.2307689999999809,
            "durationTicks": 60,
            "midi": 72,
            "name": "C5",
            "ticks": 48870,
            "time": 187.96135049999998,
            "velocity": 0.6299212598425197
          },
          {
            "duration": 0.23076900000000933,
            "durationTicks": 60,
            "midi": 77,
            "name": "F5",
            "ticks": 48960,
            "time": 188.30750399999997,
            "velocity": 0.6299212598425197
          },
          {
            "duration": 0.23076900000000933,
            "durationTicks": 60,
            "midi": 80,
            "name": "G#5",
            "ticks": 48960,
            "time": 188.30750399999997,
            "velocity": 0.6299212598425197
          },
          {
            "duration": 0.23076900000000933,
            "durationTicks": 60,
            "midi": 72,
            "name": "C5",
            "ticks": 48960,
            "time": 188.30750399999997,
            "velocity": 0.6299212598425197
          },
          {
            "duration": 0.2307689999999809,
            "durationTicks": 60,
            "midi": 80,
            "name": "G#5",
            "ticks": 49050,
            "time": 188.65365749999998,
            "velocity": 0.6299212598425197
          },
          {
            "duration": 0.2307689999999809,
            "durationTicks": 60,
            "midi": 77,
            "name": "F5",
            "ticks": 49050,
            "time": 188.65365749999998,
            "velocity": 0.6299212598425197
          },
          {
            "duration": 0.2307689999999809,
            "durationTicks": 60,
            "midi": 72,
            "name": "C5",
            "ticks": 49050,
            "time": 188.65365749999998,
            "velocity": 0.6299212598425197
          },
          {
            "duration": 0.23076900000000933,
            "durationTicks": 60,
            "midi": 77,
            "name": "F5",
            "ticks": 49140,
            "time": 188.99981099999997,
            "velocity": 0.6299212598425197
          },
          {
            "duration": 0.23076900000000933,
            "durationTicks": 60,
            "midi": 80,
            "name": "G#5",
            "ticks": 49140,
            "time": 188.99981099999997,
            "velocity": 0.6299212598425197
          },
          {
            "duration": 0.23076900000000933,
            "durationTicks": 60,
            "midi": 72,
            "name": "C5",
            "ticks": 49140,
            "time": 188.99981099999997,
            "velocity": 0.6299212598425197
          },
          {
            "duration": 0.23076900000000933,
            "durationTicks": 60,
            "midi": 80,
            "name": "G#5",
            "ticks": 49260,
            "time": 189.46134899999996,
            "velocity": 0.6299212598425197
          },
          {
            "duration": 0.23076900000000933,
            "durationTicks": 60,
            "midi": 77,
            "name": "F5",
            "ticks": 49260,
            "time": 189.46134899999996,
            "velocity": 0.6299212598425197
          },
          {
            "duration": 0.23076900000000933,
            "durationTicks": 60,
            "midi": 72,
            "name": "C5",
            "ticks": 49260,
            "time": 189.46134899999996,
            "velocity": 0.6299212598425197
          },
          {
            "duration": 0.23076900000000933,
            "durationTicks": 60,
            "midi": 77,
            "name": "F5",
            "ticks": 49350,
            "time": 189.80750249999997,
            "velocity": 0.6299212598425197
          },
          {
            "duration": 0.23076900000000933,
            "durationTicks": 60,
            "midi": 80,
            "name": "G#5",
            "ticks": 49350,
            "time": 189.80750249999997,
            "velocity": 0.6299212598425197
          },
          {
            "duration": 0.23076900000000933,
            "durationTicks": 60,
            "midi": 72,
            "name": "C5",
            "ticks": 49350,
            "time": 189.80750249999997,
            "velocity": 0.6299212598425197
          },
          {
            "duration": 0.23076900000000933,
            "durationTicks": 60,
            "midi": 77,
            "name": "F5",
            "ticks": 49440,
            "time": 190.15365599999996,
            "velocity": 0.6299212598425197
          },
          {
            "duration": 0.23076900000000933,
            "durationTicks": 60,
            "midi": 80,
            "name": "G#5",
            "ticks": 49440,
            "time": 190.15365599999996,
            "velocity": 0.6299212598425197
          },
          {
            "duration": 0.23076900000000933,
            "durationTicks": 60,
            "midi": 72,
            "name": "C5",
            "ticks": 49440,
            "time": 190.15365599999996,
            "velocity": 0.6299212598425197
          },
          {
            "duration": 0.23076900000000933,
            "durationTicks": 60,
            "midi": 80,
            "name": "G#5",
            "ticks": 49530,
            "time": 190.49980949999997,
            "velocity": 0.6299212598425197
          },
          {
            "duration": 0.23076900000000933,
            "durationTicks": 60,
            "midi": 77,
            "name": "F5",
            "ticks": 49530,
            "time": 190.49980949999997,
            "velocity": 0.6299212598425197
          },
          {
            "duration": 0.23076900000000933,
            "durationTicks": 60,
            "midi": 72,
            "name": "C5",
            "ticks": 49530,
            "time": 190.49980949999997,
            "velocity": 0.6299212598425197
          },
          {
            "duration": 0.23076900000000933,
            "durationTicks": 60,
            "midi": 77,
            "name": "F5",
            "ticks": 49620,
            "time": 190.84596299999995,
            "velocity": 0.6299212598425197
          },
          {
            "duration": 0.23076900000000933,
            "durationTicks": 60,
            "midi": 80,
            "name": "G#5",
            "ticks": 49620,
            "time": 190.84596299999995,
            "velocity": 0.6299212598425197
          },
          {
            "duration": 0.23076900000000933,
            "durationTicks": 60,
            "midi": 72,
            "name": "C5",
            "ticks": 49620,
            "time": 190.84596299999995,
            "velocity": 0.6299212598425197
          },
          {
            "duration": 0.2307689999999809,
            "durationTicks": 60,
            "midi": 80,
            "name": "G#5",
            "ticks": 49740,
            "time": 191.30750099999997,
            "velocity": 0.6299212598425197
          },
          {
            "duration": 0.2307689999999809,
            "durationTicks": 60,
            "midi": 77,
            "name": "F5",
            "ticks": 49740,
            "time": 191.30750099999997,
            "velocity": 0.6299212598425197
          },
          {
            "duration": 0.2307689999999809,
            "durationTicks": 60,
            "midi": 72,
            "name": "C5",
            "ticks": 49740,
            "time": 191.30750099999997,
            "velocity": 0.6299212598425197
          },
          {
            "duration": 0.23076900000000933,
            "durationTicks": 60,
            "midi": 77,
            "name": "F5",
            "ticks": 49830,
            "time": 191.65365449999996,
            "velocity": 0.6299212598425197
          },
          {
            "duration": 0.23076900000000933,
            "durationTicks": 60,
            "midi": 80,
            "name": "G#5",
            "ticks": 49830,
            "time": 191.65365449999996,
            "velocity": 0.6299212598425197
          },
          {
            "duration": 0.23076900000000933,
            "durationTicks": 60,
            "midi": 72,
            "name": "C5",
            "ticks": 49830,
            "time": 191.65365449999996,
            "velocity": 0.6299212598425197
          },
          {
            "duration": 0.2307689999999809,
            "durationTicks": 60,
            "midi": 77,
            "name": "F5",
            "ticks": 49920,
            "time": 191.99980799999997,
            "velocity": 0.6299212598425197
          },
          {
            "duration": 0.2307689999999809,
            "durationTicks": 60,
            "midi": 80,
            "name": "G#5",
            "ticks": 49920,
            "time": 191.99980799999997,
            "velocity": 0.6299212598425197
          },
          {
            "duration": 0.2307689999999809,
            "durationTicks": 60,
            "midi": 72,
            "name": "C5",
            "ticks": 49920,
            "time": 191.99980799999997,
            "velocity": 0.6299212598425197
          },
          {
            "duration": 0.23076900000000933,
            "durationTicks": 60,
            "midi": 80,
            "name": "G#5",
            "ticks": 50010,
            "time": 192.34596149999996,
            "velocity": 0.6299212598425197
          },
          {
            "duration": 0.23076900000000933,
            "durationTicks": 60,
            "midi": 77,
            "name": "F5",
            "ticks": 50010,
            "time": 192.34596149999996,
            "velocity": 0.6299212598425197
          },
          {
            "duration": 0.23076900000000933,
            "durationTicks": 60,
            "midi": 72,
            "name": "C5",
            "ticks": 50010,
            "time": 192.34596149999996,
            "velocity": 0.6299212598425197
          },
          {
            "duration": 0.23076900000000933,
            "durationTicks": 60,
            "midi": 77,
            "name": "F5",
            "ticks": 50100,
            "time": 192.69211499999997,
            "velocity": 0.6299212598425197
          },
          {
            "duration": 0.23076900000000933,
            "durationTicks": 60,
            "midi": 80,
            "name": "G#5",
            "ticks": 50100,
            "time": 192.69211499999997,
            "velocity": 0.6299212598425197
          },
          {
            "duration": 0.23076900000000933,
            "durationTicks": 60,
            "midi": 72,
            "name": "C5",
            "ticks": 50100,
            "time": 192.69211499999997,
            "velocity": 0.6299212598425197
          },
          {
            "duration": 0.23076900000000933,
            "durationTicks": 60,
            "midi": 80,
            "name": "G#5",
            "ticks": 50220,
            "time": 193.15365299999996,
            "velocity": 0.6299212598425197
          },
          {
            "duration": 0.23076900000000933,
            "durationTicks": 60,
            "midi": 77,
            "name": "F5",
            "ticks": 50220,
            "time": 193.15365299999996,
            "velocity": 0.6299212598425197
          },
          {
            "duration": 0.23076900000000933,
            "durationTicks": 60,
            "midi": 72,
            "name": "C5",
            "ticks": 50220,
            "time": 193.15365299999996,
            "velocity": 0.6299212598425197
          },
          {
            "duration": 0.2307689999999809,
            "durationTicks": 60,
            "midi": 77,
            "name": "F5",
            "ticks": 50310,
            "time": 193.49980649999998,
            "velocity": 0.6299212598425197
          },
          {
            "duration": 0.2307689999999809,
            "durationTicks": 60,
            "midi": 80,
            "name": "G#5",
            "ticks": 50310,
            "time": 193.49980649999998,
            "velocity": 0.6299212598425197
          },
          {
            "duration": 0.2307689999999809,
            "durationTicks": 60,
            "midi": 72,
            "name": "C5",
            "ticks": 50310,
            "time": 193.49980649999998,
            "velocity": 0.6299212598425197
          },
          {
            "duration": 0.23076900000000933,
            "durationTicks": 60,
            "midi": 77,
            "name": "F5",
            "ticks": 50400,
            "time": 193.84595999999996,
            "velocity": 0.6299212598425197
          },
          {
            "duration": 0.23076900000000933,
            "durationTicks": 60,
            "midi": 80,
            "name": "G#5",
            "ticks": 50400,
            "time": 193.84595999999996,
            "velocity": 0.6299212598425197
          },
          {
            "duration": 0.23076900000000933,
            "durationTicks": 60,
            "midi": 72,
            "name": "C5",
            "ticks": 50400,
            "time": 193.84595999999996,
            "velocity": 0.6299212598425197
          },
          {
            "duration": 0.2307689999999809,
            "durationTicks": 60,
            "midi": 80,
            "name": "G#5",
            "ticks": 50490,
            "time": 194.19211349999998,
            "velocity": 0.6299212598425197
          },
          {
            "duration": 0.2307689999999809,
            "durationTicks": 60,
            "midi": 77,
            "name": "F5",
            "ticks": 50490,
            "time": 194.19211349999998,
            "velocity": 0.6299212598425197
          },
          {
            "duration": 0.2307689999999809,
            "durationTicks": 60,
            "midi": 72,
            "name": "C5",
            "ticks": 50490,
            "time": 194.19211349999998,
            "velocity": 0.6299212598425197
          },
          {
            "duration": 0.23076900000000933,
            "durationTicks": 60,
            "midi": 77,
            "name": "F5",
            "ticks": 50580,
            "time": 194.53826699999996,
            "velocity": 0.6299212598425197
          },
          {
            "duration": 0.23076900000000933,
            "durationTicks": 60,
            "midi": 80,
            "name": "G#5",
            "ticks": 50580,
            "time": 194.53826699999996,
            "velocity": 0.6299212598425197
          },
          {
            "duration": 0.23076900000000933,
            "durationTicks": 60,
            "midi": 72,
            "name": "C5",
            "ticks": 50580,
            "time": 194.53826699999996,
            "velocity": 0.6299212598425197
          },
          {
            "duration": 0.2307689999999809,
            "durationTicks": 60,
            "midi": 80,
            "name": "G#5",
            "ticks": 50700,
            "time": 194.99980499999998,
            "velocity": 0.6299212598425197
          },
          {
            "duration": 0.2307689999999809,
            "durationTicks": 60,
            "midi": 77,
            "name": "F5",
            "ticks": 50700,
            "time": 194.99980499999998,
            "velocity": 0.6299212598425197
          },
          {
            "duration": 0.2307689999999809,
            "durationTicks": 60,
            "midi": 72,
            "name": "C5",
            "ticks": 50700,
            "time": 194.99980499999998,
            "velocity": 0.6299212598425197
          },
          {
            "duration": 0.23076900000000933,
            "durationTicks": 60,
            "midi": 77,
            "name": "F5",
            "ticks": 50790,
            "time": 195.34595849999997,
            "velocity": 0.6299212598425197
          },
          {
            "duration": 0.23076900000000933,
            "durationTicks": 60,
            "midi": 80,
            "name": "G#5",
            "ticks": 50790,
            "time": 195.34595849999997,
            "velocity": 0.6299212598425197
          },
          {
            "duration": 0.23076900000000933,
            "durationTicks": 60,
            "midi": 72,
            "name": "C5",
            "ticks": 50790,
            "time": 195.34595849999997,
            "velocity": 0.6299212598425197
          },
          {
            "duration": 0.2307689999999809,
            "durationTicks": 60,
            "midi": 77,
            "name": "F5",
            "ticks": 50880,
            "time": 195.69211199999998,
            "velocity": 0.6299212598425197
          },
          {
            "duration": 0.2307689999999809,
            "durationTicks": 60,
            "midi": 80,
            "name": "G#5",
            "ticks": 50880,
            "time": 195.69211199999998,
            "velocity": 0.6299212598425197
          },
          {
            "duration": 0.2307689999999809,
            "durationTicks": 60,
            "midi": 72,
            "name": "C5",
            "ticks": 50880,
            "time": 195.69211199999998,
            "velocity": 0.6299212598425197
          },
          {
            "duration": 0.23076900000000933,
            "durationTicks": 60,
            "midi": 80,
            "name": "G#5",
            "ticks": 50970,
            "time": 196.03826549999997,
            "velocity": 0.6299212598425197
          },
          {
            "duration": 0.23076900000000933,
            "durationTicks": 60,
            "midi": 77,
            "name": "F5",
            "ticks": 50970,
            "time": 196.03826549999997,
            "velocity": 0.6299212598425197
          },
          {
            "duration": 0.23076900000000933,
            "durationTicks": 60,
            "midi": 72,
            "name": "C5",
            "ticks": 50970,
            "time": 196.03826549999997,
            "velocity": 0.6299212598425197
          },
          {
            "duration": 0.2307689999999809,
            "durationTicks": 60,
            "midi": 77,
            "name": "F5",
            "ticks": 51060,
            "time": 196.38441899999998,
            "velocity": 0.6299212598425197
          },
          {
            "duration": 0.2307689999999809,
            "durationTicks": 60,
            "midi": 80,
            "name": "G#5",
            "ticks": 51060,
            "time": 196.38441899999998,
            "velocity": 0.6299212598425197
          },
          {
            "duration": 0.2307689999999809,
            "durationTicks": 60,
            "midi": 72,
            "name": "C5",
            "ticks": 51060,
            "time": 196.38441899999998,
            "velocity": 0.6299212598425197
          },
          {
            "duration": 0.23076900000000933,
            "durationTicks": 60,
            "midi": 80,
            "name": "G#5",
            "ticks": 51180,
            "time": 196.84595699999997,
            "velocity": 0.6299212598425197
          },
          {
            "duration": 0.23076900000000933,
            "durationTicks": 60,
            "midi": 77,
            "name": "F5",
            "ticks": 51180,
            "time": 196.84595699999997,
            "velocity": 0.6299212598425197
          },
          {
            "duration": 0.23076900000000933,
            "durationTicks": 60,
            "midi": 72,
            "name": "C5",
            "ticks": 51180,
            "time": 196.84595699999997,
            "velocity": 0.6299212598425197
          },
          {
            "duration": 0.23076900000000933,
            "durationTicks": 60,
            "midi": 77,
            "name": "F5",
            "ticks": 51270,
            "time": 197.19211049999996,
            "velocity": 0.6299212598425197
          },
          {
            "duration": 0.23076900000000933,
            "durationTicks": 60,
            "midi": 80,
            "name": "G#5",
            "ticks": 51270,
            "time": 197.19211049999996,
            "velocity": 0.6299212598425197
          },
          {
            "duration": 0.23076900000000933,
            "durationTicks": 60,
            "midi": 72,
            "name": "C5",
            "ticks": 51270,
            "time": 197.19211049999996,
            "velocity": 0.6299212598425197
          },
          {
            "duration": 0.23076900000000933,
            "durationTicks": 60,
            "midi": 77,
            "name": "F5",
            "ticks": 51360,
            "time": 197.53826399999997,
            "velocity": 0.6299212598425197
          },
          {
            "duration": 0.23076900000000933,
            "durationTicks": 60,
            "midi": 80,
            "name": "G#5",
            "ticks": 51360,
            "time": 197.53826399999997,
            "velocity": 0.6299212598425197
          },
          {
            "duration": 0.23076900000000933,
            "durationTicks": 60,
            "midi": 72,
            "name": "C5",
            "ticks": 51360,
            "time": 197.53826399999997,
            "velocity": 0.6299212598425197
          },
          {
            "duration": 0.23076900000000933,
            "durationTicks": 60,
            "midi": 80,
            "name": "G#5",
            "ticks": 51450,
            "time": 197.88441749999996,
            "velocity": 0.6299212598425197
          },
          {
            "duration": 0.23076900000000933,
            "durationTicks": 60,
            "midi": 77,
            "name": "F5",
            "ticks": 51450,
            "time": 197.88441749999996,
            "velocity": 0.6299212598425197
          },
          {
            "duration": 0.23076900000000933,
            "durationTicks": 60,
            "midi": 72,
            "name": "C5",
            "ticks": 51450,
            "time": 197.88441749999996,
            "velocity": 0.6299212598425197
          },
          {
            "duration": 0.23076900000000933,
            "durationTicks": 60,
            "midi": 77,
            "name": "F5",
            "ticks": 51540,
            "time": 198.23057099999997,
            "velocity": 0.6299212598425197
          },
          {
            "duration": 0.23076900000000933,
            "durationTicks": 60,
            "midi": 80,
            "name": "G#5",
            "ticks": 51540,
            "time": 198.23057099999997,
            "velocity": 0.6299212598425197
          },
          {
            "duration": 0.23076900000000933,
            "durationTicks": 60,
            "midi": 72,
            "name": "C5",
            "ticks": 51540,
            "time": 198.23057099999997,
            "velocity": 0.6299212598425197
          },
          {
            "duration": 0.23076900000000933,
            "durationTicks": 60,
            "midi": 80,
            "name": "G#5",
            "ticks": 51660,
            "time": 198.69210899999996,
            "velocity": 0.6299212598425197
          },
          {
            "duration": 0.23076900000000933,
            "durationTicks": 60,
            "midi": 77,
            "name": "F5",
            "ticks": 51660,
            "time": 198.69210899999996,
            "velocity": 0.6299212598425197
          },
          {
            "duration": 0.23076900000000933,
            "durationTicks": 60,
            "midi": 72,
            "name": "C5",
            "ticks": 51660,
            "time": 198.69210899999996,
            "velocity": 0.6299212598425197
          },
          {
            "duration": 0.2307689999999809,
            "durationTicks": 60,
            "midi": 77,
            "name": "F5",
            "ticks": 51750,
            "time": 199.03826249999997,
            "velocity": 0.6299212598425197
          },
          {
            "duration": 0.2307689999999809,
            "durationTicks": 60,
            "midi": 80,
            "name": "G#5",
            "ticks": 51750,
            "time": 199.03826249999997,
            "velocity": 0.6299212598425197
          },
          {
            "duration": 0.2307689999999809,
            "durationTicks": 60,
            "midi": 72,
            "name": "C5",
            "ticks": 51750,
            "time": 199.03826249999997,
            "velocity": 0.6299212598425197
          },
          {
            "duration": 0.23076900000000933,
            "durationTicks": 60,
            "midi": 75,
            "name": "D#5",
            "ticks": 51840,
            "time": 199.38441599999996,
            "velocity": 0.6299212598425197
          },
          {
            "duration": 0.23076900000000933,
            "durationTicks": 60,
            "midi": 79,
            "name": "G5",
            "ticks": 51840,
            "time": 199.38441599999996,
            "velocity": 0.6299212598425197
          },
          {
            "duration": 0.23076900000000933,
            "durationTicks": 60,
            "midi": 70,
            "name": "A#4",
            "ticks": 51840,
            "time": 199.38441599999996,
            "velocity": 0.6299212598425197
          },
          {
            "duration": 0.2307689999999809,
            "durationTicks": 60,
            "midi": 75,
            "name": "D#5",
            "ticks": 51930,
            "time": 199.73056949999997,
            "velocity": 0.6299212598425197
          },
          {
            "duration": 0.2307689999999809,
            "durationTicks": 60,
            "midi": 79,
            "name": "G5",
            "ticks": 51930,
            "time": 199.73056949999997,
            "velocity": 0.6299212598425197
          },
          {
            "duration": 0.2307689999999809,
            "durationTicks": 60,
            "midi": 70,
            "name": "A#4",
            "ticks": 51930,
            "time": 199.73056949999997,
            "velocity": 0.6299212598425197
          },
          {
            "duration": 0.23076900000000933,
            "durationTicks": 60,
            "midi": 73,
            "name": "C#5",
            "ticks": 52020,
            "time": 200.07672299999996,
            "velocity": 0.6299212598425197
          },
          {
            "duration": 0.23076900000000933,
            "durationTicks": 60,
            "midi": 77,
            "name": "F5",
            "ticks": 52020,
            "time": 200.07672299999996,
            "velocity": 0.6299212598425197
          },
          {
            "duration": 0.23076900000000933,
            "durationTicks": 60,
            "midi": 68,
            "name": "G#4",
            "ticks": 52020,
            "time": 200.07672299999996,
            "velocity": 0.6299212598425197
          },
          {
            "duration": 0.2307689999999809,
            "durationTicks": 60,
            "midi": 77,
            "name": "F5",
            "ticks": 52140,
            "time": 200.53826099999998,
            "velocity": 0.6299212598425197
          },
          {
            "duration": 0.2307689999999809,
            "durationTicks": 60,
            "midi": 73,
            "name": "C#5",
            "ticks": 52140,
            "time": 200.53826099999998,
            "velocity": 0.6299212598425197
          },
          {
            "duration": 0.2307689999999809,
            "durationTicks": 60,
            "midi": 68,
            "name": "G#4",
            "ticks": 52140,
            "time": 200.53826099999998,
            "velocity": 0.6299212598425197
          },
          {
            "duration": 0.23076900000000933,
            "durationTicks": 60,
            "midi": 77,
            "name": "F5",
            "ticks": 52230,
            "time": 200.88441449999996,
            "velocity": 0.6299212598425197
          },
          {
            "duration": 0.23076900000000933,
            "durationTicks": 60,
            "midi": 73,
            "name": "C#5",
            "ticks": 52230,
            "time": 200.88441449999996,
            "velocity": 0.6299212598425197
          },
          {
            "duration": 0.23076900000000933,
            "durationTicks": 60,
            "midi": 68,
            "name": "G#4",
            "ticks": 52230,
            "time": 200.88441449999996,
            "velocity": 0.6299212598425197
          },
          {
            "duration": 0.2307689999999809,
            "durationTicks": 60,
            "midi": 77,
            "name": "F5",
            "ticks": 52320,
            "time": 201.23056799999998,
            "velocity": 0.6299212598425197
          },
          {
            "duration": 0.2307689999999809,
            "durationTicks": 60,
            "midi": 80,
            "name": "G#5",
            "ticks": 52320,
            "time": 201.23056799999998,
            "velocity": 0.6299212598425197
          },
          {
            "duration": 0.2307689999999809,
            "durationTicks": 60,
            "midi": 72,
            "name": "C5",
            "ticks": 52320,
            "time": 201.23056799999998,
            "velocity": 0.6299212598425197
          },
          {
            "duration": 0.23076900000000933,
            "durationTicks": 60,
            "midi": 77,
            "name": "F5",
            "ticks": 52410,
            "time": 201.57672149999996,
            "velocity": 0.6299212598425197
          },
          {
            "duration": 0.23076900000000933,
            "durationTicks": 60,
            "midi": 80,
            "name": "G#5",
            "ticks": 52410,
            "time": 201.57672149999996,
            "velocity": 0.6299212598425197
          },
          {
            "duration": 0.23076900000000933,
            "durationTicks": 60,
            "midi": 72,
            "name": "C5",
            "ticks": 52410,
            "time": 201.57672149999996,
            "velocity": 0.6299212598425197
          },
          {
            "duration": 0.2307689999999809,
            "durationTicks": 60,
            "midi": 77,
            "name": "F5",
            "ticks": 52500,
            "time": 201.92287499999998,
            "velocity": 0.6299212598425197
          },
          {
            "duration": 0.2307689999999809,
            "durationTicks": 60,
            "midi": 80,
            "name": "G#5",
            "ticks": 52500,
            "time": 201.92287499999998,
            "velocity": 0.6299212598425197
          },
          {
            "duration": 0.2307689999999809,
            "durationTicks": 60,
            "midi": 72,
            "name": "C5",
            "ticks": 52500,
            "time": 201.92287499999998,
            "velocity": 0.6299212598425197
          },
          {
            "duration": 0.23076900000000933,
            "durationTicks": 60,
            "midi": 77,
            "name": "F5",
            "ticks": 52620,
            "time": 202.38441299999997,
            "velocity": 0.6299212598425197
          },
          {
            "duration": 0.23076900000000933,
            "durationTicks": 60,
            "midi": 80,
            "name": "G#5",
            "ticks": 52620,
            "time": 202.38441299999997,
            "velocity": 0.6299212598425197
          },
          {
            "duration": 0.23076900000000933,
            "durationTicks": 60,
            "midi": 72,
            "name": "C5",
            "ticks": 52620,
            "time": 202.38441299999997,
            "velocity": 0.6299212598425197
          },
          {
            "duration": 0.2307689999999809,
            "durationTicks": 60,
            "midi": 77,
            "name": "F5",
            "ticks": 52710,
            "time": 202.73056649999998,
            "velocity": 0.6299212598425197
          },
          {
            "duration": 0.2307689999999809,
            "durationTicks": 60,
            "midi": 80,
            "name": "G#5",
            "ticks": 52710,
            "time": 202.73056649999998,
            "velocity": 0.6299212598425197
          },
          {
            "duration": 0.2307689999999809,
            "durationTicks": 60,
            "midi": 72,
            "name": "C5",
            "ticks": 52710,
            "time": 202.73056649999998,
            "velocity": 0.6299212598425197
          },
          {
            "duration": 0.23076900000000933,
            "durationTicks": 60,
            "midi": 79,
            "name": "G5",
            "ticks": 52800,
            "time": 203.07671999999997,
            "velocity": 0.6299212598425197
          },
          {
            "duration": 0.23076900000000933,
            "durationTicks": 60,
            "midi": 75,
            "name": "D#5",
            "ticks": 52800,
            "time": 203.07671999999997,
            "velocity": 0.6299212598425197
          },
          {
            "duration": 0.23076900000000933,
            "durationTicks": 60,
            "midi": 70,
            "name": "A#4",
            "ticks": 52800,
            "time": 203.07671999999997,
            "velocity": 0.6299212598425197
          },
          {
            "duration": 0.2307689999999809,
            "durationTicks": 60,
            "midi": 70,
            "name": "A#4",
            "ticks": 52890,
            "time": 203.42287349999998,
            "velocity": 0.6299212598425197
          },
          {
            "duration": 0.2307689999999809,
            "durationTicks": 60,
            "midi": 79,
            "name": "G5",
            "ticks": 52890,
            "time": 203.42287349999998,
            "velocity": 0.6299212598425197
          },
          {
            "duration": 0.2307689999999809,
            "durationTicks": 60,
            "midi": 75,
            "name": "D#5",
            "ticks": 52890,
            "time": 203.42287349999998,
            "velocity": 0.6299212598425197
          },
          {
            "duration": 0.23076900000000933,
            "durationTicks": 60,
            "midi": 73,
            "name": "C#5",
            "ticks": 52980,
            "time": 203.76902699999997,
            "velocity": 0.6299212598425197
          },
          {
            "duration": 0.23076900000000933,
            "durationTicks": 60,
            "midi": 77,
            "name": "F5",
            "ticks": 52980,
            "time": 203.76902699999997,
            "velocity": 0.6299212598425197
          },
          {
            "duration": 0.23076900000000933,
            "durationTicks": 60,
            "midi": 80,
            "name": "G#5",
            "ticks": 52980,
            "time": 203.76902699999997,
            "velocity": 0.6299212598425197
          },
          {
            "duration": 0.23076900000000933,
            "durationTicks": 60,
            "midi": 68,
            "name": "G#4",
            "ticks": 52980,
            "time": 203.76902699999997,
            "velocity": 0.6299212598425197
          },
          {
            "duration": 0.23076900000000933,
            "durationTicks": 60,
            "midi": 68,
            "name": "G#4",
            "ticks": 53100,
            "time": 204.23056499999996,
            "velocity": 0.6299212598425197
          },
          {
            "duration": 0.23076900000000933,
            "durationTicks": 60,
            "midi": 77,
            "name": "F5",
            "ticks": 53100,
            "time": 204.23056499999996,
            "velocity": 0.6299212598425197
          },
          {
            "duration": 0.23076900000000933,
            "durationTicks": 60,
            "midi": 73,
            "name": "C#5",
            "ticks": 53100,
            "time": 204.23056499999996,
            "velocity": 0.6299212598425197
          },
          {
            "duration": 0.23076900000000933,
            "durationTicks": 60,
            "midi": 80,
            "name": "G#5",
            "ticks": 53100,
            "time": 204.23056499999996,
            "velocity": 0.6299212598425197
          },
          {
            "duration": 0.23076900000000933,
            "durationTicks": 60,
            "midi": 77,
            "name": "F5",
            "ticks": 53190,
            "time": 204.57671849999997,
            "velocity": 0.6299212598425197
          },
          {
            "duration": 0.23076900000000933,
            "durationTicks": 60,
            "midi": 68,
            "name": "G#4",
            "ticks": 53190,
            "time": 204.57671849999997,
            "velocity": 0.6299212598425197
          },
          {
            "duration": 0.23076900000000933,
            "durationTicks": 60,
            "midi": 80,
            "name": "G#5",
            "ticks": 53190,
            "time": 204.57671849999997,
            "velocity": 0.6299212598425197
          },
          {
            "duration": 0.23076900000000933,
            "durationTicks": 60,
            "midi": 73,
            "name": "C#5",
            "ticks": 53190,
            "time": 204.57671849999997,
            "velocity": 0.6299212598425197
          },
          {
            "duration": 0.23076900000000933,
            "durationTicks": 60,
            "midi": 77,
            "name": "F5",
            "ticks": 53280,
            "time": 204.92287199999996,
            "velocity": 0.6299212598425197
          },
          {
            "duration": 0.23076900000000933,
            "durationTicks": 60,
            "midi": 80,
            "name": "G#5",
            "ticks": 53280,
            "time": 204.92287199999996,
            "velocity": 0.6299212598425197
          },
          {
            "duration": 0.23076900000000933,
            "durationTicks": 60,
            "midi": 72,
            "name": "C5",
            "ticks": 53280,
            "time": 204.92287199999996,
            "velocity": 0.6299212598425197
          },
          {
            "duration": 0.23076900000000933,
            "durationTicks": 60,
            "midi": 80,
            "name": "G#5",
            "ticks": 53370,
            "time": 205.26902549999997,
            "velocity": 0.6299212598425197
          },
          {
            "duration": 0.23076900000000933,
            "durationTicks": 60,
            "midi": 77,
            "name": "F5",
            "ticks": 53370,
            "time": 205.26902549999997,
            "velocity": 0.6299212598425197
          },
          {
            "duration": 0.23076900000000933,
            "durationTicks": 60,
            "midi": 72,
            "name": "C5",
            "ticks": 53370,
            "time": 205.26902549999997,
            "velocity": 0.6299212598425197
          },
          {
            "duration": 0.23076900000000933,
            "durationTicks": 60,
            "midi": 77,
            "name": "F5",
            "ticks": 53460,
            "time": 205.61517899999996,
            "velocity": 0.6299212598425197
          },
          {
            "duration": 0.23076900000000933,
            "durationTicks": 60,
            "midi": 80,
            "name": "G#5",
            "ticks": 53460,
            "time": 205.61517899999996,
            "velocity": 0.6299212598425197
          },
          {
            "duration": 0.23076900000000933,
            "durationTicks": 60,
            "midi": 72,
            "name": "C5",
            "ticks": 53460,
            "time": 205.61517899999996,
            "velocity": 0.6299212598425197
          },
          {
            "duration": 0.2307689999999809,
            "durationTicks": 60,
            "midi": 80,
            "name": "G#5",
            "ticks": 53580,
            "time": 206.07671699999997,
            "velocity": 0.6299212598425197
          },
          {
            "duration": 0.2307689999999809,
            "durationTicks": 60,
            "midi": 77,
            "name": "F5",
            "ticks": 53580,
            "time": 206.07671699999997,
            "velocity": 0.6299212598425197
          },
          {
            "duration": 0.2307689999999809,
            "durationTicks": 60,
            "midi": 72,
            "name": "C5",
            "ticks": 53580,
            "time": 206.07671699999997,
            "velocity": 0.6299212598425197
          },
          {
            "duration": 0.23076900000000933,
            "durationTicks": 60,
            "midi": 77,
            "name": "F5",
            "ticks": 53670,
            "time": 206.42287049999996,
            "velocity": 0.6299212598425197
          },
          {
            "duration": 0.23076900000000933,
            "durationTicks": 60,
            "midi": 80,
            "name": "G#5",
            "ticks": 53670,
            "time": 206.42287049999996,
            "velocity": 0.6299212598425197
          },
          {
            "duration": 0.23076900000000933,
            "durationTicks": 60,
            "midi": 72,
            "name": "C5",
            "ticks": 53670,
            "time": 206.42287049999996,
            "velocity": 0.6299212598425197
          },
          {
            "duration": 0.2307689999999809,
            "durationTicks": 60,
            "midi": 75,
            "name": "D#5",
            "ticks": 53760,
            "time": 206.76902399999997,
            "velocity": 0.6299212598425197
          },
          {
            "duration": 0.2307689999999809,
            "durationTicks": 60,
            "midi": 79,
            "name": "G5",
            "ticks": 53760,
            "time": 206.76902399999997,
            "velocity": 0.6299212598425197
          },
          {
            "duration": 0.2307689999999809,
            "durationTicks": 60,
            "midi": 70,
            "name": "A#4",
            "ticks": 53760,
            "time": 206.76902399999997,
            "velocity": 0.6299212598425197
          },
          {
            "duration": 0.23076900000000933,
            "durationTicks": 60,
            "midi": 75,
            "name": "D#5",
            "ticks": 53850,
            "time": 207.11517749999996,
            "velocity": 0.6299212598425197
          },
          {
            "duration": 0.23076900000000933,
            "durationTicks": 60,
            "midi": 79,
            "name": "G5",
            "ticks": 53850,
            "time": 207.11517749999996,
            "velocity": 0.6299212598425197
          },
          {
            "duration": 0.23076900000000933,
            "durationTicks": 60,
            "midi": 70,
            "name": "A#4",
            "ticks": 53850,
            "time": 207.11517749999996,
            "velocity": 0.6299212598425197
          },
          {
            "duration": 0.2307689999999809,
            "durationTicks": 60,
            "midi": 73,
            "name": "C#5",
            "ticks": 53940,
            "time": 207.46133099999997,
            "velocity": 0.6299212598425197
          },
          {
            "duration": 0.2307689999999809,
            "durationTicks": 60,
            "midi": 77,
            "name": "F5",
            "ticks": 53940,
            "time": 207.46133099999997,
            "velocity": 0.6299212598425197
          },
          {
            "duration": 0.2307689999999809,
            "durationTicks": 60,
            "midi": 68,
            "name": "G#4",
            "ticks": 53940,
            "time": 207.46133099999997,
            "velocity": 0.6299212598425197
          },
          {
            "duration": 0.23076900000000933,
            "durationTicks": 60,
            "midi": 77,
            "name": "F5",
            "ticks": 54060,
            "time": 207.92286899999996,
            "velocity": 0.6299212598425197
          },
          {
            "duration": 0.23076900000000933,
            "durationTicks": 60,
            "midi": 73,
            "name": "C#5",
            "ticks": 54060,
            "time": 207.92286899999996,
            "velocity": 0.6299212598425197
          },
          {
            "duration": 0.23076900000000933,
            "durationTicks": 60,
            "midi": 68,
            "name": "G#4",
            "ticks": 54060,
            "time": 207.92286899999996,
            "velocity": 0.6299212598425197
          },
          {
            "duration": 0.2307689999999809,
            "durationTicks": 60,
            "midi": 77,
            "name": "F5",
            "ticks": 54150,
            "time": 208.26902249999998,
            "velocity": 0.6299212598425197
          },
          {
            "duration": 0.2307689999999809,
            "durationTicks": 60,
            "midi": 73,
            "name": "C#5",
            "ticks": 54150,
            "time": 208.26902249999998,
            "velocity": 0.6299212598425197
          },
          {
            "duration": 0.2307689999999809,
            "durationTicks": 60,
            "midi": 68,
            "name": "G#4",
            "ticks": 54150,
            "time": 208.26902249999998,
            "velocity": 0.6299212598425197
          },
          {
            "duration": 0.23076900000000933,
            "durationTicks": 60,
            "midi": 77,
            "name": "F5",
            "ticks": 54240,
            "time": 208.61517599999996,
            "velocity": 0.6299212598425197
          },
          {
            "duration": 0.23076900000000933,
            "durationTicks": 60,
            "midi": 80,
            "name": "G#5",
            "ticks": 54240,
            "time": 208.61517599999996,
            "velocity": 0.6299212598425197
          },
          {
            "duration": 0.23076900000000933,
            "durationTicks": 60,
            "midi": 72,
            "name": "C5",
            "ticks": 54240,
            "time": 208.61517599999996,
            "velocity": 0.6299212598425197
          },
          {
            "duration": 0.2307689999999809,
            "durationTicks": 60,
            "midi": 77,
            "name": "F5",
            "ticks": 54330,
            "time": 208.96132949999998,
            "velocity": 0.6299212598425197
          },
          {
            "duration": 0.2307689999999809,
            "durationTicks": 60,
            "midi": 80,
            "name": "G#5",
            "ticks": 54330,
            "time": 208.96132949999998,
            "velocity": 0.6299212598425197
          },
          {
            "duration": 0.2307689999999809,
            "durationTicks": 60,
            "midi": 72,
            "name": "C5",
            "ticks": 54330,
            "time": 208.96132949999998,
            "velocity": 0.6299212598425197
          },
          {
            "duration": 0.23076900000000933,
            "durationTicks": 60,
            "midi": 77,
            "name": "F5",
            "ticks": 54420,
            "time": 209.30748299999996,
            "velocity": 0.6299212598425197
          },
          {
            "duration": 0.23076900000000933,
            "durationTicks": 60,
            "midi": 80,
            "name": "G#5",
            "ticks": 54420,
            "time": 209.30748299999996,
            "velocity": 0.6299212598425197
          },
          {
            "duration": 0.23076900000000933,
            "durationTicks": 60,
            "midi": 72,
            "name": "C5",
            "ticks": 54420,
            "time": 209.30748299999996,
            "velocity": 0.6299212598425197
          },
          {
            "duration": 0.23076900000000933,
            "durationTicks": 60,
            "midi": 77,
            "name": "F5",
            "ticks": 54540,
            "time": 209.76902099999995,
            "velocity": 0.6299212598425197
          },
          {
            "duration": 0.23076900000000933,
            "durationTicks": 60,
            "midi": 80,
            "name": "G#5",
            "ticks": 54540,
            "time": 209.76902099999995,
            "velocity": 0.6299212598425197
          },
          {
            "duration": 0.23076900000000933,
            "durationTicks": 60,
            "midi": 72,
            "name": "C5",
            "ticks": 54540,
            "time": 209.76902099999995,
            "velocity": 0.6299212598425197
          },
          {
            "duration": 0.23076900000000933,
            "durationTicks": 60,
            "midi": 77,
            "name": "F5",
            "ticks": 54630,
            "time": 210.11517449999997,
            "velocity": 0.6299212598425197
          },
          {
            "duration": 0.23076900000000933,
            "durationTicks": 60,
            "midi": 80,
            "name": "G#5",
            "ticks": 54630,
            "time": 210.11517449999997,
            "velocity": 0.6299212598425197
          },
          {
            "duration": 0.23076900000000933,
            "durationTicks": 60,
            "midi": 72,
            "name": "C5",
            "ticks": 54630,
            "time": 210.11517449999997,
            "velocity": 0.6299212598425197
          },
          {
            "duration": 0.23076900000000933,
            "durationTicks": 60,
            "midi": 79,
            "name": "G5",
            "ticks": 54720,
            "time": 210.46132799999995,
            "velocity": 0.6299212598425197
          },
          {
            "duration": 0.23076900000000933,
            "durationTicks": 60,
            "midi": 75,
            "name": "D#5",
            "ticks": 54720,
            "time": 210.46132799999995,
            "velocity": 0.6299212598425197
          },
          {
            "duration": 0.23076900000000933,
            "durationTicks": 60,
            "midi": 70,
            "name": "A#4",
            "ticks": 54720,
            "time": 210.46132799999995,
            "velocity": 0.6299212598425197
          },
          {
            "duration": 0.23076900000000933,
            "durationTicks": 60,
            "midi": 70,
            "name": "A#4",
            "ticks": 54810,
            "time": 210.80748149999997,
            "velocity": 0.6299212598425197
          },
          {
            "duration": 0.23076900000000933,
            "durationTicks": 60,
            "midi": 79,
            "name": "G5",
            "ticks": 54810,
            "time": 210.80748149999997,
            "velocity": 0.6299212598425197
          },
          {
            "duration": 0.23076900000000933,
            "durationTicks": 60,
            "midi": 75,
            "name": "D#5",
            "ticks": 54810,
            "time": 210.80748149999997,
            "velocity": 0.6299212598425197
          },
          {
            "duration": 0.2307689999999809,
            "durationTicks": 60,
            "midi": 73,
            "name": "C#5",
            "ticks": 54900,
            "time": 211.15363499999998,
            "velocity": 0.6299212598425197
          },
          {
            "duration": 0.2307689999999809,
            "durationTicks": 60,
            "midi": 77,
            "name": "F5",
            "ticks": 54900,
            "time": 211.15363499999998,
            "velocity": 0.6299212598425197
          },
          {
            "duration": 0.2307689999999809,
            "durationTicks": 60,
            "midi": 80,
            "name": "G#5",
            "ticks": 54900,
            "time": 211.15363499999998,
            "velocity": 0.6299212598425197
          },
          {
            "duration": 0.2307689999999809,
            "durationTicks": 60,
            "midi": 68,
            "name": "G#4",
            "ticks": 54900,
            "time": 211.15363499999998,
            "velocity": 0.6299212598425197
          },
          {
            "duration": 0.23076900000000933,
            "durationTicks": 60,
            "midi": 68,
            "name": "G#4",
            "ticks": 55020,
            "time": 211.61517299999997,
            "velocity": 0.6299212598425197
          },
          {
            "duration": 0.23076900000000933,
            "durationTicks": 60,
            "midi": 77,
            "name": "F5",
            "ticks": 55020,
            "time": 211.61517299999997,
            "velocity": 0.6299212598425197
          },
          {
            "duration": 0.23076900000000933,
            "durationTicks": 60,
            "midi": 73,
            "name": "C#5",
            "ticks": 55020,
            "time": 211.61517299999997,
            "velocity": 0.6299212598425197
          },
          {
            "duration": 0.23076900000000933,
            "durationTicks": 60,
            "midi": 80,
            "name": "G#5",
            "ticks": 55020,
            "time": 211.61517299999997,
            "velocity": 0.6299212598425197
          },
          {
            "duration": 0.23076900000000933,
            "durationTicks": 60,
            "midi": 77,
            "name": "F5",
            "ticks": 55110,
            "time": 211.96132649999996,
            "velocity": 0.6299212598425197
          },
          {
            "duration": 0.23076900000000933,
            "durationTicks": 60,
            "midi": 68,
            "name": "G#4",
            "ticks": 55110,
            "time": 211.96132649999996,
            "velocity": 0.6299212598425197
          },
          {
            "duration": 0.23076900000000933,
            "durationTicks": 60,
            "midi": 80,
            "name": "G#5",
            "ticks": 55110,
            "time": 211.96132649999996,
            "velocity": 0.6299212598425197
          },
          {
            "duration": 0.23076900000000933,
            "durationTicks": 60,
            "midi": 73,
            "name": "C#5",
            "ticks": 55110,
            "time": 211.96132649999996,
            "velocity": 0.6299212598425197
          },
          {
            "duration": 0.2307689999999809,
            "durationTicks": 60,
            "midi": 77,
            "name": "F5",
            "ticks": 60000,
            "time": 230.76899999999998,
            "velocity": 0.6299212598425197
          },
          {
            "duration": 0.2307689999999809,
            "durationTicks": 60,
            "midi": 80,
            "name": "G#5",
            "ticks": 60000,
            "time": 230.76899999999998,
            "velocity": 0.6299212598425197
          },
          {
            "duration": 0.2307689999999809,
            "durationTicks": 60,
            "midi": 72,
            "name": "C5",
            "ticks": 60000,
            "time": 230.76899999999998,
            "velocity": 0.6299212598425197
          },
          {
            "duration": 0.23076900000000933,
            "durationTicks": 60,
            "midi": 80,
            "name": "G#5",
            "ticks": 60090,
            "time": 231.11515349999996,
            "velocity": 0.6299212598425197
          },
          {
            "duration": 0.23076900000000933,
            "durationTicks": 60,
            "midi": 77,
            "name": "F5",
            "ticks": 60090,
            "time": 231.11515349999996,
            "velocity": 0.6299212598425197
          },
          {
            "duration": 0.23076900000000933,
            "durationTicks": 60,
            "midi": 72,
            "name": "C5",
            "ticks": 60090,
            "time": 231.11515349999996,
            "velocity": 0.6299212598425197
          },
          {
            "duration": 0.2307689999999809,
            "durationTicks": 60,
            "midi": 77,
            "name": "F5",
            "ticks": 60180,
            "time": 231.46130699999998,
            "velocity": 0.6299212598425197
          },
          {
            "duration": 0.2307689999999809,
            "durationTicks": 60,
            "midi": 80,
            "name": "G#5",
            "ticks": 60180,
            "time": 231.46130699999998,
            "velocity": 0.6299212598425197
          },
          {
            "duration": 0.2307689999999809,
            "durationTicks": 60,
            "midi": 72,
            "name": "C5",
            "ticks": 60180,
            "time": 231.46130699999998,
            "velocity": 0.6299212598425197
          },
          {
            "duration": 0.23076900000000933,
            "durationTicks": 60,
            "midi": 80,
            "name": "G#5",
            "ticks": 60300,
            "time": 231.92284499999997,
            "velocity": 0.6299212598425197
          },
          {
            "duration": 0.23076900000000933,
            "durationTicks": 60,
            "midi": 77,
            "name": "F5",
            "ticks": 60300,
            "time": 231.92284499999997,
            "velocity": 0.6299212598425197
          },
          {
            "duration": 0.23076900000000933,
            "durationTicks": 60,
            "midi": 72,
            "name": "C5",
            "ticks": 60300,
            "time": 231.92284499999997,
            "velocity": 0.6299212598425197
          },
          {
            "duration": 0.23076900000000933,
            "durationTicks": 60,
            "midi": 77,
            "name": "F5",
            "ticks": 60390,
            "time": 232.26899849999995,
            "velocity": 0.6299212598425197
          },
          {
            "duration": 0.23076900000000933,
            "durationTicks": 60,
            "midi": 80,
            "name": "G#5",
            "ticks": 60390,
            "time": 232.26899849999995,
            "velocity": 0.6299212598425197
          },
          {
            "duration": 0.23076900000000933,
            "durationTicks": 60,
            "midi": 72,
            "name": "C5",
            "ticks": 60390,
            "time": 232.26899849999995,
            "velocity": 0.6299212598425197
          },
          {
            "duration": 0.23076900000000933,
            "durationTicks": 60,
            "midi": 75,
            "name": "D#5",
            "ticks": 60480,
            "time": 232.61515199999997,
            "velocity": 0.6299212598425197
          },
          {
            "duration": 0.23076900000000933,
            "durationTicks": 60,
            "midi": 79,
            "name": "G5",
            "ticks": 60480,
            "time": 232.61515199999997,
            "velocity": 0.6299212598425197
          },
          {
            "duration": 0.23076900000000933,
            "durationTicks": 60,
            "midi": 70,
            "name": "A#4",
            "ticks": 60480,
            "time": 232.61515199999997,
            "velocity": 0.6299212598425197
          },
          {
            "duration": 0.23076900000000933,
            "durationTicks": 60,
            "midi": 75,
            "name": "D#5",
            "ticks": 60570,
            "time": 232.96130549999995,
            "velocity": 0.6299212598425197
          },
          {
            "duration": 0.23076900000000933,
            "durationTicks": 60,
            "midi": 79,
            "name": "G5",
            "ticks": 60570,
            "time": 232.96130549999995,
            "velocity": 0.6299212598425197
          },
          {
            "duration": 0.23076900000000933,
            "durationTicks": 60,
            "midi": 70,
            "name": "A#4",
            "ticks": 60570,
            "time": 232.96130549999995,
            "velocity": 0.6299212598425197
          },
          {
            "duration": 0.23076900000000933,
            "durationTicks": 60,
            "midi": 73,
            "name": "C#5",
            "ticks": 60660,
            "time": 233.30745899999997,
            "velocity": 0.6299212598425197
          },
          {
            "duration": 0.23076900000000933,
            "durationTicks": 60,
            "midi": 77,
            "name": "F5",
            "ticks": 60660,
            "time": 233.30745899999997,
            "velocity": 0.6299212598425197
          },
          {
            "duration": 0.23076900000000933,
            "durationTicks": 60,
            "midi": 68,
            "name": "G#4",
            "ticks": 60660,
            "time": 233.30745899999997,
            "velocity": 0.6299212598425197
          },
          {
            "duration": 0.23076900000000933,
            "durationTicks": 60,
            "midi": 77,
            "name": "F5",
            "ticks": 60780,
            "time": 233.76899699999996,
            "velocity": 0.6299212598425197
          },
          {
            "duration": 0.23076900000000933,
            "durationTicks": 60,
            "midi": 73,
            "name": "C#5",
            "ticks": 60780,
            "time": 233.76899699999996,
            "velocity": 0.6299212598425197
          },
          {
            "duration": 0.23076900000000933,
            "durationTicks": 60,
            "midi": 68,
            "name": "G#4",
            "ticks": 60780,
            "time": 233.76899699999996,
            "velocity": 0.6299212598425197
          },
          {
            "duration": 0.2307689999999809,
            "durationTicks": 60,
            "midi": 77,
            "name": "F5",
            "ticks": 60870,
            "time": 234.11515049999997,
            "velocity": 0.6299212598425197
          },
          {
            "duration": 0.2307689999999809,
            "durationTicks": 60,
            "midi": 73,
            "name": "C#5",
            "ticks": 60870,
            "time": 234.11515049999997,
            "velocity": 0.6299212598425197
          },
          {
            "duration": 0.2307689999999809,
            "durationTicks": 60,
            "midi": 68,
            "name": "G#4",
            "ticks": 60870,
            "time": 234.11515049999997,
            "velocity": 0.6299212598425197
          },
          {
            "duration": 0.23076900000000933,
            "durationTicks": 60,
            "midi": 77,
            "name": "F5",
            "ticks": 60960,
            "time": 234.46130399999996,
            "velocity": 0.6299212598425197
          },
          {
            "duration": 0.23076900000000933,
            "durationTicks": 60,
            "midi": 80,
            "name": "G#5",
            "ticks": 60960,
            "time": 234.46130399999996,
            "velocity": 0.6299212598425197
          },
          {
            "duration": 0.23076900000000933,
            "durationTicks": 60,
            "midi": 72,
            "name": "C5",
            "ticks": 60960,
            "time": 234.46130399999996,
            "velocity": 0.6299212598425197
          },
          {
            "duration": 0.2307689999999809,
            "durationTicks": 60,
            "midi": 77,
            "name": "F5",
            "ticks": 61050,
            "time": 234.80745749999997,
            "velocity": 0.6299212598425197
          },
          {
            "duration": 0.2307689999999809,
            "durationTicks": 60,
            "midi": 80,
            "name": "G#5",
            "ticks": 61050,
            "time": 234.80745749999997,
            "velocity": 0.6299212598425197
          },
          {
            "duration": 0.2307689999999809,
            "durationTicks": 60,
            "midi": 72,
            "name": "C5",
            "ticks": 61050,
            "time": 234.80745749999997,
            "velocity": 0.6299212598425197
          },
          {
            "duration": 0.23076900000000933,
            "durationTicks": 60,
            "midi": 77,
            "name": "F5",
            "ticks": 61140,
            "time": 235.15361099999996,
            "velocity": 0.6299212598425197
          },
          {
            "duration": 0.23076900000000933,
            "durationTicks": 60,
            "midi": 80,
            "name": "G#5",
            "ticks": 61140,
            "time": 235.15361099999996,
            "velocity": 0.6299212598425197
          },
          {
            "duration": 0.23076900000000933,
            "durationTicks": 60,
            "midi": 72,
            "name": "C5",
            "ticks": 61140,
            "time": 235.15361099999996,
            "velocity": 0.6299212598425197
          },
          {
            "duration": 0.2307689999999809,
            "durationTicks": 60,
            "midi": 77,
            "name": "F5",
            "ticks": 61260,
            "time": 235.61514899999997,
            "velocity": 0.6299212598425197
          },
          {
            "duration": 0.2307689999999809,
            "durationTicks": 60,
            "midi": 80,
            "name": "G#5",
            "ticks": 61260,
            "time": 235.61514899999997,
            "velocity": 0.6299212598425197
          },
          {
            "duration": 0.2307689999999809,
            "durationTicks": 60,
            "midi": 72,
            "name": "C5",
            "ticks": 61260,
            "time": 235.61514899999997,
            "velocity": 0.6299212598425197
          },
          {
            "duration": 0.23076900000000933,
            "durationTicks": 60,
            "midi": 77,
            "name": "F5",
            "ticks": 61350,
            "time": 235.96130249999996,
            "velocity": 0.6299212598425197
          },
          {
            "duration": 0.23076900000000933,
            "durationTicks": 60,
            "midi": 80,
            "name": "G#5",
            "ticks": 61350,
            "time": 235.96130249999996,
            "velocity": 0.6299212598425197
          },
          {
            "duration": 0.23076900000000933,
            "durationTicks": 60,
            "midi": 72,
            "name": "C5",
            "ticks": 61350,
            "time": 235.96130249999996,
            "velocity": 0.6299212598425197
          },
          {
            "duration": 0.2307689999999809,
            "durationTicks": 60,
            "midi": 79,
            "name": "G5",
            "ticks": 61440,
            "time": 236.30745599999997,
            "velocity": 0.6299212598425197
          },
          {
            "duration": 0.2307689999999809,
            "durationTicks": 60,
            "midi": 75,
            "name": "D#5",
            "ticks": 61440,
            "time": 236.30745599999997,
            "velocity": 0.6299212598425197
          },
          {
            "duration": 0.2307689999999809,
            "durationTicks": 60,
            "midi": 70,
            "name": "A#4",
            "ticks": 61440,
            "time": 236.30745599999997,
            "velocity": 0.6299212598425197
          },
          {
            "duration": 0.23076900000000933,
            "durationTicks": 60,
            "midi": 70,
            "name": "A#4",
            "ticks": 61530,
            "time": 236.65360949999996,
            "velocity": 0.6299212598425197
          },
          {
            "duration": 0.23076900000000933,
            "durationTicks": 60,
            "midi": 79,
            "name": "G5",
            "ticks": 61530,
            "time": 236.65360949999996,
            "velocity": 0.6299212598425197
          },
          {
            "duration": 0.23076900000000933,
            "durationTicks": 60,
            "midi": 75,
            "name": "D#5",
            "ticks": 61530,
            "time": 236.65360949999996,
            "velocity": 0.6299212598425197
          },
          {
            "duration": 0.2307689999999809,
            "durationTicks": 60,
            "midi": 73,
            "name": "C#5",
            "ticks": 61620,
            "time": 236.99976299999997,
            "velocity": 0.6299212598425197
          },
          {
            "duration": 0.2307689999999809,
            "durationTicks": 60,
            "midi": 77,
            "name": "F5",
            "ticks": 61620,
            "time": 236.99976299999997,
            "velocity": 0.6299212598425197
          },
          {
            "duration": 0.2307689999999809,
            "durationTicks": 60,
            "midi": 80,
            "name": "G#5",
            "ticks": 61620,
            "time": 236.99976299999997,
            "velocity": 0.6299212598425197
          },
          {
            "duration": 0.2307689999999809,
            "durationTicks": 60,
            "midi": 68,
            "name": "G#4",
            "ticks": 61620,
            "time": 236.99976299999997,
            "velocity": 0.6299212598425197
          },
          {
            "duration": 0.23076900000000933,
            "durationTicks": 60,
            "midi": 68,
            "name": "G#4",
            "ticks": 61740,
            "time": 237.46130099999996,
            "velocity": 0.6299212598425197
          },
          {
            "duration": 0.23076900000000933,
            "durationTicks": 60,
            "midi": 77,
            "name": "F5",
            "ticks": 61740,
            "time": 237.46130099999996,
            "velocity": 0.6299212598425197
          },
          {
            "duration": 0.23076900000000933,
            "durationTicks": 60,
            "midi": 73,
            "name": "C#5",
            "ticks": 61740,
            "time": 237.46130099999996,
            "velocity": 0.6299212598425197
          },
          {
            "duration": 0.23076900000000933,
            "durationTicks": 60,
            "midi": 80,
            "name": "G#5",
            "ticks": 61740,
            "time": 237.46130099999996,
            "velocity": 0.6299212598425197
          },
          {
            "duration": 0.23076900000000933,
            "durationTicks": 60,
            "midi": 77,
            "name": "F5",
            "ticks": 61830,
            "time": 237.80745449999995,
            "velocity": 0.6299212598425197
          },
          {
            "duration": 0.23076900000000933,
            "durationTicks": 60,
            "midi": 68,
            "name": "G#4",
            "ticks": 61830,
            "time": 237.80745449999995,
            "velocity": 0.6299212598425197
          },
          {
            "duration": 0.23076900000000933,
            "durationTicks": 60,
            "midi": 80,
            "name": "G#5",
            "ticks": 61830,
            "time": 237.80745449999995,
            "velocity": 0.6299212598425197
          },
          {
            "duration": 0.23076900000000933,
            "durationTicks": 60,
            "midi": 73,
            "name": "C#5",
            "ticks": 61830,
            "time": 237.80745449999995,
            "velocity": 0.6299212598425197
          },
          {
            "duration": 0.23076900000000933,
            "durationTicks": 60,
            "midi": 77,
            "name": "F5",
            "ticks": 61920,
            "time": 238.15360799999996,
            "velocity": 0.6299212598425197
          },
          {
            "duration": 0.23076900000000933,
            "durationTicks": 60,
            "midi": 80,
            "name": "G#5",
            "ticks": 61920,
            "time": 238.15360799999996,
            "velocity": 0.6299212598425197
          },
          {
            "duration": 0.23076900000000933,
            "durationTicks": 60,
            "midi": 72,
            "name": "C5",
            "ticks": 61920,
            "time": 238.15360799999996,
            "velocity": 0.6299212598425197
          },
          {
            "duration": 0.2307689999999809,
            "durationTicks": 60,
            "midi": 80,
            "name": "G#5",
            "ticks": 62010,
            "time": 238.49976149999998,
            "velocity": 0.6299212598425197
          },
          {
            "duration": 0.2307689999999809,
            "durationTicks": 60,
            "midi": 77,
            "name": "F5",
            "ticks": 62010,
            "time": 238.49976149999998,
            "velocity": 0.6299212598425197
          },
          {
            "duration": 0.2307689999999809,
            "durationTicks": 60,
            "midi": 72,
            "name": "C5",
            "ticks": 62010,
            "time": 238.49976149999998,
            "velocity": 0.6299212598425197
          },
          {
            "duration": 0.23076900000000933,
            "durationTicks": 60,
            "midi": 77,
            "name": "F5",
            "ticks": 62100,
            "time": 238.84591499999996,
            "velocity": 0.6299212598425197
          },
          {
            "duration": 0.23076900000000933,
            "durationTicks": 60,
            "midi": 80,
            "name": "G#5",
            "ticks": 62100,
            "time": 238.84591499999996,
            "velocity": 0.6299212598425197
          },
          {
            "duration": 0.23076900000000933,
            "durationTicks": 60,
            "midi": 72,
            "name": "C5",
            "ticks": 62100,
            "time": 238.84591499999996,
            "velocity": 0.6299212598425197
          },
          {
            "duration": 0.23076900000000933,
            "durationTicks": 60,
            "midi": 80,
            "name": "G#5",
            "ticks": 62220,
            "time": 239.30745299999995,
            "velocity": 0.6299212598425197
          },
          {
            "duration": 0.23076900000000933,
            "durationTicks": 60,
            "midi": 77,
            "name": "F5",
            "ticks": 62220,
            "time": 239.30745299999995,
            "velocity": 0.6299212598425197
          },
          {
            "duration": 0.23076900000000933,
            "durationTicks": 60,
            "midi": 72,
            "name": "C5",
            "ticks": 62220,
            "time": 239.30745299999995,
            "velocity": 0.6299212598425197
          },
          {
            "duration": 0.23076900000000933,
            "durationTicks": 60,
            "midi": 77,
            "name": "F5",
            "ticks": 62310,
            "time": 239.65360649999997,
            "velocity": 0.6299212598425197
          },
          {
            "duration": 0.23076900000000933,
            "durationTicks": 60,
            "midi": 80,
            "name": "G#5",
            "ticks": 62310,
            "time": 239.65360649999997,
            "velocity": 0.6299212598425197
          },
          {
            "duration": 0.23076900000000933,
            "durationTicks": 60,
            "midi": 72,
            "name": "C5",
            "ticks": 62310,
            "time": 239.65360649999997,
            "velocity": 0.6299212598425197
          },
          {
            "duration": 0.23076900000000933,
            "durationTicks": 60,
            "midi": 75,
            "name": "D#5",
            "ticks": 62400,
            "time": 239.99975999999995,
            "velocity": 0.6299212598425197
          },
          {
            "duration": 0.23076900000000933,
            "durationTicks": 60,
            "midi": 79,
            "name": "G5",
            "ticks": 62400,
            "time": 239.99975999999995,
            "velocity": 0.6299212598425197
          },
          {
            "duration": 0.23076900000000933,
            "durationTicks": 60,
            "midi": 70,
            "name": "A#4",
            "ticks": 62400,
            "time": 239.99975999999995,
            "velocity": 0.6299212598425197
          },
          {
            "duration": 0.23076900000000933,
            "durationTicks": 60,
            "midi": 75,
            "name": "D#5",
            "ticks": 62490,
            "time": 240.34591349999997,
            "velocity": 0.6299212598425197
          },
          {
            "duration": 0.23076900000000933,
            "durationTicks": 60,
            "midi": 79,
            "name": "G5",
            "ticks": 62490,
            "time": 240.34591349999997,
            "velocity": 0.6299212598425197
          },
          {
            "duration": 0.23076900000000933,
            "durationTicks": 60,
            "midi": 70,
            "name": "A#4",
            "ticks": 62490,
            "time": 240.34591349999997,
            "velocity": 0.6299212598425197
          },
          {
            "duration": 0.23076900000000933,
            "durationTicks": 60,
            "midi": 73,
            "name": "C#5",
            "ticks": 62580,
            "time": 240.69206699999995,
            "velocity": 0.6299212598425197
          },
          {
            "duration": 0.23076900000000933,
            "durationTicks": 60,
            "midi": 77,
            "name": "F5",
            "ticks": 62580,
            "time": 240.69206699999995,
            "velocity": 0.6299212598425197
          },
          {
            "duration": 0.23076900000000933,
            "durationTicks": 60,
            "midi": 68,
            "name": "G#4",
            "ticks": 62580,
            "time": 240.69206699999995,
            "velocity": 0.6299212598425197
          },
          {
            "duration": 0.2307689999999809,
            "durationTicks": 60,
            "midi": 77,
            "name": "F5",
            "ticks": 62700,
            "time": 241.15360499999997,
            "velocity": 0.6299212598425197
          },
          {
            "duration": 0.2307689999999809,
            "durationTicks": 60,
            "midi": 73,
            "name": "C#5",
            "ticks": 62700,
            "time": 241.15360499999997,
            "velocity": 0.6299212598425197
          },
          {
            "duration": 0.2307689999999809,
            "durationTicks": 60,
            "midi": 68,
            "name": "G#4",
            "ticks": 62700,
            "time": 241.15360499999997,
            "velocity": 0.6299212598425197
          },
          {
            "duration": 0.23076900000000933,
            "durationTicks": 60,
            "midi": 77,
            "name": "F5",
            "ticks": 62790,
            "time": 241.49975849999996,
            "velocity": 0.6299212598425197
          },
          {
            "duration": 0.23076900000000933,
            "durationTicks": 60,
            "midi": 73,
            "name": "C#5",
            "ticks": 62790,
            "time": 241.49975849999996,
            "velocity": 0.6299212598425197
          },
          {
            "duration": 0.23076900000000933,
            "durationTicks": 60,
            "midi": 68,
            "name": "G#4",
            "ticks": 62790,
            "time": 241.49975849999996,
            "velocity": 0.6299212598425197
          },
          {
            "duration": 0.2307689999999809,
            "durationTicks": 60,
            "midi": 77,
            "name": "F5",
            "ticks": 62880,
            "time": 241.84591199999997,
            "velocity": 0.6299212598425197
          },
          {
            "duration": 0.2307689999999809,
            "durationTicks": 60,
            "midi": 80,
            "name": "G#5",
            "ticks": 62880,
            "time": 241.84591199999997,
            "velocity": 0.6299212598425197
          },
          {
            "duration": 0.2307689999999809,
            "durationTicks": 60,
            "midi": 72,
            "name": "C5",
            "ticks": 62880,
            "time": 241.84591199999997,
            "velocity": 0.6299212598425197
          },
          {
            "duration": 0.23076900000000933,
            "durationTicks": 60,
            "midi": 77,
            "name": "F5",
            "ticks": 62970,
            "time": 242.19206549999996,
            "velocity": 0.6299212598425197
          },
          {
            "duration": 0.23076900000000933,
            "durationTicks": 60,
            "midi": 80,
            "name": "G#5",
            "ticks": 62970,
            "time": 242.19206549999996,
            "velocity": 0.6299212598425197
          },
          {
            "duration": 0.23076900000000933,
            "durationTicks": 60,
            "midi": 72,
            "name": "C5",
            "ticks": 62970,
            "time": 242.19206549999996,
            "velocity": 0.6299212598425197
          },
          {
            "duration": 0.2307689999999809,
            "durationTicks": 60,
            "midi": 77,
            "name": "F5",
            "ticks": 63060,
            "time": 242.53821899999997,
            "velocity": 0.6299212598425197
          },
          {
            "duration": 0.2307689999999809,
            "durationTicks": 60,
            "midi": 80,
            "name": "G#5",
            "ticks": 63060,
            "time": 242.53821899999997,
            "velocity": 0.6299212598425197
          },
          {
            "duration": 0.2307689999999809,
            "durationTicks": 60,
            "midi": 72,
            "name": "C5",
            "ticks": 63060,
            "time": 242.53821899999997,
            "velocity": 0.6299212598425197
          },
          {
            "duration": 0.23076900000000933,
            "durationTicks": 60,
            "midi": 77,
            "name": "F5",
            "ticks": 63180,
            "time": 242.99975699999996,
            "velocity": 0.6299212598425197
          },
          {
            "duration": 0.23076900000000933,
            "durationTicks": 60,
            "midi": 80,
            "name": "G#5",
            "ticks": 63180,
            "time": 242.99975699999996,
            "velocity": 0.6299212598425197
          },
          {
            "duration": 0.23076900000000933,
            "durationTicks": 60,
            "midi": 72,
            "name": "C5",
            "ticks": 63180,
            "time": 242.99975699999996,
            "velocity": 0.6299212598425197
          },
          {
            "duration": 0.2307689999999809,
            "durationTicks": 60,
            "midi": 77,
            "name": "F5",
            "ticks": 63270,
            "time": 243.34591049999997,
            "velocity": 0.6299212598425197
          },
          {
            "duration": 0.2307689999999809,
            "durationTicks": 60,
            "midi": 80,
            "name": "G#5",
            "ticks": 63270,
            "time": 243.34591049999997,
            "velocity": 0.6299212598425197
          },
          {
            "duration": 0.2307689999999809,
            "durationTicks": 60,
            "midi": 72,
            "name": "C5",
            "ticks": 63270,
            "time": 243.34591049999997,
            "velocity": 0.6299212598425197
          },
          {
            "duration": 0.23076900000000933,
            "durationTicks": 60,
            "midi": 79,
            "name": "G5",
            "ticks": 63360,
            "time": 243.69206399999996,
            "velocity": 0.6299212598425197
          },
          {
            "duration": 0.23076900000000933,
            "durationTicks": 60,
            "midi": 75,
            "name": "D#5",
            "ticks": 63360,
            "time": 243.69206399999996,
            "velocity": 0.6299212598425197
          },
          {
            "duration": 0.23076900000000933,
            "durationTicks": 60,
            "midi": 70,
            "name": "A#4",
            "ticks": 63360,
            "time": 243.69206399999996,
            "velocity": 0.6299212598425197
          },
          {
            "duration": 0.2307689999999809,
            "durationTicks": 60,
            "midi": 70,
            "name": "A#4",
            "ticks": 63450,
            "time": 244.03821749999997,
            "velocity": 0.6299212598425197
          },
          {
            "duration": 0.2307689999999809,
            "durationTicks": 60,
            "midi": 79,
            "name": "G5",
            "ticks": 63450,
            "time": 244.03821749999997,
            "velocity": 0.6299212598425197
          },
          {
            "duration": 0.2307689999999809,
            "durationTicks": 60,
            "midi": 75,
            "name": "D#5",
            "ticks": 63450,
            "time": 244.03821749999997,
            "velocity": 0.6299212598425197
          },
          {
            "duration": 0.23076900000000933,
            "durationTicks": 60,
            "midi": 73,
            "name": "C#5",
            "ticks": 63540,
            "time": 244.38437099999996,
            "velocity": 0.6299212598425197
          },
          {
            "duration": 0.23076900000000933,
            "durationTicks": 60,
            "midi": 77,
            "name": "F5",
            "ticks": 63540,
            "time": 244.38437099999996,
            "velocity": 0.6299212598425197
          },
          {
            "duration": 0.23076900000000933,
            "durationTicks": 60,
            "midi": 80,
            "name": "G#5",
            "ticks": 63540,
            "time": 244.38437099999996,
            "velocity": 0.6299212598425197
          },
          {
            "duration": 0.23076900000000933,
            "durationTicks": 60,
            "midi": 68,
            "name": "G#4",
            "ticks": 63540,
            "time": 244.38437099999996,
            "velocity": 0.6299212598425197
          },
          {
            "duration": 0.23076900000000933,
            "durationTicks": 60,
            "midi": 68,
            "name": "G#4",
            "ticks": 63660,
            "time": 244.84590899999995,
            "velocity": 0.6299212598425197
          },
          {
            "duration": 0.23076900000000933,
            "durationTicks": 60,
            "midi": 77,
            "name": "F5",
            "ticks": 63660,
            "time": 244.84590899999995,
            "velocity": 0.6299212598425197
          },
          {
            "duration": 0.23076900000000933,
            "durationTicks": 60,
            "midi": 73,
            "name": "C#5",
            "ticks": 63660,
            "time": 244.84590899999995,
            "velocity": 0.6299212598425197
          },
          {
            "duration": 0.23076900000000933,
            "durationTicks": 60,
            "midi": 80,
            "name": "G#5",
            "ticks": 63660,
            "time": 244.84590899999995,
            "velocity": 0.6299212598425197
          },
          {
            "duration": 0.23076900000000933,
            "durationTicks": 60,
            "midi": 77,
            "name": "F5",
            "ticks": 63750,
            "time": 245.19206249999996,
            "velocity": 0.6299212598425197
          },
          {
            "duration": 0.23076900000000933,
            "durationTicks": 60,
            "midi": 68,
            "name": "G#4",
            "ticks": 63750,
            "time": 245.19206249999996,
            "velocity": 0.6299212598425197
          },
          {
            "duration": 0.23076900000000933,
            "durationTicks": 60,
            "midi": 80,
            "name": "G#5",
            "ticks": 63750,
            "time": 245.19206249999996,
            "velocity": 0.6299212598425197
          },
          {
            "duration": 0.23076900000000933,
            "durationTicks": 60,
            "midi": 73,
            "name": "C#5",
            "ticks": 63750,
            "time": 245.19206249999996,
            "velocity": 0.6299212598425197
          },
          {
            "duration": 0.04230764999999792,
            "durationTicks": 11,
            "midi": 77,
            "name": "F5",
            "ticks": 67200,
            "time": 258.46128,
            "velocity": 0.6299212598425197
          },
          {
            "duration": 0.030769200000008823,
            "durationTicks": 8,
            "midi": 65,
            "name": "F4",
            "ticks": 67200,
            "time": 258.46128,
            "velocity": 0.6299212598425197
          },
          {
            "duration": 0.06538454999997612,
            "durationTicks": 17,
            "midi": 53,
            "name": "F3",
            "ticks": 67200,
            "time": 258.46128,
            "velocity": 0.6299212598425197
          },
          {
            "duration": 0.07692299999996521,
            "durationTicks": 20,
            "midi": 65,
            "name": "F4",
            "ticks": 67260,
            "time": 258.692049,
            "velocity": 0.6299212598425197
          },
          {
            "duration": 0.084615299999939,
            "durationTicks": 22,
            "midi": 77,
            "name": "F5",
            "ticks": 67260,
            "time": 258.692049,
            "velocity": 0.6299212598425197
          },
          {
            "duration": 0.09615374999998494,
            "durationTicks": 25,
            "midi": 53,
            "name": "F3",
            "ticks": 67260,
            "time": 258.692049,
            "velocity": 0.6299212598425197
          },
          {
            "duration": 0.06923069999999143,
            "durationTicks": 18,
            "midi": 65,
            "name": "F4",
            "ticks": 67320,
            "time": 258.922818,
            "velocity": 0.6299212598425197
          },
          {
            "duration": 0.07692299999996521,
            "durationTicks": 20,
            "midi": 77,
            "name": "F5",
            "ticks": 67320,
            "time": 258.922818,
            "velocity": 0.6299212598425197
          },
          {
            "duration": 0.07692299999996521,
            "durationTicks": 20,
            "midi": 53,
            "name": "F3",
            "ticks": 67320,
            "time": 258.922818,
            "velocity": 0.6299212598425197
          },
          {
            "duration": 0.10769219999997404,
            "durationTicks": 28,
            "midi": 77,
            "name": "F5",
            "ticks": 67350,
            "time": 259.0382025,
            "velocity": 0.6299212598425197
          },
          {
            "duration": 0.06923069999999143,
            "durationTicks": 18,
            "midi": 65,
            "name": "F4",
            "ticks": 67350,
            "time": 259.0382025,
            "velocity": 0.6299212598425197
          },
          {
            "duration": 0.084615299999939,
            "durationTicks": 22,
            "midi": 53,
            "name": "F3",
            "ticks": 67350,
            "time": 259.0382025,
            "velocity": 0.6299212598425197
          },
          {
            "duration": 0.10769220000003088,
            "durationTicks": 28,
            "midi": 77,
            "name": "F5",
            "ticks": 67410,
            "time": 259.26897149999996,
            "velocity": 0.6299212598425197
          },
          {
            "duration": 0.08076914999998053,
            "durationTicks": 21,
            "midi": 65,
            "name": "F4",
            "ticks": 67410,
            "time": 259.26897149999996,
            "velocity": 0.6299212598425197
          },
          {
            "duration": 0.1115383500000462,
            "durationTicks": 29,
            "midi": 53,
            "name": "F3",
            "ticks": 67410,
            "time": 259.26897149999996,
            "velocity": 0.6299212598425197
          }
        ]
      },
      {
        "channel": 1,
        "controlChanges": {
          "7": [
            {
              "number": 7,
              "ticks": 0,
              "time": 0,
              "value": 0.9448818897637795
            }
          ],
          "91": [
            {
              "number": 91,
              "ticks": 483,
              "time": 1.8576904499999998,
              "value": 0.09448818897637795
            }
          ]
        },
        "pitchBends": [],
        "instrument": {
          "family": "bass",
          "name": "electric bass (finger)",
          "number": 33
        },
        "name": "Finger bass",
        "notes": [
          {
            "duration": 0.1961536499999994,
            "durationTicks": 51,
            "midi": 29,
            "name": "F1",
            "ticks": 4320,
            "time": 16.615367999999997,
            "velocity": 0.8110236220472441
          },
          {
            "duration": 0.21538440000000136,
            "durationTicks": 56,
            "midi": 29,
            "name": "F1",
            "ticks": 4410,
            "time": 16.961521499999996,
            "velocity": 0.8031496062992126
          },
          {
            "duration": 0.27692280000000125,
            "durationTicks": 72,
            "midi": 29,
            "name": "F1",
            "ticks": 4500,
            "time": 17.307674999999996,
            "velocity": 0.8031496062992126
          },
          {
            "duration": 0.30384585000000186,
            "durationTicks": 79,
            "midi": 29,
            "name": "F1",
            "ticks": 4620,
            "time": 17.769212999999997,
            "velocity": 0.8110236220472441
          },
          {
            "duration": 0.16923060000000234,
            "durationTicks": 44,
            "midi": 29,
            "name": "F1",
            "ticks": 4710,
            "time": 18.115366499999997,
            "velocity": 0.7716535433070866
          },
          {
            "duration": 0.23461514999999977,
            "durationTicks": 61,
            "midi": 27,
            "name": "D#1",
            "ticks": 4800,
            "time": 18.461519999999997,
            "velocity": 0.7637795275590551
          },
          {
            "duration": 0.24615359999999953,
            "durationTicks": 64,
            "midi": 27,
            "name": "D#1",
            "ticks": 4890,
            "time": 18.807673499999996,
            "velocity": 0.8267716535433071
          },
          {
            "duration": 0.2999996999999972,
            "durationTicks": 78,
            "midi": 25,
            "name": "C#1",
            "ticks": 4980,
            "time": 19.153827,
            "velocity": 0.8267716535433071
          },
          {
            "duration": 0.28076895000000235,
            "durationTicks": 73,
            "midi": 25,
            "name": "C#1",
            "ticks": 5100,
            "time": 19.615364999999997,
            "velocity": 0.8346456692913385
          },
          {
            "duration": 0.1730767499999999,
            "durationTicks": 45,
            "midi": 25,
            "name": "C#1",
            "ticks": 5190,
            "time": 19.961518499999997,
            "velocity": 0.8582677165354331
          },
          {
            "duration": 0.1961536499999994,
            "durationTicks": 51,
            "midi": 29,
            "name": "F1",
            "ticks": 5280,
            "time": 20.307671999999997,
            "velocity": 0.8110236220472441
          },
          {
            "duration": 0.21538440000000136,
            "durationTicks": 56,
            "midi": 29,
            "name": "F1",
            "ticks": 5370,
            "time": 20.653825499999996,
            "velocity": 0.8031496062992126
          },
          {
            "duration": 0.27692280000000125,
            "durationTicks": 72,
            "midi": 29,
            "name": "F1",
            "ticks": 5460,
            "time": 20.999978999999996,
            "velocity": 0.8031496062992126
          },
          {
            "duration": 0.3038458499999983,
            "durationTicks": 79,
            "midi": 29,
            "name": "F1",
            "ticks": 5580,
            "time": 21.461516999999997,
            "velocity": 0.8110236220472441
          },
          {
            "duration": 0.16923060000000234,
            "durationTicks": 44,
            "midi": 29,
            "name": "F1",
            "ticks": 5670,
            "time": 21.807670499999997,
            "velocity": 0.7716535433070866
          },
          {
            "duration": 0.23461514999999977,
            "durationTicks": 61,
            "midi": 27,
            "name": "D#1",
            "ticks": 5760,
            "time": 22.153823999999997,
            "velocity": 0.7637795275590551
          },
          {
            "duration": 0.24615359999999953,
            "durationTicks": 64,
            "midi": 27,
            "name": "D#1",
            "ticks": 5850,
            "time": 22.499977499999996,
            "velocity": 0.8267716535433071
          },
          {
            "duration": 0.29999970000000076,
            "durationTicks": 78,
            "midi": 25,
            "name": "C#1",
            "ticks": 5940,
            "time": 22.846130999999996,
            "velocity": 0.8267716535433071
          },
          {
            "duration": 0.28076895000000235,
            "durationTicks": 73,
            "midi": 25,
            "name": "C#1",
            "ticks": 6060,
            "time": 23.307668999999997,
            "velocity": 0.8346456692913385
          },
          {
            "duration": 0.1730767499999999,
            "durationTicks": 45,
            "midi": 25,
            "name": "C#1",
            "ticks": 6150,
            "time": 23.653822499999997,
            "velocity": 0.8582677165354331
          },
          {
            "duration": 0.1961536499999994,
            "durationTicks": 51,
            "midi": 29,
            "name": "F1",
            "ticks": 6240,
            "time": 23.999975999999997,
            "velocity": 0.8110236220472441
          },
          {
            "duration": 0.21538440000000136,
            "durationTicks": 56,
            "midi": 29,
            "name": "F1",
            "ticks": 6330,
            "time": 24.346129499999996,
            "velocity": 0.8031496062992126
          },
          {
            "duration": 0.27692280000000125,
            "durationTicks": 72,
            "midi": 29,
            "name": "F1",
            "ticks": 6420,
            "time": 24.692282999999996,
            "velocity": 0.8031496062992126
          },
          {
            "duration": 0.3038458499999983,
            "durationTicks": 79,
            "midi": 29,
            "name": "F1",
            "ticks": 6540,
            "time": 25.153820999999997,
            "velocity": 0.8110236220472441
          },
          {
            "duration": 0.16923060000000234,
            "durationTicks": 44,
            "midi": 29,
            "name": "F1",
            "ticks": 6630,
            "time": 25.499974499999997,
            "velocity": 0.7716535433070866
          },
          {
            "duration": 0.23461514999999977,
            "durationTicks": 61,
            "midi": 27,
            "name": "D#1",
            "ticks": 6720,
            "time": 25.846127999999997,
            "velocity": 0.7637795275590551
          },
          {
            "duration": 0.24615359999999953,
            "durationTicks": 64,
            "midi": 27,
            "name": "D#1",
            "ticks": 6810,
            "time": 26.192281499999996,
            "velocity": 0.8267716535433071
          },
          {
            "duration": 0.29999970000000076,
            "durationTicks": 78,
            "midi": 25,
            "name": "C#1",
            "ticks": 6900,
            "time": 26.538434999999996,
            "velocity": 0.8267716535433071
          },
          {
            "duration": 0.2807689499999988,
            "durationTicks": 73,
            "midi": 25,
            "name": "C#1",
            "ticks": 7020,
            "time": 26.999972999999997,
            "velocity": 0.8346456692913385
          },
          {
            "duration": 0.1730767499999999,
            "durationTicks": 45,
            "midi": 25,
            "name": "C#1",
            "ticks": 7110,
            "time": 27.346126499999997,
            "velocity": 0.8582677165354331
          },
          {
            "duration": 0.1961536499999994,
            "durationTicks": 51,
            "midi": 29,
            "name": "F1",
            "ticks": 7200,
            "time": 27.692279999999997,
            "velocity": 0.8110236220472441
          },
          {
            "duration": 0.21538440000000136,
            "durationTicks": 56,
            "midi": 29,
            "name": "F1",
            "ticks": 7290,
            "time": 28.038433499999996,
            "velocity": 0.8031496062992126
          },
          {
            "duration": 0.27692280000000125,
            "durationTicks": 72,
            "midi": 29,
            "name": "F1",
            "ticks": 7380,
            "time": 28.384586999999996,
            "velocity": 0.8031496062992126
          },
          {
            "duration": 0.3038458499999983,
            "durationTicks": 79,
            "midi": 29,
            "name": "F1",
            "ticks": 7500,
            "time": 28.846124999999997,
            "velocity": 0.8110236220472441
          },
          {
            "duration": 0.1692305999999988,
            "durationTicks": 44,
            "midi": 29,
            "name": "F1",
            "ticks": 7590,
            "time": 29.192278499999997,
            "velocity": 0.7716535433070866
          },
          {
            "duration": 0.23461514999999977,
            "durationTicks": 61,
            "midi": 27,
            "name": "D#1",
            "ticks": 7680,
            "time": 29.538431999999997,
            "velocity": 0.7637795275590551
          },
          {
            "duration": 0.24615359999999953,
            "durationTicks": 64,
            "midi": 27,
            "name": "D#1",
            "ticks": 7770,
            "time": 29.884585499999996,
            "velocity": 0.8267716535433071
          },
          {
            "duration": 0.29999970000000076,
            "durationTicks": 78,
            "midi": 25,
            "name": "C#1",
            "ticks": 7860,
            "time": 30.230738999999996,
            "velocity": 0.8267716535433071
          },
          {
            "duration": 0.2807689499999988,
            "durationTicks": 73,
            "midi": 25,
            "name": "C#1",
            "ticks": 7980,
            "time": 30.692276999999997,
            "velocity": 0.8346456692913385
          },
          {
            "duration": 0.1730767499999999,
            "durationTicks": 45,
            "midi": 25,
            "name": "C#1",
            "ticks": 8070,
            "time": 31.038430499999997,
            "velocity": 0.8582677165354331
          },
          {
            "duration": 0.1961536499999994,
            "durationTicks": 51,
            "midi": 29,
            "name": "F1",
            "ticks": 8160,
            "time": 31.384583999999997,
            "velocity": 0.8110236220472441
          },
          {
            "duration": 0.21538440000000136,
            "durationTicks": 56,
            "midi": 29,
            "name": "F1",
            "ticks": 8250,
            "time": 31.730737499999996,
            "velocity": 0.8031496062992126
          },
          {
            "duration": 0.27692279999999414,
            "durationTicks": 72,
            "midi": 29,
            "name": "F1",
            "ticks": 8340,
            "time": 32.076890999999996,
            "velocity": 0.8031496062992126
          },
          {
            "duration": 0.30384585000000186,
            "durationTicks": 79,
            "midi": 29,
            "name": "F1",
            "ticks": 8460,
            "time": 32.538428999999994,
            "velocity": 0.8110236220472441
          },
          {
            "duration": 0.1692305999999988,
            "durationTicks": 44,
            "midi": 29,
            "name": "F1",
            "ticks": 8550,
            "time": 32.88458249999999,
            "velocity": 0.7716535433070866
          },
          {
            "duration": 0.23461515000000333,
            "durationTicks": 61,
            "midi": 27,
            "name": "D#1",
            "ticks": 8640,
            "time": 33.23073599999999,
            "velocity": 0.7637795275590551
          },
          {
            "duration": 0.24615359999999953,
            "durationTicks": 64,
            "midi": 27,
            "name": "D#1",
            "ticks": 8730,
            "time": 33.57688949999999,
            "velocity": 0.8267716535433071
          },
          {
            "duration": 0.29999970000000076,
            "durationTicks": 78,
            "midi": 25,
            "name": "C#1",
            "ticks": 8820,
            "time": 33.92304299999999,
            "velocity": 0.8267716535433071
          },
          {
            "duration": 0.28076895000000235,
            "durationTicks": 73,
            "midi": 25,
            "name": "C#1",
            "ticks": 8940,
            "time": 34.38458099999999,
            "velocity": 0.8346456692913385
          },
          {
            "duration": 0.1730767499999999,
            "durationTicks": 45,
            "midi": 25,
            "name": "C#1",
            "ticks": 9030,
            "time": 34.73073449999999,
            "velocity": 0.8582677165354331
          },
          {
            "duration": 0.1961536499999994,
            "durationTicks": 51,
            "midi": 29,
            "name": "F1",
            "ticks": 9120,
            "time": 35.07688799999999,
            "velocity": 0.8110236220472441
          },
          {
            "duration": 0.21538440000000492,
            "durationTicks": 56,
            "midi": 29,
            "name": "F1",
            "ticks": 9210,
            "time": 35.42304149999999,
            "velocity": 0.8031496062992126
          },
          {
            "duration": 0.27692280000000125,
            "durationTicks": 72,
            "midi": 29,
            "name": "F1",
            "ticks": 9300,
            "time": 35.76919499999999,
            "velocity": 0.8031496062992126
          },
          {
            "duration": 0.30384584999999475,
            "durationTicks": 79,
            "midi": 29,
            "name": "F1",
            "ticks": 9420,
            "time": 36.230732999999994,
            "velocity": 0.8110236220472441
          },
          {
            "duration": 0.1692305999999988,
            "durationTicks": 44,
            "midi": 29,
            "name": "F1",
            "ticks": 9510,
            "time": 36.57688649999999,
            "velocity": 0.7716535433070866
          },
          {
            "duration": 0.23461515000000333,
            "durationTicks": 61,
            "midi": 27,
            "name": "D#1",
            "ticks": 9600,
            "time": 36.92303999999999,
            "velocity": 0.7637795275590551
          },
          {
            "duration": 0.24615359999999953,
            "durationTicks": 64,
            "midi": 27,
            "name": "D#1",
            "ticks": 9690,
            "time": 37.26919349999999,
            "velocity": 0.8267716535433071
          },
          {
            "duration": 0.29999970000000076,
            "durationTicks": 78,
            "midi": 25,
            "name": "C#1",
            "ticks": 9780,
            "time": 37.61534699999999,
            "velocity": 0.8267716535433071
          },
          {
            "duration": 0.28076895000000235,
            "durationTicks": 73,
            "midi": 25,
            "name": "C#1",
            "ticks": 9900,
            "time": 38.07688499999999,
            "velocity": 0.8346456692913385
          },
          {
            "duration": 0.1730767499999999,
            "durationTicks": 45,
            "midi": 25,
            "name": "C#1",
            "ticks": 9990,
            "time": 38.42303849999999,
            "velocity": 0.8582677165354331
          },
          {
            "duration": 0.1961536499999994,
            "durationTicks": 51,
            "midi": 29,
            "name": "F1",
            "ticks": 10080,
            "time": 38.76919199999999,
            "velocity": 0.8110236220472441
          },
          {
            "duration": 0.21538440000000492,
            "durationTicks": 56,
            "midi": 29,
            "name": "F1",
            "ticks": 10170,
            "time": 39.11534549999999,
            "velocity": 0.8031496062992126
          },
          {
            "duration": 0.27692280000000125,
            "durationTicks": 72,
            "midi": 29,
            "name": "F1",
            "ticks": 10260,
            "time": 39.46149899999999,
            "velocity": 0.8031496062992126
          },
          {
            "duration": 0.30384584999999475,
            "durationTicks": 79,
            "midi": 29,
            "name": "F1",
            "ticks": 10380,
            "time": 39.923036999999994,
            "velocity": 0.8110236220472441
          },
          {
            "duration": 0.1692305999999988,
            "durationTicks": 44,
            "midi": 29,
            "name": "F1",
            "ticks": 10470,
            "time": 40.26919049999999,
            "velocity": 0.7716535433070866
          },
          {
            "duration": 0.23461515000000333,
            "durationTicks": 61,
            "midi": 27,
            "name": "D#1",
            "ticks": 10560,
            "time": 40.61534399999999,
            "velocity": 0.7637795275590551
          },
          {
            "duration": 0.24615359999999953,
            "durationTicks": 64,
            "midi": 27,
            "name": "D#1",
            "ticks": 10650,
            "time": 40.96149749999999,
            "velocity": 0.8267716535433071
          },
          {
            "duration": 0.29999970000000076,
            "durationTicks": 78,
            "midi": 25,
            "name": "C#1",
            "ticks": 10740,
            "time": 41.30765099999999,
            "velocity": 0.8267716535433071
          },
          {
            "duration": 0.28076895000000235,
            "durationTicks": 73,
            "midi": 25,
            "name": "C#1",
            "ticks": 10860,
            "time": 41.76918899999999,
            "velocity": 0.8346456692913385
          },
          {
            "duration": 0.1730767499999999,
            "durationTicks": 45,
            "midi": 25,
            "name": "C#1",
            "ticks": 10950,
            "time": 42.11534249999999,
            "velocity": 0.8582677165354331
          },
          {
            "duration": 0.1961536499999994,
            "durationTicks": 51,
            "midi": 29,
            "name": "F1",
            "ticks": 11040,
            "time": 42.46149599999999,
            "velocity": 0.8110236220472441
          },
          {
            "duration": 0.21538440000000492,
            "durationTicks": 56,
            "midi": 29,
            "name": "F1",
            "ticks": 11130,
            "time": 42.80764949999999,
            "velocity": 0.8031496062992126
          },
          {
            "duration": 0.27692280000000125,
            "durationTicks": 72,
            "midi": 29,
            "name": "F1",
            "ticks": 11220,
            "time": 43.15380299999999,
            "velocity": 0.8031496062992126
          },
          {
            "duration": 0.30384584999999475,
            "durationTicks": 79,
            "midi": 29,
            "name": "F1",
            "ticks": 11340,
            "time": 43.615340999999994,
            "velocity": 0.8110236220472441
          },
          {
            "duration": 0.1961536499999994,
            "durationTicks": 51,
            "midi": 29,
            "name": "F1",
            "ticks": 12000,
            "time": 46.15379999999999,
            "velocity": 0.8110236220472441
          },
          {
            "duration": 0.21538440000000492,
            "durationTicks": 56,
            "midi": 29,
            "name": "F1",
            "ticks": 12090,
            "time": 46.49995349999999,
            "velocity": 0.8031496062992126
          },
          {
            "duration": 0.27692280000000125,
            "durationTicks": 72,
            "midi": 29,
            "name": "F1",
            "ticks": 12180,
            "time": 46.84610699999999,
            "velocity": 0.8031496062992126
          },
          {
            "duration": 0.30384584999999475,
            "durationTicks": 79,
            "midi": 29,
            "name": "F1",
            "ticks": 12300,
            "time": 47.307644999999994,
            "velocity": 0.8110236220472441
          },
          {
            "duration": 0.16923059999999168,
            "durationTicks": 44,
            "midi": 29,
            "name": "F1",
            "ticks": 12390,
            "time": 47.65379849999999,
            "velocity": 0.7716535433070866
          },
          {
            "duration": 0.23461515000000333,
            "durationTicks": 61,
            "midi": 27,
            "name": "D#1",
            "ticks": 12480,
            "time": 47.99995199999999,
            "velocity": 0.7637795275590551
          },
          {
            "duration": 0.24615359999999953,
            "durationTicks": 64,
            "midi": 27,
            "name": "D#1",
            "ticks": 12570,
            "time": 48.34610549999999,
            "velocity": 0.8267716535433071
          },
          {
            "duration": 0.29999970000000076,
            "durationTicks": 78,
            "midi": 25,
            "name": "C#1",
            "ticks": 12660,
            "time": 48.69225899999999,
            "velocity": 0.8267716535433071
          },
          {
            "duration": 0.28076895000000235,
            "durationTicks": 73,
            "midi": 25,
            "name": "C#1",
            "ticks": 12780,
            "time": 49.15379699999999,
            "velocity": 0.8346456692913385
          },
          {
            "duration": 0.1730767499999999,
            "durationTicks": 45,
            "midi": 25,
            "name": "C#1",
            "ticks": 12870,
            "time": 49.49995049999999,
            "velocity": 0.8582677165354331
          },
          {
            "duration": 0.1961536499999994,
            "durationTicks": 51,
            "midi": 29,
            "name": "F1",
            "ticks": 12960,
            "time": 49.84610399999999,
            "velocity": 0.8110236220472441
          },
          {
            "duration": 0.21538440000000492,
            "durationTicks": 56,
            "midi": 29,
            "name": "F1",
            "ticks": 13050,
            "time": 50.19225749999999,
            "velocity": 0.8031496062992126
          },
          {
            "duration": 0.27692280000000125,
            "durationTicks": 72,
            "midi": 29,
            "name": "F1",
            "ticks": 13140,
            "time": 50.53841099999999,
            "velocity": 0.8031496062992126
          },
          {
            "duration": 0.30384584999999475,
            "durationTicks": 79,
            "midi": 29,
            "name": "F1",
            "ticks": 13260,
            "time": 50.999948999999994,
            "velocity": 0.8110236220472441
          },
          {
            "duration": 0.16923059999999168,
            "durationTicks": 44,
            "midi": 29,
            "name": "F1",
            "ticks": 13350,
            "time": 51.34610249999999,
            "velocity": 0.7716535433070866
          },
          {
            "duration": 0.23461515000000333,
            "durationTicks": 61,
            "midi": 27,
            "name": "D#1",
            "ticks": 13440,
            "time": 51.69225599999999,
            "velocity": 0.7637795275590551
          },
          {
            "duration": 0.24615359999999953,
            "durationTicks": 64,
            "midi": 27,
            "name": "D#1",
            "ticks": 13530,
            "time": 52.03840949999999,
            "velocity": 0.8267716535433071
          },
          {
            "duration": 0.29999970000000076,
            "durationTicks": 78,
            "midi": 25,
            "name": "C#1",
            "ticks": 13620,
            "time": 52.38456299999999,
            "velocity": 0.8267716535433071
          },
          {
            "duration": 0.28076895000000235,
            "durationTicks": 73,
            "midi": 25,
            "name": "C#1",
            "ticks": 13740,
            "time": 52.84610099999999,
            "velocity": 0.8346456692913385
          },
          {
            "duration": 0.1730767499999999,
            "durationTicks": 45,
            "midi": 25,
            "name": "C#1",
            "ticks": 13830,
            "time": 53.19225449999999,
            "velocity": 0.8582677165354331
          },
          {
            "duration": 0.1961536499999994,
            "durationTicks": 51,
            "midi": 29,
            "name": "F1",
            "ticks": 13920,
            "time": 53.53840799999999,
            "velocity": 0.8110236220472441
          },
          {
            "duration": 0.21538440000000492,
            "durationTicks": 56,
            "midi": 29,
            "name": "F1",
            "ticks": 14010,
            "time": 53.88456149999999,
            "velocity": 0.8031496062992126
          },
          {
            "duration": 0.27692280000000125,
            "durationTicks": 72,
            "midi": 29,
            "name": "F1",
            "ticks": 14100,
            "time": 54.23071499999999,
            "velocity": 0.8031496062992126
          },
          {
            "duration": 0.30384584999999475,
            "durationTicks": 79,
            "midi": 29,
            "name": "F1",
            "ticks": 14220,
            "time": 54.692252999999994,
            "velocity": 0.8110236220472441
          },
          {
            "duration": 0.16923059999999168,
            "durationTicks": 44,
            "midi": 29,
            "name": "F1",
            "ticks": 14310,
            "time": 55.038406499999994,
            "velocity": 0.7716535433070866
          },
          {
            "duration": 0.23461515000000333,
            "durationTicks": 61,
            "midi": 27,
            "name": "D#1",
            "ticks": 14400,
            "time": 55.38455999999999,
            "velocity": 0.7637795275590551
          },
          {
            "duration": 0.24615359999999953,
            "durationTicks": 64,
            "midi": 27,
            "name": "D#1",
            "ticks": 14490,
            "time": 55.73071349999999,
            "velocity": 0.8267716535433071
          },
          {
            "duration": 0.29999970000000076,
            "durationTicks": 78,
            "midi": 25,
            "name": "C#1",
            "ticks": 14580,
            "time": 56.07686699999999,
            "velocity": 0.8267716535433071
          },
          {
            "duration": 0.28076895000000235,
            "durationTicks": 73,
            "midi": 25,
            "name": "C#1",
            "ticks": 14700,
            "time": 56.53840499999999,
            "velocity": 0.8346456692913385
          },
          {
            "duration": 0.1730767499999999,
            "durationTicks": 45,
            "midi": 25,
            "name": "C#1",
            "ticks": 14790,
            "time": 56.88455849999999,
            "velocity": 0.8582677165354331
          },
          {
            "duration": 0.1961536499999994,
            "durationTicks": 51,
            "midi": 29,
            "name": "F1",
            "ticks": 14880,
            "time": 57.23071199999999,
            "velocity": 0.8110236220472441
          },
          {
            "duration": 0.21538440000000492,
            "durationTicks": 56,
            "midi": 29,
            "name": "F1",
            "ticks": 14970,
            "time": 57.57686549999999,
            "velocity": 0.8031496062992126
          },
          {
            "duration": 0.27692280000000125,
            "durationTicks": 72,
            "midi": 29,
            "name": "F1",
            "ticks": 15060,
            "time": 57.92301899999999,
            "velocity": 0.8031496062992126
          },
          {
            "duration": 0.30384585000000186,
            "durationTicks": 79,
            "midi": 29,
            "name": "F1",
            "ticks": 15180,
            "time": 58.38455699999999,
            "velocity": 0.8110236220472441
          },
          {
            "duration": 0.1923074999999983,
            "durationTicks": 50,
            "midi": 29,
            "name": "F1",
            "ticks": 15840,
            "time": 60.92301599999999,
            "velocity": 0.5354330708661418
          },
          {
            "duration": 0.1923074999999912,
            "durationTicks": 50,
            "midi": 29,
            "name": "F1",
            "ticks": 15900,
            "time": 61.15378499999999,
            "velocity": 0.5039370078740157
          },
          {
            "duration": 0.1923074999999983,
            "durationTicks": 50,
            "midi": 29,
            "name": "F1",
            "ticks": 15960,
            "time": 61.38455399999999,
            "velocity": 0.49606299212598426
          },
          {
            "duration": 0.1923074999999983,
            "durationTicks": 50,
            "midi": 29,
            "name": "F1",
            "ticks": 16020,
            "time": 61.61532299999999,
            "velocity": 0.5039370078740157
          },
          {
            "duration": 0.1923074999999912,
            "durationTicks": 50,
            "midi": 29,
            "name": "F1",
            "ticks": 16080,
            "time": 61.84609199999999,
            "velocity": 0.5275590551181102
          },
          {
            "duration": 0.1923074999999983,
            "durationTicks": 50,
            "midi": 29,
            "name": "F1",
            "ticks": 16140,
            "time": 62.07686099999999,
            "velocity": 0.5039370078740157
          },
          {
            "duration": 0.1923074999999983,
            "durationTicks": 50,
            "midi": 29,
            "name": "F1",
            "ticks": 16200,
            "time": 62.30762999999999,
            "velocity": 0.5039370078740157
          },
          {
            "duration": 0.1923074999999912,
            "durationTicks": 50,
            "midi": 29,
            "name": "F1",
            "ticks": 16260,
            "time": 62.53839899999999,
            "velocity": 0.5590551181102362
          },
          {
            "duration": 0.1923074999999983,
            "durationTicks": 50,
            "midi": 29,
            "name": "F1",
            "ticks": 16320,
            "time": 62.769167999999986,
            "velocity": 0.5354330708661418
          },
          {
            "duration": 0.1923074999999983,
            "durationTicks": 50,
            "midi": 29,
            "name": "F1",
            "ticks": 16380,
            "time": 62.99993699999999,
            "velocity": 0.5039370078740157
          },
          {
            "duration": 0.1923074999999912,
            "durationTicks": 50,
            "midi": 29,
            "name": "F1",
            "ticks": 16440,
            "time": 63.23070599999999,
            "velocity": 0.49606299212598426
          },
          {
            "duration": 0.1923074999999912,
            "durationTicks": 50,
            "midi": 29,
            "name": "F1",
            "ticks": 16500,
            "time": 63.46147499999999,
            "velocity": 0.5039370078740157
          },
          {
            "duration": 0.1923074999999983,
            "durationTicks": 50,
            "midi": 29,
            "name": "F1",
            "ticks": 16560,
            "time": 63.69224399999999,
            "velocity": 0.5275590551181102
          },
          {
            "duration": 0.1923075000000054,
            "durationTicks": 50,
            "midi": 29,
            "name": "F1",
            "ticks": 16620,
            "time": 63.92301299999999,
            "velocity": 0.5039370078740157
          },
          {
            "duration": 0.1923074999999983,
            "durationTicks": 50,
            "midi": 29,
            "name": "F1",
            "ticks": 16680,
            "time": 64.15378199999999,
            "velocity": 0.5039370078740157
          },
          {
            "duration": 0.1923074999999983,
            "durationTicks": 50,
            "midi": 29,
            "name": "F1",
            "ticks": 16740,
            "time": 64.38455099999999,
            "velocity": 0.5590551181102362
          },
          {
            "duration": 0.1923074999999983,
            "durationTicks": 50,
            "midi": 29,
            "name": "F1",
            "ticks": 16800,
            "time": 64.61532,
            "velocity": 0.5354330708661418
          },
          {
            "duration": 0.1923074999999983,
            "durationTicks": 50,
            "midi": 29,
            "name": "F1",
            "ticks": 16860,
            "time": 64.84608899999999,
            "velocity": 0.5039370078740157
          },
          {
            "duration": 0.1923074999999983,
            "durationTicks": 50,
            "midi": 29,
            "name": "F1",
            "ticks": 16920,
            "time": 65.07685799999999,
            "velocity": 0.49606299212598426
          },
          {
            "duration": 0.1923074999999983,
            "durationTicks": 50,
            "midi": 29,
            "name": "F1",
            "ticks": 16980,
            "time": 65.307627,
            "velocity": 0.5039370078740157
          },
          {
            "duration": 0.1923074999999983,
            "durationTicks": 50,
            "midi": 29,
            "name": "F1",
            "ticks": 17040,
            "time": 65.53839599999999,
            "velocity": 0.5275590551181102
          },
          {
            "duration": 0.1923074999999983,
            "durationTicks": 50,
            "midi": 29,
            "name": "F1",
            "ticks": 17100,
            "time": 65.76916499999999,
            "velocity": 0.5039370078740157
          },
          {
            "duration": 0.1923074999999983,
            "durationTicks": 50,
            "midi": 29,
            "name": "F1",
            "ticks": 17160,
            "time": 65.999934,
            "velocity": 0.5039370078740157
          },
          {
            "duration": 0.1923074999999983,
            "durationTicks": 50,
            "midi": 29,
            "name": "F1",
            "ticks": 17220,
            "time": 66.23070299999999,
            "velocity": 0.5590551181102362
          },
          {
            "duration": 0.1923074999999983,
            "durationTicks": 50,
            "midi": 29,
            "name": "F1",
            "ticks": 17280,
            "time": 66.461472,
            "velocity": 0.5354330708661418
          },
          {
            "duration": 0.1923074999999983,
            "durationTicks": 50,
            "midi": 29,
            "name": "F1",
            "ticks": 17340,
            "time": 66.692241,
            "velocity": 0.5039370078740157
          },
          {
            "duration": 0.1923074999999983,
            "durationTicks": 50,
            "midi": 29,
            "name": "F1",
            "ticks": 17400,
            "time": 66.92300999999999,
            "velocity": 0.49606299212598426
          },
          {
            "duration": 0.1923074999999983,
            "durationTicks": 50,
            "midi": 29,
            "name": "F1",
            "ticks": 17460,
            "time": 67.153779,
            "velocity": 0.5039370078740157
          },
          {
            "duration": 0.1923074999999983,
            "durationTicks": 50,
            "midi": 29,
            "name": "F1",
            "ticks": 17520,
            "time": 67.384548,
            "velocity": 0.5275590551181102
          },
          {
            "duration": 0.1923074999999983,
            "durationTicks": 50,
            "midi": 29,
            "name": "F1",
            "ticks": 17580,
            "time": 67.61531699999999,
            "velocity": 0.5039370078740157
          },
          {
            "duration": 0.1923074999999983,
            "durationTicks": 50,
            "midi": 29,
            "name": "F1",
            "ticks": 17640,
            "time": 67.846086,
            "velocity": 0.5039370078740157
          },
          {
            "duration": 0.1923074999999983,
            "durationTicks": 50,
            "midi": 29,
            "name": "F1",
            "ticks": 17700,
            "time": 68.076855,
            "velocity": 0.5590551181102362
          },
          {
            "duration": 0.1923074999999983,
            "durationTicks": 50,
            "midi": 29,
            "name": "F1",
            "ticks": 17760,
            "time": 68.30762399999999,
            "velocity": 0.5354330708661418
          },
          {
            "duration": 0.1923074999999983,
            "durationTicks": 50,
            "midi": 29,
            "name": "F1",
            "ticks": 17820,
            "time": 68.538393,
            "velocity": 0.5039370078740157
          },
          {
            "duration": 0.1923074999999983,
            "durationTicks": 50,
            "midi": 29,
            "name": "F1",
            "ticks": 17880,
            "time": 68.769162,
            "velocity": 0.49606299212598426
          },
          {
            "duration": 0.1923074999999983,
            "durationTicks": 50,
            "midi": 29,
            "name": "F1",
            "ticks": 17940,
            "time": 68.99993099999999,
            "velocity": 0.5039370078740157
          },
          {
            "duration": 0.1923074999999983,
            "durationTicks": 50,
            "midi": 29,
            "name": "F1",
            "ticks": 18000,
            "time": 69.2307,
            "velocity": 0.5275590551181102
          },
          {
            "duration": 0.1923074999999983,
            "durationTicks": 50,
            "midi": 29,
            "name": "F1",
            "ticks": 18060,
            "time": 69.461469,
            "velocity": 0.5039370078740157
          },
          {
            "duration": 0.1923074999999983,
            "durationTicks": 50,
            "midi": 29,
            "name": "F1",
            "ticks": 18120,
            "time": 69.69223799999999,
            "velocity": 0.5039370078740157
          },
          {
            "duration": 0.1923074999999983,
            "durationTicks": 50,
            "midi": 29,
            "name": "F1",
            "ticks": 18180,
            "time": 69.923007,
            "velocity": 0.5590551181102362
          },
          {
            "duration": 0.1923074999999983,
            "durationTicks": 50,
            "midi": 29,
            "name": "F1",
            "ticks": 18240,
            "time": 70.153776,
            "velocity": 0.5354330708661418
          },
          {
            "duration": 0.1923074999999841,
            "durationTicks": 50,
            "midi": 29,
            "name": "F1",
            "ticks": 18300,
            "time": 70.384545,
            "velocity": 0.5039370078740157
          },
          {
            "duration": 0.1923074999999983,
            "durationTicks": 50,
            "midi": 29,
            "name": "F1",
            "ticks": 18360,
            "time": 70.615314,
            "velocity": 0.49606299212598426
          },
          {
            "duration": 0.1923074999999983,
            "durationTicks": 50,
            "midi": 29,
            "name": "F1",
            "ticks": 18420,
            "time": 70.846083,
            "velocity": 0.5039370078740157
          },
          {
            "duration": 0.1923074999999841,
            "durationTicks": 50,
            "midi": 29,
            "name": "F1",
            "ticks": 18480,
            "time": 71.076852,
            "velocity": 0.5275590551181102
          },
          {
            "duration": 0.1923074999999983,
            "durationTicks": 50,
            "midi": 29,
            "name": "F1",
            "ticks": 18540,
            "time": 71.307621,
            "velocity": 0.5039370078740157
          },
          {
            "duration": 0.1923074999999983,
            "durationTicks": 50,
            "midi": 29,
            "name": "F1",
            "ticks": 18600,
            "time": 71.53838999999999,
            "velocity": 0.5039370078740157
          },
          {
            "duration": 0.1923074999999841,
            "durationTicks": 50,
            "midi": 29,
            "name": "F1",
            "ticks": 18660,
            "time": 71.769159,
            "velocity": 0.5590551181102362
          },
          {
            "duration": 0.1923074999999983,
            "durationTicks": 50,
            "midi": 29,
            "name": "F1",
            "ticks": 18720,
            "time": 71.999928,
            "velocity": 0.5354330708661418
          },
          {
            "duration": 0.1923074999999983,
            "durationTicks": 50,
            "midi": 29,
            "name": "F1",
            "ticks": 18780,
            "time": 72.23069699999999,
            "velocity": 0.5039370078740157
          },
          {
            "duration": 0.1923074999999841,
            "durationTicks": 50,
            "midi": 29,
            "name": "F1",
            "ticks": 18840,
            "time": 72.461466,
            "velocity": 0.49606299212598426
          },
          {
            "duration": 0.1923074999999983,
            "durationTicks": 50,
            "midi": 29,
            "name": "F1",
            "ticks": 18900,
            "time": 72.692235,
            "velocity": 0.5039370078740157
          },
          {
            "duration": 0.1923074999999983,
            "durationTicks": 50,
            "midi": 29,
            "name": "F1",
            "ticks": 18960,
            "time": 72.92300399999999,
            "velocity": 0.5275590551181102
          },
          {
            "duration": 0.1923074999999841,
            "durationTicks": 50,
            "midi": 29,
            "name": "F1",
            "ticks": 19020,
            "time": 73.153773,
            "velocity": 0.5039370078740157
          },
          {
            "duration": 0.1923074999999983,
            "durationTicks": 50,
            "midi": 29,
            "name": "F1",
            "ticks": 19080,
            "time": 73.384542,
            "velocity": 0.5039370078740157
          },
          {
            "duration": 0.1923074999999983,
            "durationTicks": 50,
            "midi": 29,
            "name": "F1",
            "ticks": 19140,
            "time": 73.61531099999999,
            "velocity": 0.5590551181102362
          },
          {
            "duration": 0.23461514999999622,
            "durationTicks": 61,
            "midi": 27,
            "name": "D#1",
            "ticks": 19200,
            "time": 73.84608,
            "velocity": 0.7637795275590551
          },
          {
            "duration": 0.24615359999999953,
            "durationTicks": 64,
            "midi": 27,
            "name": "D#1",
            "ticks": 19290,
            "time": 74.1922335,
            "velocity": 0.8267716535433071
          },
          {
            "duration": 0.29999970000000076,
            "durationTicks": 78,
            "midi": 25,
            "name": "C#1",
            "ticks": 19380,
            "time": 74.538387,
            "velocity": 0.8267716535433071
          },
          {
            "duration": 0.28076894999999524,
            "durationTicks": 73,
            "midi": 25,
            "name": "C#1",
            "ticks": 19500,
            "time": 74.99992499999999,
            "velocity": 0.8346456692913385
          },
          {
            "duration": 0.173076750000007,
            "durationTicks": 45,
            "midi": 25,
            "name": "C#1",
            "ticks": 19590,
            "time": 75.34607849999999,
            "velocity": 0.8582677165354331
          },
          {
            "duration": 0.25769205000000284,
            "durationTicks": 67,
            "midi": 29,
            "name": "F1",
            "ticks": 19680,
            "time": 75.69223199999999,
            "velocity": 0.6692913385826772
          },
          {
            "duration": 0.24615359999999953,
            "durationTicks": 64,
            "midi": 41,
            "name": "F2",
            "ticks": 19740,
            "time": 75.923001,
            "velocity": 0.5905511811023622
          },
          {
            "duration": 0.23461514999999622,
            "durationTicks": 61,
            "midi": 29,
            "name": "F1",
            "ticks": 19800,
            "time": 76.15377,
            "velocity": 0.6062992125984252
          },
          {
            "duration": 0.24230745000001264,
            "durationTicks": 63,
            "midi": 41,
            "name": "F2",
            "ticks": 19860,
            "time": 76.38453899999999,
            "velocity": 0.6692913385826772
          },
          {
            "duration": 0.2076920999999885,
            "durationTicks": 54,
            "midi": 29,
            "name": "F1",
            "ticks": 19920,
            "time": 76.615308,
            "velocity": 0.5984251968503937
          },
          {
            "duration": 0.27307665000000725,
            "durationTicks": 71,
            "midi": 41,
            "name": "F2",
            "ticks": 19980,
            "time": 76.846077,
            "velocity": 0.5984251968503937
          },
          {
            "duration": 0.2038459500000016,
            "durationTicks": 53,
            "midi": 29,
            "name": "F1",
            "ticks": 20040,
            "time": 77.07684599999999,
            "velocity": 0.5905511811023622
          },
          {
            "duration": 0.2192305499999918,
            "durationTicks": 57,
            "midi": 41,
            "name": "F2",
            "ticks": 20100,
            "time": 77.307615,
            "velocity": 0.6220472440944882
          },
          {
            "duration": 0.2192305499999918,
            "durationTicks": 57,
            "midi": 27,
            "name": "D#1",
            "ticks": 20160,
            "time": 77.538384,
            "velocity": 0.6929133858267716
          },
          {
            "duration": 0.24999975000000063,
            "durationTicks": 65,
            "midi": 39,
            "name": "D#2",
            "ticks": 20220,
            "time": 77.76915299999999,
            "velocity": 0.6456692913385826
          },
          {
            "duration": 0.24230744999999843,
            "durationTicks": 63,
            "midi": 27,
            "name": "D#1",
            "ticks": 20280,
            "time": 77.999922,
            "velocity": 0.6299212598425197
          },
          {
            "duration": 0.23076899999999512,
            "durationTicks": 60,
            "midi": 39,
            "name": "D#2",
            "ticks": 20340,
            "time": 78.230691,
            "velocity": 0.6377952755905512
          },
          {
            "duration": 0.1807690500000092,
            "durationTicks": 47,
            "midi": 25,
            "name": "C#1",
            "ticks": 20400,
            "time": 78.46145999999999,
            "velocity": 0.6377952755905512
          },
          {
            "duration": 0.22692284999999401,
            "durationTicks": 59,
            "midi": 37,
            "name": "C#2",
            "ticks": 20460,
            "time": 78.692229,
            "velocity": 0.5984251968503937
          },
          {
            "duration": 0.1999998000000005,
            "durationTicks": 52,
            "midi": 25,
            "name": "C#1",
            "ticks": 20520,
            "time": 78.92299799999999,
            "velocity": 0.5748031496062992
          },
          {
            "duration": 0.1923074999999841,
            "durationTicks": 50,
            "midi": 37,
            "name": "C#2",
            "ticks": 20580,
            "time": 79.153767,
            "velocity": 0.6614173228346457
          },
          {
            "duration": 0.24999974999998642,
            "durationTicks": 65,
            "midi": 29,
            "name": "F1",
            "ticks": 20640,
            "time": 79.384536,
            "velocity": 0.6614173228346457
          },
          {
            "duration": 0.24999975000000063,
            "durationTicks": 65,
            "midi": 41,
            "name": "F2",
            "ticks": 20700,
            "time": 79.61530499999999,
            "velocity": 0.6614173228346457
          },
          {
            "duration": 0.1923074999999841,
            "durationTicks": 50,
            "midi": 29,
            "name": "F1",
            "ticks": 20760,
            "time": 79.846074,
            "velocity": 0.6062992125984252
          },
          {
            "duration": 0.23846129999999732,
            "durationTicks": 62,
            "midi": 41,
            "name": "F2",
            "ticks": 20820,
            "time": 80.076843,
            "velocity": 0.6614173228346457
          },
          {
            "duration": 0.21538440000000492,
            "durationTicks": 56,
            "midi": 29,
            "name": "F1",
            "ticks": 20880,
            "time": 80.30761199999999,
            "velocity": 0.5590551181102362
          },
          {
            "duration": 0.25384590000000173,
            "durationTicks": 66,
            "midi": 41,
            "name": "F2",
            "ticks": 20940,
            "time": 80.538381,
            "velocity": 0.6771653543307087
          },
          {
            "duration": 0.1999998000000005,
            "durationTicks": 52,
            "midi": 29,
            "name": "F1",
            "ticks": 21000,
            "time": 80.76915,
            "velocity": 0.6220472440944882
          },
          {
            "duration": 0.2230766999999929,
            "durationTicks": 58,
            "midi": 41,
            "name": "F2",
            "ticks": 21060,
            "time": 80.99991899999999,
            "velocity": 0.6456692913385826
          },
          {
            "duration": 1.7653828499999946,
            "durationTicks": 459,
            "midi": 29,
            "name": "F1",
            "ticks": 21120,
            "time": 81.230688,
            "velocity": 0.7322834645669292
          },
          {
            "duration": 0.24999975000000063,
            "durationTicks": 65,
            "midi": 29,
            "name": "F1",
            "ticks": 21600,
            "time": 83.07683999999999,
            "velocity": 0.6456692913385826
          },
          {
            "duration": 0.26538434999999083,
            "durationTicks": 69,
            "midi": 41,
            "name": "F2",
            "ticks": 21660,
            "time": 83.307609,
            "velocity": 0.6456692913385826
          },
          {
            "duration": 0.24230744999999843,
            "durationTicks": 63,
            "midi": 29,
            "name": "F1",
            "ticks": 21720,
            "time": 83.538378,
            "velocity": 0.6614173228346457
          },
          {
            "duration": 0.24999975000000063,
            "durationTicks": 65,
            "midi": 41,
            "name": "F2",
            "ticks": 21780,
            "time": 83.76914699999999,
            "velocity": 0.6614173228346457
          },
          {
            "duration": 0.22692284999999401,
            "durationTicks": 59,
            "midi": 29,
            "name": "F1",
            "ticks": 21840,
            "time": 83.999916,
            "velocity": 0.5905511811023622
          },
          {
            "duration": 0.29230739999999855,
            "durationTicks": 76,
            "midi": 41,
            "name": "F2",
            "ticks": 21900,
            "time": 84.230685,
            "velocity": 0.6771653543307087
          },
          {
            "duration": 0.24615359999999953,
            "durationTicks": 64,
            "midi": 29,
            "name": "F1",
            "ticks": 21960,
            "time": 84.46145399999999,
            "velocity": 0.5905511811023622
          },
          {
            "duration": 0.23846129999999732,
            "durationTicks": 62,
            "midi": 41,
            "name": "F2",
            "ticks": 22020,
            "time": 84.692223,
            "velocity": 0.6299212598425197
          },
          {
            "duration": 0.27307665000000725,
            "durationTicks": 71,
            "midi": 27,
            "name": "D#1",
            "ticks": 22080,
            "time": 84.922992,
            "velocity": 0.6929133858267716
          },
          {
            "duration": 0.25384590000001594,
            "durationTicks": 66,
            "midi": 39,
            "name": "D#2",
            "ticks": 22140,
            "time": 85.15376099999999,
            "velocity": 0.6692913385826772
          },
          {
            "duration": 0.29615354999999965,
            "durationTicks": 77,
            "midi": 27,
            "name": "D#1",
            "ticks": 22200,
            "time": 85.38453,
            "velocity": 0.6062992125984252
          },
          {
            "duration": 0.24230744999999843,
            "durationTicks": 63,
            "midi": 39,
            "name": "D#2",
            "ticks": 22260,
            "time": 85.615299,
            "velocity": 0.7086614173228346
          },
          {
            "duration": 0.23461514999999622,
            "durationTicks": 61,
            "midi": 25,
            "name": "C#1",
            "ticks": 22320,
            "time": 85.84606799999999,
            "velocity": 0.6220472440944882
          },
          {
            "duration": 0.25384590000000173,
            "durationTicks": 66,
            "midi": 37,
            "name": "C#2",
            "ticks": 22380,
            "time": 86.076837,
            "velocity": 0.6929133858267716
          },
          {
            "duration": 0.2076921000000027,
            "durationTicks": 54,
            "midi": 25,
            "name": "C#1",
            "ticks": 22440,
            "time": 86.30760599999999,
            "velocity": 0.7086614173228346
          },
          {
            "duration": 0.25384590000001594,
            "durationTicks": 66,
            "midi": 37,
            "name": "C#2",
            "ticks": 22500,
            "time": 86.53837499999999,
            "velocity": 0.7322834645669292
          },
          {
            "duration": 0.24999974999998642,
            "durationTicks": 65,
            "midi": 29,
            "name": "F1",
            "ticks": 22560,
            "time": 86.769144,
            "velocity": 0.6377952755905512
          },
          {
            "duration": 0.25769205000000284,
            "durationTicks": 67,
            "midi": 41,
            "name": "F2",
            "ticks": 22620,
            "time": 86.99991299999999,
            "velocity": 0.6771653543307087
          },
          {
            "duration": 0.2038459500000016,
            "durationTicks": 53,
            "midi": 29,
            "name": "F1",
            "ticks": 22680,
            "time": 87.23068199999999,
            "velocity": 0.6456692913385826
          },
          {
            "duration": 0.27692279999999414,
            "durationTicks": 72,
            "midi": 41,
            "name": "F2",
            "ticks": 22740,
            "time": 87.461451,
            "velocity": 0.6456692913385826
          },
          {
            "duration": 0.2038459500000016,
            "durationTicks": 53,
            "midi": 29,
            "name": "F1",
            "ticks": 22800,
            "time": 87.69221999999999,
            "velocity": 0.6220472440944882
          },
          {
            "duration": 0.26923050000000615,
            "durationTicks": 70,
            "midi": 41,
            "name": "F2",
            "ticks": 22860,
            "time": 87.92298899999999,
            "velocity": 0.6692913385826772
          },
          {
            "duration": 0.22692284999999401,
            "durationTicks": 59,
            "midi": 29,
            "name": "F1",
            "ticks": 22920,
            "time": 88.153758,
            "velocity": 0.6377952755905512
          },
          {
            "duration": 0.26153820000000394,
            "durationTicks": 68,
            "midi": 41,
            "name": "F2",
            "ticks": 22980,
            "time": 88.38452699999999,
            "velocity": 0.6771653543307087
          },
          {
            "duration": 0.2153843999999907,
            "durationTicks": 56,
            "midi": 29,
            "name": "F1",
            "ticks": 23040,
            "time": 88.615296,
            "velocity": 0.7637795275590551
          },
          {
            "duration": 0.25769205000000284,
            "durationTicks": 67,
            "midi": 29,
            "name": "F1",
            "ticks": 23520,
            "time": 90.46144799999999,
            "velocity": 0.6692913385826772
          },
          {
            "duration": 0.24615359999999953,
            "durationTicks": 64,
            "midi": 41,
            "name": "F2",
            "ticks": 23580,
            "time": 90.692217,
            "velocity": 0.5905511811023622
          },
          {
            "duration": 0.23461514999999622,
            "durationTicks": 61,
            "midi": 29,
            "name": "F1",
            "ticks": 23640,
            "time": 90.922986,
            "velocity": 0.6062992125984252
          },
          {
            "duration": 0.24230745000001264,
            "durationTicks": 63,
            "midi": 41,
            "name": "F2",
            "ticks": 23700,
            "time": 91.15375499999999,
            "velocity": 0.6692913385826772
          },
          {
            "duration": 0.2076920999999885,
            "durationTicks": 54,
            "midi": 29,
            "name": "F1",
            "ticks": 23760,
            "time": 91.384524,
            "velocity": 0.5984251968503937
          },
          {
            "duration": 0.27307665000000725,
            "durationTicks": 71,
            "midi": 41,
            "name": "F2",
            "ticks": 23820,
            "time": 91.615293,
            "velocity": 0.5984251968503937
          },
          {
            "duration": 0.2038459500000016,
            "durationTicks": 53,
            "midi": 29,
            "name": "F1",
            "ticks": 23880,
            "time": 91.84606199999999,
            "velocity": 0.5905511811023622
          },
          {
            "duration": 0.2192305499999918,
            "durationTicks": 57,
            "midi": 41,
            "name": "F2",
            "ticks": 23940,
            "time": 92.076831,
            "velocity": 0.6220472440944882
          },
          {
            "duration": 0.2192305499999918,
            "durationTicks": 57,
            "midi": 27,
            "name": "D#1",
            "ticks": 24000,
            "time": 92.3076,
            "velocity": 0.6929133858267716
          },
          {
            "duration": 0.24999975000000063,
            "durationTicks": 65,
            "midi": 39,
            "name": "D#2",
            "ticks": 24060,
            "time": 92.53836899999999,
            "velocity": 0.6456692913385826
          },
          {
            "duration": 0.24230744999999843,
            "durationTicks": 63,
            "midi": 27,
            "name": "D#1",
            "ticks": 24120,
            "time": 92.769138,
            "velocity": 0.6299212598425197
          },
          {
            "duration": 0.23076899999999512,
            "durationTicks": 60,
            "midi": 39,
            "name": "D#2",
            "ticks": 24180,
            "time": 92.999907,
            "velocity": 0.6377952755905512
          },
          {
            "duration": 0.1807690500000092,
            "durationTicks": 47,
            "midi": 25,
            "name": "C#1",
            "ticks": 24240,
            "time": 93.23067599999999,
            "velocity": 0.6377952755905512
          },
          {
            "duration": 0.22692284999999401,
            "durationTicks": 59,
            "midi": 37,
            "name": "C#2",
            "ticks": 24300,
            "time": 93.461445,
            "velocity": 0.5984251968503937
          },
          {
            "duration": 0.1999998000000005,
            "durationTicks": 52,
            "midi": 25,
            "name": "C#1",
            "ticks": 24360,
            "time": 93.69221399999999,
            "velocity": 0.5748031496062992
          },
          {
            "duration": 0.1923074999999983,
            "durationTicks": 50,
            "midi": 37,
            "name": "C#2",
            "ticks": 24420,
            "time": 93.92298299999999,
            "velocity": 0.6614173228346457
          },
          {
            "duration": 0.24999975000000063,
            "durationTicks": 65,
            "midi": 29,
            "name": "F1",
            "ticks": 25440,
            "time": 97.84605599999999,
            "velocity": 0.6456692913385826
          },
          {
            "duration": 0.26538434999999083,
            "durationTicks": 69,
            "midi": 41,
            "name": "F2",
            "ticks": 25500,
            "time": 98.076825,
            "velocity": 0.6456692913385826
          },
          {
            "duration": 0.24230744999999843,
            "durationTicks": 63,
            "midi": 29,
            "name": "F1",
            "ticks": 25560,
            "time": 98.307594,
            "velocity": 0.6614173228346457
          },
          {
            "duration": 0.24999975000000063,
            "durationTicks": 65,
            "midi": 41,
            "name": "F2",
            "ticks": 25620,
            "time": 98.53836299999999,
            "velocity": 0.6614173228346457
          },
          {
            "duration": 0.22692284999999401,
            "durationTicks": 59,
            "midi": 29,
            "name": "F1",
            "ticks": 25680,
            "time": 98.769132,
            "velocity": 0.5905511811023622
          },
          {
            "duration": 0.29230739999999855,
            "durationTicks": 76,
            "midi": 41,
            "name": "F2",
            "ticks": 25740,
            "time": 98.999901,
            "velocity": 0.6771653543307087
          },
          {
            "duration": 0.24615359999999953,
            "durationTicks": 64,
            "midi": 29,
            "name": "F1",
            "ticks": 25800,
            "time": 99.23066999999999,
            "velocity": 0.5905511811023622
          },
          {
            "duration": 0.23846129999999732,
            "durationTicks": 62,
            "midi": 41,
            "name": "F2",
            "ticks": 25860,
            "time": 99.461439,
            "velocity": 0.6299212598425197
          },
          {
            "duration": 0.27307664999999304,
            "durationTicks": 71,
            "midi": 27,
            "name": "D#1",
            "ticks": 25920,
            "time": 99.692208,
            "velocity": 0.6929133858267716
          },
          {
            "duration": 0.25384590000001594,
            "durationTicks": 66,
            "midi": 39,
            "name": "D#2",
            "ticks": 25980,
            "time": 99.92297699999999,
            "velocity": 0.6692913385826772
          },
          {
            "duration": 0.29615354999999965,
            "durationTicks": 77,
            "midi": 27,
            "name": "D#1",
            "ticks": 26040,
            "time": 100.153746,
            "velocity": 0.6062992125984252
          },
          {
            "duration": 0.24230744999999843,
            "durationTicks": 63,
            "midi": 39,
            "name": "D#2",
            "ticks": 26100,
            "time": 100.384515,
            "velocity": 0.7086614173228346
          },
          {
            "duration": 0.23461514999999622,
            "durationTicks": 61,
            "midi": 25,
            "name": "C#1",
            "ticks": 26160,
            "time": 100.61528399999999,
            "velocity": 0.6220472440944882
          },
          {
            "duration": 0.25384590000000173,
            "durationTicks": 66,
            "midi": 37,
            "name": "C#2",
            "ticks": 26220,
            "time": 100.846053,
            "velocity": 0.6929133858267716
          },
          {
            "duration": 0.2076920999999885,
            "durationTicks": 54,
            "midi": 25,
            "name": "C#1",
            "ticks": 26280,
            "time": 101.07682199999999,
            "velocity": 0.7086614173228346
          },
          {
            "duration": 0.25384590000001594,
            "durationTicks": 66,
            "midi": 37,
            "name": "C#2",
            "ticks": 26340,
            "time": 101.30759099999999,
            "velocity": 0.7322834645669292
          },
          {
            "duration": 0.24999974999998642,
            "durationTicks": 65,
            "midi": 29,
            "name": "F1",
            "ticks": 26400,
            "time": 101.53836,
            "velocity": 0.6377952755905512
          },
          {
            "duration": 0.25769205000000284,
            "durationTicks": 67,
            "midi": 41,
            "name": "F2",
            "ticks": 26460,
            "time": 101.76912899999999,
            "velocity": 0.6771653543307087
          },
          {
            "duration": 0.2038459500000016,
            "durationTicks": 53,
            "midi": 29,
            "name": "F1",
            "ticks": 26520,
            "time": 101.99989799999999,
            "velocity": 0.6456692913385826
          },
          {
            "duration": 0.27692279999999414,
            "durationTicks": 72,
            "midi": 41,
            "name": "F2",
            "ticks": 26580,
            "time": 102.230667,
            "velocity": 0.6456692913385826
          },
          {
            "duration": 0.2038459500000016,
            "durationTicks": 53,
            "midi": 29,
            "name": "F1",
            "ticks": 26640,
            "time": 102.46143599999999,
            "velocity": 0.6220472440944882
          },
          {
            "duration": 0.26923050000000615,
            "durationTicks": 70,
            "midi": 41,
            "name": "F2",
            "ticks": 26700,
            "time": 102.69220499999999,
            "velocity": 0.6692913385826772
          },
          {
            "duration": 0.22692284999999401,
            "durationTicks": 59,
            "midi": 29,
            "name": "F1",
            "ticks": 26760,
            "time": 102.922974,
            "velocity": 0.6377952755905512
          },
          {
            "duration": 0.26153820000000394,
            "durationTicks": 68,
            "midi": 41,
            "name": "F2",
            "ticks": 26820,
            "time": 103.15374299999999,
            "velocity": 0.6771653543307087
          },
          {
            "duration": 0.1961536500000136,
            "durationTicks": 51,
            "midi": 29,
            "name": "F1",
            "ticks": 27360,
            "time": 105.23066399999999,
            "velocity": 0.8110236220472441
          },
          {
            "duration": 0.21538440000000492,
            "durationTicks": 56,
            "midi": 29,
            "name": "F1",
            "ticks": 27450,
            "time": 105.57681749999999,
            "velocity": 0.8031496062992126
          },
          {
            "duration": 0.27692279999999414,
            "durationTicks": 72,
            "midi": 29,
            "name": "F1",
            "ticks": 27540,
            "time": 105.92297099999999,
            "velocity": 0.8031496062992126
          },
          {
            "duration": 0.30384585000000186,
            "durationTicks": 79,
            "midi": 29,
            "name": "F1",
            "ticks": 27660,
            "time": 106.384509,
            "velocity": 0.8110236220472441
          },
          {
            "duration": 0.1692306000000059,
            "durationTicks": 44,
            "midi": 29,
            "name": "F1",
            "ticks": 27750,
            "time": 106.7306625,
            "velocity": 0.7716535433070866
          },
          {
            "duration": 0.23461514999999622,
            "durationTicks": 61,
            "midi": 27,
            "name": "D#1",
            "ticks": 27840,
            "time": 107.076816,
            "velocity": 0.7637795275590551
          },
          {
            "duration": 0.24615359999999953,
            "durationTicks": 64,
            "midi": 27,
            "name": "D#1",
            "ticks": 27930,
            "time": 107.4229695,
            "velocity": 0.8267716535433071
          },
          {
            "duration": 0.29999970000000076,
            "durationTicks": 78,
            "midi": 25,
            "name": "C#1",
            "ticks": 28020,
            "time": 107.769123,
            "velocity": 0.8267716535433071
          },
          {
            "duration": 0.28076894999998103,
            "durationTicks": 73,
            "midi": 25,
            "name": "C#1",
            "ticks": 28140,
            "time": 108.230661,
            "velocity": 0.8346456692913385
          },
          {
            "duration": 0.17307674999999278,
            "durationTicks": 45,
            "midi": 25,
            "name": "C#1",
            "ticks": 28230,
            "time": 108.5768145,
            "velocity": 0.8582677165354331
          },
          {
            "duration": 0.1961536499999994,
            "durationTicks": 51,
            "midi": 29,
            "name": "F1",
            "ticks": 28320,
            "time": 108.922968,
            "velocity": 0.8110236220472441
          },
          {
            "duration": 0.2153843999999907,
            "durationTicks": 56,
            "midi": 29,
            "name": "F1",
            "ticks": 28410,
            "time": 109.2691215,
            "velocity": 0.8031496062992126
          },
          {
            "duration": 0.27692279999999414,
            "durationTicks": 72,
            "midi": 29,
            "name": "F1",
            "ticks": 28500,
            "time": 109.615275,
            "velocity": 0.8031496062992126
          },
          {
            "duration": 0.30384585000000186,
            "durationTicks": 79,
            "midi": 29,
            "name": "F1",
            "ticks": 28620,
            "time": 110.07681299999999,
            "velocity": 0.8110236220472441
          },
          {
            "duration": 0.1692306000000059,
            "durationTicks": 44,
            "midi": 29,
            "name": "F1",
            "ticks": 28710,
            "time": 110.42296649999999,
            "velocity": 0.7716535433070866
          },
          {
            "duration": 0.23461514999999622,
            "durationTicks": 61,
            "midi": 27,
            "name": "D#1",
            "ticks": 28800,
            "time": 110.76911999999999,
            "velocity": 0.7637795275590551
          },
          {
            "duration": 0.24615359999999953,
            "durationTicks": 64,
            "midi": 27,
            "name": "D#1",
            "ticks": 28890,
            "time": 111.11527349999999,
            "velocity": 0.8267716535433071
          },
          {
            "duration": 0.29999970000000076,
            "durationTicks": 78,
            "midi": 25,
            "name": "C#1",
            "ticks": 28980,
            "time": 111.46142699999999,
            "velocity": 0.8267716535433071
          },
          {
            "duration": 0.28076894999999524,
            "durationTicks": 73,
            "midi": 25,
            "name": "C#1",
            "ticks": 29100,
            "time": 111.92296499999999,
            "velocity": 0.8346456692913385
          },
          {
            "duration": 0.173076750000007,
            "durationTicks": 45,
            "midi": 25,
            "name": "C#1",
            "ticks": 29190,
            "time": 112.26911849999999,
            "velocity": 0.8582677165354331
          },
          {
            "duration": 0.1961536499999994,
            "durationTicks": 51,
            "midi": 29,
            "name": "F1",
            "ticks": 29280,
            "time": 112.61527199999999,
            "velocity": 0.8110236220472441
          },
          {
            "duration": 0.21538440000000492,
            "durationTicks": 56,
            "midi": 29,
            "name": "F1",
            "ticks": 29370,
            "time": 112.96142549999999,
            "velocity": 0.8031496062992126
          },
          {
            "duration": 0.27692279999999414,
            "durationTicks": 72,
            "midi": 29,
            "name": "F1",
            "ticks": 29460,
            "time": 113.30757899999999,
            "velocity": 0.8031496062992126
          },
          {
            "duration": 0.30384585000000186,
            "durationTicks": 79,
            "midi": 29,
            "name": "F1",
            "ticks": 29580,
            "time": 113.769117,
            "velocity": 0.8110236220472441
          },
          {
            "duration": 0.1692306000000059,
            "durationTicks": 44,
            "midi": 29,
            "name": "F1",
            "ticks": 29670,
            "time": 114.1152705,
            "velocity": 0.7716535433070866
          },
          {
            "duration": 0.23461514999999622,
            "durationTicks": 61,
            "midi": 27,
            "name": "D#1",
            "ticks": 29760,
            "time": 114.461424,
            "velocity": 0.7637795275590551
          },
          {
            "duration": 0.24615359999999953,
            "durationTicks": 64,
            "midi": 27,
            "name": "D#1",
            "ticks": 29850,
            "time": 114.8075775,
            "velocity": 0.8267716535433071
          },
          {
            "duration": 0.29999970000000076,
            "durationTicks": 78,
            "midi": 25,
            "name": "C#1",
            "ticks": 29940,
            "time": 115.153731,
            "velocity": 0.8267716535433071
          },
          {
            "duration": 0.28076894999998103,
            "durationTicks": 73,
            "midi": 25,
            "name": "C#1",
            "ticks": 30060,
            "time": 115.615269,
            "velocity": 0.8346456692913385
          },
          {
            "duration": 0.17307674999999278,
            "durationTicks": 45,
            "midi": 25,
            "name": "C#1",
            "ticks": 30150,
            "time": 115.9614225,
            "velocity": 0.8582677165354331
          },
          {
            "duration": 0.1961536499999994,
            "durationTicks": 51,
            "midi": 29,
            "name": "F1",
            "ticks": 30240,
            "time": 116.307576,
            "velocity": 0.8110236220472441
          },
          {
            "duration": 0.2153843999999907,
            "durationTicks": 56,
            "midi": 29,
            "name": "F1",
            "ticks": 30330,
            "time": 116.6537295,
            "velocity": 0.8031496062992126
          },
          {
            "duration": 0.27692279999999414,
            "durationTicks": 72,
            "midi": 29,
            "name": "F1",
            "ticks": 30420,
            "time": 116.999883,
            "velocity": 0.8031496062992126
          },
          {
            "duration": 0.30384585000000186,
            "durationTicks": 79,
            "midi": 29,
            "name": "F1",
            "ticks": 30540,
            "time": 117.46142099999999,
            "velocity": 0.8110236220472441
          },
          {
            "duration": 0.1692306000000059,
            "durationTicks": 44,
            "midi": 29,
            "name": "F1",
            "ticks": 30630,
            "time": 117.80757449999999,
            "velocity": 0.7716535433070866
          },
          {
            "duration": 0.23461514999999622,
            "durationTicks": 61,
            "midi": 27,
            "name": "D#1",
            "ticks": 30720,
            "time": 118.15372799999999,
            "velocity": 0.7637795275590551
          },
          {
            "duration": 0.24615359999999953,
            "durationTicks": 64,
            "midi": 27,
            "name": "D#1",
            "ticks": 30810,
            "time": 118.49988149999999,
            "velocity": 0.8267716535433071
          },
          {
            "duration": 0.29999970000000076,
            "durationTicks": 78,
            "midi": 25,
            "name": "C#1",
            "ticks": 30900,
            "time": 118.84603499999999,
            "velocity": 0.8267716535433071
          },
          {
            "duration": 0.28076894999999524,
            "durationTicks": 73,
            "midi": 25,
            "name": "C#1",
            "ticks": 31020,
            "time": 119.30757299999999,
            "velocity": 0.8346456692913385
          },
          {
            "duration": 0.17307674999999278,
            "durationTicks": 45,
            "midi": 25,
            "name": "C#1",
            "ticks": 31110,
            "time": 119.65372649999999,
            "velocity": 0.8582677165354331
          },
          {
            "duration": 0.1961536499999994,
            "durationTicks": 51,
            "midi": 29,
            "name": "F1",
            "ticks": 31200,
            "time": 119.99987999999999,
            "velocity": 0.8110236220472441
          },
          {
            "duration": 0.2153843999999907,
            "durationTicks": 56,
            "midi": 29,
            "name": "F1",
            "ticks": 31290,
            "time": 120.34603349999999,
            "velocity": 0.8031496062992126
          },
          {
            "duration": 0.27692280000000835,
            "durationTicks": 72,
            "midi": 29,
            "name": "F1",
            "ticks": 31380,
            "time": 120.69218699999999,
            "velocity": 0.8031496062992126
          },
          {
            "duration": 0.30384585000000186,
            "durationTicks": 79,
            "midi": 29,
            "name": "F1",
            "ticks": 31500,
            "time": 121.153725,
            "velocity": 0.8110236220472441
          },
          {
            "duration": 0.1692306000000059,
            "durationTicks": 44,
            "midi": 29,
            "name": "F1",
            "ticks": 31590,
            "time": 121.4998785,
            "velocity": 0.7716535433070866
          },
          {
            "duration": 0.23461514999999622,
            "durationTicks": 61,
            "midi": 27,
            "name": "D#1",
            "ticks": 31680,
            "time": 121.846032,
            "velocity": 0.7637795275590551
          },
          {
            "duration": 0.24615360000001374,
            "durationTicks": 64,
            "midi": 27,
            "name": "D#1",
            "ticks": 31770,
            "time": 122.1921855,
            "velocity": 0.8267716535433071
          },
          {
            "duration": 0.29999969999998655,
            "durationTicks": 78,
            "midi": 25,
            "name": "C#1",
            "ticks": 31860,
            "time": 122.538339,
            "velocity": 0.8267716535433071
          },
          {
            "duration": 0.28076895000000945,
            "durationTicks": 73,
            "midi": 25,
            "name": "C#1",
            "ticks": 31980,
            "time": 122.99987699999998,
            "velocity": 0.8346456692913385
          },
          {
            "duration": 0.173076750000007,
            "durationTicks": 45,
            "midi": 25,
            "name": "C#1",
            "ticks": 32070,
            "time": 123.34603049999998,
            "velocity": 0.8582677165354331
          },
          {
            "duration": 0.1961536500000136,
            "durationTicks": 51,
            "midi": 29,
            "name": "F1",
            "ticks": 32160,
            "time": 123.69218399999998,
            "velocity": 0.8110236220472441
          },
          {
            "duration": 0.2153843999999907,
            "durationTicks": 56,
            "midi": 29,
            "name": "F1",
            "ticks": 32250,
            "time": 124.03833749999998,
            "velocity": 0.8031496062992126
          },
          {
            "duration": 0.27692280000002256,
            "durationTicks": 72,
            "midi": 29,
            "name": "F1",
            "ticks": 32340,
            "time": 124.38449099999998,
            "velocity": 0.8031496062992126
          },
          {
            "duration": 0.30384585000001607,
            "durationTicks": 79,
            "midi": 29,
            "name": "F1",
            "ticks": 32460,
            "time": 124.84602899999999,
            "velocity": 0.8110236220472441
          },
          {
            "duration": 0.1692306000000059,
            "durationTicks": 44,
            "midi": 29,
            "name": "F1",
            "ticks": 32550,
            "time": 125.19218249999999,
            "velocity": 0.7716535433070866
          },
          {
            "duration": 0.23461514999999622,
            "durationTicks": 61,
            "midi": 27,
            "name": "D#1",
            "ticks": 32640,
            "time": 125.53833599999999,
            "velocity": 0.7637795275590551
          },
          {
            "duration": 0.24615360000001374,
            "durationTicks": 64,
            "midi": 27,
            "name": "D#1",
            "ticks": 32730,
            "time": 125.88448949999999,
            "velocity": 0.8267716535433071
          },
          {
            "duration": 0.29999969999998655,
            "durationTicks": 78,
            "midi": 25,
            "name": "C#1",
            "ticks": 32820,
            "time": 126.23064299999999,
            "velocity": 0.8267716535433071
          },
          {
            "duration": 0.28076895000000945,
            "durationTicks": 73,
            "midi": 25,
            "name": "C#1",
            "ticks": 32940,
            "time": 126.69218099999999,
            "velocity": 0.8346456692913385
          },
          {
            "duration": 0.17307674999999278,
            "durationTicks": 45,
            "midi": 25,
            "name": "C#1",
            "ticks": 33030,
            "time": 127.03833449999999,
            "velocity": 0.8582677165354331
          },
          {
            "duration": 0.1961536499999994,
            "durationTicks": 51,
            "midi": 29,
            "name": "F1",
            "ticks": 33120,
            "time": 127.38448799999999,
            "velocity": 0.8110236220472441
          },
          {
            "duration": 0.2153843999999907,
            "durationTicks": 56,
            "midi": 29,
            "name": "F1",
            "ticks": 33210,
            "time": 127.73064149999999,
            "velocity": 0.8031496062992126
          },
          {
            "duration": 0.27692280000002256,
            "durationTicks": 72,
            "midi": 29,
            "name": "F1",
            "ticks": 33300,
            "time": 128.07679499999998,
            "velocity": 0.8031496062992126
          },
          {
            "duration": 0.30384584999998765,
            "durationTicks": 79,
            "midi": 29,
            "name": "F1",
            "ticks": 33420,
            "time": 128.538333,
            "velocity": 0.8110236220472441
          },
          {
            "duration": 0.16923059999999168,
            "durationTicks": 44,
            "midi": 29,
            "name": "F1",
            "ticks": 33510,
            "time": 128.88448649999998,
            "velocity": 0.7716535433070866
          },
          {
            "duration": 0.23461514999999622,
            "durationTicks": 61,
            "midi": 27,
            "name": "D#1",
            "ticks": 33600,
            "time": 129.23064,
            "velocity": 0.7637795275590551
          },
          {
            "duration": 0.24615360000001374,
            "durationTicks": 64,
            "midi": 27,
            "name": "D#1",
            "ticks": 33690,
            "time": 129.57679349999998,
            "velocity": 0.8267716535433071
          },
          {
            "duration": 0.29999970000000076,
            "durationTicks": 78,
            "midi": 25,
            "name": "C#1",
            "ticks": 33780,
            "time": 129.92294699999997,
            "velocity": 0.8267716535433071
          },
          {
            "duration": 0.28076895000000945,
            "durationTicks": 73,
            "midi": 25,
            "name": "C#1",
            "ticks": 33900,
            "time": 130.38448499999998,
            "velocity": 0.8346456692913385
          },
          {
            "duration": 0.173076750000007,
            "durationTicks": 45,
            "midi": 25,
            "name": "C#1",
            "ticks": 33990,
            "time": 130.73063849999997,
            "velocity": 0.8582677165354331
          },
          {
            "duration": 0.1961536499999852,
            "durationTicks": 51,
            "midi": 29,
            "name": "F1",
            "ticks": 34080,
            "time": 131.07679199999998,
            "velocity": 0.8110236220472441
          },
          {
            "duration": 0.21538440000000492,
            "durationTicks": 56,
            "midi": 29,
            "name": "F1",
            "ticks": 34170,
            "time": 131.42294549999997,
            "velocity": 0.8031496062992126
          },
          {
            "duration": 0.27692279999999414,
            "durationTicks": 72,
            "midi": 29,
            "name": "F1",
            "ticks": 34260,
            "time": 131.76909899999998,
            "velocity": 0.8031496062992126
          },
          {
            "duration": 0.30384585000001607,
            "durationTicks": 79,
            "midi": 29,
            "name": "F1",
            "ticks": 34380,
            "time": 132.23063699999997,
            "velocity": 0.8110236220472441
          },
          {
            "duration": 0.16923059999999168,
            "durationTicks": 44,
            "midi": 29,
            "name": "F1",
            "ticks": 34470,
            "time": 132.5767905,
            "velocity": 0.7716535433070866
          },
          {
            "duration": 0.23461514999999622,
            "durationTicks": 61,
            "midi": 27,
            "name": "D#1",
            "ticks": 34560,
            "time": 132.92294399999997,
            "velocity": 0.7637795275590551
          },
          {
            "duration": 0.24615360000001374,
            "durationTicks": 64,
            "midi": 27,
            "name": "D#1",
            "ticks": 34650,
            "time": 133.2690975,
            "velocity": 0.8267716535433071
          },
          {
            "duration": 0.29999970000000076,
            "durationTicks": 78,
            "midi": 25,
            "name": "C#1",
            "ticks": 34740,
            "time": 133.61525099999997,
            "velocity": 0.8267716535433071
          },
          {
            "duration": 0.19230750000002672,
            "durationTicks": 50,
            "midi": 29,
            "name": "F1",
            "ticks": 36000,
            "time": 138.46139999999997,
            "velocity": 0.5354330708661418
          },
          {
            "duration": 0.1923074999999983,
            "durationTicks": 50,
            "midi": 29,
            "name": "F1",
            "ticks": 36060,
            "time": 138.69216899999998,
            "velocity": 0.5039370078740157
          },
          {
            "duration": 0.1923074999999983,
            "durationTicks": 50,
            "midi": 29,
            "name": "F1",
            "ticks": 36120,
            "time": 138.922938,
            "velocity": 0.49606299212598426
          },
          {
            "duration": 0.19230750000002672,
            "durationTicks": 50,
            "midi": 29,
            "name": "F1",
            "ticks": 36180,
            "time": 139.15370699999997,
            "velocity": 0.5039370078740157
          },
          {
            "duration": 0.1923074999999983,
            "durationTicks": 50,
            "midi": 29,
            "name": "F1",
            "ticks": 36240,
            "time": 139.38447599999998,
            "velocity": 0.5275590551181102
          },
          {
            "duration": 0.1923074999999983,
            "durationTicks": 50,
            "midi": 29,
            "name": "F1",
            "ticks": 36300,
            "time": 139.615245,
            "velocity": 0.5039370078740157
          },
          {
            "duration": 0.19230750000002672,
            "durationTicks": 50,
            "midi": 29,
            "name": "F1",
            "ticks": 36360,
            "time": 139.84601399999997,
            "velocity": 0.5039370078740157
          },
          {
            "duration": 0.1923074999999983,
            "durationTicks": 50,
            "midi": 29,
            "name": "F1",
            "ticks": 36420,
            "time": 140.07678299999998,
            "velocity": 0.5590551181102362
          },
          {
            "duration": 0.1923074999999983,
            "durationTicks": 50,
            "midi": 29,
            "name": "F1",
            "ticks": 36480,
            "time": 140.307552,
            "velocity": 0.5354330708661418
          },
          {
            "duration": 0.19230750000002672,
            "durationTicks": 50,
            "midi": 29,
            "name": "F1",
            "ticks": 36540,
            "time": 140.53832099999997,
            "velocity": 0.5039370078740157
          },
          {
            "duration": 0.1923074999999983,
            "durationTicks": 50,
            "midi": 29,
            "name": "F1",
            "ticks": 36600,
            "time": 140.76908999999998,
            "velocity": 0.49606299212598426
          },
          {
            "duration": 0.1923074999999983,
            "durationTicks": 50,
            "midi": 29,
            "name": "F1",
            "ticks": 36660,
            "time": 140.999859,
            "velocity": 0.5039370078740157
          },
          {
            "duration": 0.19230750000002672,
            "durationTicks": 50,
            "midi": 29,
            "name": "F1",
            "ticks": 36720,
            "time": 141.23062799999997,
            "velocity": 0.5275590551181102
          },
          {
            "duration": 0.1923074999999983,
            "durationTicks": 50,
            "midi": 29,
            "name": "F1",
            "ticks": 36780,
            "time": 141.46139699999998,
            "velocity": 0.5039370078740157
          },
          {
            "duration": 0.1923074999999983,
            "durationTicks": 50,
            "midi": 29,
            "name": "F1",
            "ticks": 36840,
            "time": 141.692166,
            "velocity": 0.5039370078740157
          },
          {
            "duration": 0.19230750000002672,
            "durationTicks": 50,
            "midi": 29,
            "name": "F1",
            "ticks": 36900,
            "time": 141.92293499999997,
            "velocity": 0.5590551181102362
          },
          {
            "duration": 0.1923074999999983,
            "durationTicks": 50,
            "midi": 29,
            "name": "F1",
            "ticks": 36960,
            "time": 142.15370399999998,
            "velocity": 0.5354330708661418
          },
          {
            "duration": 0.1923074999999983,
            "durationTicks": 50,
            "midi": 29,
            "name": "F1",
            "ticks": 37020,
            "time": 142.38447299999999,
            "velocity": 0.5039370078740157
          },
          {
            "duration": 0.19230750000002672,
            "durationTicks": 50,
            "midi": 29,
            "name": "F1",
            "ticks": 37080,
            "time": 142.61524199999997,
            "velocity": 0.49606299212598426
          },
          {
            "duration": 0.1923074999999983,
            "durationTicks": 50,
            "midi": 29,
            "name": "F1",
            "ticks": 37140,
            "time": 142.84601099999998,
            "velocity": 0.5039370078740157
          },
          {
            "duration": 0.1923074999999983,
            "durationTicks": 50,
            "midi": 29,
            "name": "F1",
            "ticks": 37200,
            "time": 143.07677999999999,
            "velocity": 0.5275590551181102
          },
          {
            "duration": 0.19230750000002672,
            "durationTicks": 50,
            "midi": 29,
            "name": "F1",
            "ticks": 37260,
            "time": 143.30754899999997,
            "velocity": 0.5039370078740157
          },
          {
            "duration": 0.1923074999999983,
            "durationTicks": 50,
            "midi": 29,
            "name": "F1",
            "ticks": 37320,
            "time": 143.53831799999998,
            "velocity": 0.5039370078740157
          },
          {
            "duration": 0.1923074999999983,
            "durationTicks": 50,
            "midi": 29,
            "name": "F1",
            "ticks": 37380,
            "time": 143.76908699999998,
            "velocity": 0.5590551181102362
          },
          {
            "duration": 0.19230750000002672,
            "durationTicks": 50,
            "midi": 29,
            "name": "F1",
            "ticks": 37440,
            "time": 143.99985599999997,
            "velocity": 0.5354330708661418
          },
          {
            "duration": 0.1923074999999983,
            "durationTicks": 50,
            "midi": 29,
            "name": "F1",
            "ticks": 37500,
            "time": 144.23062499999997,
            "velocity": 0.5039370078740157
          },
          {
            "duration": 0.1923074999999983,
            "durationTicks": 50,
            "midi": 29,
            "name": "F1",
            "ticks": 37560,
            "time": 144.46139399999998,
            "velocity": 0.49606299212598426
          },
          {
            "duration": 0.19230750000002672,
            "durationTicks": 50,
            "midi": 29,
            "name": "F1",
            "ticks": 37620,
            "time": 144.69216299999997,
            "velocity": 0.5039370078740157
          },
          {
            "duration": 0.1923074999999983,
            "durationTicks": 50,
            "midi": 29,
            "name": "F1",
            "ticks": 37680,
            "time": 144.92293199999997,
            "velocity": 0.5275590551181102
          },
          {
            "duration": 0.1923074999999983,
            "durationTicks": 50,
            "midi": 29,
            "name": "F1",
            "ticks": 37740,
            "time": 145.15370099999998,
            "velocity": 0.5039370078740157
          },
          {
            "duration": 0.19230750000002672,
            "durationTicks": 50,
            "midi": 29,
            "name": "F1",
            "ticks": 37800,
            "time": 145.38446999999996,
            "velocity": 0.5039370078740157
          },
          {
            "duration": 0.1923074999999983,
            "durationTicks": 50,
            "midi": 29,
            "name": "F1",
            "ticks": 37860,
            "time": 145.61523899999997,
            "velocity": 0.5590551181102362
          },
          {
            "duration": 0.1923074999999983,
            "durationTicks": 50,
            "midi": 29,
            "name": "F1",
            "ticks": 37920,
            "time": 145.84600799999998,
            "velocity": 0.5354330708661418
          },
          {
            "duration": 0.19230750000002672,
            "durationTicks": 50,
            "midi": 29,
            "name": "F1",
            "ticks": 37980,
            "time": 146.07677699999996,
            "velocity": 0.5039370078740157
          },
          {
            "duration": 0.1923074999999983,
            "durationTicks": 50,
            "midi": 29,
            "name": "F1",
            "ticks": 38040,
            "time": 146.30754599999997,
            "velocity": 0.49606299212598426
          },
          {
            "duration": 0.1923074999999983,
            "durationTicks": 50,
            "midi": 29,
            "name": "F1",
            "ticks": 38100,
            "time": 146.53831499999998,
            "velocity": 0.5039370078740157
          },
          {
            "duration": 0.19230750000002672,
            "durationTicks": 50,
            "midi": 29,
            "name": "F1",
            "ticks": 38160,
            "time": 146.76908399999996,
            "velocity": 0.5275590551181102
          },
          {
            "duration": 0.1923074999999983,
            "durationTicks": 50,
            "midi": 29,
            "name": "F1",
            "ticks": 38220,
            "time": 146.99985299999997,
            "velocity": 0.5039370078740157
          },
          {
            "duration": 0.1923074999999983,
            "durationTicks": 50,
            "midi": 29,
            "name": "F1",
            "ticks": 38280,
            "time": 147.23062199999998,
            "velocity": 0.5039370078740157
          },
          {
            "duration": 0.19230750000002672,
            "durationTicks": 50,
            "midi": 29,
            "name": "F1",
            "ticks": 38340,
            "time": 147.46139099999996,
            "velocity": 0.5590551181102362
          },
          {
            "duration": 0.1923074999999983,
            "durationTicks": 50,
            "midi": 29,
            "name": "F1",
            "ticks": 38400,
            "time": 147.69215999999997,
            "velocity": 0.5354330708661418
          },
          {
            "duration": 0.1923074999999983,
            "durationTicks": 50,
            "midi": 29,
            "name": "F1",
            "ticks": 38460,
            "time": 147.92292899999998,
            "velocity": 0.5039370078740157
          },
          {
            "duration": 0.19230750000002672,
            "durationTicks": 50,
            "midi": 29,
            "name": "F1",
            "ticks": 38520,
            "time": 148.15369799999996,
            "velocity": 0.49606299212598426
          },
          {
            "duration": 0.1923074999999983,
            "durationTicks": 50,
            "midi": 29,
            "name": "F1",
            "ticks": 38580,
            "time": 148.38446699999997,
            "velocity": 0.5039370078740157
          },
          {
            "duration": 0.1923074999999983,
            "durationTicks": 50,
            "midi": 29,
            "name": "F1",
            "ticks": 38640,
            "time": 148.61523599999998,
            "velocity": 0.5275590551181102
          },
          {
            "duration": 0.19230750000002672,
            "durationTicks": 50,
            "midi": 29,
            "name": "F1",
            "ticks": 38700,
            "time": 148.84600499999996,
            "velocity": 0.5039370078740157
          },
          {
            "duration": 0.1923074999999983,
            "durationTicks": 50,
            "midi": 29,
            "name": "F1",
            "ticks": 38760,
            "time": 149.07677399999997,
            "velocity": 0.5039370078740157
          },
          {
            "duration": 0.1923074999999983,
            "durationTicks": 50,
            "midi": 29,
            "name": "F1",
            "ticks": 38820,
            "time": 149.30754299999998,
            "velocity": 0.5590551181102362
          },
          {
            "duration": 0.19230750000002672,
            "durationTicks": 50,
            "midi": 29,
            "name": "F1",
            "ticks": 38880,
            "time": 149.53831199999996,
            "velocity": 0.5354330708661418
          },
          {
            "duration": 0.1923074999999983,
            "durationTicks": 50,
            "midi": 29,
            "name": "F1",
            "ticks": 38940,
            "time": 149.76908099999997,
            "velocity": 0.5039370078740157
          },
          {
            "duration": 0.1923074999999983,
            "durationTicks": 50,
            "midi": 29,
            "name": "F1",
            "ticks": 39000,
            "time": 149.99984999999998,
            "velocity": 0.49606299212598426
          },
          {
            "duration": 0.19230750000002672,
            "durationTicks": 50,
            "midi": 29,
            "name": "F1",
            "ticks": 39060,
            "time": 150.23061899999996,
            "velocity": 0.5039370078740157
          },
          {
            "duration": 0.1923074999999983,
            "durationTicks": 50,
            "midi": 29,
            "name": "F1",
            "ticks": 39120,
            "time": 150.46138799999997,
            "velocity": 0.5275590551181102
          },
          {
            "duration": 0.1923074999999983,
            "durationTicks": 50,
            "midi": 29,
            "name": "F1",
            "ticks": 39180,
            "time": 150.69215699999998,
            "velocity": 0.5039370078740157
          },
          {
            "duration": 0.19230750000002672,
            "durationTicks": 50,
            "midi": 29,
            "name": "F1",
            "ticks": 39240,
            "time": 150.92292599999996,
            "velocity": 0.5039370078740157
          },
          {
            "duration": 0.1923074999999983,
            "durationTicks": 50,
            "midi": 29,
            "name": "F1",
            "ticks": 39300,
            "time": 151.15369499999997,
            "velocity": 0.5590551181102362
          },
          {
            "duration": 0.1923074999999983,
            "durationTicks": 50,
            "midi": 29,
            "name": "F1",
            "ticks": 39360,
            "time": 151.38446399999998,
            "velocity": 0.5354330708661418
          },
          {
            "duration": 0.19230750000002672,
            "durationTicks": 50,
            "midi": 29,
            "name": "F1",
            "ticks": 39420,
            "time": 151.61523299999996,
            "velocity": 0.5039370078740157
          },
          {
            "duration": 0.1923074999999983,
            "durationTicks": 50,
            "midi": 29,
            "name": "F1",
            "ticks": 39480,
            "time": 151.84600199999997,
            "velocity": 0.49606299212598426
          },
          {
            "duration": 0.1923074999999983,
            "durationTicks": 50,
            "midi": 29,
            "name": "F1",
            "ticks": 39540,
            "time": 152.07677099999998,
            "velocity": 0.5039370078740157
          },
          {
            "duration": 0.19230750000002672,
            "durationTicks": 50,
            "midi": 29,
            "name": "F1",
            "ticks": 39600,
            "time": 152.30753999999996,
            "velocity": 0.5275590551181102
          },
          {
            "duration": 0.1923074999999983,
            "durationTicks": 50,
            "midi": 29,
            "name": "F1",
            "ticks": 39660,
            "time": 152.53830899999997,
            "velocity": 0.5039370078740157
          },
          {
            "duration": 0.1923074999999983,
            "durationTicks": 50,
            "midi": 29,
            "name": "F1",
            "ticks": 39720,
            "time": 152.76907799999998,
            "velocity": 0.5039370078740157
          },
          {
            "duration": 0.19230750000002672,
            "durationTicks": 50,
            "midi": 29,
            "name": "F1",
            "ticks": 39780,
            "time": 152.99984699999996,
            "velocity": 0.5590551181102362
          },
          {
            "duration": 0.1961536500000136,
            "durationTicks": 51,
            "midi": 29,
            "name": "F1",
            "ticks": 39840,
            "time": 153.23061599999997,
            "velocity": 0.8110236220472441
          },
          {
            "duration": 0.2153843999999765,
            "durationTicks": 56,
            "midi": 29,
            "name": "F1",
            "ticks": 39930,
            "time": 153.57676949999998,
            "velocity": 0.8031496062992126
          },
          {
            "duration": 0.27692280000002256,
            "durationTicks": 72,
            "midi": 29,
            "name": "F1",
            "ticks": 40020,
            "time": 153.92292299999997,
            "velocity": 0.8031496062992126
          },
          {
            "duration": 0.30384585000001607,
            "durationTicks": 79,
            "midi": 29,
            "name": "F1",
            "ticks": 40140,
            "time": 154.38446099999996,
            "velocity": 0.8110236220472441
          },
          {
            "duration": 0.16923059999999168,
            "durationTicks": 44,
            "midi": 29,
            "name": "F1",
            "ticks": 40230,
            "time": 154.73061449999997,
            "velocity": 0.7716535433070866
          },
          {
            "duration": 0.23461514999999622,
            "durationTicks": 61,
            "midi": 27,
            "name": "D#1",
            "ticks": 40320,
            "time": 155.07676799999996,
            "velocity": 0.7637795275590551
          },
          {
            "duration": 0.24615360000001374,
            "durationTicks": 64,
            "midi": 27,
            "name": "D#1",
            "ticks": 40410,
            "time": 155.42292149999997,
            "velocity": 0.8267716535433071
          },
          {
            "duration": 0.29999970000000076,
            "durationTicks": 78,
            "midi": 25,
            "name": "C#1",
            "ticks": 40500,
            "time": 155.76907499999996,
            "velocity": 0.8267716535433071
          },
          {
            "duration": 0.28076895000000945,
            "durationTicks": 73,
            "midi": 25,
            "name": "C#1",
            "ticks": 40620,
            "time": 156.23061299999998,
            "velocity": 0.8346456692913385
          },
          {
            "duration": 0.173076750000007,
            "durationTicks": 45,
            "midi": 25,
            "name": "C#1",
            "ticks": 40710,
            "time": 156.57676649999996,
            "velocity": 0.8582677165354331
          },
          {
            "duration": 0.1961536500000136,
            "durationTicks": 51,
            "midi": 29,
            "name": "F1",
            "ticks": 40800,
            "time": 156.92291999999998,
            "velocity": 0.8110236220472441
          },
          {
            "duration": 0.21538440000000492,
            "durationTicks": 56,
            "midi": 29,
            "name": "F1",
            "ticks": 40890,
            "time": 157.26907349999996,
            "velocity": 0.8031496062992126
          },
          {
            "duration": 0.27692279999999414,
            "durationTicks": 72,
            "midi": 29,
            "name": "F1",
            "ticks": 40980,
            "time": 157.61522699999998,
            "velocity": 0.8031496062992126
          },
          {
            "duration": 0.30384585000001607,
            "durationTicks": 79,
            "midi": 29,
            "name": "F1",
            "ticks": 41100,
            "time": 158.07676499999997,
            "velocity": 0.8110236220472441
          },
          {
            "duration": 0.16923059999999168,
            "durationTicks": 44,
            "midi": 29,
            "name": "F1",
            "ticks": 41190,
            "time": 158.42291849999998,
            "velocity": 0.7716535433070866
          },
          {
            "duration": 0.1961536499999852,
            "durationTicks": 51,
            "midi": 29,
            "name": "F1",
            "ticks": 41760,
            "time": 160.61522399999998,
            "velocity": 0.8110236220472441
          },
          {
            "duration": 0.2153843999999765,
            "durationTicks": 56,
            "midi": 29,
            "name": "F1",
            "ticks": 41850,
            "time": 160.96137749999997,
            "velocity": 0.8031496062992126
          },
          {
            "duration": 0.27692279999999414,
            "durationTicks": 72,
            "midi": 29,
            "name": "F1",
            "ticks": 41940,
            "time": 161.30753099999998,
            "velocity": 0.8031496062992126
          },
          {
            "duration": 0.30384585000001607,
            "durationTicks": 79,
            "midi": 29,
            "name": "F1",
            "ticks": 42060,
            "time": 161.76906899999997,
            "velocity": 0.8110236220472441
          },
          {
            "duration": 0.1692306000000201,
            "durationTicks": 44,
            "midi": 29,
            "name": "F1",
            "ticks": 42150,
            "time": 162.11522249999996,
            "velocity": 0.7716535433070866
          },
          {
            "duration": 0.23461514999999622,
            "durationTicks": 61,
            "midi": 27,
            "name": "D#1",
            "ticks": 42240,
            "time": 162.46137599999997,
            "velocity": 0.7637795275590551
          },
          {
            "duration": 0.24615360000001374,
            "durationTicks": 64,
            "midi": 27,
            "name": "D#1",
            "ticks": 42330,
            "time": 162.80752949999996,
            "velocity": 0.8267716535433071
          },
          {
            "duration": 0.29999970000000076,
            "durationTicks": 78,
            "midi": 25,
            "name": "C#1",
            "ticks": 42420,
            "time": 163.15368299999997,
            "velocity": 0.8267716535433071
          },
          {
            "duration": 0.28076895000000945,
            "durationTicks": 73,
            "midi": 25,
            "name": "C#1",
            "ticks": 42540,
            "time": 163.61522099999996,
            "velocity": 0.8346456692913385
          },
          {
            "duration": 0.173076750000007,
            "durationTicks": 45,
            "midi": 25,
            "name": "C#1",
            "ticks": 42630,
            "time": 163.96137449999998,
            "velocity": 0.8582677165354331
          },
          {
            "duration": 0.1961536500000136,
            "durationTicks": 51,
            "midi": 29,
            "name": "F1",
            "ticks": 42720,
            "time": 164.30752799999996,
            "velocity": 0.8110236220472441
          },
          {
            "duration": 0.2153843999999765,
            "durationTicks": 56,
            "midi": 29,
            "name": "F1",
            "ticks": 42810,
            "time": 164.65368149999998,
            "velocity": 0.8031496062992126
          },
          {
            "duration": 0.27692280000002256,
            "durationTicks": 72,
            "midi": 29,
            "name": "F1",
            "ticks": 42900,
            "time": 164.99983499999996,
            "velocity": 0.8031496062992126
          },
          {
            "duration": 0.30384585000001607,
            "durationTicks": 79,
            "midi": 29,
            "name": "F1",
            "ticks": 43020,
            "time": 165.46137299999998,
            "velocity": 0.8110236220472441
          },
          {
            "duration": 0.1692306000000201,
            "durationTicks": 44,
            "midi": 29,
            "name": "F1",
            "ticks": 43110,
            "time": 165.80752649999997,
            "velocity": 0.7716535433070866
          },
          {
            "duration": 0.23461514999999622,
            "durationTicks": 61,
            "midi": 27,
            "name": "D#1",
            "ticks": 43200,
            "time": 166.15367999999998,
            "velocity": 0.7637795275590551
          },
          {
            "duration": 0.24615360000001374,
            "durationTicks": 64,
            "midi": 27,
            "name": "D#1",
            "ticks": 43290,
            "time": 166.49983349999997,
            "velocity": 0.8267716535433071
          },
          {
            "duration": 0.29999969999997234,
            "durationTicks": 78,
            "midi": 25,
            "name": "C#1",
            "ticks": 43380,
            "time": 166.84598699999998,
            "velocity": 0.8267716535433071
          },
          {
            "duration": 0.28076895000000945,
            "durationTicks": 73,
            "midi": 25,
            "name": "C#1",
            "ticks": 43500,
            "time": 167.30752499999997,
            "velocity": 0.8346456692913385
          },
          {
            "duration": 0.17307674999997857,
            "durationTicks": 45,
            "midi": 25,
            "name": "C#1",
            "ticks": 43590,
            "time": 167.65367849999998,
            "velocity": 0.8582677165354331
          },
          {
            "duration": 0.1961536499999852,
            "durationTicks": 51,
            "midi": 29,
            "name": "F1",
            "ticks": 45600,
            "time": 175.38443999999998,
            "velocity": 0.8110236220472441
          },
          {
            "duration": 0.2153843999999765,
            "durationTicks": 56,
            "midi": 29,
            "name": "F1",
            "ticks": 45690,
            "time": 175.73059349999997,
            "velocity": 0.8031496062992126
          },
          {
            "duration": 0.27692279999999414,
            "durationTicks": 72,
            "midi": 29,
            "name": "F1",
            "ticks": 45780,
            "time": 176.07674699999998,
            "velocity": 0.8031496062992126
          },
          {
            "duration": 0.30384585000001607,
            "durationTicks": 79,
            "midi": 29,
            "name": "F1",
            "ticks": 45900,
            "time": 176.53828499999997,
            "velocity": 0.8110236220472441
          },
          {
            "duration": 0.1692306000000201,
            "durationTicks": 44,
            "midi": 29,
            "name": "F1",
            "ticks": 45990,
            "time": 176.88443849999996,
            "velocity": 0.7716535433070866
          },
          {
            "duration": 0.23461514999999622,
            "durationTicks": 61,
            "midi": 27,
            "name": "D#1",
            "ticks": 46080,
            "time": 177.23059199999997,
            "velocity": 0.7637795275590551
          },
          {
            "duration": 0.24615360000001374,
            "durationTicks": 64,
            "midi": 27,
            "name": "D#1",
            "ticks": 46170,
            "time": 177.57674549999996,
            "velocity": 0.8267716535433071
          },
          {
            "duration": 0.29999969999997234,
            "durationTicks": 78,
            "midi": 25,
            "name": "C#1",
            "ticks": 46260,
            "time": 177.92289899999997,
            "velocity": 0.8267716535433071
          },
          {
            "duration": 0.28076895000000945,
            "durationTicks": 73,
            "midi": 25,
            "name": "C#1",
            "ticks": 46380,
            "time": 178.38443699999996,
            "velocity": 0.8346456692913385
          },
          {
            "duration": 0.17307674999997857,
            "durationTicks": 45,
            "midi": 25,
            "name": "C#1",
            "ticks": 46470,
            "time": 178.73059049999998,
            "velocity": 0.8582677165354331
          },
          {
            "duration": 0.1961536500000136,
            "durationTicks": 51,
            "midi": 29,
            "name": "F1",
            "ticks": 46560,
            "time": 179.07674399999996,
            "velocity": 0.8110236220472441
          },
          {
            "duration": 0.2153843999999765,
            "durationTicks": 56,
            "midi": 29,
            "name": "F1",
            "ticks": 46650,
            "time": 179.42289749999998,
            "velocity": 0.8031496062992126
          },
          {
            "duration": 0.27692280000002256,
            "durationTicks": 72,
            "midi": 29,
            "name": "F1",
            "ticks": 46740,
            "time": 179.76905099999996,
            "velocity": 0.8031496062992126
          },
          {
            "duration": 0.30384584999998765,
            "durationTicks": 79,
            "midi": 29,
            "name": "F1",
            "ticks": 46860,
            "time": 180.23058899999998,
            "velocity": 0.8110236220472441
          },
          {
            "duration": 0.1692306000000201,
            "durationTicks": 44,
            "midi": 29,
            "name": "F1",
            "ticks": 46950,
            "time": 180.57674249999997,
            "velocity": 0.7716535433070866
          },
          {
            "duration": 0.23461514999999622,
            "durationTicks": 61,
            "midi": 27,
            "name": "D#1",
            "ticks": 47040,
            "time": 180.92289599999998,
            "velocity": 0.7637795275590551
          },
          {
            "duration": 0.24615360000001374,
            "durationTicks": 64,
            "midi": 27,
            "name": "D#1",
            "ticks": 47130,
            "time": 181.26904949999997,
            "velocity": 0.8267716535433071
          },
          {
            "duration": 0.29999969999997234,
            "durationTicks": 78,
            "midi": 25,
            "name": "C#1",
            "ticks": 47220,
            "time": 181.61520299999998,
            "velocity": 0.8267716535433071
          },
          {
            "duration": 0.28076895000000945,
            "durationTicks": 73,
            "midi": 25,
            "name": "C#1",
            "ticks": 47340,
            "time": 182.07674099999997,
            "velocity": 0.8346456692913385
          },
          {
            "duration": 0.173076750000007,
            "durationTicks": 45,
            "midi": 25,
            "name": "C#1",
            "ticks": 47430,
            "time": 182.42289449999996,
            "velocity": 0.8582677165354331
          },
          {
            "duration": 0.1961536500000136,
            "durationTicks": 51,
            "midi": 29,
            "name": "F1",
            "ticks": 47520,
            "time": 182.76904799999997,
            "velocity": 0.8110236220472441
          },
          {
            "duration": 0.21538440000000492,
            "durationTicks": 56,
            "midi": 29,
            "name": "F1",
            "ticks": 47610,
            "time": 183.11520149999996,
            "velocity": 0.8031496062992126
          },
          {
            "duration": 0.27692280000002256,
            "durationTicks": 72,
            "midi": 29,
            "name": "F1",
            "ticks": 47700,
            "time": 183.46135499999997,
            "velocity": 0.8031496062992126
          },
          {
            "duration": 0.30384585000001607,
            "durationTicks": 79,
            "midi": 29,
            "name": "F1",
            "ticks": 47820,
            "time": 183.92289299999996,
            "velocity": 0.8110236220472441
          },
          {
            "duration": 0.16923059999999168,
            "durationTicks": 44,
            "midi": 29,
            "name": "F1",
            "ticks": 47910,
            "time": 184.26904649999997,
            "velocity": 0.7716535433070866
          },
          {
            "duration": 0.1961536500000136,
            "durationTicks": 51,
            "midi": 29,
            "name": "F1",
            "ticks": 48000,
            "time": 184.61519999999996,
            "velocity": 0.8110236220472441
          },
          {
            "duration": 0.2153843999999765,
            "durationTicks": 56,
            "midi": 29,
            "name": "F1",
            "ticks": 48090,
            "time": 184.96135349999997,
            "velocity": 0.8031496062992126
          },
          {
            "duration": 0.27692280000002256,
            "durationTicks": 72,
            "midi": 29,
            "name": "F1",
            "ticks": 48180,
            "time": 185.30750699999996,
            "velocity": 0.8031496062992126
          },
          {
            "duration": 0.30384585000001607,
            "durationTicks": 79,
            "midi": 29,
            "name": "F1",
            "ticks": 48300,
            "time": 185.76904499999998,
            "velocity": 0.8110236220472441
          },
          {
            "duration": 0.1692306000000201,
            "durationTicks": 44,
            "midi": 29,
            "name": "F1",
            "ticks": 48390,
            "time": 186.11519849999996,
            "velocity": 0.7716535433070866
          },
          {
            "duration": 0.1961536499999852,
            "durationTicks": 51,
            "midi": 29,
            "name": "F1",
            "ticks": 48480,
            "time": 186.46135199999998,
            "velocity": 0.8110236220472441
          },
          {
            "duration": 0.21538440000000492,
            "durationTicks": 56,
            "midi": 29,
            "name": "F1",
            "ticks": 48570,
            "time": 186.80750549999996,
            "velocity": 0.8031496062992126
          },
          {
            "duration": 0.27692279999999414,
            "durationTicks": 72,
            "midi": 29,
            "name": "F1",
            "ticks": 48660,
            "time": 187.15365899999998,
            "velocity": 0.8031496062992126
          },
          {
            "duration": 0.30384585000001607,
            "durationTicks": 79,
            "midi": 29,
            "name": "F1",
            "ticks": 48780,
            "time": 187.61519699999997,
            "velocity": 0.8110236220472441
          },
          {
            "duration": 0.16923059999999168,
            "durationTicks": 44,
            "midi": 29,
            "name": "F1",
            "ticks": 48870,
            "time": 187.96135049999998,
            "velocity": 0.7716535433070866
          },
          {
            "duration": 0.1961536500000136,
            "durationTicks": 51,
            "midi": 29,
            "name": "F1",
            "ticks": 48960,
            "time": 188.30750399999997,
            "velocity": 0.8110236220472441
          },
          {
            "duration": 0.2153843999999765,
            "durationTicks": 56,
            "midi": 29,
            "name": "F1",
            "ticks": 49050,
            "time": 188.65365749999998,
            "velocity": 0.8031496062992126
          },
          {
            "duration": 0.27692280000002256,
            "durationTicks": 72,
            "midi": 29,
            "name": "F1",
            "ticks": 49140,
            "time": 188.99981099999997,
            "velocity": 0.8031496062992126
          },
          {
            "duration": 0.30384585000001607,
            "durationTicks": 79,
            "midi": 29,
            "name": "F1",
            "ticks": 49260,
            "time": 189.46134899999996,
            "velocity": 0.8110236220472441
          },
          {
            "duration": 0.16923059999999168,
            "durationTicks": 44,
            "midi": 29,
            "name": "F1",
            "ticks": 49350,
            "time": 189.80750249999997,
            "velocity": 0.7716535433070866
          },
          {
            "duration": 0.1961536500000136,
            "durationTicks": 51,
            "midi": 29,
            "name": "F1",
            "ticks": 49440,
            "time": 190.15365599999996,
            "velocity": 0.8110236220472441
          },
          {
            "duration": 0.2153843999999765,
            "durationTicks": 56,
            "midi": 29,
            "name": "F1",
            "ticks": 49530,
            "time": 190.49980949999997,
            "velocity": 0.8031496062992126
          },
          {
            "duration": 0.27692280000002256,
            "durationTicks": 72,
            "midi": 29,
            "name": "F1",
            "ticks": 49620,
            "time": 190.84596299999995,
            "velocity": 0.8031496062992126
          },
          {
            "duration": 0.30384585000001607,
            "durationTicks": 79,
            "midi": 29,
            "name": "F1",
            "ticks": 49740,
            "time": 191.30750099999997,
            "velocity": 0.8110236220472441
          },
          {
            "duration": 0.1692306000000201,
            "durationTicks": 44,
            "midi": 29,
            "name": "F1",
            "ticks": 49830,
            "time": 191.65365449999996,
            "velocity": 0.7716535433070866
          },
          {
            "duration": 0.1961536500000136,
            "durationTicks": 51,
            "midi": 29,
            "name": "F1",
            "ticks": 49920,
            "time": 191.99980799999997,
            "velocity": 0.8110236220472441
          },
          {
            "duration": 0.21538440000000492,
            "durationTicks": 56,
            "midi": 29,
            "name": "F1",
            "ticks": 50010,
            "time": 192.34596149999996,
            "velocity": 0.8031496062992126
          },
          {
            "duration": 0.27692279999999414,
            "durationTicks": 72,
            "midi": 29,
            "name": "F1",
            "ticks": 50100,
            "time": 192.69211499999997,
            "velocity": 0.8031496062992126
          },
          {
            "duration": 0.30384585000001607,
            "durationTicks": 79,
            "midi": 29,
            "name": "F1",
            "ticks": 50220,
            "time": 193.15365299999996,
            "velocity": 0.8110236220472441
          },
          {
            "duration": 0.16923059999999168,
            "durationTicks": 44,
            "midi": 29,
            "name": "F1",
            "ticks": 50310,
            "time": 193.49980649999998,
            "velocity": 0.7716535433070866
          },
          {
            "duration": 0.1961536500000136,
            "durationTicks": 51,
            "midi": 29,
            "name": "F1",
            "ticks": 50400,
            "time": 193.84595999999996,
            "velocity": 0.8110236220472441
          },
          {
            "duration": 0.2153843999999765,
            "durationTicks": 56,
            "midi": 29,
            "name": "F1",
            "ticks": 50490,
            "time": 194.19211349999998,
            "velocity": 0.8031496062992126
          },
          {
            "duration": 0.27692280000002256,
            "durationTicks": 72,
            "midi": 29,
            "name": "F1",
            "ticks": 50580,
            "time": 194.53826699999996,
            "velocity": 0.8031496062992126
          },
          {
            "duration": 0.30384584999998765,
            "durationTicks": 79,
            "midi": 29,
            "name": "F1",
            "ticks": 50700,
            "time": 194.99980499999998,
            "velocity": 0.8110236220472441
          },
          {
            "duration": 0.16923059999999168,
            "durationTicks": 44,
            "midi": 29,
            "name": "F1",
            "ticks": 50790,
            "time": 195.34595849999997,
            "velocity": 0.7716535433070866
          },
          {
            "duration": 0.1961536499999852,
            "durationTicks": 51,
            "midi": 29,
            "name": "F1",
            "ticks": 50880,
            "time": 195.69211199999998,
            "velocity": 0.8110236220472441
          },
          {
            "duration": 0.2153843999999765,
            "durationTicks": 56,
            "midi": 29,
            "name": "F1",
            "ticks": 50970,
            "time": 196.03826549999997,
            "velocity": 0.8031496062992126
          },
          {
            "duration": 0.27692279999999414,
            "durationTicks": 72,
            "midi": 29,
            "name": "F1",
            "ticks": 51060,
            "time": 196.38441899999998,
            "velocity": 0.8031496062992126
          },
          {
            "duration": 0.30384585000001607,
            "durationTicks": 79,
            "midi": 29,
            "name": "F1",
            "ticks": 51180,
            "time": 196.84595699999997,
            "velocity": 0.8110236220472441
          },
          {
            "duration": 0.1692306000000201,
            "durationTicks": 44,
            "midi": 29,
            "name": "F1",
            "ticks": 51270,
            "time": 197.19211049999996,
            "velocity": 0.7716535433070866
          },
          {
            "duration": 0.1961536500000136,
            "durationTicks": 51,
            "midi": 29,
            "name": "F1",
            "ticks": 51360,
            "time": 197.53826399999997,
            "velocity": 0.8110236220472441
          },
          {
            "duration": 0.21538440000000492,
            "durationTicks": 56,
            "midi": 29,
            "name": "F1",
            "ticks": 51450,
            "time": 197.88441749999996,
            "velocity": 0.8031496062992126
          },
          {
            "duration": 0.27692280000002256,
            "durationTicks": 72,
            "midi": 29,
            "name": "F1",
            "ticks": 51540,
            "time": 198.23057099999997,
            "velocity": 0.8031496062992126
          },
          {
            "duration": 0.30384585000001607,
            "durationTicks": 79,
            "midi": 29,
            "name": "F1",
            "ticks": 51660,
            "time": 198.69210899999996,
            "velocity": 0.8110236220472441
          },
          {
            "duration": 0.16923059999999168,
            "durationTicks": 44,
            "midi": 29,
            "name": "F1",
            "ticks": 51750,
            "time": 199.03826249999997,
            "velocity": 0.7716535433070866
          },
          {
            "duration": 0.23461514999999622,
            "durationTicks": 61,
            "midi": 27,
            "name": "D#1",
            "ticks": 51840,
            "time": 199.38441599999996,
            "velocity": 0.7637795275590551
          },
          {
            "duration": 0.24615360000001374,
            "durationTicks": 64,
            "midi": 27,
            "name": "D#1",
            "ticks": 51930,
            "time": 199.73056949999997,
            "velocity": 0.8267716535433071
          },
          {
            "duration": 0.29999970000000076,
            "durationTicks": 78,
            "midi": 25,
            "name": "C#1",
            "ticks": 52020,
            "time": 200.07672299999996,
            "velocity": 0.8267716535433071
          },
          {
            "duration": 0.28076895000000945,
            "durationTicks": 73,
            "midi": 25,
            "name": "C#1",
            "ticks": 52140,
            "time": 200.53826099999998,
            "velocity": 0.8346456692913385
          },
          {
            "duration": 0.173076750000007,
            "durationTicks": 45,
            "midi": 25,
            "name": "C#1",
            "ticks": 52230,
            "time": 200.88441449999996,
            "velocity": 0.8582677165354331
          },
          {
            "duration": 0.1961536499999852,
            "durationTicks": 51,
            "midi": 29,
            "name": "F1",
            "ticks": 52320,
            "time": 201.23056799999998,
            "velocity": 0.8110236220472441
          },
          {
            "duration": 0.21538440000000492,
            "durationTicks": 56,
            "midi": 29,
            "name": "F1",
            "ticks": 52410,
            "time": 201.57672149999996,
            "velocity": 0.8031496062992126
          },
          {
            "duration": 0.27692279999999414,
            "durationTicks": 72,
            "midi": 29,
            "name": "F1",
            "ticks": 52500,
            "time": 201.92287499999998,
            "velocity": 0.8031496062992126
          },
          {
            "duration": 0.30384585000001607,
            "durationTicks": 79,
            "midi": 29,
            "name": "F1",
            "ticks": 52620,
            "time": 202.38441299999997,
            "velocity": 0.8110236220472441
          },
          {
            "duration": 0.16923059999999168,
            "durationTicks": 44,
            "midi": 29,
            "name": "F1",
            "ticks": 52710,
            "time": 202.73056649999998,
            "velocity": 0.7716535433070866
          },
          {
            "duration": 0.23461514999999622,
            "durationTicks": 61,
            "midi": 27,
            "name": "D#1",
            "ticks": 52800,
            "time": 203.07671999999997,
            "velocity": 0.7637795275590551
          },
          {
            "duration": 0.24615359999998532,
            "durationTicks": 64,
            "midi": 27,
            "name": "D#1",
            "ticks": 52890,
            "time": 203.42287349999998,
            "velocity": 0.8267716535433071
          },
          {
            "duration": 0.29999970000000076,
            "durationTicks": 78,
            "midi": 25,
            "name": "C#1",
            "ticks": 52980,
            "time": 203.76902699999997,
            "velocity": 0.8267716535433071
          },
          {
            "duration": 0.28076895000000945,
            "durationTicks": 73,
            "midi": 25,
            "name": "C#1",
            "ticks": 53100,
            "time": 204.23056499999996,
            "velocity": 0.8346456692913385
          },
          {
            "duration": 0.173076750000007,
            "durationTicks": 45,
            "midi": 25,
            "name": "C#1",
            "ticks": 53190,
            "time": 204.57671849999997,
            "velocity": 0.8582677165354331
          },
          {
            "duration": 0.1961536500000136,
            "durationTicks": 51,
            "midi": 29,
            "name": "F1",
            "ticks": 53280,
            "time": 204.92287199999996,
            "velocity": 0.8110236220472441
          },
          {
            "duration": 0.2153843999999765,
            "durationTicks": 56,
            "midi": 29,
            "name": "F1",
            "ticks": 53370,
            "time": 205.26902549999997,
            "velocity": 0.8031496062992126
          },
          {
            "duration": 0.27692280000002256,
            "durationTicks": 72,
            "midi": 29,
            "name": "F1",
            "ticks": 53460,
            "time": 205.61517899999996,
            "velocity": 0.8031496062992126
          },
          {
            "duration": 0.30384585000001607,
            "durationTicks": 79,
            "midi": 29,
            "name": "F1",
            "ticks": 53580,
            "time": 206.07671699999997,
            "velocity": 0.8110236220472441
          },
          {
            "duration": 0.1692306000000201,
            "durationTicks": 44,
            "midi": 29,
            "name": "F1",
            "ticks": 53670,
            "time": 206.42287049999996,
            "velocity": 0.7716535433070866
          },
          {
            "duration": 0.23461514999999622,
            "durationTicks": 61,
            "midi": 27,
            "name": "D#1",
            "ticks": 53760,
            "time": 206.76902399999997,
            "velocity": 0.7637795275590551
          },
          {
            "duration": 0.24615360000001374,
            "durationTicks": 64,
            "midi": 27,
            "name": "D#1",
            "ticks": 53850,
            "time": 207.11517749999996,
            "velocity": 0.8267716535433071
          },
          {
            "duration": 0.29999969999997234,
            "durationTicks": 78,
            "midi": 25,
            "name": "C#1",
            "ticks": 53940,
            "time": 207.46133099999997,
            "velocity": 0.8267716535433071
          },
          {
            "duration": 0.28076895000000945,
            "durationTicks": 73,
            "midi": 25,
            "name": "C#1",
            "ticks": 54060,
            "time": 207.92286899999996,
            "velocity": 0.8346456692913385
          },
          {
            "duration": 0.17307674999997857,
            "durationTicks": 45,
            "midi": 25,
            "name": "C#1",
            "ticks": 54150,
            "time": 208.26902249999998,
            "velocity": 0.8582677165354331
          },
          {
            "duration": 0.1961536500000136,
            "durationTicks": 51,
            "midi": 29,
            "name": "F1",
            "ticks": 54240,
            "time": 208.61517599999996,
            "velocity": 0.8110236220472441
          },
          {
            "duration": 0.2153843999999765,
            "durationTicks": 56,
            "midi": 29,
            "name": "F1",
            "ticks": 54330,
            "time": 208.96132949999998,
            "velocity": 0.8031496062992126
          },
          {
            "duration": 0.27692280000002256,
            "durationTicks": 72,
            "midi": 29,
            "name": "F1",
            "ticks": 54420,
            "time": 209.30748299999996,
            "velocity": 0.8031496062992126
          },
          {
            "duration": 0.30384585000001607,
            "durationTicks": 79,
            "midi": 29,
            "name": "F1",
            "ticks": 54540,
            "time": 209.76902099999995,
            "velocity": 0.8110236220472441
          },
          {
            "duration": 0.16923059999999168,
            "durationTicks": 44,
            "midi": 29,
            "name": "F1",
            "ticks": 54630,
            "time": 210.11517449999997,
            "velocity": 0.7716535433070866
          },
          {
            "duration": 0.23461515000002464,
            "durationTicks": 61,
            "midi": 27,
            "name": "D#1",
            "ticks": 54720,
            "time": 210.46132799999995,
            "velocity": 0.7637795275590551
          },
          {
            "duration": 0.24615360000001374,
            "durationTicks": 64,
            "midi": 27,
            "name": "D#1",
            "ticks": 54810,
            "time": 210.80748149999997,
            "velocity": 0.8267716535433071
          },
          {
            "duration": 0.29999969999997234,
            "durationTicks": 78,
            "midi": 25,
            "name": "C#1",
            "ticks": 54900,
            "time": 211.15363499999998,
            "velocity": 0.8267716535433071
          },
          {
            "duration": 0.28076895000000945,
            "durationTicks": 73,
            "midi": 25,
            "name": "C#1",
            "ticks": 55020,
            "time": 211.61517299999997,
            "velocity": 0.8346456692913385
          },
          {
            "duration": 0.173076750000007,
            "durationTicks": 45,
            "midi": 25,
            "name": "C#1",
            "ticks": 55110,
            "time": 211.96132649999996,
            "velocity": 0.8582677165354331
          },
          {
            "duration": 0.23076900000000933,
            "durationTicks": 60,
            "midi": 29,
            "name": "F1",
            "ticks": 55200,
            "time": 212.30747999999997,
            "velocity": 0.7322834645669292
          },
          {
            "duration": 0.2307689999999809,
            "durationTicks": 60,
            "midi": 41,
            "name": "F2",
            "ticks": 55260,
            "time": 212.53824899999998,
            "velocity": 0.7322834645669292
          },
          {
            "duration": 0.23076900000000933,
            "durationTicks": 60,
            "midi": 29,
            "name": "F1",
            "ticks": 55320,
            "time": 212.76901799999996,
            "velocity": 0.7244094488188977
          },
          {
            "duration": 0.23076900000000933,
            "durationTicks": 60,
            "midi": 41,
            "name": "F2",
            "ticks": 55380,
            "time": 212.99978699999997,
            "velocity": 0.7086614173228346
          },
          {
            "duration": 0.2307689999999809,
            "durationTicks": 60,
            "midi": 29,
            "name": "F1",
            "ticks": 55440,
            "time": 213.23055599999998,
            "velocity": 0.6456692913385826
          },
          {
            "duration": 0.23076900000000933,
            "durationTicks": 60,
            "midi": 41,
            "name": "F2",
            "ticks": 55500,
            "time": 213.46132499999996,
            "velocity": 0.6692913385826772
          },
          {
            "duration": 0.23076900000000933,
            "durationTicks": 60,
            "midi": 29,
            "name": "F1",
            "ticks": 55560,
            "time": 213.69209399999997,
            "velocity": 0.6220472440944882
          },
          {
            "duration": 0.2307689999999809,
            "durationTicks": 60,
            "midi": 41,
            "name": "F2",
            "ticks": 55620,
            "time": 213.92286299999998,
            "velocity": 0.6771653543307087
          },
          {
            "duration": 0.23076900000000933,
            "durationTicks": 60,
            "midi": 25,
            "name": "C#1",
            "ticks": 55680,
            "time": 214.15363199999996,
            "velocity": 0.7874015748031497
          },
          {
            "duration": 0.23076900000000933,
            "durationTicks": 60,
            "midi": 37,
            "name": "C#2",
            "ticks": 55740,
            "time": 214.38440099999997,
            "velocity": 0.7322834645669292
          },
          {
            "duration": 0.2307689999999809,
            "durationTicks": 60,
            "midi": 25,
            "name": "C#1",
            "ticks": 55800,
            "time": 214.61516999999998,
            "velocity": 0.7322834645669292
          },
          {
            "duration": 0.23076900000000933,
            "durationTicks": 60,
            "midi": 37,
            "name": "C#2",
            "ticks": 55860,
            "time": 214.84593899999996,
            "velocity": 0.7480314960629921
          },
          {
            "duration": 0.23076900000000933,
            "durationTicks": 60,
            "midi": 27,
            "name": "D#1",
            "ticks": 55920,
            "time": 215.07670799999997,
            "velocity": 0.7244094488188977
          },
          {
            "duration": 0.2307689999999809,
            "durationTicks": 60,
            "midi": 39,
            "name": "D#2",
            "ticks": 55980,
            "time": 215.30747699999998,
            "velocity": 0.7716535433070866
          },
          {
            "duration": 0.23076900000000933,
            "durationTicks": 60,
            "midi": 27,
            "name": "D#1",
            "ticks": 56040,
            "time": 215.53824599999996,
            "velocity": 0.8031496062992126
          },
          {
            "duration": 0.23076900000000933,
            "durationTicks": 60,
            "midi": 39,
            "name": "D#2",
            "ticks": 56100,
            "time": 215.76901499999997,
            "velocity": 0.7480314960629921
          },
          {
            "duration": 0.2307689999999809,
            "durationTicks": 60,
            "midi": 29,
            "name": "F1",
            "ticks": 56160,
            "time": 215.99978399999998,
            "velocity": 0.6614173228346457
          },
          {
            "duration": 0.23076900000000933,
            "durationTicks": 60,
            "midi": 41,
            "name": "F2",
            "ticks": 56220,
            "time": 216.23055299999996,
            "velocity": 0.7637795275590551
          },
          {
            "duration": 0.23076900000000933,
            "durationTicks": 60,
            "midi": 29,
            "name": "F1",
            "ticks": 56280,
            "time": 216.46132199999997,
            "velocity": 0.7322834645669292
          },
          {
            "duration": 0.2307689999999809,
            "durationTicks": 60,
            "midi": 41,
            "name": "F2",
            "ticks": 56340,
            "time": 216.69209099999998,
            "velocity": 0.7637795275590551
          },
          {
            "duration": 0.23076900000000933,
            "durationTicks": 60,
            "midi": 29,
            "name": "F1",
            "ticks": 56400,
            "time": 216.92285999999996,
            "velocity": 0.6929133858267716
          },
          {
            "duration": 0.23076900000000933,
            "durationTicks": 60,
            "midi": 41,
            "name": "F2",
            "ticks": 56460,
            "time": 217.15362899999997,
            "velocity": 0.7874015748031497
          },
          {
            "duration": 0.2307689999999809,
            "durationTicks": 60,
            "midi": 29,
            "name": "F1",
            "ticks": 56520,
            "time": 217.38439799999998,
            "velocity": 0.7086614173228346
          },
          {
            "duration": 0.23076900000000933,
            "durationTicks": 60,
            "midi": 41,
            "name": "F2",
            "ticks": 56580,
            "time": 217.61516699999996,
            "velocity": 0.7244094488188977
          },
          {
            "duration": 0.23076900000000933,
            "durationTicks": 60,
            "midi": 25,
            "name": "C#1",
            "ticks": 56640,
            "time": 217.84593599999997,
            "velocity": 0.7716535433070866
          },
          {
            "duration": 0.2307689999999809,
            "durationTicks": 60,
            "midi": 37,
            "name": "C#2",
            "ticks": 56700,
            "time": 218.07670499999998,
            "velocity": 0.7322834645669292
          },
          {
            "duration": 0.23076900000000933,
            "durationTicks": 60,
            "midi": 25,
            "name": "C#1",
            "ticks": 56760,
            "time": 218.30747399999996,
            "velocity": 0.7637795275590551
          },
          {
            "duration": 0.23076900000000933,
            "durationTicks": 60,
            "midi": 37,
            "name": "C#2",
            "ticks": 56820,
            "time": 218.53824299999997,
            "velocity": 0.8031496062992126
          },
          {
            "duration": 0.2307689999999809,
            "durationTicks": 60,
            "midi": 27,
            "name": "D#1",
            "ticks": 56880,
            "time": 218.76901199999998,
            "velocity": 0.8031496062992126
          },
          {
            "duration": 0.23076900000000933,
            "durationTicks": 60,
            "midi": 39,
            "name": "D#2",
            "ticks": 56940,
            "time": 218.99978099999996,
            "velocity": 0.8031496062992126
          },
          {
            "duration": 0.23076900000000933,
            "durationTicks": 60,
            "midi": 27,
            "name": "D#1",
            "ticks": 57000,
            "time": 219.23054999999997,
            "velocity": 0.8110236220472441
          },
          {
            "duration": 0.2307689999999809,
            "durationTicks": 60,
            "midi": 39,
            "name": "D#2",
            "ticks": 57060,
            "time": 219.46131899999997,
            "velocity": 0.8031496062992126
          },
          {
            "duration": 0.23076900000000933,
            "durationTicks": 60,
            "midi": 29,
            "name": "F1",
            "ticks": 57120,
            "time": 219.69208799999996,
            "velocity": 0.7322834645669292
          },
          {
            "duration": 0.23076900000000933,
            "durationTicks": 60,
            "midi": 41,
            "name": "F2",
            "ticks": 57180,
            "time": 219.92285699999996,
            "velocity": 0.7322834645669292
          },
          {
            "duration": 0.2307689999999809,
            "durationTicks": 60,
            "midi": 29,
            "name": "F1",
            "ticks": 57240,
            "time": 220.15362599999997,
            "velocity": 0.7244094488188977
          },
          {
            "duration": 0.23076900000000933,
            "durationTicks": 60,
            "midi": 41,
            "name": "F2",
            "ticks": 57300,
            "time": 220.38439499999996,
            "velocity": 0.7086614173228346
          },
          {
            "duration": 0.23076900000000933,
            "durationTicks": 60,
            "midi": 29,
            "name": "F1",
            "ticks": 57360,
            "time": 220.61516399999996,
            "velocity": 0.6456692913385826
          },
          {
            "duration": 0.2307689999999809,
            "durationTicks": 60,
            "midi": 41,
            "name": "F2",
            "ticks": 57420,
            "time": 220.84593299999997,
            "velocity": 0.6692913385826772
          },
          {
            "duration": 0.23076900000000933,
            "durationTicks": 60,
            "midi": 29,
            "name": "F1",
            "ticks": 57480,
            "time": 221.07670199999995,
            "velocity": 0.6220472440944882
          },
          {
            "duration": 0.23076900000000933,
            "durationTicks": 60,
            "midi": 41,
            "name": "F2",
            "ticks": 57540,
            "time": 221.30747099999996,
            "velocity": 0.6771653543307087
          },
          {
            "duration": 0.2307689999999809,
            "durationTicks": 60,
            "midi": 25,
            "name": "C#1",
            "ticks": 57600,
            "time": 221.53823999999997,
            "velocity": 0.7874015748031497
          },
          {
            "duration": 0.23076900000000933,
            "durationTicks": 60,
            "midi": 37,
            "name": "C#2",
            "ticks": 57660,
            "time": 221.76900899999995,
            "velocity": 0.7322834645669292
          },
          {
            "duration": 0.23076900000000933,
            "durationTicks": 60,
            "midi": 25,
            "name": "C#1",
            "ticks": 57720,
            "time": 221.99977799999996,
            "velocity": 0.7322834645669292
          },
          {
            "duration": 0.2307689999999809,
            "durationTicks": 60,
            "midi": 37,
            "name": "C#2",
            "ticks": 57780,
            "time": 222.23054699999997,
            "velocity": 0.7480314960629921
          },
          {
            "duration": 0.23076900000000933,
            "durationTicks": 60,
            "midi": 27,
            "name": "D#1",
            "ticks": 57840,
            "time": 222.46131599999995,
            "velocity": 0.7244094488188977
          },
          {
            "duration": 0.23076900000000933,
            "durationTicks": 60,
            "midi": 39,
            "name": "D#2",
            "ticks": 57900,
            "time": 222.69208499999996,
            "velocity": 0.7716535433070866
          },
          {
            "duration": 0.2307689999999809,
            "durationTicks": 60,
            "midi": 27,
            "name": "D#1",
            "ticks": 57960,
            "time": 222.92285399999997,
            "velocity": 0.8031496062992126
          },
          {
            "duration": 0.23076900000000933,
            "durationTicks": 60,
            "midi": 39,
            "name": "D#2",
            "ticks": 58020,
            "time": 223.15362299999995,
            "velocity": 0.7480314960629921
          },
          {
            "duration": 0.23076900000000933,
            "durationTicks": 60,
            "midi": 29,
            "name": "F1",
            "ticks": 58080,
            "time": 223.38439199999996,
            "velocity": 0.6614173228346457
          },
          {
            "duration": 0.2307689999999809,
            "durationTicks": 60,
            "midi": 41,
            "name": "F2",
            "ticks": 58140,
            "time": 223.61516099999997,
            "velocity": 0.7637795275590551
          },
          {
            "duration": 0.23076900000000933,
            "durationTicks": 60,
            "midi": 29,
            "name": "F1",
            "ticks": 58200,
            "time": 223.84592999999995,
            "velocity": 0.7322834645669292
          },
          {
            "duration": 0.23076900000000933,
            "durationTicks": 60,
            "midi": 41,
            "name": "F2",
            "ticks": 58260,
            "time": 224.07669899999996,
            "velocity": 0.7637795275590551
          },
          {
            "duration": 0.2307689999999809,
            "durationTicks": 60,
            "midi": 29,
            "name": "F1",
            "ticks": 58320,
            "time": 224.30746799999997,
            "velocity": 0.6929133858267716
          },
          {
            "duration": 0.23076900000000933,
            "durationTicks": 60,
            "midi": 41,
            "name": "F2",
            "ticks": 58380,
            "time": 224.53823699999995,
            "velocity": 0.7874015748031497
          },
          {
            "duration": 0.23076900000000933,
            "durationTicks": 60,
            "midi": 29,
            "name": "F1",
            "ticks": 58440,
            "time": 224.76900599999996,
            "velocity": 0.7086614173228346
          },
          {
            "duration": 0.2307689999999809,
            "durationTicks": 60,
            "midi": 41,
            "name": "F2",
            "ticks": 58500,
            "time": 224.99977499999997,
            "velocity": 0.7244094488188977
          },
          {
            "duration": 0.23076900000000933,
            "durationTicks": 60,
            "midi": 25,
            "name": "C#1",
            "ticks": 58560,
            "time": 225.23054399999995,
            "velocity": 0.7716535433070866
          },
          {
            "duration": 0.23076900000000933,
            "durationTicks": 60,
            "midi": 37,
            "name": "C#2",
            "ticks": 58620,
            "time": 225.46131299999996,
            "velocity": 0.7322834645669292
          },
          {
            "duration": 0.2307689999999809,
            "durationTicks": 60,
            "midi": 25,
            "name": "C#1",
            "ticks": 58680,
            "time": 225.69208199999997,
            "velocity": 0.7637795275590551
          },
          {
            "duration": 0.23076900000000933,
            "durationTicks": 60,
            "midi": 37,
            "name": "C#2",
            "ticks": 58740,
            "time": 225.92285099999995,
            "velocity": 0.8031496062992126
          },
          {
            "duration": 0.23076900000000933,
            "durationTicks": 60,
            "midi": 27,
            "name": "D#1",
            "ticks": 58800,
            "time": 226.15361999999996,
            "velocity": 0.8031496062992126
          },
          {
            "duration": 0.2307689999999809,
            "durationTicks": 60,
            "midi": 39,
            "name": "D#2",
            "ticks": 58860,
            "time": 226.38438899999997,
            "velocity": 0.8031496062992126
          },
          {
            "duration": 0.23076900000000933,
            "durationTicks": 60,
            "midi": 27,
            "name": "D#1",
            "ticks": 58920,
            "time": 226.61515799999995,
            "velocity": 0.8110236220472441
          },
          {
            "duration": 0.23076900000000933,
            "durationTicks": 60,
            "midi": 39,
            "name": "D#2",
            "ticks": 58980,
            "time": 226.84592699999996,
            "velocity": 0.8031496062992126
          },
          {
            "duration": 0.1961536499999852,
            "durationTicks": 51,
            "midi": 29,
            "name": "F1",
            "ticks": 60000,
            "time": 230.76899999999998,
            "velocity": 0.8110236220472441
          },
          {
            "duration": 0.2153843999999765,
            "durationTicks": 56,
            "midi": 29,
            "name": "F1",
            "ticks": 60090,
            "time": 231.11515349999996,
            "velocity": 0.8031496062992126
          },
          {
            "duration": 0.27692279999999414,
            "durationTicks": 72,
            "midi": 29,
            "name": "F1",
            "ticks": 60180,
            "time": 231.46130699999998,
            "velocity": 0.8031496062992126
          },
          {
            "duration": 0.30384585000001607,
            "durationTicks": 79,
            "midi": 29,
            "name": "F1",
            "ticks": 60300,
            "time": 231.92284499999997,
            "velocity": 0.8110236220472441
          },
          {
            "duration": 0.1692306000000201,
            "durationTicks": 44,
            "midi": 29,
            "name": "F1",
            "ticks": 60390,
            "time": 232.26899849999995,
            "velocity": 0.7716535433070866
          },
          {
            "duration": 0.23461514999999622,
            "durationTicks": 61,
            "midi": 27,
            "name": "D#1",
            "ticks": 60480,
            "time": 232.61515199999997,
            "velocity": 0.7637795275590551
          },
          {
            "duration": 0.24615360000001374,
            "durationTicks": 64,
            "midi": 27,
            "name": "D#1",
            "ticks": 60570,
            "time": 232.96130549999995,
            "velocity": 0.8267716535433071
          },
          {
            "duration": 0.29999970000000076,
            "durationTicks": 78,
            "midi": 25,
            "name": "C#1",
            "ticks": 60660,
            "time": 233.30745899999997,
            "velocity": 0.8267716535433071
          },
          {
            "duration": 0.28076895000000945,
            "durationTicks": 73,
            "midi": 25,
            "name": "C#1",
            "ticks": 60780,
            "time": 233.76899699999996,
            "velocity": 0.8346456692913385
          },
          {
            "duration": 0.173076750000007,
            "durationTicks": 45,
            "midi": 25,
            "name": "C#1",
            "ticks": 60870,
            "time": 234.11515049999997,
            "velocity": 0.8582677165354331
          },
          {
            "duration": 0.1961536500000136,
            "durationTicks": 51,
            "midi": 29,
            "name": "F1",
            "ticks": 60960,
            "time": 234.46130399999996,
            "velocity": 0.8110236220472441
          },
          {
            "duration": 0.2153843999999765,
            "durationTicks": 56,
            "midi": 29,
            "name": "F1",
            "ticks": 61050,
            "time": 234.80745749999997,
            "velocity": 0.8031496062992126
          },
          {
            "duration": 0.27692280000002256,
            "durationTicks": 72,
            "midi": 29,
            "name": "F1",
            "ticks": 61140,
            "time": 235.15361099999996,
            "velocity": 0.8031496062992126
          },
          {
            "duration": 0.30384584999998765,
            "durationTicks": 79,
            "midi": 29,
            "name": "F1",
            "ticks": 61260,
            "time": 235.61514899999997,
            "velocity": 0.8110236220472441
          },
          {
            "duration": 0.1692306000000201,
            "durationTicks": 44,
            "midi": 29,
            "name": "F1",
            "ticks": 61350,
            "time": 235.96130249999996,
            "velocity": 0.7716535433070866
          },
          {
            "duration": 0.23461514999999622,
            "durationTicks": 61,
            "midi": 27,
            "name": "D#1",
            "ticks": 61440,
            "time": 236.30745599999997,
            "velocity": 0.7637795275590551
          },
          {
            "duration": 0.24615360000001374,
            "durationTicks": 64,
            "midi": 27,
            "name": "D#1",
            "ticks": 61530,
            "time": 236.65360949999996,
            "velocity": 0.8267716535433071
          },
          {
            "duration": 0.29999969999997234,
            "durationTicks": 78,
            "midi": 25,
            "name": "C#1",
            "ticks": 61620,
            "time": 236.99976299999997,
            "velocity": 0.8267716535433071
          },
          {
            "duration": 0.28076895000000945,
            "durationTicks": 73,
            "midi": 25,
            "name": "C#1",
            "ticks": 61740,
            "time": 237.46130099999996,
            "velocity": 0.8346456692913385
          },
          {
            "duration": 0.173076750000007,
            "durationTicks": 45,
            "midi": 25,
            "name": "C#1",
            "ticks": 61830,
            "time": 237.80745449999995,
            "velocity": 0.8582677165354331
          },
          {
            "duration": 0.1961536499999852,
            "durationTicks": 51,
            "midi": 29,
            "name": "F1",
            "ticks": 61920,
            "time": 238.15360799999996,
            "velocity": 0.8110236220472441
          },
          {
            "duration": 0.21538440000000492,
            "durationTicks": 56,
            "midi": 29,
            "name": "F1",
            "ticks": 62010,
            "time": 238.49976149999998,
            "velocity": 0.8031496062992126
          },
          {
            "duration": 0.27692280000002256,
            "durationTicks": 72,
            "midi": 29,
            "name": "F1",
            "ticks": 62100,
            "time": 238.84591499999996,
            "velocity": 0.8031496062992126
          },
          {
            "duration": 0.30384584999998765,
            "durationTicks": 79,
            "midi": 29,
            "name": "F1",
            "ticks": 62220,
            "time": 239.30745299999995,
            "velocity": 0.8110236220472441
          },
          {
            "duration": 0.16923059999999168,
            "durationTicks": 44,
            "midi": 29,
            "name": "F1",
            "ticks": 62310,
            "time": 239.65360649999997,
            "velocity": 0.7716535433070866
          },
          {
            "duration": 0.23461514999999622,
            "durationTicks": 61,
            "midi": 27,
            "name": "D#1",
            "ticks": 62400,
            "time": 239.99975999999995,
            "velocity": 0.7637795275590551
          },
          {
            "duration": 0.24615359999998532,
            "durationTicks": 64,
            "midi": 27,
            "name": "D#1",
            "ticks": 62490,
            "time": 240.34591349999997,
            "velocity": 0.8267716535433071
          },
          {
            "duration": 0.29999970000000076,
            "durationTicks": 78,
            "midi": 25,
            "name": "C#1",
            "ticks": 62580,
            "time": 240.69206699999995,
            "velocity": 0.8267716535433071
          },
          {
            "duration": 0.28076895000000945,
            "durationTicks": 73,
            "midi": 25,
            "name": "C#1",
            "ticks": 62700,
            "time": 241.15360499999997,
            "velocity": 0.8346456692913385
          },
          {
            "duration": 0.173076750000007,
            "durationTicks": 45,
            "midi": 25,
            "name": "C#1",
            "ticks": 62790,
            "time": 241.49975849999996,
            "velocity": 0.8582677165354331
          },
          {
            "duration": 0.1961536499999852,
            "durationTicks": 51,
            "midi": 29,
            "name": "F1",
            "ticks": 62880,
            "time": 241.84591199999997,
            "velocity": 0.8110236220472441
          },
          {
            "duration": 0.21538440000003334,
            "durationTicks": 56,
            "midi": 29,
            "name": "F1",
            "ticks": 62970,
            "time": 242.19206549999996,
            "velocity": 0.8031496062992126
          },
          {
            "duration": 0.27692279999999414,
            "durationTicks": 72,
            "midi": 29,
            "name": "F1",
            "ticks": 63060,
            "time": 242.53821899999997,
            "velocity": 0.8031496062992126
          },
          {
            "duration": 0.30384584999998765,
            "durationTicks": 79,
            "midi": 29,
            "name": "F1",
            "ticks": 63180,
            "time": 242.99975699999996,
            "velocity": 0.8110236220472441
          },
          {
            "duration": 0.16923059999999168,
            "durationTicks": 44,
            "midi": 29,
            "name": "F1",
            "ticks": 63270,
            "time": 243.34591049999997,
            "velocity": 0.7716535433070866
          },
          {
            "duration": 0.23461514999999622,
            "durationTicks": 61,
            "midi": 27,
            "name": "D#1",
            "ticks": 63360,
            "time": 243.69206399999996,
            "velocity": 0.7637795275590551
          },
          {
            "duration": 0.24615359999998532,
            "durationTicks": 64,
            "midi": 27,
            "name": "D#1",
            "ticks": 63450,
            "time": 244.03821749999997,
            "velocity": 0.8267716535433071
          },
          {
            "duration": 0.29999970000000076,
            "durationTicks": 78,
            "midi": 25,
            "name": "C#1",
            "ticks": 63540,
            "time": 244.38437099999996,
            "velocity": 0.8267716535433071
          },
          {
            "duration": 0.28076895000000945,
            "durationTicks": 73,
            "midi": 25,
            "name": "C#1",
            "ticks": 63660,
            "time": 244.84590899999995,
            "velocity": 0.8346456692913385
          },
          {
            "duration": 0.173076750000007,
            "durationTicks": 45,
            "midi": 25,
            "name": "C#1",
            "ticks": 63750,
            "time": 245.19206249999996,
            "velocity": 0.8582677165354331
          },
          {
            "duration": 0.23076900000000933,
            "durationTicks": 60,
            "midi": 29,
            "name": "F1",
            "ticks": 63840,
            "time": 245.53821599999995,
            "velocity": 0.7322834645669292
          },
          {
            "duration": 0.23076900000000933,
            "durationTicks": 60,
            "midi": 41,
            "name": "F2",
            "ticks": 63900,
            "time": 245.76898499999996,
            "velocity": 0.7322834645669292
          },
          {
            "duration": 0.2307689999999809,
            "durationTicks": 60,
            "midi": 29,
            "name": "F1",
            "ticks": 63960,
            "time": 245.99975399999997,
            "velocity": 0.7244094488188977
          },
          {
            "duration": 0.23076900000000933,
            "durationTicks": 60,
            "midi": 41,
            "name": "F2",
            "ticks": 64020,
            "time": 246.23052299999995,
            "velocity": 0.7086614173228346
          },
          {
            "duration": 0.23076900000000933,
            "durationTicks": 60,
            "midi": 29,
            "name": "F1",
            "ticks": 64080,
            "time": 246.46129199999996,
            "velocity": 0.6456692913385826
          },
          {
            "duration": 0.2307689999999809,
            "durationTicks": 60,
            "midi": 41,
            "name": "F2",
            "ticks": 64140,
            "time": 246.69206099999997,
            "velocity": 0.6692913385826772
          },
          {
            "duration": 0.23076900000000933,
            "durationTicks": 60,
            "midi": 29,
            "name": "F1",
            "ticks": 64200,
            "time": 246.92282999999995,
            "velocity": 0.6220472440944882
          },
          {
            "duration": 0.23076900000000933,
            "durationTicks": 60,
            "midi": 41,
            "name": "F2",
            "ticks": 64260,
            "time": 247.15359899999996,
            "velocity": 0.6771653543307087
          },
          {
            "duration": 0.23076900000000933,
            "durationTicks": 60,
            "midi": 25,
            "name": "C#1",
            "ticks": 64320,
            "time": 247.38436799999997,
            "velocity": 0.7874015748031497
          },
          {
            "duration": 0.2307689999999809,
            "durationTicks": 60,
            "midi": 37,
            "name": "C#2",
            "ticks": 64380,
            "time": 247.61513699999998,
            "velocity": 0.7322834645669292
          },
          {
            "duration": 0.23076900000000933,
            "durationTicks": 60,
            "midi": 25,
            "name": "C#1",
            "ticks": 64440,
            "time": 247.84590599999996,
            "velocity": 0.7322834645669292
          },
          {
            "duration": 0.23076900000000933,
            "durationTicks": 60,
            "midi": 37,
            "name": "C#2",
            "ticks": 64500,
            "time": 248.07667499999997,
            "velocity": 0.7480314960629921
          },
          {
            "duration": 0.2307689999999809,
            "durationTicks": 60,
            "midi": 27,
            "name": "D#1",
            "ticks": 64560,
            "time": 248.30744399999998,
            "velocity": 0.7244094488188977
          },
          {
            "duration": 0.23076900000000933,
            "durationTicks": 60,
            "midi": 39,
            "name": "D#2",
            "ticks": 64620,
            "time": 248.53821299999996,
            "velocity": 0.7716535433070866
          },
          {
            "duration": 0.23076900000000933,
            "durationTicks": 60,
            "midi": 27,
            "name": "D#1",
            "ticks": 64680,
            "time": 248.76898199999997,
            "velocity": 0.8031496062992126
          },
          {
            "duration": 0.2307689999999809,
            "durationTicks": 60,
            "midi": 39,
            "name": "D#2",
            "ticks": 64740,
            "time": 248.99975099999997,
            "velocity": 0.7480314960629921
          },
          {
            "duration": 0.23076900000000933,
            "durationTicks": 60,
            "midi": 29,
            "name": "F1",
            "ticks": 64800,
            "time": 249.23051999999996,
            "velocity": 0.6614173228346457
          },
          {
            "duration": 0.23076900000000933,
            "durationTicks": 60,
            "midi": 41,
            "name": "F2",
            "ticks": 64860,
            "time": 249.46128899999997,
            "velocity": 0.7637795275590551
          },
          {
            "duration": 0.2307689999999809,
            "durationTicks": 60,
            "midi": 29,
            "name": "F1",
            "ticks": 64920,
            "time": 249.69205799999997,
            "velocity": 0.7322834645669292
          },
          {
            "duration": 0.23076900000000933,
            "durationTicks": 60,
            "midi": 41,
            "name": "F2",
            "ticks": 64980,
            "time": 249.92282699999996,
            "velocity": 0.7637795275590551
          },
          {
            "duration": 0.23076900000000933,
            "durationTicks": 60,
            "midi": 29,
            "name": "F1",
            "ticks": 65040,
            "time": 250.15359599999996,
            "velocity": 0.6929133858267716
          },
          {
            "duration": 0.2307689999999809,
            "durationTicks": 60,
            "midi": 41,
            "name": "F2",
            "ticks": 65100,
            "time": 250.38436499999997,
            "velocity": 0.7874015748031497
          },
          {
            "duration": 0.23076900000000933,
            "durationTicks": 60,
            "midi": 29,
            "name": "F1",
            "ticks": 65160,
            "time": 250.61513399999995,
            "velocity": 0.7086614173228346
          },
          {
            "duration": 0.23076900000000933,
            "durationTicks": 60,
            "midi": 41,
            "name": "F2",
            "ticks": 65220,
            "time": 250.84590299999996,
            "velocity": 0.7244094488188977
          },
          {
            "duration": 0.2307689999999809,
            "durationTicks": 60,
            "midi": 25,
            "name": "C#1",
            "ticks": 65280,
            "time": 251.07667199999997,
            "velocity": 0.7716535433070866
          },
          {
            "duration": 0.23076900000000933,
            "durationTicks": 60,
            "midi": 37,
            "name": "C#2",
            "ticks": 65340,
            "time": 251.30744099999995,
            "velocity": 0.7322834645669292
          },
          {
            "duration": 0.23076900000000933,
            "durationTicks": 60,
            "midi": 25,
            "name": "C#1",
            "ticks": 65400,
            "time": 251.53820999999996,
            "velocity": 0.7637795275590551
          },
          {
            "duration": 0.2307689999999809,
            "durationTicks": 60,
            "midi": 37,
            "name": "C#2",
            "ticks": 65460,
            "time": 251.76897899999997,
            "velocity": 0.8031496062992126
          },
          {
            "duration": 0.23076900000000933,
            "durationTicks": 60,
            "midi": 27,
            "name": "D#1",
            "ticks": 65520,
            "time": 251.99974799999995,
            "velocity": 0.8031496062992126
          },
          {
            "duration": 0.23076900000000933,
            "durationTicks": 60,
            "midi": 39,
            "name": "D#2",
            "ticks": 65580,
            "time": 252.23051699999996,
            "velocity": 0.8031496062992126
          },
          {
            "duration": 0.2307689999999809,
            "durationTicks": 60,
            "midi": 27,
            "name": "D#1",
            "ticks": 65640,
            "time": 252.46128599999997,
            "velocity": 0.8110236220472441
          },
          {
            "duration": 0.23076900000000933,
            "durationTicks": 60,
            "midi": 39,
            "name": "D#2",
            "ticks": 65700,
            "time": 252.69205499999995,
            "velocity": 0.8031496062992126
          },
          {
            "duration": 0.23076900000000933,
            "durationTicks": 60,
            "midi": 29,
            "name": "F1",
            "ticks": 65760,
            "time": 252.92282399999996,
            "velocity": 0.7322834645669292
          },
          {
            "duration": 0.2307689999999809,
            "durationTicks": 60,
            "midi": 41,
            "name": "F2",
            "ticks": 65820,
            "time": 253.15359299999997,
            "velocity": 0.7322834645669292
          },
          {
            "duration": 0.23076900000000933,
            "durationTicks": 60,
            "midi": 29,
            "name": "F1",
            "ticks": 65880,
            "time": 253.38436199999995,
            "velocity": 0.7244094488188977
          },
          {
            "duration": 0.23076900000000933,
            "durationTicks": 60,
            "midi": 41,
            "name": "F2",
            "ticks": 65940,
            "time": 253.61513099999996,
            "velocity": 0.7086614173228346
          },
          {
            "duration": 0.2307689999999809,
            "durationTicks": 60,
            "midi": 29,
            "name": "F1",
            "ticks": 66000,
            "time": 253.84589999999997,
            "velocity": 0.6456692913385826
          },
          {
            "duration": 0.23076900000000933,
            "durationTicks": 60,
            "midi": 41,
            "name": "F2",
            "ticks": 66060,
            "time": 254.07666899999995,
            "velocity": 0.6692913385826772
          },
          {
            "duration": 0.23076900000000933,
            "durationTicks": 60,
            "midi": 29,
            "name": "F1",
            "ticks": 66120,
            "time": 254.30743799999996,
            "velocity": 0.6220472440944882
          },
          {
            "duration": 0.2307689999999809,
            "durationTicks": 60,
            "midi": 41,
            "name": "F2",
            "ticks": 66180,
            "time": 254.53820699999997,
            "velocity": 0.6771653543307087
          },
          {
            "duration": 0.23076900000000933,
            "durationTicks": 60,
            "midi": 25,
            "name": "C#1",
            "ticks": 66240,
            "time": 254.76897599999995,
            "velocity": 0.7874015748031497
          },
          {
            "duration": 0.23076900000000933,
            "durationTicks": 60,
            "midi": 37,
            "name": "C#2",
            "ticks": 66300,
            "time": 254.99974499999996,
            "velocity": 0.7322834645669292
          },
          {
            "duration": 0.2307689999999809,
            "durationTicks": 60,
            "midi": 25,
            "name": "C#1",
            "ticks": 66360,
            "time": 255.23051399999997,
            "velocity": 0.7322834645669292
          },
          {
            "duration": 0.23076900000000933,
            "durationTicks": 60,
            "midi": 37,
            "name": "C#2",
            "ticks": 66420,
            "time": 255.46128299999995,
            "velocity": 0.7480314960629921
          },
          {
            "duration": 0.23076900000000933,
            "durationTicks": 60,
            "midi": 27,
            "name": "D#1",
            "ticks": 66480,
            "time": 255.69205199999996,
            "velocity": 0.7244094488188977
          },
          {
            "duration": 0.2307689999999809,
            "durationTicks": 60,
            "midi": 39,
            "name": "D#2",
            "ticks": 66540,
            "time": 255.92282099999997,
            "velocity": 0.7716535433070866
          },
          {
            "duration": 0.23076900000000933,
            "durationTicks": 60,
            "midi": 27,
            "name": "D#1",
            "ticks": 66600,
            "time": 256.15358999999995,
            "velocity": 0.8031496062992126
          },
          {
            "duration": 0.23076900000000933,
            "durationTicks": 60,
            "midi": 39,
            "name": "D#2",
            "ticks": 66660,
            "time": 256.38435899999996,
            "velocity": 0.7480314960629921
          },
          {
            "duration": 0.23076900000000933,
            "durationTicks": 60,
            "midi": 29,
            "name": "F1",
            "ticks": 66720,
            "time": 256.61512799999997,
            "velocity": 0.6614173228346457
          },
          {
            "duration": 0.23076900000000933,
            "durationTicks": 60,
            "midi": 41,
            "name": "F2",
            "ticks": 66780,
            "time": 256.845897,
            "velocity": 0.7637795275590551
          },
          {
            "duration": 0.23076900000000933,
            "durationTicks": 60,
            "midi": 29,
            "name": "F1",
            "ticks": 66840,
            "time": 257.076666,
            "velocity": 0.7322834645669292
          },
          {
            "duration": 0.23076899999995248,
            "durationTicks": 60,
            "midi": 41,
            "name": "F2",
            "ticks": 66900,
            "time": 257.307435,
            "velocity": 0.7637795275590551
          },
          {
            "duration": 0.23076900000000933,
            "durationTicks": 60,
            "midi": 29,
            "name": "F1",
            "ticks": 66960,
            "time": 257.53820399999995,
            "velocity": 0.6929133858267716
          },
          {
            "duration": 0.23076900000000933,
            "durationTicks": 60,
            "midi": 41,
            "name": "F2",
            "ticks": 67020,
            "time": 257.76897299999996,
            "velocity": 0.7874015748031497
          },
          {
            "duration": 0.23076900000000933,
            "durationTicks": 60,
            "midi": 29,
            "name": "F1",
            "ticks": 67080,
            "time": 257.99974199999997,
            "velocity": 0.7086614173228346
          },
          {
            "duration": 0.23076900000000933,
            "durationTicks": 60,
            "midi": 41,
            "name": "F2",
            "ticks": 67140,
            "time": 258.230511,
            "velocity": 0.7244094488188977
          },
          {
            "duration": 0.05384609999998702,
            "durationTicks": 14,
            "midi": 29,
            "name": "F1",
            "ticks": 67200,
            "time": 258.46128,
            "velocity": 0.8346456692913385
          },
          {
            "duration": 0.06538454999997612,
            "durationTicks": 17,
            "midi": 29,
            "name": "F1",
            "ticks": 67260,
            "time": 258.692049,
            "velocity": 0.7874015748031497
          },
          {
            "duration": 0.06538454999997612,
            "durationTicks": 17,
            "midi": 29,
            "name": "F1",
            "ticks": 67320,
            "time": 258.922818,
            "velocity": 0.8661417322834646
          },
          {
            "duration": 0.06923069999999143,
            "durationTicks": 18,
            "midi": 29,
            "name": "F1",
            "ticks": 67350,
            "time": 259.0382025,
            "velocity": 0.8031496062992126
          },
          {
            "duration": 0.09615375000004178,
            "durationTicks": 25,
            "midi": 29,
            "name": "F1",
            "ticks": 67410,
            "time": 259.26897149999996,
            "velocity": 0.8582677165354331
          }
        ]
      },
      {
        "channel": 2,
        "controlChanges": {
          "1": [
            {
              "number": 1,
              "ticks": 486,
              "time": 1.8692288999999997,
              "value": 0.31496062992125984
            },
            {
              "number": 1,
              "ticks": 39600,
              "time": 152.30753999999996,
              "value": 0.7874015748031497
            }
          ],
          "6": [
            {
              "number": 6,
              "ticks": 483,
              "time": 1.8576904499999998,
              "value": 0.3858267716535433
            },
            {
              "number": 6,
              "ticks": 485,
              "time": 1.8653827499999998,
              "value": 0.05511811023622047
            }
          ],
          "7": [
            {
              "number": 7,
              "ticks": 0,
              "time": 0,
              "value": 0.7874015748031497
            }
          ],
          "38": [
            {
              "number": 38,
              "ticks": 486,
              "time": 1.8692288999999997,
              "value": 0
            }
          ],
          "91": [
            {
              "number": 91,
              "ticks": 483,
              "time": 1.8576904499999998,
              "value": 0.7874015748031497
            }
          ],
          "93": [
            {
              "number": 93,
              "ticks": 483,
              "time": 1.8576904499999998,
              "value": 0.7874015748031497
            }
          ],
          "100": [
            {
              "number": 100,
              "ticks": 484,
              "time": 1.8615365999999998,
              "value": 0
            }
          ],
          "101": [
            {
              "number": 101,
              "ticks": 483,
              "time": 1.8576904499999998,
              "value": 0
            }
          ]
        },
        "pitchBends": [
          {
            "ticks": 16066,
            "time": 61.79224589999998,
            "value": 0.015869140625
          },
          {
            "ticks": 16068,
            "time": 61.79993819999999,
            "value": 0.0634765625
          },
          {
            "ticks": 16070,
            "time": 61.80763049999999,
            "value": 0.111083984375
          },
          {
            "ticks": 16072,
            "time": 61.81532279999999,
            "value": 0.174560546875
          },
          {
            "ticks": 16074,
            "time": 61.823015099999985,
            "value": 0.22216796875
          },
          {
            "ticks": 16076,
            "time": 61.83070739999999,
            "value": 0.28564453125
          },
          {
            "ticks": 16079,
            "time": 61.84224584999999,
            "value": 0.380859375
          },
          {
            "ticks": 16081,
            "time": 61.849938149999986,
            "value": 0.47607421875
          },
          {
            "ticks": 16083,
            "time": 61.857630449999995,
            "value": 0.5712890625
          },
          {
            "ticks": 16085,
            "time": 61.86532274999998,
            "value": 0.66650390625
          },
          {
            "ticks": 16087,
            "time": 61.87301504999999,
            "value": 0.76171875
          },
          {
            "ticks": 16089,
            "time": 61.88070734999999,
            "value": 0.841064453125
          },
          {
            "ticks": 16091,
            "time": 61.88839964999999,
            "value": 0.936279296875
          },
          {
            "ticks": 16093,
            "time": 61.896091949999985,
            "value": 0.999755859375
          },
          {
            "ticks": 16129,
            "time": 62.03455334999999,
            "value": 0.968017578125
          },
          {
            "ticks": 16131,
            "time": 62.04224565,
            "value": 0.6982421875
          },
          {
            "ticks": 16133,
            "time": 62.049937949999986,
            "value": 0.206298828125
          },
          {
            "ticks": 16135,
            "time": 62.057630249999995,
            "value": -0.109375
          },
          {
            "ticks": 16137,
            "time": 62.06532254999999,
            "value": -0.28125
          },
          {
            "ticks": 16139,
            "time": 62.07301484999999,
            "value": -0.171875
          },
          {
            "ticks": 16141,
            "time": 62.08070714999999,
            "value": 0
          },
          {
            "ticks": 16143,
            "time": 62.08839944999999,
            "value": 0.22216796875
          },
          {
            "ticks": 16145,
            "time": 62.096091749999985,
            "value": 0.15869140625
          },
          {
            "ticks": 16148,
            "time": 62.10763019999999,
            "value": 0
          },
          {
            "ticks": 16152,
            "time": 62.123014799999986,
            "value": 0.047607421875
          },
          {
            "ticks": 16154,
            "time": 62.130707099999995,
            "value": 0.015869140625
          },
          {
            "ticks": 16156,
            "time": 62.13839939999998,
            "value": 0
          },
          {
            "ticks": 16158,
            "time": 62.14609169999999,
            "value": 0
          },
          {
            "ticks": 16164,
            "time": 62.169168599999985,
            "value": 0
          },
          {
            "ticks": 16281,
            "time": 62.61916814999999,
            "value": 0.015869140625
          },
          {
            "ticks": 16283,
            "time": 62.62686044999999,
            "value": 0.079345703125
          },
          {
            "ticks": 16285,
            "time": 62.63455275,
            "value": 0.142822265625
          },
          {
            "ticks": 16288,
            "time": 62.64609119999999,
            "value": 0.238037109375
          },
          {
            "ticks": 16290,
            "time": 62.65378349999999,
            "value": 0.3173828125
          },
          {
            "ticks": 16292,
            "time": 62.6614758,
            "value": 0.428466796875
          },
          {
            "ticks": 16294,
            "time": 62.669168099999986,
            "value": 0.523681640625
          },
          {
            "ticks": 16296,
            "time": 62.676860399999995,
            "value": 0.587158203125
          },
          {
            "ticks": 16298,
            "time": 62.68455269999999,
            "value": 0.650634765625
          },
          {
            "ticks": 16300,
            "time": 62.69224499999999,
            "value": 0.714111328125
          },
          {
            "ticks": 16302,
            "time": 62.69993729999999,
            "value": 0.809326171875
          },
          {
            "ticks": 16304,
            "time": 62.70762959999999,
            "value": 0.888671875
          },
          {
            "ticks": 16307,
            "time": 62.71916804999999,
            "value": 0.98388671875
          },
          {
            "ticks": 16308,
            "time": 62.723014199999994,
            "value": 0.999755859375
          },
          {
            "ticks": 16338,
            "time": 62.83839869999999,
            "value": 0.904541015625
          },
          {
            "ticks": 16340,
            "time": 62.84609099999999,
            "value": 0.555419921875
          },
          {
            "ticks": 16342,
            "time": 62.85378329999999,
            "value": 0.03173828125
          },
          {
            "ticks": 16344,
            "time": 62.861475599999984,
            "value": -0.171875
          },
          {
            "ticks": 16346,
            "time": 62.869167899999994,
            "value": -0.21875
          },
          {
            "ticks": 16348,
            "time": 62.87686019999998,
            "value": -0.015625
          },
          {
            "ticks": 16350,
            "time": 62.88455249999999,
            "value": 0.126953125
          },
          {
            "ticks": 16352,
            "time": 62.89224479999999,
            "value": 0.206298828125
          },
          {
            "ticks": 16354,
            "time": 62.89993709999999,
            "value": 0.03173828125
          },
          {
            "ticks": 16356,
            "time": 62.9076294,
            "value": 0
          },
          {
            "ticks": 16361,
            "time": 62.92686014999999,
            "value": 0.047607421875
          },
          {
            "ticks": 16363,
            "time": 62.934552449999984,
            "value": 0
          },
          {
            "ticks": 16365,
            "time": 62.942244749999986,
            "value": 0
          },
          {
            "ticks": 17031,
            "time": 65.50378065,
            "value": 0.03173828125
          },
          {
            "ticks": 17034,
            "time": 65.51531909999999,
            "value": 0.09521484375
          },
          {
            "ticks": 17035,
            "time": 65.51916525,
            "value": 0.142822265625
          },
          {
            "ticks": 17038,
            "time": 65.53070369999999,
            "value": 0.22216796875
          },
          {
            "ticks": 17040,
            "time": 65.53839599999999,
            "value": 0.3173828125
          },
          {
            "ticks": 17042,
            "time": 65.5460883,
            "value": 0.428466796875
          },
          {
            "ticks": 17044,
            "time": 65.5537806,
            "value": 0.523681640625
          },
          {
            "ticks": 17046,
            "time": 65.5614729,
            "value": 0.618896484375
          },
          {
            "ticks": 17048,
            "time": 65.56916519999999,
            "value": 0.6982421875
          },
          {
            "ticks": 17050,
            "time": 65.5768575,
            "value": 0.79345703125
          },
          {
            "ticks": 17052,
            "time": 65.58454979999999,
            "value": 0.872802734375
          },
          {
            "ticks": 17054,
            "time": 65.59224209999999,
            "value": 0.968017578125
          },
          {
            "ticks": 17056,
            "time": 65.5999344,
            "value": 0.999755859375
          },
          {
            "ticks": 17090,
            "time": 65.73070349999999,
            "value": 0.888671875
          },
          {
            "ticks": 17092,
            "time": 65.73839579999999,
            "value": 0.53955078125
          },
          {
            "ticks": 17094,
            "time": 65.7460881,
            "value": 0
          },
          {
            "ticks": 17096,
            "time": 65.7537804,
            "value": -0.234375
          },
          {
            "ticks": 17098,
            "time": 65.76147269999998,
            "value": -0.28125
          },
          {
            "ticks": 17100,
            "time": 65.76916499999999,
            "value": -0.0625
          },
          {
            "ticks": 17102,
            "time": 65.7768573,
            "value": 0.111083984375
          },
          {
            "ticks": 17104,
            "time": 65.78454959999999,
            "value": 0.238037109375
          },
          {
            "ticks": 17106,
            "time": 65.7922419,
            "value": 0.111083984375
          },
          {
            "ticks": 17108,
            "time": 65.7999342,
            "value": 0
          },
          {
            "ticks": 17113,
            "time": 65.81916494999999,
            "value": 0.0634765625
          },
          {
            "ticks": 17115,
            "time": 65.82685724999999,
            "value": 0
          },
          {
            "ticks": 17236,
            "time": 66.2922414,
            "value": 0.015869140625
          },
          {
            "ticks": 17238,
            "time": 66.2999337,
            "value": 0.047607421875
          },
          {
            "ticks": 17240,
            "time": 66.307626,
            "value": 0.09521484375
          },
          {
            "ticks": 17242,
            "time": 66.3153183,
            "value": 0.174560546875
          },
          {
            "ticks": 17244,
            "time": 66.32301059999999,
            "value": 0.25390625
          },
          {
            "ticks": 17247,
            "time": 66.33454904999999,
            "value": 0.380859375
          },
          {
            "ticks": 17249,
            "time": 66.34224135,
            "value": 0.491943359375
          },
          {
            "ticks": 17251,
            "time": 66.34993365,
            "value": 0.587158203125
          },
          {
            "ticks": 17253,
            "time": 66.35762595,
            "value": 0.682373046875
          },
          {
            "ticks": 17255,
            "time": 66.36531824999999,
            "value": 0.777587890625
          },
          {
            "ticks": 17257,
            "time": 66.37301055,
            "value": 0.85693359375
          },
          {
            "ticks": 17259,
            "time": 66.38070284999999,
            "value": 0.968017578125
          },
          {
            "ticks": 17261,
            "time": 66.38839515,
            "value": 0.999755859375
          },
          {
            "ticks": 17293,
            "time": 66.51147194999999,
            "value": 0.745849609375
          },
          {
            "ticks": 17295,
            "time": 66.51916425,
            "value": 0.238037109375
          },
          {
            "ticks": 17296,
            "time": 66.52301039999999,
            "value": -0.09375
          },
          {
            "ticks": 17299,
            "time": 66.53454885,
            "value": -0.296875
          },
          {
            "ticks": 17301,
            "time": 66.54224115,
            "value": -0.1875
          },
          {
            "ticks": 17303,
            "time": 66.54993345,
            "value": 0
          },
          {
            "ticks": 17305,
            "time": 66.55762575,
            "value": 0.22216796875
          },
          {
            "ticks": 17307,
            "time": 66.56531804999999,
            "value": 0.1904296875
          },
          {
            "ticks": 17309,
            "time": 66.57301035,
            "value": 0
          },
          {
            "ticks": 17313,
            "time": 66.58839495,
            "value": 0.03173828125
          },
          {
            "ticks": 17315,
            "time": 66.59608725,
            "value": 0.047607421875
          },
          {
            "ticks": 17318,
            "time": 66.6076257,
            "value": 0
          },
          {
            "ticks": 17320,
            "time": 66.615318,
            "value": 0
          },
          {
            "ticks": 17322,
            "time": 66.62301029999999,
            "value": 0
          },
          {
            "ticks": 17991,
            "time": 69.19608465,
            "value": 0.03173828125
          },
          {
            "ticks": 17993,
            "time": 69.20377694999999,
            "value": 0.09521484375
          },
          {
            "ticks": 17995,
            "time": 69.21146925000001,
            "value": 0.142822265625
          },
          {
            "ticks": 17997,
            "time": 69.21916155,
            "value": 0.22216796875
          },
          {
            "ticks": 17999,
            "time": 69.22685385,
            "value": 0.301513671875
          },
          {
            "ticks": 18001,
            "time": 69.23454614999999,
            "value": 0.41259765625
          },
          {
            "ticks": 18003,
            "time": 69.24223845,
            "value": 0.523681640625
          },
          {
            "ticks": 18005,
            "time": 69.24993074999999,
            "value": 0.650634765625
          },
          {
            "ticks": 18007,
            "time": 69.25762304999999,
            "value": 0.76171875
          },
          {
            "ticks": 18009,
            "time": 69.26531535,
            "value": 0.872802734375
          },
          {
            "ticks": 18012,
            "time": 69.2768538,
            "value": 0.968017578125
          },
          {
            "ticks": 18014,
            "time": 69.2845461,
            "value": 0.999755859375
          },
          {
            "ticks": 18049,
            "time": 69.41916135,
            "value": 0.936279296875
          },
          {
            "ticks": 18051,
            "time": 69.42685365,
            "value": 0.5712890625
          },
          {
            "ticks": 18053,
            "time": 69.43454595,
            "value": 0
          },
          {
            "ticks": 18055,
            "time": 69.44223825,
            "value": -0.234375
          },
          {
            "ticks": 18057,
            "time": 69.44993054999999,
            "value": -0.3125
          },
          {
            "ticks": 18060,
            "time": 69.461469,
            "value": -0.109375
          },
          {
            "ticks": 18061,
            "time": 69.46531515,
            "value": 0.09521484375
          },
          {
            "ticks": 18064,
            "time": 69.4768536,
            "value": 0.25390625
          },
          {
            "ticks": 18066,
            "time": 69.4845459,
            "value": 0.142822265625
          },
          {
            "ticks": 18068,
            "time": 69.49223819999999,
            "value": 0
          },
          {
            "ticks": 18072,
            "time": 69.5076228,
            "value": 0.047607421875
          },
          {
            "ticks": 18074,
            "time": 69.5153151,
            "value": 0.015869140625
          },
          {
            "ticks": 18076,
            "time": 69.5230074,
            "value": 0
          },
          {
            "ticks": 18197,
            "time": 69.98839155,
            "value": 0
          },
          {
            "ticks": 18199,
            "time": 69.99608384999999,
            "value": 0.047607421875
          },
          {
            "ticks": 18201,
            "time": 70.00377615000001,
            "value": 0.09521484375
          },
          {
            "ticks": 18204,
            "time": 70.0153146,
            "value": 0.174560546875
          },
          {
            "ticks": 18206,
            "time": 70.0230069,
            "value": 0.238037109375
          },
          {
            "ticks": 18208,
            "time": 70.03069919999999,
            "value": 0.3173828125
          },
          {
            "ticks": 18210,
            "time": 70.0383915,
            "value": 0.396728515625
          },
          {
            "ticks": 18212,
            "time": 70.0460838,
            "value": 0.47607421875
          },
          {
            "ticks": 18214,
            "time": 70.0537761,
            "value": 0.5712890625
          },
          {
            "ticks": 18216,
            "time": 70.0614684,
            "value": 0.650634765625
          },
          {
            "ticks": 18218,
            "time": 70.0691607,
            "value": 0.745849609375
          },
          {
            "ticks": 18220,
            "time": 70.076853,
            "value": 0.841064453125
          },
          {
            "ticks": 18223,
            "time": 70.08839144999999,
            "value": 0.92041015625
          },
          {
            "ticks": 18225,
            "time": 70.09608374999999,
            "value": 0.999755859375
          },
          {
            "ticks": 18260,
            "time": 70.23069899999999,
            "value": 0.968017578125
          },
          {
            "ticks": 18262,
            "time": 70.2383913,
            "value": 0.682373046875
          },
          {
            "ticks": 18264,
            "time": 70.24608359999999,
            "value": 0.1904296875
          },
          {
            "ticks": 18266,
            "time": 70.2537759,
            "value": -0.125
          },
          {
            "ticks": 18268,
            "time": 70.2614682,
            "value": -0.28125
          },
          {
            "ticks": 18271,
            "time": 70.27300665,
            "value": -0.15625
          },
          {
            "ticks": 18272,
            "time": 70.2768528,
            "value": 0
          },
          {
            "ticks": 18275,
            "time": 70.28839124999999,
            "value": 0.22216796875
          },
          {
            "ticks": 18277,
            "time": 70.29608354999999,
            "value": 0.15869140625
          },
          {
            "ticks": 18279,
            "time": 70.30377585,
            "value": 0
          },
          {
            "ticks": 18283,
            "time": 70.31916044999998,
            "value": 0.047607421875
          },
          {
            "ticks": 18285,
            "time": 70.32685275,
            "value": 0.015869140625
          },
          {
            "ticks": 18287,
            "time": 70.33454505,
            "value": 0
          },
          {
            "ticks": 18289,
            "time": 70.34223734999999,
            "value": 0
          },
          {
            "ticks": 18306,
            "time": 70.4076219,
            "value": 0
          },
          {
            "ticks": 18947,
            "time": 72.87300405,
            "value": 0.03173828125
          },
          {
            "ticks": 18950,
            "time": 72.8845425,
            "value": 0.079345703125
          },
          {
            "ticks": 18952,
            "time": 72.8922348,
            "value": 0.126953125
          },
          {
            "ticks": 18954,
            "time": 72.89992709999999,
            "value": 0.206298828125
          },
          {
            "ticks": 18956,
            "time": 72.9076194,
            "value": 0.3173828125
          },
          {
            "ticks": 18958,
            "time": 72.91531169999999,
            "value": 0.428466796875
          },
          {
            "ticks": 18960,
            "time": 72.92300399999999,
            "value": 0.523681640625
          },
          {
            "ticks": 18962,
            "time": 72.93069630000001,
            "value": 0.60302734375
          },
          {
            "ticks": 18964,
            "time": 72.9383886,
            "value": 0.6982421875
          },
          {
            "ticks": 18966,
            "time": 72.9460809,
            "value": 0.777587890625
          },
          {
            "ticks": 18969,
            "time": 72.95761934999999,
            "value": 0.872802734375
          },
          {
            "ticks": 18971,
            "time": 72.96531164999999,
            "value": 0.999755859375
          },
          {
            "ticks": 19008,
            "time": 73.1076192,
            "value": 0.872802734375
          },
          {
            "ticks": 19010,
            "time": 73.11531149999999,
            "value": 0.47607421875
          },
          {
            "ticks": 19012,
            "time": 73.12300379999999,
            "value": 0
          },
          {
            "ticks": 19015,
            "time": 73.13454225,
            "value": -0.265625
          },
          {
            "ticks": 19017,
            "time": 73.14223455,
            "value": -0.25
          },
          {
            "ticks": 19019,
            "time": 73.14992685,
            "value": 0
          },
          {
            "ticks": 19021,
            "time": 73.15761914999999,
            "value": 0.15869140625
          },
          {
            "ticks": 19023,
            "time": 73.16531145,
            "value": 0.22216796875
          },
          {
            "ticks": 19025,
            "time": 73.17300374999999,
            "value": 0.03173828125
          },
          {
            "ticks": 19027,
            "time": 73.18069605,
            "value": 0
          },
          {
            "ticks": 19031,
            "time": 73.19608065,
            "value": 0.047607421875
          },
          {
            "ticks": 19033,
            "time": 73.20377294999999,
            "value": 0
          },
          {
            "ticks": 19035,
            "time": 73.21146524999999,
            "value": 0.015869140625
          },
          {
            "ticks": 19037,
            "time": 73.21915755,
            "value": 0
          },
          {
            "ticks": 19199,
            "time": 73.84223385,
            "value": 0.015869140625
          },
          {
            "ticks": 19201,
            "time": 73.84992614999999,
            "value": 0.0634765625
          },
          {
            "ticks": 19203,
            "time": 73.85761845,
            "value": 0.126953125
          },
          {
            "ticks": 19205,
            "time": 73.86531074999999,
            "value": 0.22216796875
          },
          {
            "ticks": 19207,
            "time": 73.87300305,
            "value": 0.3173828125
          },
          {
            "ticks": 19209,
            "time": 73.88069535,
            "value": 0.41259765625
          },
          {
            "ticks": 19211,
            "time": 73.88838765,
            "value": 0.47607421875
          },
          {
            "ticks": 19213,
            "time": 73.89607994999999,
            "value": 0.555419921875
          },
          {
            "ticks": 19215,
            "time": 73.90377224999999,
            "value": 0.618896484375
          },
          {
            "ticks": 19217,
            "time": 73.91146455,
            "value": 0.682373046875
          },
          {
            "ticks": 19219,
            "time": 73.91915685,
            "value": 0.76171875
          },
          {
            "ticks": 19221,
            "time": 73.92684915,
            "value": 0.841064453125
          },
          {
            "ticks": 19224,
            "time": 73.93838759999998,
            "value": 0.92041015625
          },
          {
            "ticks": 19226,
            "time": 73.9460799,
            "value": 0.999755859375
          },
          {
            "ticks": 19284,
            "time": 74.1691566,
            "value": 0.777587890625
          },
          {
            "ticks": 19286,
            "time": 74.1768489,
            "value": 0.238037109375
          },
          {
            "ticks": 19288,
            "time": 74.18454119999998,
            "value": -0.125
          },
          {
            "ticks": 19290,
            "time": 74.1922335,
            "value": -0.375
          },
          {
            "ticks": 19292,
            "time": 74.1999258,
            "value": -0.265625
          },
          {
            "ticks": 19294,
            "time": 74.20761809999999,
            "value": 0
          },
          {
            "ticks": 19297,
            "time": 74.21915655,
            "value": 0.22216796875
          },
          {
            "ticks": 19299,
            "time": 74.22684885,
            "value": 0.25390625
          },
          {
            "ticks": 19301,
            "time": 74.23454115,
            "value": 0.047607421875
          },
          {
            "ticks": 19303,
            "time": 74.24223344999999,
            "value": 0
          },
          {
            "ticks": 19307,
            "time": 74.25761805,
            "value": 0.079345703125
          },
          {
            "ticks": 19309,
            "time": 74.26531035,
            "value": 0
          },
          {
            "ticks": 22787,
            "time": 87.64222005,
            "value": 0.03173828125
          },
          {
            "ticks": 22790,
            "time": 87.6537585,
            "value": 0.079345703125
          },
          {
            "ticks": 22792,
            "time": 87.6614508,
            "value": 0.126953125
          },
          {
            "ticks": 22794,
            "time": 87.66914309999999,
            "value": 0.206298828125
          },
          {
            "ticks": 22796,
            "time": 87.6768354,
            "value": 0.3173828125
          },
          {
            "ticks": 22798,
            "time": 87.68452769999999,
            "value": 0.428466796875
          },
          {
            "ticks": 22800,
            "time": 87.69221999999999,
            "value": 0.523681640625
          },
          {
            "ticks": 22802,
            "time": 87.6999123,
            "value": 0.60302734375
          },
          {
            "ticks": 22804,
            "time": 87.7076046,
            "value": 0.6982421875
          },
          {
            "ticks": 22806,
            "time": 87.7152969,
            "value": 0.777587890625
          },
          {
            "ticks": 22809,
            "time": 87.72683534999999,
            "value": 0.872802734375
          },
          {
            "ticks": 22811,
            "time": 87.73452764999999,
            "value": 0.999755859375
          },
          {
            "ticks": 22848,
            "time": 87.8768352,
            "value": 0.872802734375
          },
          {
            "ticks": 22850,
            "time": 87.88452749999999,
            "value": 0.47607421875
          },
          {
            "ticks": 22852,
            "time": 87.89221979999999,
            "value": 0
          },
          {
            "ticks": 22855,
            "time": 87.90375825,
            "value": -0.265625
          },
          {
            "ticks": 22857,
            "time": 87.91145055,
            "value": -0.25
          },
          {
            "ticks": 22859,
            "time": 87.91914285,
            "value": 0
          },
          {
            "ticks": 22861,
            "time": 87.92683514999999,
            "value": 0.15869140625
          },
          {
            "ticks": 22863,
            "time": 87.93452744999999,
            "value": 0.22216796875
          },
          {
            "ticks": 22865,
            "time": 87.94221974999999,
            "value": 0.03173828125
          },
          {
            "ticks": 22867,
            "time": 87.94991205,
            "value": 0
          },
          {
            "ticks": 22871,
            "time": 87.96529665,
            "value": 0.047607421875
          },
          {
            "ticks": 22873,
            "time": 87.97298894999999,
            "value": 0
          },
          {
            "ticks": 22875,
            "time": 87.98068124999999,
            "value": 0.015869140625
          },
          {
            "ticks": 22877,
            "time": 87.98837355,
            "value": 0
          },
          {
            "ticks": 23039,
            "time": 88.61144985,
            "value": 0.015869140625
          },
          {
            "ticks": 23041,
            "time": 88.61914214999999,
            "value": 0.0634765625
          },
          {
            "ticks": 23043,
            "time": 88.62683444999999,
            "value": 0.126953125
          },
          {
            "ticks": 23045,
            "time": 88.63452674999999,
            "value": 0.22216796875
          },
          {
            "ticks": 23047,
            "time": 88.64221905,
            "value": 0.3173828125
          },
          {
            "ticks": 23049,
            "time": 88.64991134999998,
            "value": 0.41259765625
          },
          {
            "ticks": 23051,
            "time": 88.65760365,
            "value": 0.47607421875
          },
          {
            "ticks": 23053,
            "time": 88.66529594999999,
            "value": 0.555419921875
          },
          {
            "ticks": 23055,
            "time": 88.67298824999999,
            "value": 0.618896484375
          },
          {
            "ticks": 23057,
            "time": 88.68068055,
            "value": 0.682373046875
          },
          {
            "ticks": 23059,
            "time": 88.68837285,
            "value": 0.76171875
          },
          {
            "ticks": 23061,
            "time": 88.69606515,
            "value": 0.841064453125
          },
          {
            "ticks": 23064,
            "time": 88.70760359999998,
            "value": 0.92041015625
          },
          {
            "ticks": 23066,
            "time": 88.7152959,
            "value": 0.999755859375
          },
          {
            "ticks": 23124,
            "time": 88.9383726,
            "value": 0.777587890625
          },
          {
            "ticks": 23126,
            "time": 88.9460649,
            "value": 0.238037109375
          },
          {
            "ticks": 23128,
            "time": 88.95375719999998,
            "value": -0.125
          },
          {
            "ticks": 23130,
            "time": 88.9614495,
            "value": -0.375
          },
          {
            "ticks": 23132,
            "time": 88.9691418,
            "value": -0.265625
          },
          {
            "ticks": 23134,
            "time": 88.97683409999999,
            "value": 0
          },
          {
            "ticks": 23137,
            "time": 88.98837255,
            "value": 0.22216796875
          },
          {
            "ticks": 23139,
            "time": 88.99606484999998,
            "value": 0.25390625
          },
          {
            "ticks": 23141,
            "time": 89.00375715,
            "value": 0.047607421875
          },
          {
            "ticks": 23143,
            "time": 89.01144944999999,
            "value": 0
          },
          {
            "ticks": 23147,
            "time": 89.02683405,
            "value": 0.079345703125
          },
          {
            "ticks": 23149,
            "time": 89.03452635,
            "value": 0
          },
          {
            "ticks": 36226,
            "time": 139.33062989999996,
            "value": 0.015869140625
          },
          {
            "ticks": 36228,
            "time": 139.33832219999996,
            "value": 0.0634765625
          },
          {
            "ticks": 36230,
            "time": 139.3460145,
            "value": 0.111083984375
          },
          {
            "ticks": 36232,
            "time": 139.35370679999997,
            "value": 0.174560546875
          },
          {
            "ticks": 36234,
            "time": 139.36139909999997,
            "value": 0.22216796875
          },
          {
            "ticks": 36236,
            "time": 139.36909139999997,
            "value": 0.28564453125
          },
          {
            "ticks": 36239,
            "time": 139.38062985,
            "value": 0.380859375
          },
          {
            "ticks": 36241,
            "time": 139.38832214999996,
            "value": 0.47607421875
          },
          {
            "ticks": 36243,
            "time": 139.39601444999997,
            "value": 0.5712890625
          },
          {
            "ticks": 36245,
            "time": 139.40370674999997,
            "value": 0.66650390625
          },
          {
            "ticks": 36247,
            "time": 139.41139904999997,
            "value": 0.76171875
          },
          {
            "ticks": 36249,
            "time": 139.41909134999997,
            "value": 0.841064453125
          },
          {
            "ticks": 36251,
            "time": 139.42678364999995,
            "value": 0.936279296875
          },
          {
            "ticks": 36253,
            "time": 139.43447594999998,
            "value": 0.999755859375
          },
          {
            "ticks": 36289,
            "time": 139.57293735,
            "value": 0.968017578125
          },
          {
            "ticks": 36291,
            "time": 139.58062965,
            "value": 0.6982421875
          },
          {
            "ticks": 36293,
            "time": 139.58832194999997,
            "value": 0.206298828125
          },
          {
            "ticks": 36295,
            "time": 139.59601424999997,
            "value": -0.109375
          },
          {
            "ticks": 36297,
            "time": 139.60370655,
            "value": -0.28125
          },
          {
            "ticks": 36299,
            "time": 139.61139884999997,
            "value": -0.171875
          },
          {
            "ticks": 36301,
            "time": 139.61909114999997,
            "value": 0
          },
          {
            "ticks": 36303,
            "time": 139.62678344999998,
            "value": 0.22216796875
          },
          {
            "ticks": 36305,
            "time": 139.63447574999998,
            "value": 0.15869140625
          },
          {
            "ticks": 36308,
            "time": 139.64601419999997,
            "value": 0
          },
          {
            "ticks": 36312,
            "time": 139.66139879999997,
            "value": 0.047607421875
          },
          {
            "ticks": 36314,
            "time": 139.66909109999997,
            "value": 0.015869140625
          },
          {
            "ticks": 36316,
            "time": 139.67678339999998,
            "value": 0
          },
          {
            "ticks": 36318,
            "time": 139.68447569999995,
            "value": 0
          },
          {
            "ticks": 36324,
            "time": 139.70755259999996,
            "value": 0
          },
          {
            "ticks": 36441,
            "time": 140.15755215,
            "value": 0.015869140625
          },
          {
            "ticks": 36443,
            "time": 140.16524444999996,
            "value": 0.079345703125
          },
          {
            "ticks": 36445,
            "time": 140.17293674999996,
            "value": 0.142822265625
          },
          {
            "ticks": 36448,
            "time": 140.18447519999998,
            "value": 0.238037109375
          },
          {
            "ticks": 36450,
            "time": 140.19216749999998,
            "value": 0.3173828125
          },
          {
            "ticks": 36452,
            "time": 140.19985979999996,
            "value": 0.428466796875
          },
          {
            "ticks": 36454,
            "time": 140.2075521,
            "value": 0.523681640625
          },
          {
            "ticks": 36456,
            "time": 140.2152444,
            "value": 0.587158203125
          },
          {
            "ticks": 36458,
            "time": 140.22293669999996,
            "value": 0.650634765625
          },
          {
            "ticks": 36460,
            "time": 140.23062899999996,
            "value": 0.714111328125
          },
          {
            "ticks": 36462,
            "time": 140.2383213,
            "value": 0.809326171875
          },
          {
            "ticks": 36464,
            "time": 140.24601359999997,
            "value": 0.888671875
          },
          {
            "ticks": 36467,
            "time": 140.25755204999996,
            "value": 0.98388671875
          },
          {
            "ticks": 36468,
            "time": 140.26139819999997,
            "value": 0.999755859375
          },
          {
            "ticks": 36498,
            "time": 140.37678269999995,
            "value": 0.904541015625
          },
          {
            "ticks": 36500,
            "time": 140.38447499999998,
            "value": 0.555419921875
          },
          {
            "ticks": 36502,
            "time": 140.39216729999998,
            "value": 0.03173828125
          },
          {
            "ticks": 36504,
            "time": 140.39985959999996,
            "value": -0.171875
          },
          {
            "ticks": 36506,
            "time": 140.40755189999996,
            "value": -0.21875
          },
          {
            "ticks": 36508,
            "time": 140.4152442,
            "value": -0.015625
          },
          {
            "ticks": 36510,
            "time": 140.42293649999996,
            "value": 0.126953125
          },
          {
            "ticks": 36512,
            "time": 140.43062879999997,
            "value": 0.206298828125
          },
          {
            "ticks": 36514,
            "time": 140.4383211,
            "value": 0.03173828125
          },
          {
            "ticks": 36516,
            "time": 140.44601339999997,
            "value": 0
          },
          {
            "ticks": 36521,
            "time": 140.46524414999996,
            "value": 0.047607421875
          },
          {
            "ticks": 36523,
            "time": 140.47293645,
            "value": 0
          },
          {
            "ticks": 36525,
            "time": 140.48062874999997,
            "value": 0
          },
          {
            "ticks": 37191,
            "time": 143.04216465,
            "value": 0.03173828125
          },
          {
            "ticks": 37194,
            "time": 143.05370309999998,
            "value": 0.09521484375
          },
          {
            "ticks": 37195,
            "time": 143.05754924999997,
            "value": 0.142822265625
          },
          {
            "ticks": 37198,
            "time": 143.06908769999998,
            "value": 0.22216796875
          },
          {
            "ticks": 37200,
            "time": 143.07677999999999,
            "value": 0.3173828125
          },
          {
            "ticks": 37202,
            "time": 143.08447229999996,
            "value": 0.428466796875
          },
          {
            "ticks": 37204,
            "time": 143.0921646,
            "value": 0.523681640625
          },
          {
            "ticks": 37206,
            "time": 143.0998569,
            "value": 0.618896484375
          },
          {
            "ticks": 37208,
            "time": 143.10754919999997,
            "value": 0.6982421875
          },
          {
            "ticks": 37210,
            "time": 143.11524149999997,
            "value": 0.79345703125
          },
          {
            "ticks": 37212,
            "time": 143.12293379999997,
            "value": 0.872802734375
          },
          {
            "ticks": 37214,
            "time": 143.13062609999997,
            "value": 0.968017578125
          },
          {
            "ticks": 37216,
            "time": 143.13831839999997,
            "value": 0.999755859375
          },
          {
            "ticks": 37250,
            "time": 143.26908749999998,
            "value": 0.888671875
          },
          {
            "ticks": 37252,
            "time": 143.27677979999999,
            "value": 0.53955078125
          },
          {
            "ticks": 37254,
            "time": 143.28447209999996,
            "value": 0
          },
          {
            "ticks": 37256,
            "time": 143.29216439999996,
            "value": -0.234375
          },
          {
            "ticks": 37258,
            "time": 143.2998567,
            "value": -0.28125
          },
          {
            "ticks": 37260,
            "time": 143.30754899999997,
            "value": -0.0625
          },
          {
            "ticks": 37262,
            "time": 143.31524129999997,
            "value": 0.111083984375
          },
          {
            "ticks": 37264,
            "time": 143.3229336,
            "value": 0.238037109375
          },
          {
            "ticks": 37266,
            "time": 143.33062589999997,
            "value": 0.111083984375
          },
          {
            "ticks": 37268,
            "time": 143.33831819999997,
            "value": 0
          },
          {
            "ticks": 37273,
            "time": 143.35754895,
            "value": 0.0634765625
          },
          {
            "ticks": 37275,
            "time": 143.36524124999997,
            "value": 0
          },
          {
            "ticks": 37396,
            "time": 143.83062539999997,
            "value": 0.015869140625
          },
          {
            "ticks": 37398,
            "time": 143.83831769999998,
            "value": 0.047607421875
          },
          {
            "ticks": 37400,
            "time": 143.84600999999998,
            "value": 0.09521484375
          },
          {
            "ticks": 37402,
            "time": 143.85370229999998,
            "value": 0.174560546875
          },
          {
            "ticks": 37404,
            "time": 143.86139459999995,
            "value": 0.25390625
          },
          {
            "ticks": 37407,
            "time": 143.87293304999997,
            "value": 0.380859375
          },
          {
            "ticks": 37409,
            "time": 143.88062534999997,
            "value": 0.491943359375
          },
          {
            "ticks": 37411,
            "time": 143.88831764999998,
            "value": 0.587158203125
          },
          {
            "ticks": 37413,
            "time": 143.89600994999995,
            "value": 0.682373046875
          },
          {
            "ticks": 37415,
            "time": 143.90370224999998,
            "value": 0.777587890625
          },
          {
            "ticks": 37417,
            "time": 143.91139454999998,
            "value": 0.85693359375
          },
          {
            "ticks": 37419,
            "time": 143.91908684999996,
            "value": 0.968017578125
          },
          {
            "ticks": 37421,
            "time": 143.92677914999996,
            "value": 0.999755859375
          },
          {
            "ticks": 37453,
            "time": 144.04985595,
            "value": 0.745849609375
          },
          {
            "ticks": 37455,
            "time": 144.05754824999997,
            "value": 0.238037109375
          },
          {
            "ticks": 37456,
            "time": 144.06139439999998,
            "value": -0.09375
          },
          {
            "ticks": 37459,
            "time": 144.07293284999997,
            "value": -0.296875
          },
          {
            "ticks": 37461,
            "time": 144.08062514999997,
            "value": -0.1875
          },
          {
            "ticks": 37463,
            "time": 144.08831744999998,
            "value": 0
          },
          {
            "ticks": 37465,
            "time": 144.09600974999995,
            "value": 0.22216796875
          },
          {
            "ticks": 37467,
            "time": 144.10370204999998,
            "value": 0.1904296875
          },
          {
            "ticks": 37469,
            "time": 144.11139434999998,
            "value": 0
          },
          {
            "ticks": 37473,
            "time": 144.12677894999996,
            "value": 0.03173828125
          },
          {
            "ticks": 37475,
            "time": 144.13447125,
            "value": 0.047607421875
          },
          {
            "ticks": 37478,
            "time": 144.14600969999998,
            "value": 0
          },
          {
            "ticks": 37480,
            "time": 144.15370199999995,
            "value": 0
          },
          {
            "ticks": 37482,
            "time": 144.16139429999998,
            "value": 0
          },
          {
            "ticks": 38146,
            "time": 146.71523789999998,
            "value": 0.015869140625
          },
          {
            "ticks": 38148,
            "time": 146.72293019999995,
            "value": 0.0634765625
          },
          {
            "ticks": 38150,
            "time": 146.73062249999998,
            "value": 0.111083984375
          },
          {
            "ticks": 38152,
            "time": 146.73831479999998,
            "value": 0.174560546875
          },
          {
            "ticks": 38154,
            "time": 146.74600709999996,
            "value": 0.22216796875
          },
          {
            "ticks": 38156,
            "time": 146.75369939999996,
            "value": 0.28564453125
          },
          {
            "ticks": 38159,
            "time": 146.76523784999998,
            "value": 0.380859375
          },
          {
            "ticks": 38161,
            "time": 146.77293014999998,
            "value": 0.47607421875
          },
          {
            "ticks": 38163,
            "time": 146.78062244999995,
            "value": 0.5712890625
          },
          {
            "ticks": 38165,
            "time": 146.78831474999998,
            "value": 0.66650390625
          },
          {
            "ticks": 38167,
            "time": 146.79600705,
            "value": 0.76171875
          },
          {
            "ticks": 38169,
            "time": 146.80369934999996,
            "value": 0.841064453125
          },
          {
            "ticks": 38171,
            "time": 146.81139164999996,
            "value": 0.936279296875
          },
          {
            "ticks": 38173,
            "time": 146.81908395,
            "value": 0.999755859375
          },
          {
            "ticks": 38209,
            "time": 146.95754534999998,
            "value": 0.968017578125
          },
          {
            "ticks": 38211,
            "time": 146.96523764999998,
            "value": 0.6982421875
          },
          {
            "ticks": 38213,
            "time": 146.97292994999998,
            "value": 0.206298828125
          },
          {
            "ticks": 38215,
            "time": 146.98062224999995,
            "value": -0.109375
          },
          {
            "ticks": 38217,
            "time": 146.98831454999998,
            "value": -0.28125
          },
          {
            "ticks": 38219,
            "time": 146.99600685,
            "value": -0.171875
          },
          {
            "ticks": 38221,
            "time": 147.00369914999996,
            "value": 0
          },
          {
            "ticks": 38223,
            "time": 147.01139144999996,
            "value": 0.22216796875
          },
          {
            "ticks": 38225,
            "time": 147.01908375,
            "value": 0.15869140625
          },
          {
            "ticks": 38228,
            "time": 147.03062219999998,
            "value": 0
          },
          {
            "ticks": 38232,
            "time": 147.0460068,
            "value": 0.047607421875
          },
          {
            "ticks": 38234,
            "time": 147.0536991,
            "value": 0.015869140625
          },
          {
            "ticks": 38236,
            "time": 147.06139139999996,
            "value": 0
          },
          {
            "ticks": 38238,
            "time": 147.06908369999996,
            "value": 0
          },
          {
            "ticks": 38244,
            "time": 147.09216059999997,
            "value": 0
          },
          {
            "ticks": 38361,
            "time": 147.54216014999997,
            "value": 0.015869140625
          },
          {
            "ticks": 38363,
            "time": 147.54985244999997,
            "value": 0.079345703125
          },
          {
            "ticks": 38365,
            "time": 147.55754474999998,
            "value": 0.142822265625
          },
          {
            "ticks": 38368,
            "time": 147.56908319999997,
            "value": 0.238037109375
          },
          {
            "ticks": 38370,
            "time": 147.57677549999997,
            "value": 0.3173828125
          },
          {
            "ticks": 38372,
            "time": 147.58446779999997,
            "value": 0.428466796875
          },
          {
            "ticks": 38374,
            "time": 147.59216009999997,
            "value": 0.523681640625
          },
          {
            "ticks": 38376,
            "time": 147.59985239999997,
            "value": 0.587158203125
          },
          {
            "ticks": 38378,
            "time": 147.60754469999998,
            "value": 0.650634765625
          },
          {
            "ticks": 38380,
            "time": 147.61523699999995,
            "value": 0.714111328125
          },
          {
            "ticks": 38382,
            "time": 147.62292929999998,
            "value": 0.809326171875
          },
          {
            "ticks": 38384,
            "time": 147.63062159999998,
            "value": 0.888671875
          },
          {
            "ticks": 38387,
            "time": 147.64216004999997,
            "value": 0.98388671875
          },
          {
            "ticks": 38388,
            "time": 147.64600619999996,
            "value": 0.999755859375
          },
          {
            "ticks": 38418,
            "time": 147.76139069999996,
            "value": 0.904541015625
          },
          {
            "ticks": 38420,
            "time": 147.769083,
            "value": 0.555419921875
          },
          {
            "ticks": 38422,
            "time": 147.77677529999997,
            "value": 0.03173828125
          },
          {
            "ticks": 38424,
            "time": 147.78446759999997,
            "value": -0.171875
          },
          {
            "ticks": 38426,
            "time": 147.79215989999997,
            "value": -0.21875
          },
          {
            "ticks": 38428,
            "time": 147.79985219999998,
            "value": -0.015625
          },
          {
            "ticks": 38430,
            "time": 147.80754449999998,
            "value": 0.126953125
          },
          {
            "ticks": 38432,
            "time": 147.81523679999998,
            "value": 0.206298828125
          },
          {
            "ticks": 38434,
            "time": 147.82292909999998,
            "value": 0.03173828125
          },
          {
            "ticks": 38436,
            "time": 147.83062139999998,
            "value": 0
          },
          {
            "ticks": 38441,
            "time": 147.84985214999995,
            "value": 0.047607421875
          },
          {
            "ticks": 38443,
            "time": 147.85754444999998,
            "value": 0
          },
          {
            "ticks": 38445,
            "time": 147.86523674999998,
            "value": 0
          },
          {
            "ticks": 39111,
            "time": 150.42677264999998,
            "value": 0.03173828125
          },
          {
            "ticks": 39114,
            "time": 150.43831109999996,
            "value": 0.09521484375
          },
          {
            "ticks": 39115,
            "time": 150.44215724999995,
            "value": 0.142822265625
          },
          {
            "ticks": 39118,
            "time": 150.45369569999997,
            "value": 0.22216796875
          },
          {
            "ticks": 39120,
            "time": 150.46138799999997,
            "value": 0.3173828125
          },
          {
            "ticks": 39122,
            "time": 150.46908029999997,
            "value": 0.428466796875
          },
          {
            "ticks": 39124,
            "time": 150.47677259999998,
            "value": 0.523681640625
          },
          {
            "ticks": 39126,
            "time": 150.48446489999998,
            "value": 0.618896484375
          },
          {
            "ticks": 39128,
            "time": 150.49215719999998,
            "value": 0.6982421875
          },
          {
            "ticks": 39130,
            "time": 150.49984949999995,
            "value": 0.79345703125
          },
          {
            "ticks": 39132,
            "time": 150.50754179999998,
            "value": 0.872802734375
          },
          {
            "ticks": 39134,
            "time": 150.5152341,
            "value": 0.968017578125
          },
          {
            "ticks": 39136,
            "time": 150.52292639999996,
            "value": 0.999755859375
          },
          {
            "ticks": 39170,
            "time": 150.65369549999997,
            "value": 0.888671875
          },
          {
            "ticks": 39172,
            "time": 150.66138779999997,
            "value": 0.53955078125
          },
          {
            "ticks": 39174,
            "time": 150.66908009999997,
            "value": 0
          },
          {
            "ticks": 39176,
            "time": 150.67677239999995,
            "value": -0.234375
          },
          {
            "ticks": 39178,
            "time": 150.68446469999998,
            "value": -0.28125
          },
          {
            "ticks": 39180,
            "time": 150.69215699999998,
            "value": -0.0625
          },
          {
            "ticks": 39182,
            "time": 150.69984929999995,
            "value": 0.111083984375
          },
          {
            "ticks": 39184,
            "time": 150.70754159999998,
            "value": 0.238037109375
          },
          {
            "ticks": 39186,
            "time": 150.7152339,
            "value": 0.111083984375
          },
          {
            "ticks": 39188,
            "time": 150.72292619999996,
            "value": 0
          },
          {
            "ticks": 39193,
            "time": 150.74215694999998,
            "value": 0.0634765625
          },
          {
            "ticks": 39195,
            "time": 150.74984924999998,
            "value": 0
          },
          {
            "ticks": 39316,
            "time": 151.21523339999996,
            "value": 0.015869140625
          },
          {
            "ticks": 39318,
            "time": 151.22292569999996,
            "value": 0.047607421875
          },
          {
            "ticks": 39320,
            "time": 151.230618,
            "value": 0.09521484375
          },
          {
            "ticks": 39322,
            "time": 151.23831029999997,
            "value": 0.174560546875
          },
          {
            "ticks": 39324,
            "time": 151.24600259999997,
            "value": 0.25390625
          },
          {
            "ticks": 39327,
            "time": 151.25754105,
            "value": 0.380859375
          },
          {
            "ticks": 39329,
            "time": 151.26523335,
            "value": 0.491943359375
          },
          {
            "ticks": 39331,
            "time": 151.27292564999996,
            "value": 0.587158203125
          },
          {
            "ticks": 39333,
            "time": 151.28061794999996,
            "value": 0.682373046875
          },
          {
            "ticks": 39335,
            "time": 151.28831025,
            "value": 0.777587890625
          },
          {
            "ticks": 39337,
            "time": 151.29600254999997,
            "value": 0.85693359375
          },
          {
            "ticks": 39339,
            "time": 151.30369484999997,
            "value": 0.968017578125
          },
          {
            "ticks": 39341,
            "time": 151.31138714999997,
            "value": 0.999755859375
          },
          {
            "ticks": 39373,
            "time": 151.43446394999998,
            "value": 0.745849609375
          },
          {
            "ticks": 39375,
            "time": 151.44215624999998,
            "value": 0.238037109375
          },
          {
            "ticks": 39376,
            "time": 151.44600239999997,
            "value": -0.09375
          },
          {
            "ticks": 39379,
            "time": 151.45754085,
            "value": -0.296875
          },
          {
            "ticks": 39381,
            "time": 151.46523315,
            "value": -0.1875
          },
          {
            "ticks": 39383,
            "time": 151.47292544999996,
            "value": 0
          },
          {
            "ticks": 39385,
            "time": 151.48061774999996,
            "value": 0.22216796875
          },
          {
            "ticks": 39387,
            "time": 151.48831005,
            "value": 0.1904296875
          },
          {
            "ticks": 39389,
            "time": 151.49600234999997,
            "value": 0
          },
          {
            "ticks": 39393,
            "time": 151.51138694999997,
            "value": 0.03173828125
          },
          {
            "ticks": 39395,
            "time": 151.51907924999998,
            "value": 0.047607421875
          },
          {
            "ticks": 39398,
            "time": 151.53061769999996,
            "value": 0
          },
          {
            "ticks": 39400,
            "time": 151.53830999999997,
            "value": 0
          },
          {
            "ticks": 39402,
            "time": 151.54600229999997,
            "value": 0
          },
          {
            "ticks": 55426,
            "time": 213.17670989999996,
            "value": 0.015869140625
          },
          {
            "ticks": 55428,
            "time": 213.18440219999997,
            "value": 0.0634765625
          },
          {
            "ticks": 55430,
            "time": 213.19209449999997,
            "value": 0.111083984375
          },
          {
            "ticks": 55432,
            "time": 213.19978679999997,
            "value": 0.174560546875
          },
          {
            "ticks": 55434,
            "time": 213.20747909999997,
            "value": 0.22216796875
          },
          {
            "ticks": 55436,
            "time": 213.21517139999995,
            "value": 0.28564453125
          },
          {
            "ticks": 55439,
            "time": 213.22670984999996,
            "value": 0.380859375
          },
          {
            "ticks": 55441,
            "time": 213.23440214999997,
            "value": 0.47607421875
          },
          {
            "ticks": 55443,
            "time": 213.24209444999997,
            "value": 0.5712890625
          },
          {
            "ticks": 55445,
            "time": 213.24978674999997,
            "value": 0.66650390625
          },
          {
            "ticks": 55447,
            "time": 213.25747904999997,
            "value": 0.76171875
          },
          {
            "ticks": 55449,
            "time": 213.26517134999997,
            "value": 0.841064453125
          },
          {
            "ticks": 55451,
            "time": 213.27286364999995,
            "value": 0.936279296875
          },
          {
            "ticks": 55453,
            "time": 213.28055594999998,
            "value": 0.999755859375
          },
          {
            "ticks": 55489,
            "time": 213.41901735,
            "value": 0.968017578125
          },
          {
            "ticks": 55491,
            "time": 213.42670964999996,
            "value": 0.6982421875
          },
          {
            "ticks": 55493,
            "time": 213.43440194999997,
            "value": 0.206298828125
          },
          {
            "ticks": 55495,
            "time": 213.44209424999997,
            "value": -0.109375
          },
          {
            "ticks": 55497,
            "time": 213.44978654999997,
            "value": -0.28125
          },
          {
            "ticks": 55499,
            "time": 213.45747884999997,
            "value": -0.171875
          },
          {
            "ticks": 55501,
            "time": 213.46517114999997,
            "value": 0
          },
          {
            "ticks": 55503,
            "time": 213.47286344999995,
            "value": 0.22216796875
          },
          {
            "ticks": 55505,
            "time": 213.48055574999998,
            "value": 0.15869140625
          },
          {
            "ticks": 55508,
            "time": 213.49209419999997,
            "value": 0
          },
          {
            "ticks": 55512,
            "time": 213.50747879999997,
            "value": 0.047607421875
          },
          {
            "ticks": 55514,
            "time": 213.51517109999998,
            "value": 0.015869140625
          },
          {
            "ticks": 55516,
            "time": 213.52286339999995,
            "value": 0
          },
          {
            "ticks": 55518,
            "time": 213.53055569999995,
            "value": 0
          },
          {
            "ticks": 55524,
            "time": 213.55363259999996,
            "value": 0
          },
          {
            "ticks": 55641,
            "time": 214.00363214999996,
            "value": 0.015869140625
          },
          {
            "ticks": 55643,
            "time": 214.01132444999996,
            "value": 0.079345703125
          },
          {
            "ticks": 55645,
            "time": 214.01901674999996,
            "value": 0.142822265625
          },
          {
            "ticks": 55648,
            "time": 214.03055519999998,
            "value": 0.238037109375
          },
          {
            "ticks": 55650,
            "time": 214.03824749999995,
            "value": 0.3173828125
          },
          {
            "ticks": 55652,
            "time": 214.04593979999996,
            "value": 0.428466796875
          },
          {
            "ticks": 55654,
            "time": 214.0536321,
            "value": 0.523681640625
          },
          {
            "ticks": 55656,
            "time": 214.06132439999996,
            "value": 0.587158203125
          },
          {
            "ticks": 55658,
            "time": 214.06901669999996,
            "value": 0.650634765625
          },
          {
            "ticks": 55660,
            "time": 214.07670899999997,
            "value": 0.714111328125
          },
          {
            "ticks": 55662,
            "time": 214.08440129999997,
            "value": 0.809326171875
          },
          {
            "ticks": 55664,
            "time": 214.09209359999997,
            "value": 0.888671875
          },
          {
            "ticks": 55667,
            "time": 214.10363204999996,
            "value": 0.98388671875
          },
          {
            "ticks": 55668,
            "time": 214.10747819999995,
            "value": 0.999755859375
          },
          {
            "ticks": 55698,
            "time": 214.22286269999995,
            "value": 0.904541015625
          },
          {
            "ticks": 55700,
            "time": 214.23055499999998,
            "value": 0.555419921875
          },
          {
            "ticks": 55702,
            "time": 214.23824729999995,
            "value": 0.03173828125
          },
          {
            "ticks": 55704,
            "time": 214.24593959999996,
            "value": -0.171875
          },
          {
            "ticks": 55706,
            "time": 214.25363189999996,
            "value": -0.21875
          },
          {
            "ticks": 55708,
            "time": 214.26132419999996,
            "value": -0.015625
          },
          {
            "ticks": 55710,
            "time": 214.26901649999996,
            "value": 0.126953125
          },
          {
            "ticks": 55712,
            "time": 214.27670879999997,
            "value": 0.206298828125
          },
          {
            "ticks": 55714,
            "time": 214.28440109999997,
            "value": 0.03173828125
          },
          {
            "ticks": 55716,
            "time": 214.29209339999997,
            "value": 0
          },
          {
            "ticks": 55721,
            "time": 214.31132414999996,
            "value": 0.047607421875
          },
          {
            "ticks": 55723,
            "time": 214.31901644999996,
            "value": 0
          },
          {
            "ticks": 55725,
            "time": 214.32670874999997,
            "value": 0
          },
          {
            "ticks": 56391,
            "time": 216.88824464999996,
            "value": 0.03173828125
          },
          {
            "ticks": 56394,
            "time": 216.89978309999995,
            "value": 0.09521484375
          },
          {
            "ticks": 56395,
            "time": 216.90362924999997,
            "value": 0.142822265625
          },
          {
            "ticks": 56398,
            "time": 216.91516769999998,
            "value": 0.22216796875
          },
          {
            "ticks": 56400,
            "time": 216.92285999999996,
            "value": 0.3173828125
          },
          {
            "ticks": 56402,
            "time": 216.93055229999996,
            "value": 0.428466796875
          },
          {
            "ticks": 56404,
            "time": 216.9382446,
            "value": 0.523681640625
          },
          {
            "ticks": 56406,
            "time": 216.94593689999996,
            "value": 0.618896484375
          },
          {
            "ticks": 56408,
            "time": 216.95362919999997,
            "value": 0.6982421875
          },
          {
            "ticks": 56410,
            "time": 216.96132149999997,
            "value": 0.79345703125
          },
          {
            "ticks": 56412,
            "time": 216.96901379999997,
            "value": 0.872802734375
          },
          {
            "ticks": 56414,
            "time": 216.97670609999997,
            "value": 0.968017578125
          },
          {
            "ticks": 56416,
            "time": 216.98439839999998,
            "value": 0.999755859375
          },
          {
            "ticks": 56450,
            "time": 217.11516749999998,
            "value": 0.888671875
          },
          {
            "ticks": 56452,
            "time": 217.12285979999996,
            "value": 0.53955078125
          },
          {
            "ticks": 56454,
            "time": 217.13055209999996,
            "value": 0
          },
          {
            "ticks": 56456,
            "time": 217.13824439999996,
            "value": -0.234375
          },
          {
            "ticks": 56458,
            "time": 217.14593669999996,
            "value": -0.28125
          },
          {
            "ticks": 56460,
            "time": 217.15362899999997,
            "value": -0.0625
          },
          {
            "ticks": 56462,
            "time": 217.16132129999997,
            "value": 0.111083984375
          },
          {
            "ticks": 56464,
            "time": 217.16901359999997,
            "value": 0.238037109375
          },
          {
            "ticks": 56466,
            "time": 217.17670589999997,
            "value": 0.111083984375
          },
          {
            "ticks": 56468,
            "time": 217.18439819999998,
            "value": 0
          },
          {
            "ticks": 56473,
            "time": 217.20362894999997,
            "value": 0.0634765625
          },
          {
            "ticks": 56475,
            "time": 217.21132124999997,
            "value": 0
          },
          {
            "ticks": 56596,
            "time": 217.67670539999997,
            "value": 0.015869140625
          },
          {
            "ticks": 56598,
            "time": 217.68439769999995,
            "value": 0.047607421875
          },
          {
            "ticks": 56600,
            "time": 217.69208999999998,
            "value": 0.09521484375
          },
          {
            "ticks": 56602,
            "time": 217.69978229999995,
            "value": 0.174560546875
          },
          {
            "ticks": 56604,
            "time": 217.70747459999995,
            "value": 0.25390625
          },
          {
            "ticks": 56607,
            "time": 217.71901304999997,
            "value": 0.380859375
          },
          {
            "ticks": 56609,
            "time": 217.72670534999997,
            "value": 0.491943359375
          },
          {
            "ticks": 56611,
            "time": 217.73439764999995,
            "value": 0.587158203125
          },
          {
            "ticks": 56613,
            "time": 217.74208994999995,
            "value": 0.682373046875
          },
          {
            "ticks": 56615,
            "time": 217.74978224999998,
            "value": 0.777587890625
          },
          {
            "ticks": 56617,
            "time": 217.75747454999996,
            "value": 0.85693359375
          },
          {
            "ticks": 56619,
            "time": 217.76516684999996,
            "value": 0.968017578125
          },
          {
            "ticks": 56621,
            "time": 217.77285914999996,
            "value": 0.999755859375
          },
          {
            "ticks": 56653,
            "time": 217.89593594999997,
            "value": 0.745849609375
          },
          {
            "ticks": 56655,
            "time": 217.90362824999997,
            "value": 0.238037109375
          },
          {
            "ticks": 56656,
            "time": 217.90747439999996,
            "value": -0.09375
          },
          {
            "ticks": 56659,
            "time": 217.91901284999997,
            "value": -0.296875
          },
          {
            "ticks": 56661,
            "time": 217.92670514999998,
            "value": -0.1875
          },
          {
            "ticks": 56663,
            "time": 217.93439744999998,
            "value": 0
          },
          {
            "ticks": 56665,
            "time": 217.94208974999995,
            "value": 0.22216796875
          },
          {
            "ticks": 56667,
            "time": 217.94978204999998,
            "value": 0.1904296875
          },
          {
            "ticks": 56669,
            "time": 217.95747434999996,
            "value": 0
          },
          {
            "ticks": 56673,
            "time": 217.97285894999996,
            "value": 0.03173828125
          },
          {
            "ticks": 56675,
            "time": 217.98055124999996,
            "value": 0.047607421875
          },
          {
            "ticks": 56678,
            "time": 217.99208969999995,
            "value": 0
          },
          {
            "ticks": 56680,
            "time": 217.99978199999995,
            "value": 0
          },
          {
            "ticks": 56682,
            "time": 218.00747429999998,
            "value": 0
          },
          {
            "ticks": 57346,
            "time": 220.56131789999995,
            "value": 0.015869140625
          },
          {
            "ticks": 57348,
            "time": 220.56901019999995,
            "value": 0.0634765625
          },
          {
            "ticks": 57350,
            "time": 220.57670249999998,
            "value": 0.111083984375
          },
          {
            "ticks": 57352,
            "time": 220.58439479999996,
            "value": 0.174560546875
          },
          {
            "ticks": 57354,
            "time": 220.59208709999996,
            "value": 0.22216796875
          },
          {
            "ticks": 57356,
            "time": 220.59977939999996,
            "value": 0.28564453125
          },
          {
            "ticks": 57359,
            "time": 220.61131784999998,
            "value": 0.380859375
          },
          {
            "ticks": 57361,
            "time": 220.61901014999995,
            "value": 0.47607421875
          },
          {
            "ticks": 57363,
            "time": 220.62670244999995,
            "value": 0.5712890625
          },
          {
            "ticks": 57365,
            "time": 220.63439474999998,
            "value": 0.66650390625
          },
          {
            "ticks": 57367,
            "time": 220.64208704999996,
            "value": 0.76171875
          },
          {
            "ticks": 57369,
            "time": 220.64977934999996,
            "value": 0.841064453125
          },
          {
            "ticks": 57371,
            "time": 220.65747164999996,
            "value": 0.936279296875
          },
          {
            "ticks": 57373,
            "time": 220.66516394999996,
            "value": 0.999755859375
          },
          {
            "ticks": 57409,
            "time": 220.80362534999998,
            "value": 0.968017578125
          },
          {
            "ticks": 57411,
            "time": 220.81131764999998,
            "value": 0.6982421875
          },
          {
            "ticks": 57413,
            "time": 220.81900994999995,
            "value": 0.206298828125
          },
          {
            "ticks": 57415,
            "time": 220.82670224999995,
            "value": -0.109375
          },
          {
            "ticks": 57417,
            "time": 220.83439454999998,
            "value": -0.28125
          },
          {
            "ticks": 57419,
            "time": 220.84208684999996,
            "value": -0.171875
          },
          {
            "ticks": 57421,
            "time": 220.84977914999996,
            "value": 0
          },
          {
            "ticks": 57423,
            "time": 220.85747144999996,
            "value": 0.22216796875
          },
          {
            "ticks": 57425,
            "time": 220.86516374999997,
            "value": 0.15869140625
          },
          {
            "ticks": 57428,
            "time": 220.87670219999995,
            "value": 0
          },
          {
            "ticks": 57432,
            "time": 220.8920868,
            "value": 0.047607421875
          },
          {
            "ticks": 57434,
            "time": 220.89977909999996,
            "value": 0.015869140625
          },
          {
            "ticks": 57436,
            "time": 220.90747139999996,
            "value": 0
          },
          {
            "ticks": 57438,
            "time": 220.91516369999997,
            "value": 0
          },
          {
            "ticks": 57444,
            "time": 220.93824059999997,
            "value": 0
          },
          {
            "ticks": 57561,
            "time": 221.38824014999997,
            "value": 0.015869140625
          },
          {
            "ticks": 57563,
            "time": 221.39593244999998,
            "value": 0.079345703125
          },
          {
            "ticks": 57565,
            "time": 221.40362474999995,
            "value": 0.142822265625
          },
          {
            "ticks": 57568,
            "time": 221.41516319999997,
            "value": 0.238037109375
          },
          {
            "ticks": 57570,
            "time": 221.42285549999997,
            "value": 0.3173828125
          },
          {
            "ticks": 57572,
            "time": 221.43054779999997,
            "value": 0.428466796875
          },
          {
            "ticks": 57574,
            "time": 221.43824009999997,
            "value": 0.523681640625
          },
          {
            "ticks": 57576,
            "time": 221.44593239999998,
            "value": 0.587158203125
          },
          {
            "ticks": 57578,
            "time": 221.45362469999995,
            "value": 0.650634765625
          },
          {
            "ticks": 57580,
            "time": 221.46131699999995,
            "value": 0.714111328125
          },
          {
            "ticks": 57582,
            "time": 221.46900929999998,
            "value": 0.809326171875
          },
          {
            "ticks": 57584,
            "time": 221.47670159999996,
            "value": 0.888671875
          },
          {
            "ticks": 57587,
            "time": 221.48824004999994,
            "value": 0.98388671875
          },
          {
            "ticks": 57588,
            "time": 221.49208619999996,
            "value": 0.999755859375
          },
          {
            "ticks": 57618,
            "time": 221.60747069999996,
            "value": 0.904541015625
          },
          {
            "ticks": 57620,
            "time": 221.61516299999997,
            "value": 0.555419921875
          },
          {
            "ticks": 57622,
            "time": 221.62285529999997,
            "value": 0.03173828125
          },
          {
            "ticks": 57624,
            "time": 221.63054759999997,
            "value": -0.171875
          },
          {
            "ticks": 57626,
            "time": 221.63823989999995,
            "value": -0.21875
          },
          {
            "ticks": 57628,
            "time": 221.64593219999998,
            "value": -0.015625
          },
          {
            "ticks": 57630,
            "time": 221.65362449999998,
            "value": 0.126953125
          },
          {
            "ticks": 57632,
            "time": 221.66131679999995,
            "value": 0.206298828125
          },
          {
            "ticks": 57634,
            "time": 221.66900909999998,
            "value": 0.03173828125
          },
          {
            "ticks": 57636,
            "time": 221.67670139999996,
            "value": 0
          },
          {
            "ticks": 57641,
            "time": 221.69593214999995,
            "value": 0.047607421875
          },
          {
            "ticks": 57643,
            "time": 221.70362444999998,
            "value": 0
          },
          {
            "ticks": 57645,
            "time": 221.71131674999995,
            "value": 0
          },
          {
            "ticks": 58311,
            "time": 224.27285264999998,
            "value": 0.03173828125
          },
          {
            "ticks": 58314,
            "time": 224.28439109999997,
            "value": 0.09521484375
          },
          {
            "ticks": 58315,
            "time": 224.28823724999995,
            "value": 0.142822265625
          },
          {
            "ticks": 58318,
            "time": 224.29977569999997,
            "value": 0.22216796875
          },
          {
            "ticks": 58320,
            "time": 224.30746799999997,
            "value": 0.3173828125
          },
          {
            "ticks": 58322,
            "time": 224.31516029999995,
            "value": 0.428466796875
          },
          {
            "ticks": 58324,
            "time": 224.32285259999998,
            "value": 0.523681640625
          },
          {
            "ticks": 58326,
            "time": 224.33054489999998,
            "value": 0.618896484375
          },
          {
            "ticks": 58328,
            "time": 224.33823719999995,
            "value": 0.6982421875
          },
          {
            "ticks": 58330,
            "time": 224.34592949999995,
            "value": 0.79345703125
          },
          {
            "ticks": 58332,
            "time": 224.35362179999998,
            "value": 0.872802734375
          },
          {
            "ticks": 58334,
            "time": 224.36131409999996,
            "value": 0.968017578125
          },
          {
            "ticks": 58336,
            "time": 224.36900639999996,
            "value": 0.999755859375
          },
          {
            "ticks": 58370,
            "time": 224.49977549999997,
            "value": 0.888671875
          },
          {
            "ticks": 58372,
            "time": 224.50746779999997,
            "value": 0.53955078125
          },
          {
            "ticks": 58374,
            "time": 224.51516009999995,
            "value": 0
          },
          {
            "ticks": 58376,
            "time": 224.52285239999995,
            "value": -0.234375
          },
          {
            "ticks": 58378,
            "time": 224.53054469999998,
            "value": -0.28125
          },
          {
            "ticks": 58380,
            "time": 224.53823699999995,
            "value": -0.0625
          },
          {
            "ticks": 58382,
            "time": 224.54592929999995,
            "value": 0.111083984375
          },
          {
            "ticks": 58384,
            "time": 224.55362159999999,
            "value": 0.238037109375
          },
          {
            "ticks": 58386,
            "time": 224.56131389999996,
            "value": 0.111083984375
          },
          {
            "ticks": 58388,
            "time": 224.56900619999996,
            "value": 0
          },
          {
            "ticks": 58393,
            "time": 224.58823694999998,
            "value": 0.0634765625
          },
          {
            "ticks": 58395,
            "time": 224.59592924999995,
            "value": 0
          },
          {
            "ticks": 58516,
            "time": 225.06131339999996,
            "value": 0.015869140625
          },
          {
            "ticks": 58518,
            "time": 225.06900569999996,
            "value": 0.047607421875
          },
          {
            "ticks": 58520,
            "time": 225.07669799999996,
            "value": 0.09521484375
          },
          {
            "ticks": 58522,
            "time": 225.08439029999997,
            "value": 0.174560546875
          },
          {
            "ticks": 58524,
            "time": 225.09208259999997,
            "value": 0.25390625
          },
          {
            "ticks": 58527,
            "time": 225.10362105,
            "value": 0.380859375
          },
          {
            "ticks": 58529,
            "time": 225.11131334999996,
            "value": 0.491943359375
          },
          {
            "ticks": 58531,
            "time": 225.11900564999996,
            "value": 0.587158203125
          },
          {
            "ticks": 58533,
            "time": 225.12669794999996,
            "value": 0.682373046875
          },
          {
            "ticks": 58535,
            "time": 225.13439024999997,
            "value": 0.777587890625
          },
          {
            "ticks": 58537,
            "time": 225.14208254999997,
            "value": 0.85693359375
          },
          {
            "ticks": 58539,
            "time": 225.14977484999997,
            "value": 0.968017578125
          },
          {
            "ticks": 58541,
            "time": 225.15746714999995,
            "value": 0.999755859375
          },
          {
            "ticks": 58573,
            "time": 225.28054394999998,
            "value": 0.745849609375
          },
          {
            "ticks": 58575,
            "time": 225.28823624999995,
            "value": 0.238037109375
          },
          {
            "ticks": 58576,
            "time": 225.29208239999997,
            "value": -0.09375
          },
          {
            "ticks": 58579,
            "time": 225.30362085,
            "value": -0.296875
          },
          {
            "ticks": 58581,
            "time": 225.31131314999996,
            "value": -0.1875
          },
          {
            "ticks": 58583,
            "time": 225.31900544999996,
            "value": 0
          },
          {
            "ticks": 58585,
            "time": 225.32669774999997,
            "value": 0.22216796875
          },
          {
            "ticks": 58587,
            "time": 225.33439004999997,
            "value": 0.1904296875
          },
          {
            "ticks": 58589,
            "time": 225.34208234999997,
            "value": 0
          },
          {
            "ticks": 58593,
            "time": 225.35746694999995,
            "value": 0.03173828125
          },
          {
            "ticks": 58595,
            "time": 225.36515924999998,
            "value": 0.047607421875
          },
          {
            "ticks": 58598,
            "time": 225.37669769999997,
            "value": 0
          },
          {
            "ticks": 58600,
            "time": 225.38438999999997,
            "value": 0
          },
          {
            "ticks": 58602,
            "time": 225.39208229999997,
            "value": 0
          },
          {
            "ticks": 64066,
            "time": 246.40744589999997,
            "value": 0.015869140625
          },
          {
            "ticks": 64068,
            "time": 246.41513819999994,
            "value": 0.0634765625
          },
          {
            "ticks": 64070,
            "time": 246.42283049999995,
            "value": 0.111083984375
          },
          {
            "ticks": 64072,
            "time": 246.43052279999995,
            "value": 0.174560546875
          },
          {
            "ticks": 64074,
            "time": 246.43821509999998,
            "value": 0.22216796875
          },
          {
            "ticks": 64076,
            "time": 246.44590739999998,
            "value": 0.28564453125
          },
          {
            "ticks": 64079,
            "time": 246.45744584999997,
            "value": 0.380859375
          },
          {
            "ticks": 64081,
            "time": 246.46513814999994,
            "value": 0.47607421875
          },
          {
            "ticks": 64083,
            "time": 246.47283044999995,
            "value": 0.5712890625
          },
          {
            "ticks": 64085,
            "time": 246.48052274999995,
            "value": 0.66650390625
          },
          {
            "ticks": 64087,
            "time": 246.48821504999995,
            "value": 0.76171875
          },
          {
            "ticks": 64089,
            "time": 246.49590734999998,
            "value": 0.841064453125
          },
          {
            "ticks": 64091,
            "time": 246.50359964999998,
            "value": 0.936279296875
          },
          {
            "ticks": 64093,
            "time": 246.51129194999996,
            "value": 0.999755859375
          },
          {
            "ticks": 64129,
            "time": 246.64975334999994,
            "value": 0.968017578125
          },
          {
            "ticks": 64131,
            "time": 246.65744564999994,
            "value": 0.6982421875
          },
          {
            "ticks": 64133,
            "time": 246.66513794999997,
            "value": 0.206298828125
          },
          {
            "ticks": 64135,
            "time": 246.67283024999998,
            "value": -0.109375
          },
          {
            "ticks": 64137,
            "time": 246.68052254999998,
            "value": -0.28125
          },
          {
            "ticks": 64139,
            "time": 246.68821484999995,
            "value": -0.171875
          },
          {
            "ticks": 64141,
            "time": 246.69590714999995,
            "value": 0
          },
          {
            "ticks": 64143,
            "time": 246.70359944999996,
            "value": 0.22216796875
          },
          {
            "ticks": 64145,
            "time": 246.71129174999996,
            "value": 0.15869140625
          },
          {
            "ticks": 64148,
            "time": 246.72283019999998,
            "value": 0
          },
          {
            "ticks": 64152,
            "time": 246.73821479999998,
            "value": 0.047607421875
          },
          {
            "ticks": 64154,
            "time": 246.74590709999995,
            "value": 0.015869140625
          },
          {
            "ticks": 64156,
            "time": 246.75359939999996,
            "value": 0
          },
          {
            "ticks": 64158,
            "time": 246.76129169999996,
            "value": 0
          },
          {
            "ticks": 64164,
            "time": 246.7843686,
            "value": 0
          },
          {
            "ticks": 64281,
            "time": 247.23436814999994,
            "value": 0.015869140625
          },
          {
            "ticks": 64283,
            "time": 247.24206045,
            "value": 0.079345703125
          },
          {
            "ticks": 64285,
            "time": 247.24975274999997,
            "value": 0.142822265625
          },
          {
            "ticks": 64288,
            "time": 247.26129119999996,
            "value": 0.238037109375
          },
          {
            "ticks": 64290,
            "time": 247.26898349999996,
            "value": 0.3173828125
          },
          {
            "ticks": 64292,
            "time": 247.27667579999996,
            "value": 0.428466796875
          },
          {
            "ticks": 64294,
            "time": 247.28436809999994,
            "value": 0.523681640625
          },
          {
            "ticks": 64296,
            "time": 247.29206039999994,
            "value": 0.587158203125
          },
          {
            "ticks": 64298,
            "time": 247.2997527,
            "value": 0.650634765625
          },
          {
            "ticks": 64300,
            "time": 247.30744499999997,
            "value": 0.714111328125
          },
          {
            "ticks": 64302,
            "time": 247.31513729999998,
            "value": 0.809326171875
          },
          {
            "ticks": 64304,
            "time": 247.32282959999998,
            "value": 0.888671875
          },
          {
            "ticks": 64307,
            "time": 247.33436804999997,
            "value": 0.98388671875
          },
          {
            "ticks": 64308,
            "time": 247.33821419999995,
            "value": 0.999755859375
          },
          {
            "ticks": 64338,
            "time": 247.45359869999996,
            "value": 0.904541015625
          },
          {
            "ticks": 64340,
            "time": 247.46129099999993,
            "value": 0.555419921875
          },
          {
            "ticks": 64342,
            "time": 247.46898329999993,
            "value": 0.03173828125
          },
          {
            "ticks": 64344,
            "time": 247.4766756,
            "value": -0.171875
          },
          {
            "ticks": 64346,
            "time": 247.48436789999997,
            "value": -0.21875
          },
          {
            "ticks": 64348,
            "time": 247.49206019999997,
            "value": -0.015625
          },
          {
            "ticks": 64350,
            "time": 247.49975249999997,
            "value": 0.126953125
          },
          {
            "ticks": 64352,
            "time": 247.50744479999994,
            "value": 0.206298828125
          },
          {
            "ticks": 64354,
            "time": 247.51513709999995,
            "value": 0.03173828125
          },
          {
            "ticks": 64356,
            "time": 247.52282939999995,
            "value": 0
          },
          {
            "ticks": 64361,
            "time": 247.54206014999997,
            "value": 0.047607421875
          },
          {
            "ticks": 64363,
            "time": 247.54975244999997,
            "value": 0
          },
          {
            "ticks": 64365,
            "time": 247.55744474999997,
            "value": 0
          },
          {
            "ticks": 65031,
            "time": 250.11898064999994,
            "value": 0.03173828125
          },
          {
            "ticks": 65034,
            "time": 250.1305191,
            "value": 0.09521484375
          },
          {
            "ticks": 65035,
            "time": 250.13436524999997,
            "value": 0.142822265625
          },
          {
            "ticks": 65038,
            "time": 250.14590369999996,
            "value": 0.22216796875
          },
          {
            "ticks": 65040,
            "time": 250.15359599999996,
            "value": 0.3173828125
          },
          {
            "ticks": 65042,
            "time": 250.16128829999997,
            "value": 0.428466796875
          },
          {
            "ticks": 65044,
            "time": 250.16898059999994,
            "value": 0.523681640625
          },
          {
            "ticks": 65046,
            "time": 250.17667289999994,
            "value": 0.618896484375
          },
          {
            "ticks": 65048,
            "time": 250.18436519999997,
            "value": 0.6982421875
          },
          {
            "ticks": 65050,
            "time": 250.19205749999998,
            "value": 0.79345703125
          },
          {
            "ticks": 65052,
            "time": 250.19974979999998,
            "value": 0.872802734375
          },
          {
            "ticks": 65054,
            "time": 250.20744209999995,
            "value": 0.968017578125
          },
          {
            "ticks": 65056,
            "time": 250.21513439999995,
            "value": 0.999755859375
          },
          {
            "ticks": 65090,
            "time": 250.34590349999993,
            "value": 0.888671875
          },
          {
            "ticks": 65092,
            "time": 250.35359579999994,
            "value": 0.53955078125
          },
          {
            "ticks": 65094,
            "time": 250.3612881,
            "value": 0
          },
          {
            "ticks": 65096,
            "time": 250.36898039999997,
            "value": -0.234375
          },
          {
            "ticks": 65098,
            "time": 250.37667269999997,
            "value": -0.28125
          },
          {
            "ticks": 65100,
            "time": 250.38436499999997,
            "value": -0.0625
          },
          {
            "ticks": 65102,
            "time": 250.39205729999995,
            "value": 0.111083984375
          },
          {
            "ticks": 65104,
            "time": 250.39974959999995,
            "value": 0.238037109375
          },
          {
            "ticks": 65106,
            "time": 250.40744189999995,
            "value": 0.111083984375
          },
          {
            "ticks": 65108,
            "time": 250.41513419999998,
            "value": 0
          },
          {
            "ticks": 65113,
            "time": 250.43436494999997,
            "value": 0.0634765625
          },
          {
            "ticks": 65115,
            "time": 250.44205724999995,
            "value": 0
          },
          {
            "ticks": 65236,
            "time": 250.90744139999995,
            "value": 0.015869140625
          },
          {
            "ticks": 65238,
            "time": 250.91513369999996,
            "value": 0.047607421875
          },
          {
            "ticks": 65240,
            "time": 250.92282599999996,
            "value": 0.09521484375
          },
          {
            "ticks": 65242,
            "time": 250.93051829999993,
            "value": 0.174560546875
          },
          {
            "ticks": 65244,
            "time": 250.9382106,
            "value": 0.25390625
          },
          {
            "ticks": 65247,
            "time": 250.94974904999998,
            "value": 0.380859375
          },
          {
            "ticks": 65249,
            "time": 250.95744134999995,
            "value": 0.491943359375
          },
          {
            "ticks": 65251,
            "time": 250.96513364999996,
            "value": 0.587158203125
          },
          {
            "ticks": 65253,
            "time": 250.97282594999996,
            "value": 0.682373046875
          },
          {
            "ticks": 65255,
            "time": 250.98051824999993,
            "value": 0.777587890625
          },
          {
            "ticks": 65257,
            "time": 250.98821054999993,
            "value": 0.85693359375
          },
          {
            "ticks": 65259,
            "time": 250.99590285,
            "value": 0.968017578125
          },
          {
            "ticks": 65261,
            "time": 251.00359514999997,
            "value": 0.999755859375
          },
          {
            "ticks": 65293,
            "time": 251.12667194999997,
            "value": 0.745849609375
          },
          {
            "ticks": 65295,
            "time": 251.13436424999995,
            "value": 0.238037109375
          },
          {
            "ticks": 65296,
            "time": 251.13821039999996,
            "value": -0.09375
          },
          {
            "ticks": 65299,
            "time": 251.14974884999995,
            "value": -0.296875
          },
          {
            "ticks": 65301,
            "time": 251.15744114999995,
            "value": -0.1875
          },
          {
            "ticks": 65303,
            "time": 251.16513344999998,
            "value": 0
          },
          {
            "ticks": 65305,
            "time": 251.17282575,
            "value": 0.22216796875
          },
          {
            "ticks": 65307,
            "time": 251.18051804999996,
            "value": 0.1904296875
          },
          {
            "ticks": 65309,
            "time": 251.18821034999996,
            "value": 0
          },
          {
            "ticks": 65313,
            "time": 251.20359494999994,
            "value": 0.03173828125
          },
          {
            "ticks": 65315,
            "time": 251.21128724999994,
            "value": 0.047607421875
          },
          {
            "ticks": 65318,
            "time": 251.2228257,
            "value": 0
          },
          {
            "ticks": 65320,
            "time": 251.230518,
            "value": 0
          },
          {
            "ticks": 65322,
            "time": 251.23821029999996,
            "value": 0
          },
          {
            "ticks": 65986,
            "time": 253.79205389999996,
            "value": 0.015869140625
          },
          {
            "ticks": 65988,
            "time": 253.79974619999996,
            "value": 0.0634765625
          },
          {
            "ticks": 65990,
            "time": 253.80743849999993,
            "value": 0.111083984375
          },
          {
            "ticks": 65992,
            "time": 253.81513079999993,
            "value": 0.174560546875
          },
          {
            "ticks": 65994,
            "time": 253.8228231,
            "value": 0.22216796875
          },
          {
            "ticks": 65996,
            "time": 253.83051539999997,
            "value": 0.28564453125
          },
          {
            "ticks": 65999,
            "time": 253.84205384999996,
            "value": 0.380859375
          },
          {
            "ticks": 66001,
            "time": 253.84974614999996,
            "value": 0.47607421875
          },
          {
            "ticks": 66003,
            "time": 253.85743844999996,
            "value": 0.5712890625
          },
          {
            "ticks": 66005,
            "time": 253.86513074999993,
            "value": 0.66650390625
          },
          {
            "ticks": 66007,
            "time": 253.87282304999994,
            "value": 0.76171875
          },
          {
            "ticks": 66009,
            "time": 253.88051535,
            "value": 0.841064453125
          },
          {
            "ticks": 66011,
            "time": 253.88820764999997,
            "value": 0.936279296875
          },
          {
            "ticks": 66013,
            "time": 253.89589994999997,
            "value": 0.999755859375
          },
          {
            "ticks": 66049,
            "time": 254.03436134999995,
            "value": 0.968017578125
          },
          {
            "ticks": 66051,
            "time": 254.04205364999993,
            "value": 0.6982421875
          },
          {
            "ticks": 66053,
            "time": 254.04974595,
            "value": 0.206298828125
          },
          {
            "ticks": 66055,
            "time": 254.05743825,
            "value": -0.109375
          },
          {
            "ticks": 66057,
            "time": 254.06513054999996,
            "value": -0.28125
          },
          {
            "ticks": 66059,
            "time": 254.07282284999997,
            "value": -0.171875
          },
          {
            "ticks": 66061,
            "time": 254.08051514999997,
            "value": 0
          },
          {
            "ticks": 66063,
            "time": 254.08820744999994,
            "value": 0.22216796875
          },
          {
            "ticks": 66065,
            "time": 254.09589974999994,
            "value": 0.15869140625
          },
          {
            "ticks": 66068,
            "time": 254.1074382,
            "value": 0
          },
          {
            "ticks": 66072,
            "time": 254.12282279999997,
            "value": 0.047607421875
          },
          {
            "ticks": 66074,
            "time": 254.13051509999997,
            "value": 0.015869140625
          },
          {
            "ticks": 66076,
            "time": 254.13820739999997,
            "value": 0
          },
          {
            "ticks": 66078,
            "time": 254.14589969999994,
            "value": 0
          },
          {
            "ticks": 66084,
            "time": 254.16897659999998,
            "value": 0
          },
          {
            "ticks": 66201,
            "time": 254.61897614999995,
            "value": 0.015869140625
          },
          {
            "ticks": 66203,
            "time": 254.62666844999998,
            "value": 0.079345703125
          },
          {
            "ticks": 66205,
            "time": 254.63436074999998,
            "value": 0.142822265625
          },
          {
            "ticks": 66208,
            "time": 254.64589919999997,
            "value": 0.238037109375
          },
          {
            "ticks": 66210,
            "time": 254.65359149999995,
            "value": 0.3173828125
          },
          {
            "ticks": 66212,
            "time": 254.66128379999995,
            "value": 0.428466796875
          },
          {
            "ticks": 66214,
            "time": 254.66897609999995,
            "value": 0.523681640625
          },
          {
            "ticks": 66216,
            "time": 254.67666839999993,
            "value": 0.587158203125
          },
          {
            "ticks": 66218,
            "time": 254.68436069999998,
            "value": 0.650634765625
          },
          {
            "ticks": 66220,
            "time": 254.692053,
            "value": 0.714111328125
          },
          {
            "ticks": 66222,
            "time": 254.69974529999996,
            "value": 0.809326171875
          },
          {
            "ticks": 66224,
            "time": 254.70743759999996,
            "value": 0.888671875
          },
          {
            "ticks": 66227,
            "time": 254.71897604999995,
            "value": 0.98388671875
          },
          {
            "ticks": 66228,
            "time": 254.72282219999994,
            "value": 0.999755859375
          },
          {
            "ticks": 66258,
            "time": 254.83820669999994,
            "value": 0.904541015625
          },
          {
            "ticks": 66260,
            "time": 254.84589899999995,
            "value": 0.555419921875
          },
          {
            "ticks": 66262,
            "time": 254.85359129999995,
            "value": 0.03173828125
          },
          {
            "ticks": 66264,
            "time": 254.86128359999998,
            "value": -0.171875
          },
          {
            "ticks": 66266,
            "time": 254.86897589999998,
            "value": -0.21875
          },
          {
            "ticks": 66268,
            "time": 254.87666819999995,
            "value": -0.015625
          },
          {
            "ticks": 66270,
            "time": 254.88436049999996,
            "value": 0.126953125
          },
          {
            "ticks": 66272,
            "time": 254.89205279999996,
            "value": 0.206298828125
          },
          {
            "ticks": 66274,
            "time": 254.89974509999993,
            "value": 0.03173828125
          },
          {
            "ticks": 66276,
            "time": 254.90743739999994,
            "value": 0
          },
          {
            "ticks": 66281,
            "time": 254.92666814999998,
            "value": 0.047607421875
          },
          {
            "ticks": 66283,
            "time": 254.93436044999996,
            "value": 0
          },
          {
            "ticks": 66285,
            "time": 254.94205274999996,
            "value": 0
          },
          {
            "ticks": 66951,
            "time": 257.5035886499999,
            "value": 0.03173828125
          },
          {
            "ticks": 66954,
            "time": 257.5151271,
            "value": 0.09521484375
          },
          {
            "ticks": 66955,
            "time": 257.51897325,
            "value": 0.142822265625
          },
          {
            "ticks": 66958,
            "time": 257.5305117,
            "value": 0.22216796875
          },
          {
            "ticks": 66960,
            "time": 257.53820399999995,
            "value": 0.3173828125
          },
          {
            "ticks": 66962,
            "time": 257.5458963,
            "value": 0.428466796875
          },
          {
            "ticks": 66964,
            "time": 257.55358859999996,
            "value": 0.523681640625
          },
          {
            "ticks": 66966,
            "time": 257.56128089999993,
            "value": 0.618896484375
          },
          {
            "ticks": 66968,
            "time": 257.5689732,
            "value": 0.6982421875
          },
          {
            "ticks": 66970,
            "time": 257.5766655,
            "value": 0.79345703125
          },
          {
            "ticks": 66972,
            "time": 257.58435779999996,
            "value": 0.872802734375
          },
          {
            "ticks": 66974,
            "time": 257.5920501,
            "value": 0.968017578125
          },
          {
            "ticks": 66976,
            "time": 257.59974239999997,
            "value": 0.999755859375
          },
          {
            "ticks": 67010,
            "time": 257.7305115,
            "value": 0.888671875
          },
          {
            "ticks": 67012,
            "time": 257.73820379999995,
            "value": 0.53955078125
          },
          {
            "ticks": 67014,
            "time": 257.7458961,
            "value": 0
          },
          {
            "ticks": 67016,
            "time": 257.7535884,
            "value": -0.234375
          },
          {
            "ticks": 67018,
            "time": 257.7612807,
            "value": -0.28125
          },
          {
            "ticks": 67020,
            "time": 257.76897299999996,
            "value": -0.0625
          },
          {
            "ticks": 67022,
            "time": 257.7766653,
            "value": 0.111083984375
          },
          {
            "ticks": 67024,
            "time": 257.78435759999996,
            "value": 0.238037109375
          },
          {
            "ticks": 67026,
            "time": 257.79204989999994,
            "value": 0.111083984375
          },
          {
            "ticks": 67028,
            "time": 257.7997422,
            "value": 0
          },
          {
            "ticks": 67033,
            "time": 257.81897295,
            "value": 0.0634765625
          },
          {
            "ticks": 67035,
            "time": 257.82666524999996,
            "value": 0
          }
        ],
        "instrument": {
          "family": "synth lead",
          "name": "lead 2 (sawtooth)",
          "number": 81
        },
        "name": "Sawtooth lead",
        "notes": [
          {
            "duration": 0.07307684999999964,
            "durationTicks": 19,
            "midi": 77,
            "name": "F5",
            "ticks": 15840,
            "time": 60.92301599999999,
            "velocity": 0.8661417322834646
          },
          {
            "duration": 0.07692299999999364,
            "durationTicks": 20,
            "midi": 77,
            "name": "F5",
            "ticks": 15900,
            "time": 61.15378499999999,
            "velocity": 0.8346456692913385
          },
          {
            "duration": 0.07307684999999964,
            "durationTicks": 19,
            "midi": 77,
            "name": "F5",
            "ticks": 15960,
            "time": 61.38455399999999,
            "velocity": 0.8346456692913385
          },
          {
            "duration": 0.05769225000000233,
            "durationTicks": 15,
            "midi": 77,
            "name": "F5",
            "ticks": 16020,
            "time": 61.61532299999999,
            "velocity": 0.8346456692913385
          },
          {
            "duration": 0.16153829999999658,
            "durationTicks": 42,
            "midi": 77,
            "name": "F5",
            "ticks": 16080,
            "time": 61.84609199999999,
            "velocity": 0.8346456692913385
          },
          {
            "duration": 0.06538455000001164,
            "durationTicks": 17,
            "midi": 77,
            "name": "F5",
            "ticks": 16140,
            "time": 62.07686099999999,
            "velocity": 0.8582677165354331
          },
          {
            "duration": 0.08076915000000184,
            "durationTicks": 21,
            "midi": 77,
            "name": "F5",
            "ticks": 16170,
            "time": 62.19224549999999,
            "velocity": 0.7716535433070866
          },
          {
            "duration": 0.15769215000000258,
            "durationTicks": 41,
            "midi": 77,
            "name": "F5",
            "ticks": 16290,
            "time": 62.65378349999999,
            "velocity": 0.8346456692913385
          },
          {
            "duration": 0.057692249999995227,
            "durationTicks": 15,
            "midi": 77,
            "name": "F5",
            "ticks": 16350,
            "time": 62.88455249999999,
            "velocity": 0.8267716535433071
          },
          {
            "duration": 0.07692299999999364,
            "durationTicks": 20,
            "midi": 77,
            "name": "F5",
            "ticks": 16380,
            "time": 62.99993699999999,
            "velocity": 0.7637795275590551
          },
          {
            "duration": 0.07307684999999964,
            "durationTicks": 19,
            "midi": 77,
            "name": "F5",
            "ticks": 16440,
            "time": 63.23070599999999,
            "velocity": 0.8346456692913385
          },
          {
            "duration": 0.06538455000000454,
            "durationTicks": 17,
            "midi": 77,
            "name": "F5",
            "ticks": 16500,
            "time": 63.46147499999999,
            "velocity": 0.8267716535433071
          },
          {
            "duration": 0.08076915000000895,
            "durationTicks": 21,
            "midi": 77,
            "name": "F5",
            "ticks": 16560,
            "time": 63.69224399999999,
            "velocity": 0.8582677165354331
          },
          {
            "duration": 0.07692299999999364,
            "durationTicks": 20,
            "midi": 77,
            "name": "F5",
            "ticks": 16800,
            "time": 64.61532,
            "velocity": 0.8110236220472441
          },
          {
            "duration": 0.06923070000000564,
            "durationTicks": 18,
            "midi": 77,
            "name": "F5",
            "ticks": 16860,
            "time": 64.84608899999999,
            "velocity": 0.8110236220472441
          },
          {
            "duration": 0.06538455000001875,
            "durationTicks": 17,
            "midi": 77,
            "name": "F5",
            "ticks": 16920,
            "time": 65.07685799999999,
            "velocity": 0.7637795275590551
          },
          {
            "duration": 0.05384610000000123,
            "durationTicks": 14,
            "midi": 77,
            "name": "F5",
            "ticks": 16980,
            "time": 65.307627,
            "velocity": 0.8031496062992126
          },
          {
            "duration": 0.15769215000000258,
            "durationTicks": 41,
            "midi": 77,
            "name": "F5",
            "ticks": 17040,
            "time": 65.53839599999999,
            "velocity": 0.8346456692913385
          },
          {
            "duration": 0.05384610000001544,
            "durationTicks": 14,
            "midi": 77,
            "name": "F5",
            "ticks": 17100,
            "time": 65.76916499999999,
            "velocity": 0.8267716535433071
          },
          {
            "duration": 0.07692299999999364,
            "durationTicks": 20,
            "midi": 77,
            "name": "F5",
            "ticks": 17130,
            "time": 65.88454949999999,
            "velocity": 0.8031496062992126
          },
          {
            "duration": 0.15769215000000258,
            "durationTicks": 41,
            "midi": 77,
            "name": "F5",
            "ticks": 17250,
            "time": 66.3460875,
            "velocity": 0.8346456692913385
          },
          {
            "duration": 0.061538400000003435,
            "durationTicks": 16,
            "midi": 77,
            "name": "F5",
            "ticks": 17310,
            "time": 66.57685649999999,
            "velocity": 0.8346456692913385
          },
          {
            "duration": 0.07307685000000674,
            "durationTicks": 19,
            "midi": 77,
            "name": "F5",
            "ticks": 17340,
            "time": 66.692241,
            "velocity": 0.7716535433070866
          },
          {
            "duration": 0.07692300000000785,
            "durationTicks": 20,
            "midi": 77,
            "name": "F5",
            "ticks": 17400,
            "time": 66.92300999999999,
            "velocity": 0.8346456692913385
          },
          {
            "duration": 0.06538455000000454,
            "durationTicks": 17,
            "midi": 77,
            "name": "F5",
            "ticks": 17460,
            "time": 67.153779,
            "velocity": 0.7007874015748031
          },
          {
            "duration": 0.07692299999999364,
            "durationTicks": 20,
            "midi": 77,
            "name": "F5",
            "ticks": 17520,
            "time": 67.384548,
            "velocity": 0.8267716535433071
          },
          {
            "duration": 0.07307685000000674,
            "durationTicks": 19,
            "midi": 75,
            "name": "D#5",
            "ticks": 17700,
            "time": 68.076855,
            "velocity": 0.8267716535433071
          },
          {
            "duration": 0.07307685000000674,
            "durationTicks": 19,
            "midi": 77,
            "name": "F5",
            "ticks": 17760,
            "time": 68.30762399999999,
            "velocity": 0.7716535433070866
          },
          {
            "duration": 0.06538455000000454,
            "durationTicks": 17,
            "midi": 77,
            "name": "F5",
            "ticks": 17820,
            "time": 68.538393,
            "velocity": 0.7874015748031497
          },
          {
            "duration": 0.06538455000000454,
            "durationTicks": 17,
            "midi": 77,
            "name": "F5",
            "ticks": 17880,
            "time": 68.769162,
            "velocity": 0.7874015748031497
          },
          {
            "duration": 0.05769225000000233,
            "durationTicks": 15,
            "midi": 77,
            "name": "F5",
            "ticks": 17940,
            "time": 68.99993099999999,
            "velocity": 0.7874015748031497
          },
          {
            "duration": 0.13846139999999707,
            "durationTicks": 36,
            "midi": 77,
            "name": "F5",
            "ticks": 18000,
            "time": 69.2307,
            "velocity": 0.8346456692913385
          },
          {
            "duration": 0.07307685000000674,
            "durationTicks": 19,
            "midi": 77,
            "name": "F5",
            "ticks": 18060,
            "time": 69.461469,
            "velocity": 0.8031496062992126
          },
          {
            "duration": 0.08461529999999584,
            "durationTicks": 22,
            "midi": 77,
            "name": "F5",
            "ticks": 18090,
            "time": 69.5768535,
            "velocity": 0.7637795275590551
          },
          {
            "duration": 0.1769228999999939,
            "durationTicks": 46,
            "midi": 77,
            "name": "F5",
            "ticks": 18210,
            "time": 70.0383915,
            "velocity": 0.8582677165354331
          },
          {
            "duration": 0.07307684999999253,
            "durationTicks": 19,
            "midi": 77,
            "name": "F5",
            "ticks": 18270,
            "time": 70.2691605,
            "velocity": 0.8267716535433071
          },
          {
            "duration": 0.07307684999999253,
            "durationTicks": 19,
            "midi": 77,
            "name": "F5",
            "ticks": 18300,
            "time": 70.384545,
            "velocity": 0.7322834645669292
          },
          {
            "duration": 0.06923070000000564,
            "durationTicks": 18,
            "midi": 77,
            "name": "F5",
            "ticks": 18360,
            "time": 70.615314,
            "velocity": 0.8110236220472441
          },
          {
            "duration": 0.06923070000000564,
            "durationTicks": 18,
            "midi": 77,
            "name": "F5",
            "ticks": 18420,
            "time": 70.846083,
            "velocity": 0.8346456692913385
          },
          {
            "duration": 0.07307684999999253,
            "durationTicks": 19,
            "midi": 77,
            "name": "F5",
            "ticks": 18480,
            "time": 71.076852,
            "velocity": 0.8110236220472441
          },
          {
            "duration": 0.06923070000000564,
            "durationTicks": 18,
            "midi": 77,
            "name": "F5",
            "ticks": 18720,
            "time": 71.999928,
            "velocity": 0.8110236220472441
          },
          {
            "duration": 0.061538400000003435,
            "durationTicks": 16,
            "midi": 77,
            "name": "F5",
            "ticks": 18780,
            "time": 72.23069699999999,
            "velocity": 0.7716535433070866
          },
          {
            "duration": 0.06538455000000454,
            "durationTicks": 17,
            "midi": 77,
            "name": "F5",
            "ticks": 18840,
            "time": 72.461466,
            "velocity": 0.7874015748031497
          },
          {
            "duration": 0.061538399999989224,
            "durationTicks": 16,
            "midi": 77,
            "name": "F5",
            "ticks": 18900,
            "time": 72.692235,
            "velocity": 0.8110236220472441
          },
          {
            "duration": 0.1692306000000059,
            "durationTicks": 44,
            "midi": 77,
            "name": "F5",
            "ticks": 18960,
            "time": 72.92300399999999,
            "velocity": 0.8267716535433071
          },
          {
            "duration": 0.05769224999998812,
            "durationTicks": 15,
            "midi": 77,
            "name": "F5",
            "ticks": 19020,
            "time": 73.153773,
            "velocity": 0.7716535433070866
          },
          {
            "duration": 0.08846144999999694,
            "durationTicks": 23,
            "midi": 77,
            "name": "F5",
            "ticks": 19050,
            "time": 73.26915749999999,
            "velocity": 0.7637795275590551
          },
          {
            "duration": 0.28846124999999745,
            "durationTicks": 75,
            "midi": 77,
            "name": "F5",
            "ticks": 19200,
            "time": 73.84608,
            "velocity": 0.6299212598425197
          },
          {
            "duration": 0.06923070000000564,
            "durationTicks": 18,
            "midi": 77,
            "name": "F5",
            "ticks": 22560,
            "time": 86.769144,
            "velocity": 0.8110236220472441
          },
          {
            "duration": 0.061538400000003435,
            "durationTicks": 16,
            "midi": 77,
            "name": "F5",
            "ticks": 22620,
            "time": 86.99991299999999,
            "velocity": 0.7716535433070866
          },
          {
            "duration": 0.06538455000001875,
            "durationTicks": 17,
            "midi": 77,
            "name": "F5",
            "ticks": 22680,
            "time": 87.23068199999999,
            "velocity": 0.7874015748031497
          },
          {
            "duration": 0.061538399999989224,
            "durationTicks": 16,
            "midi": 77,
            "name": "F5",
            "ticks": 22740,
            "time": 87.461451,
            "velocity": 0.8110236220472441
          },
          {
            "duration": 0.1692306000000059,
            "durationTicks": 44,
            "midi": 77,
            "name": "F5",
            "ticks": 22800,
            "time": 87.69221999999999,
            "velocity": 0.8267716535433071
          },
          {
            "duration": 0.05769225000000233,
            "durationTicks": 15,
            "midi": 77,
            "name": "F5",
            "ticks": 22860,
            "time": 87.92298899999999,
            "velocity": 0.7716535433070866
          },
          {
            "duration": 0.08846144999999694,
            "durationTicks": 23,
            "midi": 77,
            "name": "F5",
            "ticks": 22890,
            "time": 88.03837349999999,
            "velocity": 0.7637795275590551
          },
          {
            "duration": 0.28846124999999745,
            "durationTicks": 75,
            "midi": 77,
            "name": "F5",
            "ticks": 23040,
            "time": 88.615296,
            "velocity": 0.6299212598425197
          },
          {
            "duration": 0.07307685000000674,
            "durationTicks": 19,
            "midi": 77,
            "name": "F5",
            "ticks": 36000,
            "time": 138.46139999999997,
            "velocity": 0.8661417322834646
          },
          {
            "duration": 0.07692299999999364,
            "durationTicks": 20,
            "midi": 77,
            "name": "F5",
            "ticks": 36060,
            "time": 138.69216899999998,
            "velocity": 0.8346456692913385
          },
          {
            "duration": 0.07307685000000674,
            "durationTicks": 19,
            "midi": 77,
            "name": "F5",
            "ticks": 36120,
            "time": 138.922938,
            "velocity": 0.8346456692913385
          },
          {
            "duration": 0.05769225000000233,
            "durationTicks": 15,
            "midi": 77,
            "name": "F5",
            "ticks": 36180,
            "time": 139.15370699999997,
            "velocity": 0.8346456692913385
          },
          {
            "duration": 0.1615383000000179,
            "durationTicks": 42,
            "midi": 77,
            "name": "F5",
            "ticks": 36240,
            "time": 139.38447599999998,
            "velocity": 0.8346456692913385
          },
          {
            "duration": 0.06538454999997612,
            "durationTicks": 17,
            "midi": 77,
            "name": "F5",
            "ticks": 36300,
            "time": 139.615245,
            "velocity": 0.8582677165354331
          },
          {
            "duration": 0.08076915000000895,
            "durationTicks": 21,
            "midi": 77,
            "name": "F5",
            "ticks": 36330,
            "time": 139.73062949999996,
            "velocity": 0.7716535433070866
          },
          {
            "duration": 0.15769214999997416,
            "durationTicks": 41,
            "midi": 77,
            "name": "F5",
            "ticks": 36450,
            "time": 140.19216749999998,
            "velocity": 0.8346456692913385
          },
          {
            "duration": 0.05769225000000233,
            "durationTicks": 15,
            "midi": 77,
            "name": "F5",
            "ticks": 36510,
            "time": 140.42293649999996,
            "velocity": 0.8267716535433071
          },
          {
            "duration": 0.07692300000002206,
            "durationTicks": 20,
            "midi": 77,
            "name": "F5",
            "ticks": 36540,
            "time": 140.53832099999997,
            "velocity": 0.7637795275590551
          },
          {
            "duration": 0.07307685000000674,
            "durationTicks": 19,
            "midi": 77,
            "name": "F5",
            "ticks": 36600,
            "time": 140.76908999999998,
            "velocity": 0.8346456692913385
          },
          {
            "duration": 0.06538454999997612,
            "durationTicks": 17,
            "midi": 77,
            "name": "F5",
            "ticks": 36660,
            "time": 140.999859,
            "velocity": 0.8267716535433071
          },
          {
            "duration": 0.08076915000000895,
            "durationTicks": 21,
            "midi": 77,
            "name": "F5",
            "ticks": 36720,
            "time": 141.23062799999997,
            "velocity": 0.8582677165354331
          },
          {
            "duration": 0.07692299999999364,
            "durationTicks": 20,
            "midi": 77,
            "name": "F5",
            "ticks": 36960,
            "time": 142.15370399999998,
            "velocity": 0.8110236220472441
          },
          {
            "duration": 0.06923069999999143,
            "durationTicks": 18,
            "midi": 77,
            "name": "F5",
            "ticks": 37020,
            "time": 142.38447299999999,
            "velocity": 0.8110236220472441
          },
          {
            "duration": 0.06538455000000454,
            "durationTicks": 17,
            "midi": 77,
            "name": "F5",
            "ticks": 37080,
            "time": 142.61524199999997,
            "velocity": 0.7637795275590551
          },
          {
            "duration": 0.05384609999998702,
            "durationTicks": 14,
            "midi": 77,
            "name": "F5",
            "ticks": 37140,
            "time": 142.84601099999998,
            "velocity": 0.8031496062992126
          },
          {
            "duration": 0.15769214999997416,
            "durationTicks": 41,
            "midi": 77,
            "name": "F5",
            "ticks": 37200,
            "time": 143.07677999999999,
            "velocity": 0.8346456692913385
          },
          {
            "duration": 0.05384610000001544,
            "durationTicks": 14,
            "midi": 77,
            "name": "F5",
            "ticks": 37260,
            "time": 143.30754899999997,
            "velocity": 0.8267716535433071
          },
          {
            "duration": 0.07692300000002206,
            "durationTicks": 20,
            "midi": 77,
            "name": "F5",
            "ticks": 37290,
            "time": 143.42293349999997,
            "velocity": 0.8031496062992126
          },
          {
            "duration": 0.15769215000000258,
            "durationTicks": 41,
            "midi": 77,
            "name": "F5",
            "ticks": 37410,
            "time": 143.88447149999996,
            "velocity": 0.8346456692913385
          },
          {
            "duration": 0.061538399999989224,
            "durationTicks": 16,
            "midi": 77,
            "name": "F5",
            "ticks": 37470,
            "time": 144.11524049999997,
            "velocity": 0.8346456692913385
          },
          {
            "duration": 0.07307685000000674,
            "durationTicks": 19,
            "midi": 77,
            "name": "F5",
            "ticks": 37500,
            "time": 144.23062499999997,
            "velocity": 0.7716535433070866
          },
          {
            "duration": 0.07692299999999364,
            "durationTicks": 20,
            "midi": 77,
            "name": "F5",
            "ticks": 37560,
            "time": 144.46139399999998,
            "velocity": 0.8346456692913385
          },
          {
            "duration": 0.06538455000000454,
            "durationTicks": 17,
            "midi": 77,
            "name": "F5",
            "ticks": 37620,
            "time": 144.69216299999997,
            "velocity": 0.7007874015748031
          },
          {
            "duration": 0.07692299999999364,
            "durationTicks": 20,
            "midi": 77,
            "name": "F5",
            "ticks": 37680,
            "time": 144.92293199999997,
            "velocity": 0.8267716535433071
          },
          {
            "duration": 0.07307685000000674,
            "durationTicks": 19,
            "midi": 89,
            "name": "F6",
            "ticks": 37920,
            "time": 145.84600799999998,
            "velocity": 0.8661417322834646
          },
          {
            "duration": 0.07692300000002206,
            "durationTicks": 20,
            "midi": 89,
            "name": "F6",
            "ticks": 37980,
            "time": 146.07677699999996,
            "velocity": 0.8346456692913385
          },
          {
            "duration": 0.07307685000000674,
            "durationTicks": 19,
            "midi": 89,
            "name": "F6",
            "ticks": 38040,
            "time": 146.30754599999997,
            "velocity": 0.8346456692913385
          },
          {
            "duration": 0.05769225000000233,
            "durationTicks": 15,
            "midi": 89,
            "name": "F6",
            "ticks": 38100,
            "time": 146.53831499999998,
            "velocity": 0.8346456692913385
          },
          {
            "duration": 0.1615383000000179,
            "durationTicks": 42,
            "midi": 89,
            "name": "F6",
            "ticks": 38160,
            "time": 146.76908399999996,
            "velocity": 0.8346456692913385
          },
          {
            "duration": 0.06538455000000454,
            "durationTicks": 17,
            "midi": 89,
            "name": "F6",
            "ticks": 38220,
            "time": 146.99985299999997,
            "velocity": 0.8582677165354331
          },
          {
            "duration": 0.08076915000000895,
            "durationTicks": 21,
            "midi": 89,
            "name": "F6",
            "ticks": 38250,
            "time": 147.11523749999998,
            "velocity": 0.7716535433070866
          },
          {
            "duration": 0.15769215000000258,
            "durationTicks": 41,
            "midi": 89,
            "name": "F6",
            "ticks": 38370,
            "time": 147.57677549999997,
            "velocity": 0.8346456692913385
          },
          {
            "duration": 0.05769225000000233,
            "durationTicks": 15,
            "midi": 89,
            "name": "F6",
            "ticks": 38430,
            "time": 147.80754449999998,
            "velocity": 0.8267716535433071
          },
          {
            "duration": 0.07692299999999364,
            "durationTicks": 20,
            "midi": 89,
            "name": "F6",
            "ticks": 38460,
            "time": 147.92292899999998,
            "velocity": 0.7637795275590551
          },
          {
            "duration": 0.07307685000003517,
            "durationTicks": 19,
            "midi": 89,
            "name": "F6",
            "ticks": 38520,
            "time": 148.15369799999996,
            "velocity": 0.8346456692913385
          },
          {
            "duration": 0.06538455000000454,
            "durationTicks": 17,
            "midi": 89,
            "name": "F6",
            "ticks": 38580,
            "time": 148.38446699999997,
            "velocity": 0.8267716535433071
          },
          {
            "duration": 0.08076915000000895,
            "durationTicks": 21,
            "midi": 89,
            "name": "F6",
            "ticks": 38640,
            "time": 148.61523599999998,
            "velocity": 0.8582677165354331
          },
          {
            "duration": 0.07692300000002206,
            "durationTicks": 20,
            "midi": 89,
            "name": "F6",
            "ticks": 38880,
            "time": 149.53831199999996,
            "velocity": 0.8110236220472441
          },
          {
            "duration": 0.06923069999999143,
            "durationTicks": 18,
            "midi": 89,
            "name": "F6",
            "ticks": 38940,
            "time": 149.76908099999997,
            "velocity": 0.8110236220472441
          },
          {
            "duration": 0.06538454999997612,
            "durationTicks": 17,
            "midi": 89,
            "name": "F6",
            "ticks": 39000,
            "time": 149.99984999999998,
            "velocity": 0.7637795275590551
          },
          {
            "duration": 0.05384610000001544,
            "durationTicks": 14,
            "midi": 89,
            "name": "F6",
            "ticks": 39060,
            "time": 150.23061899999996,
            "velocity": 0.8031496062992126
          },
          {
            "duration": 0.15769215000000258,
            "durationTicks": 41,
            "midi": 89,
            "name": "F6",
            "ticks": 39120,
            "time": 150.46138799999997,
            "velocity": 0.8346456692913385
          },
          {
            "duration": 0.05384609999998702,
            "durationTicks": 14,
            "midi": 89,
            "name": "F6",
            "ticks": 39180,
            "time": 150.69215699999998,
            "velocity": 0.8267716535433071
          },
          {
            "duration": 0.07692299999999364,
            "durationTicks": 20,
            "midi": 89,
            "name": "F6",
            "ticks": 39210,
            "time": 150.80754149999999,
            "velocity": 0.8031496062992126
          },
          {
            "duration": 0.15769214999997416,
            "durationTicks": 41,
            "midi": 89,
            "name": "F6",
            "ticks": 39330,
            "time": 151.26907949999998,
            "velocity": 0.8346456692913385
          },
          {
            "duration": 0.061538399999989224,
            "durationTicks": 16,
            "midi": 89,
            "name": "F6",
            "ticks": 39390,
            "time": 151.49984849999998,
            "velocity": 0.8346456692913385
          },
          {
            "duration": 0.07307685000003517,
            "durationTicks": 19,
            "midi": 89,
            "name": "F6",
            "ticks": 39420,
            "time": 151.61523299999996,
            "velocity": 0.7716535433070866
          },
          {
            "duration": 0.07692300000002206,
            "durationTicks": 20,
            "midi": 89,
            "name": "F6",
            "ticks": 39480,
            "time": 151.84600199999997,
            "velocity": 0.8346456692913385
          },
          {
            "duration": 0.06538454999997612,
            "durationTicks": 17,
            "midi": 89,
            "name": "F6",
            "ticks": 39540,
            "time": 152.07677099999998,
            "velocity": 0.7007874015748031
          },
          {
            "duration": 0.9230760000000089,
            "durationTicks": 240,
            "midi": 89,
            "name": "F6",
            "ticks": 39600,
            "time": 152.30753999999996,
            "velocity": 0.8267716535433071
          },
          {
            "duration": 0.07307685000000674,
            "durationTicks": 19,
            "midi": 77,
            "name": "F5",
            "ticks": 55200,
            "time": 212.30747999999997,
            "velocity": 0.8661417322834646
          },
          {
            "duration": 0.07692299999999364,
            "durationTicks": 20,
            "midi": 77,
            "name": "F5",
            "ticks": 55260,
            "time": 212.53824899999998,
            "velocity": 0.8346456692913385
          },
          {
            "duration": 0.07307685000000674,
            "durationTicks": 19,
            "midi": 77,
            "name": "F5",
            "ticks": 55320,
            "time": 212.76901799999996,
            "velocity": 0.8346456692913385
          },
          {
            "duration": 0.05769225000000233,
            "durationTicks": 15,
            "midi": 77,
            "name": "F5",
            "ticks": 55380,
            "time": 212.99978699999997,
            "velocity": 0.8346456692913385
          },
          {
            "duration": 0.16153829999998948,
            "durationTicks": 42,
            "midi": 77,
            "name": "F5",
            "ticks": 55440,
            "time": 213.23055599999998,
            "velocity": 0.8346456692913385
          },
          {
            "duration": 0.06538455000000454,
            "durationTicks": 17,
            "midi": 77,
            "name": "F5",
            "ticks": 55500,
            "time": 213.46132499999996,
            "velocity": 0.8582677165354331
          },
          {
            "duration": 0.08076915000000895,
            "durationTicks": 21,
            "midi": 77,
            "name": "F5",
            "ticks": 55530,
            "time": 213.57670949999996,
            "velocity": 0.7716535433070866
          },
          {
            "duration": 0.15769215000000258,
            "durationTicks": 41,
            "midi": 77,
            "name": "F5",
            "ticks": 55650,
            "time": 214.03824749999995,
            "velocity": 0.8346456692913385
          },
          {
            "duration": 0.05769225000000233,
            "durationTicks": 15,
            "midi": 77,
            "name": "F5",
            "ticks": 55710,
            "time": 214.26901649999996,
            "velocity": 0.8267716535433071
          },
          {
            "duration": 0.07692299999999364,
            "durationTicks": 20,
            "midi": 77,
            "name": "F5",
            "ticks": 55740,
            "time": 214.38440099999997,
            "velocity": 0.7637795275590551
          },
          {
            "duration": 0.07307685000000674,
            "durationTicks": 19,
            "midi": 77,
            "name": "F5",
            "ticks": 55800,
            "time": 214.61516999999998,
            "velocity": 0.8346456692913385
          },
          {
            "duration": 0.06538455000000454,
            "durationTicks": 17,
            "midi": 77,
            "name": "F5",
            "ticks": 55860,
            "time": 214.84593899999996,
            "velocity": 0.8267716535433071
          },
          {
            "duration": 0.08076915000000895,
            "durationTicks": 21,
            "midi": 77,
            "name": "F5",
            "ticks": 55920,
            "time": 215.07670799999997,
            "velocity": 0.8582677165354331
          },
          {
            "duration": 0.07692299999999364,
            "durationTicks": 20,
            "midi": 77,
            "name": "F5",
            "ticks": 56160,
            "time": 215.99978399999998,
            "velocity": 0.8110236220472441
          },
          {
            "duration": 0.06923069999999143,
            "durationTicks": 18,
            "midi": 77,
            "name": "F5",
            "ticks": 56220,
            "time": 216.23055299999996,
            "velocity": 0.8110236220472441
          },
          {
            "duration": 0.06538455000000454,
            "durationTicks": 17,
            "midi": 77,
            "name": "F5",
            "ticks": 56280,
            "time": 216.46132199999997,
            "velocity": 0.7637795275590551
          },
          {
            "duration": 0.05384609999998702,
            "durationTicks": 14,
            "midi": 77,
            "name": "F5",
            "ticks": 56340,
            "time": 216.69209099999998,
            "velocity": 0.8031496062992126
          },
          {
            "duration": 0.15769215000000258,
            "durationTicks": 41,
            "midi": 77,
            "name": "F5",
            "ticks": 56400,
            "time": 216.92285999999996,
            "velocity": 0.8346456692913385
          },
          {
            "duration": 0.05384610000001544,
            "durationTicks": 14,
            "midi": 77,
            "name": "F5",
            "ticks": 56460,
            "time": 217.15362899999997,
            "velocity": 0.8267716535433071
          },
          {
            "duration": 0.07692299999999364,
            "durationTicks": 20,
            "midi": 77,
            "name": "F5",
            "ticks": 56490,
            "time": 217.26901349999997,
            "velocity": 0.8031496062992126
          },
          {
            "duration": 0.15769215000000258,
            "durationTicks": 41,
            "midi": 77,
            "name": "F5",
            "ticks": 56610,
            "time": 217.73055149999996,
            "velocity": 0.8346456692913385
          },
          {
            "duration": 0.061538399999989224,
            "durationTicks": 16,
            "midi": 77,
            "name": "F5",
            "ticks": 56670,
            "time": 217.96132049999997,
            "velocity": 0.8346456692913385
          },
          {
            "duration": 0.07307685000000674,
            "durationTicks": 19,
            "midi": 77,
            "name": "F5",
            "ticks": 56700,
            "time": 218.07670499999998,
            "velocity": 0.7716535433070866
          },
          {
            "duration": 0.07692300000002206,
            "durationTicks": 20,
            "midi": 77,
            "name": "F5",
            "ticks": 56760,
            "time": 218.30747399999996,
            "velocity": 0.8346456692913385
          },
          {
            "duration": 0.06538455000000454,
            "durationTicks": 17,
            "midi": 77,
            "name": "F5",
            "ticks": 56820,
            "time": 218.53824299999997,
            "velocity": 0.7007874015748031
          },
          {
            "duration": 0.07692299999999364,
            "durationTicks": 20,
            "midi": 77,
            "name": "F5",
            "ticks": 56880,
            "time": 218.76901199999998,
            "velocity": 0.8267716535433071
          },
          {
            "duration": 0.07307685000003517,
            "durationTicks": 19,
            "midi": 77,
            "name": "F5",
            "ticks": 57120,
            "time": 219.69208799999996,
            "velocity": 0.8661417322834646
          },
          {
            "duration": 0.07692300000002206,
            "durationTicks": 20,
            "midi": 77,
            "name": "F5",
            "ticks": 57180,
            "time": 219.92285699999996,
            "velocity": 0.8346456692913385
          },
          {
            "duration": 0.07307685000000674,
            "durationTicks": 19,
            "midi": 77,
            "name": "F5",
            "ticks": 57240,
            "time": 220.15362599999997,
            "velocity": 0.8346456692913385
          },
          {
            "duration": 0.05769225000000233,
            "durationTicks": 15,
            "midi": 77,
            "name": "F5",
            "ticks": 57300,
            "time": 220.38439499999996,
            "velocity": 0.8346456692913385
          },
          {
            "duration": 0.1615383000000179,
            "durationTicks": 42,
            "midi": 77,
            "name": "F5",
            "ticks": 57360,
            "time": 220.61516399999996,
            "velocity": 0.8346456692913385
          },
          {
            "duration": 0.06538454999997612,
            "durationTicks": 17,
            "midi": 77,
            "name": "F5",
            "ticks": 57420,
            "time": 220.84593299999997,
            "velocity": 0.8582677165354331
          },
          {
            "duration": 0.08076914999998053,
            "durationTicks": 21,
            "midi": 77,
            "name": "F5",
            "ticks": 57450,
            "time": 220.96131749999998,
            "velocity": 0.7716535433070866
          },
          {
            "duration": 0.15769214999997416,
            "durationTicks": 41,
            "midi": 77,
            "name": "F5",
            "ticks": 57570,
            "time": 221.42285549999997,
            "velocity": 0.8346456692913385
          },
          {
            "duration": 0.05769224999997391,
            "durationTicks": 15,
            "midi": 77,
            "name": "F5",
            "ticks": 57630,
            "time": 221.65362449999998,
            "velocity": 0.8267716535433071
          },
          {
            "duration": 0.07692300000002206,
            "durationTicks": 20,
            "midi": 77,
            "name": "F5",
            "ticks": 57660,
            "time": 221.76900899999995,
            "velocity": 0.7637795275590551
          },
          {
            "duration": 0.07307685000000674,
            "durationTicks": 19,
            "midi": 77,
            "name": "F5",
            "ticks": 57720,
            "time": 221.99977799999996,
            "velocity": 0.8346456692913385
          },
          {
            "duration": 0.06538454999997612,
            "durationTicks": 17,
            "midi": 77,
            "name": "F5",
            "ticks": 57780,
            "time": 222.23054699999997,
            "velocity": 0.8267716535433071
          },
          {
            "duration": 0.08076915000000895,
            "durationTicks": 21,
            "midi": 77,
            "name": "F5",
            "ticks": 57840,
            "time": 222.46131599999995,
            "velocity": 0.8582677165354331
          },
          {
            "duration": 0.07692300000002206,
            "durationTicks": 20,
            "midi": 77,
            "name": "F5",
            "ticks": 58080,
            "time": 223.38439199999996,
            "velocity": 0.8110236220472441
          },
          {
            "duration": 0.06923069999999143,
            "durationTicks": 18,
            "midi": 77,
            "name": "F5",
            "ticks": 58140,
            "time": 223.61516099999997,
            "velocity": 0.8110236220472441
          },
          {
            "duration": 0.06538455000000454,
            "durationTicks": 17,
            "midi": 77,
            "name": "F5",
            "ticks": 58200,
            "time": 223.84592999999995,
            "velocity": 0.7637795275590551
          },
          {
            "duration": 0.05384610000001544,
            "durationTicks": 14,
            "midi": 77,
            "name": "F5",
            "ticks": 58260,
            "time": 224.07669899999996,
            "velocity": 0.8031496062992126
          },
          {
            "duration": 0.15769214999997416,
            "durationTicks": 41,
            "midi": 77,
            "name": "F5",
            "ticks": 58320,
            "time": 224.30746799999997,
            "velocity": 0.8346456692913385
          },
          {
            "duration": 0.05384610000001544,
            "durationTicks": 14,
            "midi": 77,
            "name": "F5",
            "ticks": 58380,
            "time": 224.53823699999995,
            "velocity": 0.8267716535433071
          },
          {
            "duration": 0.07692300000002206,
            "durationTicks": 20,
            "midi": 77,
            "name": "F5",
            "ticks": 58410,
            "time": 224.65362149999996,
            "velocity": 0.8031496062992126
          },
          {
            "duration": 0.15769214999997416,
            "durationTicks": 41,
            "midi": 77,
            "name": "F5",
            "ticks": 58530,
            "time": 225.11515949999998,
            "velocity": 0.8346456692913385
          },
          {
            "duration": 0.061538400000017646,
            "durationTicks": 16,
            "midi": 77,
            "name": "F5",
            "ticks": 58590,
            "time": 225.34592849999996,
            "velocity": 0.8346456692913385
          },
          {
            "duration": 0.07307685000000674,
            "durationTicks": 19,
            "midi": 77,
            "name": "F5",
            "ticks": 58620,
            "time": 225.46131299999996,
            "velocity": 0.7716535433070866
          },
          {
            "duration": 0.07692299999999364,
            "durationTicks": 20,
            "midi": 77,
            "name": "F5",
            "ticks": 58680,
            "time": 225.69208199999997,
            "velocity": 0.8346456692913385
          },
          {
            "duration": 0.06538455000000454,
            "durationTicks": 17,
            "midi": 77,
            "name": "F5",
            "ticks": 58740,
            "time": 225.92285099999995,
            "velocity": 0.7007874015748031
          },
          {
            "duration": 0.07692300000002206,
            "durationTicks": 20,
            "midi": 77,
            "name": "F5",
            "ticks": 58800,
            "time": 226.15361999999996,
            "velocity": 0.8267716535433071
          },
          {
            "duration": 0.07307685000000674,
            "durationTicks": 19,
            "midi": 77,
            "name": "F5",
            "ticks": 63840,
            "time": 245.53821599999995,
            "velocity": 0.8661417322834646
          },
          {
            "duration": 0.07692299999999364,
            "durationTicks": 20,
            "midi": 77,
            "name": "F5",
            "ticks": 63900,
            "time": 245.76898499999996,
            "velocity": 0.8346456692913385
          },
          {
            "duration": 0.07307684999997832,
            "durationTicks": 19,
            "midi": 77,
            "name": "F5",
            "ticks": 63960,
            "time": 245.99975399999997,
            "velocity": 0.8346456692913385
          },
          {
            "duration": 0.05769225000000233,
            "durationTicks": 15,
            "midi": 77,
            "name": "F5",
            "ticks": 64020,
            "time": 246.23052299999995,
            "velocity": 0.8346456692913385
          },
          {
            "duration": 0.1615383000000179,
            "durationTicks": 42,
            "midi": 77,
            "name": "F5",
            "ticks": 64080,
            "time": 246.46129199999996,
            "velocity": 0.8346456692913385
          },
          {
            "duration": 0.06538454999997612,
            "durationTicks": 17,
            "midi": 77,
            "name": "F5",
            "ticks": 64140,
            "time": 246.69206099999997,
            "velocity": 0.8582677165354331
          },
          {
            "duration": 0.08076914999998053,
            "durationTicks": 21,
            "midi": 77,
            "name": "F5",
            "ticks": 64170,
            "time": 246.80744549999997,
            "velocity": 0.7716535433070866
          },
          {
            "duration": 0.15769215000000258,
            "durationTicks": 41,
            "midi": 77,
            "name": "F5",
            "ticks": 64290,
            "time": 247.26898349999996,
            "velocity": 0.8346456692913385
          },
          {
            "duration": 0.05769225000000233,
            "durationTicks": 15,
            "midi": 77,
            "name": "F5",
            "ticks": 64350,
            "time": 247.49975249999997,
            "velocity": 0.8267716535433071
          },
          {
            "duration": 0.07692299999996521,
            "durationTicks": 20,
            "midi": 77,
            "name": "F5",
            "ticks": 64380,
            "time": 247.61513699999998,
            "velocity": 0.7637795275590551
          },
          {
            "duration": 0.07307684999997832,
            "durationTicks": 19,
            "midi": 77,
            "name": "F5",
            "ticks": 64440,
            "time": 247.84590599999996,
            "velocity": 0.8346456692913385
          },
          {
            "duration": 0.06538454999997612,
            "durationTicks": 17,
            "midi": 77,
            "name": "F5",
            "ticks": 64500,
            "time": 248.07667499999997,
            "velocity": 0.8267716535433071
          },
          {
            "duration": 0.0807691499999521,
            "durationTicks": 21,
            "midi": 77,
            "name": "F5",
            "ticks": 64560,
            "time": 248.30744399999998,
            "velocity": 0.8582677165354331
          },
          {
            "duration": 0.07692299999999364,
            "durationTicks": 20,
            "midi": 77,
            "name": "F5",
            "ticks": 64800,
            "time": 249.23051999999996,
            "velocity": 0.8110236220472441
          },
          {
            "duration": 0.06923069999999143,
            "durationTicks": 18,
            "midi": 77,
            "name": "F5",
            "ticks": 64860,
            "time": 249.46128899999997,
            "velocity": 0.8110236220472441
          },
          {
            "duration": 0.06538454999997612,
            "durationTicks": 17,
            "midi": 77,
            "name": "F5",
            "ticks": 64920,
            "time": 249.69205799999997,
            "velocity": 0.7637795275590551
          },
          {
            "duration": 0.05384610000001544,
            "durationTicks": 14,
            "midi": 77,
            "name": "F5",
            "ticks": 64980,
            "time": 249.92282699999996,
            "velocity": 0.8031496062992126
          },
          {
            "duration": 0.15769215000000258,
            "durationTicks": 41,
            "midi": 77,
            "name": "F5",
            "ticks": 65040,
            "time": 250.15359599999996,
            "velocity": 0.8346456692913385
          },
          {
            "duration": 0.05384609999998702,
            "durationTicks": 14,
            "midi": 77,
            "name": "F5",
            "ticks": 65100,
            "time": 250.38436499999997,
            "velocity": 0.8267716535433071
          },
          {
            "duration": 0.07692299999999364,
            "durationTicks": 20,
            "midi": 77,
            "name": "F5",
            "ticks": 65130,
            "time": 250.49974949999995,
            "velocity": 0.8031496062992126
          },
          {
            "duration": 0.15769215000000258,
            "durationTicks": 41,
            "midi": 77,
            "name": "F5",
            "ticks": 65250,
            "time": 250.96128749999997,
            "velocity": 0.8346456692913385
          },
          {
            "duration": 0.061538400000017646,
            "durationTicks": 16,
            "midi": 77,
            "name": "F5",
            "ticks": 65310,
            "time": 251.19205649999995,
            "velocity": 0.8346456692913385
          },
          {
            "duration": 0.07307685000000674,
            "durationTicks": 19,
            "midi": 77,
            "name": "F5",
            "ticks": 65340,
            "time": 251.30744099999995,
            "velocity": 0.7716535433070866
          },
          {
            "duration": 0.07692299999999364,
            "durationTicks": 20,
            "midi": 77,
            "name": "F5",
            "ticks": 65400,
            "time": 251.53820999999996,
            "velocity": 0.8346456692913385
          },
          {
            "duration": 0.06538454999997612,
            "durationTicks": 17,
            "midi": 77,
            "name": "F5",
            "ticks": 65460,
            "time": 251.76897899999997,
            "velocity": 0.7007874015748031
          },
          {
            "duration": 0.07692299999999364,
            "durationTicks": 20,
            "midi": 77,
            "name": "F5",
            "ticks": 65520,
            "time": 251.99974799999995,
            "velocity": 0.8267716535433071
          },
          {
            "duration": 0.07307684999997832,
            "durationTicks": 19,
            "midi": 77,
            "name": "F5",
            "ticks": 65760,
            "time": 252.92282399999996,
            "velocity": 0.8661417322834646
          },
          {
            "duration": 0.07692299999996521,
            "durationTicks": 20,
            "midi": 77,
            "name": "F5",
            "ticks": 65820,
            "time": 253.15359299999997,
            "velocity": 0.8346456692913385
          },
          {
            "duration": 0.07307685000000674,
            "durationTicks": 19,
            "midi": 77,
            "name": "F5",
            "ticks": 65880,
            "time": 253.38436199999995,
            "velocity": 0.8346456692913385
          },
          {
            "duration": 0.05769225000000233,
            "durationTicks": 15,
            "midi": 77,
            "name": "F5",
            "ticks": 65940,
            "time": 253.61513099999996,
            "velocity": 0.8346456692913385
          },
          {
            "duration": 0.16153829999998948,
            "durationTicks": 42,
            "midi": 77,
            "name": "F5",
            "ticks": 66000,
            "time": 253.84589999999997,
            "velocity": 0.8346456692913385
          },
          {
            "duration": 0.06538455000000454,
            "durationTicks": 17,
            "midi": 77,
            "name": "F5",
            "ticks": 66060,
            "time": 254.07666899999995,
            "velocity": 0.8582677165354331
          },
          {
            "duration": 0.08076914999998053,
            "durationTicks": 21,
            "midi": 77,
            "name": "F5",
            "ticks": 66090,
            "time": 254.19205349999996,
            "velocity": 0.7716535433070866
          },
          {
            "duration": 0.157692150000031,
            "durationTicks": 41,
            "midi": 77,
            "name": "F5",
            "ticks": 66210,
            "time": 254.65359149999995,
            "velocity": 0.8346456692913385
          },
          {
            "duration": 0.05769225000000233,
            "durationTicks": 15,
            "midi": 77,
            "name": "F5",
            "ticks": 66270,
            "time": 254.88436049999996,
            "velocity": 0.8267716535433071
          },
          {
            "duration": 0.07692299999999364,
            "durationTicks": 20,
            "midi": 77,
            "name": "F5",
            "ticks": 66300,
            "time": 254.99974499999996,
            "velocity": 0.7637795275590551
          },
          {
            "duration": 0.07307684999997832,
            "durationTicks": 19,
            "midi": 77,
            "name": "F5",
            "ticks": 66360,
            "time": 255.23051399999997,
            "velocity": 0.8346456692913385
          },
          {
            "duration": 0.06538455000000454,
            "durationTicks": 17,
            "midi": 77,
            "name": "F5",
            "ticks": 66420,
            "time": 255.46128299999995,
            "velocity": 0.8267716535433071
          },
          {
            "duration": 0.08076914999998053,
            "durationTicks": 21,
            "midi": 77,
            "name": "F5",
            "ticks": 66480,
            "time": 255.69205199999996,
            "velocity": 0.8582677165354331
          },
          {
            "duration": 0.07692299999996521,
            "durationTicks": 20,
            "midi": 77,
            "name": "F5",
            "ticks": 66720,
            "time": 256.61512799999997,
            "velocity": 0.8110236220472441
          },
          {
            "duration": 0.06923069999999143,
            "durationTicks": 18,
            "midi": 77,
            "name": "F5",
            "ticks": 66780,
            "time": 256.845897,
            "velocity": 0.8110236220472441
          },
          {
            "duration": 0.06538454999997612,
            "durationTicks": 17,
            "midi": 77,
            "name": "F5",
            "ticks": 66840,
            "time": 257.076666,
            "velocity": 0.7637795275590551
          },
          {
            "duration": 0.05384609999998702,
            "durationTicks": 14,
            "midi": 77,
            "name": "F5",
            "ticks": 66900,
            "time": 257.307435,
            "velocity": 0.8031496062992126
          },
          {
            "duration": 0.15769215000005943,
            "durationTicks": 41,
            "midi": 77,
            "name": "F5",
            "ticks": 66960,
            "time": 257.53820399999995,
            "velocity": 0.8346456692913385
          },
          {
            "duration": 0.05384610000004386,
            "durationTicks": 14,
            "midi": 77,
            "name": "F5",
            "ticks": 67020,
            "time": 257.76897299999996,
            "velocity": 0.8267716535433071
          },
          {
            "duration": 0.07692300000002206,
            "durationTicks": 20,
            "midi": 77,
            "name": "F5",
            "ticks": 67050,
            "time": 257.88435749999996,
            "velocity": 0.8031496062992126
          },
          {
            "duration": 0.05384609999998702,
            "durationTicks": 14,
            "midi": 77,
            "name": "F5",
            "ticks": 67200,
            "time": 258.46128,
            "velocity": 0.905511811023622
          },
          {
            "duration": 0.0730768499999499,
            "durationTicks": 19,
            "midi": 77,
            "name": "F5",
            "ticks": 67260,
            "time": 258.692049,
            "velocity": 0.889763779527559
          },
          {
            "duration": 0.06538454999997612,
            "durationTicks": 17,
            "midi": 77,
            "name": "F5",
            "ticks": 67320,
            "time": 258.922818,
            "velocity": 0.889763779527559
          },
          {
            "duration": 0.06923069999999143,
            "durationTicks": 18,
            "midi": 77,
            "name": "F5",
            "ticks": 67350,
            "time": 259.0382025,
            "velocity": 0.889763779527559
          },
          {
            "duration": 0.09615375000004178,
            "durationTicks": 25,
            "midi": 77,
            "name": "F5",
            "ticks": 67410,
            "time": 259.26897149999996,
            "velocity": 0.905511811023622
          }
        ]
      },
      {
        "channel": 3,
        "controlChanges": {
          "0": [
            {
              "number": 0,
              "ticks": 0,
              "time": 0,
              "value": 0.007874015748031496
            }
          ],
          "7": [
            {
              "number": 7,
              "ticks": 0,
              "time": 0,
              "value": 0.6299212598425197
            }
          ],
          "32": [
            {
              "number": 32,
              "ticks": 1,
              "time": 0.0038461499999999996,
              "value": 0
            }
          ],
          "91": [
            {
              "number": 91,
              "ticks": 483,
              "time": 1.8576904499999998,
              "value": 0.7874015748031497
            }
          ]
        },
        "pitchBends": [],
        "instrument": {
          "family": "bass",
          "name": "synth bass 1",
          "number": 38
        },
        "name": "Synth bass 101",
        "notes": [
          {
            "duration": 0.25769205000000106,
            "durationTicks": 67,
            "midi": 63,
            "name": "D#4",
            "ticks": 3360,
            "time": 12.923063999999998,
            "velocity": 0.3937007874015748
          },
          {
            "duration": 0.2653843499999997,
            "durationTicks": 69,
            "midi": 68,
            "name": "G#4",
            "ticks": 3360,
            "time": 12.923063999999998,
            "velocity": 0.3937007874015748
          },
          {
            "duration": 0.25769205000000106,
            "durationTicks": 67,
            "midi": 65,
            "name": "F4",
            "ticks": 3360,
            "time": 12.923063999999998,
            "velocity": 0.3937007874015748
          },
          {
            "duration": 0.21153825000000026,
            "durationTicks": 55,
            "midi": 60,
            "name": "C4",
            "ticks": 3360,
            "time": 12.923063999999998,
            "velocity": 0.3937007874015748
          },
          {
            "duration": 0.27307665000000014,
            "durationTicks": 71,
            "midi": 63,
            "name": "D#4",
            "ticks": 3450,
            "time": 13.269217499999998,
            "velocity": 0.4330708661417323
          },
          {
            "duration": 0.2653843499999997,
            "durationTicks": 69,
            "midi": 68,
            "name": "G#4",
            "ticks": 3450,
            "time": 13.269217499999998,
            "velocity": 0.4330708661417323
          },
          {
            "duration": 0.25769205000000106,
            "durationTicks": 67,
            "midi": 65,
            "name": "F4",
            "ticks": 3450,
            "time": 13.269217499999998,
            "velocity": 0.4330708661417323
          },
          {
            "duration": 0.23076900000000045,
            "durationTicks": 60,
            "midi": 60,
            "name": "C4",
            "ticks": 3450,
            "time": 13.269217499999998,
            "velocity": 0.4330708661417323
          },
          {
            "duration": 0.29999970000000076,
            "durationTicks": 78,
            "midi": 63,
            "name": "D#4",
            "ticks": 3540,
            "time": 13.615370999999998,
            "velocity": 0.48031496062992124
          },
          {
            "duration": 0.3153843000000016,
            "durationTicks": 82,
            "midi": 65,
            "name": "F4",
            "ticks": 3540,
            "time": 13.615370999999998,
            "velocity": 0.48031496062992124
          },
          {
            "duration": 0.3153843000000016,
            "durationTicks": 82,
            "midi": 68,
            "name": "G#4",
            "ticks": 3540,
            "time": 13.615370999999998,
            "velocity": 0.48031496062992124
          },
          {
            "duration": 0.2653843499999997,
            "durationTicks": 69,
            "midi": 60,
            "name": "C4",
            "ticks": 3540,
            "time": 13.615370999999998,
            "velocity": 0.48031496062992124
          },
          {
            "duration": 0.31923044999999917,
            "durationTicks": 83,
            "midi": 65,
            "name": "F4",
            "ticks": 3660,
            "time": 14.076908999999999,
            "velocity": 0.5433070866141733
          },
          {
            "duration": 0.299999699999999,
            "durationTicks": 78,
            "midi": 63,
            "name": "D#4",
            "ticks": 3660,
            "time": 14.076908999999999,
            "velocity": 0.5433070866141733
          },
          {
            "duration": 0.32307660000000027,
            "durationTicks": 84,
            "midi": 68,
            "name": "G#4",
            "ticks": 3660,
            "time": 14.076908999999999,
            "velocity": 0.5433070866141733
          },
          {
            "duration": 0.28076895000000057,
            "durationTicks": 73,
            "midi": 60,
            "name": "C4",
            "ticks": 3660,
            "time": 14.076908999999999,
            "velocity": 0.5433070866141733
          },
          {
            "duration": 0.17692289999999922,
            "durationTicks": 46,
            "midi": 63,
            "name": "D#4",
            "ticks": 3750,
            "time": 14.423062499999999,
            "velocity": 0.5826771653543307
          },
          {
            "duration": 0.2192305500000007,
            "durationTicks": 57,
            "midi": 68,
            "name": "G#4",
            "ticks": 3750,
            "time": 14.423062499999999,
            "velocity": 0.5826771653543307
          },
          {
            "duration": 0.20384594999999983,
            "durationTicks": 53,
            "midi": 60,
            "name": "C4",
            "ticks": 3750,
            "time": 14.423062499999999,
            "velocity": 0.5826771653543307
          },
          {
            "duration": 0.2384612999999991,
            "durationTicks": 62,
            "midi": 65,
            "name": "F4",
            "ticks": 3750,
            "time": 14.423062499999999,
            "velocity": 0.5826771653543307
          },
          {
            "duration": 0.26923049999999904,
            "durationTicks": 70,
            "midi": 65,
            "name": "F4",
            "ticks": 3840,
            "time": 14.769215999999998,
            "velocity": 0.6299212598425197
          },
          {
            "duration": 0.24999975000000063,
            "durationTicks": 65,
            "midi": 63,
            "name": "D#4",
            "ticks": 3840,
            "time": 14.769215999999998,
            "velocity": 0.6299212598425197
          },
          {
            "duration": 0.2615382000000004,
            "durationTicks": 68,
            "midi": 68,
            "name": "G#4",
            "ticks": 3840,
            "time": 14.769215999999998,
            "velocity": 0.6299212598425197
          },
          {
            "duration": 0.2653843499999997,
            "durationTicks": 69,
            "midi": 77,
            "name": "F5",
            "ticks": 3840,
            "time": 14.769215999999998,
            "velocity": 0.6299212598425197
          },
          {
            "duration": 0.21153825000000026,
            "durationTicks": 55,
            "midi": 60,
            "name": "C4",
            "ticks": 3840,
            "time": 14.769215999999998,
            "velocity": 0.6299212598425197
          },
          {
            "duration": 0.25769205000000106,
            "durationTicks": 67,
            "midi": 80,
            "name": "G#5",
            "ticks": 3840,
            "time": 14.769215999999998,
            "velocity": 0.6299212598425197
          },
          {
            "duration": 0.26923049999999904,
            "durationTicks": 70,
            "midi": 63,
            "name": "D#4",
            "ticks": 3930,
            "time": 15.115369499999998,
            "velocity": 0.6771653543307087
          },
          {
            "duration": 0.25384589999999996,
            "durationTicks": 66,
            "midi": 77,
            "name": "F5",
            "ticks": 3930,
            "time": 15.115369499999998,
            "velocity": 0.6771653543307087
          },
          {
            "duration": 0.29230740000000033,
            "durationTicks": 76,
            "midi": 65,
            "name": "F4",
            "ticks": 3930,
            "time": 15.115369499999998,
            "velocity": 0.6771653543307087
          },
          {
            "duration": 0.25769205000000106,
            "durationTicks": 67,
            "midi": 68,
            "name": "G#4",
            "ticks": 3930,
            "time": 15.115369499999998,
            "velocity": 0.6771653543307087
          },
          {
            "duration": 0.2423074500000002,
            "durationTicks": 63,
            "midi": 80,
            "name": "G#5",
            "ticks": 3930,
            "time": 15.115369499999998,
            "velocity": 0.6771653543307087
          },
          {
            "duration": 0.22307670000000002,
            "durationTicks": 58,
            "midi": 60,
            "name": "C4",
            "ticks": 3930,
            "time": 15.115369499999998,
            "velocity": 0.6771653543307087
          },
          {
            "duration": 0.27307665000000014,
            "durationTicks": 71,
            "midi": 63,
            "name": "D#4",
            "ticks": 4020,
            "time": 15.461522999999998,
            "velocity": 0.7244094488188977
          },
          {
            "duration": 0.2846150999999999,
            "durationTicks": 74,
            "midi": 65,
            "name": "F4",
            "ticks": 4020,
            "time": 15.461522999999998,
            "velocity": 0.7244094488188977
          },
          {
            "duration": 0.2846150999999999,
            "durationTicks": 74,
            "midi": 68,
            "name": "G#4",
            "ticks": 4020,
            "time": 15.461522999999998,
            "velocity": 0.7244094488188977
          },
          {
            "duration": 0.23846130000000088,
            "durationTicks": 62,
            "midi": 60,
            "name": "C4",
            "ticks": 4020,
            "time": 15.461522999999998,
            "velocity": 0.7244094488188977
          },
          {
            "duration": 0.27692280000000125,
            "durationTicks": 72,
            "midi": 80,
            "name": "G#5",
            "ticks": 4020,
            "time": 15.461522999999998,
            "velocity": 0.7244094488188977
          },
          {
            "duration": 0.27692280000000125,
            "durationTicks": 72,
            "midi": 77,
            "name": "F5",
            "ticks": 4020,
            "time": 15.461522999999998,
            "velocity": 0.7244094488188977
          },
          {
            "duration": 0.2230767000000018,
            "durationTicks": 58,
            "midi": 63,
            "name": "D#4",
            "ticks": 4110,
            "time": 15.807676499999998,
            "velocity": 0.7637795275590551
          },
          {
            "duration": 0.2192305500000007,
            "durationTicks": 57,
            "midi": 68,
            "name": "G#4",
            "ticks": 4110,
            "time": 15.807676499999998,
            "velocity": 0.7637795275590551
          },
          {
            "duration": 0.2230767000000018,
            "durationTicks": 58,
            "midi": 65,
            "name": "F4",
            "ticks": 4110,
            "time": 15.807676499999998,
            "velocity": 0.7637795275590551
          },
          {
            "duration": 0.18846135000000075,
            "durationTicks": 49,
            "midi": 60,
            "name": "C4",
            "ticks": 4110,
            "time": 15.807676499999998,
            "velocity": 0.7637795275590551
          },
          {
            "duration": 0.18461519999999965,
            "durationTicks": 48,
            "midi": 77,
            "name": "F5",
            "ticks": 4110,
            "time": 15.807676499999998,
            "velocity": 0.7637795275590551
          },
          {
            "duration": 0.18076905000000032,
            "durationTicks": 47,
            "midi": 80,
            "name": "G#5",
            "ticks": 4110,
            "time": 15.807676499999998,
            "velocity": 0.7637795275590551
          },
          {
            "duration": 0.20384594999999806,
            "durationTicks": 53,
            "midi": 77,
            "name": "F5",
            "ticks": 4200,
            "time": 16.15383,
            "velocity": 0.8110236220472441
          },
          {
            "duration": 0.20384594999999806,
            "durationTicks": 53,
            "midi": 80,
            "name": "G#5",
            "ticks": 4200,
            "time": 16.15383,
            "velocity": 0.8110236220472441
          },
          {
            "duration": 0.2153843999999978,
            "durationTicks": 56,
            "midi": 63,
            "name": "D#4",
            "ticks": 4200,
            "time": 16.15383,
            "velocity": 0.8110236220472441
          },
          {
            "duration": 0.2153843999999978,
            "durationTicks": 56,
            "midi": 68,
            "name": "G#4",
            "ticks": 4200,
            "time": 16.15383,
            "velocity": 0.8110236220472441
          },
          {
            "duration": 0.23076899999999867,
            "durationTicks": 60,
            "midi": 65,
            "name": "F4",
            "ticks": 4200,
            "time": 16.15383,
            "velocity": 0.8110236220472441
          },
          {
            "duration": 0.1961536499999994,
            "durationTicks": 51,
            "midi": 60,
            "name": "C4",
            "ticks": 4200,
            "time": 16.15383,
            "velocity": 0.8110236220472441
          },
          {
            "duration": 0.07307684999999253,
            "durationTicks": 19,
            "midi": 63,
            "name": "D#4",
            "ticks": 19740,
            "time": 75.923001,
            "velocity": 0.7007874015748031
          },
          {
            "duration": 0.08846144999999694,
            "durationTicks": 23,
            "midi": 68,
            "name": "G#4",
            "ticks": 19740,
            "time": 75.923001,
            "velocity": 0.5905511811023622
          },
          {
            "duration": 0.05769225000000233,
            "durationTicks": 15,
            "midi": 60,
            "name": "C4",
            "ticks": 19740,
            "time": 75.923001,
            "velocity": 0.8267716535433071
          },
          {
            "duration": 0.05769225000000233,
            "durationTicks": 15,
            "midi": 65,
            "name": "F4",
            "ticks": 19740,
            "time": 75.923001,
            "velocity": 0.7086614173228346
          },
          {
            "duration": 0.06538455000000454,
            "durationTicks": 17,
            "midi": 63,
            "name": "D#4",
            "ticks": 19830,
            "time": 76.2691545,
            "velocity": 0.7244094488188977
          },
          {
            "duration": 0.05769225000000233,
            "durationTicks": 15,
            "midi": 65,
            "name": "F4",
            "ticks": 19830,
            "time": 76.2691545,
            "velocity": 0.7480314960629921
          },
          {
            "duration": 0.07692299999999364,
            "durationTicks": 20,
            "midi": 68,
            "name": "G#4",
            "ticks": 19830,
            "time": 76.2691545,
            "velocity": 0.6220472440944882
          },
          {
            "duration": 0.05769225000000233,
            "durationTicks": 15,
            "midi": 60,
            "name": "C4",
            "ticks": 19830,
            "time": 76.2691545,
            "velocity": 0.8110236220472441
          },
          {
            "duration": 0.061538399999989224,
            "durationTicks": 16,
            "midi": 63,
            "name": "D#4",
            "ticks": 19920,
            "time": 76.615308,
            "velocity": 0.7480314960629921
          },
          {
            "duration": 0.06538455000000454,
            "durationTicks": 17,
            "midi": 65,
            "name": "F4",
            "ticks": 19920,
            "time": 76.615308,
            "velocity": 0.7716535433070866
          },
          {
            "duration": 0.08076914999999474,
            "durationTicks": 21,
            "midi": 68,
            "name": "G#4",
            "ticks": 19920,
            "time": 76.615308,
            "velocity": 0.6220472440944882
          },
          {
            "duration": 0.05384610000000123,
            "durationTicks": 14,
            "midi": 60,
            "name": "C4",
            "ticks": 19920,
            "time": 76.615308,
            "velocity": 0.8582677165354331
          },
          {
            "duration": 0.06538455000000454,
            "durationTicks": 17,
            "midi": 63,
            "name": "D#4",
            "ticks": 20010,
            "time": 76.9614615,
            "velocity": 0.7086614173228346
          },
          {
            "duration": 0.08076914999999474,
            "durationTicks": 21,
            "midi": 68,
            "name": "G#4",
            "ticks": 20010,
            "time": 76.9614615,
            "velocity": 0.6299212598425197
          },
          {
            "duration": 0.061538399999989224,
            "durationTicks": 16,
            "midi": 65,
            "name": "F4",
            "ticks": 20010,
            "time": 76.9614615,
            "velocity": 0.7244094488188977
          },
          {
            "duration": 0.04615379999999902,
            "durationTicks": 12,
            "midi": 60,
            "name": "C4",
            "ticks": 20010,
            "time": 76.9614615,
            "velocity": 0.8582677165354331
          },
          {
            "duration": 0.061538399999989224,
            "durationTicks": 16,
            "midi": 63,
            "name": "D#4",
            "ticks": 20100,
            "time": 77.307615,
            "velocity": 0.7007874015748031
          },
          {
            "duration": 0.061538399999989224,
            "durationTicks": 16,
            "midi": 65,
            "name": "F4",
            "ticks": 20100,
            "time": 77.307615,
            "velocity": 0.7244094488188977
          },
          {
            "duration": 0.05384610000000123,
            "durationTicks": 14,
            "midi": 60,
            "name": "C4",
            "ticks": 20100,
            "time": 77.307615,
            "velocity": 0.8661417322834646
          },
          {
            "duration": 0.049999949999985915,
            "durationTicks": 13,
            "midi": 68,
            "name": "G#4",
            "ticks": 20100,
            "time": 77.307615,
            "velocity": 0.5275590551181102
          },
          {
            "duration": 0.06923070000000564,
            "durationTicks": 18,
            "midi": 58,
            "name": "A#3",
            "ticks": 20220,
            "time": 77.76915299999999,
            "velocity": 0.7086614173228346
          },
          {
            "duration": 0.06923070000000564,
            "durationTicks": 18,
            "midi": 63,
            "name": "D#4",
            "ticks": 20220,
            "time": 77.76915299999999,
            "velocity": 0.7716535433070866
          },
          {
            "duration": 0.08076915000000895,
            "durationTicks": 21,
            "midi": 67,
            "name": "G4",
            "ticks": 20220,
            "time": 77.76915299999999,
            "velocity": 0.6456692913385826
          },
          {
            "duration": 0.05384610000001544,
            "durationTicks": 14,
            "midi": 63,
            "name": "D#4",
            "ticks": 20310,
            "time": 78.11530649999999,
            "velocity": 0.7480314960629921
          },
          {
            "duration": 0.05384610000001544,
            "durationTicks": 14,
            "midi": 67,
            "name": "G4",
            "ticks": 20310,
            "time": 78.11530649999999,
            "velocity": 0.6299212598425197
          },
          {
            "duration": 0.06538455000001875,
            "durationTicks": 17,
            "midi": 58,
            "name": "A#3",
            "ticks": 20310,
            "time": 78.11530649999999,
            "velocity": 0.7637795275590551
          },
          {
            "duration": 0.05384610000000123,
            "durationTicks": 14,
            "midi": 56,
            "name": "G#3",
            "ticks": 20460,
            "time": 78.692229,
            "velocity": 0.7637795275590551
          },
          {
            "duration": 0.034615349999995715,
            "durationTicks": 9,
            "midi": 61,
            "name": "C#4",
            "ticks": 20460,
            "time": 78.692229,
            "velocity": 0.7874015748031497
          },
          {
            "duration": 0.06923070000000564,
            "durationTicks": 18,
            "midi": 65,
            "name": "F4",
            "ticks": 20460,
            "time": 78.692229,
            "velocity": 0.6771653543307087
          },
          {
            "duration": 0.05769225000000233,
            "durationTicks": 15,
            "midi": 56,
            "name": "G#3",
            "ticks": 20550,
            "time": 79.0383825,
            "velocity": 0.7480314960629921
          },
          {
            "duration": 0.034615349999995715,
            "durationTicks": 9,
            "midi": 61,
            "name": "C#4",
            "ticks": 20550,
            "time": 79.0383825,
            "velocity": 0.7874015748031497
          },
          {
            "duration": 0.07692299999999364,
            "durationTicks": 20,
            "midi": 65,
            "name": "F4",
            "ticks": 20550,
            "time": 79.0383825,
            "velocity": 0.6692913385826772
          },
          {
            "duration": 0.06538455000000454,
            "durationTicks": 17,
            "midi": 63,
            "name": "D#4",
            "ticks": 20700,
            "time": 79.61530499999999,
            "velocity": 0.7007874015748031
          },
          {
            "duration": 0.05769225000000233,
            "durationTicks": 15,
            "midi": 60,
            "name": "C4",
            "ticks": 20700,
            "time": 79.61530499999999,
            "velocity": 0.8661417322834646
          },
          {
            "duration": 0.05769225000000233,
            "durationTicks": 15,
            "midi": 65,
            "name": "F4",
            "ticks": 20700,
            "time": 79.61530499999999,
            "velocity": 0.7007874015748031
          },
          {
            "duration": 0.07692299999999364,
            "durationTicks": 20,
            "midi": 68,
            "name": "G#4",
            "ticks": 20700,
            "time": 79.61530499999999,
            "velocity": 0.6220472440944882
          },
          {
            "duration": 0.05769225000000233,
            "durationTicks": 15,
            "midi": 63,
            "name": "D#4",
            "ticks": 20790,
            "time": 79.96145849999999,
            "velocity": 0.7086614173228346
          },
          {
            "duration": 0.049999950000000126,
            "durationTicks": 13,
            "midi": 60,
            "name": "C4",
            "ticks": 20790,
            "time": 79.96145849999999,
            "velocity": 0.8661417322834646
          },
          {
            "duration": 0.05769225000000233,
            "durationTicks": 15,
            "midi": 65,
            "name": "F4",
            "ticks": 20790,
            "time": 79.96145849999999,
            "velocity": 0.7480314960629921
          },
          {
            "duration": 0.07307685000000674,
            "durationTicks": 19,
            "midi": 68,
            "name": "G#4",
            "ticks": 20790,
            "time": 79.96145849999999,
            "velocity": 0.6062992125984252
          },
          {
            "duration": 0.05384610000000123,
            "durationTicks": 14,
            "midi": 63,
            "name": "D#4",
            "ticks": 20880,
            "time": 80.30761199999999,
            "velocity": 0.7086614173228346
          },
          {
            "duration": 0.07692299999999364,
            "durationTicks": 20,
            "midi": 68,
            "name": "G#4",
            "ticks": 20880,
            "time": 80.30761199999999,
            "velocity": 0.6377952755905512
          },
          {
            "duration": 0.049999950000000126,
            "durationTicks": 13,
            "midi": 65,
            "name": "F4",
            "ticks": 20880,
            "time": 80.30761199999999,
            "velocity": 0.7480314960629921
          },
          {
            "duration": 0.049999950000000126,
            "durationTicks": 13,
            "midi": 60,
            "name": "C4",
            "ticks": 20880,
            "time": 80.30761199999999,
            "velocity": 0.8582677165354331
          },
          {
            "duration": 0.05384610000000123,
            "durationTicks": 14,
            "midi": 63,
            "name": "D#4",
            "ticks": 20970,
            "time": 80.65376549999999,
            "velocity": 0.7086614173228346
          },
          {
            "duration": 0.05769225000000233,
            "durationTicks": 15,
            "midi": 65,
            "name": "F4",
            "ticks": 20970,
            "time": 80.65376549999999,
            "velocity": 0.7007874015748031
          },
          {
            "duration": 0.04615379999999902,
            "durationTicks": 12,
            "midi": 60,
            "name": "C4",
            "ticks": 20970,
            "time": 80.65376549999999,
            "velocity": 0.8582677165354331
          },
          {
            "duration": 0.07307685000000674,
            "durationTicks": 19,
            "midi": 68,
            "name": "G#4",
            "ticks": 20970,
            "time": 80.65376549999999,
            "velocity": 0.6062992125984252
          },
          {
            "duration": 0.05384610000000123,
            "durationTicks": 14,
            "midi": 63,
            "name": "D#4",
            "ticks": 21060,
            "time": 80.99991899999999,
            "velocity": 0.7637795275590551
          },
          {
            "duration": 0.05769225000000233,
            "durationTicks": 15,
            "midi": 65,
            "name": "F4",
            "ticks": 21060,
            "time": 80.99991899999999,
            "velocity": 0.7637795275590551
          },
          {
            "duration": 0.049999950000000126,
            "durationTicks": 13,
            "midi": 60,
            "name": "C4",
            "ticks": 21060,
            "time": 80.99991899999999,
            "velocity": 0.8661417322834646
          },
          {
            "duration": 0.06923070000000564,
            "durationTicks": 18,
            "midi": 68,
            "name": "G#4",
            "ticks": 21060,
            "time": 80.99991899999999,
            "velocity": 0.6377952755905512
          },
          {
            "duration": 0.07307684999999253,
            "durationTicks": 19,
            "midi": 63,
            "name": "D#4",
            "ticks": 21660,
            "time": 83.307609,
            "velocity": 0.7244094488188977
          },
          {
            "duration": 0.06538455000000454,
            "durationTicks": 17,
            "midi": 60,
            "name": "C4",
            "ticks": 21660,
            "time": 83.307609,
            "velocity": 0.8346456692913385
          },
          {
            "duration": 0.08461529999999584,
            "durationTicks": 22,
            "midi": 68,
            "name": "G#4",
            "ticks": 21660,
            "time": 83.307609,
            "velocity": 0.6062992125984252
          },
          {
            "duration": 0.07307684999999253,
            "durationTicks": 19,
            "midi": 65,
            "name": "F4",
            "ticks": 21660,
            "time": 83.307609,
            "velocity": 0.7244094488188977
          },
          {
            "duration": 0.061538399999989224,
            "durationTicks": 16,
            "midi": 63,
            "name": "D#4",
            "ticks": 21750,
            "time": 83.6537625,
            "velocity": 0.7244094488188977
          },
          {
            "duration": 0.08076914999999474,
            "durationTicks": 21,
            "midi": 68,
            "name": "G#4",
            "ticks": 21750,
            "time": 83.6537625,
            "velocity": 0.6456692913385826
          },
          {
            "duration": 0.061538399999989224,
            "durationTicks": 16,
            "midi": 65,
            "name": "F4",
            "ticks": 21750,
            "time": 83.6537625,
            "velocity": 0.7322834645669292
          },
          {
            "duration": 0.05384610000000123,
            "durationTicks": 14,
            "midi": 60,
            "name": "C4",
            "ticks": 21750,
            "time": 83.6537625,
            "velocity": 0.8582677165354331
          },
          {
            "duration": 0.061538399999989224,
            "durationTicks": 16,
            "midi": 63,
            "name": "D#4",
            "ticks": 21840,
            "time": 83.999916,
            "velocity": 0.7007874015748031
          },
          {
            "duration": 0.08076914999999474,
            "durationTicks": 21,
            "midi": 68,
            "name": "G#4",
            "ticks": 21840,
            "time": 83.999916,
            "velocity": 0.6062992125984252
          },
          {
            "duration": 0.05769225000000233,
            "durationTicks": 15,
            "midi": 65,
            "name": "F4",
            "ticks": 21840,
            "time": 83.999916,
            "velocity": 0.7244094488188977
          },
          {
            "duration": 0.049999949999985915,
            "durationTicks": 13,
            "midi": 60,
            "name": "C4",
            "ticks": 21840,
            "time": 83.999916,
            "velocity": 0.8346456692913385
          },
          {
            "duration": 0.061538399999989224,
            "durationTicks": 16,
            "midi": 63,
            "name": "D#4",
            "ticks": 21930,
            "time": 84.3460695,
            "velocity": 0.7637795275590551
          },
          {
            "duration": 0.061538399999989224,
            "durationTicks": 16,
            "midi": 65,
            "name": "F4",
            "ticks": 21930,
            "time": 84.3460695,
            "velocity": 0.7637795275590551
          },
          {
            "duration": 0.08461529999999584,
            "durationTicks": 22,
            "midi": 68,
            "name": "G#4",
            "ticks": 21930,
            "time": 84.3460695,
            "velocity": 0.6377952755905512
          },
          {
            "duration": 0.05769225000000233,
            "durationTicks": 15,
            "midi": 60,
            "name": "C4",
            "ticks": 21930,
            "time": 84.3460695,
            "velocity": 0.889763779527559
          },
          {
            "duration": 0.05384610000000123,
            "durationTicks": 14,
            "midi": 65,
            "name": "F4",
            "ticks": 22020,
            "time": 84.692223,
            "velocity": 0.7086614173228346
          },
          {
            "duration": 0.05384610000000123,
            "durationTicks": 14,
            "midi": 63,
            "name": "D#4",
            "ticks": 22020,
            "time": 84.692223,
            "velocity": 0.7480314960629921
          },
          {
            "duration": 0.05384610000000123,
            "durationTicks": 14,
            "midi": 68,
            "name": "G#4",
            "ticks": 22020,
            "time": 84.692223,
            "velocity": 0.5905511811023622
          },
          {
            "duration": 0.04615379999999902,
            "durationTicks": 12,
            "midi": 60,
            "name": "C4",
            "ticks": 22020,
            "time": 84.692223,
            "velocity": 0.8582677165354331
          },
          {
            "duration": 0.07692300000000785,
            "durationTicks": 20,
            "midi": 63,
            "name": "D#4",
            "ticks": 22140,
            "time": 85.15376099999999,
            "velocity": 0.7637795275590551
          },
          {
            "duration": 0.08076915000000895,
            "durationTicks": 21,
            "midi": 58,
            "name": "A#3",
            "ticks": 22140,
            "time": 85.15376099999999,
            "velocity": 0.8031496062992126
          },
          {
            "duration": 0.08846144999999694,
            "durationTicks": 23,
            "midi": 67,
            "name": "G4",
            "ticks": 22140,
            "time": 85.15376099999999,
            "velocity": 0.6220472440944882
          },
          {
            "duration": 0.08076915000000895,
            "durationTicks": 21,
            "midi": 67,
            "name": "G4",
            "ticks": 22230,
            "time": 85.49991449999999,
            "velocity": 0.6299212598425197
          },
          {
            "duration": 0.07692300000000785,
            "durationTicks": 20,
            "midi": 63,
            "name": "D#4",
            "ticks": 22230,
            "time": 85.49991449999999,
            "velocity": 0.7716535433070866
          },
          {
            "duration": 0.08846144999999694,
            "durationTicks": 23,
            "midi": 58,
            "name": "A#3",
            "ticks": 22230,
            "time": 85.49991449999999,
            "velocity": 0.7874015748031497
          },
          {
            "duration": 0.05384610000000123,
            "durationTicks": 14,
            "midi": 61,
            "name": "C#4",
            "ticks": 22380,
            "time": 86.076837,
            "velocity": 0.7874015748031497
          },
          {
            "duration": 0.061538399999989224,
            "durationTicks": 16,
            "midi": 56,
            "name": "G#3",
            "ticks": 22380,
            "time": 86.076837,
            "velocity": 0.7716535433070866
          },
          {
            "duration": 0.08461529999999584,
            "durationTicks": 22,
            "midi": 65,
            "name": "F4",
            "ticks": 22380,
            "time": 86.076837,
            "velocity": 0.7480314960629921
          },
          {
            "duration": 0.05384610000000123,
            "durationTicks": 14,
            "midi": 56,
            "name": "G#3",
            "ticks": 22470,
            "time": 86.4229905,
            "velocity": 0.7480314960629921
          },
          {
            "duration": 0.034615349999995715,
            "durationTicks": 9,
            "midi": 61,
            "name": "C#4",
            "ticks": 22470,
            "time": 86.4229905,
            "velocity": 0.7874015748031497
          },
          {
            "duration": 0.08461529999999584,
            "durationTicks": 22,
            "midi": 65,
            "name": "F4",
            "ticks": 22470,
            "time": 86.4229905,
            "velocity": 0.6929133858267716
          },
          {
            "duration": 0.06923070000000564,
            "durationTicks": 18,
            "midi": 63,
            "name": "D#4",
            "ticks": 22620,
            "time": 86.99991299999999,
            "velocity": 0.7086614173228346
          },
          {
            "duration": 0.06923070000000564,
            "durationTicks": 18,
            "midi": 60,
            "name": "C4",
            "ticks": 22620,
            "time": 86.99991299999999,
            "velocity": 0.8346456692913385
          },
          {
            "duration": 0.07692299999999364,
            "durationTicks": 20,
            "midi": 68,
            "name": "G#4",
            "ticks": 22620,
            "time": 86.99991299999999,
            "velocity": 0.5748031496062992
          },
          {
            "duration": 0.06538455000000454,
            "durationTicks": 17,
            "midi": 65,
            "name": "F4",
            "ticks": 22620,
            "time": 86.99991299999999,
            "velocity": 0.7480314960629921
          },
          {
            "duration": 0.06923070000000564,
            "durationTicks": 18,
            "midi": 63,
            "name": "D#4",
            "ticks": 22710,
            "time": 87.34606649999999,
            "velocity": 0.7322834645669292
          },
          {
            "duration": 0.09230759999999805,
            "durationTicks": 24,
            "midi": 68,
            "name": "G#4",
            "ticks": 22710,
            "time": 87.34606649999999,
            "velocity": 0.5748031496062992
          },
          {
            "duration": 0.061538400000003435,
            "durationTicks": 16,
            "midi": 60,
            "name": "C4",
            "ticks": 22710,
            "time": 87.34606649999999,
            "velocity": 0.8661417322834646
          },
          {
            "duration": 0.061538400000003435,
            "durationTicks": 16,
            "midi": 65,
            "name": "F4",
            "ticks": 22710,
            "time": 87.34606649999999,
            "velocity": 0.7322834645669292
          },
          {
            "duration": 0.06538455000000454,
            "durationTicks": 17,
            "midi": 63,
            "name": "D#4",
            "ticks": 22800,
            "time": 87.69221999999999,
            "velocity": 0.7716535433070866
          },
          {
            "duration": 0.07692299999999364,
            "durationTicks": 20,
            "midi": 68,
            "name": "G#4",
            "ticks": 22800,
            "time": 87.69221999999999,
            "velocity": 0.6456692913385826
          },
          {
            "duration": 0.05769225000000233,
            "durationTicks": 15,
            "midi": 65,
            "name": "F4",
            "ticks": 22800,
            "time": 87.69221999999999,
            "velocity": 0.7716535433070866
          },
          {
            "duration": 0.05384610000000123,
            "durationTicks": 14,
            "midi": 60,
            "name": "C4",
            "ticks": 22800,
            "time": 87.69221999999999,
            "velocity": 0.889763779527559
          },
          {
            "duration": 0.06538455000000454,
            "durationTicks": 17,
            "midi": 63,
            "name": "D#4",
            "ticks": 22890,
            "time": 88.03837349999999,
            "velocity": 0.7244094488188977
          },
          {
            "duration": 0.061538400000003435,
            "durationTicks": 16,
            "midi": 65,
            "name": "F4",
            "ticks": 22890,
            "time": 88.03837349999999,
            "velocity": 0.7322834645669292
          },
          {
            "duration": 0.07692299999999364,
            "durationTicks": 20,
            "midi": 68,
            "name": "G#4",
            "ticks": 22890,
            "time": 88.03837349999999,
            "velocity": 0.6220472440944882
          },
          {
            "duration": 0.05384610000000123,
            "durationTicks": 14,
            "midi": 60,
            "name": "C4",
            "ticks": 22890,
            "time": 88.03837349999999,
            "velocity": 0.8661417322834646
          },
          {
            "duration": 0.05769225000000233,
            "durationTicks": 15,
            "midi": 63,
            "name": "D#4",
            "ticks": 22980,
            "time": 88.38452699999999,
            "velocity": 0.7716535433070866
          },
          {
            "duration": 0.07307685000000674,
            "durationTicks": 19,
            "midi": 68,
            "name": "G#4",
            "ticks": 22980,
            "time": 88.38452699999999,
            "velocity": 0.6299212598425197
          },
          {
            "duration": 0.05384610000000123,
            "durationTicks": 14,
            "midi": 65,
            "name": "F4",
            "ticks": 22980,
            "time": 88.38452699999999,
            "velocity": 0.7874015748031497
          },
          {
            "duration": 0.049999950000000126,
            "durationTicks": 13,
            "midi": 60,
            "name": "C4",
            "ticks": 22980,
            "time": 88.38452699999999,
            "velocity": 0.905511811023622
          },
          {
            "duration": 0.07307684999999253,
            "durationTicks": 19,
            "midi": 63,
            "name": "D#4",
            "ticks": 23580,
            "time": 90.692217,
            "velocity": 0.7007874015748031
          },
          {
            "duration": 0.08846144999999694,
            "durationTicks": 23,
            "midi": 68,
            "name": "G#4",
            "ticks": 23580,
            "time": 90.692217,
            "velocity": 0.5905511811023622
          },
          {
            "duration": 0.05769224999998812,
            "durationTicks": 15,
            "midi": 60,
            "name": "C4",
            "ticks": 23580,
            "time": 90.692217,
            "velocity": 0.8267716535433071
          },
          {
            "duration": 0.05769224999998812,
            "durationTicks": 15,
            "midi": 65,
            "name": "F4",
            "ticks": 23580,
            "time": 90.692217,
            "velocity": 0.7086614173228346
          },
          {
            "duration": 0.06538455000000454,
            "durationTicks": 17,
            "midi": 63,
            "name": "D#4",
            "ticks": 23670,
            "time": 91.0383705,
            "velocity": 0.7244094488188977
          },
          {
            "duration": 0.05769224999998812,
            "durationTicks": 15,
            "midi": 65,
            "name": "F4",
            "ticks": 23670,
            "time": 91.0383705,
            "velocity": 0.7480314960629921
          },
          {
            "duration": 0.07692299999999364,
            "durationTicks": 20,
            "midi": 68,
            "name": "G#4",
            "ticks": 23670,
            "time": 91.0383705,
            "velocity": 0.6220472440944882
          },
          {
            "duration": 0.05769224999998812,
            "durationTicks": 15,
            "midi": 60,
            "name": "C4",
            "ticks": 23670,
            "time": 91.0383705,
            "velocity": 0.8110236220472441
          },
          {
            "duration": 0.061538399999989224,
            "durationTicks": 16,
            "midi": 63,
            "name": "D#4",
            "ticks": 23760,
            "time": 91.384524,
            "velocity": 0.7480314960629921
          },
          {
            "duration": 0.06538455000000454,
            "durationTicks": 17,
            "midi": 65,
            "name": "F4",
            "ticks": 23760,
            "time": 91.384524,
            "velocity": 0.7716535433070866
          },
          {
            "duration": 0.08076914999999474,
            "durationTicks": 21,
            "midi": 68,
            "name": "G#4",
            "ticks": 23760,
            "time": 91.384524,
            "velocity": 0.6220472440944882
          },
          {
            "duration": 0.05384610000000123,
            "durationTicks": 14,
            "midi": 60,
            "name": "C4",
            "ticks": 23760,
            "time": 91.384524,
            "velocity": 0.8582677165354331
          },
          {
            "duration": 0.06538455000000454,
            "durationTicks": 17,
            "midi": 63,
            "name": "D#4",
            "ticks": 23850,
            "time": 91.7306775,
            "velocity": 0.7086614173228346
          },
          {
            "duration": 0.08076914999999474,
            "durationTicks": 21,
            "midi": 68,
            "name": "G#4",
            "ticks": 23850,
            "time": 91.7306775,
            "velocity": 0.6299212598425197
          },
          {
            "duration": 0.061538399999989224,
            "durationTicks": 16,
            "midi": 65,
            "name": "F4",
            "ticks": 23850,
            "time": 91.7306775,
            "velocity": 0.7244094488188977
          },
          {
            "duration": 0.04615379999999902,
            "durationTicks": 12,
            "midi": 60,
            "name": "C4",
            "ticks": 23850,
            "time": 91.7306775,
            "velocity": 0.8582677165354331
          },
          {
            "duration": 0.061538399999989224,
            "durationTicks": 16,
            "midi": 63,
            "name": "D#4",
            "ticks": 23940,
            "time": 92.076831,
            "velocity": 0.7007874015748031
          },
          {
            "duration": 0.061538399999989224,
            "durationTicks": 16,
            "midi": 65,
            "name": "F4",
            "ticks": 23940,
            "time": 92.076831,
            "velocity": 0.7244094488188977
          },
          {
            "duration": 0.05384610000000123,
            "durationTicks": 14,
            "midi": 60,
            "name": "C4",
            "ticks": 23940,
            "time": 92.076831,
            "velocity": 0.8661417322834646
          },
          {
            "duration": 0.049999949999985915,
            "durationTicks": 13,
            "midi": 68,
            "name": "G#4",
            "ticks": 23940,
            "time": 92.076831,
            "velocity": 0.5275590551181102
          },
          {
            "duration": 0.06923070000000564,
            "durationTicks": 18,
            "midi": 58,
            "name": "A#3",
            "ticks": 24060,
            "time": 92.53836899999999,
            "velocity": 0.7086614173228346
          },
          {
            "duration": 0.06923070000000564,
            "durationTicks": 18,
            "midi": 63,
            "name": "D#4",
            "ticks": 24060,
            "time": 92.53836899999999,
            "velocity": 0.7716535433070866
          },
          {
            "duration": 0.08076915000000895,
            "durationTicks": 21,
            "midi": 67,
            "name": "G4",
            "ticks": 24060,
            "time": 92.53836899999999,
            "velocity": 0.6456692913385826
          },
          {
            "duration": 0.05384610000000123,
            "durationTicks": 14,
            "midi": 63,
            "name": "D#4",
            "ticks": 24150,
            "time": 92.88452249999999,
            "velocity": 0.7480314960629921
          },
          {
            "duration": 0.05384610000000123,
            "durationTicks": 14,
            "midi": 67,
            "name": "G4",
            "ticks": 24150,
            "time": 92.88452249999999,
            "velocity": 0.6299212598425197
          },
          {
            "duration": 0.06538455000000454,
            "durationTicks": 17,
            "midi": 58,
            "name": "A#3",
            "ticks": 24150,
            "time": 92.88452249999999,
            "velocity": 0.7637795275590551
          },
          {
            "duration": 0.05384610000000123,
            "durationTicks": 14,
            "midi": 56,
            "name": "G#3",
            "ticks": 24300,
            "time": 93.461445,
            "velocity": 0.7637795275590551
          },
          {
            "duration": 0.034615349999995715,
            "durationTicks": 9,
            "midi": 61,
            "name": "C#4",
            "ticks": 24300,
            "time": 93.461445,
            "velocity": 0.7874015748031497
          },
          {
            "duration": 0.06923069999999143,
            "durationTicks": 18,
            "midi": 65,
            "name": "F4",
            "ticks": 24300,
            "time": 93.461445,
            "velocity": 0.6771653543307087
          },
          {
            "duration": 0.05769225000000233,
            "durationTicks": 15,
            "midi": 56,
            "name": "G#3",
            "ticks": 24390,
            "time": 93.8075985,
            "velocity": 0.7480314960629921
          },
          {
            "duration": 0.034615349999995715,
            "durationTicks": 9,
            "midi": 61,
            "name": "C#4",
            "ticks": 24390,
            "time": 93.8075985,
            "velocity": 0.7874015748031497
          },
          {
            "duration": 0.07692299999999364,
            "durationTicks": 20,
            "midi": 65,
            "name": "F4",
            "ticks": 24390,
            "time": 93.8075985,
            "velocity": 0.6692913385826772
          },
          {
            "duration": 0.07307684999999253,
            "durationTicks": 19,
            "midi": 63,
            "name": "D#4",
            "ticks": 25500,
            "time": 98.076825,
            "velocity": 0.7244094488188977
          },
          {
            "duration": 0.06538455000000454,
            "durationTicks": 17,
            "midi": 60,
            "name": "C4",
            "ticks": 25500,
            "time": 98.076825,
            "velocity": 0.8346456692913385
          },
          {
            "duration": 0.08461529999999584,
            "durationTicks": 22,
            "midi": 68,
            "name": "G#4",
            "ticks": 25500,
            "time": 98.076825,
            "velocity": 0.6062992125984252
          },
          {
            "duration": 0.07307684999999253,
            "durationTicks": 19,
            "midi": 65,
            "name": "F4",
            "ticks": 25500,
            "time": 98.076825,
            "velocity": 0.7244094488188977
          },
          {
            "duration": 0.061538399999989224,
            "durationTicks": 16,
            "midi": 63,
            "name": "D#4",
            "ticks": 25590,
            "time": 98.4229785,
            "velocity": 0.7244094488188977
          },
          {
            "duration": 0.08076914999999474,
            "durationTicks": 21,
            "midi": 68,
            "name": "G#4",
            "ticks": 25590,
            "time": 98.4229785,
            "velocity": 0.6456692913385826
          },
          {
            "duration": 0.061538399999989224,
            "durationTicks": 16,
            "midi": 65,
            "name": "F4",
            "ticks": 25590,
            "time": 98.4229785,
            "velocity": 0.7322834645669292
          },
          {
            "duration": 0.05384610000000123,
            "durationTicks": 14,
            "midi": 60,
            "name": "C4",
            "ticks": 25590,
            "time": 98.4229785,
            "velocity": 0.8582677165354331
          },
          {
            "duration": 0.061538399999989224,
            "durationTicks": 16,
            "midi": 63,
            "name": "D#4",
            "ticks": 25680,
            "time": 98.769132,
            "velocity": 0.7007874015748031
          },
          {
            "duration": 0.08076914999999474,
            "durationTicks": 21,
            "midi": 68,
            "name": "G#4",
            "ticks": 25680,
            "time": 98.769132,
            "velocity": 0.6062992125984252
          },
          {
            "duration": 0.05769224999998812,
            "durationTicks": 15,
            "midi": 65,
            "name": "F4",
            "ticks": 25680,
            "time": 98.769132,
            "velocity": 0.7244094488188977
          },
          {
            "duration": 0.049999949999985915,
            "durationTicks": 13,
            "midi": 60,
            "name": "C4",
            "ticks": 25680,
            "time": 98.769132,
            "velocity": 0.8346456692913385
          },
          {
            "duration": 0.061538399999989224,
            "durationTicks": 16,
            "midi": 63,
            "name": "D#4",
            "ticks": 25770,
            "time": 99.1152855,
            "velocity": 0.7637795275590551
          },
          {
            "duration": 0.061538399999989224,
            "durationTicks": 16,
            "midi": 65,
            "name": "F4",
            "ticks": 25770,
            "time": 99.1152855,
            "velocity": 0.7637795275590551
          },
          {
            "duration": 0.08461529999999584,
            "durationTicks": 22,
            "midi": 68,
            "name": "G#4",
            "ticks": 25770,
            "time": 99.1152855,
            "velocity": 0.6377952755905512
          },
          {
            "duration": 0.05769224999998812,
            "durationTicks": 15,
            "midi": 60,
            "name": "C4",
            "ticks": 25770,
            "time": 99.1152855,
            "velocity": 0.889763779527559
          },
          {
            "duration": 0.05384610000000123,
            "durationTicks": 14,
            "midi": 65,
            "name": "F4",
            "ticks": 25860,
            "time": 99.461439,
            "velocity": 0.7086614173228346
          },
          {
            "duration": 0.05384610000000123,
            "durationTicks": 14,
            "midi": 63,
            "name": "D#4",
            "ticks": 25860,
            "time": 99.461439,
            "velocity": 0.7480314960629921
          },
          {
            "duration": 0.05384610000000123,
            "durationTicks": 14,
            "midi": 68,
            "name": "G#4",
            "ticks": 25860,
            "time": 99.461439,
            "velocity": 0.5905511811023622
          },
          {
            "duration": 0.04615379999998481,
            "durationTicks": 12,
            "midi": 60,
            "name": "C4",
            "ticks": 25860,
            "time": 99.461439,
            "velocity": 0.8582677165354331
          },
          {
            "duration": 0.07692299999999364,
            "durationTicks": 20,
            "midi": 63,
            "name": "D#4",
            "ticks": 25980,
            "time": 99.92297699999999,
            "velocity": 0.7637795275590551
          },
          {
            "duration": 0.08076915000000895,
            "durationTicks": 21,
            "midi": 58,
            "name": "A#3",
            "ticks": 25980,
            "time": 99.92297699999999,
            "velocity": 0.8031496062992126
          },
          {
            "duration": 0.08846144999999694,
            "durationTicks": 23,
            "midi": 67,
            "name": "G4",
            "ticks": 25980,
            "time": 99.92297699999999,
            "velocity": 0.6220472440944882
          },
          {
            "duration": 0.08076915000000895,
            "durationTicks": 21,
            "midi": 67,
            "name": "G4",
            "ticks": 26070,
            "time": 100.26913049999999,
            "velocity": 0.6299212598425197
          },
          {
            "duration": 0.07692299999999364,
            "durationTicks": 20,
            "midi": 63,
            "name": "D#4",
            "ticks": 26070,
            "time": 100.26913049999999,
            "velocity": 0.7716535433070866
          },
          {
            "duration": 0.08846144999999694,
            "durationTicks": 23,
            "midi": 58,
            "name": "A#3",
            "ticks": 26070,
            "time": 100.26913049999999,
            "velocity": 0.7874015748031497
          },
          {
            "duration": 0.05384610000000123,
            "durationTicks": 14,
            "midi": 61,
            "name": "C#4",
            "ticks": 26220,
            "time": 100.846053,
            "velocity": 0.7874015748031497
          },
          {
            "duration": 0.061538399999989224,
            "durationTicks": 16,
            "midi": 56,
            "name": "G#3",
            "ticks": 26220,
            "time": 100.846053,
            "velocity": 0.7716535433070866
          },
          {
            "duration": 0.08461529999999584,
            "durationTicks": 22,
            "midi": 65,
            "name": "F4",
            "ticks": 26220,
            "time": 100.846053,
            "velocity": 0.7480314960629921
          },
          {
            "duration": 0.05384610000000123,
            "durationTicks": 14,
            "midi": 56,
            "name": "G#3",
            "ticks": 26310,
            "time": 101.1922065,
            "velocity": 0.7480314960629921
          },
          {
            "duration": 0.034615349999995715,
            "durationTicks": 9,
            "midi": 61,
            "name": "C#4",
            "ticks": 26310,
            "time": 101.1922065,
            "velocity": 0.7874015748031497
          },
          {
            "duration": 0.08461529999999584,
            "durationTicks": 22,
            "midi": 65,
            "name": "F4",
            "ticks": 26310,
            "time": 101.1922065,
            "velocity": 0.6929133858267716
          },
          {
            "duration": 0.06923070000000564,
            "durationTicks": 18,
            "midi": 63,
            "name": "D#4",
            "ticks": 26460,
            "time": 101.76912899999999,
            "velocity": 0.7086614173228346
          },
          {
            "duration": 0.06923070000000564,
            "durationTicks": 18,
            "midi": 60,
            "name": "C4",
            "ticks": 26460,
            "time": 101.76912899999999,
            "velocity": 0.8346456692913385
          },
          {
            "duration": 0.07692299999999364,
            "durationTicks": 20,
            "midi": 68,
            "name": "G#4",
            "ticks": 26460,
            "time": 101.76912899999999,
            "velocity": 0.5748031496062992
          },
          {
            "duration": 0.06538455000000454,
            "durationTicks": 17,
            "midi": 65,
            "name": "F4",
            "ticks": 26460,
            "time": 101.76912899999999,
            "velocity": 0.7480314960629921
          },
          {
            "duration": 0.06923070000000564,
            "durationTicks": 18,
            "midi": 63,
            "name": "D#4",
            "ticks": 26550,
            "time": 102.11528249999999,
            "velocity": 0.7322834645669292
          },
          {
            "duration": 0.09230759999999805,
            "durationTicks": 24,
            "midi": 68,
            "name": "G#4",
            "ticks": 26550,
            "time": 102.11528249999999,
            "velocity": 0.5748031496062992
          },
          {
            "duration": 0.061538400000003435,
            "durationTicks": 16,
            "midi": 60,
            "name": "C4",
            "ticks": 26550,
            "time": 102.11528249999999,
            "velocity": 0.8661417322834646
          },
          {
            "duration": 0.061538400000003435,
            "durationTicks": 16,
            "midi": 65,
            "name": "F4",
            "ticks": 26550,
            "time": 102.11528249999999,
            "velocity": 0.7322834645669292
          },
          {
            "duration": 0.06538455000000454,
            "durationTicks": 17,
            "midi": 63,
            "name": "D#4",
            "ticks": 26640,
            "time": 102.46143599999999,
            "velocity": 0.7716535433070866
          },
          {
            "duration": 0.07692299999999364,
            "durationTicks": 20,
            "midi": 68,
            "name": "G#4",
            "ticks": 26640,
            "time": 102.46143599999999,
            "velocity": 0.6456692913385826
          },
          {
            "duration": 0.05769225000000233,
            "durationTicks": 15,
            "midi": 65,
            "name": "F4",
            "ticks": 26640,
            "time": 102.46143599999999,
            "velocity": 0.7716535433070866
          },
          {
            "duration": 0.05384610000000123,
            "durationTicks": 14,
            "midi": 60,
            "name": "C4",
            "ticks": 26640,
            "time": 102.46143599999999,
            "velocity": 0.889763779527559
          },
          {
            "duration": 0.06538455000000454,
            "durationTicks": 17,
            "midi": 63,
            "name": "D#4",
            "ticks": 26730,
            "time": 102.80758949999999,
            "velocity": 0.7244094488188977
          },
          {
            "duration": 0.061538400000003435,
            "durationTicks": 16,
            "midi": 65,
            "name": "F4",
            "ticks": 26730,
            "time": 102.80758949999999,
            "velocity": 0.7322834645669292
          },
          {
            "duration": 0.07692299999999364,
            "durationTicks": 20,
            "midi": 68,
            "name": "G#4",
            "ticks": 26730,
            "time": 102.80758949999999,
            "velocity": 0.6220472440944882
          },
          {
            "duration": 0.05384610000000123,
            "durationTicks": 14,
            "midi": 60,
            "name": "C4",
            "ticks": 26730,
            "time": 102.80758949999999,
            "velocity": 0.8661417322834646
          },
          {
            "duration": 0.05769225000000233,
            "durationTicks": 15,
            "midi": 63,
            "name": "D#4",
            "ticks": 26820,
            "time": 103.15374299999999,
            "velocity": 0.7716535433070866
          },
          {
            "duration": 0.07307685000000674,
            "durationTicks": 19,
            "midi": 68,
            "name": "G#4",
            "ticks": 26820,
            "time": 103.15374299999999,
            "velocity": 0.6299212598425197
          },
          {
            "duration": 0.05384610000000123,
            "durationTicks": 14,
            "midi": 65,
            "name": "F4",
            "ticks": 26820,
            "time": 103.15374299999999,
            "velocity": 0.7874015748031497
          },
          {
            "duration": 0.049999950000000126,
            "durationTicks": 13,
            "midi": 60,
            "name": "C4",
            "ticks": 26820,
            "time": 103.15374299999999,
            "velocity": 0.905511811023622
          },
          {
            "duration": 0.22307670000000712,
            "durationTicks": 58,
            "midi": 53,
            "name": "F3",
            "ticks": 39840,
            "time": 153.23061599999997,
            "velocity": 0.5984251968503937
          },
          {
            "duration": 0.25384590000001594,
            "durationTicks": 66,
            "midi": 68,
            "name": "G#4",
            "ticks": 39840,
            "time": 153.23061599999997,
            "velocity": 0.5354330708661418
          },
          {
            "duration": 0.26153819999998973,
            "durationTicks": 68,
            "midi": 65,
            "name": "F4",
            "ticks": 39840,
            "time": 153.23061599999997,
            "velocity": 0.7086614173228346
          },
          {
            "duration": 0.1961536500000136,
            "durationTicks": 51,
            "midi": 60,
            "name": "C4",
            "ticks": 39840,
            "time": 153.23061599999997,
            "velocity": 0.8110236220472441
          },
          {
            "duration": 0.25769205000000284,
            "durationTicks": 67,
            "midi": 68,
            "name": "G#4",
            "ticks": 39930,
            "time": 153.57676949999998,
            "velocity": 0.5748031496062992
          },
          {
            "duration": 0.24999975000000063,
            "durationTicks": 65,
            "midi": 65,
            "name": "F4",
            "ticks": 39930,
            "time": 153.57676949999998,
            "velocity": 0.7086614173228346
          },
          {
            "duration": 0.1961536499999852,
            "durationTicks": 51,
            "midi": 60,
            "name": "C4",
            "ticks": 39930,
            "time": 153.57676949999998,
            "velocity": 0.8582677165354331
          },
          {
            "duration": 0.2076920999999743,
            "durationTicks": 54,
            "midi": 53,
            "name": "F3",
            "ticks": 39930,
            "time": 153.57676949999998,
            "velocity": 0.5984251968503937
          },
          {
            "duration": 0.29615354999998544,
            "durationTicks": 77,
            "midi": 68,
            "name": "G#4",
            "ticks": 40020,
            "time": 153.92292299999997,
            "velocity": 0.5984251968503937
          },
          {
            "duration": 0.24999975000000063,
            "durationTicks": 65,
            "midi": 53,
            "name": "F3",
            "ticks": 40020,
            "time": 153.92292299999997,
            "velocity": 0.6220472440944882
          },
          {
            "duration": 0.28846125000001166,
            "durationTicks": 75,
            "midi": 65,
            "name": "F4",
            "ticks": 40020,
            "time": 153.92292299999997,
            "velocity": 0.7637795275590551
          },
          {
            "duration": 0.23076900000000933,
            "durationTicks": 60,
            "midi": 60,
            "name": "C4",
            "ticks": 40020,
            "time": 153.92292299999997,
            "velocity": 0.8661417322834646
          },
          {
            "duration": 0.3499996500000009,
            "durationTicks": 91,
            "midi": 68,
            "name": "G#4",
            "ticks": 40140,
            "time": 154.38446099999996,
            "velocity": 0.5511811023622047
          },
          {
            "duration": 0.28076895000000945,
            "durationTicks": 73,
            "midi": 65,
            "name": "F4",
            "ticks": 40140,
            "time": 154.38446099999996,
            "velocity": 0.7322834645669292
          },
          {
            "duration": 0.23461514999999622,
            "durationTicks": 61,
            "midi": 53,
            "name": "F3",
            "ticks": 40140,
            "time": 154.38446099999996,
            "velocity": 0.6614173228346457
          },
          {
            "duration": 0.23461514999999622,
            "durationTicks": 61,
            "midi": 60,
            "name": "C4",
            "ticks": 40140,
            "time": 154.38446099999996,
            "velocity": 0.8661417322834646
          },
          {
            "duration": 0.08076915000000895,
            "durationTicks": 21,
            "midi": 68,
            "name": "G#4",
            "ticks": 40230,
            "time": 154.73061449999997,
            "velocity": 0.4251968503937008
          },
          {
            "duration": 0.173076750000007,
            "durationTicks": 45,
            "midi": 65,
            "name": "F4",
            "ticks": 40230,
            "time": 154.73061449999997,
            "velocity": 0.7086614173228346
          },
          {
            "duration": 0.11923064999999156,
            "durationTicks": 31,
            "midi": 60,
            "name": "C4",
            "ticks": 40230,
            "time": 154.73061449999997,
            "velocity": 0.905511811023622
          },
          {
            "duration": 0.2384612999999831,
            "durationTicks": 62,
            "midi": 53,
            "name": "F3",
            "ticks": 40230,
            "time": 154.73061449999997,
            "velocity": 0.6377952755905512
          },
          {
            "duration": 0.3346150500000249,
            "durationTicks": 87,
            "midi": 67,
            "name": "G4",
            "ticks": 40320,
            "time": 155.07676799999996,
            "velocity": 0.5748031496062992
          },
          {
            "duration": 0.23846130000001153,
            "durationTicks": 62,
            "midi": 63,
            "name": "D#4",
            "ticks": 40320,
            "time": 155.07676799999996,
            "velocity": 0.7244094488188977
          },
          {
            "duration": 0.25384590000001594,
            "durationTicks": 66,
            "midi": 58,
            "name": "A#3",
            "ticks": 40320,
            "time": 155.07676799999996,
            "velocity": 0.7874015748031497
          },
          {
            "duration": 0.1961536500000136,
            "durationTicks": 51,
            "midi": 51,
            "name": "D#3",
            "ticks": 40320,
            "time": 155.07676799999996,
            "velocity": 0.7716535433070866
          },
          {
            "duration": 0.11538450000000466,
            "durationTicks": 30,
            "midi": 67,
            "name": "G4",
            "ticks": 40410,
            "time": 155.42292149999997,
            "velocity": 0.5433070866141733
          },
          {
            "duration": 0.28846125000001166,
            "durationTicks": 75,
            "midi": 51,
            "name": "D#3",
            "ticks": 40410,
            "time": 155.42292149999997,
            "velocity": 0.6771653543307087
          },
          {
            "duration": 0.2076921000000027,
            "durationTicks": 54,
            "midi": 58,
            "name": "A#3",
            "ticks": 40410,
            "time": 155.42292149999997,
            "velocity": 0.7086614173228346
          },
          {
            "duration": 0.13076910000000908,
            "durationTicks": 34,
            "midi": 63,
            "name": "D#4",
            "ticks": 40410,
            "time": 155.42292149999997,
            "velocity": 0.7244094488188977
          },
          {
            "duration": 0.3307689000000096,
            "durationTicks": 86,
            "midi": 65,
            "name": "F4",
            "ticks": 40500,
            "time": 155.76907499999996,
            "velocity": 0.7086614173228346
          },
          {
            "duration": 0.28076895000000945,
            "durationTicks": 73,
            "midi": 56,
            "name": "G#3",
            "ticks": 40500,
            "time": 155.76907499999996,
            "velocity": 0.7322834645669292
          },
          {
            "duration": 0.21923055000002023,
            "durationTicks": 57,
            "midi": 61,
            "name": "C#4",
            "ticks": 40500,
            "time": 155.76907499999996,
            "velocity": 0.8661417322834646
          },
          {
            "duration": 0.21923055000002023,
            "durationTicks": 57,
            "midi": 49,
            "name": "C#3",
            "ticks": 40500,
            "time": 155.76907499999996,
            "velocity": 0.8661417322834646
          },
          {
            "duration": 0.1884613500000114,
            "durationTicks": 49,
            "midi": 49,
            "name": "C#3",
            "ticks": 40620,
            "time": 156.23061299999998,
            "velocity": 0.8110236220472441
          },
          {
            "duration": 0.26923049999999193,
            "durationTicks": 70,
            "midi": 65,
            "name": "F4",
            "ticks": 40620,
            "time": 156.23061299999998,
            "velocity": 0.6692913385826772
          },
          {
            "duration": 0.1999998000000005,
            "durationTicks": 52,
            "midi": 61,
            "name": "C#4",
            "ticks": 40620,
            "time": 156.23061299999998,
            "velocity": 0.8661417322834646
          },
          {
            "duration": 0.25769205000000284,
            "durationTicks": 67,
            "midi": 56,
            "name": "G#3",
            "ticks": 40620,
            "time": 156.23061299999998,
            "velocity": 0.7322834645669292
          },
          {
            "duration": 0.07307685000003517,
            "durationTicks": 19,
            "midi": 56,
            "name": "G#3",
            "ticks": 40710,
            "time": 156.57676649999996,
            "velocity": 0.6062992125984252
          },
          {
            "duration": 0.09230759999999805,
            "durationTicks": 24,
            "midi": 61,
            "name": "C#4",
            "ticks": 40710,
            "time": 156.57676649999996,
            "velocity": 0.7874015748031497
          },
          {
            "duration": 0.11923065000001998,
            "durationTicks": 31,
            "midi": 65,
            "name": "F4",
            "ticks": 40710,
            "time": 156.57676649999996,
            "velocity": 0.6929133858267716
          },
          {
            "duration": 0.26923049999999193,
            "durationTicks": 70,
            "midi": 49,
            "name": "C#3",
            "ticks": 40710,
            "time": 156.57676649999996,
            "velocity": 0.8267716535433071
          },
          {
            "duration": 0.22307670000000712,
            "durationTicks": 58,
            "midi": 68,
            "name": "G#4",
            "ticks": 40800,
            "time": 156.92291999999998,
            "velocity": 0.1968503937007874
          },
          {
            "duration": 0.2038459499999874,
            "durationTicks": 53,
            "midi": 60,
            "name": "C4",
            "ticks": 40800,
            "time": 156.92291999999998,
            "velocity": 0.8661417322834646
          },
          {
            "duration": 0.24615360000001374,
            "durationTicks": 64,
            "midi": 65,
            "name": "F4",
            "ticks": 40800,
            "time": 156.92291999999998,
            "velocity": 0.7244094488188977
          },
          {
            "duration": 0.1884613500000114,
            "durationTicks": 49,
            "midi": 53,
            "name": "F3",
            "ticks": 40800,
            "time": 156.92291999999998,
            "velocity": 0.6456692913385826
          },
          {
            "duration": 0.23461514999999622,
            "durationTicks": 61,
            "midi": 65,
            "name": "F4",
            "ticks": 40890,
            "time": 157.26907349999996,
            "velocity": 0.7480314960629921
          },
          {
            "duration": 0.24230744999999843,
            "durationTicks": 63,
            "midi": 68,
            "name": "G#4",
            "ticks": 40890,
            "time": 157.26907349999996,
            "velocity": 0.6220472440944882
          },
          {
            "duration": 0.173076750000007,
            "durationTicks": 45,
            "midi": 60,
            "name": "C4",
            "ticks": 40890,
            "time": 157.26907349999996,
            "velocity": 0.889763779527559
          },
          {
            "duration": 0.2115382499999896,
            "durationTicks": 55,
            "midi": 53,
            "name": "F3",
            "ticks": 40890,
            "time": 157.26907349999996,
            "velocity": 0.6456692913385826
          },
          {
            "duration": 0.26153819999998973,
            "durationTicks": 68,
            "midi": 53,
            "name": "F3",
            "ticks": 40980,
            "time": 157.61522699999998,
            "velocity": 0.5748031496062992
          },
          {
            "duration": 0.28461509999999635,
            "durationTicks": 74,
            "midi": 68,
            "name": "G#4",
            "ticks": 40980,
            "time": 157.61522699999998,
            "velocity": 0.5590551181102362
          },
          {
            "duration": 0.2653843499999766,
            "durationTicks": 69,
            "midi": 65,
            "name": "F4",
            "ticks": 40980,
            "time": 157.61522699999998,
            "velocity": 0.7480314960629921
          },
          {
            "duration": 0.21923055000002023,
            "durationTicks": 57,
            "midi": 60,
            "name": "C4",
            "ticks": 40980,
            "time": 157.61522699999998,
            "velocity": 0.905511811023622
          },
          {
            "duration": 0.28846125000001166,
            "durationTicks": 75,
            "midi": 68,
            "name": "G#4",
            "ticks": 41100,
            "time": 158.07676499999997,
            "velocity": 0.5433070866141733
          },
          {
            "duration": 0.24615360000001374,
            "durationTicks": 64,
            "midi": 65,
            "name": "F4",
            "ticks": 41100,
            "time": 158.07676499999997,
            "velocity": 0.7086614173228346
          },
          {
            "duration": 0.2115382499999896,
            "durationTicks": 55,
            "midi": 60,
            "name": "C4",
            "ticks": 41100,
            "time": 158.07676499999997,
            "velocity": 0.905511811023622
          },
          {
            "duration": 0.22692285000002244,
            "durationTicks": 59,
            "midi": 53,
            "name": "F3",
            "ticks": 41100,
            "time": 158.07676499999997,
            "velocity": 0.6220472440944882
          },
          {
            "duration": 0.09615374999998494,
            "durationTicks": 25,
            "midi": 68,
            "name": "G#4",
            "ticks": 41190,
            "time": 158.42291849999998,
            "velocity": 0.4881889763779528
          },
          {
            "duration": 0.15769214999997416,
            "durationTicks": 41,
            "midi": 65,
            "name": "F4",
            "ticks": 41190,
            "time": 158.42291849999998,
            "velocity": 0.7480314960629921
          },
          {
            "duration": 0.13076910000000908,
            "durationTicks": 34,
            "midi": 60,
            "name": "C4",
            "ticks": 41190,
            "time": 158.42291849999998,
            "velocity": 0.905511811023622
          },
          {
            "duration": 0.1884613500000114,
            "durationTicks": 49,
            "midi": 53,
            "name": "F3",
            "ticks": 41190,
            "time": 158.42291849999998,
            "velocity": 0.6299212598425197
          },
          {
            "duration": 0.2192305499999918,
            "durationTicks": 57,
            "midi": 53,
            "name": "F3",
            "ticks": 41760,
            "time": 160.61522399999998,
            "velocity": 0.5748031496062992
          },
          {
            "duration": 0.22692284999999401,
            "durationTicks": 59,
            "midi": 68,
            "name": "G#4",
            "ticks": 41760,
            "time": 160.61522399999998,
            "velocity": 0.5511811023622047
          },
          {
            "duration": 0.2192305499999918,
            "durationTicks": 57,
            "midi": 65,
            "name": "F4",
            "ticks": 41760,
            "time": 160.61522399999998,
            "velocity": 0.7322834645669292
          },
          {
            "duration": 0.18076904999998078,
            "durationTicks": 47,
            "midi": 60,
            "name": "C4",
            "ticks": 41760,
            "time": 160.61522399999998,
            "velocity": 0.8031496062992126
          },
          {
            "duration": 0.2115382499999896,
            "durationTicks": 55,
            "midi": 65,
            "name": "F4",
            "ticks": 41850,
            "time": 160.96137749999997,
            "velocity": 0.7637795275590551
          },
          {
            "duration": 0.21923055000002023,
            "durationTicks": 57,
            "midi": 68,
            "name": "G#4",
            "ticks": 41850,
            "time": 160.96137749999997,
            "velocity": 0.5669291338582677
          },
          {
            "duration": 0.1653844500000048,
            "durationTicks": 43,
            "midi": 60,
            "name": "C4",
            "ticks": 41850,
            "time": 160.96137749999997,
            "velocity": 0.889763779527559
          },
          {
            "duration": 0.2076921000000027,
            "durationTicks": 54,
            "midi": 53,
            "name": "F3",
            "ticks": 41850,
            "time": 160.96137749999997,
            "velocity": 0.5669291338582677
          },
          {
            "duration": 0.24999975000000063,
            "durationTicks": 65,
            "midi": 65,
            "name": "F4",
            "ticks": 41940,
            "time": 161.30753099999998,
            "velocity": 0.7322834645669292
          },
          {
            "duration": 0.26153819999998973,
            "durationTicks": 68,
            "midi": 68,
            "name": "G#4",
            "ticks": 41940,
            "time": 161.30753099999998,
            "velocity": 0.5590551181102362
          },
          {
            "duration": 0.24999975000000063,
            "durationTicks": 65,
            "midi": 53,
            "name": "F3",
            "ticks": 41940,
            "time": 161.30753099999998,
            "velocity": 0.6062992125984252
          },
          {
            "duration": 0.2038459499999874,
            "durationTicks": 53,
            "midi": 60,
            "name": "C4",
            "ticks": 41940,
            "time": 161.30753099999998,
            "velocity": 0.8661417322834646
          },
          {
            "duration": 0.25769205000000284,
            "durationTicks": 67,
            "midi": 65,
            "name": "F4",
            "ticks": 42060,
            "time": 161.76906899999997,
            "velocity": 0.7322834645669292
          },
          {
            "duration": 0.27692280000002256,
            "durationTicks": 72,
            "midi": 68,
            "name": "G#4",
            "ticks": 42060,
            "time": 161.76906899999997,
            "velocity": 0.5669291338582677
          },
          {
            "duration": 0.2153843999999765,
            "durationTicks": 56,
            "midi": 60,
            "name": "C4",
            "ticks": 42060,
            "time": 161.76906899999997,
            "velocity": 0.8582677165354331
          },
          {
            "duration": 0.24999975000000063,
            "durationTicks": 65,
            "midi": 53,
            "name": "F3",
            "ticks": 42060,
            "time": 161.76906899999997,
            "velocity": 0.5984251968503937
          },
          {
            "duration": 0.11923065000001998,
            "durationTicks": 31,
            "midi": 68,
            "name": "G#4",
            "ticks": 42150,
            "time": 162.11522249999996,
            "velocity": 0.5905511811023622
          },
          {
            "duration": 0.1807690500000092,
            "durationTicks": 47,
            "midi": 65,
            "name": "F4",
            "ticks": 42150,
            "time": 162.11522249999996,
            "velocity": 0.7322834645669292
          },
          {
            "duration": 0.12307680000000687,
            "durationTicks": 32,
            "midi": 60,
            "name": "C4",
            "ticks": 42150,
            "time": 162.11522249999996,
            "velocity": 0.9291338582677166
          },
          {
            "duration": 0.21538440000000492,
            "durationTicks": 56,
            "midi": 53,
            "name": "F3",
            "ticks": 42150,
            "time": 162.11522249999996,
            "velocity": 0.6456692913385826
          },
          {
            "duration": 0.24615360000001374,
            "durationTicks": 64,
            "midi": 67,
            "name": "G4",
            "ticks": 42240,
            "time": 162.46137599999997,
            "velocity": 0.5669291338582677
          },
          {
            "duration": 0.22692284999999401,
            "durationTicks": 59,
            "midi": 63,
            "name": "D#4",
            "ticks": 42240,
            "time": 162.46137599999997,
            "velocity": 0.7244094488188977
          },
          {
            "duration": 0.2038459499999874,
            "durationTicks": 53,
            "midi": 58,
            "name": "A#3",
            "ticks": 42240,
            "time": 162.46137599999997,
            "velocity": 0.8031496062992126
          },
          {
            "duration": 0.1653844500000048,
            "durationTicks": 43,
            "midi": 51,
            "name": "D#3",
            "ticks": 42240,
            "time": 162.46137599999997,
            "velocity": 0.7244094488188977
          },
          {
            "duration": 0.26153820000001815,
            "durationTicks": 68,
            "midi": 51,
            "name": "D#3",
            "ticks": 42330,
            "time": 162.80752949999996,
            "velocity": 0.6377952755905512
          },
          {
            "duration": 0.11153835000001777,
            "durationTicks": 29,
            "midi": 67,
            "name": "G4",
            "ticks": 42330,
            "time": 162.80752949999996,
            "velocity": 0.6062992125984252
          },
          {
            "duration": 0.11923065000001998,
            "durationTicks": 31,
            "midi": 63,
            "name": "D#4",
            "ticks": 42330,
            "time": 162.80752949999996,
            "velocity": 0.7086614173228346
          },
          {
            "duration": 0.1846151999999961,
            "durationTicks": 48,
            "midi": 58,
            "name": "A#3",
            "ticks": 42330,
            "time": 162.80752949999996,
            "velocity": 0.7480314960629921
          },
          {
            "duration": 0.28846125000001166,
            "durationTicks": 75,
            "midi": 65,
            "name": "F4",
            "ticks": 42420,
            "time": 163.15368299999997,
            "velocity": 0.7007874015748031
          },
          {
            "duration": 0.28076895000000945,
            "durationTicks": 73,
            "midi": 56,
            "name": "G#3",
            "ticks": 42420,
            "time": 163.15368299999997,
            "velocity": 0.6929133858267716
          },
          {
            "duration": 0.1923074999999983,
            "durationTicks": 50,
            "midi": 61,
            "name": "C#4",
            "ticks": 42420,
            "time": 163.15368299999997,
            "velocity": 0.7874015748031497
          },
          {
            "duration": 0.21923055000002023,
            "durationTicks": 57,
            "midi": 49,
            "name": "C#3",
            "ticks": 42420,
            "time": 163.15368299999997,
            "velocity": 0.6614173228346457
          },
          {
            "duration": 0.28076895000000945,
            "durationTicks": 73,
            "midi": 65,
            "name": "F4",
            "ticks": 42540,
            "time": 163.61522099999996,
            "velocity": 0.6771653543307087
          },
          {
            "duration": 0.1961536500000136,
            "durationTicks": 51,
            "midi": 49,
            "name": "C#3",
            "ticks": 42540,
            "time": 163.61522099999996,
            "velocity": 0.8582677165354331
          },
          {
            "duration": 0.27307665000000725,
            "durationTicks": 71,
            "midi": 56,
            "name": "G#3",
            "ticks": 42540,
            "time": 163.61522099999996,
            "velocity": 0.6771653543307087
          },
          {
            "duration": 0.1769228999999939,
            "durationTicks": 46,
            "midi": 61,
            "name": "C#4",
            "ticks": 42540,
            "time": 163.61522099999996,
            "velocity": 0.7874015748031497
          },
          {
            "duration": 0.12307679999997845,
            "durationTicks": 32,
            "midi": 65,
            "name": "F4",
            "ticks": 42630,
            "time": 163.96137449999998,
            "velocity": 0.6771653543307087
          },
          {
            "duration": 0.14230754999999817,
            "durationTicks": 37,
            "midi": 61,
            "name": "C#4",
            "ticks": 42630,
            "time": 163.96137449999998,
            "velocity": 0.7874015748031497
          },
          {
            "duration": 0.06923069999999143,
            "durationTicks": 18,
            "midi": 56,
            "name": "G#3",
            "ticks": 42630,
            "time": 163.96137449999998,
            "velocity": 0.5275590551181102
          },
          {
            "duration": 0.22307670000000712,
            "durationTicks": 58,
            "midi": 49,
            "name": "C#3",
            "ticks": 42630,
            "time": 163.96137449999998,
            "velocity": 0.8267716535433071
          },
          {
            "duration": 0.22307670000000712,
            "durationTicks": 58,
            "midi": 68,
            "name": "G#4",
            "ticks": 42720,
            "time": 164.30752799999996,
            "velocity": 0.49606299212598426
          },
          {
            "duration": 0.173076750000007,
            "durationTicks": 45,
            "midi": 60,
            "name": "C4",
            "ticks": 42720,
            "time": 164.30752799999996,
            "velocity": 0.8661417322834646
          },
          {
            "duration": 0.21538440000000492,
            "durationTicks": 56,
            "midi": 65,
            "name": "F4",
            "ticks": 42720,
            "time": 164.30752799999996,
            "velocity": 0.6456692913385826
          },
          {
            "duration": 0.23076900000000933,
            "durationTicks": 60,
            "midi": 53,
            "name": "F3",
            "ticks": 42720,
            "time": 164.30752799999996,
            "velocity": 0.6220472440944882
          },
          {
            "duration": 0.23461514999999622,
            "durationTicks": 61,
            "midi": 68,
            "name": "G#4",
            "ticks": 42810,
            "time": 164.65368149999998,
            "velocity": 0.5669291338582677
          },
          {
            "duration": 0.2153843999999765,
            "durationTicks": 56,
            "midi": 65,
            "name": "F4",
            "ticks": 42810,
            "time": 164.65368149999998,
            "velocity": 0.7480314960629921
          },
          {
            "duration": 0.173076750000007,
            "durationTicks": 45,
            "midi": 60,
            "name": "C4",
            "ticks": 42810,
            "time": 164.65368149999998,
            "velocity": 0.8346456692913385
          },
          {
            "duration": 0.2076921000000027,
            "durationTicks": 54,
            "midi": 53,
            "name": "F3",
            "ticks": 42810,
            "time": 164.65368149999998,
            "velocity": 0.6062992125984252
          },
          {
            "duration": 0.29999970000000076,
            "durationTicks": 78,
            "midi": 68,
            "name": "G#4",
            "ticks": 42900,
            "time": 164.99983499999996,
            "velocity": 0.6062992125984252
          },
          {
            "duration": 0.24999975000002905,
            "durationTicks": 65,
            "midi": 65,
            "name": "F4",
            "ticks": 42900,
            "time": 164.99983499999996,
            "velocity": 0.7322834645669292
          },
          {
            "duration": 0.21538440000000492,
            "durationTicks": 56,
            "midi": 60,
            "name": "C4",
            "ticks": 42900,
            "time": 164.99983499999996,
            "velocity": 0.8661417322834646
          },
          {
            "duration": 0.23076900000000933,
            "durationTicks": 60,
            "midi": 53,
            "name": "F3",
            "ticks": 42900,
            "time": 164.99983499999996,
            "velocity": 0.6299212598425197
          },
          {
            "duration": 0.2653843499999766,
            "durationTicks": 69,
            "midi": 68,
            "name": "G#4",
            "ticks": 43020,
            "time": 165.46137299999998,
            "velocity": 0.5511811023622047
          },
          {
            "duration": 0.23461514999999622,
            "durationTicks": 61,
            "midi": 65,
            "name": "F4",
            "ticks": 43020,
            "time": 165.46137299999998,
            "velocity": 0.6929133858267716
          },
          {
            "duration": 0.1961536499999852,
            "durationTicks": 51,
            "midi": 60,
            "name": "C4",
            "ticks": 43020,
            "time": 165.46137299999998,
            "velocity": 0.889763779527559
          },
          {
            "duration": 0.1961536499999852,
            "durationTicks": 51,
            "midi": 53,
            "name": "F3",
            "ticks": 43020,
            "time": 165.46137299999998,
            "velocity": 0.6377952755905512
          },
          {
            "duration": 0.10384605000001557,
            "durationTicks": 27,
            "midi": 68,
            "name": "G#4",
            "ticks": 43110,
            "time": 165.80752649999997,
            "velocity": 0.5196850393700787
          },
          {
            "duration": 0.173076750000007,
            "durationTicks": 45,
            "midi": 65,
            "name": "F4",
            "ticks": 43110,
            "time": 165.80752649999997,
            "velocity": 0.7637795275590551
          },
          {
            "duration": 0.11923064999999156,
            "durationTicks": 31,
            "midi": 60,
            "name": "C4",
            "ticks": 43110,
            "time": 165.80752649999997,
            "velocity": 0.905511811023622
          },
          {
            "duration": 0.2115382499999896,
            "durationTicks": 55,
            "midi": 53,
            "name": "F3",
            "ticks": 43110,
            "time": 165.80752649999997,
            "velocity": 0.6456692913385826
          },
          {
            "duration": 0.2038459499999874,
            "durationTicks": 53,
            "midi": 63,
            "name": "D#4",
            "ticks": 43200,
            "time": 166.15367999999998,
            "velocity": 0.7480314960629921
          },
          {
            "duration": 0.24615360000001374,
            "durationTicks": 64,
            "midi": 67,
            "name": "G4",
            "ticks": 43200,
            "time": 166.15367999999998,
            "velocity": 0.5905511811023622
          },
          {
            "duration": 0.1923074999999983,
            "durationTicks": 50,
            "midi": 58,
            "name": "A#3",
            "ticks": 43200,
            "time": 166.15367999999998,
            "velocity": 0.7874015748031497
          },
          {
            "duration": 0.1923074999999983,
            "durationTicks": 50,
            "midi": 51,
            "name": "D#3",
            "ticks": 43200,
            "time": 166.15367999999998,
            "velocity": 0.7086614173228346
          },
          {
            "duration": 0.11538450000000466,
            "durationTicks": 30,
            "midi": 67,
            "name": "G4",
            "ticks": 43290,
            "time": 166.49983349999997,
            "velocity": 0.5748031496062992
          },
          {
            "duration": 0.12692294999999376,
            "durationTicks": 33,
            "midi": 63,
            "name": "D#4",
            "ticks": 43290,
            "time": 166.49983349999997,
            "velocity": 0.7086614173228346
          },
          {
            "duration": 0.21538440000000492,
            "durationTicks": 56,
            "midi": 58,
            "name": "A#3",
            "ticks": 43290,
            "time": 166.49983349999997,
            "velocity": 0.7244094488188977
          },
          {
            "duration": 0.26923049999999193,
            "durationTicks": 70,
            "midi": 51,
            "name": "D#3",
            "ticks": 43290,
            "time": 166.49983349999997,
            "velocity": 0.7007874015748031
          },
          {
            "duration": 0.24999975000000063,
            "durationTicks": 65,
            "midi": 65,
            "name": "F4",
            "ticks": 43380,
            "time": 166.84598699999998,
            "velocity": 0.7007874015748031
          },
          {
            "duration": 0.26153819999998973,
            "durationTicks": 68,
            "midi": 56,
            "name": "G#3",
            "ticks": 43380,
            "time": 166.84598699999998,
            "velocity": 0.7007874015748031
          },
          {
            "duration": 0.2115382499999896,
            "durationTicks": 55,
            "midi": 61,
            "name": "C#4",
            "ticks": 43380,
            "time": 166.84598699999998,
            "velocity": 0.7874015748031497
          },
          {
            "duration": 0.2038459499999874,
            "durationTicks": 53,
            "midi": 49,
            "name": "C#3",
            "ticks": 43380,
            "time": 166.84598699999998,
            "velocity": 0.8346456692913385
          },
          {
            "duration": 0.28076895000000945,
            "durationTicks": 73,
            "midi": 65,
            "name": "F4",
            "ticks": 43500,
            "time": 167.30752499999997,
            "velocity": 0.6614173228346457
          },
          {
            "duration": 0.25769205000000284,
            "durationTicks": 67,
            "midi": 56,
            "name": "G#3",
            "ticks": 43500,
            "time": 167.30752499999997,
            "velocity": 0.7007874015748031
          },
          {
            "duration": 0.2038459499999874,
            "durationTicks": 53,
            "midi": 61,
            "name": "C#4",
            "ticks": 43500,
            "time": 167.30752499999997,
            "velocity": 0.7874015748031497
          },
          {
            "duration": 0.23076900000000933,
            "durationTicks": 60,
            "midi": 49,
            "name": "C#3",
            "ticks": 43500,
            "time": 167.30752499999997,
            "velocity": 0.8346456692913385
          },
          {
            "duration": 0.12692294999996534,
            "durationTicks": 33,
            "midi": 56,
            "name": "G#3",
            "ticks": 43590,
            "time": 167.65367849999998,
            "velocity": 0.5905511811023622
          },
          {
            "duration": 0.12692294999996534,
            "durationTicks": 33,
            "midi": 65,
            "name": "F4",
            "ticks": 43590,
            "time": 167.65367849999998,
            "velocity": 0.6456692913385826
          },
          {
            "duration": 0.10769220000000246,
            "durationTicks": 28,
            "midi": 49,
            "name": "C#3",
            "ticks": 43590,
            "time": 167.65367849999998,
            "velocity": 0.8346456692913385
          },
          {
            "duration": 0.11538449999997624,
            "durationTicks": 30,
            "midi": 61,
            "name": "C#4",
            "ticks": 43590,
            "time": 167.65367849999998,
            "velocity": 0.7874015748031497
          },
          {
            "duration": 0.21923055000002023,
            "durationTicks": 57,
            "midi": 53,
            "name": "F3",
            "ticks": 43680,
            "time": 167.99983199999997,
            "velocity": 0.5748031496062992
          },
          {
            "duration": 0.22692284999999401,
            "durationTicks": 59,
            "midi": 68,
            "name": "G#4",
            "ticks": 43680,
            "time": 167.99983199999997,
            "velocity": 0.5511811023622047
          },
          {
            "duration": 0.21923055000002023,
            "durationTicks": 57,
            "midi": 65,
            "name": "F4",
            "ticks": 43680,
            "time": 167.99983199999997,
            "velocity": 0.7322834645669292
          },
          {
            "duration": 0.18076904999998078,
            "durationTicks": 47,
            "midi": 60,
            "name": "C4",
            "ticks": 43680,
            "time": 167.99983199999997,
            "velocity": 0.8031496062992126
          },
          {
            "duration": 0.2115382499999896,
            "durationTicks": 55,
            "midi": 65,
            "name": "F4",
            "ticks": 43770,
            "time": 168.34598549999998,
            "velocity": 0.7637795275590551
          },
          {
            "duration": 0.2192305499999918,
            "durationTicks": 57,
            "midi": 68,
            "name": "G#4",
            "ticks": 43770,
            "time": 168.34598549999998,
            "velocity": 0.5669291338582677
          },
          {
            "duration": 0.1653844500000048,
            "durationTicks": 43,
            "midi": 60,
            "name": "C4",
            "ticks": 43770,
            "time": 168.34598549999998,
            "velocity": 0.889763779527559
          },
          {
            "duration": 0.2076920999999743,
            "durationTicks": 54,
            "midi": 53,
            "name": "F3",
            "ticks": 43770,
            "time": 168.34598549999998,
            "velocity": 0.5669291338582677
          },
          {
            "duration": 0.24999975000000063,
            "durationTicks": 65,
            "midi": 65,
            "name": "F4",
            "ticks": 43860,
            "time": 168.69213899999997,
            "velocity": 0.7322834645669292
          },
          {
            "duration": 0.26153819999998973,
            "durationTicks": 68,
            "midi": 68,
            "name": "G#4",
            "ticks": 43860,
            "time": 168.69213899999997,
            "velocity": 0.5590551181102362
          },
          {
            "duration": 0.24999975000000063,
            "durationTicks": 65,
            "midi": 53,
            "name": "F3",
            "ticks": 43860,
            "time": 168.69213899999997,
            "velocity": 0.6062992125984252
          },
          {
            "duration": 0.2038459499999874,
            "durationTicks": 53,
            "midi": 60,
            "name": "C4",
            "ticks": 43860,
            "time": 168.69213899999997,
            "velocity": 0.8661417322834646
          },
          {
            "duration": 0.25769205000000284,
            "durationTicks": 67,
            "midi": 65,
            "name": "F4",
            "ticks": 43980,
            "time": 169.15367699999996,
            "velocity": 0.7322834645669292
          },
          {
            "duration": 0.27692280000002256,
            "durationTicks": 72,
            "midi": 68,
            "name": "G#4",
            "ticks": 43980,
            "time": 169.15367699999996,
            "velocity": 0.5669291338582677
          },
          {
            "duration": 0.21538440000000492,
            "durationTicks": 56,
            "midi": 60,
            "name": "C4",
            "ticks": 43980,
            "time": 169.15367699999996,
            "velocity": 0.8582677165354331
          },
          {
            "duration": 0.24999975000002905,
            "durationTicks": 65,
            "midi": 53,
            "name": "F3",
            "ticks": 43980,
            "time": 169.15367699999996,
            "velocity": 0.5984251968503937
          },
          {
            "duration": 0.11923064999999156,
            "durationTicks": 31,
            "midi": 68,
            "name": "G#4",
            "ticks": 44070,
            "time": 169.49983049999997,
            "velocity": 0.5905511811023622
          },
          {
            "duration": 0.18076904999998078,
            "durationTicks": 47,
            "midi": 65,
            "name": "F4",
            "ticks": 44070,
            "time": 169.49983049999997,
            "velocity": 0.7322834645669292
          },
          {
            "duration": 0.12307679999997845,
            "durationTicks": 32,
            "midi": 60,
            "name": "C4",
            "ticks": 44070,
            "time": 169.49983049999997,
            "velocity": 0.9291338582677166
          },
          {
            "duration": 0.2153843999999765,
            "durationTicks": 56,
            "midi": 53,
            "name": "F3",
            "ticks": 44070,
            "time": 169.49983049999997,
            "velocity": 0.6456692913385826
          },
          {
            "duration": 0.24615360000001374,
            "durationTicks": 64,
            "midi": 67,
            "name": "G4",
            "ticks": 44160,
            "time": 169.84598399999996,
            "velocity": 0.5669291338582677
          },
          {
            "duration": 0.22692285000002244,
            "durationTicks": 59,
            "midi": 63,
            "name": "D#4",
            "ticks": 44160,
            "time": 169.84598399999996,
            "velocity": 0.7244094488188977
          },
          {
            "duration": 0.20384595000001582,
            "durationTicks": 53,
            "midi": 58,
            "name": "A#3",
            "ticks": 44160,
            "time": 169.84598399999996,
            "velocity": 0.8031496062992126
          },
          {
            "duration": 0.1653844500000048,
            "durationTicks": 43,
            "midi": 51,
            "name": "D#3",
            "ticks": 44160,
            "time": 169.84598399999996,
            "velocity": 0.7244094488188977
          },
          {
            "duration": 0.26153819999998973,
            "durationTicks": 68,
            "midi": 51,
            "name": "D#3",
            "ticks": 44250,
            "time": 170.19213749999997,
            "velocity": 0.6377952755905512
          },
          {
            "duration": 0.11153834999998935,
            "durationTicks": 29,
            "midi": 67,
            "name": "G4",
            "ticks": 44250,
            "time": 170.19213749999997,
            "velocity": 0.6062992125984252
          },
          {
            "duration": 0.11923064999999156,
            "durationTicks": 31,
            "midi": 63,
            "name": "D#4",
            "ticks": 44250,
            "time": 170.19213749999997,
            "velocity": 0.7086614173228346
          },
          {
            "duration": 0.1846151999999961,
            "durationTicks": 48,
            "midi": 58,
            "name": "A#3",
            "ticks": 44250,
            "time": 170.19213749999997,
            "velocity": 0.7480314960629921
          },
          {
            "duration": 0.28846125000001166,
            "durationTicks": 75,
            "midi": 65,
            "name": "F4",
            "ticks": 44340,
            "time": 170.53829099999996,
            "velocity": 0.7007874015748031
          },
          {
            "duration": 0.28076895000000945,
            "durationTicks": 73,
            "midi": 56,
            "name": "G#3",
            "ticks": 44340,
            "time": 170.53829099999996,
            "velocity": 0.6929133858267716
          },
          {
            "duration": 0.19230750000002672,
            "durationTicks": 50,
            "midi": 61,
            "name": "C#4",
            "ticks": 44340,
            "time": 170.53829099999996,
            "velocity": 0.7874015748031497
          },
          {
            "duration": 0.21923055000002023,
            "durationTicks": 57,
            "midi": 49,
            "name": "C#3",
            "ticks": 44340,
            "time": 170.53829099999996,
            "velocity": 0.6614173228346457
          },
          {
            "duration": 0.28076895000000945,
            "durationTicks": 73,
            "midi": 65,
            "name": "F4",
            "ticks": 44460,
            "time": 170.99982899999998,
            "velocity": 0.6771653543307087
          },
          {
            "duration": 0.1961536499999852,
            "durationTicks": 51,
            "midi": 49,
            "name": "C#3",
            "ticks": 44460,
            "time": 170.99982899999998,
            "velocity": 0.8582677165354331
          },
          {
            "duration": 0.2730766499999788,
            "durationTicks": 71,
            "midi": 56,
            "name": "G#3",
            "ticks": 44460,
            "time": 170.99982899999998,
            "velocity": 0.6771653543307087
          },
          {
            "duration": 0.1769228999999939,
            "durationTicks": 46,
            "midi": 61,
            "name": "C#4",
            "ticks": 44460,
            "time": 170.99982899999998,
            "velocity": 0.7874015748031497
          },
          {
            "duration": 0.12307680000000687,
            "durationTicks": 32,
            "midi": 65,
            "name": "F4",
            "ticks": 44550,
            "time": 171.34598249999996,
            "velocity": 0.6771653543307087
          },
          {
            "duration": 0.14230754999999817,
            "durationTicks": 37,
            "midi": 61,
            "name": "C#4",
            "ticks": 44550,
            "time": 171.34598249999996,
            "velocity": 0.7874015748031497
          },
          {
            "duration": 0.06923069999999143,
            "durationTicks": 18,
            "midi": 56,
            "name": "G#3",
            "ticks": 44550,
            "time": 171.34598249999996,
            "velocity": 0.5275590551181102
          },
          {
            "duration": 0.22307670000000712,
            "durationTicks": 58,
            "midi": 49,
            "name": "C#3",
            "ticks": 44550,
            "time": 171.34598249999996,
            "velocity": 0.8267716535433071
          },
          {
            "duration": 0.22307670000000712,
            "durationTicks": 58,
            "midi": 68,
            "name": "G#4",
            "ticks": 44640,
            "time": 171.69213599999998,
            "velocity": 0.49606299212598426
          },
          {
            "duration": 0.173076750000007,
            "durationTicks": 45,
            "midi": 60,
            "name": "C4",
            "ticks": 44640,
            "time": 171.69213599999998,
            "velocity": 0.8661417322834646
          },
          {
            "duration": 0.2153843999999765,
            "durationTicks": 56,
            "midi": 65,
            "name": "F4",
            "ticks": 44640,
            "time": 171.69213599999998,
            "velocity": 0.6456692913385826
          },
          {
            "duration": 0.2307689999999809,
            "durationTicks": 60,
            "midi": 53,
            "name": "F3",
            "ticks": 44640,
            "time": 171.69213599999998,
            "velocity": 0.6220472440944882
          },
          {
            "duration": 0.23461514999999622,
            "durationTicks": 61,
            "midi": 68,
            "name": "G#4",
            "ticks": 44730,
            "time": 172.03828949999996,
            "velocity": 0.5669291338582677
          },
          {
            "duration": 0.21538440000000492,
            "durationTicks": 56,
            "midi": 65,
            "name": "F4",
            "ticks": 44730,
            "time": 172.03828949999996,
            "velocity": 0.7480314960629921
          },
          {
            "duration": 0.173076750000007,
            "durationTicks": 45,
            "midi": 60,
            "name": "C4",
            "ticks": 44730,
            "time": 172.03828949999996,
            "velocity": 0.8346456692913385
          },
          {
            "duration": 0.2076921000000027,
            "durationTicks": 54,
            "midi": 53,
            "name": "F3",
            "ticks": 44730,
            "time": 172.03828949999996,
            "velocity": 0.6062992125984252
          },
          {
            "duration": 0.29999969999997234,
            "durationTicks": 78,
            "midi": 68,
            "name": "G#4",
            "ticks": 44820,
            "time": 172.38444299999998,
            "velocity": 0.6062992125984252
          },
          {
            "duration": 0.24999975000000063,
            "durationTicks": 65,
            "midi": 65,
            "name": "F4",
            "ticks": 44820,
            "time": 172.38444299999998,
            "velocity": 0.7322834645669292
          },
          {
            "duration": 0.2153843999999765,
            "durationTicks": 56,
            "midi": 60,
            "name": "C4",
            "ticks": 44820,
            "time": 172.38444299999998,
            "velocity": 0.8661417322834646
          },
          {
            "duration": 0.2307689999999809,
            "durationTicks": 60,
            "midi": 53,
            "name": "F3",
            "ticks": 44820,
            "time": 172.38444299999998,
            "velocity": 0.6299212598425197
          },
          {
            "duration": 0.26538435000000504,
            "durationTicks": 69,
            "midi": 68,
            "name": "G#4",
            "ticks": 44940,
            "time": 172.84598099999997,
            "velocity": 0.5511811023622047
          },
          {
            "duration": 0.23461514999999622,
            "durationTicks": 61,
            "midi": 65,
            "name": "F4",
            "ticks": 44940,
            "time": 172.84598099999997,
            "velocity": 0.6929133858267716
          },
          {
            "duration": 0.1961536500000136,
            "durationTicks": 51,
            "midi": 60,
            "name": "C4",
            "ticks": 44940,
            "time": 172.84598099999997,
            "velocity": 0.889763779527559
          },
          {
            "duration": 0.1961536500000136,
            "durationTicks": 51,
            "midi": 53,
            "name": "F3",
            "ticks": 44940,
            "time": 172.84598099999997,
            "velocity": 0.6377952755905512
          },
          {
            "duration": 0.10384604999998714,
            "durationTicks": 27,
            "midi": 68,
            "name": "G#4",
            "ticks": 45030,
            "time": 173.19213449999998,
            "velocity": 0.5196850393700787
          },
          {
            "duration": 0.17307674999997857,
            "durationTicks": 45,
            "midi": 65,
            "name": "F4",
            "ticks": 45030,
            "time": 173.19213449999998,
            "velocity": 0.7637795275590551
          },
          {
            "duration": 0.11923064999999156,
            "durationTicks": 31,
            "midi": 60,
            "name": "C4",
            "ticks": 45030,
            "time": 173.19213449999998,
            "velocity": 0.905511811023622
          },
          {
            "duration": 0.2115382499999896,
            "durationTicks": 55,
            "midi": 53,
            "name": "F3",
            "ticks": 45030,
            "time": 173.19213449999998,
            "velocity": 0.6456692913385826
          },
          {
            "duration": 0.20384595000001582,
            "durationTicks": 53,
            "midi": 63,
            "name": "D#4",
            "ticks": 45120,
            "time": 173.53828799999997,
            "velocity": 0.7480314960629921
          },
          {
            "duration": 0.24615360000001374,
            "durationTicks": 64,
            "midi": 67,
            "name": "G4",
            "ticks": 45120,
            "time": 173.53828799999997,
            "velocity": 0.5905511811023622
          },
          {
            "duration": 0.19230750000002672,
            "durationTicks": 50,
            "midi": 58,
            "name": "A#3",
            "ticks": 45120,
            "time": 173.53828799999997,
            "velocity": 0.7874015748031497
          },
          {
            "duration": 0.19230750000002672,
            "durationTicks": 50,
            "midi": 51,
            "name": "D#3",
            "ticks": 45120,
            "time": 173.53828799999997,
            "velocity": 0.7086614173228346
          },
          {
            "duration": 0.11538449999997624,
            "durationTicks": 30,
            "midi": 67,
            "name": "G4",
            "ticks": 45210,
            "time": 173.88444149999998,
            "velocity": 0.5748031496062992
          },
          {
            "duration": 0.12692294999999376,
            "durationTicks": 33,
            "midi": 63,
            "name": "D#4",
            "ticks": 45210,
            "time": 173.88444149999998,
            "velocity": 0.7086614173228346
          },
          {
            "duration": 0.2153843999999765,
            "durationTicks": 56,
            "midi": 58,
            "name": "A#3",
            "ticks": 45210,
            "time": 173.88444149999998,
            "velocity": 0.7244094488188977
          },
          {
            "duration": 0.26923049999999193,
            "durationTicks": 70,
            "midi": 51,
            "name": "D#3",
            "ticks": 45210,
            "time": 173.88444149999998,
            "velocity": 0.7007874015748031
          },
          {
            "duration": 0.24999975000000063,
            "durationTicks": 65,
            "midi": 65,
            "name": "F4",
            "ticks": 45300,
            "time": 174.23059499999997,
            "velocity": 0.7007874015748031
          },
          {
            "duration": 0.26153819999998973,
            "durationTicks": 68,
            "midi": 56,
            "name": "G#3",
            "ticks": 45300,
            "time": 174.23059499999997,
            "velocity": 0.7007874015748031
          },
          {
            "duration": 0.2115382499999896,
            "durationTicks": 55,
            "midi": 61,
            "name": "C#4",
            "ticks": 45300,
            "time": 174.23059499999997,
            "velocity": 0.7874015748031497
          },
          {
            "duration": 0.20384595000001582,
            "durationTicks": 53,
            "midi": 49,
            "name": "C#3",
            "ticks": 45300,
            "time": 174.23059499999997,
            "velocity": 0.8346456692913385
          },
          {
            "duration": 0.28076894999998103,
            "durationTicks": 73,
            "midi": 65,
            "name": "F4",
            "ticks": 45420,
            "time": 174.69213299999998,
            "velocity": 0.6614173228346457
          },
          {
            "duration": 0.2576920499999744,
            "durationTicks": 67,
            "midi": 56,
            "name": "G#3",
            "ticks": 45420,
            "time": 174.69213299999998,
            "velocity": 0.7007874015748031
          },
          {
            "duration": 0.2038459499999874,
            "durationTicks": 53,
            "midi": 61,
            "name": "C#4",
            "ticks": 45420,
            "time": 174.69213299999998,
            "velocity": 0.7874015748031497
          },
          {
            "duration": 0.2307689999999809,
            "durationTicks": 60,
            "midi": 49,
            "name": "C#3",
            "ticks": 45420,
            "time": 174.69213299999998,
            "velocity": 0.8346456692913385
          },
          {
            "duration": 0.12692294999999376,
            "durationTicks": 33,
            "midi": 56,
            "name": "G#3",
            "ticks": 45510,
            "time": 175.03828649999997,
            "velocity": 0.5905511811023622
          },
          {
            "duration": 0.12692294999999376,
            "durationTicks": 33,
            "midi": 65,
            "name": "F4",
            "ticks": 45510,
            "time": 175.03828649999997,
            "velocity": 0.6456692913385826
          },
          {
            "duration": 0.10769220000000246,
            "durationTicks": 28,
            "midi": 49,
            "name": "C#3",
            "ticks": 45510,
            "time": 175.03828649999997,
            "velocity": 0.8346456692913385
          },
          {
            "duration": 0.11538450000000466,
            "durationTicks": 30,
            "midi": 61,
            "name": "C#4",
            "ticks": 45510,
            "time": 175.03828649999997,
            "velocity": 0.7874015748031497
          },
          {
            "duration": 0.2192305499999918,
            "durationTicks": 57,
            "midi": 53,
            "name": "F3",
            "ticks": 45600,
            "time": 175.38443999999998,
            "velocity": 0.5748031496062992
          },
          {
            "duration": 0.22692284999999401,
            "durationTicks": 59,
            "midi": 68,
            "name": "G#4",
            "ticks": 45600,
            "time": 175.38443999999998,
            "velocity": 0.5511811023622047
          },
          {
            "duration": 0.2192305499999918,
            "durationTicks": 57,
            "midi": 65,
            "name": "F4",
            "ticks": 45600,
            "time": 175.38443999999998,
            "velocity": 0.7322834645669292
          },
          {
            "duration": 0.18076904999998078,
            "durationTicks": 47,
            "midi": 60,
            "name": "C4",
            "ticks": 45600,
            "time": 175.38443999999998,
            "velocity": 0.8031496062992126
          },
          {
            "duration": 0.2115382499999896,
            "durationTicks": 55,
            "midi": 65,
            "name": "F4",
            "ticks": 45690,
            "time": 175.73059349999997,
            "velocity": 0.7637795275590551
          },
          {
            "duration": 0.21923055000002023,
            "durationTicks": 57,
            "midi": 68,
            "name": "G#4",
            "ticks": 45690,
            "time": 175.73059349999997,
            "velocity": 0.5669291338582677
          },
          {
            "duration": 0.1653844500000048,
            "durationTicks": 43,
            "midi": 60,
            "name": "C4",
            "ticks": 45690,
            "time": 175.73059349999997,
            "velocity": 0.889763779527559
          },
          {
            "duration": 0.2076921000000027,
            "durationTicks": 54,
            "midi": 53,
            "name": "F3",
            "ticks": 45690,
            "time": 175.73059349999997,
            "velocity": 0.5669291338582677
          },
          {
            "duration": 0.24999975000000063,
            "durationTicks": 65,
            "midi": 65,
            "name": "F4",
            "ticks": 45780,
            "time": 176.07674699999998,
            "velocity": 0.7322834645669292
          },
          {
            "duration": 0.26153819999998973,
            "durationTicks": 68,
            "midi": 68,
            "name": "G#4",
            "ticks": 45780,
            "time": 176.07674699999998,
            "velocity": 0.5590551181102362
          },
          {
            "duration": 0.24999975000000063,
            "durationTicks": 65,
            "midi": 53,
            "name": "F3",
            "ticks": 45780,
            "time": 176.07674699999998,
            "velocity": 0.6062992125984252
          },
          {
            "duration": 0.2038459499999874,
            "durationTicks": 53,
            "midi": 60,
            "name": "C4",
            "ticks": 45780,
            "time": 176.07674699999998,
            "velocity": 0.8661417322834646
          },
          {
            "duration": 0.25769205000000284,
            "durationTicks": 67,
            "midi": 65,
            "name": "F4",
            "ticks": 45900,
            "time": 176.53828499999997,
            "velocity": 0.7322834645669292
          },
          {
            "duration": 0.27692279999999414,
            "durationTicks": 72,
            "midi": 68,
            "name": "G#4",
            "ticks": 45900,
            "time": 176.53828499999997,
            "velocity": 0.5669291338582677
          },
          {
            "duration": 0.2153843999999765,
            "durationTicks": 56,
            "midi": 60,
            "name": "C4",
            "ticks": 45900,
            "time": 176.53828499999997,
            "velocity": 0.8582677165354331
          },
          {
            "duration": 0.24999975000000063,
            "durationTicks": 65,
            "midi": 53,
            "name": "F3",
            "ticks": 45900,
            "time": 176.53828499999997,
            "velocity": 0.5984251968503937
          },
          {
            "duration": 0.11923065000001998,
            "durationTicks": 31,
            "midi": 68,
            "name": "G#4",
            "ticks": 45990,
            "time": 176.88443849999996,
            "velocity": 0.5905511811023622
          },
          {
            "duration": 0.1807690500000092,
            "durationTicks": 47,
            "midi": 65,
            "name": "F4",
            "ticks": 45990,
            "time": 176.88443849999996,
            "velocity": 0.7322834645669292
          },
          {
            "duration": 0.12307680000000687,
            "durationTicks": 32,
            "midi": 60,
            "name": "C4",
            "ticks": 45990,
            "time": 176.88443849999996,
            "velocity": 0.9291338582677166
          },
          {
            "duration": 0.21538440000000492,
            "durationTicks": 56,
            "midi": 53,
            "name": "F3",
            "ticks": 45990,
            "time": 176.88443849999996,
            "velocity": 0.6456692913385826
          },
          {
            "duration": 0.24615360000001374,
            "durationTicks": 64,
            "midi": 67,
            "name": "G4",
            "ticks": 46080,
            "time": 177.23059199999997,
            "velocity": 0.5669291338582677
          },
          {
            "duration": 0.22692284999999401,
            "durationTicks": 59,
            "midi": 63,
            "name": "D#4",
            "ticks": 46080,
            "time": 177.23059199999997,
            "velocity": 0.7244094488188977
          },
          {
            "duration": 0.2038459499999874,
            "durationTicks": 53,
            "midi": 58,
            "name": "A#3",
            "ticks": 46080,
            "time": 177.23059199999997,
            "velocity": 0.8031496062992126
          },
          {
            "duration": 0.1653844500000048,
            "durationTicks": 43,
            "midi": 51,
            "name": "D#3",
            "ticks": 46080,
            "time": 177.23059199999997,
            "velocity": 0.7244094488188977
          },
          {
            "duration": 0.26153820000001815,
            "durationTicks": 68,
            "midi": 51,
            "name": "D#3",
            "ticks": 46170,
            "time": 177.57674549999996,
            "velocity": 0.6377952755905512
          },
          {
            "duration": 0.11153835000001777,
            "durationTicks": 29,
            "midi": 67,
            "name": "G4",
            "ticks": 46170,
            "time": 177.57674549999996,
            "velocity": 0.6062992125984252
          },
          {
            "duration": 0.11923065000001998,
            "durationTicks": 31,
            "midi": 63,
            "name": "D#4",
            "ticks": 46170,
            "time": 177.57674549999996,
            "velocity": 0.7086614173228346
          },
          {
            "duration": 0.1846151999999961,
            "durationTicks": 48,
            "midi": 58,
            "name": "A#3",
            "ticks": 46170,
            "time": 177.57674549999996,
            "velocity": 0.7480314960629921
          },
          {
            "duration": 0.28846124999998324,
            "durationTicks": 75,
            "midi": 65,
            "name": "F4",
            "ticks": 46260,
            "time": 177.92289899999997,
            "velocity": 0.7007874015748031
          },
          {
            "duration": 0.28076895000000945,
            "durationTicks": 73,
            "midi": 56,
            "name": "G#3",
            "ticks": 46260,
            "time": 177.92289899999997,
            "velocity": 0.6929133858267716
          },
          {
            "duration": 0.1923074999999983,
            "durationTicks": 50,
            "midi": 61,
            "name": "C#4",
            "ticks": 46260,
            "time": 177.92289899999997,
            "velocity": 0.7874015748031497
          },
          {
            "duration": 0.21923055000002023,
            "durationTicks": 57,
            "midi": 49,
            "name": "C#3",
            "ticks": 46260,
            "time": 177.92289899999997,
            "velocity": 0.6614173228346457
          },
          {
            "duration": 0.28076895000000945,
            "durationTicks": 73,
            "midi": 65,
            "name": "F4",
            "ticks": 46380,
            "time": 178.38443699999996,
            "velocity": 0.6771653543307087
          },
          {
            "duration": 0.1961536500000136,
            "durationTicks": 51,
            "midi": 49,
            "name": "C#3",
            "ticks": 46380,
            "time": 178.38443699999996,
            "velocity": 0.8582677165354331
          },
          {
            "duration": 0.27307665000000725,
            "durationTicks": 71,
            "midi": 56,
            "name": "G#3",
            "ticks": 46380,
            "time": 178.38443699999996,
            "velocity": 0.6771653543307087
          },
          {
            "duration": 0.1769228999999939,
            "durationTicks": 46,
            "midi": 61,
            "name": "C#4",
            "ticks": 46380,
            "time": 178.38443699999996,
            "velocity": 0.7874015748031497
          },
          {
            "duration": 0.12307679999997845,
            "durationTicks": 32,
            "midi": 65,
            "name": "F4",
            "ticks": 46470,
            "time": 178.73059049999998,
            "velocity": 0.6771653543307087
          },
          {
            "duration": 0.14230754999999817,
            "durationTicks": 37,
            "midi": 61,
            "name": "C#4",
            "ticks": 46470,
            "time": 178.73059049999998,
            "velocity": 0.7874015748031497
          },
          {
            "duration": 0.06923069999999143,
            "durationTicks": 18,
            "midi": 56,
            "name": "G#3",
            "ticks": 46470,
            "time": 178.73059049999998,
            "velocity": 0.5275590551181102
          },
          {
            "duration": 0.22307670000000712,
            "durationTicks": 58,
            "midi": 49,
            "name": "C#3",
            "ticks": 46470,
            "time": 178.73059049999998,
            "velocity": 0.8267716535433071
          },
          {
            "duration": 0.22307670000000712,
            "durationTicks": 58,
            "midi": 68,
            "name": "G#4",
            "ticks": 46560,
            "time": 179.07674399999996,
            "velocity": 0.49606299212598426
          },
          {
            "duration": 0.173076750000007,
            "durationTicks": 45,
            "midi": 60,
            "name": "C4",
            "ticks": 46560,
            "time": 179.07674399999996,
            "velocity": 0.8661417322834646
          },
          {
            "duration": 0.21538440000000492,
            "durationTicks": 56,
            "midi": 65,
            "name": "F4",
            "ticks": 46560,
            "time": 179.07674399999996,
            "velocity": 0.6456692913385826
          },
          {
            "duration": 0.23076900000000933,
            "durationTicks": 60,
            "midi": 53,
            "name": "F3",
            "ticks": 46560,
            "time": 179.07674399999996,
            "velocity": 0.6220472440944882
          },
          {
            "duration": 0.23461514999999622,
            "durationTicks": 61,
            "midi": 68,
            "name": "G#4",
            "ticks": 46650,
            "time": 179.42289749999998,
            "velocity": 0.5669291338582677
          },
          {
            "duration": 0.2153843999999765,
            "durationTicks": 56,
            "midi": 65,
            "name": "F4",
            "ticks": 46650,
            "time": 179.42289749999998,
            "velocity": 0.7480314960629921
          },
          {
            "duration": 0.173076750000007,
            "durationTicks": 45,
            "midi": 60,
            "name": "C4",
            "ticks": 46650,
            "time": 179.42289749999998,
            "velocity": 0.8346456692913385
          },
          {
            "duration": 0.2076920999999743,
            "durationTicks": 54,
            "midi": 53,
            "name": "F3",
            "ticks": 46650,
            "time": 179.42289749999998,
            "velocity": 0.6062992125984252
          },
          {
            "duration": 0.29999970000000076,
            "durationTicks": 78,
            "midi": 68,
            "name": "G#4",
            "ticks": 46740,
            "time": 179.76905099999996,
            "velocity": 0.6062992125984252
          },
          {
            "duration": 0.24999975000002905,
            "durationTicks": 65,
            "midi": 65,
            "name": "F4",
            "ticks": 46740,
            "time": 179.76905099999996,
            "velocity": 0.7322834645669292
          },
          {
            "duration": 0.21538440000000492,
            "durationTicks": 56,
            "midi": 60,
            "name": "C4",
            "ticks": 46740,
            "time": 179.76905099999996,
            "velocity": 0.8661417322834646
          },
          {
            "duration": 0.23076900000000933,
            "durationTicks": 60,
            "midi": 53,
            "name": "F3",
            "ticks": 46740,
            "time": 179.76905099999996,
            "velocity": 0.6299212598425197
          },
          {
            "duration": 0.2653843499999766,
            "durationTicks": 69,
            "midi": 68,
            "name": "G#4",
            "ticks": 46860,
            "time": 180.23058899999998,
            "velocity": 0.5511811023622047
          },
          {
            "duration": 0.23461514999999622,
            "durationTicks": 61,
            "midi": 65,
            "name": "F4",
            "ticks": 46860,
            "time": 180.23058899999998,
            "velocity": 0.6929133858267716
          },
          {
            "duration": 0.1961536499999852,
            "durationTicks": 51,
            "midi": 60,
            "name": "C4",
            "ticks": 46860,
            "time": 180.23058899999998,
            "velocity": 0.889763779527559
          },
          {
            "duration": 0.1961536499999852,
            "durationTicks": 51,
            "midi": 53,
            "name": "F3",
            "ticks": 46860,
            "time": 180.23058899999998,
            "velocity": 0.6377952755905512
          },
          {
            "duration": 0.10384605000001557,
            "durationTicks": 27,
            "midi": 68,
            "name": "G#4",
            "ticks": 46950,
            "time": 180.57674249999997,
            "velocity": 0.5196850393700787
          },
          {
            "duration": 0.173076750000007,
            "durationTicks": 45,
            "midi": 65,
            "name": "F4",
            "ticks": 46950,
            "time": 180.57674249999997,
            "velocity": 0.7637795275590551
          },
          {
            "duration": 0.11923064999999156,
            "durationTicks": 31,
            "midi": 60,
            "name": "C4",
            "ticks": 46950,
            "time": 180.57674249999997,
            "velocity": 0.905511811023622
          },
          {
            "duration": 0.2115382499999896,
            "durationTicks": 55,
            "midi": 53,
            "name": "F3",
            "ticks": 46950,
            "time": 180.57674249999997,
            "velocity": 0.6456692913385826
          },
          {
            "duration": 0.2038459499999874,
            "durationTicks": 53,
            "midi": 63,
            "name": "D#4",
            "ticks": 47040,
            "time": 180.92289599999998,
            "velocity": 0.7480314960629921
          },
          {
            "duration": 0.24615360000001374,
            "durationTicks": 64,
            "midi": 67,
            "name": "G4",
            "ticks": 47040,
            "time": 180.92289599999998,
            "velocity": 0.5905511811023622
          },
          {
            "duration": 0.1923074999999983,
            "durationTicks": 50,
            "midi": 58,
            "name": "A#3",
            "ticks": 47040,
            "time": 180.92289599999998,
            "velocity": 0.7874015748031497
          },
          {
            "duration": 0.1923074999999983,
            "durationTicks": 50,
            "midi": 51,
            "name": "D#3",
            "ticks": 47040,
            "time": 180.92289599999998,
            "velocity": 0.7086614173228346
          },
          {
            "duration": 0.11538450000000466,
            "durationTicks": 30,
            "midi": 67,
            "name": "G4",
            "ticks": 47130,
            "time": 181.26904949999997,
            "velocity": 0.5748031496062992
          },
          {
            "duration": 0.12692294999999376,
            "durationTicks": 33,
            "midi": 63,
            "name": "D#4",
            "ticks": 47130,
            "time": 181.26904949999997,
            "velocity": 0.7086614173228346
          },
          {
            "duration": 0.21538440000000492,
            "durationTicks": 56,
            "midi": 58,
            "name": "A#3",
            "ticks": 47130,
            "time": 181.26904949999997,
            "velocity": 0.7244094488188977
          },
          {
            "duration": 0.26923049999999193,
            "durationTicks": 70,
            "midi": 51,
            "name": "D#3",
            "ticks": 47130,
            "time": 181.26904949999997,
            "velocity": 0.7007874015748031
          },
          {
            "duration": 0.24999975000000063,
            "durationTicks": 65,
            "midi": 65,
            "name": "F4",
            "ticks": 47220,
            "time": 181.61520299999998,
            "velocity": 0.7007874015748031
          },
          {
            "duration": 0.26153819999998973,
            "durationTicks": 68,
            "midi": 56,
            "name": "G#3",
            "ticks": 47220,
            "time": 181.61520299999998,
            "velocity": 0.7007874015748031
          },
          {
            "duration": 0.2115382499999896,
            "durationTicks": 55,
            "midi": 61,
            "name": "C#4",
            "ticks": 47220,
            "time": 181.61520299999998,
            "velocity": 0.7874015748031497
          },
          {
            "duration": 0.2038459499999874,
            "durationTicks": 53,
            "midi": 49,
            "name": "C#3",
            "ticks": 47220,
            "time": 181.61520299999998,
            "velocity": 0.8346456692913385
          },
          {
            "duration": 0.28076895000000945,
            "durationTicks": 73,
            "midi": 65,
            "name": "F4",
            "ticks": 47340,
            "time": 182.07674099999997,
            "velocity": 0.6614173228346457
          },
          {
            "duration": 0.25769205000000284,
            "durationTicks": 67,
            "midi": 56,
            "name": "G#3",
            "ticks": 47340,
            "time": 182.07674099999997,
            "velocity": 0.7007874015748031
          },
          {
            "duration": 0.2038459499999874,
            "durationTicks": 53,
            "midi": 61,
            "name": "C#4",
            "ticks": 47340,
            "time": 182.07674099999997,
            "velocity": 0.7874015748031497
          },
          {
            "duration": 0.23076900000000933,
            "durationTicks": 60,
            "midi": 49,
            "name": "C#3",
            "ticks": 47340,
            "time": 182.07674099999997,
            "velocity": 0.8346456692913385
          },
          {
            "duration": 0.12692294999999376,
            "durationTicks": 33,
            "midi": 56,
            "name": "G#3",
            "ticks": 47430,
            "time": 182.42289449999996,
            "velocity": 0.5905511811023622
          },
          {
            "duration": 0.12692294999999376,
            "durationTicks": 33,
            "midi": 65,
            "name": "F4",
            "ticks": 47430,
            "time": 182.42289449999996,
            "velocity": 0.6456692913385826
          },
          {
            "duration": 0.10769220000003088,
            "durationTicks": 28,
            "midi": 49,
            "name": "C#3",
            "ticks": 47430,
            "time": 182.42289449999996,
            "velocity": 0.8346456692913385
          },
          {
            "duration": 0.11538450000000466,
            "durationTicks": 30,
            "midi": 61,
            "name": "C#4",
            "ticks": 47430,
            "time": 182.42289449999996,
            "velocity": 0.7874015748031497
          },
          {
            "duration": 0.21923055000002023,
            "durationTicks": 57,
            "midi": 53,
            "name": "F3",
            "ticks": 47520,
            "time": 182.76904799999997,
            "velocity": 0.5748031496062992
          },
          {
            "duration": 0.22692284999999401,
            "durationTicks": 59,
            "midi": 68,
            "name": "G#4",
            "ticks": 47520,
            "time": 182.76904799999997,
            "velocity": 0.5511811023622047
          },
          {
            "duration": 0.21923055000002023,
            "durationTicks": 57,
            "midi": 65,
            "name": "F4",
            "ticks": 47520,
            "time": 182.76904799999997,
            "velocity": 0.7322834645669292
          },
          {
            "duration": 0.18076904999998078,
            "durationTicks": 47,
            "midi": 60,
            "name": "C4",
            "ticks": 47520,
            "time": 182.76904799999997,
            "velocity": 0.8031496062992126
          },
          {
            "duration": 0.21153825000001802,
            "durationTicks": 55,
            "midi": 65,
            "name": "F4",
            "ticks": 47610,
            "time": 183.11520149999996,
            "velocity": 0.7637795275590551
          },
          {
            "duration": 0.21923055000002023,
            "durationTicks": 57,
            "midi": 68,
            "name": "G#4",
            "ticks": 47610,
            "time": 183.11520149999996,
            "velocity": 0.5669291338582677
          },
          {
            "duration": 0.1653844500000332,
            "durationTicks": 43,
            "midi": 60,
            "name": "C4",
            "ticks": 47610,
            "time": 183.11520149999996,
            "velocity": 0.889763779527559
          },
          {
            "duration": 0.2076921000000027,
            "durationTicks": 54,
            "midi": 53,
            "name": "F3",
            "ticks": 47610,
            "time": 183.11520149999996,
            "velocity": 0.5669291338582677
          },
          {
            "duration": 0.24999975000000063,
            "durationTicks": 65,
            "midi": 65,
            "name": "F4",
            "ticks": 47700,
            "time": 183.46135499999997,
            "velocity": 0.7322834645669292
          },
          {
            "duration": 0.26153819999998973,
            "durationTicks": 68,
            "midi": 68,
            "name": "G#4",
            "ticks": 47700,
            "time": 183.46135499999997,
            "velocity": 0.5590551181102362
          },
          {
            "duration": 0.24999975000000063,
            "durationTicks": 65,
            "midi": 53,
            "name": "F3",
            "ticks": 47700,
            "time": 183.46135499999997,
            "velocity": 0.6062992125984252
          },
          {
            "duration": 0.2038459499999874,
            "durationTicks": 53,
            "midi": 60,
            "name": "C4",
            "ticks": 47700,
            "time": 183.46135499999997,
            "velocity": 0.8661417322834646
          },
          {
            "duration": 0.25769205000000284,
            "durationTicks": 67,
            "midi": 65,
            "name": "F4",
            "ticks": 47820,
            "time": 183.92289299999996,
            "velocity": 0.7322834645669292
          },
          {
            "duration": 0.27692280000002256,
            "durationTicks": 72,
            "midi": 68,
            "name": "G#4",
            "ticks": 47820,
            "time": 183.92289299999996,
            "velocity": 0.5669291338582677
          },
          {
            "duration": 0.21538440000000492,
            "durationTicks": 56,
            "midi": 60,
            "name": "C4",
            "ticks": 47820,
            "time": 183.92289299999996,
            "velocity": 0.8582677165354331
          },
          {
            "duration": 0.24999975000002905,
            "durationTicks": 65,
            "midi": 53,
            "name": "F3",
            "ticks": 47820,
            "time": 183.92289299999996,
            "velocity": 0.5984251968503937
          },
          {
            "duration": 0.11923064999999156,
            "durationTicks": 31,
            "midi": 68,
            "name": "G#4",
            "ticks": 47910,
            "time": 184.26904649999997,
            "velocity": 0.5905511811023622
          },
          {
            "duration": 0.18076904999998078,
            "durationTicks": 47,
            "midi": 65,
            "name": "F4",
            "ticks": 47910,
            "time": 184.26904649999997,
            "velocity": 0.7322834645669292
          },
          {
            "duration": 0.12307679999997845,
            "durationTicks": 32,
            "midi": 60,
            "name": "C4",
            "ticks": 47910,
            "time": 184.26904649999997,
            "velocity": 0.9291338582677166
          },
          {
            "duration": 0.2153843999999765,
            "durationTicks": 56,
            "midi": 53,
            "name": "F3",
            "ticks": 47910,
            "time": 184.26904649999997,
            "velocity": 0.6456692913385826
          },
          {
            "duration": 0.21923055000002023,
            "durationTicks": 57,
            "midi": 53,
            "name": "F3",
            "ticks": 48000,
            "time": 184.61519999999996,
            "velocity": 0.5748031496062992
          },
          {
            "duration": 0.22692285000002244,
            "durationTicks": 59,
            "midi": 68,
            "name": "G#4",
            "ticks": 48000,
            "time": 184.61519999999996,
            "velocity": 0.5511811023622047
          },
          {
            "duration": 0.21923055000002023,
            "durationTicks": 57,
            "midi": 65,
            "name": "F4",
            "ticks": 48000,
            "time": 184.61519999999996,
            "velocity": 0.7322834645669292
          },
          {
            "duration": 0.1807690500000092,
            "durationTicks": 47,
            "midi": 60,
            "name": "C4",
            "ticks": 48000,
            "time": 184.61519999999996,
            "velocity": 0.8031496062992126
          },
          {
            "duration": 0.2115382499999896,
            "durationTicks": 55,
            "midi": 65,
            "name": "F4",
            "ticks": 48090,
            "time": 184.96135349999997,
            "velocity": 0.7637795275590551
          },
          {
            "duration": 0.21923055000002023,
            "durationTicks": 57,
            "midi": 68,
            "name": "G#4",
            "ticks": 48090,
            "time": 184.96135349999997,
            "velocity": 0.5669291338582677
          },
          {
            "duration": 0.1653844500000048,
            "durationTicks": 43,
            "midi": 60,
            "name": "C4",
            "ticks": 48090,
            "time": 184.96135349999997,
            "velocity": 0.889763779527559
          },
          {
            "duration": 0.2076921000000027,
            "durationTicks": 54,
            "midi": 53,
            "name": "F3",
            "ticks": 48090,
            "time": 184.96135349999997,
            "velocity": 0.5669291338582677
          },
          {
            "duration": 0.24999975000002905,
            "durationTicks": 65,
            "midi": 65,
            "name": "F4",
            "ticks": 48180,
            "time": 185.30750699999996,
            "velocity": 0.7322834645669292
          },
          {
            "duration": 0.26153820000001815,
            "durationTicks": 68,
            "midi": 68,
            "name": "G#4",
            "ticks": 48180,
            "time": 185.30750699999996,
            "velocity": 0.5590551181102362
          },
          {
            "duration": 0.24999975000002905,
            "durationTicks": 65,
            "midi": 53,
            "name": "F3",
            "ticks": 48180,
            "time": 185.30750699999996,
            "velocity": 0.6062992125984252
          },
          {
            "duration": 0.20384595000001582,
            "durationTicks": 53,
            "midi": 60,
            "name": "C4",
            "ticks": 48180,
            "time": 185.30750699999996,
            "velocity": 0.8661417322834646
          },
          {
            "duration": 0.25769205000000284,
            "durationTicks": 67,
            "midi": 65,
            "name": "F4",
            "ticks": 48300,
            "time": 185.76904499999998,
            "velocity": 0.7322834645669292
          },
          {
            "duration": 0.27692279999999414,
            "durationTicks": 72,
            "midi": 68,
            "name": "G#4",
            "ticks": 48300,
            "time": 185.76904499999998,
            "velocity": 0.5669291338582677
          },
          {
            "duration": 0.2153843999999765,
            "durationTicks": 56,
            "midi": 60,
            "name": "C4",
            "ticks": 48300,
            "time": 185.76904499999998,
            "velocity": 0.8582677165354331
          },
          {
            "duration": 0.24999975000000063,
            "durationTicks": 65,
            "midi": 53,
            "name": "F3",
            "ticks": 48300,
            "time": 185.76904499999998,
            "velocity": 0.5984251968503937
          },
          {
            "duration": 0.11923064999999156,
            "durationTicks": 31,
            "midi": 68,
            "name": "G#4",
            "ticks": 48390,
            "time": 186.11519849999996,
            "velocity": 0.5905511811023622
          },
          {
            "duration": 0.1807690500000092,
            "durationTicks": 47,
            "midi": 65,
            "name": "F4",
            "ticks": 48390,
            "time": 186.11519849999996,
            "velocity": 0.7322834645669292
          },
          {
            "duration": 0.12307680000000687,
            "durationTicks": 32,
            "midi": 60,
            "name": "C4",
            "ticks": 48390,
            "time": 186.11519849999996,
            "velocity": 0.9291338582677166
          },
          {
            "duration": 0.21538440000000492,
            "durationTicks": 56,
            "midi": 53,
            "name": "F3",
            "ticks": 48390,
            "time": 186.11519849999996,
            "velocity": 0.6456692913385826
          },
          {
            "duration": 0.2192305499999918,
            "durationTicks": 57,
            "midi": 53,
            "name": "F3",
            "ticks": 48480,
            "time": 186.46135199999998,
            "velocity": 0.5748031496062992
          },
          {
            "duration": 0.22692284999999401,
            "durationTicks": 59,
            "midi": 68,
            "name": "G#4",
            "ticks": 48480,
            "time": 186.46135199999998,
            "velocity": 0.5511811023622047
          },
          {
            "duration": 0.2192305499999918,
            "durationTicks": 57,
            "midi": 65,
            "name": "F4",
            "ticks": 48480,
            "time": 186.46135199999998,
            "velocity": 0.7322834645669292
          },
          {
            "duration": 0.18076904999998078,
            "durationTicks": 47,
            "midi": 60,
            "name": "C4",
            "ticks": 48480,
            "time": 186.46135199999998,
            "velocity": 0.8031496062992126
          },
          {
            "duration": 0.2115382499999896,
            "durationTicks": 55,
            "midi": 65,
            "name": "F4",
            "ticks": 48570,
            "time": 186.80750549999996,
            "velocity": 0.7637795275590551
          },
          {
            "duration": 0.21923055000002023,
            "durationTicks": 57,
            "midi": 68,
            "name": "G#4",
            "ticks": 48570,
            "time": 186.80750549999996,
            "velocity": 0.5669291338582677
          },
          {
            "duration": 0.1653844500000048,
            "durationTicks": 43,
            "midi": 60,
            "name": "C4",
            "ticks": 48570,
            "time": 186.80750549999996,
            "velocity": 0.889763779527559
          },
          {
            "duration": 0.2076921000000027,
            "durationTicks": 54,
            "midi": 53,
            "name": "F3",
            "ticks": 48570,
            "time": 186.80750549999996,
            "velocity": 0.5669291338582677
          },
          {
            "duration": 0.24999975000000063,
            "durationTicks": 65,
            "midi": 65,
            "name": "F4",
            "ticks": 48660,
            "time": 187.15365899999998,
            "velocity": 0.7322834645669292
          },
          {
            "duration": 0.26153819999998973,
            "durationTicks": 68,
            "midi": 68,
            "name": "G#4",
            "ticks": 48660,
            "time": 187.15365899999998,
            "velocity": 0.5590551181102362
          },
          {
            "duration": 0.24999975000000063,
            "durationTicks": 65,
            "midi": 53,
            "name": "F3",
            "ticks": 48660,
            "time": 187.15365899999998,
            "velocity": 0.6062992125984252
          },
          {
            "duration": 0.2038459499999874,
            "durationTicks": 53,
            "midi": 60,
            "name": "C4",
            "ticks": 48660,
            "time": 187.15365899999998,
            "velocity": 0.8661417322834646
          },
          {
            "duration": 0.25769205000000284,
            "durationTicks": 67,
            "midi": 65,
            "name": "F4",
            "ticks": 48780,
            "time": 187.61519699999997,
            "velocity": 0.7322834645669292
          },
          {
            "duration": 0.27692280000002256,
            "durationTicks": 72,
            "midi": 68,
            "name": "G#4",
            "ticks": 48780,
            "time": 187.61519699999997,
            "velocity": 0.5669291338582677
          },
          {
            "duration": 0.2153843999999765,
            "durationTicks": 56,
            "midi": 60,
            "name": "C4",
            "ticks": 48780,
            "time": 187.61519699999997,
            "velocity": 0.8582677165354331
          },
          {
            "duration": 0.24999975000000063,
            "durationTicks": 65,
            "midi": 53,
            "name": "F3",
            "ticks": 48780,
            "time": 187.61519699999997,
            "velocity": 0.5984251968503937
          },
          {
            "duration": 0.11923064999999156,
            "durationTicks": 31,
            "midi": 68,
            "name": "G#4",
            "ticks": 48870,
            "time": 187.96135049999998,
            "velocity": 0.5905511811023622
          },
          {
            "duration": 0.18076904999998078,
            "durationTicks": 47,
            "midi": 65,
            "name": "F4",
            "ticks": 48870,
            "time": 187.96135049999998,
            "velocity": 0.7322834645669292
          },
          {
            "duration": 0.12307679999997845,
            "durationTicks": 32,
            "midi": 60,
            "name": "C4",
            "ticks": 48870,
            "time": 187.96135049999998,
            "velocity": 0.9291338582677166
          },
          {
            "duration": 0.2153843999999765,
            "durationTicks": 56,
            "midi": 53,
            "name": "F3",
            "ticks": 48870,
            "time": 187.96135049999998,
            "velocity": 0.6456692913385826
          },
          {
            "duration": 0.21923055000002023,
            "durationTicks": 57,
            "midi": 53,
            "name": "F3",
            "ticks": 48960,
            "time": 188.30750399999997,
            "velocity": 0.5748031496062992
          },
          {
            "duration": 0.22692284999999401,
            "durationTicks": 59,
            "midi": 68,
            "name": "G#4",
            "ticks": 48960,
            "time": 188.30750399999997,
            "velocity": 0.5511811023622047
          },
          {
            "duration": 0.21923055000002023,
            "durationTicks": 57,
            "midi": 65,
            "name": "F4",
            "ticks": 48960,
            "time": 188.30750399999997,
            "velocity": 0.7322834645669292
          },
          {
            "duration": 0.1807690500000092,
            "durationTicks": 47,
            "midi": 60,
            "name": "C4",
            "ticks": 48960,
            "time": 188.30750399999997,
            "velocity": 0.8031496062992126
          },
          {
            "duration": 0.2115382499999896,
            "durationTicks": 55,
            "midi": 65,
            "name": "F4",
            "ticks": 49050,
            "time": 188.65365749999998,
            "velocity": 0.7637795275590551
          },
          {
            "duration": 0.2192305499999918,
            "durationTicks": 57,
            "midi": 68,
            "name": "G#4",
            "ticks": 49050,
            "time": 188.65365749999998,
            "velocity": 0.5669291338582677
          },
          {
            "duration": 0.1653844500000048,
            "durationTicks": 43,
            "midi": 60,
            "name": "C4",
            "ticks": 49050,
            "time": 188.65365749999998,
            "velocity": 0.889763779527559
          },
          {
            "duration": 0.2076920999999743,
            "durationTicks": 54,
            "midi": 53,
            "name": "F3",
            "ticks": 49050,
            "time": 188.65365749999998,
            "velocity": 0.5669291338582677
          },
          {
            "duration": 0.24999975000000063,
            "durationTicks": 65,
            "midi": 65,
            "name": "F4",
            "ticks": 49140,
            "time": 188.99981099999997,
            "velocity": 0.7322834645669292
          },
          {
            "duration": 0.26153819999998973,
            "durationTicks": 68,
            "midi": 68,
            "name": "G#4",
            "ticks": 49140,
            "time": 188.99981099999997,
            "velocity": 0.5590551181102362
          },
          {
            "duration": 0.24999975000000063,
            "durationTicks": 65,
            "midi": 53,
            "name": "F3",
            "ticks": 49140,
            "time": 188.99981099999997,
            "velocity": 0.6062992125984252
          },
          {
            "duration": 0.2038459499999874,
            "durationTicks": 53,
            "midi": 60,
            "name": "C4",
            "ticks": 49140,
            "time": 188.99981099999997,
            "velocity": 0.8661417322834646
          },
          {
            "duration": 0.25769205000000284,
            "durationTicks": 67,
            "midi": 65,
            "name": "F4",
            "ticks": 49260,
            "time": 189.46134899999996,
            "velocity": 0.7322834645669292
          },
          {
            "duration": 0.27692280000002256,
            "durationTicks": 72,
            "midi": 68,
            "name": "G#4",
            "ticks": 49260,
            "time": 189.46134899999996,
            "velocity": 0.5669291338582677
          },
          {
            "duration": 0.21538440000000492,
            "durationTicks": 56,
            "midi": 60,
            "name": "C4",
            "ticks": 49260,
            "time": 189.46134899999996,
            "velocity": 0.8582677165354331
          },
          {
            "duration": 0.24999975000002905,
            "durationTicks": 65,
            "midi": 53,
            "name": "F3",
            "ticks": 49260,
            "time": 189.46134899999996,
            "velocity": 0.5984251968503937
          },
          {
            "duration": 0.11923064999999156,
            "durationTicks": 31,
            "midi": 68,
            "name": "G#4",
            "ticks": 49350,
            "time": 189.80750249999997,
            "velocity": 0.5905511811023622
          },
          {
            "duration": 0.18076904999998078,
            "durationTicks": 47,
            "midi": 65,
            "name": "F4",
            "ticks": 49350,
            "time": 189.80750249999997,
            "velocity": 0.7322834645669292
          },
          {
            "duration": 0.12307679999997845,
            "durationTicks": 32,
            "midi": 60,
            "name": "C4",
            "ticks": 49350,
            "time": 189.80750249999997,
            "velocity": 0.9291338582677166
          },
          {
            "duration": 0.2153843999999765,
            "durationTicks": 56,
            "midi": 53,
            "name": "F3",
            "ticks": 49350,
            "time": 189.80750249999997,
            "velocity": 0.6456692913385826
          },
          {
            "duration": 0.21923055000002023,
            "durationTicks": 57,
            "midi": 53,
            "name": "F3",
            "ticks": 49440,
            "time": 190.15365599999996,
            "velocity": 0.5748031496062992
          },
          {
            "duration": 0.22692285000002244,
            "durationTicks": 59,
            "midi": 68,
            "name": "G#4",
            "ticks": 49440,
            "time": 190.15365599999996,
            "velocity": 0.5511811023622047
          },
          {
            "duration": 0.21923055000002023,
            "durationTicks": 57,
            "midi": 65,
            "name": "F4",
            "ticks": 49440,
            "time": 190.15365599999996,
            "velocity": 0.7322834645669292
          },
          {
            "duration": 0.1807690500000092,
            "durationTicks": 47,
            "midi": 60,
            "name": "C4",
            "ticks": 49440,
            "time": 190.15365599999996,
            "velocity": 0.8031496062992126
          },
          {
            "duration": 0.2115382499999896,
            "durationTicks": 55,
            "midi": 65,
            "name": "F4",
            "ticks": 49530,
            "time": 190.49980949999997,
            "velocity": 0.7637795275590551
          },
          {
            "duration": 0.21923055000002023,
            "durationTicks": 57,
            "midi": 68,
            "name": "G#4",
            "ticks": 49530,
            "time": 190.49980949999997,
            "velocity": 0.5669291338582677
          },
          {
            "duration": 0.1653844500000048,
            "durationTicks": 43,
            "midi": 60,
            "name": "C4",
            "ticks": 49530,
            "time": 190.49980949999997,
            "velocity": 0.889763779527559
          },
          {
            "duration": 0.2076921000000027,
            "durationTicks": 54,
            "midi": 53,
            "name": "F3",
            "ticks": 49530,
            "time": 190.49980949999997,
            "velocity": 0.5669291338582677
          },
          {
            "duration": 0.24999975000002905,
            "durationTicks": 65,
            "midi": 65,
            "name": "F4",
            "ticks": 49620,
            "time": 190.84596299999995,
            "velocity": 0.7322834645669292
          },
          {
            "duration": 0.26153820000001815,
            "durationTicks": 68,
            "midi": 68,
            "name": "G#4",
            "ticks": 49620,
            "time": 190.84596299999995,
            "velocity": 0.5590551181102362
          },
          {
            "duration": 0.24999975000002905,
            "durationTicks": 65,
            "midi": 53,
            "name": "F3",
            "ticks": 49620,
            "time": 190.84596299999995,
            "velocity": 0.6062992125984252
          },
          {
            "duration": 0.20384595000001582,
            "durationTicks": 53,
            "midi": 60,
            "name": "C4",
            "ticks": 49620,
            "time": 190.84596299999995,
            "velocity": 0.8661417322834646
          },
          {
            "duration": 0.25769205000000284,
            "durationTicks": 67,
            "midi": 65,
            "name": "F4",
            "ticks": 49740,
            "time": 191.30750099999997,
            "velocity": 0.7322834645669292
          },
          {
            "duration": 0.27692279999999414,
            "durationTicks": 72,
            "midi": 68,
            "name": "G#4",
            "ticks": 49740,
            "time": 191.30750099999997,
            "velocity": 0.5669291338582677
          },
          {
            "duration": 0.2153843999999765,
            "durationTicks": 56,
            "midi": 60,
            "name": "C4",
            "ticks": 49740,
            "time": 191.30750099999997,
            "velocity": 0.8582677165354331
          },
          {
            "duration": 0.24999975000000063,
            "durationTicks": 65,
            "midi": 53,
            "name": "F3",
            "ticks": 49740,
            "time": 191.30750099999997,
            "velocity": 0.5984251968503937
          },
          {
            "duration": 0.11923064999999156,
            "durationTicks": 31,
            "midi": 68,
            "name": "G#4",
            "ticks": 49830,
            "time": 191.65365449999996,
            "velocity": 0.5905511811023622
          },
          {
            "duration": 0.1807690500000092,
            "durationTicks": 47,
            "midi": 65,
            "name": "F4",
            "ticks": 49830,
            "time": 191.65365449999996,
            "velocity": 0.7322834645669292
          },
          {
            "duration": 0.12307680000000687,
            "durationTicks": 32,
            "midi": 60,
            "name": "C4",
            "ticks": 49830,
            "time": 191.65365449999996,
            "velocity": 0.9291338582677166
          },
          {
            "duration": 0.21538440000000492,
            "durationTicks": 56,
            "midi": 53,
            "name": "F3",
            "ticks": 49830,
            "time": 191.65365449999996,
            "velocity": 0.6456692913385826
          },
          {
            "duration": 0.2192305499999918,
            "durationTicks": 57,
            "midi": 53,
            "name": "F3",
            "ticks": 49920,
            "time": 191.99980799999997,
            "velocity": 0.5748031496062992
          },
          {
            "duration": 0.22692284999999401,
            "durationTicks": 59,
            "midi": 68,
            "name": "G#4",
            "ticks": 49920,
            "time": 191.99980799999997,
            "velocity": 0.5511811023622047
          },
          {
            "duration": 0.2192305499999918,
            "durationTicks": 57,
            "midi": 65,
            "name": "F4",
            "ticks": 49920,
            "time": 191.99980799999997,
            "velocity": 0.7322834645669292
          },
          {
            "duration": 0.18076904999998078,
            "durationTicks": 47,
            "midi": 60,
            "name": "C4",
            "ticks": 49920,
            "time": 191.99980799999997,
            "velocity": 0.8031496062992126
          },
          {
            "duration": 0.2115382499999896,
            "durationTicks": 55,
            "midi": 65,
            "name": "F4",
            "ticks": 50010,
            "time": 192.34596149999996,
            "velocity": 0.7637795275590551
          },
          {
            "duration": 0.21923055000002023,
            "durationTicks": 57,
            "midi": 68,
            "name": "G#4",
            "ticks": 50010,
            "time": 192.34596149999996,
            "velocity": 0.5669291338582677
          },
          {
            "duration": 0.1653844500000048,
            "durationTicks": 43,
            "midi": 60,
            "name": "C4",
            "ticks": 50010,
            "time": 192.34596149999996,
            "velocity": 0.889763779527559
          },
          {
            "duration": 0.2076921000000027,
            "durationTicks": 54,
            "midi": 53,
            "name": "F3",
            "ticks": 50010,
            "time": 192.34596149999996,
            "velocity": 0.5669291338582677
          },
          {
            "duration": 0.24999975000000063,
            "durationTicks": 65,
            "midi": 65,
            "name": "F4",
            "ticks": 50100,
            "time": 192.69211499999997,
            "velocity": 0.7322834645669292
          },
          {
            "duration": 0.26153819999998973,
            "durationTicks": 68,
            "midi": 68,
            "name": "G#4",
            "ticks": 50100,
            "time": 192.69211499999997,
            "velocity": 0.5590551181102362
          },
          {
            "duration": 0.24999975000000063,
            "durationTicks": 65,
            "midi": 53,
            "name": "F3",
            "ticks": 50100,
            "time": 192.69211499999997,
            "velocity": 0.6062992125984252
          },
          {
            "duration": 0.2038459499999874,
            "durationTicks": 53,
            "midi": 60,
            "name": "C4",
            "ticks": 50100,
            "time": 192.69211499999997,
            "velocity": 0.8661417322834646
          },
          {
            "duration": 0.25769205000000284,
            "durationTicks": 67,
            "midi": 65,
            "name": "F4",
            "ticks": 50220,
            "time": 193.15365299999996,
            "velocity": 0.7322834645669292
          },
          {
            "duration": 0.27692280000002256,
            "durationTicks": 72,
            "midi": 68,
            "name": "G#4",
            "ticks": 50220,
            "time": 193.15365299999996,
            "velocity": 0.5669291338582677
          },
          {
            "duration": 0.21538440000000492,
            "durationTicks": 56,
            "midi": 60,
            "name": "C4",
            "ticks": 50220,
            "time": 193.15365299999996,
            "velocity": 0.8582677165354331
          },
          {
            "duration": 0.24999975000000063,
            "durationTicks": 65,
            "midi": 53,
            "name": "F3",
            "ticks": 50220,
            "time": 193.15365299999996,
            "velocity": 0.5984251968503937
          },
          {
            "duration": 0.11923064999999156,
            "durationTicks": 31,
            "midi": 68,
            "name": "G#4",
            "ticks": 50310,
            "time": 193.49980649999998,
            "velocity": 0.5905511811023622
          },
          {
            "duration": 0.18076904999998078,
            "durationTicks": 47,
            "midi": 65,
            "name": "F4",
            "ticks": 50310,
            "time": 193.49980649999998,
            "velocity": 0.7322834645669292
          },
          {
            "duration": 0.12307679999997845,
            "durationTicks": 32,
            "midi": 60,
            "name": "C4",
            "ticks": 50310,
            "time": 193.49980649999998,
            "velocity": 0.9291338582677166
          },
          {
            "duration": 0.2153843999999765,
            "durationTicks": 56,
            "midi": 53,
            "name": "F3",
            "ticks": 50310,
            "time": 193.49980649999998,
            "velocity": 0.6456692913385826
          },
          {
            "duration": 0.21923055000002023,
            "durationTicks": 57,
            "midi": 53,
            "name": "F3",
            "ticks": 50400,
            "time": 193.84595999999996,
            "velocity": 0.5748031496062992
          },
          {
            "duration": 0.22692285000002244,
            "durationTicks": 59,
            "midi": 68,
            "name": "G#4",
            "ticks": 50400,
            "time": 193.84595999999996,
            "velocity": 0.5511811023622047
          },
          {
            "duration": 0.21923055000002023,
            "durationTicks": 57,
            "midi": 65,
            "name": "F4",
            "ticks": 50400,
            "time": 193.84595999999996,
            "velocity": 0.7322834645669292
          },
          {
            "duration": 0.1807690500000092,
            "durationTicks": 47,
            "midi": 60,
            "name": "C4",
            "ticks": 50400,
            "time": 193.84595999999996,
            "velocity": 0.8031496062992126
          },
          {
            "duration": 0.2115382499999896,
            "durationTicks": 55,
            "midi": 65,
            "name": "F4",
            "ticks": 50490,
            "time": 194.19211349999998,
            "velocity": 0.7637795275590551
          },
          {
            "duration": 0.2192305499999918,
            "durationTicks": 57,
            "midi": 68,
            "name": "G#4",
            "ticks": 50490,
            "time": 194.19211349999998,
            "velocity": 0.5669291338582677
          },
          {
            "duration": 0.1653844500000048,
            "durationTicks": 43,
            "midi": 60,
            "name": "C4",
            "ticks": 50490,
            "time": 194.19211349999998,
            "velocity": 0.889763779527559
          },
          {
            "duration": 0.2076920999999743,
            "durationTicks": 54,
            "midi": 53,
            "name": "F3",
            "ticks": 50490,
            "time": 194.19211349999998,
            "velocity": 0.5669291338582677
          },
          {
            "duration": 0.24999975000000063,
            "durationTicks": 65,
            "midi": 65,
            "name": "F4",
            "ticks": 50580,
            "time": 194.53826699999996,
            "velocity": 0.7322834645669292
          },
          {
            "duration": 0.26153819999998973,
            "durationTicks": 68,
            "midi": 68,
            "name": "G#4",
            "ticks": 50580,
            "time": 194.53826699999996,
            "velocity": 0.5590551181102362
          },
          {
            "duration": 0.24999975000000063,
            "durationTicks": 65,
            "midi": 53,
            "name": "F3",
            "ticks": 50580,
            "time": 194.53826699999996,
            "velocity": 0.6062992125984252
          },
          {
            "duration": 0.20384595000001582,
            "durationTicks": 53,
            "midi": 60,
            "name": "C4",
            "ticks": 50580,
            "time": 194.53826699999996,
            "velocity": 0.8661417322834646
          },
          {
            "duration": 0.25769205000000284,
            "durationTicks": 67,
            "midi": 65,
            "name": "F4",
            "ticks": 50700,
            "time": 194.99980499999998,
            "velocity": 0.7322834645669292
          },
          {
            "duration": 0.27692279999999414,
            "durationTicks": 72,
            "midi": 68,
            "name": "G#4",
            "ticks": 50700,
            "time": 194.99980499999998,
            "velocity": 0.5669291338582677
          },
          {
            "duration": 0.2153843999999765,
            "durationTicks": 56,
            "midi": 60,
            "name": "C4",
            "ticks": 50700,
            "time": 194.99980499999998,
            "velocity": 0.8582677165354331
          },
          {
            "duration": 0.24999975000000063,
            "durationTicks": 65,
            "midi": 53,
            "name": "F3",
            "ticks": 50700,
            "time": 194.99980499999998,
            "velocity": 0.5984251968503937
          },
          {
            "duration": 0.11923064999999156,
            "durationTicks": 31,
            "midi": 68,
            "name": "G#4",
            "ticks": 50790,
            "time": 195.34595849999997,
            "velocity": 0.5905511811023622
          },
          {
            "duration": 0.18076904999998078,
            "durationTicks": 47,
            "midi": 65,
            "name": "F4",
            "ticks": 50790,
            "time": 195.34595849999997,
            "velocity": 0.7322834645669292
          },
          {
            "duration": 0.12307680000000687,
            "durationTicks": 32,
            "midi": 60,
            "name": "C4",
            "ticks": 50790,
            "time": 195.34595849999997,
            "velocity": 0.9291338582677166
          },
          {
            "duration": 0.2153843999999765,
            "durationTicks": 56,
            "midi": 53,
            "name": "F3",
            "ticks": 50790,
            "time": 195.34595849999997,
            "velocity": 0.6456692913385826
          },
          {
            "duration": 0.2192305499999918,
            "durationTicks": 57,
            "midi": 53,
            "name": "F3",
            "ticks": 50880,
            "time": 195.69211199999998,
            "velocity": 0.5748031496062992
          },
          {
            "duration": 0.22692284999999401,
            "durationTicks": 59,
            "midi": 68,
            "name": "G#4",
            "ticks": 50880,
            "time": 195.69211199999998,
            "velocity": 0.5511811023622047
          },
          {
            "duration": 0.2192305499999918,
            "durationTicks": 57,
            "midi": 65,
            "name": "F4",
            "ticks": 50880,
            "time": 195.69211199999998,
            "velocity": 0.7322834645669292
          },
          {
            "duration": 0.18076904999998078,
            "durationTicks": 47,
            "midi": 60,
            "name": "C4",
            "ticks": 50880,
            "time": 195.69211199999998,
            "velocity": 0.8031496062992126
          },
          {
            "duration": 0.2115382499999896,
            "durationTicks": 55,
            "midi": 65,
            "name": "F4",
            "ticks": 50970,
            "time": 196.03826549999997,
            "velocity": 0.7637795275590551
          },
          {
            "duration": 0.21923055000002023,
            "durationTicks": 57,
            "midi": 68,
            "name": "G#4",
            "ticks": 50970,
            "time": 196.03826549999997,
            "velocity": 0.5669291338582677
          },
          {
            "duration": 0.1653844500000048,
            "durationTicks": 43,
            "midi": 60,
            "name": "C4",
            "ticks": 50970,
            "time": 196.03826549999997,
            "velocity": 0.889763779527559
          },
          {
            "duration": 0.2076921000000027,
            "durationTicks": 54,
            "midi": 53,
            "name": "F3",
            "ticks": 50970,
            "time": 196.03826549999997,
            "velocity": 0.5669291338582677
          },
          {
            "duration": 0.24999975000000063,
            "durationTicks": 65,
            "midi": 65,
            "name": "F4",
            "ticks": 51060,
            "time": 196.38441899999998,
            "velocity": 0.7322834645669292
          },
          {
            "duration": 0.26153819999998973,
            "durationTicks": 68,
            "midi": 68,
            "name": "G#4",
            "ticks": 51060,
            "time": 196.38441899999998,
            "velocity": 0.5590551181102362
          },
          {
            "duration": 0.24999975000000063,
            "durationTicks": 65,
            "midi": 53,
            "name": "F3",
            "ticks": 51060,
            "time": 196.38441899999998,
            "velocity": 0.6062992125984252
          },
          {
            "duration": 0.2038459499999874,
            "durationTicks": 53,
            "midi": 60,
            "name": "C4",
            "ticks": 51060,
            "time": 196.38441899999998,
            "velocity": 0.8661417322834646
          },
          {
            "duration": 0.25769205000000284,
            "durationTicks": 67,
            "midi": 65,
            "name": "F4",
            "ticks": 51180,
            "time": 196.84595699999997,
            "velocity": 0.7322834645669292
          },
          {
            "duration": 0.27692279999999414,
            "durationTicks": 72,
            "midi": 68,
            "name": "G#4",
            "ticks": 51180,
            "time": 196.84595699999997,
            "velocity": 0.5669291338582677
          },
          {
            "duration": 0.2153843999999765,
            "durationTicks": 56,
            "midi": 60,
            "name": "C4",
            "ticks": 51180,
            "time": 196.84595699999997,
            "velocity": 0.8582677165354331
          },
          {
            "duration": 0.24999975000000063,
            "durationTicks": 65,
            "midi": 53,
            "name": "F3",
            "ticks": 51180,
            "time": 196.84595699999997,
            "velocity": 0.5984251968503937
          },
          {
            "duration": 0.11923065000001998,
            "durationTicks": 31,
            "midi": 68,
            "name": "G#4",
            "ticks": 51270,
            "time": 197.19211049999996,
            "velocity": 0.5905511811023622
          },
          {
            "duration": 0.1807690500000092,
            "durationTicks": 47,
            "midi": 65,
            "name": "F4",
            "ticks": 51270,
            "time": 197.19211049999996,
            "velocity": 0.7322834645669292
          },
          {
            "duration": 0.12307680000000687,
            "durationTicks": 32,
            "midi": 60,
            "name": "C4",
            "ticks": 51270,
            "time": 197.19211049999996,
            "velocity": 0.9291338582677166
          },
          {
            "duration": 0.21538440000000492,
            "durationTicks": 56,
            "midi": 53,
            "name": "F3",
            "ticks": 51270,
            "time": 197.19211049999996,
            "velocity": 0.6456692913385826
          }
        ]
      },
      {
        "channel": 4,
        "controlChanges": {
          "7": [
            {
              "number": 7,
              "ticks": 0,
              "time": 0,
              "value": 0.8661417322834646
            }
          ],
          "91": [
            {
              "number": 91,
              "ticks": 483,
              "time": 1.8576904499999998,
              "value": 0.6299212598425197
            }
          ],
          "93": [
            {
              "number": 93,
              "ticks": 483,
              "time": 1.8576904499999998,
              "value": 0.23622047244094488
            }
          ]
        },
        "pitchBends": [],
        "instrument": {
          "family": "synth effects",
          "name": "fx 5 (brightness)",
          "number": 100
        },
        "name": "Brightness",
        "notes": [
          {
            "duration": 0.09999990000000025,
            "durationTicks": 26,
            "midi": 65,
            "name": "F4",
            "ticks": 16680,
            "time": 64.15378199999999,
            "velocity": 0.6299212598425197
          },
          {
            "duration": 0.07307684999999253,
            "durationTicks": 19,
            "midi": 65,
            "name": "F4",
            "ticks": 17640,
            "time": 67.846086,
            "velocity": 0.6299212598425197
          },
          {
            "duration": 0.07692299999999364,
            "durationTicks": 20,
            "midi": 65,
            "name": "F4",
            "ticks": 18600,
            "time": 71.53838999999999,
            "velocity": 0.6299212598425197
          },
          {
            "duration": 0.09999989999997183,
            "durationTicks": 26,
            "midi": 65,
            "name": "F4",
            "ticks": 36840,
            "time": 141.692166,
            "velocity": 0.6299212598425197
          },
          {
            "duration": 0.07307685000000674,
            "durationTicks": 19,
            "midi": 65,
            "name": "F4",
            "ticks": 37800,
            "time": 145.38446999999996,
            "velocity": 0.6299212598425197
          },
          {
            "duration": 0.09999990000000025,
            "durationTicks": 26,
            "midi": 65,
            "name": "F4",
            "ticks": 38760,
            "time": 149.07677399999997,
            "velocity": 0.6299212598425197
          },
          {
            "duration": 0.07307685000000674,
            "durationTicks": 19,
            "midi": 65,
            "name": "F4",
            "ticks": 39720,
            "time": 152.76907799999998,
            "velocity": 0.6299212598425197
          },
          {
            "duration": 0.09999990000000025,
            "durationTicks": 26,
            "midi": 65,
            "name": "F4",
            "ticks": 56040,
            "time": 215.53824599999996,
            "velocity": 0.6299212598425197
          },
          {
            "duration": 0.07307685000000674,
            "durationTicks": 19,
            "midi": 65,
            "name": "F4",
            "ticks": 57000,
            "time": 219.23054999999997,
            "velocity": 0.6299212598425197
          },
          {
            "duration": 0.09999989999997183,
            "durationTicks": 26,
            "midi": 65,
            "name": "F4",
            "ticks": 57960,
            "time": 222.92285399999997,
            "velocity": 0.6299212598425197
          },
          {
            "duration": 0.07307685000003517,
            "durationTicks": 19,
            "midi": 65,
            "name": "F4",
            "ticks": 58920,
            "time": 226.61515799999995,
            "velocity": 0.6299212598425197
          },
          {
            "duration": 0.09999990000000025,
            "durationTicks": 26,
            "midi": 65,
            "name": "F4",
            "ticks": 64680,
            "time": 248.76898199999997,
            "velocity": 0.6299212598425197
          },
          {
            "duration": 0.07307684999997832,
            "durationTicks": 19,
            "midi": 65,
            "name": "F4",
            "ticks": 65640,
            "time": 252.46128599999997,
            "velocity": 0.6299212598425197
          },
          {
            "duration": 0.0999999000000571,
            "durationTicks": 26,
            "midi": 65,
            "name": "F4",
            "ticks": 66600,
            "time": 256.15358999999995,
            "velocity": 0.6299212598425197
          }
        ]
      },
      {
        "channel": 5,
        "controlChanges": {
          "0": [
            {
              "number": 0,
              "ticks": 0,
              "time": 0,
              "value": 0.06299212598425197
            }
          ],
          "7": [
            {
              "number": 7,
              "ticks": 0,
              "time": 0,
              "value": 0.7086614173228346
            }
          ],
          "32": [
            {
              "number": 32,
              "ticks": 1,
              "time": 0.0038461499999999996,
              "value": 0
            }
          ]
        },
        "pitchBends": [],
        "instrument": {
          "family": "sound effects",
          "name": "helicopter",
          "number": 125
        },
        "name": "Starship",
        "notes": [
          {
            "duration": 4.588456950000001,
            "durationTicks": 1193,
            "midi": 41,
            "name": "F2",
            "ticks": 14640,
            "time": 56.30763599999999,
            "velocity": 0.8661417322834646
          },
          {
            "duration": 4.588456950000008,
            "durationTicks": 1193,
            "midi": 41,
            "name": "F2",
            "ticks": 22320,
            "time": 85.84606799999999,
            "velocity": 0.8661417322834646
          },
          {
            "duration": 4.588456950000008,
            "durationTicks": 1193,
            "midi": 41,
            "name": "F2",
            "ticks": 26160,
            "time": 100.61528399999999,
            "velocity": 0.8661417322834646
          },
          {
            "duration": 4.588456949999994,
            "durationTicks": 1193,
            "midi": 41,
            "name": "F2",
            "ticks": 50160,
            "time": 192.92288399999998,
            "velocity": 0.8661417322834646
          },
          {
            "duration": 4.588456949999994,
            "durationTicks": 1193,
            "midi": 41,
            "name": "F2",
            "ticks": 58800,
            "time": 226.15361999999996,
            "velocity": 0.8661417322834646
          }
        ]
      },
      {
        "channel": 6,
        "controlChanges": {
          "0": [
            {
              "number": 0,
              "ticks": 0,
              "time": 0,
              "value": 0.047244094488188976
            }
          ],
          "7": [
            {
              "number": 7,
              "ticks": 0,
              "time": 0,
              "value": 0.6299212598425197
            }
          ],
          "32": [
            {
              "number": 32,
              "ticks": 1,
              "time": 0.0038461499999999996,
              "value": 0
            }
          ]
        },
        "pitchBends": [],
        "instrument": {
          "family": "sound effects",
          "name": "applause",
          "number": 126
        },
        "name": "Applause 2",
        "notes": [
          {
            "duration": 1.8461519999999998,
            "durationTicks": 480,
            "midi": 53,
            "name": "F3",
            "ticks": 480,
            "time": 1.8461519999999998,
            "velocity": 0.6299212598425197
          },
          {
            "duration": 1.846152,
            "durationTicks": 480,
            "midi": 53,
            "name": "F3",
            "ticks": 2400,
            "time": 9.230759999999998,
            "velocity": 0.6299212598425197
          }
        ]
      },
      {
        "channel": 7,
        "controlChanges": {
          "0": [
            {
              "number": 0,
              "ticks": 0,
              "time": 0,
              "value": 0.023622047244094488
            }
          ],
          "7": [
            {
              "number": 7,
              "ticks": 0,
              "time": 0,
              "value": 0.7874015748031497
            }
          ],
          "32": [
            {
              "number": 32,
              "ticks": 1,
              "time": 0.0038461499999999996,
              "value": 0
            }
          ]
        },
        "pitchBends": [],
        "instrument": {
          "family": "sound effects",
          "name": "gunshot",
          "number": 127
        },
        "name": "Explosion",
        "notes": [
          {
            "duration": 3.692304,
            "durationTicks": 960,
            "midi": 77,
            "name": "F5",
            "ticks": 4320,
            "time": 16.615367999999997,
            "velocity": 0.7874015748031497
          },
          {
            "duration": 3.692303999999993,
            "durationTicks": 960,
            "midi": 77,
            "name": "F5",
            "ticks": 8160,
            "time": 31.384583999999997,
            "velocity": 0.7874015748031497
          },
          {
            "duration": 3.692304,
            "durationTicks": 960,
            "midi": 77,
            "name": "F5",
            "ticks": 12000,
            "time": 46.15379999999999,
            "velocity": 0.7874015748031497
          },
          {
            "duration": 3.692304000000007,
            "durationTicks": 960,
            "midi": 77,
            "name": "F5",
            "ticks": 27360,
            "time": 105.23066399999999,
            "velocity": 0.7874015748031497
          },
          {
            "duration": 3.692304000000007,
            "durationTicks": 960,
            "midi": 77,
            "name": "F5",
            "ticks": 29280,
            "time": 112.61527199999999,
            "velocity": 0.7874015748031497
          },
          {
            "duration": 3.692304000000007,
            "durationTicks": 960,
            "midi": 77,
            "name": "F5",
            "ticks": 39840,
            "time": 153.23061599999997,
            "velocity": 0.7874015748031497
          },
          {
            "duration": 3.6923039999999787,
            "durationTicks": 960,
            "midi": 77,
            "name": "F5",
            "ticks": 41760,
            "time": 160.61522399999998,
            "velocity": 0.7874015748031497
          },
          {
            "duration": 3.692304000000007,
            "durationTicks": 960,
            "midi": 77,
            "name": "F5",
            "ticks": 43680,
            "time": 167.99983199999997,
            "velocity": 0.7874015748031497
          },
          {
            "duration": 3.6923039999999787,
            "durationTicks": 960,
            "midi": 77,
            "name": "F5",
            "ticks": 45600,
            "time": 175.38443999999998,
            "velocity": 0.7874015748031497
          },
          {
            "duration": 3.692304000000007,
            "durationTicks": 960,
            "midi": 77,
            "name": "F5",
            "ticks": 46560,
            "time": 179.07674399999996,
            "velocity": 0.7874015748031497
          },
          {
            "duration": 3.692304000000007,
            "durationTicks": 960,
            "midi": 77,
            "name": "F5",
            "ticks": 47520,
            "time": 182.76904799999997,
            "velocity": 0.7874015748031497
          }
        ]
      },
      {
        "channel": 8,
        "controlChanges": {
          "7": [
            {
              "number": 7,
              "ticks": 0,
              "time": 0,
              "value": 0.7874015748031497
            }
          ],
          "91": [
            {
              "number": 91,
              "ticks": 483,
              "time": 1.8576904499999998,
              "value": 0.3937007874015748
            }
          ],
          "93": [
            {
              "number": 93,
              "ticks": 483,
              "time": 1.8576904499999998,
              "value": 0.15748031496062992
            }
          ]
        },
        "pitchBends": [],
        "instrument": {
          "family": "synth lead",
          "name": "lead 2 (sawtooth)",
          "number": 81
        },
        "name": "Sawtooth bass",
        "notes": [
          {
            "duration": 0.3615381000000002,
            "durationTicks": 94,
            "midi": 29,
            "name": "F1",
            "ticks": 960,
            "time": 3.6923039999999996,
            "velocity": 0.4330708661417323
          },
          {
            "duration": 0.38846115000000037,
            "durationTicks": 101,
            "midi": 29,
            "name": "F1",
            "ticks": 1080,
            "time": 4.153841999999999,
            "velocity": 0.4645669291338583
          },
          {
            "duration": 0.40769190000000055,
            "durationTicks": 106,
            "midi": 29,
            "name": "F1",
            "ticks": 1200,
            "time": 4.615379999999999,
            "velocity": 0.5039370078740157
          },
          {
            "duration": 0.33461505,
            "durationTicks": 87,
            "midi": 29,
            "name": "F1",
            "ticks": 1320,
            "time": 5.076917999999999,
            "velocity": 0.4015748031496063
          },
          {
            "duration": 0.33846120000000024,
            "durationTicks": 88,
            "midi": 29,
            "name": "F1",
            "ticks": 1920,
            "time": 7.384607999999999,
            "velocity": 0.5118110236220472
          },
          {
            "duration": 0.3769226999999997,
            "durationTicks": 98,
            "midi": 29,
            "name": "F1",
            "ticks": 2040,
            "time": 7.846145999999999,
            "velocity": 0.4409448818897638
          },
          {
            "duration": 0.41153805000000077,
            "durationTicks": 107,
            "midi": 29,
            "name": "F1",
            "ticks": 2160,
            "time": 8.307683999999998,
            "velocity": 0.4881889763779528
          },
          {
            "duration": 0.33846119999999935,
            "durationTicks": 88,
            "midi": 29,
            "name": "F1",
            "ticks": 2280,
            "time": 8.769222,
            "velocity": 0.5196850393700787
          },
          {
            "duration": 0.3461534999999998,
            "durationTicks": 90,
            "midi": 29,
            "name": "F1",
            "ticks": 2880,
            "time": 11.076911999999998,
            "velocity": 0.4645669291338583
          },
          {
            "duration": 0.33461505,
            "durationTicks": 87,
            "midi": 29,
            "name": "F1",
            "ticks": 3000,
            "time": 11.53845,
            "velocity": 0.4881889763779528
          },
          {
            "duration": 0.3461534999999998,
            "durationTicks": 90,
            "midi": 29,
            "name": "F1",
            "ticks": 3120,
            "time": 11.999987999999998,
            "velocity": 0.47244094488188976
          },
          {
            "duration": 0.33461505,
            "durationTicks": 87,
            "midi": 29,
            "name": "F1",
            "ticks": 3240,
            "time": 12.461526,
            "velocity": 0.4881889763779528
          },
          {
            "duration": 0.3499996500000009,
            "durationTicks": 91,
            "midi": 29,
            "name": "F1",
            "ticks": 3360,
            "time": 12.923063999999998,
            "velocity": 0.48031496062992124
          },
          {
            "duration": 0.36538424999999997,
            "durationTicks": 95,
            "midi": 29,
            "name": "F1",
            "ticks": 3480,
            "time": 13.384602,
            "velocity": 0.4881889763779528
          },
          {
            "duration": 0.33846120000000113,
            "durationTicks": 88,
            "midi": 29,
            "name": "F1",
            "ticks": 3600,
            "time": 13.846139999999998,
            "velocity": 0.5275590551181102
          },
          {
            "duration": 0.3499996499999991,
            "durationTicks": 91,
            "midi": 29,
            "name": "F1",
            "ticks": 3720,
            "time": 14.307678,
            "velocity": 0.5039370078740157
          },
          {
            "duration": 0.35769194999999954,
            "durationTicks": 93,
            "midi": 29,
            "name": "F1",
            "ticks": 3840,
            "time": 14.769215999999998,
            "velocity": 0.5511811023622047
          },
          {
            "duration": 0.35769194999999776,
            "durationTicks": 93,
            "midi": 29,
            "name": "F1",
            "ticks": 3960,
            "time": 15.230754,
            "velocity": 0.5984251968503937
          },
          {
            "duration": 0.33461505,
            "durationTicks": 87,
            "midi": 29,
            "name": "F1",
            "ticks": 4080,
            "time": 15.692291999999998,
            "velocity": 0.5354330708661418
          },
          {
            "duration": 0.2846150999999999,
            "durationTicks": 74,
            "midi": 29,
            "name": "F1",
            "ticks": 4200,
            "time": 16.15383,
            "velocity": 0.5433070866141733
          }
        ]
      },
      {
        "channel": 11,
        "controlChanges": {
          "0": [
            {
              "number": 0,
              "ticks": 0,
              "time": 0,
              "value": 0.1889763779527559
            }
          ],
          "7": [
            {
              "number": 7,
              "ticks": 0,
              "time": 0,
              "value": 0.6299212598425197
            }
          ],
          "32": [
            {
              "number": 32,
              "ticks": 1,
              "time": 0.0038461499999999996,
              "value": 0
            }
          ],
          "91": [
            {
              "number": 91,
              "ticks": 480,
              "time": 1.8461519999999998,
              "value": 0.7874015748031497
            }
          ]
        },
        "pitchBends": [],
        "instrument": {
          "family": "organ",
          "name": "drawbar organ",
          "number": 16
        },
        "name": "Cheese organ",
        "notes": [
          {
            "duration": 0.23076900000000222,
            "durationTicks": 60,
            "midi": 77,
            "name": "F5",
            "ticks": 4320,
            "time": 16.615367999999997,
            "velocity": 0.6299212598425197
          },
          {
            "duration": 0.23076900000000222,
            "durationTicks": 60,
            "midi": 80,
            "name": "G#5",
            "ticks": 4320,
            "time": 16.615367999999997,
            "velocity": 0.6299212598425197
          },
          {
            "duration": 0.23076900000000222,
            "durationTicks": 60,
            "midi": 72,
            "name": "C5",
            "ticks": 4320,
            "time": 16.615367999999997,
            "velocity": 0.6299212598425197
          },
          {
            "duration": 0.23076900000000222,
            "durationTicks": 60,
            "midi": 80,
            "name": "G#5",
            "ticks": 4410,
            "time": 16.961521499999996,
            "velocity": 0.6299212598425197
          },
          {
            "duration": 0.23076900000000222,
            "durationTicks": 60,
            "midi": 77,
            "name": "F5",
            "ticks": 4410,
            "time": 16.961521499999996,
            "velocity": 0.6299212598425197
          },
          {
            "duration": 0.23076900000000222,
            "durationTicks": 60,
            "midi": 72,
            "name": "C5",
            "ticks": 4410,
            "time": 16.961521499999996,
            "velocity": 0.6299212598425197
          },
          {
            "duration": 0.23076900000000222,
            "durationTicks": 60,
            "midi": 77,
            "name": "F5",
            "ticks": 4500,
            "time": 17.307674999999996,
            "velocity": 0.6299212598425197
          },
          {
            "duration": 0.23076900000000222,
            "durationTicks": 60,
            "midi": 80,
            "name": "G#5",
            "ticks": 4500,
            "time": 17.307674999999996,
            "velocity": 0.6299212598425197
          },
          {
            "duration": 0.23076900000000222,
            "durationTicks": 60,
            "midi": 72,
            "name": "C5",
            "ticks": 4500,
            "time": 17.307674999999996,
            "velocity": 0.6299212598425197
          },
          {
            "duration": 0.23076900000000222,
            "durationTicks": 60,
            "midi": 80,
            "name": "G#5",
            "ticks": 4620,
            "time": 17.769212999999997,
            "velocity": 0.6299212598425197
          },
          {
            "duration": 0.23076900000000222,
            "durationTicks": 60,
            "midi": 77,
            "name": "F5",
            "ticks": 4620,
            "time": 17.769212999999997,
            "velocity": 0.6299212598425197
          },
          {
            "duration": 0.23076900000000222,
            "durationTicks": 60,
            "midi": 72,
            "name": "C5",
            "ticks": 4620,
            "time": 17.769212999999997,
            "velocity": 0.6299212598425197
          },
          {
            "duration": 0.23076900000000222,
            "durationTicks": 60,
            "midi": 77,
            "name": "F5",
            "ticks": 4710,
            "time": 18.115366499999997,
            "velocity": 0.6299212598425197
          },
          {
            "duration": 0.23076900000000222,
            "durationTicks": 60,
            "midi": 80,
            "name": "G#5",
            "ticks": 4710,
            "time": 18.115366499999997,
            "velocity": 0.6299212598425197
          },
          {
            "duration": 0.23076900000000222,
            "durationTicks": 60,
            "midi": 72,
            "name": "C5",
            "ticks": 4710,
            "time": 18.115366499999997,
            "velocity": 0.6299212598425197
          },
          {
            "duration": 0.23076900000000222,
            "durationTicks": 60,
            "midi": 75,
            "name": "D#5",
            "ticks": 4800,
            "time": 18.461519999999997,
            "velocity": 0.6299212598425197
          },
          {
            "duration": 0.23076900000000222,
            "durationTicks": 60,
            "midi": 79,
            "name": "G5",
            "ticks": 4800,
            "time": 18.461519999999997,
            "velocity": 0.6299212598425197
          },
          {
            "duration": 0.23076900000000222,
            "durationTicks": 60,
            "midi": 70,
            "name": "A#4",
            "ticks": 4800,
            "time": 18.461519999999997,
            "velocity": 0.6299212598425197
          },
          {
            "duration": 0.23076900000000222,
            "durationTicks": 60,
            "midi": 75,
            "name": "D#5",
            "ticks": 4890,
            "time": 18.807673499999996,
            "velocity": 0.6299212598425197
          },
          {
            "duration": 0.23076900000000222,
            "durationTicks": 60,
            "midi": 79,
            "name": "G5",
            "ticks": 4890,
            "time": 18.807673499999996,
            "velocity": 0.6299212598425197
          },
          {
            "duration": 0.23076900000000222,
            "durationTicks": 60,
            "midi": 70,
            "name": "A#4",
            "ticks": 4890,
            "time": 18.807673499999996,
            "velocity": 0.6299212598425197
          },
          {
            "duration": 0.23076899999999867,
            "durationTicks": 60,
            "midi": 73,
            "name": "C#5",
            "ticks": 4980,
            "time": 19.153827,
            "velocity": 0.6299212598425197
          },
          {
            "duration": 0.23076899999999867,
            "durationTicks": 60,
            "midi": 77,
            "name": "F5",
            "ticks": 4980,
            "time": 19.153827,
            "velocity": 0.6299212598425197
          },
          {
            "duration": 0.23076899999999867,
            "durationTicks": 60,
            "midi": 68,
            "name": "G#4",
            "ticks": 4980,
            "time": 19.153827,
            "velocity": 0.6299212598425197
          },
          {
            "duration": 0.23076900000000222,
            "durationTicks": 60,
            "midi": 77,
            "name": "F5",
            "ticks": 5100,
            "time": 19.615364999999997,
            "velocity": 0.6299212598425197
          },
          {
            "duration": 0.23076900000000222,
            "durationTicks": 60,
            "midi": 73,
            "name": "C#5",
            "ticks": 5100,
            "time": 19.615364999999997,
            "velocity": 0.6299212598425197
          },
          {
            "duration": 0.23076900000000222,
            "durationTicks": 60,
            "midi": 68,
            "name": "G#4",
            "ticks": 5100,
            "time": 19.615364999999997,
            "velocity": 0.6299212598425197
          },
          {
            "duration": 0.23076900000000222,
            "durationTicks": 60,
            "midi": 77,
            "name": "F5",
            "ticks": 5190,
            "time": 19.961518499999997,
            "velocity": 0.6299212598425197
          },
          {
            "duration": 0.23076900000000222,
            "durationTicks": 60,
            "midi": 73,
            "name": "C#5",
            "ticks": 5190,
            "time": 19.961518499999997,
            "velocity": 0.6299212598425197
          },
          {
            "duration": 0.23076900000000222,
            "durationTicks": 60,
            "midi": 68,
            "name": "G#4",
            "ticks": 5190,
            "time": 19.961518499999997,
            "velocity": 0.6299212598425197
          },
          {
            "duration": 0.23076900000000222,
            "durationTicks": 60,
            "midi": 77,
            "name": "F5",
            "ticks": 5280,
            "time": 20.307671999999997,
            "velocity": 0.6299212598425197
          },
          {
            "duration": 0.23076900000000222,
            "durationTicks": 60,
            "midi": 80,
            "name": "G#5",
            "ticks": 5280,
            "time": 20.307671999999997,
            "velocity": 0.6299212598425197
          },
          {
            "duration": 0.23076900000000222,
            "durationTicks": 60,
            "midi": 72,
            "name": "C5",
            "ticks": 5280,
            "time": 20.307671999999997,
            "velocity": 0.6299212598425197
          },
          {
            "duration": 0.23076900000000222,
            "durationTicks": 60,
            "midi": 77,
            "name": "F5",
            "ticks": 5370,
            "time": 20.653825499999996,
            "velocity": 0.6299212598425197
          },
          {
            "duration": 0.23076900000000222,
            "durationTicks": 60,
            "midi": 80,
            "name": "G#5",
            "ticks": 5370,
            "time": 20.653825499999996,
            "velocity": 0.6299212598425197
          },
          {
            "duration": 0.23076900000000222,
            "durationTicks": 60,
            "midi": 72,
            "name": "C5",
            "ticks": 5370,
            "time": 20.653825499999996,
            "velocity": 0.6299212598425197
          },
          {
            "duration": 0.23076900000000222,
            "durationTicks": 60,
            "midi": 77,
            "name": "F5",
            "ticks": 5460,
            "time": 20.999978999999996,
            "velocity": 0.6299212598425197
          },
          {
            "duration": 0.23076900000000222,
            "durationTicks": 60,
            "midi": 80,
            "name": "G#5",
            "ticks": 5460,
            "time": 20.999978999999996,
            "velocity": 0.6299212598425197
          },
          {
            "duration": 0.23076900000000222,
            "durationTicks": 60,
            "midi": 72,
            "name": "C5",
            "ticks": 5460,
            "time": 20.999978999999996,
            "velocity": 0.6299212598425197
          },
          {
            "duration": 0.23076900000000222,
            "durationTicks": 60,
            "midi": 77,
            "name": "F5",
            "ticks": 5580,
            "time": 21.461516999999997,
            "velocity": 0.6299212598425197
          },
          {
            "duration": 0.23076900000000222,
            "durationTicks": 60,
            "midi": 80,
            "name": "G#5",
            "ticks": 5580,
            "time": 21.461516999999997,
            "velocity": 0.6299212598425197
          },
          {
            "duration": 0.23076900000000222,
            "durationTicks": 60,
            "midi": 72,
            "name": "C5",
            "ticks": 5580,
            "time": 21.461516999999997,
            "velocity": 0.6299212598425197
          },
          {
            "duration": 0.23076900000000222,
            "durationTicks": 60,
            "midi": 77,
            "name": "F5",
            "ticks": 5670,
            "time": 21.807670499999997,
            "velocity": 0.6299212598425197
          },
          {
            "duration": 0.23076900000000222,
            "durationTicks": 60,
            "midi": 80,
            "name": "G#5",
            "ticks": 5670,
            "time": 21.807670499999997,
            "velocity": 0.6299212598425197
          },
          {
            "duration": 0.23076900000000222,
            "durationTicks": 60,
            "midi": 72,
            "name": "C5",
            "ticks": 5670,
            "time": 21.807670499999997,
            "velocity": 0.6299212598425197
          },
          {
            "duration": 0.23076900000000222,
            "durationTicks": 60,
            "midi": 79,
            "name": "G5",
            "ticks": 5760,
            "time": 22.153823999999997,
            "velocity": 0.6299212598425197
          },
          {
            "duration": 0.23076900000000222,
            "durationTicks": 60,
            "midi": 75,
            "name": "D#5",
            "ticks": 5760,
            "time": 22.153823999999997,
            "velocity": 0.6299212598425197
          },
          {
            "duration": 0.23076900000000222,
            "durationTicks": 60,
            "midi": 70,
            "name": "A#4",
            "ticks": 5760,
            "time": 22.153823999999997,
            "velocity": 0.6299212598425197
          },
          {
            "duration": 0.23076900000000222,
            "durationTicks": 60,
            "midi": 70,
            "name": "A#4",
            "ticks": 5850,
            "time": 22.499977499999996,
            "velocity": 0.6299212598425197
          },
          {
            "duration": 0.23076900000000222,
            "durationTicks": 60,
            "midi": 79,
            "name": "G5",
            "ticks": 5850,
            "time": 22.499977499999996,
            "velocity": 0.6299212598425197
          },
          {
            "duration": 0.23076900000000222,
            "durationTicks": 60,
            "midi": 75,
            "name": "D#5",
            "ticks": 5850,
            "time": 22.499977499999996,
            "velocity": 0.6299212598425197
          },
          {
            "duration": 0.23076900000000222,
            "durationTicks": 60,
            "midi": 73,
            "name": "C#5",
            "ticks": 5940,
            "time": 22.846130999999996,
            "velocity": 0.6299212598425197
          },
          {
            "duration": 0.23076900000000222,
            "durationTicks": 60,
            "midi": 77,
            "name": "F5",
            "ticks": 5940,
            "time": 22.846130999999996,
            "velocity": 0.6299212598425197
          },
          {
            "duration": 0.23076900000000222,
            "durationTicks": 60,
            "midi": 80,
            "name": "G#5",
            "ticks": 5940,
            "time": 22.846130999999996,
            "velocity": 0.6299212598425197
          },
          {
            "duration": 0.23076900000000222,
            "durationTicks": 60,
            "midi": 68,
            "name": "G#4",
            "ticks": 5940,
            "time": 22.846130999999996,
            "velocity": 0.6299212598425197
          },
          {
            "duration": 0.23076900000000222,
            "durationTicks": 60,
            "midi": 68,
            "name": "G#4",
            "ticks": 6060,
            "time": 23.307668999999997,
            "velocity": 0.6299212598425197
          },
          {
            "duration": 0.23076900000000222,
            "durationTicks": 60,
            "midi": 77,
            "name": "F5",
            "ticks": 6060,
            "time": 23.307668999999997,
            "velocity": 0.6299212598425197
          },
          {
            "duration": 0.23076900000000222,
            "durationTicks": 60,
            "midi": 73,
            "name": "C#5",
            "ticks": 6060,
            "time": 23.307668999999997,
            "velocity": 0.6299212598425197
          },
          {
            "duration": 0.23076900000000222,
            "durationTicks": 60,
            "midi": 80,
            "name": "G#5",
            "ticks": 6060,
            "time": 23.307668999999997,
            "velocity": 0.6299212598425197
          },
          {
            "duration": 0.23076900000000222,
            "durationTicks": 60,
            "midi": 77,
            "name": "F5",
            "ticks": 6150,
            "time": 23.653822499999997,
            "velocity": 0.6299212598425197
          },
          {
            "duration": 0.23076900000000222,
            "durationTicks": 60,
            "midi": 68,
            "name": "G#4",
            "ticks": 6150,
            "time": 23.653822499999997,
            "velocity": 0.6299212598425197
          },
          {
            "duration": 0.23076900000000222,
            "durationTicks": 60,
            "midi": 80,
            "name": "G#5",
            "ticks": 6150,
            "time": 23.653822499999997,
            "velocity": 0.6299212598425197
          },
          {
            "duration": 0.23076900000000222,
            "durationTicks": 60,
            "midi": 73,
            "name": "C#5",
            "ticks": 6150,
            "time": 23.653822499999997,
            "velocity": 0.6299212598425197
          },
          {
            "duration": 0.23076900000000222,
            "durationTicks": 60,
            "midi": 77,
            "name": "F5",
            "ticks": 6240,
            "time": 23.999975999999997,
            "velocity": 0.6299212598425197
          },
          {
            "duration": 0.23076900000000222,
            "durationTicks": 60,
            "midi": 80,
            "name": "G#5",
            "ticks": 6240,
            "time": 23.999975999999997,
            "velocity": 0.6299212598425197
          },
          {
            "duration": 0.23076900000000222,
            "durationTicks": 60,
            "midi": 72,
            "name": "C5",
            "ticks": 6240,
            "time": 23.999975999999997,
            "velocity": 0.6299212598425197
          },
          {
            "duration": 0.23076900000000222,
            "durationTicks": 60,
            "midi": 80,
            "name": "G#5",
            "ticks": 6330,
            "time": 24.346129499999996,
            "velocity": 0.6299212598425197
          },
          {
            "duration": 0.23076900000000222,
            "durationTicks": 60,
            "midi": 77,
            "name": "F5",
            "ticks": 6330,
            "time": 24.346129499999996,
            "velocity": 0.6299212598425197
          },
          {
            "duration": 0.23076900000000222,
            "durationTicks": 60,
            "midi": 72,
            "name": "C5",
            "ticks": 6330,
            "time": 24.346129499999996,
            "velocity": 0.6299212598425197
          },
          {
            "duration": 0.23076900000000222,
            "durationTicks": 60,
            "midi": 77,
            "name": "F5",
            "ticks": 6420,
            "time": 24.692282999999996,
            "velocity": 0.6299212598425197
          },
          {
            "duration": 0.23076900000000222,
            "durationTicks": 60,
            "midi": 80,
            "name": "G#5",
            "ticks": 6420,
            "time": 24.692282999999996,
            "velocity": 0.6299212598425197
          },
          {
            "duration": 0.23076900000000222,
            "durationTicks": 60,
            "midi": 72,
            "name": "C5",
            "ticks": 6420,
            "time": 24.692282999999996,
            "velocity": 0.6299212598425197
          },
          {
            "duration": 0.23076899999999867,
            "durationTicks": 60,
            "midi": 80,
            "name": "G#5",
            "ticks": 6540,
            "time": 25.153820999999997,
            "velocity": 0.6299212598425197
          },
          {
            "duration": 0.23076899999999867,
            "durationTicks": 60,
            "midi": 77,
            "name": "F5",
            "ticks": 6540,
            "time": 25.153820999999997,
            "velocity": 0.6299212598425197
          },
          {
            "duration": 0.23076899999999867,
            "durationTicks": 60,
            "midi": 72,
            "name": "C5",
            "ticks": 6540,
            "time": 25.153820999999997,
            "velocity": 0.6299212598425197
          },
          {
            "duration": 0.23076900000000222,
            "durationTicks": 60,
            "midi": 77,
            "name": "F5",
            "ticks": 6630,
            "time": 25.499974499999997,
            "velocity": 0.6299212598425197
          },
          {
            "duration": 0.23076900000000222,
            "durationTicks": 60,
            "midi": 80,
            "name": "G#5",
            "ticks": 6630,
            "time": 25.499974499999997,
            "velocity": 0.6299212598425197
          },
          {
            "duration": 0.23076900000000222,
            "durationTicks": 60,
            "midi": 72,
            "name": "C5",
            "ticks": 6630,
            "time": 25.499974499999997,
            "velocity": 0.6299212598425197
          },
          {
            "duration": 0.23076900000000222,
            "durationTicks": 60,
            "midi": 75,
            "name": "D#5",
            "ticks": 6720,
            "time": 25.846127999999997,
            "velocity": 0.6299212598425197
          },
          {
            "duration": 0.23076900000000222,
            "durationTicks": 60,
            "midi": 79,
            "name": "G5",
            "ticks": 6720,
            "time": 25.846127999999997,
            "velocity": 0.6299212598425197
          },
          {
            "duration": 0.23076900000000222,
            "durationTicks": 60,
            "midi": 70,
            "name": "A#4",
            "ticks": 6720,
            "time": 25.846127999999997,
            "velocity": 0.6299212598425197
          },
          {
            "duration": 0.23076900000000222,
            "durationTicks": 60,
            "midi": 75,
            "name": "D#5",
            "ticks": 6810,
            "time": 26.192281499999996,
            "velocity": 0.6299212598425197
          },
          {
            "duration": 0.23076900000000222,
            "durationTicks": 60,
            "midi": 79,
            "name": "G5",
            "ticks": 6810,
            "time": 26.192281499999996,
            "velocity": 0.6299212598425197
          },
          {
            "duration": 0.23076900000000222,
            "durationTicks": 60,
            "midi": 70,
            "name": "A#4",
            "ticks": 6810,
            "time": 26.192281499999996,
            "velocity": 0.6299212598425197
          },
          {
            "duration": 0.23076900000000222,
            "durationTicks": 60,
            "midi": 73,
            "name": "C#5",
            "ticks": 6900,
            "time": 26.538434999999996,
            "velocity": 0.6299212598425197
          },
          {
            "duration": 0.23076900000000222,
            "durationTicks": 60,
            "midi": 77,
            "name": "F5",
            "ticks": 6900,
            "time": 26.538434999999996,
            "velocity": 0.6299212598425197
          },
          {
            "duration": 0.23076900000000222,
            "durationTicks": 60,
            "midi": 68,
            "name": "G#4",
            "ticks": 6900,
            "time": 26.538434999999996,
            "velocity": 0.6299212598425197
          },
          {
            "duration": 0.23076899999999867,
            "durationTicks": 60,
            "midi": 77,
            "name": "F5",
            "ticks": 7020,
            "time": 26.999972999999997,
            "velocity": 0.6299212598425197
          },
          {
            "duration": 0.23076899999999867,
            "durationTicks": 60,
            "midi": 73,
            "name": "C#5",
            "ticks": 7020,
            "time": 26.999972999999997,
            "velocity": 0.6299212598425197
          },
          {
            "duration": 0.23076899999999867,
            "durationTicks": 60,
            "midi": 68,
            "name": "G#4",
            "ticks": 7020,
            "time": 26.999972999999997,
            "velocity": 0.6299212598425197
          },
          {
            "duration": 0.23076899999999867,
            "durationTicks": 60,
            "midi": 77,
            "name": "F5",
            "ticks": 7110,
            "time": 27.346126499999997,
            "velocity": 0.6299212598425197
          },
          {
            "duration": 0.23076899999999867,
            "durationTicks": 60,
            "midi": 73,
            "name": "C#5",
            "ticks": 7110,
            "time": 27.346126499999997,
            "velocity": 0.6299212598425197
          },
          {
            "duration": 0.23076899999999867,
            "durationTicks": 60,
            "midi": 68,
            "name": "G#4",
            "ticks": 7110,
            "time": 27.346126499999997,
            "velocity": 0.6299212598425197
          },
          {
            "duration": 0.23076899999999867,
            "durationTicks": 60,
            "midi": 77,
            "name": "F5",
            "ticks": 7200,
            "time": 27.692279999999997,
            "velocity": 0.6299212598425197
          },
          {
            "duration": 0.23076899999999867,
            "durationTicks": 60,
            "midi": 80,
            "name": "G#5",
            "ticks": 7200,
            "time": 27.692279999999997,
            "velocity": 0.6299212598425197
          },
          {
            "duration": 0.23076899999999867,
            "durationTicks": 60,
            "midi": 72,
            "name": "C5",
            "ticks": 7200,
            "time": 27.692279999999997,
            "velocity": 0.6299212598425197
          },
          {
            "duration": 0.23076900000000222,
            "durationTicks": 60,
            "midi": 77,
            "name": "F5",
            "ticks": 7290,
            "time": 28.038433499999996,
            "velocity": 0.6299212598425197
          },
          {
            "duration": 0.23076900000000222,
            "durationTicks": 60,
            "midi": 80,
            "name": "G#5",
            "ticks": 7290,
            "time": 28.038433499999996,
            "velocity": 0.6299212598425197
          },
          {
            "duration": 0.23076900000000222,
            "durationTicks": 60,
            "midi": 72,
            "name": "C5",
            "ticks": 7290,
            "time": 28.038433499999996,
            "velocity": 0.6299212598425197
          },
          {
            "duration": 0.23076900000000222,
            "durationTicks": 60,
            "midi": 77,
            "name": "F5",
            "ticks": 7380,
            "time": 28.384586999999996,
            "velocity": 0.6299212598425197
          },
          {
            "duration": 0.23076900000000222,
            "durationTicks": 60,
            "midi": 80,
            "name": "G#5",
            "ticks": 7380,
            "time": 28.384586999999996,
            "velocity": 0.6299212598425197
          },
          {
            "duration": 0.23076900000000222,
            "durationTicks": 60,
            "midi": 72,
            "name": "C5",
            "ticks": 7380,
            "time": 28.384586999999996,
            "velocity": 0.6299212598425197
          },
          {
            "duration": 0.23076899999999867,
            "durationTicks": 60,
            "midi": 77,
            "name": "F5",
            "ticks": 7500,
            "time": 28.846124999999997,
            "velocity": 0.6299212598425197
          },
          {
            "duration": 0.23076899999999867,
            "durationTicks": 60,
            "midi": 80,
            "name": "G#5",
            "ticks": 7500,
            "time": 28.846124999999997,
            "velocity": 0.6299212598425197
          },
          {
            "duration": 0.23076899999999867,
            "durationTicks": 60,
            "midi": 72,
            "name": "C5",
            "ticks": 7500,
            "time": 28.846124999999997,
            "velocity": 0.6299212598425197
          },
          {
            "duration": 0.23076899999999867,
            "durationTicks": 60,
            "midi": 77,
            "name": "F5",
            "ticks": 7590,
            "time": 29.192278499999997,
            "velocity": 0.6299212598425197
          },
          {
            "duration": 0.23076899999999867,
            "durationTicks": 60,
            "midi": 80,
            "name": "G#5",
            "ticks": 7590,
            "time": 29.192278499999997,
            "velocity": 0.6299212598425197
          },
          {
            "duration": 0.23076899999999867,
            "durationTicks": 60,
            "midi": 72,
            "name": "C5",
            "ticks": 7590,
            "time": 29.192278499999997,
            "velocity": 0.6299212598425197
          },
          {
            "duration": 0.23076899999999867,
            "durationTicks": 60,
            "midi": 79,
            "name": "G5",
            "ticks": 7680,
            "time": 29.538431999999997,
            "velocity": 0.6299212598425197
          },
          {
            "duration": 0.23076899999999867,
            "durationTicks": 60,
            "midi": 75,
            "name": "D#5",
            "ticks": 7680,
            "time": 29.538431999999997,
            "velocity": 0.6299212598425197
          },
          {
            "duration": 0.23076899999999867,
            "durationTicks": 60,
            "midi": 70,
            "name": "A#4",
            "ticks": 7680,
            "time": 29.538431999999997,
            "velocity": 0.6299212598425197
          },
          {
            "duration": 0.23076899999999867,
            "durationTicks": 60,
            "midi": 70,
            "name": "A#4",
            "ticks": 7770,
            "time": 29.884585499999996,
            "velocity": 0.6299212598425197
          },
          {
            "duration": 0.23076899999999867,
            "durationTicks": 60,
            "midi": 79,
            "name": "G5",
            "ticks": 7770,
            "time": 29.884585499999996,
            "velocity": 0.6299212598425197
          },
          {
            "duration": 0.23076899999999867,
            "durationTicks": 60,
            "midi": 75,
            "name": "D#5",
            "ticks": 7770,
            "time": 29.884585499999996,
            "velocity": 0.6299212598425197
          },
          {
            "duration": 0.23076900000000222,
            "durationTicks": 60,
            "midi": 73,
            "name": "C#5",
            "ticks": 7860,
            "time": 30.230738999999996,
            "velocity": 0.6299212598425197
          },
          {
            "duration": 0.23076900000000222,
            "durationTicks": 60,
            "midi": 77,
            "name": "F5",
            "ticks": 7860,
            "time": 30.230738999999996,
            "velocity": 0.6299212598425197
          },
          {
            "duration": 0.23076900000000222,
            "durationTicks": 60,
            "midi": 80,
            "name": "G#5",
            "ticks": 7860,
            "time": 30.230738999999996,
            "velocity": 0.6299212598425197
          },
          {
            "duration": 0.23076900000000222,
            "durationTicks": 60,
            "midi": 68,
            "name": "G#4",
            "ticks": 7860,
            "time": 30.230738999999996,
            "velocity": 0.6299212598425197
          },
          {
            "duration": 0.23076899999999867,
            "durationTicks": 60,
            "midi": 68,
            "name": "G#4",
            "ticks": 7980,
            "time": 30.692276999999997,
            "velocity": 0.6299212598425197
          },
          {
            "duration": 0.23076899999999867,
            "durationTicks": 60,
            "midi": 77,
            "name": "F5",
            "ticks": 7980,
            "time": 30.692276999999997,
            "velocity": 0.6299212598425197
          },
          {
            "duration": 0.23076899999999867,
            "durationTicks": 60,
            "midi": 73,
            "name": "C#5",
            "ticks": 7980,
            "time": 30.692276999999997,
            "velocity": 0.6299212598425197
          },
          {
            "duration": 0.23076899999999867,
            "durationTicks": 60,
            "midi": 80,
            "name": "G#5",
            "ticks": 7980,
            "time": 30.692276999999997,
            "velocity": 0.6299212598425197
          },
          {
            "duration": 0.23076899999999867,
            "durationTicks": 60,
            "midi": 77,
            "name": "F5",
            "ticks": 8070,
            "time": 31.038430499999997,
            "velocity": 0.6299212598425197
          },
          {
            "duration": 0.23076899999999867,
            "durationTicks": 60,
            "midi": 68,
            "name": "G#4",
            "ticks": 8070,
            "time": 31.038430499999997,
            "velocity": 0.6299212598425197
          },
          {
            "duration": 0.23076899999999867,
            "durationTicks": 60,
            "midi": 80,
            "name": "G#5",
            "ticks": 8070,
            "time": 31.038430499999997,
            "velocity": 0.6299212598425197
          },
          {
            "duration": 0.23076899999999867,
            "durationTicks": 60,
            "midi": 73,
            "name": "C#5",
            "ticks": 8070,
            "time": 31.038430499999997,
            "velocity": 0.6299212598425197
          },
          {
            "duration": 0.23076899999999867,
            "durationTicks": 60,
            "midi": 77,
            "name": "F5",
            "ticks": 8160,
            "time": 31.384583999999997,
            "velocity": 0.6299212598425197
          },
          {
            "duration": 0.23076899999999867,
            "durationTicks": 60,
            "midi": 80,
            "name": "G#5",
            "ticks": 8160,
            "time": 31.384583999999997,
            "velocity": 0.6299212598425197
          },
          {
            "duration": 0.23076899999999867,
            "durationTicks": 60,
            "midi": 72,
            "name": "C5",
            "ticks": 8160,
            "time": 31.384583999999997,
            "velocity": 0.6299212598425197
          },
          {
            "duration": 0.23076899999999867,
            "durationTicks": 60,
            "midi": 80,
            "name": "G#5",
            "ticks": 8250,
            "time": 31.730737499999996,
            "velocity": 0.6299212598425197
          },
          {
            "duration": 0.23076899999999867,
            "durationTicks": 60,
            "midi": 77,
            "name": "F5",
            "ticks": 8250,
            "time": 31.730737499999996,
            "velocity": 0.6299212598425197
          },
          {
            "duration": 0.23076899999999867,
            "durationTicks": 60,
            "midi": 72,
            "name": "C5",
            "ticks": 8250,
            "time": 31.730737499999996,
            "velocity": 0.6299212598425197
          },
          {
            "duration": 0.23076899999999512,
            "durationTicks": 60,
            "midi": 77,
            "name": "F5",
            "ticks": 8340,
            "time": 32.076890999999996,
            "velocity": 0.6299212598425197
          },
          {
            "duration": 0.23076899999999512,
            "durationTicks": 60,
            "midi": 80,
            "name": "G#5",
            "ticks": 8340,
            "time": 32.076890999999996,
            "velocity": 0.6299212598425197
          },
          {
            "duration": 0.23076899999999512,
            "durationTicks": 60,
            "midi": 72,
            "name": "C5",
            "ticks": 8340,
            "time": 32.076890999999996,
            "velocity": 0.6299212598425197
          },
          {
            "duration": 0.23076900000000222,
            "durationTicks": 60,
            "midi": 80,
            "name": "G#5",
            "ticks": 8460,
            "time": 32.538428999999994,
            "velocity": 0.6299212598425197
          },
          {
            "duration": 0.23076900000000222,
            "durationTicks": 60,
            "midi": 77,
            "name": "F5",
            "ticks": 8460,
            "time": 32.538428999999994,
            "velocity": 0.6299212598425197
          },
          {
            "duration": 0.23076900000000222,
            "durationTicks": 60,
            "midi": 72,
            "name": "C5",
            "ticks": 8460,
            "time": 32.538428999999994,
            "velocity": 0.6299212598425197
          },
          {
            "duration": 0.23076900000000222,
            "durationTicks": 60,
            "midi": 77,
            "name": "F5",
            "ticks": 8550,
            "time": 32.88458249999999,
            "velocity": 0.6299212598425197
          },
          {
            "duration": 0.23076900000000222,
            "durationTicks": 60,
            "midi": 80,
            "name": "G#5",
            "ticks": 8550,
            "time": 32.88458249999999,
            "velocity": 0.6299212598425197
          },
          {
            "duration": 0.23076900000000222,
            "durationTicks": 60,
            "midi": 72,
            "name": "C5",
            "ticks": 8550,
            "time": 32.88458249999999,
            "velocity": 0.6299212598425197
          },
          {
            "duration": 0.23076900000000222,
            "durationTicks": 60,
            "midi": 75,
            "name": "D#5",
            "ticks": 8640,
            "time": 33.23073599999999,
            "velocity": 0.6299212598425197
          },
          {
            "duration": 0.23076900000000222,
            "durationTicks": 60,
            "midi": 79,
            "name": "G5",
            "ticks": 8640,
            "time": 33.23073599999999,
            "velocity": 0.6299212598425197
          },
          {
            "duration": 0.23076900000000222,
            "durationTicks": 60,
            "midi": 70,
            "name": "A#4",
            "ticks": 8640,
            "time": 33.23073599999999,
            "velocity": 0.6299212598425197
          },
          {
            "duration": 0.23076900000000222,
            "durationTicks": 60,
            "midi": 75,
            "name": "D#5",
            "ticks": 8730,
            "time": 33.57688949999999,
            "velocity": 0.6299212598425197
          },
          {
            "duration": 0.23076900000000222,
            "durationTicks": 60,
            "midi": 79,
            "name": "G5",
            "ticks": 8730,
            "time": 33.57688949999999,
            "velocity": 0.6299212598425197
          },
          {
            "duration": 0.23076900000000222,
            "durationTicks": 60,
            "midi": 70,
            "name": "A#4",
            "ticks": 8730,
            "time": 33.57688949999999,
            "velocity": 0.6299212598425197
          },
          {
            "duration": 0.23076900000000222,
            "durationTicks": 60,
            "midi": 73,
            "name": "C#5",
            "ticks": 8820,
            "time": 33.92304299999999,
            "velocity": 0.6299212598425197
          },
          {
            "duration": 0.23076900000000222,
            "durationTicks": 60,
            "midi": 77,
            "name": "F5",
            "ticks": 8820,
            "time": 33.92304299999999,
            "velocity": 0.6299212598425197
          },
          {
            "duration": 0.23076900000000222,
            "durationTicks": 60,
            "midi": 68,
            "name": "G#4",
            "ticks": 8820,
            "time": 33.92304299999999,
            "velocity": 0.6299212598425197
          },
          {
            "duration": 0.23076900000000222,
            "durationTicks": 60,
            "midi": 77,
            "name": "F5",
            "ticks": 8940,
            "time": 34.38458099999999,
            "velocity": 0.6299212598425197
          },
          {
            "duration": 0.23076900000000222,
            "durationTicks": 60,
            "midi": 73,
            "name": "C#5",
            "ticks": 8940,
            "time": 34.38458099999999,
            "velocity": 0.6299212598425197
          },
          {
            "duration": 0.23076900000000222,
            "durationTicks": 60,
            "midi": 68,
            "name": "G#4",
            "ticks": 8940,
            "time": 34.38458099999999,
            "velocity": 0.6299212598425197
          },
          {
            "duration": 0.23076900000000222,
            "durationTicks": 60,
            "midi": 77,
            "name": "F5",
            "ticks": 9030,
            "time": 34.73073449999999,
            "velocity": 0.6299212598425197
          },
          {
            "duration": 0.23076900000000222,
            "durationTicks": 60,
            "midi": 73,
            "name": "C#5",
            "ticks": 9030,
            "time": 34.73073449999999,
            "velocity": 0.6299212598425197
          },
          {
            "duration": 0.23076900000000222,
            "durationTicks": 60,
            "midi": 68,
            "name": "G#4",
            "ticks": 9030,
            "time": 34.73073449999999,
            "velocity": 0.6299212598425197
          },
          {
            "duration": 0.23076900000000222,
            "durationTicks": 60,
            "midi": 77,
            "name": "F5",
            "ticks": 9120,
            "time": 35.07688799999999,
            "velocity": 0.6299212598425197
          },
          {
            "duration": 0.23076900000000222,
            "durationTicks": 60,
            "midi": 80,
            "name": "G#5",
            "ticks": 9120,
            "time": 35.07688799999999,
            "velocity": 0.6299212598425197
          },
          {
            "duration": 0.23076900000000222,
            "durationTicks": 60,
            "midi": 72,
            "name": "C5",
            "ticks": 9120,
            "time": 35.07688799999999,
            "velocity": 0.6299212598425197
          },
          {
            "duration": 0.23076900000000222,
            "durationTicks": 60,
            "midi": 77,
            "name": "F5",
            "ticks": 9210,
            "time": 35.42304149999999,
            "velocity": 0.6299212598425197
          },
          {
            "duration": 0.23076900000000222,
            "durationTicks": 60,
            "midi": 80,
            "name": "G#5",
            "ticks": 9210,
            "time": 35.42304149999999,
            "velocity": 0.6299212598425197
          },
          {
            "duration": 0.23076900000000222,
            "durationTicks": 60,
            "midi": 72,
            "name": "C5",
            "ticks": 9210,
            "time": 35.42304149999999,
            "velocity": 0.6299212598425197
          },
          {
            "duration": 0.23076900000000222,
            "durationTicks": 60,
            "midi": 77,
            "name": "F5",
            "ticks": 9300,
            "time": 35.76919499999999,
            "velocity": 0.6299212598425197
          },
          {
            "duration": 0.23076900000000222,
            "durationTicks": 60,
            "midi": 80,
            "name": "G#5",
            "ticks": 9300,
            "time": 35.76919499999999,
            "velocity": 0.6299212598425197
          },
          {
            "duration": 0.23076900000000222,
            "durationTicks": 60,
            "midi": 72,
            "name": "C5",
            "ticks": 9300,
            "time": 35.76919499999999,
            "velocity": 0.6299212598425197
          },
          {
            "duration": 0.23076900000000222,
            "durationTicks": 60,
            "midi": 77,
            "name": "F5",
            "ticks": 9420,
            "time": 36.230732999999994,
            "velocity": 0.6299212598425197
          },
          {
            "duration": 0.23076900000000222,
            "durationTicks": 60,
            "midi": 80,
            "name": "G#5",
            "ticks": 9420,
            "time": 36.230732999999994,
            "velocity": 0.6299212598425197
          },
          {
            "duration": 0.23076900000000222,
            "durationTicks": 60,
            "midi": 72,
            "name": "C5",
            "ticks": 9420,
            "time": 36.230732999999994,
            "velocity": 0.6299212598425197
          },
          {
            "duration": 0.23076900000000222,
            "durationTicks": 60,
            "midi": 77,
            "name": "F5",
            "ticks": 9510,
            "time": 36.57688649999999,
            "velocity": 0.6299212598425197
          },
          {
            "duration": 0.23076900000000222,
            "durationTicks": 60,
            "midi": 80,
            "name": "G#5",
            "ticks": 9510,
            "time": 36.57688649999999,
            "velocity": 0.6299212598425197
          },
          {
            "duration": 0.23076900000000222,
            "durationTicks": 60,
            "midi": 72,
            "name": "C5",
            "ticks": 9510,
            "time": 36.57688649999999,
            "velocity": 0.6299212598425197
          },
          {
            "duration": 0.23076900000000222,
            "durationTicks": 60,
            "midi": 79,
            "name": "G5",
            "ticks": 9600,
            "time": 36.92303999999999,
            "velocity": 0.6299212598425197
          },
          {
            "duration": 0.23076900000000222,
            "durationTicks": 60,
            "midi": 75,
            "name": "D#5",
            "ticks": 9600,
            "time": 36.92303999999999,
            "velocity": 0.6299212598425197
          },
          {
            "duration": 0.23076900000000222,
            "durationTicks": 60,
            "midi": 70,
            "name": "A#4",
            "ticks": 9600,
            "time": 36.92303999999999,
            "velocity": 0.6299212598425197
          },
          {
            "duration": 0.23076900000000222,
            "durationTicks": 60,
            "midi": 70,
            "name": "A#4",
            "ticks": 9690,
            "time": 37.26919349999999,
            "velocity": 0.6299212598425197
          },
          {
            "duration": 0.23076900000000222,
            "durationTicks": 60,
            "midi": 79,
            "name": "G5",
            "ticks": 9690,
            "time": 37.26919349999999,
            "velocity": 0.6299212598425197
          },
          {
            "duration": 0.23076900000000222,
            "durationTicks": 60,
            "midi": 75,
            "name": "D#5",
            "ticks": 9690,
            "time": 37.26919349999999,
            "velocity": 0.6299212598425197
          },
          {
            "duration": 0.23076900000000222,
            "durationTicks": 60,
            "midi": 73,
            "name": "C#5",
            "ticks": 9780,
            "time": 37.61534699999999,
            "velocity": 0.6299212598425197
          },
          {
            "duration": 0.23076900000000222,
            "durationTicks": 60,
            "midi": 77,
            "name": "F5",
            "ticks": 9780,
            "time": 37.61534699999999,
            "velocity": 0.6299212598425197
          },
          {
            "duration": 0.23076900000000222,
            "durationTicks": 60,
            "midi": 80,
            "name": "G#5",
            "ticks": 9780,
            "time": 37.61534699999999,
            "velocity": 0.6299212598425197
          },
          {
            "duration": 0.23076900000000222,
            "durationTicks": 60,
            "midi": 68,
            "name": "G#4",
            "ticks": 9780,
            "time": 37.61534699999999,
            "velocity": 0.6299212598425197
          },
          {
            "duration": 0.23076900000000222,
            "durationTicks": 60,
            "midi": 68,
            "name": "G#4",
            "ticks": 9900,
            "time": 38.07688499999999,
            "velocity": 0.6299212598425197
          },
          {
            "duration": 0.23076900000000222,
            "durationTicks": 60,
            "midi": 77,
            "name": "F5",
            "ticks": 9900,
            "time": 38.07688499999999,
            "velocity": 0.6299212598425197
          },
          {
            "duration": 0.23076900000000222,
            "durationTicks": 60,
            "midi": 73,
            "name": "C#5",
            "ticks": 9900,
            "time": 38.07688499999999,
            "velocity": 0.6299212598425197
          },
          {
            "duration": 0.23076900000000222,
            "durationTicks": 60,
            "midi": 80,
            "name": "G#5",
            "ticks": 9900,
            "time": 38.07688499999999,
            "velocity": 0.6299212598425197
          },
          {
            "duration": 0.23076900000000222,
            "durationTicks": 60,
            "midi": 77,
            "name": "F5",
            "ticks": 9990,
            "time": 38.42303849999999,
            "velocity": 0.6299212598425197
          },
          {
            "duration": 0.23076900000000222,
            "durationTicks": 60,
            "midi": 68,
            "name": "G#4",
            "ticks": 9990,
            "time": 38.42303849999999,
            "velocity": 0.6299212598425197
          },
          {
            "duration": 0.23076900000000222,
            "durationTicks": 60,
            "midi": 80,
            "name": "G#5",
            "ticks": 9990,
            "time": 38.42303849999999,
            "velocity": 0.6299212598425197
          },
          {
            "duration": 0.23076900000000222,
            "durationTicks": 60,
            "midi": 73,
            "name": "C#5",
            "ticks": 9990,
            "time": 38.42303849999999,
            "velocity": 0.6299212598425197
          },
          {
            "duration": 0.23076900000000222,
            "durationTicks": 60,
            "midi": 77,
            "name": "F5",
            "ticks": 10080,
            "time": 38.76919199999999,
            "velocity": 0.6299212598425197
          },
          {
            "duration": 0.23076900000000222,
            "durationTicks": 60,
            "midi": 80,
            "name": "G#5",
            "ticks": 10080,
            "time": 38.76919199999999,
            "velocity": 0.6299212598425197
          },
          {
            "duration": 0.23076900000000222,
            "durationTicks": 60,
            "midi": 72,
            "name": "C5",
            "ticks": 10080,
            "time": 38.76919199999999,
            "velocity": 0.6299212598425197
          },
          {
            "duration": 0.23076900000000222,
            "durationTicks": 60,
            "midi": 80,
            "name": "G#5",
            "ticks": 10170,
            "time": 39.11534549999999,
            "velocity": 0.6299212598425197
          },
          {
            "duration": 0.23076900000000222,
            "durationTicks": 60,
            "midi": 77,
            "name": "F5",
            "ticks": 10170,
            "time": 39.11534549999999,
            "velocity": 0.6299212598425197
          },
          {
            "duration": 0.23076900000000222,
            "durationTicks": 60,
            "midi": 72,
            "name": "C5",
            "ticks": 10170,
            "time": 39.11534549999999,
            "velocity": 0.6299212598425197
          },
          {
            "duration": 0.23076900000000222,
            "durationTicks": 60,
            "midi": 77,
            "name": "F5",
            "ticks": 10260,
            "time": 39.46149899999999,
            "velocity": 0.6299212598425197
          },
          {
            "duration": 0.23076900000000222,
            "durationTicks": 60,
            "midi": 80,
            "name": "G#5",
            "ticks": 10260,
            "time": 39.46149899999999,
            "velocity": 0.6299212598425197
          },
          {
            "duration": 0.23076900000000222,
            "durationTicks": 60,
            "midi": 72,
            "name": "C5",
            "ticks": 10260,
            "time": 39.46149899999999,
            "velocity": 0.6299212598425197
          },
          {
            "duration": 0.23076899999999512,
            "durationTicks": 60,
            "midi": 80,
            "name": "G#5",
            "ticks": 10380,
            "time": 39.923036999999994,
            "velocity": 0.6299212598425197
          },
          {
            "duration": 0.23076899999999512,
            "durationTicks": 60,
            "midi": 77,
            "name": "F5",
            "ticks": 10380,
            "time": 39.923036999999994,
            "velocity": 0.6299212598425197
          },
          {
            "duration": 0.23076899999999512,
            "durationTicks": 60,
            "midi": 72,
            "name": "C5",
            "ticks": 10380,
            "time": 39.923036999999994,
            "velocity": 0.6299212598425197
          },
          {
            "duration": 0.23076900000000222,
            "durationTicks": 60,
            "midi": 77,
            "name": "F5",
            "ticks": 10470,
            "time": 40.26919049999999,
            "velocity": 0.6299212598425197
          },
          {
            "duration": 0.23076900000000222,
            "durationTicks": 60,
            "midi": 80,
            "name": "G#5",
            "ticks": 10470,
            "time": 40.26919049999999,
            "velocity": 0.6299212598425197
          },
          {
            "duration": 0.23076900000000222,
            "durationTicks": 60,
            "midi": 72,
            "name": "C5",
            "ticks": 10470,
            "time": 40.26919049999999,
            "velocity": 0.6299212598425197
          },
          {
            "duration": 0.23076900000000222,
            "durationTicks": 60,
            "midi": 75,
            "name": "D#5",
            "ticks": 10560,
            "time": 40.61534399999999,
            "velocity": 0.6299212598425197
          },
          {
            "duration": 0.23076900000000222,
            "durationTicks": 60,
            "midi": 79,
            "name": "G5",
            "ticks": 10560,
            "time": 40.61534399999999,
            "velocity": 0.6299212598425197
          },
          {
            "duration": 0.23076900000000222,
            "durationTicks": 60,
            "midi": 70,
            "name": "A#4",
            "ticks": 10560,
            "time": 40.61534399999999,
            "velocity": 0.6299212598425197
          },
          {
            "duration": 0.23076900000000222,
            "durationTicks": 60,
            "midi": 75,
            "name": "D#5",
            "ticks": 10650,
            "time": 40.96149749999999,
            "velocity": 0.6299212598425197
          },
          {
            "duration": 0.23076900000000222,
            "durationTicks": 60,
            "midi": 79,
            "name": "G5",
            "ticks": 10650,
            "time": 40.96149749999999,
            "velocity": 0.6299212598425197
          },
          {
            "duration": 0.23076900000000222,
            "durationTicks": 60,
            "midi": 70,
            "name": "A#4",
            "ticks": 10650,
            "time": 40.96149749999999,
            "velocity": 0.6299212598425197
          },
          {
            "duration": 0.23076900000000222,
            "durationTicks": 60,
            "midi": 73,
            "name": "C#5",
            "ticks": 10740,
            "time": 41.30765099999999,
            "velocity": 0.6299212598425197
          },
          {
            "duration": 0.23076900000000222,
            "durationTicks": 60,
            "midi": 77,
            "name": "F5",
            "ticks": 10740,
            "time": 41.30765099999999,
            "velocity": 0.6299212598425197
          },
          {
            "duration": 0.23076900000000222,
            "durationTicks": 60,
            "midi": 68,
            "name": "G#4",
            "ticks": 10740,
            "time": 41.30765099999999,
            "velocity": 0.6299212598425197
          },
          {
            "duration": 0.23076900000000222,
            "durationTicks": 60,
            "midi": 77,
            "name": "F5",
            "ticks": 10860,
            "time": 41.76918899999999,
            "velocity": 0.6299212598425197
          },
          {
            "duration": 0.23076900000000222,
            "durationTicks": 60,
            "midi": 73,
            "name": "C#5",
            "ticks": 10860,
            "time": 41.76918899999999,
            "velocity": 0.6299212598425197
          },
          {
            "duration": 0.23076900000000222,
            "durationTicks": 60,
            "midi": 68,
            "name": "G#4",
            "ticks": 10860,
            "time": 41.76918899999999,
            "velocity": 0.6299212598425197
          },
          {
            "duration": 0.23076900000000222,
            "durationTicks": 60,
            "midi": 77,
            "name": "F5",
            "ticks": 10950,
            "time": 42.11534249999999,
            "velocity": 0.6299212598425197
          },
          {
            "duration": 0.23076900000000222,
            "durationTicks": 60,
            "midi": 73,
            "name": "C#5",
            "ticks": 10950,
            "time": 42.11534249999999,
            "velocity": 0.6299212598425197
          },
          {
            "duration": 0.23076900000000222,
            "durationTicks": 60,
            "midi": 68,
            "name": "G#4",
            "ticks": 10950,
            "time": 42.11534249999999,
            "velocity": 0.6299212598425197
          },
          {
            "duration": 0.23076900000000222,
            "durationTicks": 60,
            "midi": 77,
            "name": "F5",
            "ticks": 11040,
            "time": 42.46149599999999,
            "velocity": 0.6299212598425197
          },
          {
            "duration": 0.23076900000000222,
            "durationTicks": 60,
            "midi": 80,
            "name": "G#5",
            "ticks": 11040,
            "time": 42.46149599999999,
            "velocity": 0.6299212598425197
          },
          {
            "duration": 0.23076900000000222,
            "durationTicks": 60,
            "midi": 72,
            "name": "C5",
            "ticks": 11040,
            "time": 42.46149599999999,
            "velocity": 0.6299212598425197
          },
          {
            "duration": 0.23076900000000222,
            "durationTicks": 60,
            "midi": 77,
            "name": "F5",
            "ticks": 11130,
            "time": 42.80764949999999,
            "velocity": 0.6299212598425197
          },
          {
            "duration": 0.23076900000000222,
            "durationTicks": 60,
            "midi": 80,
            "name": "G#5",
            "ticks": 11130,
            "time": 42.80764949999999,
            "velocity": 0.6299212598425197
          },
          {
            "duration": 0.23076900000000222,
            "durationTicks": 60,
            "midi": 72,
            "name": "C5",
            "ticks": 11130,
            "time": 42.80764949999999,
            "velocity": 0.6299212598425197
          },
          {
            "duration": 0.23076900000000222,
            "durationTicks": 60,
            "midi": 77,
            "name": "F5",
            "ticks": 11220,
            "time": 43.15380299999999,
            "velocity": 0.6299212598425197
          },
          {
            "duration": 0.23076900000000222,
            "durationTicks": 60,
            "midi": 80,
            "name": "G#5",
            "ticks": 11220,
            "time": 43.15380299999999,
            "velocity": 0.6299212598425197
          },
          {
            "duration": 0.23076900000000222,
            "durationTicks": 60,
            "midi": 72,
            "name": "C5",
            "ticks": 11220,
            "time": 43.15380299999999,
            "velocity": 0.6299212598425197
          },
          {
            "duration": 0.23076899999999512,
            "durationTicks": 60,
            "midi": 77,
            "name": "F5",
            "ticks": 11340,
            "time": 43.615340999999994,
            "velocity": 0.6299212598425197
          },
          {
            "duration": 0.23076899999999512,
            "durationTicks": 60,
            "midi": 80,
            "name": "G#5",
            "ticks": 11340,
            "time": 43.615340999999994,
            "velocity": 0.6299212598425197
          },
          {
            "duration": 0.23076899999999512,
            "durationTicks": 60,
            "midi": 72,
            "name": "C5",
            "ticks": 11340,
            "time": 43.615340999999994,
            "velocity": 0.6299212598425197
          },
          {
            "duration": 0.23076900000000222,
            "durationTicks": 60,
            "midi": 77,
            "name": "F5",
            "ticks": 12000,
            "time": 46.15379999999999,
            "velocity": 0.6299212598425197
          },
          {
            "duration": 0.23076900000000222,
            "durationTicks": 60,
            "midi": 80,
            "name": "G#5",
            "ticks": 12000,
            "time": 46.15379999999999,
            "velocity": 0.6299212598425197
          },
          {
            "duration": 0.23076900000000222,
            "durationTicks": 60,
            "midi": 72,
            "name": "C5",
            "ticks": 12000,
            "time": 46.15379999999999,
            "velocity": 0.6299212598425197
          },
          {
            "duration": 0.23076900000000222,
            "durationTicks": 60,
            "midi": 80,
            "name": "G#5",
            "ticks": 12090,
            "time": 46.49995349999999,
            "velocity": 0.6299212598425197
          },
          {
            "duration": 0.23076900000000222,
            "durationTicks": 60,
            "midi": 77,
            "name": "F5",
            "ticks": 12090,
            "time": 46.49995349999999,
            "velocity": 0.6299212598425197
          },
          {
            "duration": 0.23076900000000222,
            "durationTicks": 60,
            "midi": 72,
            "name": "C5",
            "ticks": 12090,
            "time": 46.49995349999999,
            "velocity": 0.6299212598425197
          },
          {
            "duration": 0.23076900000000222,
            "durationTicks": 60,
            "midi": 77,
            "name": "F5",
            "ticks": 12180,
            "time": 46.84610699999999,
            "velocity": 0.6299212598425197
          },
          {
            "duration": 0.23076900000000222,
            "durationTicks": 60,
            "midi": 80,
            "name": "G#5",
            "ticks": 12180,
            "time": 46.84610699999999,
            "velocity": 0.6299212598425197
          },
          {
            "duration": 0.23076900000000222,
            "durationTicks": 60,
            "midi": 72,
            "name": "C5",
            "ticks": 12180,
            "time": 46.84610699999999,
            "velocity": 0.6299212598425197
          },
          {
            "duration": 0.23076899999999512,
            "durationTicks": 60,
            "midi": 80,
            "name": "G#5",
            "ticks": 12300,
            "time": 47.307644999999994,
            "velocity": 0.6299212598425197
          },
          {
            "duration": 0.23076899999999512,
            "durationTicks": 60,
            "midi": 77,
            "name": "F5",
            "ticks": 12300,
            "time": 47.307644999999994,
            "velocity": 0.6299212598425197
          },
          {
            "duration": 0.23076899999999512,
            "durationTicks": 60,
            "midi": 72,
            "name": "C5",
            "ticks": 12300,
            "time": 47.307644999999994,
            "velocity": 0.6299212598425197
          },
          {
            "duration": 0.23076899999999512,
            "durationTicks": 60,
            "midi": 77,
            "name": "F5",
            "ticks": 12390,
            "time": 47.65379849999999,
            "velocity": 0.6299212598425197
          },
          {
            "duration": 0.23076899999999512,
            "durationTicks": 60,
            "midi": 80,
            "name": "G#5",
            "ticks": 12390,
            "time": 47.65379849999999,
            "velocity": 0.6299212598425197
          },
          {
            "duration": 0.23076899999999512,
            "durationTicks": 60,
            "midi": 72,
            "name": "C5",
            "ticks": 12390,
            "time": 47.65379849999999,
            "velocity": 0.6299212598425197
          },
          {
            "duration": 0.23076899999999512,
            "durationTicks": 60,
            "midi": 75,
            "name": "D#5",
            "ticks": 12480,
            "time": 47.99995199999999,
            "velocity": 0.6299212598425197
          },
          {
            "duration": 0.23076899999999512,
            "durationTicks": 60,
            "midi": 79,
            "name": "G5",
            "ticks": 12480,
            "time": 47.99995199999999,
            "velocity": 0.6299212598425197
          },
          {
            "duration": 0.23076899999999512,
            "durationTicks": 60,
            "midi": 70,
            "name": "A#4",
            "ticks": 12480,
            "time": 47.99995199999999,
            "velocity": 0.6299212598425197
          },
          {
            "duration": 0.23076899999999512,
            "durationTicks": 60,
            "midi": 75,
            "name": "D#5",
            "ticks": 12570,
            "time": 48.34610549999999,
            "velocity": 0.6299212598425197
          },
          {
            "duration": 0.23076899999999512,
            "durationTicks": 60,
            "midi": 79,
            "name": "G5",
            "ticks": 12570,
            "time": 48.34610549999999,
            "velocity": 0.6299212598425197
          },
          {
            "duration": 0.23076899999999512,
            "durationTicks": 60,
            "midi": 70,
            "name": "A#4",
            "ticks": 12570,
            "time": 48.34610549999999,
            "velocity": 0.6299212598425197
          },
          {
            "duration": 0.23076899999999512,
            "durationTicks": 60,
            "midi": 73,
            "name": "C#5",
            "ticks": 12660,
            "time": 48.69225899999999,
            "velocity": 0.6299212598425197
          },
          {
            "duration": 0.23076899999999512,
            "durationTicks": 60,
            "midi": 77,
            "name": "F5",
            "ticks": 12660,
            "time": 48.69225899999999,
            "velocity": 0.6299212598425197
          },
          {
            "duration": 0.23076899999999512,
            "durationTicks": 60,
            "midi": 68,
            "name": "G#4",
            "ticks": 12660,
            "time": 48.69225899999999,
            "velocity": 0.6299212598425197
          },
          {
            "duration": 0.23076900000000222,
            "durationTicks": 60,
            "midi": 77,
            "name": "F5",
            "ticks": 12780,
            "time": 49.15379699999999,
            "velocity": 0.6299212598425197
          },
          {
            "duration": 0.23076900000000222,
            "durationTicks": 60,
            "midi": 73,
            "name": "C#5",
            "ticks": 12780,
            "time": 49.15379699999999,
            "velocity": 0.6299212598425197
          },
          {
            "duration": 0.23076900000000222,
            "durationTicks": 60,
            "midi": 68,
            "name": "G#4",
            "ticks": 12780,
            "time": 49.15379699999999,
            "velocity": 0.6299212598425197
          },
          {
            "duration": 0.23076900000000222,
            "durationTicks": 60,
            "midi": 77,
            "name": "F5",
            "ticks": 12870,
            "time": 49.49995049999999,
            "velocity": 0.6299212598425197
          },
          {
            "duration": 0.23076900000000222,
            "durationTicks": 60,
            "midi": 73,
            "name": "C#5",
            "ticks": 12870,
            "time": 49.49995049999999,
            "velocity": 0.6299212598425197
          },
          {
            "duration": 0.23076900000000222,
            "durationTicks": 60,
            "midi": 68,
            "name": "G#4",
            "ticks": 12870,
            "time": 49.49995049999999,
            "velocity": 0.6299212598425197
          },
          {
            "duration": 0.23076900000000222,
            "durationTicks": 60,
            "midi": 77,
            "name": "F5",
            "ticks": 12960,
            "time": 49.84610399999999,
            "velocity": 0.6299212598425197
          },
          {
            "duration": 0.23076900000000222,
            "durationTicks": 60,
            "midi": 80,
            "name": "G#5",
            "ticks": 12960,
            "time": 49.84610399999999,
            "velocity": 0.6299212598425197
          },
          {
            "duration": 0.23076900000000222,
            "durationTicks": 60,
            "midi": 72,
            "name": "C5",
            "ticks": 12960,
            "time": 49.84610399999999,
            "velocity": 0.6299212598425197
          },
          {
            "duration": 0.23076900000000222,
            "durationTicks": 60,
            "midi": 77,
            "name": "F5",
            "ticks": 13050,
            "time": 50.19225749999999,
            "velocity": 0.6299212598425197
          },
          {
            "duration": 0.23076900000000222,
            "durationTicks": 60,
            "midi": 80,
            "name": "G#5",
            "ticks": 13050,
            "time": 50.19225749999999,
            "velocity": 0.6299212598425197
          },
          {
            "duration": 0.23076900000000222,
            "durationTicks": 60,
            "midi": 72,
            "name": "C5",
            "ticks": 13050,
            "time": 50.19225749999999,
            "velocity": 0.6299212598425197
          },
          {
            "duration": 0.23076900000000222,
            "durationTicks": 60,
            "midi": 77,
            "name": "F5",
            "ticks": 13140,
            "time": 50.53841099999999,
            "velocity": 0.6299212598425197
          },
          {
            "duration": 0.23076900000000222,
            "durationTicks": 60,
            "midi": 80,
            "name": "G#5",
            "ticks": 13140,
            "time": 50.53841099999999,
            "velocity": 0.6299212598425197
          },
          {
            "duration": 0.23076900000000222,
            "durationTicks": 60,
            "midi": 72,
            "name": "C5",
            "ticks": 13140,
            "time": 50.53841099999999,
            "velocity": 0.6299212598425197
          },
          {
            "duration": 0.23076899999999512,
            "durationTicks": 60,
            "midi": 77,
            "name": "F5",
            "ticks": 13260,
            "time": 50.999948999999994,
            "velocity": 0.6299212598425197
          },
          {
            "duration": 0.23076899999999512,
            "durationTicks": 60,
            "midi": 80,
            "name": "G#5",
            "ticks": 13260,
            "time": 50.999948999999994,
            "velocity": 0.6299212598425197
          },
          {
            "duration": 0.23076899999999512,
            "durationTicks": 60,
            "midi": 72,
            "name": "C5",
            "ticks": 13260,
            "time": 50.999948999999994,
            "velocity": 0.6299212598425197
          },
          {
            "duration": 0.23076899999999512,
            "durationTicks": 60,
            "midi": 77,
            "name": "F5",
            "ticks": 13350,
            "time": 51.34610249999999,
            "velocity": 0.6299212598425197
          },
          {
            "duration": 0.23076899999999512,
            "durationTicks": 60,
            "midi": 80,
            "name": "G#5",
            "ticks": 13350,
            "time": 51.34610249999999,
            "velocity": 0.6299212598425197
          },
          {
            "duration": 0.23076899999999512,
            "durationTicks": 60,
            "midi": 72,
            "name": "C5",
            "ticks": 13350,
            "time": 51.34610249999999,
            "velocity": 0.6299212598425197
          },
          {
            "duration": 0.23076899999999512,
            "durationTicks": 60,
            "midi": 79,
            "name": "G5",
            "ticks": 13440,
            "time": 51.69225599999999,
            "velocity": 0.6299212598425197
          },
          {
            "duration": 0.23076899999999512,
            "durationTicks": 60,
            "midi": 75,
            "name": "D#5",
            "ticks": 13440,
            "time": 51.69225599999999,
            "velocity": 0.6299212598425197
          },
          {
            "duration": 0.23076899999999512,
            "durationTicks": 60,
            "midi": 70,
            "name": "A#4",
            "ticks": 13440,
            "time": 51.69225599999999,
            "velocity": 0.6299212598425197
          },
          {
            "duration": 0.23076899999999512,
            "durationTicks": 60,
            "midi": 70,
            "name": "A#4",
            "ticks": 13530,
            "time": 52.03840949999999,
            "velocity": 0.6299212598425197
          },
          {
            "duration": 0.23076899999999512,
            "durationTicks": 60,
            "midi": 79,
            "name": "G5",
            "ticks": 13530,
            "time": 52.03840949999999,
            "velocity": 0.6299212598425197
          },
          {
            "duration": 0.23076899999999512,
            "durationTicks": 60,
            "midi": 75,
            "name": "D#5",
            "ticks": 13530,
            "time": 52.03840949999999,
            "velocity": 0.6299212598425197
          },
          {
            "duration": 0.23076899999999512,
            "durationTicks": 60,
            "midi": 73,
            "name": "C#5",
            "ticks": 13620,
            "time": 52.38456299999999,
            "velocity": 0.6299212598425197
          },
          {
            "duration": 0.23076899999999512,
            "durationTicks": 60,
            "midi": 77,
            "name": "F5",
            "ticks": 13620,
            "time": 52.38456299999999,
            "velocity": 0.6299212598425197
          },
          {
            "duration": 0.23076899999999512,
            "durationTicks": 60,
            "midi": 80,
            "name": "G#5",
            "ticks": 13620,
            "time": 52.38456299999999,
            "velocity": 0.6299212598425197
          },
          {
            "duration": 0.23076899999999512,
            "durationTicks": 60,
            "midi": 68,
            "name": "G#4",
            "ticks": 13620,
            "time": 52.38456299999999,
            "velocity": 0.6299212598425197
          },
          {
            "duration": 0.23076900000000222,
            "durationTicks": 60,
            "midi": 68,
            "name": "G#4",
            "ticks": 13740,
            "time": 52.84610099999999,
            "velocity": 0.6299212598425197
          },
          {
            "duration": 0.23076900000000222,
            "durationTicks": 60,
            "midi": 77,
            "name": "F5",
            "ticks": 13740,
            "time": 52.84610099999999,
            "velocity": 0.6299212598425197
          },
          {
            "duration": 0.23076900000000222,
            "durationTicks": 60,
            "midi": 73,
            "name": "C#5",
            "ticks": 13740,
            "time": 52.84610099999999,
            "velocity": 0.6299212598425197
          },
          {
            "duration": 0.23076900000000222,
            "durationTicks": 60,
            "midi": 80,
            "name": "G#5",
            "ticks": 13740,
            "time": 52.84610099999999,
            "velocity": 0.6299212598425197
          },
          {
            "duration": 0.23076900000000222,
            "durationTicks": 60,
            "midi": 77,
            "name": "F5",
            "ticks": 13830,
            "time": 53.19225449999999,
            "velocity": 0.6299212598425197
          },
          {
            "duration": 0.23076900000000222,
            "durationTicks": 60,
            "midi": 68,
            "name": "G#4",
            "ticks": 13830,
            "time": 53.19225449999999,
            "velocity": 0.6299212598425197
          },
          {
            "duration": 0.23076900000000222,
            "durationTicks": 60,
            "midi": 80,
            "name": "G#5",
            "ticks": 13830,
            "time": 53.19225449999999,
            "velocity": 0.6299212598425197
          },
          {
            "duration": 0.23076900000000222,
            "durationTicks": 60,
            "midi": 73,
            "name": "C#5",
            "ticks": 13830,
            "time": 53.19225449999999,
            "velocity": 0.6299212598425197
          },
          {
            "duration": 0.23076900000000222,
            "durationTicks": 60,
            "midi": 77,
            "name": "F5",
            "ticks": 13920,
            "time": 53.53840799999999,
            "velocity": 0.6299212598425197
          },
          {
            "duration": 0.23076900000000222,
            "durationTicks": 60,
            "midi": 80,
            "name": "G#5",
            "ticks": 13920,
            "time": 53.53840799999999,
            "velocity": 0.6299212598425197
          },
          {
            "duration": 0.23076900000000222,
            "durationTicks": 60,
            "midi": 72,
            "name": "C5",
            "ticks": 13920,
            "time": 53.53840799999999,
            "velocity": 0.6299212598425197
          },
          {
            "duration": 0.23076900000000222,
            "durationTicks": 60,
            "midi": 80,
            "name": "G#5",
            "ticks": 14010,
            "time": 53.88456149999999,
            "velocity": 0.6299212598425197
          },
          {
            "duration": 0.23076900000000222,
            "durationTicks": 60,
            "midi": 77,
            "name": "F5",
            "ticks": 14010,
            "time": 53.88456149999999,
            "velocity": 0.6299212598425197
          },
          {
            "duration": 0.23076900000000222,
            "durationTicks": 60,
            "midi": 72,
            "name": "C5",
            "ticks": 14010,
            "time": 53.88456149999999,
            "velocity": 0.6299212598425197
          },
          {
            "duration": 0.23076900000000222,
            "durationTicks": 60,
            "midi": 77,
            "name": "F5",
            "ticks": 14100,
            "time": 54.23071499999999,
            "velocity": 0.6299212598425197
          },
          {
            "duration": 0.23076900000000222,
            "durationTicks": 60,
            "midi": 80,
            "name": "G#5",
            "ticks": 14100,
            "time": 54.23071499999999,
            "velocity": 0.6299212598425197
          },
          {
            "duration": 0.23076900000000222,
            "durationTicks": 60,
            "midi": 72,
            "name": "C5",
            "ticks": 14100,
            "time": 54.23071499999999,
            "velocity": 0.6299212598425197
          },
          {
            "duration": 0.23076899999999512,
            "durationTicks": 60,
            "midi": 80,
            "name": "G#5",
            "ticks": 14220,
            "time": 54.692252999999994,
            "velocity": 0.6299212598425197
          },
          {
            "duration": 0.23076899999999512,
            "durationTicks": 60,
            "midi": 77,
            "name": "F5",
            "ticks": 14220,
            "time": 54.692252999999994,
            "velocity": 0.6299212598425197
          },
          {
            "duration": 0.23076899999999512,
            "durationTicks": 60,
            "midi": 72,
            "name": "C5",
            "ticks": 14220,
            "time": 54.692252999999994,
            "velocity": 0.6299212598425197
          },
          {
            "duration": 0.23076899999999512,
            "durationTicks": 60,
            "midi": 77,
            "name": "F5",
            "ticks": 14310,
            "time": 55.038406499999994,
            "velocity": 0.6299212598425197
          },
          {
            "duration": 0.23076899999999512,
            "durationTicks": 60,
            "midi": 80,
            "name": "G#5",
            "ticks": 14310,
            "time": 55.038406499999994,
            "velocity": 0.6299212598425197
          },
          {
            "duration": 0.23076899999999512,
            "durationTicks": 60,
            "midi": 72,
            "name": "C5",
            "ticks": 14310,
            "time": 55.038406499999994,
            "velocity": 0.6299212598425197
          },
          {
            "duration": 0.23076899999999512,
            "durationTicks": 60,
            "midi": 75,
            "name": "D#5",
            "ticks": 14400,
            "time": 55.38455999999999,
            "velocity": 0.6299212598425197
          },
          {
            "duration": 0.23076899999999512,
            "durationTicks": 60,
            "midi": 79,
            "name": "G5",
            "ticks": 14400,
            "time": 55.38455999999999,
            "velocity": 0.6299212598425197
          },
          {
            "duration": 0.23076899999999512,
            "durationTicks": 60,
            "midi": 70,
            "name": "A#4",
            "ticks": 14400,
            "time": 55.38455999999999,
            "velocity": 0.6299212598425197
          },
          {
            "duration": 0.23076899999999512,
            "durationTicks": 60,
            "midi": 75,
            "name": "D#5",
            "ticks": 14490,
            "time": 55.73071349999999,
            "velocity": 0.6299212598425197
          },
          {
            "duration": 0.23076899999999512,
            "durationTicks": 60,
            "midi": 79,
            "name": "G5",
            "ticks": 14490,
            "time": 55.73071349999999,
            "velocity": 0.6299212598425197
          },
          {
            "duration": 0.23076899999999512,
            "durationTicks": 60,
            "midi": 70,
            "name": "A#4",
            "ticks": 14490,
            "time": 55.73071349999999,
            "velocity": 0.6299212598425197
          },
          {
            "duration": 0.23076899999999512,
            "durationTicks": 60,
            "midi": 73,
            "name": "C#5",
            "ticks": 14580,
            "time": 56.07686699999999,
            "velocity": 0.6299212598425197
          },
          {
            "duration": 0.23076899999999512,
            "durationTicks": 60,
            "midi": 77,
            "name": "F5",
            "ticks": 14580,
            "time": 56.07686699999999,
            "velocity": 0.6299212598425197
          },
          {
            "duration": 0.23076899999999512,
            "durationTicks": 60,
            "midi": 68,
            "name": "G#4",
            "ticks": 14580,
            "time": 56.07686699999999,
            "velocity": 0.6299212598425197
          },
          {
            "duration": 0.23076900000000222,
            "durationTicks": 60,
            "midi": 77,
            "name": "F5",
            "ticks": 14700,
            "time": 56.53840499999999,
            "velocity": 0.6299212598425197
          },
          {
            "duration": 0.23076900000000222,
            "durationTicks": 60,
            "midi": 73,
            "name": "C#5",
            "ticks": 14700,
            "time": 56.53840499999999,
            "velocity": 0.6299212598425197
          },
          {
            "duration": 0.23076900000000222,
            "durationTicks": 60,
            "midi": 68,
            "name": "G#4",
            "ticks": 14700,
            "time": 56.53840499999999,
            "velocity": 0.6299212598425197
          },
          {
            "duration": 0.23076900000000222,
            "durationTicks": 60,
            "midi": 77,
            "name": "F5",
            "ticks": 14790,
            "time": 56.88455849999999,
            "velocity": 0.6299212598425197
          },
          {
            "duration": 0.23076900000000222,
            "durationTicks": 60,
            "midi": 73,
            "name": "C#5",
            "ticks": 14790,
            "time": 56.88455849999999,
            "velocity": 0.6299212598425197
          },
          {
            "duration": 0.23076900000000222,
            "durationTicks": 60,
            "midi": 68,
            "name": "G#4",
            "ticks": 14790,
            "time": 56.88455849999999,
            "velocity": 0.6299212598425197
          },
          {
            "duration": 0.23076900000000222,
            "durationTicks": 60,
            "midi": 77,
            "name": "F5",
            "ticks": 14880,
            "time": 57.23071199999999,
            "velocity": 0.6299212598425197
          },
          {
            "duration": 0.23076900000000222,
            "durationTicks": 60,
            "midi": 80,
            "name": "G#5",
            "ticks": 14880,
            "time": 57.23071199999999,
            "velocity": 0.6299212598425197
          },
          {
            "duration": 0.23076900000000222,
            "durationTicks": 60,
            "midi": 72,
            "name": "C5",
            "ticks": 14880,
            "time": 57.23071199999999,
            "velocity": 0.6299212598425197
          },
          {
            "duration": 0.23076900000000222,
            "durationTicks": 60,
            "midi": 77,
            "name": "F5",
            "ticks": 14970,
            "time": 57.57686549999999,
            "velocity": 0.6299212598425197
          },
          {
            "duration": 0.23076900000000222,
            "durationTicks": 60,
            "midi": 80,
            "name": "G#5",
            "ticks": 14970,
            "time": 57.57686549999999,
            "velocity": 0.6299212598425197
          },
          {
            "duration": 0.23076900000000222,
            "durationTicks": 60,
            "midi": 72,
            "name": "C5",
            "ticks": 14970,
            "time": 57.57686549999999,
            "velocity": 0.6299212598425197
          },
          {
            "duration": 0.23076900000000222,
            "durationTicks": 60,
            "midi": 77,
            "name": "F5",
            "ticks": 15060,
            "time": 57.92301899999999,
            "velocity": 0.6299212598425197
          },
          {
            "duration": 0.23076900000000222,
            "durationTicks": 60,
            "midi": 80,
            "name": "G#5",
            "ticks": 15060,
            "time": 57.92301899999999,
            "velocity": 0.6299212598425197
          },
          {
            "duration": 0.23076900000000222,
            "durationTicks": 60,
            "midi": 72,
            "name": "C5",
            "ticks": 15060,
            "time": 57.92301899999999,
            "velocity": 0.6299212598425197
          },
          {
            "duration": 0.23076900000000222,
            "durationTicks": 60,
            "midi": 77,
            "name": "F5",
            "ticks": 15180,
            "time": 58.38455699999999,
            "velocity": 0.6299212598425197
          },
          {
            "duration": 0.23076900000000222,
            "durationTicks": 60,
            "midi": 80,
            "name": "G#5",
            "ticks": 15180,
            "time": 58.38455699999999,
            "velocity": 0.6299212598425197
          },
          {
            "duration": 0.23076900000000222,
            "durationTicks": 60,
            "midi": 72,
            "name": "C5",
            "ticks": 15180,
            "time": 58.38455699999999,
            "velocity": 0.6299212598425197
          },
          {
            "duration": 0.23076899999999512,
            "durationTicks": 60,
            "midi": 79,
            "name": "G5",
            "ticks": 19200,
            "time": 73.84608,
            "velocity": 0.6299212598425197
          },
          {
            "duration": 0.23076899999999512,
            "durationTicks": 60,
            "midi": 75,
            "name": "D#5",
            "ticks": 19200,
            "time": 73.84608,
            "velocity": 0.6299212598425197
          },
          {
            "duration": 0.23076899999999512,
            "durationTicks": 60,
            "midi": 70,
            "name": "A#4",
            "ticks": 19200,
            "time": 73.84608,
            "velocity": 0.6299212598425197
          },
          {
            "duration": 0.23076899999999512,
            "durationTicks": 60,
            "midi": 70,
            "name": "A#4",
            "ticks": 19290,
            "time": 74.1922335,
            "velocity": 0.6299212598425197
          },
          {
            "duration": 0.23076899999999512,
            "durationTicks": 60,
            "midi": 79,
            "name": "G5",
            "ticks": 19290,
            "time": 74.1922335,
            "velocity": 0.6299212598425197
          },
          {
            "duration": 0.23076899999999512,
            "durationTicks": 60,
            "midi": 75,
            "name": "D#5",
            "ticks": 19290,
            "time": 74.1922335,
            "velocity": 0.6299212598425197
          },
          {
            "duration": 0.23076899999999512,
            "durationTicks": 60,
            "midi": 73,
            "name": "C#5",
            "ticks": 19380,
            "time": 74.538387,
            "velocity": 0.6299212598425197
          },
          {
            "duration": 0.23076899999999512,
            "durationTicks": 60,
            "midi": 77,
            "name": "F5",
            "ticks": 19380,
            "time": 74.538387,
            "velocity": 0.6299212598425197
          },
          {
            "duration": 0.23076899999999512,
            "durationTicks": 60,
            "midi": 80,
            "name": "G#5",
            "ticks": 19380,
            "time": 74.538387,
            "velocity": 0.6299212598425197
          },
          {
            "duration": 0.23076899999999512,
            "durationTicks": 60,
            "midi": 68,
            "name": "G#4",
            "ticks": 19380,
            "time": 74.538387,
            "velocity": 0.6299212598425197
          },
          {
            "duration": 0.23076900000000933,
            "durationTicks": 60,
            "midi": 68,
            "name": "G#4",
            "ticks": 19500,
            "time": 74.99992499999999,
            "velocity": 0.6299212598425197
          },
          {
            "duration": 0.23076900000000933,
            "durationTicks": 60,
            "midi": 77,
            "name": "F5",
            "ticks": 19500,
            "time": 74.99992499999999,
            "velocity": 0.6299212598425197
          },
          {
            "duration": 0.23076900000000933,
            "durationTicks": 60,
            "midi": 73,
            "name": "C#5",
            "ticks": 19500,
            "time": 74.99992499999999,
            "velocity": 0.6299212598425197
          },
          {
            "duration": 0.23076900000000933,
            "durationTicks": 60,
            "midi": 80,
            "name": "G#5",
            "ticks": 19500,
            "time": 74.99992499999999,
            "velocity": 0.6299212598425197
          },
          {
            "duration": 0.23076900000000933,
            "durationTicks": 60,
            "midi": 77,
            "name": "F5",
            "ticks": 19590,
            "time": 75.34607849999999,
            "velocity": 0.6299212598425197
          },
          {
            "duration": 0.23076900000000933,
            "durationTicks": 60,
            "midi": 68,
            "name": "G#4",
            "ticks": 19590,
            "time": 75.34607849999999,
            "velocity": 0.6299212598425197
          },
          {
            "duration": 0.23076900000000933,
            "durationTicks": 60,
            "midi": 80,
            "name": "G#5",
            "ticks": 19590,
            "time": 75.34607849999999,
            "velocity": 0.6299212598425197
          },
          {
            "duration": 0.23076900000000933,
            "durationTicks": 60,
            "midi": 73,
            "name": "C#5",
            "ticks": 19590,
            "time": 75.34607849999999,
            "velocity": 0.6299212598425197
          },
          {
            "duration": 0.23076900000000933,
            "durationTicks": 60,
            "midi": 77,
            "name": "F5",
            "ticks": 25440,
            "time": 97.84605599999999,
            "velocity": 0.6299212598425197
          },
          {
            "duration": 0.23076900000000933,
            "durationTicks": 60,
            "midi": 80,
            "name": "G#5",
            "ticks": 25440,
            "time": 97.84605599999999,
            "velocity": 0.6299212598425197
          },
          {
            "duration": 0.23076900000000933,
            "durationTicks": 60,
            "midi": 72,
            "name": "C5",
            "ticks": 25440,
            "time": 97.84605599999999,
            "velocity": 0.6299212598425197
          },
          {
            "duration": 0.23076900000000933,
            "durationTicks": 60,
            "midi": 80,
            "name": "G#5",
            "ticks": 25530,
            "time": 98.19220949999999,
            "velocity": 0.6299212598425197
          },
          {
            "duration": 0.23076900000000933,
            "durationTicks": 60,
            "midi": 77,
            "name": "F5",
            "ticks": 25530,
            "time": 98.19220949999999,
            "velocity": 0.6299212598425197
          },
          {
            "duration": 0.23076900000000933,
            "durationTicks": 60,
            "midi": 72,
            "name": "C5",
            "ticks": 25530,
            "time": 98.19220949999999,
            "velocity": 0.6299212598425197
          },
          {
            "duration": 0.23076900000000933,
            "durationTicks": 60,
            "midi": 77,
            "name": "F5",
            "ticks": 25620,
            "time": 98.53836299999999,
            "velocity": 0.6299212598425197
          },
          {
            "duration": 0.23076900000000933,
            "durationTicks": 60,
            "midi": 80,
            "name": "G#5",
            "ticks": 25620,
            "time": 98.53836299999999,
            "velocity": 0.6299212598425197
          },
          {
            "duration": 0.23076900000000933,
            "durationTicks": 60,
            "midi": 72,
            "name": "C5",
            "ticks": 25620,
            "time": 98.53836299999999,
            "velocity": 0.6299212598425197
          },
          {
            "duration": 0.23076899999999512,
            "durationTicks": 60,
            "midi": 80,
            "name": "G#5",
            "ticks": 25740,
            "time": 98.999901,
            "velocity": 0.6299212598425197
          },
          {
            "duration": 0.23076899999999512,
            "durationTicks": 60,
            "midi": 77,
            "name": "F5",
            "ticks": 25740,
            "time": 98.999901,
            "velocity": 0.6299212598425197
          },
          {
            "duration": 0.23076899999999512,
            "durationTicks": 60,
            "midi": 72,
            "name": "C5",
            "ticks": 25740,
            "time": 98.999901,
            "velocity": 0.6299212598425197
          },
          {
            "duration": 0.23076899999999512,
            "durationTicks": 60,
            "midi": 77,
            "name": "F5",
            "ticks": 25830,
            "time": 99.3460545,
            "velocity": 0.6299212598425197
          },
          {
            "duration": 0.23076899999999512,
            "durationTicks": 60,
            "midi": 80,
            "name": "G#5",
            "ticks": 25830,
            "time": 99.3460545,
            "velocity": 0.6299212598425197
          },
          {
            "duration": 0.23076899999999512,
            "durationTicks": 60,
            "midi": 72,
            "name": "C5",
            "ticks": 25830,
            "time": 99.3460545,
            "velocity": 0.6299212598425197
          },
          {
            "duration": 0.23076899999999512,
            "durationTicks": 60,
            "midi": 75,
            "name": "D#5",
            "ticks": 25920,
            "time": 99.692208,
            "velocity": 0.6299212598425197
          },
          {
            "duration": 0.23076899999999512,
            "durationTicks": 60,
            "midi": 79,
            "name": "G5",
            "ticks": 25920,
            "time": 99.692208,
            "velocity": 0.6299212598425197
          },
          {
            "duration": 0.23076899999999512,
            "durationTicks": 60,
            "midi": 70,
            "name": "A#4",
            "ticks": 25920,
            "time": 99.692208,
            "velocity": 0.6299212598425197
          },
          {
            "duration": 0.23076899999999512,
            "durationTicks": 60,
            "midi": 75,
            "name": "D#5",
            "ticks": 26010,
            "time": 100.0383615,
            "velocity": 0.6299212598425197
          },
          {
            "duration": 0.23076899999999512,
            "durationTicks": 60,
            "midi": 79,
            "name": "G5",
            "ticks": 26010,
            "time": 100.0383615,
            "velocity": 0.6299212598425197
          },
          {
            "duration": 0.23076899999999512,
            "durationTicks": 60,
            "midi": 70,
            "name": "A#4",
            "ticks": 26010,
            "time": 100.0383615,
            "velocity": 0.6299212598425197
          },
          {
            "duration": 0.23076899999999512,
            "durationTicks": 60,
            "midi": 73,
            "name": "C#5",
            "ticks": 26100,
            "time": 100.384515,
            "velocity": 0.6299212598425197
          },
          {
            "duration": 0.23076899999999512,
            "durationTicks": 60,
            "midi": 77,
            "name": "F5",
            "ticks": 26100,
            "time": 100.384515,
            "velocity": 0.6299212598425197
          },
          {
            "duration": 0.23076899999999512,
            "durationTicks": 60,
            "midi": 68,
            "name": "G#4",
            "ticks": 26100,
            "time": 100.384515,
            "velocity": 0.6299212598425197
          },
          {
            "duration": 0.23076899999999512,
            "durationTicks": 60,
            "midi": 77,
            "name": "F5",
            "ticks": 26220,
            "time": 100.846053,
            "velocity": 0.6299212598425197
          },
          {
            "duration": 0.23076899999999512,
            "durationTicks": 60,
            "midi": 73,
            "name": "C#5",
            "ticks": 26220,
            "time": 100.846053,
            "velocity": 0.6299212598425197
          },
          {
            "duration": 0.23076899999999512,
            "durationTicks": 60,
            "midi": 68,
            "name": "G#4",
            "ticks": 26220,
            "time": 100.846053,
            "velocity": 0.6299212598425197
          },
          {
            "duration": 0.23076899999999512,
            "durationTicks": 60,
            "midi": 77,
            "name": "F5",
            "ticks": 26310,
            "time": 101.1922065,
            "velocity": 0.6299212598425197
          },
          {
            "duration": 0.23076899999999512,
            "durationTicks": 60,
            "midi": 73,
            "name": "C#5",
            "ticks": 26310,
            "time": 101.1922065,
            "velocity": 0.6299212598425197
          },
          {
            "duration": 0.23076899999999512,
            "durationTicks": 60,
            "midi": 68,
            "name": "G#4",
            "ticks": 26310,
            "time": 101.1922065,
            "velocity": 0.6299212598425197
          },
          {
            "duration": 0.23076899999999512,
            "durationTicks": 60,
            "midi": 77,
            "name": "F5",
            "ticks": 26400,
            "time": 101.53836,
            "velocity": 0.6299212598425197
          },
          {
            "duration": 0.23076899999999512,
            "durationTicks": 60,
            "midi": 80,
            "name": "G#5",
            "ticks": 26400,
            "time": 101.53836,
            "velocity": 0.6299212598425197
          },
          {
            "duration": 0.23076899999999512,
            "durationTicks": 60,
            "midi": 72,
            "name": "C5",
            "ticks": 26400,
            "time": 101.53836,
            "velocity": 0.6299212598425197
          },
          {
            "duration": 0.23076899999999512,
            "durationTicks": 60,
            "midi": 77,
            "name": "F5",
            "ticks": 26490,
            "time": 101.8845135,
            "velocity": 0.6299212598425197
          },
          {
            "duration": 0.23076899999999512,
            "durationTicks": 60,
            "midi": 80,
            "name": "G#5",
            "ticks": 26490,
            "time": 101.8845135,
            "velocity": 0.6299212598425197
          },
          {
            "duration": 0.23076899999999512,
            "durationTicks": 60,
            "midi": 72,
            "name": "C5",
            "ticks": 26490,
            "time": 101.8845135,
            "velocity": 0.6299212598425197
          },
          {
            "duration": 0.23076899999999512,
            "durationTicks": 60,
            "midi": 77,
            "name": "F5",
            "ticks": 26580,
            "time": 102.230667,
            "velocity": 0.6299212598425197
          },
          {
            "duration": 0.23076899999999512,
            "durationTicks": 60,
            "midi": 80,
            "name": "G#5",
            "ticks": 26580,
            "time": 102.230667,
            "velocity": 0.6299212598425197
          },
          {
            "duration": 0.23076899999999512,
            "durationTicks": 60,
            "midi": 72,
            "name": "C5",
            "ticks": 26580,
            "time": 102.230667,
            "velocity": 0.6299212598425197
          },
          {
            "duration": 0.23076900000000933,
            "durationTicks": 60,
            "midi": 77,
            "name": "F5",
            "ticks": 26700,
            "time": 102.69220499999999,
            "velocity": 0.6299212598425197
          },
          {
            "duration": 0.23076900000000933,
            "durationTicks": 60,
            "midi": 80,
            "name": "G#5",
            "ticks": 26700,
            "time": 102.69220499999999,
            "velocity": 0.6299212598425197
          },
          {
            "duration": 0.23076900000000933,
            "durationTicks": 60,
            "midi": 72,
            "name": "C5",
            "ticks": 26700,
            "time": 102.69220499999999,
            "velocity": 0.6299212598425197
          },
          {
            "duration": 0.23076900000000933,
            "durationTicks": 60,
            "midi": 77,
            "name": "F5",
            "ticks": 26790,
            "time": 103.03835849999999,
            "velocity": 0.6299212598425197
          },
          {
            "duration": 0.23076900000000933,
            "durationTicks": 60,
            "midi": 80,
            "name": "G#5",
            "ticks": 26790,
            "time": 103.03835849999999,
            "velocity": 0.6299212598425197
          },
          {
            "duration": 0.23076900000000933,
            "durationTicks": 60,
            "midi": 72,
            "name": "C5",
            "ticks": 26790,
            "time": 103.03835849999999,
            "velocity": 0.6299212598425197
          },
          {
            "duration": 0.23076899999999512,
            "durationTicks": 60,
            "midi": 77,
            "name": "F5",
            "ticks": 27360,
            "time": 105.23066399999999,
            "velocity": 0.6299212598425197
          },
          {
            "duration": 0.23076899999999512,
            "durationTicks": 60,
            "midi": 80,
            "name": "G#5",
            "ticks": 27360,
            "time": 105.23066399999999,
            "velocity": 0.6299212598425197
          },
          {
            "duration": 0.23076899999999512,
            "durationTicks": 60,
            "midi": 72,
            "name": "C5",
            "ticks": 27360,
            "time": 105.23066399999999,
            "velocity": 0.6299212598425197
          },
          {
            "duration": 0.23076899999999512,
            "durationTicks": 60,
            "midi": 80,
            "name": "G#5",
            "ticks": 27450,
            "time": 105.57681749999999,
            "velocity": 0.6299212598425197
          },
          {
            "duration": 0.23076899999999512,
            "durationTicks": 60,
            "midi": 77,
            "name": "F5",
            "ticks": 27450,
            "time": 105.57681749999999,
            "velocity": 0.6299212598425197
          },
          {
            "duration": 0.23076899999999512,
            "durationTicks": 60,
            "midi": 72,
            "name": "C5",
            "ticks": 27450,
            "time": 105.57681749999999,
            "velocity": 0.6299212598425197
          },
          {
            "duration": 0.23076899999999512,
            "durationTicks": 60,
            "midi": 77,
            "name": "F5",
            "ticks": 27540,
            "time": 105.92297099999999,
            "velocity": 0.6299212598425197
          },
          {
            "duration": 0.23076899999999512,
            "durationTicks": 60,
            "midi": 80,
            "name": "G#5",
            "ticks": 27540,
            "time": 105.92297099999999,
            "velocity": 0.6299212598425197
          },
          {
            "duration": 0.23076899999999512,
            "durationTicks": 60,
            "midi": 72,
            "name": "C5",
            "ticks": 27540,
            "time": 105.92297099999999,
            "velocity": 0.6299212598425197
          },
          {
            "duration": 0.23076899999999512,
            "durationTicks": 60,
            "midi": 80,
            "name": "G#5",
            "ticks": 27660,
            "time": 106.384509,
            "velocity": 0.6299212598425197
          },
          {
            "duration": 0.23076899999999512,
            "durationTicks": 60,
            "midi": 77,
            "name": "F5",
            "ticks": 27660,
            "time": 106.384509,
            "velocity": 0.6299212598425197
          },
          {
            "duration": 0.23076899999999512,
            "durationTicks": 60,
            "midi": 72,
            "name": "C5",
            "ticks": 27660,
            "time": 106.384509,
            "velocity": 0.6299212598425197
          },
          {
            "duration": 0.23076899999999512,
            "durationTicks": 60,
            "midi": 77,
            "name": "F5",
            "ticks": 27750,
            "time": 106.7306625,
            "velocity": 0.6299212598425197
          },
          {
            "duration": 0.23076899999999512,
            "durationTicks": 60,
            "midi": 80,
            "name": "G#5",
            "ticks": 27750,
            "time": 106.7306625,
            "velocity": 0.6299212598425197
          },
          {
            "duration": 0.23076899999999512,
            "durationTicks": 60,
            "midi": 72,
            "name": "C5",
            "ticks": 27750,
            "time": 106.7306625,
            "velocity": 0.6299212598425197
          },
          {
            "duration": 0.23076899999999512,
            "durationTicks": 60,
            "midi": 75,
            "name": "D#5",
            "ticks": 27840,
            "time": 107.076816,
            "velocity": 0.6299212598425197
          },
          {
            "duration": 0.23076899999999512,
            "durationTicks": 60,
            "midi": 79,
            "name": "G5",
            "ticks": 27840,
            "time": 107.076816,
            "velocity": 0.6299212598425197
          },
          {
            "duration": 0.23076899999999512,
            "durationTicks": 60,
            "midi": 70,
            "name": "A#4",
            "ticks": 27840,
            "time": 107.076816,
            "velocity": 0.6299212598425197
          },
          {
            "duration": 0.23076899999999512,
            "durationTicks": 60,
            "midi": 75,
            "name": "D#5",
            "ticks": 27930,
            "time": 107.4229695,
            "velocity": 0.6299212598425197
          },
          {
            "duration": 0.23076899999999512,
            "durationTicks": 60,
            "midi": 79,
            "name": "G5",
            "ticks": 27930,
            "time": 107.4229695,
            "velocity": 0.6299212598425197
          },
          {
            "duration": 0.23076899999999512,
            "durationTicks": 60,
            "midi": 70,
            "name": "A#4",
            "ticks": 27930,
            "time": 107.4229695,
            "velocity": 0.6299212598425197
          },
          {
            "duration": 0.23076899999999512,
            "durationTicks": 60,
            "midi": 73,
            "name": "C#5",
            "ticks": 28020,
            "time": 107.769123,
            "velocity": 0.6299212598425197
          },
          {
            "duration": 0.23076899999999512,
            "durationTicks": 60,
            "midi": 77,
            "name": "F5",
            "ticks": 28020,
            "time": 107.769123,
            "velocity": 0.6299212598425197
          },
          {
            "duration": 0.23076899999999512,
            "durationTicks": 60,
            "midi": 68,
            "name": "G#4",
            "ticks": 28020,
            "time": 107.769123,
            "velocity": 0.6299212598425197
          },
          {
            "duration": 0.23076899999999512,
            "durationTicks": 60,
            "midi": 77,
            "name": "F5",
            "ticks": 28140,
            "time": 108.230661,
            "velocity": 0.6299212598425197
          },
          {
            "duration": 0.23076899999999512,
            "durationTicks": 60,
            "midi": 73,
            "name": "C#5",
            "ticks": 28140,
            "time": 108.230661,
            "velocity": 0.6299212598425197
          },
          {
            "duration": 0.23076899999999512,
            "durationTicks": 60,
            "midi": 68,
            "name": "G#4",
            "ticks": 28140,
            "time": 108.230661,
            "velocity": 0.6299212598425197
          },
          {
            "duration": 0.23076899999999512,
            "durationTicks": 60,
            "midi": 77,
            "name": "F5",
            "ticks": 28230,
            "time": 108.5768145,
            "velocity": 0.6299212598425197
          },
          {
            "duration": 0.23076899999999512,
            "durationTicks": 60,
            "midi": 73,
            "name": "C#5",
            "ticks": 28230,
            "time": 108.5768145,
            "velocity": 0.6299212598425197
          },
          {
            "duration": 0.23076899999999512,
            "durationTicks": 60,
            "midi": 68,
            "name": "G#4",
            "ticks": 28230,
            "time": 108.5768145,
            "velocity": 0.6299212598425197
          },
          {
            "duration": 0.23076899999999512,
            "durationTicks": 60,
            "midi": 77,
            "name": "F5",
            "ticks": 28320,
            "time": 108.922968,
            "velocity": 0.6299212598425197
          },
          {
            "duration": 0.23076899999999512,
            "durationTicks": 60,
            "midi": 80,
            "name": "G#5",
            "ticks": 28320,
            "time": 108.922968,
            "velocity": 0.6299212598425197
          },
          {
            "duration": 0.23076899999999512,
            "durationTicks": 60,
            "midi": 72,
            "name": "C5",
            "ticks": 28320,
            "time": 108.922968,
            "velocity": 0.6299212598425197
          },
          {
            "duration": 0.23076899999999512,
            "durationTicks": 60,
            "midi": 77,
            "name": "F5",
            "ticks": 28410,
            "time": 109.2691215,
            "velocity": 0.6299212598425197
          },
          {
            "duration": 0.23076899999999512,
            "durationTicks": 60,
            "midi": 80,
            "name": "G#5",
            "ticks": 28410,
            "time": 109.2691215,
            "velocity": 0.6299212598425197
          },
          {
            "duration": 0.23076899999999512,
            "durationTicks": 60,
            "midi": 72,
            "name": "C5",
            "ticks": 28410,
            "time": 109.2691215,
            "velocity": 0.6299212598425197
          },
          {
            "duration": 0.23076899999999512,
            "durationTicks": 60,
            "midi": 77,
            "name": "F5",
            "ticks": 28500,
            "time": 109.615275,
            "velocity": 0.6299212598425197
          },
          {
            "duration": 0.23076899999999512,
            "durationTicks": 60,
            "midi": 80,
            "name": "G#5",
            "ticks": 28500,
            "time": 109.615275,
            "velocity": 0.6299212598425197
          },
          {
            "duration": 0.23076899999999512,
            "durationTicks": 60,
            "midi": 72,
            "name": "C5",
            "ticks": 28500,
            "time": 109.615275,
            "velocity": 0.6299212598425197
          },
          {
            "duration": 0.23076900000000933,
            "durationTicks": 60,
            "midi": 77,
            "name": "F5",
            "ticks": 28620,
            "time": 110.07681299999999,
            "velocity": 0.6299212598425197
          },
          {
            "duration": 0.23076900000000933,
            "durationTicks": 60,
            "midi": 80,
            "name": "G#5",
            "ticks": 28620,
            "time": 110.07681299999999,
            "velocity": 0.6299212598425197
          },
          {
            "duration": 0.23076900000000933,
            "durationTicks": 60,
            "midi": 72,
            "name": "C5",
            "ticks": 28620,
            "time": 110.07681299999999,
            "velocity": 0.6299212598425197
          },
          {
            "duration": 0.23076900000000933,
            "durationTicks": 60,
            "midi": 77,
            "name": "F5",
            "ticks": 28710,
            "time": 110.42296649999999,
            "velocity": 0.6299212598425197
          },
          {
            "duration": 0.23076900000000933,
            "durationTicks": 60,
            "midi": 80,
            "name": "G#5",
            "ticks": 28710,
            "time": 110.42296649999999,
            "velocity": 0.6299212598425197
          },
          {
            "duration": 0.23076900000000933,
            "durationTicks": 60,
            "midi": 72,
            "name": "C5",
            "ticks": 28710,
            "time": 110.42296649999999,
            "velocity": 0.6299212598425197
          },
          {
            "duration": 0.23076900000000933,
            "durationTicks": 60,
            "midi": 79,
            "name": "G5",
            "ticks": 28800,
            "time": 110.76911999999999,
            "velocity": 0.6299212598425197
          },
          {
            "duration": 0.23076900000000933,
            "durationTicks": 60,
            "midi": 75,
            "name": "D#5",
            "ticks": 28800,
            "time": 110.76911999999999,
            "velocity": 0.6299212598425197
          },
          {
            "duration": 0.23076900000000933,
            "durationTicks": 60,
            "midi": 70,
            "name": "A#4",
            "ticks": 28800,
            "time": 110.76911999999999,
            "velocity": 0.6299212598425197
          },
          {
            "duration": 0.23076900000000933,
            "durationTicks": 60,
            "midi": 70,
            "name": "A#4",
            "ticks": 28890,
            "time": 111.11527349999999,
            "velocity": 0.6299212598425197
          },
          {
            "duration": 0.23076900000000933,
            "durationTicks": 60,
            "midi": 79,
            "name": "G5",
            "ticks": 28890,
            "time": 111.11527349999999,
            "velocity": 0.6299212598425197
          },
          {
            "duration": 0.23076900000000933,
            "durationTicks": 60,
            "midi": 75,
            "name": "D#5",
            "ticks": 28890,
            "time": 111.11527349999999,
            "velocity": 0.6299212598425197
          },
          {
            "duration": 0.23076900000000933,
            "durationTicks": 60,
            "midi": 73,
            "name": "C#5",
            "ticks": 28980,
            "time": 111.46142699999999,
            "velocity": 0.6299212598425197
          },
          {
            "duration": 0.23076900000000933,
            "durationTicks": 60,
            "midi": 77,
            "name": "F5",
            "ticks": 28980,
            "time": 111.46142699999999,
            "velocity": 0.6299212598425197
          },
          {
            "duration": 0.23076900000000933,
            "durationTicks": 60,
            "midi": 80,
            "name": "G#5",
            "ticks": 28980,
            "time": 111.46142699999999,
            "velocity": 0.6299212598425197
          },
          {
            "duration": 0.23076900000000933,
            "durationTicks": 60,
            "midi": 68,
            "name": "G#4",
            "ticks": 28980,
            "time": 111.46142699999999,
            "velocity": 0.6299212598425197
          },
          {
            "duration": 0.23076899999999512,
            "durationTicks": 60,
            "midi": 68,
            "name": "G#4",
            "ticks": 29100,
            "time": 111.92296499999999,
            "velocity": 0.6299212598425197
          },
          {
            "duration": 0.23076899999999512,
            "durationTicks": 60,
            "midi": 77,
            "name": "F5",
            "ticks": 29100,
            "time": 111.92296499999999,
            "velocity": 0.6299212598425197
          },
          {
            "duration": 0.23076899999999512,
            "durationTicks": 60,
            "midi": 73,
            "name": "C#5",
            "ticks": 29100,
            "time": 111.92296499999999,
            "velocity": 0.6299212598425197
          },
          {
            "duration": 0.23076899999999512,
            "durationTicks": 60,
            "midi": 80,
            "name": "G#5",
            "ticks": 29100,
            "time": 111.92296499999999,
            "velocity": 0.6299212598425197
          },
          {
            "duration": 0.23076899999999512,
            "durationTicks": 60,
            "midi": 77,
            "name": "F5",
            "ticks": 29190,
            "time": 112.26911849999999,
            "velocity": 0.6299212598425197
          },
          {
            "duration": 0.23076899999999512,
            "durationTicks": 60,
            "midi": 68,
            "name": "G#4",
            "ticks": 29190,
            "time": 112.26911849999999,
            "velocity": 0.6299212598425197
          },
          {
            "duration": 0.23076899999999512,
            "durationTicks": 60,
            "midi": 80,
            "name": "G#5",
            "ticks": 29190,
            "time": 112.26911849999999,
            "velocity": 0.6299212598425197
          },
          {
            "duration": 0.23076899999999512,
            "durationTicks": 60,
            "midi": 73,
            "name": "C#5",
            "ticks": 29190,
            "time": 112.26911849999999,
            "velocity": 0.6299212598425197
          },
          {
            "duration": 0.23076899999999512,
            "durationTicks": 60,
            "midi": 77,
            "name": "F5",
            "ticks": 29280,
            "time": 112.61527199999999,
            "velocity": 0.6299212598425197
          },
          {
            "duration": 0.23076899999999512,
            "durationTicks": 60,
            "midi": 80,
            "name": "G#5",
            "ticks": 29280,
            "time": 112.61527199999999,
            "velocity": 0.6299212598425197
          },
          {
            "duration": 0.23076899999999512,
            "durationTicks": 60,
            "midi": 72,
            "name": "C5",
            "ticks": 29280,
            "time": 112.61527199999999,
            "velocity": 0.6299212598425197
          },
          {
            "duration": 0.23076899999999512,
            "durationTicks": 60,
            "midi": 80,
            "name": "G#5",
            "ticks": 29370,
            "time": 112.96142549999999,
            "velocity": 0.6299212598425197
          },
          {
            "duration": 0.23076899999999512,
            "durationTicks": 60,
            "midi": 77,
            "name": "F5",
            "ticks": 29370,
            "time": 112.96142549999999,
            "velocity": 0.6299212598425197
          },
          {
            "duration": 0.23076899999999512,
            "durationTicks": 60,
            "midi": 72,
            "name": "C5",
            "ticks": 29370,
            "time": 112.96142549999999,
            "velocity": 0.6299212598425197
          },
          {
            "duration": 0.23076899999999512,
            "durationTicks": 60,
            "midi": 77,
            "name": "F5",
            "ticks": 29460,
            "time": 113.30757899999999,
            "velocity": 0.6299212598425197
          },
          {
            "duration": 0.23076899999999512,
            "durationTicks": 60,
            "midi": 80,
            "name": "G#5",
            "ticks": 29460,
            "time": 113.30757899999999,
            "velocity": 0.6299212598425197
          },
          {
            "duration": 0.23076899999999512,
            "durationTicks": 60,
            "midi": 72,
            "name": "C5",
            "ticks": 29460,
            "time": 113.30757899999999,
            "velocity": 0.6299212598425197
          },
          {
            "duration": 0.23076899999999512,
            "durationTicks": 60,
            "midi": 80,
            "name": "G#5",
            "ticks": 29580,
            "time": 113.769117,
            "velocity": 0.6299212598425197
          },
          {
            "duration": 0.23076899999999512,
            "durationTicks": 60,
            "midi": 77,
            "name": "F5",
            "ticks": 29580,
            "time": 113.769117,
            "velocity": 0.6299212598425197
          },
          {
            "duration": 0.23076899999999512,
            "durationTicks": 60,
            "midi": 72,
            "name": "C5",
            "ticks": 29580,
            "time": 113.769117,
            "velocity": 0.6299212598425197
          },
          {
            "duration": 0.23076899999999512,
            "durationTicks": 60,
            "midi": 77,
            "name": "F5",
            "ticks": 29670,
            "time": 114.1152705,
            "velocity": 0.6299212598425197
          },
          {
            "duration": 0.23076899999999512,
            "durationTicks": 60,
            "midi": 80,
            "name": "G#5",
            "ticks": 29670,
            "time": 114.1152705,
            "velocity": 0.6299212598425197
          },
          {
            "duration": 0.23076899999999512,
            "durationTicks": 60,
            "midi": 72,
            "name": "C5",
            "ticks": 29670,
            "time": 114.1152705,
            "velocity": 0.6299212598425197
          },
          {
            "duration": 0.23076899999999512,
            "durationTicks": 60,
            "midi": 75,
            "name": "D#5",
            "ticks": 29760,
            "time": 114.461424,
            "velocity": 0.6299212598425197
          },
          {
            "duration": 0.23076899999999512,
            "durationTicks": 60,
            "midi": 79,
            "name": "G5",
            "ticks": 29760,
            "time": 114.461424,
            "velocity": 0.6299212598425197
          },
          {
            "duration": 0.23076899999999512,
            "durationTicks": 60,
            "midi": 70,
            "name": "A#4",
            "ticks": 29760,
            "time": 114.461424,
            "velocity": 0.6299212598425197
          },
          {
            "duration": 0.23076899999999512,
            "durationTicks": 60,
            "midi": 75,
            "name": "D#5",
            "ticks": 29850,
            "time": 114.8075775,
            "velocity": 0.6299212598425197
          },
          {
            "duration": 0.23076899999999512,
            "durationTicks": 60,
            "midi": 79,
            "name": "G5",
            "ticks": 29850,
            "time": 114.8075775,
            "velocity": 0.6299212598425197
          },
          {
            "duration": 0.23076899999999512,
            "durationTicks": 60,
            "midi": 70,
            "name": "A#4",
            "ticks": 29850,
            "time": 114.8075775,
            "velocity": 0.6299212598425197
          },
          {
            "duration": 0.23076899999999512,
            "durationTicks": 60,
            "midi": 73,
            "name": "C#5",
            "ticks": 29940,
            "time": 115.153731,
            "velocity": 0.6299212598425197
          },
          {
            "duration": 0.23076899999999512,
            "durationTicks": 60,
            "midi": 77,
            "name": "F5",
            "ticks": 29940,
            "time": 115.153731,
            "velocity": 0.6299212598425197
          },
          {
            "duration": 0.23076899999999512,
            "durationTicks": 60,
            "midi": 68,
            "name": "G#4",
            "ticks": 29940,
            "time": 115.153731,
            "velocity": 0.6299212598425197
          },
          {
            "duration": 0.23076899999999512,
            "durationTicks": 60,
            "midi": 77,
            "name": "F5",
            "ticks": 30060,
            "time": 115.615269,
            "velocity": 0.6299212598425197
          },
          {
            "duration": 0.23076899999999512,
            "durationTicks": 60,
            "midi": 73,
            "name": "C#5",
            "ticks": 30060,
            "time": 115.615269,
            "velocity": 0.6299212598425197
          },
          {
            "duration": 0.23076899999999512,
            "durationTicks": 60,
            "midi": 68,
            "name": "G#4",
            "ticks": 30060,
            "time": 115.615269,
            "velocity": 0.6299212598425197
          },
          {
            "duration": 0.23076899999999512,
            "durationTicks": 60,
            "midi": 77,
            "name": "F5",
            "ticks": 30150,
            "time": 115.9614225,
            "velocity": 0.6299212598425197
          },
          {
            "duration": 0.23076899999999512,
            "durationTicks": 60,
            "midi": 73,
            "name": "C#5",
            "ticks": 30150,
            "time": 115.9614225,
            "velocity": 0.6299212598425197
          },
          {
            "duration": 0.23076899999999512,
            "durationTicks": 60,
            "midi": 68,
            "name": "G#4",
            "ticks": 30150,
            "time": 115.9614225,
            "velocity": 0.6299212598425197
          },
          {
            "duration": 0.23076899999999512,
            "durationTicks": 60,
            "midi": 77,
            "name": "F5",
            "ticks": 30240,
            "time": 116.307576,
            "velocity": 0.6299212598425197
          },
          {
            "duration": 0.23076899999999512,
            "durationTicks": 60,
            "midi": 80,
            "name": "G#5",
            "ticks": 30240,
            "time": 116.307576,
            "velocity": 0.6299212598425197
          },
          {
            "duration": 0.23076899999999512,
            "durationTicks": 60,
            "midi": 72,
            "name": "C5",
            "ticks": 30240,
            "time": 116.307576,
            "velocity": 0.6299212598425197
          },
          {
            "duration": 0.23076899999999512,
            "durationTicks": 60,
            "midi": 77,
            "name": "F5",
            "ticks": 30330,
            "time": 116.6537295,
            "velocity": 0.6299212598425197
          },
          {
            "duration": 0.23076899999999512,
            "durationTicks": 60,
            "midi": 80,
            "name": "G#5",
            "ticks": 30330,
            "time": 116.6537295,
            "velocity": 0.6299212598425197
          },
          {
            "duration": 0.23076899999999512,
            "durationTicks": 60,
            "midi": 72,
            "name": "C5",
            "ticks": 30330,
            "time": 116.6537295,
            "velocity": 0.6299212598425197
          },
          {
            "duration": 0.23076899999999512,
            "durationTicks": 60,
            "midi": 77,
            "name": "F5",
            "ticks": 30420,
            "time": 116.999883,
            "velocity": 0.6299212598425197
          },
          {
            "duration": 0.23076899999999512,
            "durationTicks": 60,
            "midi": 80,
            "name": "G#5",
            "ticks": 30420,
            "time": 116.999883,
            "velocity": 0.6299212598425197
          },
          {
            "duration": 0.23076899999999512,
            "durationTicks": 60,
            "midi": 72,
            "name": "C5",
            "ticks": 30420,
            "time": 116.999883,
            "velocity": 0.6299212598425197
          },
          {
            "duration": 0.23076900000000933,
            "durationTicks": 60,
            "midi": 77,
            "name": "F5",
            "ticks": 30540,
            "time": 117.46142099999999,
            "velocity": 0.6299212598425197
          },
          {
            "duration": 0.23076900000000933,
            "durationTicks": 60,
            "midi": 80,
            "name": "G#5",
            "ticks": 30540,
            "time": 117.46142099999999,
            "velocity": 0.6299212598425197
          },
          {
            "duration": 0.23076900000000933,
            "durationTicks": 60,
            "midi": 72,
            "name": "C5",
            "ticks": 30540,
            "time": 117.46142099999999,
            "velocity": 0.6299212598425197
          },
          {
            "duration": 0.23076900000000933,
            "durationTicks": 60,
            "midi": 77,
            "name": "F5",
            "ticks": 30630,
            "time": 117.80757449999999,
            "velocity": 0.6299212598425197
          },
          {
            "duration": 0.23076900000000933,
            "durationTicks": 60,
            "midi": 80,
            "name": "G#5",
            "ticks": 30630,
            "time": 117.80757449999999,
            "velocity": 0.6299212598425197
          },
          {
            "duration": 0.23076900000000933,
            "durationTicks": 60,
            "midi": 72,
            "name": "C5",
            "ticks": 30630,
            "time": 117.80757449999999,
            "velocity": 0.6299212598425197
          },
          {
            "duration": 0.23076900000000933,
            "durationTicks": 60,
            "midi": 79,
            "name": "G5",
            "ticks": 30720,
            "time": 118.15372799999999,
            "velocity": 0.6299212598425197
          },
          {
            "duration": 0.23076900000000933,
            "durationTicks": 60,
            "midi": 75,
            "name": "D#5",
            "ticks": 30720,
            "time": 118.15372799999999,
            "velocity": 0.6299212598425197
          },
          {
            "duration": 0.23076900000000933,
            "durationTicks": 60,
            "midi": 70,
            "name": "A#4",
            "ticks": 30720,
            "time": 118.15372799999999,
            "velocity": 0.6299212598425197
          },
          {
            "duration": 0.23076900000000933,
            "durationTicks": 60,
            "midi": 70,
            "name": "A#4",
            "ticks": 30810,
            "time": 118.49988149999999,
            "velocity": 0.6299212598425197
          },
          {
            "duration": 0.23076900000000933,
            "durationTicks": 60,
            "midi": 79,
            "name": "G5",
            "ticks": 30810,
            "time": 118.49988149999999,
            "velocity": 0.6299212598425197
          },
          {
            "duration": 0.23076900000000933,
            "durationTicks": 60,
            "midi": 75,
            "name": "D#5",
            "ticks": 30810,
            "time": 118.49988149999999,
            "velocity": 0.6299212598425197
          },
          {
            "duration": 0.23076900000000933,
            "durationTicks": 60,
            "midi": 73,
            "name": "C#5",
            "ticks": 30900,
            "time": 118.84603499999999,
            "velocity": 0.6299212598425197
          },
          {
            "duration": 0.23076900000000933,
            "durationTicks": 60,
            "midi": 77,
            "name": "F5",
            "ticks": 30900,
            "time": 118.84603499999999,
            "velocity": 0.6299212598425197
          },
          {
            "duration": 0.23076900000000933,
            "durationTicks": 60,
            "midi": 80,
            "name": "G#5",
            "ticks": 30900,
            "time": 118.84603499999999,
            "velocity": 0.6299212598425197
          },
          {
            "duration": 0.23076900000000933,
            "durationTicks": 60,
            "midi": 68,
            "name": "G#4",
            "ticks": 30900,
            "time": 118.84603499999999,
            "velocity": 0.6299212598425197
          },
          {
            "duration": 0.23076899999999512,
            "durationTicks": 60,
            "midi": 68,
            "name": "G#4",
            "ticks": 31020,
            "time": 119.30757299999999,
            "velocity": 0.6299212598425197
          },
          {
            "duration": 0.23076899999999512,
            "durationTicks": 60,
            "midi": 77,
            "name": "F5",
            "ticks": 31020,
            "time": 119.30757299999999,
            "velocity": 0.6299212598425197
          },
          {
            "duration": 0.23076899999999512,
            "durationTicks": 60,
            "midi": 73,
            "name": "C#5",
            "ticks": 31020,
            "time": 119.30757299999999,
            "velocity": 0.6299212598425197
          },
          {
            "duration": 0.23076899999999512,
            "durationTicks": 60,
            "midi": 80,
            "name": "G#5",
            "ticks": 31020,
            "time": 119.30757299999999,
            "velocity": 0.6299212598425197
          },
          {
            "duration": 0.23076899999999512,
            "durationTicks": 60,
            "midi": 77,
            "name": "F5",
            "ticks": 31110,
            "time": 119.65372649999999,
            "velocity": 0.6299212598425197
          },
          {
            "duration": 0.23076899999999512,
            "durationTicks": 60,
            "midi": 68,
            "name": "G#4",
            "ticks": 31110,
            "time": 119.65372649999999,
            "velocity": 0.6299212598425197
          },
          {
            "duration": 0.23076899999999512,
            "durationTicks": 60,
            "midi": 80,
            "name": "G#5",
            "ticks": 31110,
            "time": 119.65372649999999,
            "velocity": 0.6299212598425197
          },
          {
            "duration": 0.23076899999999512,
            "durationTicks": 60,
            "midi": 73,
            "name": "C#5",
            "ticks": 31110,
            "time": 119.65372649999999,
            "velocity": 0.6299212598425197
          },
          {
            "duration": 0.23076899999999512,
            "durationTicks": 60,
            "midi": 77,
            "name": "F5",
            "ticks": 31200,
            "time": 119.99987999999999,
            "velocity": 0.6299212598425197
          },
          {
            "duration": 0.23076899999999512,
            "durationTicks": 60,
            "midi": 80,
            "name": "G#5",
            "ticks": 31200,
            "time": 119.99987999999999,
            "velocity": 0.6299212598425197
          },
          {
            "duration": 0.23076899999999512,
            "durationTicks": 60,
            "midi": 72,
            "name": "C5",
            "ticks": 31200,
            "time": 119.99987999999999,
            "velocity": 0.6299212598425197
          },
          {
            "duration": 0.23076899999999512,
            "durationTicks": 60,
            "midi": 80,
            "name": "G#5",
            "ticks": 31290,
            "time": 120.34603349999999,
            "velocity": 0.6299212598425197
          },
          {
            "duration": 0.23076899999999512,
            "durationTicks": 60,
            "midi": 77,
            "name": "F5",
            "ticks": 31290,
            "time": 120.34603349999999,
            "velocity": 0.6299212598425197
          },
          {
            "duration": 0.23076899999999512,
            "durationTicks": 60,
            "midi": 72,
            "name": "C5",
            "ticks": 31290,
            "time": 120.34603349999999,
            "velocity": 0.6299212598425197
          },
          {
            "duration": 0.23076899999999512,
            "durationTicks": 60,
            "midi": 77,
            "name": "F5",
            "ticks": 31380,
            "time": 120.69218699999999,
            "velocity": 0.6299212598425197
          },
          {
            "duration": 0.23076899999999512,
            "durationTicks": 60,
            "midi": 80,
            "name": "G#5",
            "ticks": 31380,
            "time": 120.69218699999999,
            "velocity": 0.6299212598425197
          },
          {
            "duration": 0.23076899999999512,
            "durationTicks": 60,
            "midi": 72,
            "name": "C5",
            "ticks": 31380,
            "time": 120.69218699999999,
            "velocity": 0.6299212598425197
          },
          {
            "duration": 0.23076899999999512,
            "durationTicks": 60,
            "midi": 80,
            "name": "G#5",
            "ticks": 31500,
            "time": 121.153725,
            "velocity": 0.6299212598425197
          },
          {
            "duration": 0.23076899999999512,
            "durationTicks": 60,
            "midi": 77,
            "name": "F5",
            "ticks": 31500,
            "time": 121.153725,
            "velocity": 0.6299212598425197
          },
          {
            "duration": 0.23076899999999512,
            "durationTicks": 60,
            "midi": 72,
            "name": "C5",
            "ticks": 31500,
            "time": 121.153725,
            "velocity": 0.6299212598425197
          },
          {
            "duration": 0.23076899999999512,
            "durationTicks": 60,
            "midi": 77,
            "name": "F5",
            "ticks": 31590,
            "time": 121.4998785,
            "velocity": 0.6299212598425197
          },
          {
            "duration": 0.23076899999999512,
            "durationTicks": 60,
            "midi": 80,
            "name": "G#5",
            "ticks": 31590,
            "time": 121.4998785,
            "velocity": 0.6299212598425197
          },
          {
            "duration": 0.23076899999999512,
            "durationTicks": 60,
            "midi": 72,
            "name": "C5",
            "ticks": 31590,
            "time": 121.4998785,
            "velocity": 0.6299212598425197
          },
          {
            "duration": 0.23076899999999512,
            "durationTicks": 60,
            "midi": 75,
            "name": "D#5",
            "ticks": 31680,
            "time": 121.846032,
            "velocity": 0.6299212598425197
          },
          {
            "duration": 0.23076899999999512,
            "durationTicks": 60,
            "midi": 79,
            "name": "G5",
            "ticks": 31680,
            "time": 121.846032,
            "velocity": 0.6299212598425197
          },
          {
            "duration": 0.23076899999999512,
            "durationTicks": 60,
            "midi": 70,
            "name": "A#4",
            "ticks": 31680,
            "time": 121.846032,
            "velocity": 0.6299212598425197
          },
          {
            "duration": 0.23076899999999512,
            "durationTicks": 60,
            "midi": 75,
            "name": "D#5",
            "ticks": 31770,
            "time": 122.1921855,
            "velocity": 0.6299212598425197
          },
          {
            "duration": 0.23076899999999512,
            "durationTicks": 60,
            "midi": 79,
            "name": "G5",
            "ticks": 31770,
            "time": 122.1921855,
            "velocity": 0.6299212598425197
          },
          {
            "duration": 0.23076899999999512,
            "durationTicks": 60,
            "midi": 70,
            "name": "A#4",
            "ticks": 31770,
            "time": 122.1921855,
            "velocity": 0.6299212598425197
          },
          {
            "duration": 0.23076899999999512,
            "durationTicks": 60,
            "midi": 73,
            "name": "C#5",
            "ticks": 31860,
            "time": 122.538339,
            "velocity": 0.6299212598425197
          },
          {
            "duration": 0.23076899999999512,
            "durationTicks": 60,
            "midi": 77,
            "name": "F5",
            "ticks": 31860,
            "time": 122.538339,
            "velocity": 0.6299212598425197
          },
          {
            "duration": 0.23076899999999512,
            "durationTicks": 60,
            "midi": 68,
            "name": "G#4",
            "ticks": 31860,
            "time": 122.538339,
            "velocity": 0.6299212598425197
          },
          {
            "duration": 0.23076900000000933,
            "durationTicks": 60,
            "midi": 77,
            "name": "F5",
            "ticks": 31980,
            "time": 122.99987699999998,
            "velocity": 0.6299212598425197
          },
          {
            "duration": 0.23076900000000933,
            "durationTicks": 60,
            "midi": 73,
            "name": "C#5",
            "ticks": 31980,
            "time": 122.99987699999998,
            "velocity": 0.6299212598425197
          },
          {
            "duration": 0.23076900000000933,
            "durationTicks": 60,
            "midi": 68,
            "name": "G#4",
            "ticks": 31980,
            "time": 122.99987699999998,
            "velocity": 0.6299212598425197
          },
          {
            "duration": 0.23076900000000933,
            "durationTicks": 60,
            "midi": 77,
            "name": "F5",
            "ticks": 32070,
            "time": 123.34603049999998,
            "velocity": 0.6299212598425197
          },
          {
            "duration": 0.23076900000000933,
            "durationTicks": 60,
            "midi": 73,
            "name": "C#5",
            "ticks": 32070,
            "time": 123.34603049999998,
            "velocity": 0.6299212598425197
          },
          {
            "duration": 0.23076900000000933,
            "durationTicks": 60,
            "midi": 68,
            "name": "G#4",
            "ticks": 32070,
            "time": 123.34603049999998,
            "velocity": 0.6299212598425197
          },
          {
            "duration": 0.23076900000000933,
            "durationTicks": 60,
            "midi": 77,
            "name": "F5",
            "ticks": 32160,
            "time": 123.69218399999998,
            "velocity": 0.6299212598425197
          },
          {
            "duration": 0.23076900000000933,
            "durationTicks": 60,
            "midi": 80,
            "name": "G#5",
            "ticks": 32160,
            "time": 123.69218399999998,
            "velocity": 0.6299212598425197
          },
          {
            "duration": 0.23076900000000933,
            "durationTicks": 60,
            "midi": 72,
            "name": "C5",
            "ticks": 32160,
            "time": 123.69218399999998,
            "velocity": 0.6299212598425197
          },
          {
            "duration": 0.23076900000000933,
            "durationTicks": 60,
            "midi": 77,
            "name": "F5",
            "ticks": 32250,
            "time": 124.03833749999998,
            "velocity": 0.6299212598425197
          },
          {
            "duration": 0.23076900000000933,
            "durationTicks": 60,
            "midi": 80,
            "name": "G#5",
            "ticks": 32250,
            "time": 124.03833749999998,
            "velocity": 0.6299212598425197
          },
          {
            "duration": 0.23076900000000933,
            "durationTicks": 60,
            "midi": 72,
            "name": "C5",
            "ticks": 32250,
            "time": 124.03833749999998,
            "velocity": 0.6299212598425197
          },
          {
            "duration": 0.23076900000000933,
            "durationTicks": 60,
            "midi": 77,
            "name": "F5",
            "ticks": 32340,
            "time": 124.38449099999998,
            "velocity": 0.6299212598425197
          },
          {
            "duration": 0.23076900000000933,
            "durationTicks": 60,
            "midi": 80,
            "name": "G#5",
            "ticks": 32340,
            "time": 124.38449099999998,
            "velocity": 0.6299212598425197
          },
          {
            "duration": 0.23076900000000933,
            "durationTicks": 60,
            "midi": 72,
            "name": "C5",
            "ticks": 32340,
            "time": 124.38449099999998,
            "velocity": 0.6299212598425197
          },
          {
            "duration": 0.23076900000000933,
            "durationTicks": 60,
            "midi": 77,
            "name": "F5",
            "ticks": 32460,
            "time": 124.84602899999999,
            "velocity": 0.6299212598425197
          },
          {
            "duration": 0.23076900000000933,
            "durationTicks": 60,
            "midi": 80,
            "name": "G#5",
            "ticks": 32460,
            "time": 124.84602899999999,
            "velocity": 0.6299212598425197
          },
          {
            "duration": 0.23076900000000933,
            "durationTicks": 60,
            "midi": 72,
            "name": "C5",
            "ticks": 32460,
            "time": 124.84602899999999,
            "velocity": 0.6299212598425197
          },
          {
            "duration": 0.23076900000000933,
            "durationTicks": 60,
            "midi": 77,
            "name": "F5",
            "ticks": 32550,
            "time": 125.19218249999999,
            "velocity": 0.6299212598425197
          },
          {
            "duration": 0.23076900000000933,
            "durationTicks": 60,
            "midi": 80,
            "name": "G#5",
            "ticks": 32550,
            "time": 125.19218249999999,
            "velocity": 0.6299212598425197
          },
          {
            "duration": 0.23076900000000933,
            "durationTicks": 60,
            "midi": 72,
            "name": "C5",
            "ticks": 32550,
            "time": 125.19218249999999,
            "velocity": 0.6299212598425197
          },
          {
            "duration": 0.23076900000000933,
            "durationTicks": 60,
            "midi": 79,
            "name": "G5",
            "ticks": 32640,
            "time": 125.53833599999999,
            "velocity": 0.6299212598425197
          },
          {
            "duration": 0.23076900000000933,
            "durationTicks": 60,
            "midi": 75,
            "name": "D#5",
            "ticks": 32640,
            "time": 125.53833599999999,
            "velocity": 0.6299212598425197
          },
          {
            "duration": 0.23076900000000933,
            "durationTicks": 60,
            "midi": 70,
            "name": "A#4",
            "ticks": 32640,
            "time": 125.53833599999999,
            "velocity": 0.6299212598425197
          },
          {
            "duration": 0.23076900000000933,
            "durationTicks": 60,
            "midi": 70,
            "name": "A#4",
            "ticks": 32730,
            "time": 125.88448949999999,
            "velocity": 0.6299212598425197
          },
          {
            "duration": 0.23076900000000933,
            "durationTicks": 60,
            "midi": 79,
            "name": "G5",
            "ticks": 32730,
            "time": 125.88448949999999,
            "velocity": 0.6299212598425197
          },
          {
            "duration": 0.23076900000000933,
            "durationTicks": 60,
            "midi": 75,
            "name": "D#5",
            "ticks": 32730,
            "time": 125.88448949999999,
            "velocity": 0.6299212598425197
          },
          {
            "duration": 0.23076900000000933,
            "durationTicks": 60,
            "midi": 73,
            "name": "C#5",
            "ticks": 32820,
            "time": 126.23064299999999,
            "velocity": 0.6299212598425197
          },
          {
            "duration": 0.23076900000000933,
            "durationTicks": 60,
            "midi": 77,
            "name": "F5",
            "ticks": 32820,
            "time": 126.23064299999999,
            "velocity": 0.6299212598425197
          },
          {
            "duration": 0.23076900000000933,
            "durationTicks": 60,
            "midi": 80,
            "name": "G#5",
            "ticks": 32820,
            "time": 126.23064299999999,
            "velocity": 0.6299212598425197
          },
          {
            "duration": 0.23076900000000933,
            "durationTicks": 60,
            "midi": 68,
            "name": "G#4",
            "ticks": 32820,
            "time": 126.23064299999999,
            "velocity": 0.6299212598425197
          },
          {
            "duration": 0.23076899999999512,
            "durationTicks": 60,
            "midi": 68,
            "name": "G#4",
            "ticks": 32940,
            "time": 126.69218099999999,
            "velocity": 0.6299212598425197
          },
          {
            "duration": 0.23076899999999512,
            "durationTicks": 60,
            "midi": 77,
            "name": "F5",
            "ticks": 32940,
            "time": 126.69218099999999,
            "velocity": 0.6299212598425197
          },
          {
            "duration": 0.23076899999999512,
            "durationTicks": 60,
            "midi": 73,
            "name": "C#5",
            "ticks": 32940,
            "time": 126.69218099999999,
            "velocity": 0.6299212598425197
          },
          {
            "duration": 0.23076899999999512,
            "durationTicks": 60,
            "midi": 80,
            "name": "G#5",
            "ticks": 32940,
            "time": 126.69218099999999,
            "velocity": 0.6299212598425197
          },
          {
            "duration": 0.23076899999999512,
            "durationTicks": 60,
            "midi": 77,
            "name": "F5",
            "ticks": 33030,
            "time": 127.03833449999999,
            "velocity": 0.6299212598425197
          },
          {
            "duration": 0.23076899999999512,
            "durationTicks": 60,
            "midi": 68,
            "name": "G#4",
            "ticks": 33030,
            "time": 127.03833449999999,
            "velocity": 0.6299212598425197
          },
          {
            "duration": 0.23076899999999512,
            "durationTicks": 60,
            "midi": 80,
            "name": "G#5",
            "ticks": 33030,
            "time": 127.03833449999999,
            "velocity": 0.6299212598425197
          },
          {
            "duration": 0.23076899999999512,
            "durationTicks": 60,
            "midi": 73,
            "name": "C#5",
            "ticks": 33030,
            "time": 127.03833449999999,
            "velocity": 0.6299212598425197
          },
          {
            "duration": 0.23076899999999512,
            "durationTicks": 60,
            "midi": 77,
            "name": "F5",
            "ticks": 33120,
            "time": 127.38448799999999,
            "velocity": 0.6299212598425197
          },
          {
            "duration": 0.23076899999999512,
            "durationTicks": 60,
            "midi": 80,
            "name": "G#5",
            "ticks": 33120,
            "time": 127.38448799999999,
            "velocity": 0.6299212598425197
          },
          {
            "duration": 0.23076899999999512,
            "durationTicks": 60,
            "midi": 72,
            "name": "C5",
            "ticks": 33120,
            "time": 127.38448799999999,
            "velocity": 0.6299212598425197
          },
          {
            "duration": 0.23076899999999512,
            "durationTicks": 60,
            "midi": 80,
            "name": "G#5",
            "ticks": 33210,
            "time": 127.73064149999999,
            "velocity": 0.6299212598425197
          },
          {
            "duration": 0.23076899999999512,
            "durationTicks": 60,
            "midi": 77,
            "name": "F5",
            "ticks": 33210,
            "time": 127.73064149999999,
            "velocity": 0.6299212598425197
          },
          {
            "duration": 0.23076899999999512,
            "durationTicks": 60,
            "midi": 72,
            "name": "C5",
            "ticks": 33210,
            "time": 127.73064149999999,
            "velocity": 0.6299212598425197
          },
          {
            "duration": 0.23076900000000933,
            "durationTicks": 60,
            "midi": 77,
            "name": "F5",
            "ticks": 33300,
            "time": 128.07679499999998,
            "velocity": 0.6299212598425197
          },
          {
            "duration": 0.23076900000000933,
            "durationTicks": 60,
            "midi": 80,
            "name": "G#5",
            "ticks": 33300,
            "time": 128.07679499999998,
            "velocity": 0.6299212598425197
          },
          {
            "duration": 0.23076900000000933,
            "durationTicks": 60,
            "midi": 72,
            "name": "C5",
            "ticks": 33300,
            "time": 128.07679499999998,
            "velocity": 0.6299212598425197
          },
          {
            "duration": 0.2307689999999809,
            "durationTicks": 60,
            "midi": 80,
            "name": "G#5",
            "ticks": 33420,
            "time": 128.538333,
            "velocity": 0.6299212598425197
          },
          {
            "duration": 0.2307689999999809,
            "durationTicks": 60,
            "midi": 77,
            "name": "F5",
            "ticks": 33420,
            "time": 128.538333,
            "velocity": 0.6299212598425197
          },
          {
            "duration": 0.2307689999999809,
            "durationTicks": 60,
            "midi": 72,
            "name": "C5",
            "ticks": 33420,
            "time": 128.538333,
            "velocity": 0.6299212598425197
          },
          {
            "duration": 0.23076900000000933,
            "durationTicks": 60,
            "midi": 77,
            "name": "F5",
            "ticks": 33510,
            "time": 128.88448649999998,
            "velocity": 0.6299212598425197
          },
          {
            "duration": 0.23076900000000933,
            "durationTicks": 60,
            "midi": 80,
            "name": "G#5",
            "ticks": 33510,
            "time": 128.88448649999998,
            "velocity": 0.6299212598425197
          },
          {
            "duration": 0.23076900000000933,
            "durationTicks": 60,
            "midi": 72,
            "name": "C5",
            "ticks": 33510,
            "time": 128.88448649999998,
            "velocity": 0.6299212598425197
          },
          {
            "duration": 0.2307689999999809,
            "durationTicks": 60,
            "midi": 75,
            "name": "D#5",
            "ticks": 33600,
            "time": 129.23064,
            "velocity": 0.6299212598425197
          },
          {
            "duration": 0.2307689999999809,
            "durationTicks": 60,
            "midi": 79,
            "name": "G5",
            "ticks": 33600,
            "time": 129.23064,
            "velocity": 0.6299212598425197
          },
          {
            "duration": 0.2307689999999809,
            "durationTicks": 60,
            "midi": 70,
            "name": "A#4",
            "ticks": 33600,
            "time": 129.23064,
            "velocity": 0.6299212598425197
          },
          {
            "duration": 0.23076900000000933,
            "durationTicks": 60,
            "midi": 75,
            "name": "D#5",
            "ticks": 33690,
            "time": 129.57679349999998,
            "velocity": 0.6299212598425197
          },
          {
            "duration": 0.23076900000000933,
            "durationTicks": 60,
            "midi": 79,
            "name": "G5",
            "ticks": 33690,
            "time": 129.57679349999998,
            "velocity": 0.6299212598425197
          },
          {
            "duration": 0.23076900000000933,
            "durationTicks": 60,
            "midi": 70,
            "name": "A#4",
            "ticks": 33690,
            "time": 129.57679349999998,
            "velocity": 0.6299212598425197
          },
          {
            "duration": 0.23076900000000933,
            "durationTicks": 60,
            "midi": 73,
            "name": "C#5",
            "ticks": 33780,
            "time": 129.92294699999997,
            "velocity": 0.6299212598425197
          },
          {
            "duration": 0.23076900000000933,
            "durationTicks": 60,
            "midi": 77,
            "name": "F5",
            "ticks": 33780,
            "time": 129.92294699999997,
            "velocity": 0.6299212598425197
          },
          {
            "duration": 0.23076900000000933,
            "durationTicks": 60,
            "midi": 68,
            "name": "G#4",
            "ticks": 33780,
            "time": 129.92294699999997,
            "velocity": 0.6299212598425197
          },
          {
            "duration": 0.2307689999999809,
            "durationTicks": 60,
            "midi": 77,
            "name": "F5",
            "ticks": 33900,
            "time": 130.38448499999998,
            "velocity": 0.6299212598425197
          },
          {
            "duration": 0.2307689999999809,
            "durationTicks": 60,
            "midi": 73,
            "name": "C#5",
            "ticks": 33900,
            "time": 130.38448499999998,
            "velocity": 0.6299212598425197
          },
          {
            "duration": 0.2307689999999809,
            "durationTicks": 60,
            "midi": 68,
            "name": "G#4",
            "ticks": 33900,
            "time": 130.38448499999998,
            "velocity": 0.6299212598425197
          },
          {
            "duration": 0.23076900000000933,
            "durationTicks": 60,
            "midi": 77,
            "name": "F5",
            "ticks": 33990,
            "time": 130.73063849999997,
            "velocity": 0.6299212598425197
          },
          {
            "duration": 0.23076900000000933,
            "durationTicks": 60,
            "midi": 73,
            "name": "C#5",
            "ticks": 33990,
            "time": 130.73063849999997,
            "velocity": 0.6299212598425197
          },
          {
            "duration": 0.23076900000000933,
            "durationTicks": 60,
            "midi": 68,
            "name": "G#4",
            "ticks": 33990,
            "time": 130.73063849999997,
            "velocity": 0.6299212598425197
          },
          {
            "duration": 0.2307689999999809,
            "durationTicks": 60,
            "midi": 77,
            "name": "F5",
            "ticks": 34080,
            "time": 131.07679199999998,
            "velocity": 0.6299212598425197
          },
          {
            "duration": 0.2307689999999809,
            "durationTicks": 60,
            "midi": 80,
            "name": "G#5",
            "ticks": 34080,
            "time": 131.07679199999998,
            "velocity": 0.6299212598425197
          },
          {
            "duration": 0.2307689999999809,
            "durationTicks": 60,
            "midi": 72,
            "name": "C5",
            "ticks": 34080,
            "time": 131.07679199999998,
            "velocity": 0.6299212598425197
          },
          {
            "duration": 0.23076900000000933,
            "durationTicks": 60,
            "midi": 77,
            "name": "F5",
            "ticks": 34170,
            "time": 131.42294549999997,
            "velocity": 0.6299212598425197
          },
          {
            "duration": 0.23076900000000933,
            "durationTicks": 60,
            "midi": 80,
            "name": "G#5",
            "ticks": 34170,
            "time": 131.42294549999997,
            "velocity": 0.6299212598425197
          },
          {
            "duration": 0.23076900000000933,
            "durationTicks": 60,
            "midi": 72,
            "name": "C5",
            "ticks": 34170,
            "time": 131.42294549999997,
            "velocity": 0.6299212598425197
          },
          {
            "duration": 0.2307689999999809,
            "durationTicks": 60,
            "midi": 77,
            "name": "F5",
            "ticks": 34260,
            "time": 131.76909899999998,
            "velocity": 0.6299212598425197
          },
          {
            "duration": 0.2307689999999809,
            "durationTicks": 60,
            "midi": 80,
            "name": "G#5",
            "ticks": 34260,
            "time": 131.76909899999998,
            "velocity": 0.6299212598425197
          },
          {
            "duration": 0.2307689999999809,
            "durationTicks": 60,
            "midi": 72,
            "name": "C5",
            "ticks": 34260,
            "time": 131.76909899999998,
            "velocity": 0.6299212598425197
          },
          {
            "duration": 0.23076900000000933,
            "durationTicks": 60,
            "midi": 77,
            "name": "F5",
            "ticks": 34380,
            "time": 132.23063699999997,
            "velocity": 0.6299212598425197
          },
          {
            "duration": 0.23076900000000933,
            "durationTicks": 60,
            "midi": 80,
            "name": "G#5",
            "ticks": 34380,
            "time": 132.23063699999997,
            "velocity": 0.6299212598425197
          },
          {
            "duration": 0.23076900000000933,
            "durationTicks": 60,
            "midi": 72,
            "name": "C5",
            "ticks": 34380,
            "time": 132.23063699999997,
            "velocity": 0.6299212598425197
          },
          {
            "duration": 0.2307689999999809,
            "durationTicks": 60,
            "midi": 77,
            "name": "F5",
            "ticks": 34470,
            "time": 132.5767905,
            "velocity": 0.6299212598425197
          },
          {
            "duration": 0.2307689999999809,
            "durationTicks": 60,
            "midi": 80,
            "name": "G#5",
            "ticks": 34470,
            "time": 132.5767905,
            "velocity": 0.6299212598425197
          },
          {
            "duration": 0.2307689999999809,
            "durationTicks": 60,
            "midi": 72,
            "name": "C5",
            "ticks": 34470,
            "time": 132.5767905,
            "velocity": 0.6299212598425197
          },
          {
            "duration": 0.23076900000000933,
            "durationTicks": 60,
            "midi": 79,
            "name": "G5",
            "ticks": 34560,
            "time": 132.92294399999997,
            "velocity": 0.6299212598425197
          },
          {
            "duration": 0.23076900000000933,
            "durationTicks": 60,
            "midi": 75,
            "name": "D#5",
            "ticks": 34560,
            "time": 132.92294399999997,
            "velocity": 0.6299212598425197
          },
          {
            "duration": 0.23076900000000933,
            "durationTicks": 60,
            "midi": 70,
            "name": "A#4",
            "ticks": 34560,
            "time": 132.92294399999997,
            "velocity": 0.6299212598425197
          },
          {
            "duration": 0.2307689999999809,
            "durationTicks": 60,
            "midi": 70,
            "name": "A#4",
            "ticks": 34650,
            "time": 133.2690975,
            "velocity": 0.6299212598425197
          },
          {
            "duration": 0.2307689999999809,
            "durationTicks": 60,
            "midi": 79,
            "name": "G5",
            "ticks": 34650,
            "time": 133.2690975,
            "velocity": 0.6299212598425197
          },
          {
            "duration": 0.2307689999999809,
            "durationTicks": 60,
            "midi": 75,
            "name": "D#5",
            "ticks": 34650,
            "time": 133.2690975,
            "velocity": 0.6299212598425197
          },
          {
            "duration": 0.23076900000000933,
            "durationTicks": 60,
            "midi": 73,
            "name": "C#5",
            "ticks": 34740,
            "time": 133.61525099999997,
            "velocity": 0.6299212598425197
          },
          {
            "duration": 0.23076900000000933,
            "durationTicks": 60,
            "midi": 77,
            "name": "F5",
            "ticks": 34740,
            "time": 133.61525099999997,
            "velocity": 0.6299212598425197
          },
          {
            "duration": 0.23076900000000933,
            "durationTicks": 60,
            "midi": 80,
            "name": "G#5",
            "ticks": 34740,
            "time": 133.61525099999997,
            "velocity": 0.6299212598425197
          },
          {
            "duration": 0.23076900000000933,
            "durationTicks": 60,
            "midi": 68,
            "name": "G#4",
            "ticks": 34740,
            "time": 133.61525099999997,
            "velocity": 0.6299212598425197
          },
          {
            "duration": 0.23076900000000933,
            "durationTicks": 60,
            "midi": 77,
            "name": "F5",
            "ticks": 43680,
            "time": 167.99983199999997,
            "velocity": 0.6299212598425197
          },
          {
            "duration": 0.23076900000000933,
            "durationTicks": 60,
            "midi": 80,
            "name": "G#5",
            "ticks": 43680,
            "time": 167.99983199999997,
            "velocity": 0.6299212598425197
          },
          {
            "duration": 0.23076900000000933,
            "durationTicks": 60,
            "midi": 72,
            "name": "C5",
            "ticks": 43680,
            "time": 167.99983199999997,
            "velocity": 0.6299212598425197
          },
          {
            "duration": 0.2307689999999809,
            "durationTicks": 60,
            "midi": 80,
            "name": "G#5",
            "ticks": 43770,
            "time": 168.34598549999998,
            "velocity": 0.6299212598425197
          },
          {
            "duration": 0.2307689999999809,
            "durationTicks": 60,
            "midi": 77,
            "name": "F5",
            "ticks": 43770,
            "time": 168.34598549999998,
            "velocity": 0.6299212598425197
          },
          {
            "duration": 0.2307689999999809,
            "durationTicks": 60,
            "midi": 72,
            "name": "C5",
            "ticks": 43770,
            "time": 168.34598549999998,
            "velocity": 0.6299212598425197
          },
          {
            "duration": 0.23076900000000933,
            "durationTicks": 60,
            "midi": 77,
            "name": "F5",
            "ticks": 43860,
            "time": 168.69213899999997,
            "velocity": 0.6299212598425197
          },
          {
            "duration": 0.23076900000000933,
            "durationTicks": 60,
            "midi": 80,
            "name": "G#5",
            "ticks": 43860,
            "time": 168.69213899999997,
            "velocity": 0.6299212598425197
          },
          {
            "duration": 0.23076900000000933,
            "durationTicks": 60,
            "midi": 72,
            "name": "C5",
            "ticks": 43860,
            "time": 168.69213899999997,
            "velocity": 0.6299212598425197
          },
          {
            "duration": 0.23076900000000933,
            "durationTicks": 60,
            "midi": 80,
            "name": "G#5",
            "ticks": 43980,
            "time": 169.15367699999996,
            "velocity": 0.6299212598425197
          },
          {
            "duration": 0.23076900000000933,
            "durationTicks": 60,
            "midi": 77,
            "name": "F5",
            "ticks": 43980,
            "time": 169.15367699999996,
            "velocity": 0.6299212598425197
          },
          {
            "duration": 0.23076900000000933,
            "durationTicks": 60,
            "midi": 72,
            "name": "C5",
            "ticks": 43980,
            "time": 169.15367699999996,
            "velocity": 0.6299212598425197
          },
          {
            "duration": 0.23076900000000933,
            "durationTicks": 60,
            "midi": 77,
            "name": "F5",
            "ticks": 44070,
            "time": 169.49983049999997,
            "velocity": 0.6299212598425197
          },
          {
            "duration": 0.23076900000000933,
            "durationTicks": 60,
            "midi": 80,
            "name": "G#5",
            "ticks": 44070,
            "time": 169.49983049999997,
            "velocity": 0.6299212598425197
          },
          {
            "duration": 0.23076900000000933,
            "durationTicks": 60,
            "midi": 72,
            "name": "C5",
            "ticks": 44070,
            "time": 169.49983049999997,
            "velocity": 0.6299212598425197
          },
          {
            "duration": 0.23076900000000933,
            "durationTicks": 60,
            "midi": 75,
            "name": "D#5",
            "ticks": 44160,
            "time": 169.84598399999996,
            "velocity": 0.6299212598425197
          },
          {
            "duration": 0.23076900000000933,
            "durationTicks": 60,
            "midi": 79,
            "name": "G5",
            "ticks": 44160,
            "time": 169.84598399999996,
            "velocity": 0.6299212598425197
          },
          {
            "duration": 0.23076900000000933,
            "durationTicks": 60,
            "midi": 70,
            "name": "A#4",
            "ticks": 44160,
            "time": 169.84598399999996,
            "velocity": 0.6299212598425197
          },
          {
            "duration": 0.23076900000000933,
            "durationTicks": 60,
            "midi": 75,
            "name": "D#5",
            "ticks": 44250,
            "time": 170.19213749999997,
            "velocity": 0.6299212598425197
          },
          {
            "duration": 0.23076900000000933,
            "durationTicks": 60,
            "midi": 79,
            "name": "G5",
            "ticks": 44250,
            "time": 170.19213749999997,
            "velocity": 0.6299212598425197
          },
          {
            "duration": 0.23076900000000933,
            "durationTicks": 60,
            "midi": 70,
            "name": "A#4",
            "ticks": 44250,
            "time": 170.19213749999997,
            "velocity": 0.6299212598425197
          },
          {
            "duration": 0.23076900000000933,
            "durationTicks": 60,
            "midi": 73,
            "name": "C#5",
            "ticks": 44340,
            "time": 170.53829099999996,
            "velocity": 0.6299212598425197
          },
          {
            "duration": 0.23076900000000933,
            "durationTicks": 60,
            "midi": 77,
            "name": "F5",
            "ticks": 44340,
            "time": 170.53829099999996,
            "velocity": 0.6299212598425197
          },
          {
            "duration": 0.23076900000000933,
            "durationTicks": 60,
            "midi": 68,
            "name": "G#4",
            "ticks": 44340,
            "time": 170.53829099999996,
            "velocity": 0.6299212598425197
          },
          {
            "duration": 0.2307689999999809,
            "durationTicks": 60,
            "midi": 77,
            "name": "F5",
            "ticks": 44460,
            "time": 170.99982899999998,
            "velocity": 0.6299212598425197
          },
          {
            "duration": 0.2307689999999809,
            "durationTicks": 60,
            "midi": 73,
            "name": "C#5",
            "ticks": 44460,
            "time": 170.99982899999998,
            "velocity": 0.6299212598425197
          },
          {
            "duration": 0.2307689999999809,
            "durationTicks": 60,
            "midi": 68,
            "name": "G#4",
            "ticks": 44460,
            "time": 170.99982899999998,
            "velocity": 0.6299212598425197
          },
          {
            "duration": 0.23076900000000933,
            "durationTicks": 60,
            "midi": 77,
            "name": "F5",
            "ticks": 44550,
            "time": 171.34598249999996,
            "velocity": 0.6299212598425197
          },
          {
            "duration": 0.23076900000000933,
            "durationTicks": 60,
            "midi": 73,
            "name": "C#5",
            "ticks": 44550,
            "time": 171.34598249999996,
            "velocity": 0.6299212598425197
          },
          {
            "duration": 0.23076900000000933,
            "durationTicks": 60,
            "midi": 68,
            "name": "G#4",
            "ticks": 44550,
            "time": 171.34598249999996,
            "velocity": 0.6299212598425197
          },
          {
            "duration": 0.2307689999999809,
            "durationTicks": 60,
            "midi": 77,
            "name": "F5",
            "ticks": 44640,
            "time": 171.69213599999998,
            "velocity": 0.6299212598425197
          },
          {
            "duration": 0.2307689999999809,
            "durationTicks": 60,
            "midi": 80,
            "name": "G#5",
            "ticks": 44640,
            "time": 171.69213599999998,
            "velocity": 0.6299212598425197
          },
          {
            "duration": 0.2307689999999809,
            "durationTicks": 60,
            "midi": 72,
            "name": "C5",
            "ticks": 44640,
            "time": 171.69213599999998,
            "velocity": 0.6299212598425197
          },
          {
            "duration": 0.23076900000000933,
            "durationTicks": 60,
            "midi": 77,
            "name": "F5",
            "ticks": 44730,
            "time": 172.03828949999996,
            "velocity": 0.6299212598425197
          },
          {
            "duration": 0.23076900000000933,
            "durationTicks": 60,
            "midi": 80,
            "name": "G#5",
            "ticks": 44730,
            "time": 172.03828949999996,
            "velocity": 0.6299212598425197
          },
          {
            "duration": 0.23076900000000933,
            "durationTicks": 60,
            "midi": 72,
            "name": "C5",
            "ticks": 44730,
            "time": 172.03828949999996,
            "velocity": 0.6299212598425197
          },
          {
            "duration": 0.2307689999999809,
            "durationTicks": 60,
            "midi": 77,
            "name": "F5",
            "ticks": 44820,
            "time": 172.38444299999998,
            "velocity": 0.6299212598425197
          },
          {
            "duration": 0.2307689999999809,
            "durationTicks": 60,
            "midi": 80,
            "name": "G#5",
            "ticks": 44820,
            "time": 172.38444299999998,
            "velocity": 0.6299212598425197
          },
          {
            "duration": 0.2307689999999809,
            "durationTicks": 60,
            "midi": 72,
            "name": "C5",
            "ticks": 44820,
            "time": 172.38444299999998,
            "velocity": 0.6299212598425197
          },
          {
            "duration": 0.23076900000000933,
            "durationTicks": 60,
            "midi": 77,
            "name": "F5",
            "ticks": 44940,
            "time": 172.84598099999997,
            "velocity": 0.6299212598425197
          },
          {
            "duration": 0.23076900000000933,
            "durationTicks": 60,
            "midi": 80,
            "name": "G#5",
            "ticks": 44940,
            "time": 172.84598099999997,
            "velocity": 0.6299212598425197
          },
          {
            "duration": 0.23076900000000933,
            "durationTicks": 60,
            "midi": 72,
            "name": "C5",
            "ticks": 44940,
            "time": 172.84598099999997,
            "velocity": 0.6299212598425197
          },
          {
            "duration": 0.2307689999999809,
            "durationTicks": 60,
            "midi": 77,
            "name": "F5",
            "ticks": 45030,
            "time": 173.19213449999998,
            "velocity": 0.6299212598425197
          },
          {
            "duration": 0.2307689999999809,
            "durationTicks": 60,
            "midi": 80,
            "name": "G#5",
            "ticks": 45030,
            "time": 173.19213449999998,
            "velocity": 0.6299212598425197
          },
          {
            "duration": 0.2307689999999809,
            "durationTicks": 60,
            "midi": 72,
            "name": "C5",
            "ticks": 45030,
            "time": 173.19213449999998,
            "velocity": 0.6299212598425197
          },
          {
            "duration": 0.23076900000000933,
            "durationTicks": 60,
            "midi": 79,
            "name": "G5",
            "ticks": 45120,
            "time": 173.53828799999997,
            "velocity": 0.6299212598425197
          },
          {
            "duration": 0.23076900000000933,
            "durationTicks": 60,
            "midi": 75,
            "name": "D#5",
            "ticks": 45120,
            "time": 173.53828799999997,
            "velocity": 0.6299212598425197
          },
          {
            "duration": 0.23076900000000933,
            "durationTicks": 60,
            "midi": 70,
            "name": "A#4",
            "ticks": 45120,
            "time": 173.53828799999997,
            "velocity": 0.6299212598425197
          },
          {
            "duration": 0.2307689999999809,
            "durationTicks": 60,
            "midi": 70,
            "name": "A#4",
            "ticks": 45210,
            "time": 173.88444149999998,
            "velocity": 0.6299212598425197
          },
          {
            "duration": 0.2307689999999809,
            "durationTicks": 60,
            "midi": 79,
            "name": "G5",
            "ticks": 45210,
            "time": 173.88444149999998,
            "velocity": 0.6299212598425197
          },
          {
            "duration": 0.2307689999999809,
            "durationTicks": 60,
            "midi": 75,
            "name": "D#5",
            "ticks": 45210,
            "time": 173.88444149999998,
            "velocity": 0.6299212598425197
          },
          {
            "duration": 0.23076900000000933,
            "durationTicks": 60,
            "midi": 73,
            "name": "C#5",
            "ticks": 45300,
            "time": 174.23059499999997,
            "velocity": 0.6299212598425197
          },
          {
            "duration": 0.23076900000000933,
            "durationTicks": 60,
            "midi": 77,
            "name": "F5",
            "ticks": 45300,
            "time": 174.23059499999997,
            "velocity": 0.6299212598425197
          },
          {
            "duration": 0.23076900000000933,
            "durationTicks": 60,
            "midi": 80,
            "name": "G#5",
            "ticks": 45300,
            "time": 174.23059499999997,
            "velocity": 0.6299212598425197
          },
          {
            "duration": 0.23076900000000933,
            "durationTicks": 60,
            "midi": 68,
            "name": "G#4",
            "ticks": 45300,
            "time": 174.23059499999997,
            "velocity": 0.6299212598425197
          },
          {
            "duration": 0.2307689999999809,
            "durationTicks": 60,
            "midi": 68,
            "name": "G#4",
            "ticks": 45420,
            "time": 174.69213299999998,
            "velocity": 0.6299212598425197
          },
          {
            "duration": 0.2307689999999809,
            "durationTicks": 60,
            "midi": 77,
            "name": "F5",
            "ticks": 45420,
            "time": 174.69213299999998,
            "velocity": 0.6299212598425197
          },
          {
            "duration": 0.2307689999999809,
            "durationTicks": 60,
            "midi": 73,
            "name": "C#5",
            "ticks": 45420,
            "time": 174.69213299999998,
            "velocity": 0.6299212598425197
          },
          {
            "duration": 0.2307689999999809,
            "durationTicks": 60,
            "midi": 80,
            "name": "G#5",
            "ticks": 45420,
            "time": 174.69213299999998,
            "velocity": 0.6299212598425197
          },
          {
            "duration": 0.23076900000000933,
            "durationTicks": 60,
            "midi": 77,
            "name": "F5",
            "ticks": 45510,
            "time": 175.03828649999997,
            "velocity": 0.6299212598425197
          },
          {
            "duration": 0.23076900000000933,
            "durationTicks": 60,
            "midi": 68,
            "name": "G#4",
            "ticks": 45510,
            "time": 175.03828649999997,
            "velocity": 0.6299212598425197
          },
          {
            "duration": 0.23076900000000933,
            "durationTicks": 60,
            "midi": 80,
            "name": "G#5",
            "ticks": 45510,
            "time": 175.03828649999997,
            "velocity": 0.6299212598425197
          },
          {
            "duration": 0.23076900000000933,
            "durationTicks": 60,
            "midi": 73,
            "name": "C#5",
            "ticks": 45510,
            "time": 175.03828649999997,
            "velocity": 0.6299212598425197
          },
          {
            "duration": 0.2307689999999809,
            "durationTicks": 60,
            "midi": 77,
            "name": "F5",
            "ticks": 45600,
            "time": 175.38443999999998,
            "velocity": 0.6299212598425197
          },
          {
            "duration": 0.2307689999999809,
            "durationTicks": 60,
            "midi": 80,
            "name": "G#5",
            "ticks": 45600,
            "time": 175.38443999999998,
            "velocity": 0.6299212598425197
          },
          {
            "duration": 0.2307689999999809,
            "durationTicks": 60,
            "midi": 72,
            "name": "C5",
            "ticks": 45600,
            "time": 175.38443999999998,
            "velocity": 0.6299212598425197
          },
          {
            "duration": 0.23076900000000933,
            "durationTicks": 60,
            "midi": 80,
            "name": "G#5",
            "ticks": 45690,
            "time": 175.73059349999997,
            "velocity": 0.6299212598425197
          },
          {
            "duration": 0.23076900000000933,
            "durationTicks": 60,
            "midi": 77,
            "name": "F5",
            "ticks": 45690,
            "time": 175.73059349999997,
            "velocity": 0.6299212598425197
          },
          {
            "duration": 0.23076900000000933,
            "durationTicks": 60,
            "midi": 72,
            "name": "C5",
            "ticks": 45690,
            "time": 175.73059349999997,
            "velocity": 0.6299212598425197
          },
          {
            "duration": 0.2307689999999809,
            "durationTicks": 60,
            "midi": 77,
            "name": "F5",
            "ticks": 45780,
            "time": 176.07674699999998,
            "velocity": 0.6299212598425197
          },
          {
            "duration": 0.2307689999999809,
            "durationTicks": 60,
            "midi": 80,
            "name": "G#5",
            "ticks": 45780,
            "time": 176.07674699999998,
            "velocity": 0.6299212598425197
          },
          {
            "duration": 0.2307689999999809,
            "durationTicks": 60,
            "midi": 72,
            "name": "C5",
            "ticks": 45780,
            "time": 176.07674699999998,
            "velocity": 0.6299212598425197
          },
          {
            "duration": 0.23076900000000933,
            "durationTicks": 60,
            "midi": 80,
            "name": "G#5",
            "ticks": 45900,
            "time": 176.53828499999997,
            "velocity": 0.6299212598425197
          },
          {
            "duration": 0.23076900000000933,
            "durationTicks": 60,
            "midi": 77,
            "name": "F5",
            "ticks": 45900,
            "time": 176.53828499999997,
            "velocity": 0.6299212598425197
          },
          {
            "duration": 0.23076900000000933,
            "durationTicks": 60,
            "midi": 72,
            "name": "C5",
            "ticks": 45900,
            "time": 176.53828499999997,
            "velocity": 0.6299212598425197
          },
          {
            "duration": 0.23076900000000933,
            "durationTicks": 60,
            "midi": 77,
            "name": "F5",
            "ticks": 45990,
            "time": 176.88443849999996,
            "velocity": 0.6299212598425197
          },
          {
            "duration": 0.23076900000000933,
            "durationTicks": 60,
            "midi": 80,
            "name": "G#5",
            "ticks": 45990,
            "time": 176.88443849999996,
            "velocity": 0.6299212598425197
          },
          {
            "duration": 0.23076900000000933,
            "durationTicks": 60,
            "midi": 72,
            "name": "C5",
            "ticks": 45990,
            "time": 176.88443849999996,
            "velocity": 0.6299212598425197
          },
          {
            "duration": 0.23076900000000933,
            "durationTicks": 60,
            "midi": 75,
            "name": "D#5",
            "ticks": 46080,
            "time": 177.23059199999997,
            "velocity": 0.6299212598425197
          },
          {
            "duration": 0.23076900000000933,
            "durationTicks": 60,
            "midi": 79,
            "name": "G5",
            "ticks": 46080,
            "time": 177.23059199999997,
            "velocity": 0.6299212598425197
          },
          {
            "duration": 0.23076900000000933,
            "durationTicks": 60,
            "midi": 70,
            "name": "A#4",
            "ticks": 46080,
            "time": 177.23059199999997,
            "velocity": 0.6299212598425197
          },
          {
            "duration": 0.23076900000000933,
            "durationTicks": 60,
            "midi": 75,
            "name": "D#5",
            "ticks": 46170,
            "time": 177.57674549999996,
            "velocity": 0.6299212598425197
          },
          {
            "duration": 0.23076900000000933,
            "durationTicks": 60,
            "midi": 79,
            "name": "G5",
            "ticks": 46170,
            "time": 177.57674549999996,
            "velocity": 0.6299212598425197
          },
          {
            "duration": 0.23076900000000933,
            "durationTicks": 60,
            "midi": 70,
            "name": "A#4",
            "ticks": 46170,
            "time": 177.57674549999996,
            "velocity": 0.6299212598425197
          },
          {
            "duration": 0.23076900000000933,
            "durationTicks": 60,
            "midi": 73,
            "name": "C#5",
            "ticks": 46260,
            "time": 177.92289899999997,
            "velocity": 0.6299212598425197
          },
          {
            "duration": 0.23076900000000933,
            "durationTicks": 60,
            "midi": 77,
            "name": "F5",
            "ticks": 46260,
            "time": 177.92289899999997,
            "velocity": 0.6299212598425197
          },
          {
            "duration": 0.23076900000000933,
            "durationTicks": 60,
            "midi": 68,
            "name": "G#4",
            "ticks": 46260,
            "time": 177.92289899999997,
            "velocity": 0.6299212598425197
          },
          {
            "duration": 0.23076900000000933,
            "durationTicks": 60,
            "midi": 77,
            "name": "F5",
            "ticks": 46380,
            "time": 178.38443699999996,
            "velocity": 0.6299212598425197
          },
          {
            "duration": 0.23076900000000933,
            "durationTicks": 60,
            "midi": 73,
            "name": "C#5",
            "ticks": 46380,
            "time": 178.38443699999996,
            "velocity": 0.6299212598425197
          },
          {
            "duration": 0.23076900000000933,
            "durationTicks": 60,
            "midi": 68,
            "name": "G#4",
            "ticks": 46380,
            "time": 178.38443699999996,
            "velocity": 0.6299212598425197
          },
          {
            "duration": 0.2307689999999809,
            "durationTicks": 60,
            "midi": 77,
            "name": "F5",
            "ticks": 46470,
            "time": 178.73059049999998,
            "velocity": 0.6299212598425197
          },
          {
            "duration": 0.2307689999999809,
            "durationTicks": 60,
            "midi": 73,
            "name": "C#5",
            "ticks": 46470,
            "time": 178.73059049999998,
            "velocity": 0.6299212598425197
          },
          {
            "duration": 0.2307689999999809,
            "durationTicks": 60,
            "midi": 68,
            "name": "G#4",
            "ticks": 46470,
            "time": 178.73059049999998,
            "velocity": 0.6299212598425197
          },
          {
            "duration": 0.23076900000000933,
            "durationTicks": 60,
            "midi": 77,
            "name": "F5",
            "ticks": 46560,
            "time": 179.07674399999996,
            "velocity": 0.6299212598425197
          },
          {
            "duration": 0.23076900000000933,
            "durationTicks": 60,
            "midi": 80,
            "name": "G#5",
            "ticks": 46560,
            "time": 179.07674399999996,
            "velocity": 0.6299212598425197
          },
          {
            "duration": 0.23076900000000933,
            "durationTicks": 60,
            "midi": 72,
            "name": "C5",
            "ticks": 46560,
            "time": 179.07674399999996,
            "velocity": 0.6299212598425197
          },
          {
            "duration": 0.2307689999999809,
            "durationTicks": 60,
            "midi": 77,
            "name": "F5",
            "ticks": 46650,
            "time": 179.42289749999998,
            "velocity": 0.6299212598425197
          },
          {
            "duration": 0.2307689999999809,
            "durationTicks": 60,
            "midi": 80,
            "name": "G#5",
            "ticks": 46650,
            "time": 179.42289749999998,
            "velocity": 0.6299212598425197
          },
          {
            "duration": 0.2307689999999809,
            "durationTicks": 60,
            "midi": 72,
            "name": "C5",
            "ticks": 46650,
            "time": 179.42289749999998,
            "velocity": 0.6299212598425197
          },
          {
            "duration": 0.23076900000000933,
            "durationTicks": 60,
            "midi": 77,
            "name": "F5",
            "ticks": 46740,
            "time": 179.76905099999996,
            "velocity": 0.6299212598425197
          },
          {
            "duration": 0.23076900000000933,
            "durationTicks": 60,
            "midi": 80,
            "name": "G#5",
            "ticks": 46740,
            "time": 179.76905099999996,
            "velocity": 0.6299212598425197
          },
          {
            "duration": 0.23076900000000933,
            "durationTicks": 60,
            "midi": 72,
            "name": "C5",
            "ticks": 46740,
            "time": 179.76905099999996,
            "velocity": 0.6299212598425197
          },
          {
            "duration": 0.2307689999999809,
            "durationTicks": 60,
            "midi": 77,
            "name": "F5",
            "ticks": 46860,
            "time": 180.23058899999998,
            "velocity": 0.6299212598425197
          },
          {
            "duration": 0.2307689999999809,
            "durationTicks": 60,
            "midi": 80,
            "name": "G#5",
            "ticks": 46860,
            "time": 180.23058899999998,
            "velocity": 0.6299212598425197
          },
          {
            "duration": 0.2307689999999809,
            "durationTicks": 60,
            "midi": 72,
            "name": "C5",
            "ticks": 46860,
            "time": 180.23058899999998,
            "velocity": 0.6299212598425197
          },
          {
            "duration": 0.23076900000000933,
            "durationTicks": 60,
            "midi": 77,
            "name": "F5",
            "ticks": 46950,
            "time": 180.57674249999997,
            "velocity": 0.6299212598425197
          },
          {
            "duration": 0.23076900000000933,
            "durationTicks": 60,
            "midi": 80,
            "name": "G#5",
            "ticks": 46950,
            "time": 180.57674249999997,
            "velocity": 0.6299212598425197
          },
          {
            "duration": 0.23076900000000933,
            "durationTicks": 60,
            "midi": 72,
            "name": "C5",
            "ticks": 46950,
            "time": 180.57674249999997,
            "velocity": 0.6299212598425197
          },
          {
            "duration": 0.2307689999999809,
            "durationTicks": 60,
            "midi": 79,
            "name": "G5",
            "ticks": 47040,
            "time": 180.92289599999998,
            "velocity": 0.6299212598425197
          },
          {
            "duration": 0.2307689999999809,
            "durationTicks": 60,
            "midi": 75,
            "name": "D#5",
            "ticks": 47040,
            "time": 180.92289599999998,
            "velocity": 0.6299212598425197
          },
          {
            "duration": 0.2307689999999809,
            "durationTicks": 60,
            "midi": 70,
            "name": "A#4",
            "ticks": 47040,
            "time": 180.92289599999998,
            "velocity": 0.6299212598425197
          },
          {
            "duration": 0.23076900000000933,
            "durationTicks": 60,
            "midi": 70,
            "name": "A#4",
            "ticks": 47130,
            "time": 181.26904949999997,
            "velocity": 0.6299212598425197
          },
          {
            "duration": 0.23076900000000933,
            "durationTicks": 60,
            "midi": 79,
            "name": "G5",
            "ticks": 47130,
            "time": 181.26904949999997,
            "velocity": 0.6299212598425197
          },
          {
            "duration": 0.23076900000000933,
            "durationTicks": 60,
            "midi": 75,
            "name": "D#5",
            "ticks": 47130,
            "time": 181.26904949999997,
            "velocity": 0.6299212598425197
          },
          {
            "duration": 0.2307689999999809,
            "durationTicks": 60,
            "midi": 73,
            "name": "C#5",
            "ticks": 47220,
            "time": 181.61520299999998,
            "velocity": 0.6299212598425197
          },
          {
            "duration": 0.2307689999999809,
            "durationTicks": 60,
            "midi": 77,
            "name": "F5",
            "ticks": 47220,
            "time": 181.61520299999998,
            "velocity": 0.6299212598425197
          },
          {
            "duration": 0.2307689999999809,
            "durationTicks": 60,
            "midi": 80,
            "name": "G#5",
            "ticks": 47220,
            "time": 181.61520299999998,
            "velocity": 0.6299212598425197
          },
          {
            "duration": 0.2307689999999809,
            "durationTicks": 60,
            "midi": 68,
            "name": "G#4",
            "ticks": 47220,
            "time": 181.61520299999998,
            "velocity": 0.6299212598425197
          },
          {
            "duration": 0.23076900000000933,
            "durationTicks": 60,
            "midi": 68,
            "name": "G#4",
            "ticks": 47340,
            "time": 182.07674099999997,
            "velocity": 0.6299212598425197
          },
          {
            "duration": 0.23076900000000933,
            "durationTicks": 60,
            "midi": 77,
            "name": "F5",
            "ticks": 47340,
            "time": 182.07674099999997,
            "velocity": 0.6299212598425197
          },
          {
            "duration": 0.23076900000000933,
            "durationTicks": 60,
            "midi": 73,
            "name": "C#5",
            "ticks": 47340,
            "time": 182.07674099999997,
            "velocity": 0.6299212598425197
          },
          {
            "duration": 0.23076900000000933,
            "durationTicks": 60,
            "midi": 80,
            "name": "G#5",
            "ticks": 47340,
            "time": 182.07674099999997,
            "velocity": 0.6299212598425197
          },
          {
            "duration": 0.23076900000000933,
            "durationTicks": 60,
            "midi": 77,
            "name": "F5",
            "ticks": 47430,
            "time": 182.42289449999996,
            "velocity": 0.6299212598425197
          },
          {
            "duration": 0.23076900000000933,
            "durationTicks": 60,
            "midi": 68,
            "name": "G#4",
            "ticks": 47430,
            "time": 182.42289449999996,
            "velocity": 0.6299212598425197
          },
          {
            "duration": 0.23076900000000933,
            "durationTicks": 60,
            "midi": 80,
            "name": "G#5",
            "ticks": 47430,
            "time": 182.42289449999996,
            "velocity": 0.6299212598425197
          },
          {
            "duration": 0.23076900000000933,
            "durationTicks": 60,
            "midi": 73,
            "name": "C#5",
            "ticks": 47430,
            "time": 182.42289449999996,
            "velocity": 0.6299212598425197
          },
          {
            "duration": 0.23076900000000933,
            "durationTicks": 60,
            "midi": 77,
            "name": "F5",
            "ticks": 47520,
            "time": 182.76904799999997,
            "velocity": 0.6299212598425197
          },
          {
            "duration": 0.23076900000000933,
            "durationTicks": 60,
            "midi": 80,
            "name": "G#5",
            "ticks": 47520,
            "time": 182.76904799999997,
            "velocity": 0.6299212598425197
          },
          {
            "duration": 0.23076900000000933,
            "durationTicks": 60,
            "midi": 72,
            "name": "C5",
            "ticks": 47520,
            "time": 182.76904799999997,
            "velocity": 0.6299212598425197
          },
          {
            "duration": 0.23076900000000933,
            "durationTicks": 60,
            "midi": 80,
            "name": "G#5",
            "ticks": 47610,
            "time": 183.11520149999996,
            "velocity": 0.6299212598425197
          },
          {
            "duration": 0.23076900000000933,
            "durationTicks": 60,
            "midi": 77,
            "name": "F5",
            "ticks": 47610,
            "time": 183.11520149999996,
            "velocity": 0.6299212598425197
          },
          {
            "duration": 0.23076900000000933,
            "durationTicks": 60,
            "midi": 72,
            "name": "C5",
            "ticks": 47610,
            "time": 183.11520149999996,
            "velocity": 0.6299212598425197
          },
          {
            "duration": 0.23076900000000933,
            "durationTicks": 60,
            "midi": 77,
            "name": "F5",
            "ticks": 47700,
            "time": 183.46135499999997,
            "velocity": 0.6299212598425197
          },
          {
            "duration": 0.23076900000000933,
            "durationTicks": 60,
            "midi": 80,
            "name": "G#5",
            "ticks": 47700,
            "time": 183.46135499999997,
            "velocity": 0.6299212598425197
          },
          {
            "duration": 0.23076900000000933,
            "durationTicks": 60,
            "midi": 72,
            "name": "C5",
            "ticks": 47700,
            "time": 183.46135499999997,
            "velocity": 0.6299212598425197
          },
          {
            "duration": 0.23076900000000933,
            "durationTicks": 60,
            "midi": 80,
            "name": "G#5",
            "ticks": 47820,
            "time": 183.92289299999996,
            "velocity": 0.6299212598425197
          },
          {
            "duration": 0.23076900000000933,
            "durationTicks": 60,
            "midi": 77,
            "name": "F5",
            "ticks": 47820,
            "time": 183.92289299999996,
            "velocity": 0.6299212598425197
          },
          {
            "duration": 0.23076900000000933,
            "durationTicks": 60,
            "midi": 72,
            "name": "C5",
            "ticks": 47820,
            "time": 183.92289299999996,
            "velocity": 0.6299212598425197
          },
          {
            "duration": 0.23076900000000933,
            "durationTicks": 60,
            "midi": 77,
            "name": "F5",
            "ticks": 47910,
            "time": 184.26904649999997,
            "velocity": 0.6299212598425197
          },
          {
            "duration": 0.23076900000000933,
            "durationTicks": 60,
            "midi": 80,
            "name": "G#5",
            "ticks": 47910,
            "time": 184.26904649999997,
            "velocity": 0.6299212598425197
          },
          {
            "duration": 0.23076900000000933,
            "durationTicks": 60,
            "midi": 72,
            "name": "C5",
            "ticks": 47910,
            "time": 184.26904649999997,
            "velocity": 0.6299212598425197
          },
          {
            "duration": 0.23076900000000933,
            "durationTicks": 60,
            "midi": 77,
            "name": "F5",
            "ticks": 48000,
            "time": 184.61519999999996,
            "velocity": 0.6299212598425197
          },
          {
            "duration": 0.23076900000000933,
            "durationTicks": 60,
            "midi": 80,
            "name": "G#5",
            "ticks": 48000,
            "time": 184.61519999999996,
            "velocity": 0.6299212598425197
          },
          {
            "duration": 0.23076900000000933,
            "durationTicks": 60,
            "midi": 72,
            "name": "C5",
            "ticks": 48000,
            "time": 184.61519999999996,
            "velocity": 0.6299212598425197
          },
          {
            "duration": 0.23076900000000933,
            "durationTicks": 60,
            "midi": 80,
            "name": "G#5",
            "ticks": 48090,
            "time": 184.96135349999997,
            "velocity": 0.6299212598425197
          },
          {
            "duration": 0.23076900000000933,
            "durationTicks": 60,
            "midi": 77,
            "name": "F5",
            "ticks": 48090,
            "time": 184.96135349999997,
            "velocity": 0.6299212598425197
          },
          {
            "duration": 0.23076900000000933,
            "durationTicks": 60,
            "midi": 72,
            "name": "C5",
            "ticks": 48090,
            "time": 184.96135349999997,
            "velocity": 0.6299212598425197
          },
          {
            "duration": 0.23076900000000933,
            "durationTicks": 60,
            "midi": 77,
            "name": "F5",
            "ticks": 48180,
            "time": 185.30750699999996,
            "velocity": 0.6299212598425197
          },
          {
            "duration": 0.23076900000000933,
            "durationTicks": 60,
            "midi": 80,
            "name": "G#5",
            "ticks": 48180,
            "time": 185.30750699999996,
            "velocity": 0.6299212598425197
          },
          {
            "duration": 0.23076900000000933,
            "durationTicks": 60,
            "midi": 72,
            "name": "C5",
            "ticks": 48180,
            "time": 185.30750699999996,
            "velocity": 0.6299212598425197
          },
          {
            "duration": 0.2307689999999809,
            "durationTicks": 60,
            "midi": 80,
            "name": "G#5",
            "ticks": 48300,
            "time": 185.76904499999998,
            "velocity": 0.6299212598425197
          },
          {
            "duration": 0.2307689999999809,
            "durationTicks": 60,
            "midi": 77,
            "name": "F5",
            "ticks": 48300,
            "time": 185.76904499999998,
            "velocity": 0.6299212598425197
          },
          {
            "duration": 0.2307689999999809,
            "durationTicks": 60,
            "midi": 72,
            "name": "C5",
            "ticks": 48300,
            "time": 185.76904499999998,
            "velocity": 0.6299212598425197
          },
          {
            "duration": 0.23076900000000933,
            "durationTicks": 60,
            "midi": 77,
            "name": "F5",
            "ticks": 48390,
            "time": 186.11519849999996,
            "velocity": 0.6299212598425197
          },
          {
            "duration": 0.23076900000000933,
            "durationTicks": 60,
            "midi": 80,
            "name": "G#5",
            "ticks": 48390,
            "time": 186.11519849999996,
            "velocity": 0.6299212598425197
          },
          {
            "duration": 0.23076900000000933,
            "durationTicks": 60,
            "midi": 72,
            "name": "C5",
            "ticks": 48390,
            "time": 186.11519849999996,
            "velocity": 0.6299212598425197
          },
          {
            "duration": 0.2307689999999809,
            "durationTicks": 60,
            "midi": 77,
            "name": "F5",
            "ticks": 48480,
            "time": 186.46135199999998,
            "velocity": 0.6299212598425197
          },
          {
            "duration": 0.2307689999999809,
            "durationTicks": 60,
            "midi": 80,
            "name": "G#5",
            "ticks": 48480,
            "time": 186.46135199999998,
            "velocity": 0.6299212598425197
          },
          {
            "duration": 0.2307689999999809,
            "durationTicks": 60,
            "midi": 72,
            "name": "C5",
            "ticks": 48480,
            "time": 186.46135199999998,
            "velocity": 0.6299212598425197
          },
          {
            "duration": 0.23076900000000933,
            "durationTicks": 60,
            "midi": 80,
            "name": "G#5",
            "ticks": 48570,
            "time": 186.80750549999996,
            "velocity": 0.6299212598425197
          },
          {
            "duration": 0.23076900000000933,
            "durationTicks": 60,
            "midi": 77,
            "name": "F5",
            "ticks": 48570,
            "time": 186.80750549999996,
            "velocity": 0.6299212598425197
          },
          {
            "duration": 0.23076900000000933,
            "durationTicks": 60,
            "midi": 72,
            "name": "C5",
            "ticks": 48570,
            "time": 186.80750549999996,
            "velocity": 0.6299212598425197
          },
          {
            "duration": 0.2307689999999809,
            "durationTicks": 60,
            "midi": 77,
            "name": "F5",
            "ticks": 48660,
            "time": 187.15365899999998,
            "velocity": 0.6299212598425197
          },
          {
            "duration": 0.2307689999999809,
            "durationTicks": 60,
            "midi": 80,
            "name": "G#5",
            "ticks": 48660,
            "time": 187.15365899999998,
            "velocity": 0.6299212598425197
          },
          {
            "duration": 0.2307689999999809,
            "durationTicks": 60,
            "midi": 72,
            "name": "C5",
            "ticks": 48660,
            "time": 187.15365899999998,
            "velocity": 0.6299212598425197
          },
          {
            "duration": 0.23076900000000933,
            "durationTicks": 60,
            "midi": 80,
            "name": "G#5",
            "ticks": 48780,
            "time": 187.61519699999997,
            "velocity": 0.6299212598425197
          },
          {
            "duration": 0.23076900000000933,
            "durationTicks": 60,
            "midi": 77,
            "name": "F5",
            "ticks": 48780,
            "time": 187.61519699999997,
            "velocity": 0.6299212598425197
          },
          {
            "duration": 0.23076900000000933,
            "durationTicks": 60,
            "midi": 72,
            "name": "C5",
            "ticks": 48780,
            "time": 187.61519699999997,
            "velocity": 0.6299212598425197
          },
          {
            "duration": 0.2307689999999809,
            "durationTicks": 60,
            "midi": 77,
            "name": "F5",
            "ticks": 48870,
            "time": 187.96135049999998,
            "velocity": 0.6299212598425197
          },
          {
            "duration": 0.2307689999999809,
            "durationTicks": 60,
            "midi": 80,
            "name": "G#5",
            "ticks": 48870,
            "time": 187.96135049999998,
            "velocity": 0.6299212598425197
          },
          {
            "duration": 0.2307689999999809,
            "durationTicks": 60,
            "midi": 72,
            "name": "C5",
            "ticks": 48870,
            "time": 187.96135049999998,
            "velocity": 0.6299212598425197
          },
          {
            "duration": 0.23076900000000933,
            "durationTicks": 60,
            "midi": 77,
            "name": "F5",
            "ticks": 48960,
            "time": 188.30750399999997,
            "velocity": 0.6299212598425197
          },
          {
            "duration": 0.23076900000000933,
            "durationTicks": 60,
            "midi": 80,
            "name": "G#5",
            "ticks": 48960,
            "time": 188.30750399999997,
            "velocity": 0.6299212598425197
          },
          {
            "duration": 0.23076900000000933,
            "durationTicks": 60,
            "midi": 72,
            "name": "C5",
            "ticks": 48960,
            "time": 188.30750399999997,
            "velocity": 0.6299212598425197
          },
          {
            "duration": 0.2307689999999809,
            "durationTicks": 60,
            "midi": 80,
            "name": "G#5",
            "ticks": 49050,
            "time": 188.65365749999998,
            "velocity": 0.6299212598425197
          },
          {
            "duration": 0.2307689999999809,
            "durationTicks": 60,
            "midi": 77,
            "name": "F5",
            "ticks": 49050,
            "time": 188.65365749999998,
            "velocity": 0.6299212598425197
          },
          {
            "duration": 0.2307689999999809,
            "durationTicks": 60,
            "midi": 72,
            "name": "C5",
            "ticks": 49050,
            "time": 188.65365749999998,
            "velocity": 0.6299212598425197
          },
          {
            "duration": 0.23076900000000933,
            "durationTicks": 60,
            "midi": 77,
            "name": "F5",
            "ticks": 49140,
            "time": 188.99981099999997,
            "velocity": 0.6299212598425197
          },
          {
            "duration": 0.23076900000000933,
            "durationTicks": 60,
            "midi": 80,
            "name": "G#5",
            "ticks": 49140,
            "time": 188.99981099999997,
            "velocity": 0.6299212598425197
          },
          {
            "duration": 0.23076900000000933,
            "durationTicks": 60,
            "midi": 72,
            "name": "C5",
            "ticks": 49140,
            "time": 188.99981099999997,
            "velocity": 0.6299212598425197
          },
          {
            "duration": 0.23076900000000933,
            "durationTicks": 60,
            "midi": 80,
            "name": "G#5",
            "ticks": 49260,
            "time": 189.46134899999996,
            "velocity": 0.6299212598425197
          },
          {
            "duration": 0.23076900000000933,
            "durationTicks": 60,
            "midi": 77,
            "name": "F5",
            "ticks": 49260,
            "time": 189.46134899999996,
            "velocity": 0.6299212598425197
          },
          {
            "duration": 0.23076900000000933,
            "durationTicks": 60,
            "midi": 72,
            "name": "C5",
            "ticks": 49260,
            "time": 189.46134899999996,
            "velocity": 0.6299212598425197
          },
          {
            "duration": 0.23076900000000933,
            "durationTicks": 60,
            "midi": 77,
            "name": "F5",
            "ticks": 49350,
            "time": 189.80750249999997,
            "velocity": 0.6299212598425197
          },
          {
            "duration": 0.23076900000000933,
            "durationTicks": 60,
            "midi": 80,
            "name": "G#5",
            "ticks": 49350,
            "time": 189.80750249999997,
            "velocity": 0.6299212598425197
          },
          {
            "duration": 0.23076900000000933,
            "durationTicks": 60,
            "midi": 72,
            "name": "C5",
            "ticks": 49350,
            "time": 189.80750249999997,
            "velocity": 0.6299212598425197
          },
          {
            "duration": 0.23076900000000933,
            "durationTicks": 60,
            "midi": 77,
            "name": "F5",
            "ticks": 49440,
            "time": 190.15365599999996,
            "velocity": 0.6299212598425197
          },
          {
            "duration": 0.23076900000000933,
            "durationTicks": 60,
            "midi": 80,
            "name": "G#5",
            "ticks": 49440,
            "time": 190.15365599999996,
            "velocity": 0.6299212598425197
          },
          {
            "duration": 0.23076900000000933,
            "durationTicks": 60,
            "midi": 72,
            "name": "C5",
            "ticks": 49440,
            "time": 190.15365599999996,
            "velocity": 0.6299212598425197
          },
          {
            "duration": 0.23076900000000933,
            "durationTicks": 60,
            "midi": 80,
            "name": "G#5",
            "ticks": 49530,
            "time": 190.49980949999997,
            "velocity": 0.6299212598425197
          },
          {
            "duration": 0.23076900000000933,
            "durationTicks": 60,
            "midi": 77,
            "name": "F5",
            "ticks": 49530,
            "time": 190.49980949999997,
            "velocity": 0.6299212598425197
          },
          {
            "duration": 0.23076900000000933,
            "durationTicks": 60,
            "midi": 72,
            "name": "C5",
            "ticks": 49530,
            "time": 190.49980949999997,
            "velocity": 0.6299212598425197
          },
          {
            "duration": 0.23076900000000933,
            "durationTicks": 60,
            "midi": 77,
            "name": "F5",
            "ticks": 49620,
            "time": 190.84596299999995,
            "velocity": 0.6299212598425197
          },
          {
            "duration": 0.23076900000000933,
            "durationTicks": 60,
            "midi": 80,
            "name": "G#5",
            "ticks": 49620,
            "time": 190.84596299999995,
            "velocity": 0.6299212598425197
          },
          {
            "duration": 0.23076900000000933,
            "durationTicks": 60,
            "midi": 72,
            "name": "C5",
            "ticks": 49620,
            "time": 190.84596299999995,
            "velocity": 0.6299212598425197
          },
          {
            "duration": 0.2307689999999809,
            "durationTicks": 60,
            "midi": 80,
            "name": "G#5",
            "ticks": 49740,
            "time": 191.30750099999997,
            "velocity": 0.6299212598425197
          },
          {
            "duration": 0.2307689999999809,
            "durationTicks": 60,
            "midi": 77,
            "name": "F5",
            "ticks": 49740,
            "time": 191.30750099999997,
            "velocity": 0.6299212598425197
          },
          {
            "duration": 0.2307689999999809,
            "durationTicks": 60,
            "midi": 72,
            "name": "C5",
            "ticks": 49740,
            "time": 191.30750099999997,
            "velocity": 0.6299212598425197
          },
          {
            "duration": 0.23076900000000933,
            "durationTicks": 60,
            "midi": 77,
            "name": "F5",
            "ticks": 49830,
            "time": 191.65365449999996,
            "velocity": 0.6299212598425197
          },
          {
            "duration": 0.23076900000000933,
            "durationTicks": 60,
            "midi": 80,
            "name": "G#5",
            "ticks": 49830,
            "time": 191.65365449999996,
            "velocity": 0.6299212598425197
          },
          {
            "duration": 0.23076900000000933,
            "durationTicks": 60,
            "midi": 72,
            "name": "C5",
            "ticks": 49830,
            "time": 191.65365449999996,
            "velocity": 0.6299212598425197
          },
          {
            "duration": 0.2307689999999809,
            "durationTicks": 60,
            "midi": 77,
            "name": "F5",
            "ticks": 49920,
            "time": 191.99980799999997,
            "velocity": 0.6299212598425197
          },
          {
            "duration": 0.2307689999999809,
            "durationTicks": 60,
            "midi": 80,
            "name": "G#5",
            "ticks": 49920,
            "time": 191.99980799999997,
            "velocity": 0.6299212598425197
          },
          {
            "duration": 0.2307689999999809,
            "durationTicks": 60,
            "midi": 72,
            "name": "C5",
            "ticks": 49920,
            "time": 191.99980799999997,
            "velocity": 0.6299212598425197
          },
          {
            "duration": 0.23076900000000933,
            "durationTicks": 60,
            "midi": 80,
            "name": "G#5",
            "ticks": 50010,
            "time": 192.34596149999996,
            "velocity": 0.6299212598425197
          },
          {
            "duration": 0.23076900000000933,
            "durationTicks": 60,
            "midi": 77,
            "name": "F5",
            "ticks": 50010,
            "time": 192.34596149999996,
            "velocity": 0.6299212598425197
          },
          {
            "duration": 0.23076900000000933,
            "durationTicks": 60,
            "midi": 72,
            "name": "C5",
            "ticks": 50010,
            "time": 192.34596149999996,
            "velocity": 0.6299212598425197
          },
          {
            "duration": 0.23076900000000933,
            "durationTicks": 60,
            "midi": 77,
            "name": "F5",
            "ticks": 50100,
            "time": 192.69211499999997,
            "velocity": 0.6299212598425197
          },
          {
            "duration": 0.23076900000000933,
            "durationTicks": 60,
            "midi": 80,
            "name": "G#5",
            "ticks": 50100,
            "time": 192.69211499999997,
            "velocity": 0.6299212598425197
          },
          {
            "duration": 0.23076900000000933,
            "durationTicks": 60,
            "midi": 72,
            "name": "C5",
            "ticks": 50100,
            "time": 192.69211499999997,
            "velocity": 0.6299212598425197
          },
          {
            "duration": 0.23076900000000933,
            "durationTicks": 60,
            "midi": 80,
            "name": "G#5",
            "ticks": 50220,
            "time": 193.15365299999996,
            "velocity": 0.6299212598425197
          },
          {
            "duration": 0.23076900000000933,
            "durationTicks": 60,
            "midi": 77,
            "name": "F5",
            "ticks": 50220,
            "time": 193.15365299999996,
            "velocity": 0.6299212598425197
          },
          {
            "duration": 0.23076900000000933,
            "durationTicks": 60,
            "midi": 72,
            "name": "C5",
            "ticks": 50220,
            "time": 193.15365299999996,
            "velocity": 0.6299212598425197
          },
          {
            "duration": 0.2307689999999809,
            "durationTicks": 60,
            "midi": 77,
            "name": "F5",
            "ticks": 50310,
            "time": 193.49980649999998,
            "velocity": 0.6299212598425197
          },
          {
            "duration": 0.2307689999999809,
            "durationTicks": 60,
            "midi": 80,
            "name": "G#5",
            "ticks": 50310,
            "time": 193.49980649999998,
            "velocity": 0.6299212598425197
          },
          {
            "duration": 0.2307689999999809,
            "durationTicks": 60,
            "midi": 72,
            "name": "C5",
            "ticks": 50310,
            "time": 193.49980649999998,
            "velocity": 0.6299212598425197
          },
          {
            "duration": 0.23076900000000933,
            "durationTicks": 60,
            "midi": 77,
            "name": "F5",
            "ticks": 50400,
            "time": 193.84595999999996,
            "velocity": 0.6299212598425197
          },
          {
            "duration": 0.23076900000000933,
            "durationTicks": 60,
            "midi": 80,
            "name": "G#5",
            "ticks": 50400,
            "time": 193.84595999999996,
            "velocity": 0.6299212598425197
          },
          {
            "duration": 0.23076900000000933,
            "durationTicks": 60,
            "midi": 72,
            "name": "C5",
            "ticks": 50400,
            "time": 193.84595999999996,
            "velocity": 0.6299212598425197
          },
          {
            "duration": 0.2307689999999809,
            "durationTicks": 60,
            "midi": 80,
            "name": "G#5",
            "ticks": 50490,
            "time": 194.19211349999998,
            "velocity": 0.6299212598425197
          },
          {
            "duration": 0.2307689999999809,
            "durationTicks": 60,
            "midi": 77,
            "name": "F5",
            "ticks": 50490,
            "time": 194.19211349999998,
            "velocity": 0.6299212598425197
          },
          {
            "duration": 0.2307689999999809,
            "durationTicks": 60,
            "midi": 72,
            "name": "C5",
            "ticks": 50490,
            "time": 194.19211349999998,
            "velocity": 0.6299212598425197
          },
          {
            "duration": 0.23076900000000933,
            "durationTicks": 60,
            "midi": 77,
            "name": "F5",
            "ticks": 50580,
            "time": 194.53826699999996,
            "velocity": 0.6299212598425197
          },
          {
            "duration": 0.23076900000000933,
            "durationTicks": 60,
            "midi": 80,
            "name": "G#5",
            "ticks": 50580,
            "time": 194.53826699999996,
            "velocity": 0.6299212598425197
          },
          {
            "duration": 0.23076900000000933,
            "durationTicks": 60,
            "midi": 72,
            "name": "C5",
            "ticks": 50580,
            "time": 194.53826699999996,
            "velocity": 0.6299212598425197
          },
          {
            "duration": 0.2307689999999809,
            "durationTicks": 60,
            "midi": 80,
            "name": "G#5",
            "ticks": 50700,
            "time": 194.99980499999998,
            "velocity": 0.6299212598425197
          },
          {
            "duration": 0.2307689999999809,
            "durationTicks": 60,
            "midi": 77,
            "name": "F5",
            "ticks": 50700,
            "time": 194.99980499999998,
            "velocity": 0.6299212598425197
          },
          {
            "duration": 0.2307689999999809,
            "durationTicks": 60,
            "midi": 72,
            "name": "C5",
            "ticks": 50700,
            "time": 194.99980499999998,
            "velocity": 0.6299212598425197
          },
          {
            "duration": 0.23076900000000933,
            "durationTicks": 60,
            "midi": 77,
            "name": "F5",
            "ticks": 50790,
            "time": 195.34595849999997,
            "velocity": 0.6299212598425197
          },
          {
            "duration": 0.23076900000000933,
            "durationTicks": 60,
            "midi": 80,
            "name": "G#5",
            "ticks": 50790,
            "time": 195.34595849999997,
            "velocity": 0.6299212598425197
          },
          {
            "duration": 0.23076900000000933,
            "durationTicks": 60,
            "midi": 72,
            "name": "C5",
            "ticks": 50790,
            "time": 195.34595849999997,
            "velocity": 0.6299212598425197
          },
          {
            "duration": 0.2307689999999809,
            "durationTicks": 60,
            "midi": 77,
            "name": "F5",
            "ticks": 50880,
            "time": 195.69211199999998,
            "velocity": 0.6299212598425197
          },
          {
            "duration": 0.2307689999999809,
            "durationTicks": 60,
            "midi": 80,
            "name": "G#5",
            "ticks": 50880,
            "time": 195.69211199999998,
            "velocity": 0.6299212598425197
          },
          {
            "duration": 0.2307689999999809,
            "durationTicks": 60,
            "midi": 72,
            "name": "C5",
            "ticks": 50880,
            "time": 195.69211199999998,
            "velocity": 0.6299212598425197
          },
          {
            "duration": 0.23076900000000933,
            "durationTicks": 60,
            "midi": 80,
            "name": "G#5",
            "ticks": 50970,
            "time": 196.03826549999997,
            "velocity": 0.6299212598425197
          },
          {
            "duration": 0.23076900000000933,
            "durationTicks": 60,
            "midi": 77,
            "name": "F5",
            "ticks": 50970,
            "time": 196.03826549999997,
            "velocity": 0.6299212598425197
          },
          {
            "duration": 0.23076900000000933,
            "durationTicks": 60,
            "midi": 72,
            "name": "C5",
            "ticks": 50970,
            "time": 196.03826549999997,
            "velocity": 0.6299212598425197
          },
          {
            "duration": 0.2307689999999809,
            "durationTicks": 60,
            "midi": 77,
            "name": "F5",
            "ticks": 51060,
            "time": 196.38441899999998,
            "velocity": 0.6299212598425197
          },
          {
            "duration": 0.2307689999999809,
            "durationTicks": 60,
            "midi": 80,
            "name": "G#5",
            "ticks": 51060,
            "time": 196.38441899999998,
            "velocity": 0.6299212598425197
          },
          {
            "duration": 0.2307689999999809,
            "durationTicks": 60,
            "midi": 72,
            "name": "C5",
            "ticks": 51060,
            "time": 196.38441899999998,
            "velocity": 0.6299212598425197
          },
          {
            "duration": 0.23076900000000933,
            "durationTicks": 60,
            "midi": 80,
            "name": "G#5",
            "ticks": 51180,
            "time": 196.84595699999997,
            "velocity": 0.6299212598425197
          },
          {
            "duration": 0.23076900000000933,
            "durationTicks": 60,
            "midi": 77,
            "name": "F5",
            "ticks": 51180,
            "time": 196.84595699999997,
            "velocity": 0.6299212598425197
          },
          {
            "duration": 0.23076900000000933,
            "durationTicks": 60,
            "midi": 72,
            "name": "C5",
            "ticks": 51180,
            "time": 196.84595699999997,
            "velocity": 0.6299212598425197
          },
          {
            "duration": 0.23076900000000933,
            "durationTicks": 60,
            "midi": 77,
            "name": "F5",
            "ticks": 51270,
            "time": 197.19211049999996,
            "velocity": 0.6299212598425197
          },
          {
            "duration": 0.23076900000000933,
            "durationTicks": 60,
            "midi": 80,
            "name": "G#5",
            "ticks": 51270,
            "time": 197.19211049999996,
            "velocity": 0.6299212598425197
          },
          {
            "duration": 0.23076900000000933,
            "durationTicks": 60,
            "midi": 72,
            "name": "C5",
            "ticks": 51270,
            "time": 197.19211049999996,
            "velocity": 0.6299212598425197
          },
          {
            "duration": 0.23076900000000933,
            "durationTicks": 60,
            "midi": 77,
            "name": "F5",
            "ticks": 51360,
            "time": 197.53826399999997,
            "velocity": 0.6299212598425197
          },
          {
            "duration": 0.23076900000000933,
            "durationTicks": 60,
            "midi": 80,
            "name": "G#5",
            "ticks": 51360,
            "time": 197.53826399999997,
            "velocity": 0.6299212598425197
          },
          {
            "duration": 0.23076900000000933,
            "durationTicks": 60,
            "midi": 72,
            "name": "C5",
            "ticks": 51360,
            "time": 197.53826399999997,
            "velocity": 0.6299212598425197
          },
          {
            "duration": 0.23076900000000933,
            "durationTicks": 60,
            "midi": 80,
            "name": "G#5",
            "ticks": 51450,
            "time": 197.88441749999996,
            "velocity": 0.6299212598425197
          },
          {
            "duration": 0.23076900000000933,
            "durationTicks": 60,
            "midi": 77,
            "name": "F5",
            "ticks": 51450,
            "time": 197.88441749999996,
            "velocity": 0.6299212598425197
          },
          {
            "duration": 0.23076900000000933,
            "durationTicks": 60,
            "midi": 72,
            "name": "C5",
            "ticks": 51450,
            "time": 197.88441749999996,
            "velocity": 0.6299212598425197
          },
          {
            "duration": 0.23076900000000933,
            "durationTicks": 60,
            "midi": 77,
            "name": "F5",
            "ticks": 51540,
            "time": 198.23057099999997,
            "velocity": 0.6299212598425197
          },
          {
            "duration": 0.23076900000000933,
            "durationTicks": 60,
            "midi": 80,
            "name": "G#5",
            "ticks": 51540,
            "time": 198.23057099999997,
            "velocity": 0.6299212598425197
          },
          {
            "duration": 0.23076900000000933,
            "durationTicks": 60,
            "midi": 72,
            "name": "C5",
            "ticks": 51540,
            "time": 198.23057099999997,
            "velocity": 0.6299212598425197
          },
          {
            "duration": 0.23076900000000933,
            "durationTicks": 60,
            "midi": 80,
            "name": "G#5",
            "ticks": 51660,
            "time": 198.69210899999996,
            "velocity": 0.6299212598425197
          },
          {
            "duration": 0.23076900000000933,
            "durationTicks": 60,
            "midi": 77,
            "name": "F5",
            "ticks": 51660,
            "time": 198.69210899999996,
            "velocity": 0.6299212598425197
          },
          {
            "duration": 0.23076900000000933,
            "durationTicks": 60,
            "midi": 72,
            "name": "C5",
            "ticks": 51660,
            "time": 198.69210899999996,
            "velocity": 0.6299212598425197
          },
          {
            "duration": 0.2307689999999809,
            "durationTicks": 60,
            "midi": 77,
            "name": "F5",
            "ticks": 51750,
            "time": 199.03826249999997,
            "velocity": 0.6299212598425197
          },
          {
            "duration": 0.2307689999999809,
            "durationTicks": 60,
            "midi": 80,
            "name": "G#5",
            "ticks": 51750,
            "time": 199.03826249999997,
            "velocity": 0.6299212598425197
          },
          {
            "duration": 0.2307689999999809,
            "durationTicks": 60,
            "midi": 72,
            "name": "C5",
            "ticks": 51750,
            "time": 199.03826249999997,
            "velocity": 0.6299212598425197
          },
          {
            "duration": 0.23076900000000933,
            "durationTicks": 60,
            "midi": 75,
            "name": "D#5",
            "ticks": 51840,
            "time": 199.38441599999996,
            "velocity": 0.6299212598425197
          },
          {
            "duration": 0.23076900000000933,
            "durationTicks": 60,
            "midi": 79,
            "name": "G5",
            "ticks": 51840,
            "time": 199.38441599999996,
            "velocity": 0.6299212598425197
          },
          {
            "duration": 0.23076900000000933,
            "durationTicks": 60,
            "midi": 70,
            "name": "A#4",
            "ticks": 51840,
            "time": 199.38441599999996,
            "velocity": 0.6299212598425197
          },
          {
            "duration": 0.2307689999999809,
            "durationTicks": 60,
            "midi": 75,
            "name": "D#5",
            "ticks": 51930,
            "time": 199.73056949999997,
            "velocity": 0.6299212598425197
          },
          {
            "duration": 0.2307689999999809,
            "durationTicks": 60,
            "midi": 79,
            "name": "G5",
            "ticks": 51930,
            "time": 199.73056949999997,
            "velocity": 0.6299212598425197
          },
          {
            "duration": 0.2307689999999809,
            "durationTicks": 60,
            "midi": 70,
            "name": "A#4",
            "ticks": 51930,
            "time": 199.73056949999997,
            "velocity": 0.6299212598425197
          },
          {
            "duration": 0.23076900000000933,
            "durationTicks": 60,
            "midi": 73,
            "name": "C#5",
            "ticks": 52020,
            "time": 200.07672299999996,
            "velocity": 0.6299212598425197
          },
          {
            "duration": 0.23076900000000933,
            "durationTicks": 60,
            "midi": 77,
            "name": "F5",
            "ticks": 52020,
            "time": 200.07672299999996,
            "velocity": 0.6299212598425197
          },
          {
            "duration": 0.23076900000000933,
            "durationTicks": 60,
            "midi": 68,
            "name": "G#4",
            "ticks": 52020,
            "time": 200.07672299999996,
            "velocity": 0.6299212598425197
          },
          {
            "duration": 0.2307689999999809,
            "durationTicks": 60,
            "midi": 77,
            "name": "F5",
            "ticks": 52140,
            "time": 200.53826099999998,
            "velocity": 0.6299212598425197
          },
          {
            "duration": 0.2307689999999809,
            "durationTicks": 60,
            "midi": 73,
            "name": "C#5",
            "ticks": 52140,
            "time": 200.53826099999998,
            "velocity": 0.6299212598425197
          },
          {
            "duration": 0.2307689999999809,
            "durationTicks": 60,
            "midi": 68,
            "name": "G#4",
            "ticks": 52140,
            "time": 200.53826099999998,
            "velocity": 0.6299212598425197
          },
          {
            "duration": 0.23076900000000933,
            "durationTicks": 60,
            "midi": 77,
            "name": "F5",
            "ticks": 52230,
            "time": 200.88441449999996,
            "velocity": 0.6299212598425197
          },
          {
            "duration": 0.23076900000000933,
            "durationTicks": 60,
            "midi": 73,
            "name": "C#5",
            "ticks": 52230,
            "time": 200.88441449999996,
            "velocity": 0.6299212598425197
          },
          {
            "duration": 0.23076900000000933,
            "durationTicks": 60,
            "midi": 68,
            "name": "G#4",
            "ticks": 52230,
            "time": 200.88441449999996,
            "velocity": 0.6299212598425197
          },
          {
            "duration": 0.2307689999999809,
            "durationTicks": 60,
            "midi": 77,
            "name": "F5",
            "ticks": 52320,
            "time": 201.23056799999998,
            "velocity": 0.6299212598425197
          },
          {
            "duration": 0.2307689999999809,
            "durationTicks": 60,
            "midi": 80,
            "name": "G#5",
            "ticks": 52320,
            "time": 201.23056799999998,
            "velocity": 0.6299212598425197
          },
          {
            "duration": 0.2307689999999809,
            "durationTicks": 60,
            "midi": 72,
            "name": "C5",
            "ticks": 52320,
            "time": 201.23056799999998,
            "velocity": 0.6299212598425197
          },
          {
            "duration": 0.23076900000000933,
            "durationTicks": 60,
            "midi": 77,
            "name": "F5",
            "ticks": 52410,
            "time": 201.57672149999996,
            "velocity": 0.6299212598425197
          },
          {
            "duration": 0.23076900000000933,
            "durationTicks": 60,
            "midi": 80,
            "name": "G#5",
            "ticks": 52410,
            "time": 201.57672149999996,
            "velocity": 0.6299212598425197
          },
          {
            "duration": 0.23076900000000933,
            "durationTicks": 60,
            "midi": 72,
            "name": "C5",
            "ticks": 52410,
            "time": 201.57672149999996,
            "velocity": 0.6299212598425197
          },
          {
            "duration": 0.2307689999999809,
            "durationTicks": 60,
            "midi": 77,
            "name": "F5",
            "ticks": 52500,
            "time": 201.92287499999998,
            "velocity": 0.6299212598425197
          },
          {
            "duration": 0.2307689999999809,
            "durationTicks": 60,
            "midi": 80,
            "name": "G#5",
            "ticks": 52500,
            "time": 201.92287499999998,
            "velocity": 0.6299212598425197
          },
          {
            "duration": 0.2307689999999809,
            "durationTicks": 60,
            "midi": 72,
            "name": "C5",
            "ticks": 52500,
            "time": 201.92287499999998,
            "velocity": 0.6299212598425197
          },
          {
            "duration": 0.23076900000000933,
            "durationTicks": 60,
            "midi": 77,
            "name": "F5",
            "ticks": 52620,
            "time": 202.38441299999997,
            "velocity": 0.6299212598425197
          },
          {
            "duration": 0.23076900000000933,
            "durationTicks": 60,
            "midi": 80,
            "name": "G#5",
            "ticks": 52620,
            "time": 202.38441299999997,
            "velocity": 0.6299212598425197
          },
          {
            "duration": 0.23076900000000933,
            "durationTicks": 60,
            "midi": 72,
            "name": "C5",
            "ticks": 52620,
            "time": 202.38441299999997,
            "velocity": 0.6299212598425197
          },
          {
            "duration": 0.2307689999999809,
            "durationTicks": 60,
            "midi": 77,
            "name": "F5",
            "ticks": 52710,
            "time": 202.73056649999998,
            "velocity": 0.6299212598425197
          },
          {
            "duration": 0.2307689999999809,
            "durationTicks": 60,
            "midi": 80,
            "name": "G#5",
            "ticks": 52710,
            "time": 202.73056649999998,
            "velocity": 0.6299212598425197
          },
          {
            "duration": 0.2307689999999809,
            "durationTicks": 60,
            "midi": 72,
            "name": "C5",
            "ticks": 52710,
            "time": 202.73056649999998,
            "velocity": 0.6299212598425197
          },
          {
            "duration": 0.23076900000000933,
            "durationTicks": 60,
            "midi": 79,
            "name": "G5",
            "ticks": 52800,
            "time": 203.07671999999997,
            "velocity": 0.6299212598425197
          },
          {
            "duration": 0.23076900000000933,
            "durationTicks": 60,
            "midi": 75,
            "name": "D#5",
            "ticks": 52800,
            "time": 203.07671999999997,
            "velocity": 0.6299212598425197
          },
          {
            "duration": 0.23076900000000933,
            "durationTicks": 60,
            "midi": 70,
            "name": "A#4",
            "ticks": 52800,
            "time": 203.07671999999997,
            "velocity": 0.6299212598425197
          },
          {
            "duration": 0.2307689999999809,
            "durationTicks": 60,
            "midi": 70,
            "name": "A#4",
            "ticks": 52890,
            "time": 203.42287349999998,
            "velocity": 0.6299212598425197
          },
          {
            "duration": 0.2307689999999809,
            "durationTicks": 60,
            "midi": 79,
            "name": "G5",
            "ticks": 52890,
            "time": 203.42287349999998,
            "velocity": 0.6299212598425197
          },
          {
            "duration": 0.2307689999999809,
            "durationTicks": 60,
            "midi": 75,
            "name": "D#5",
            "ticks": 52890,
            "time": 203.42287349999998,
            "velocity": 0.6299212598425197
          },
          {
            "duration": 0.23076900000000933,
            "durationTicks": 60,
            "midi": 73,
            "name": "C#5",
            "ticks": 52980,
            "time": 203.76902699999997,
            "velocity": 0.6299212598425197
          },
          {
            "duration": 0.23076900000000933,
            "durationTicks": 60,
            "midi": 77,
            "name": "F5",
            "ticks": 52980,
            "time": 203.76902699999997,
            "velocity": 0.6299212598425197
          },
          {
            "duration": 0.23076900000000933,
            "durationTicks": 60,
            "midi": 80,
            "name": "G#5",
            "ticks": 52980,
            "time": 203.76902699999997,
            "velocity": 0.6299212598425197
          },
          {
            "duration": 0.23076900000000933,
            "durationTicks": 60,
            "midi": 68,
            "name": "G#4",
            "ticks": 52980,
            "time": 203.76902699999997,
            "velocity": 0.6299212598425197
          },
          {
            "duration": 0.23076900000000933,
            "durationTicks": 60,
            "midi": 68,
            "name": "G#4",
            "ticks": 53100,
            "time": 204.23056499999996,
            "velocity": 0.6299212598425197
          },
          {
            "duration": 0.23076900000000933,
            "durationTicks": 60,
            "midi": 77,
            "name": "F5",
            "ticks": 53100,
            "time": 204.23056499999996,
            "velocity": 0.6299212598425197
          },
          {
            "duration": 0.23076900000000933,
            "durationTicks": 60,
            "midi": 73,
            "name": "C#5",
            "ticks": 53100,
            "time": 204.23056499999996,
            "velocity": 0.6299212598425197
          },
          {
            "duration": 0.23076900000000933,
            "durationTicks": 60,
            "midi": 80,
            "name": "G#5",
            "ticks": 53100,
            "time": 204.23056499999996,
            "velocity": 0.6299212598425197
          },
          {
            "duration": 0.23076900000000933,
            "durationTicks": 60,
            "midi": 77,
            "name": "F5",
            "ticks": 53190,
            "time": 204.57671849999997,
            "velocity": 0.6299212598425197
          },
          {
            "duration": 0.23076900000000933,
            "durationTicks": 60,
            "midi": 68,
            "name": "G#4",
            "ticks": 53190,
            "time": 204.57671849999997,
            "velocity": 0.6299212598425197
          },
          {
            "duration": 0.23076900000000933,
            "durationTicks": 60,
            "midi": 80,
            "name": "G#5",
            "ticks": 53190,
            "time": 204.57671849999997,
            "velocity": 0.6299212598425197
          },
          {
            "duration": 0.23076900000000933,
            "durationTicks": 60,
            "midi": 73,
            "name": "C#5",
            "ticks": 53190,
            "time": 204.57671849999997,
            "velocity": 0.6299212598425197
          },
          {
            "duration": 0.23076900000000933,
            "durationTicks": 60,
            "midi": 77,
            "name": "F5",
            "ticks": 53280,
            "time": 204.92287199999996,
            "velocity": 0.6299212598425197
          },
          {
            "duration": 0.23076900000000933,
            "durationTicks": 60,
            "midi": 80,
            "name": "G#5",
            "ticks": 53280,
            "time": 204.92287199999996,
            "velocity": 0.6299212598425197
          },
          {
            "duration": 0.23076900000000933,
            "durationTicks": 60,
            "midi": 72,
            "name": "C5",
            "ticks": 53280,
            "time": 204.92287199999996,
            "velocity": 0.6299212598425197
          },
          {
            "duration": 0.23076900000000933,
            "durationTicks": 60,
            "midi": 80,
            "name": "G#5",
            "ticks": 53370,
            "time": 205.26902549999997,
            "velocity": 0.6299212598425197
          },
          {
            "duration": 0.23076900000000933,
            "durationTicks": 60,
            "midi": 77,
            "name": "F5",
            "ticks": 53370,
            "time": 205.26902549999997,
            "velocity": 0.6299212598425197
          },
          {
            "duration": 0.23076900000000933,
            "durationTicks": 60,
            "midi": 72,
            "name": "C5",
            "ticks": 53370,
            "time": 205.26902549999997,
            "velocity": 0.6299212598425197
          },
          {
            "duration": 0.23076900000000933,
            "durationTicks": 60,
            "midi": 77,
            "name": "F5",
            "ticks": 53460,
            "time": 205.61517899999996,
            "velocity": 0.6299212598425197
          },
          {
            "duration": 0.23076900000000933,
            "durationTicks": 60,
            "midi": 80,
            "name": "G#5",
            "ticks": 53460,
            "time": 205.61517899999996,
            "velocity": 0.6299212598425197
          },
          {
            "duration": 0.23076900000000933,
            "durationTicks": 60,
            "midi": 72,
            "name": "C5",
            "ticks": 53460,
            "time": 205.61517899999996,
            "velocity": 0.6299212598425197
          },
          {
            "duration": 0.2307689999999809,
            "durationTicks": 60,
            "midi": 80,
            "name": "G#5",
            "ticks": 53580,
            "time": 206.07671699999997,
            "velocity": 0.6299212598425197
          },
          {
            "duration": 0.2307689999999809,
            "durationTicks": 60,
            "midi": 77,
            "name": "F5",
            "ticks": 53580,
            "time": 206.07671699999997,
            "velocity": 0.6299212598425197
          },
          {
            "duration": 0.2307689999999809,
            "durationTicks": 60,
            "midi": 72,
            "name": "C5",
            "ticks": 53580,
            "time": 206.07671699999997,
            "velocity": 0.6299212598425197
          },
          {
            "duration": 0.23076900000000933,
            "durationTicks": 60,
            "midi": 77,
            "name": "F5",
            "ticks": 53670,
            "time": 206.42287049999996,
            "velocity": 0.6299212598425197
          },
          {
            "duration": 0.23076900000000933,
            "durationTicks": 60,
            "midi": 80,
            "name": "G#5",
            "ticks": 53670,
            "time": 206.42287049999996,
            "velocity": 0.6299212598425197
          },
          {
            "duration": 0.23076900000000933,
            "durationTicks": 60,
            "midi": 72,
            "name": "C5",
            "ticks": 53670,
            "time": 206.42287049999996,
            "velocity": 0.6299212598425197
          },
          {
            "duration": 0.2307689999999809,
            "durationTicks": 60,
            "midi": 75,
            "name": "D#5",
            "ticks": 53760,
            "time": 206.76902399999997,
            "velocity": 0.6299212598425197
          },
          {
            "duration": 0.2307689999999809,
            "durationTicks": 60,
            "midi": 79,
            "name": "G5",
            "ticks": 53760,
            "time": 206.76902399999997,
            "velocity": 0.6299212598425197
          },
          {
            "duration": 0.2307689999999809,
            "durationTicks": 60,
            "midi": 70,
            "name": "A#4",
            "ticks": 53760,
            "time": 206.76902399999997,
            "velocity": 0.6299212598425197
          },
          {
            "duration": 0.23076900000000933,
            "durationTicks": 60,
            "midi": 75,
            "name": "D#5",
            "ticks": 53850,
            "time": 207.11517749999996,
            "velocity": 0.6299212598425197
          },
          {
            "duration": 0.23076900000000933,
            "durationTicks": 60,
            "midi": 79,
            "name": "G5",
            "ticks": 53850,
            "time": 207.11517749999996,
            "velocity": 0.6299212598425197
          },
          {
            "duration": 0.23076900000000933,
            "durationTicks": 60,
            "midi": 70,
            "name": "A#4",
            "ticks": 53850,
            "time": 207.11517749999996,
            "velocity": 0.6299212598425197
          },
          {
            "duration": 0.2307689999999809,
            "durationTicks": 60,
            "midi": 73,
            "name": "C#5",
            "ticks": 53940,
            "time": 207.46133099999997,
            "velocity": 0.6299212598425197
          },
          {
            "duration": 0.2307689999999809,
            "durationTicks": 60,
            "midi": 77,
            "name": "F5",
            "ticks": 53940,
            "time": 207.46133099999997,
            "velocity": 0.6299212598425197
          },
          {
            "duration": 0.2307689999999809,
            "durationTicks": 60,
            "midi": 68,
            "name": "G#4",
            "ticks": 53940,
            "time": 207.46133099999997,
            "velocity": 0.6299212598425197
          },
          {
            "duration": 0.23076900000000933,
            "durationTicks": 60,
            "midi": 77,
            "name": "F5",
            "ticks": 54060,
            "time": 207.92286899999996,
            "velocity": 0.6299212598425197
          },
          {
            "duration": 0.23076900000000933,
            "durationTicks": 60,
            "midi": 73,
            "name": "C#5",
            "ticks": 54060,
            "time": 207.92286899999996,
            "velocity": 0.6299212598425197
          },
          {
            "duration": 0.23076900000000933,
            "durationTicks": 60,
            "midi": 68,
            "name": "G#4",
            "ticks": 54060,
            "time": 207.92286899999996,
            "velocity": 0.6299212598425197
          },
          {
            "duration": 0.2307689999999809,
            "durationTicks": 60,
            "midi": 77,
            "name": "F5",
            "ticks": 54150,
            "time": 208.26902249999998,
            "velocity": 0.6299212598425197
          },
          {
            "duration": 0.2307689999999809,
            "durationTicks": 60,
            "midi": 73,
            "name": "C#5",
            "ticks": 54150,
            "time": 208.26902249999998,
            "velocity": 0.6299212598425197
          },
          {
            "duration": 0.2307689999999809,
            "durationTicks": 60,
            "midi": 68,
            "name": "G#4",
            "ticks": 54150,
            "time": 208.26902249999998,
            "velocity": 0.6299212598425197
          },
          {
            "duration": 0.23076900000000933,
            "durationTicks": 60,
            "midi": 77,
            "name": "F5",
            "ticks": 54240,
            "time": 208.61517599999996,
            "velocity": 0.6299212598425197
          },
          {
            "duration": 0.23076900000000933,
            "durationTicks": 60,
            "midi": 80,
            "name": "G#5",
            "ticks": 54240,
            "time": 208.61517599999996,
            "velocity": 0.6299212598425197
          },
          {
            "duration": 0.23076900000000933,
            "durationTicks": 60,
            "midi": 72,
            "name": "C5",
            "ticks": 54240,
            "time": 208.61517599999996,
            "velocity": 0.6299212598425197
          },
          {
            "duration": 0.2307689999999809,
            "durationTicks": 60,
            "midi": 77,
            "name": "F5",
            "ticks": 54330,
            "time": 208.96132949999998,
            "velocity": 0.6299212598425197
          },
          {
            "duration": 0.2307689999999809,
            "durationTicks": 60,
            "midi": 80,
            "name": "G#5",
            "ticks": 54330,
            "time": 208.96132949999998,
            "velocity": 0.6299212598425197
          },
          {
            "duration": 0.2307689999999809,
            "durationTicks": 60,
            "midi": 72,
            "name": "C5",
            "ticks": 54330,
            "time": 208.96132949999998,
            "velocity": 0.6299212598425197
          },
          {
            "duration": 0.23076900000000933,
            "durationTicks": 60,
            "midi": 77,
            "name": "F5",
            "ticks": 54420,
            "time": 209.30748299999996,
            "velocity": 0.6299212598425197
          },
          {
            "duration": 0.23076900000000933,
            "durationTicks": 60,
            "midi": 80,
            "name": "G#5",
            "ticks": 54420,
            "time": 209.30748299999996,
            "velocity": 0.6299212598425197
          },
          {
            "duration": 0.23076900000000933,
            "durationTicks": 60,
            "midi": 72,
            "name": "C5",
            "ticks": 54420,
            "time": 209.30748299999996,
            "velocity": 0.6299212598425197
          },
          {
            "duration": 0.23076900000000933,
            "durationTicks": 60,
            "midi": 77,
            "name": "F5",
            "ticks": 54540,
            "time": 209.76902099999995,
            "velocity": 0.6299212598425197
          },
          {
            "duration": 0.23076900000000933,
            "durationTicks": 60,
            "midi": 80,
            "name": "G#5",
            "ticks": 54540,
            "time": 209.76902099999995,
            "velocity": 0.6299212598425197
          },
          {
            "duration": 0.23076900000000933,
            "durationTicks": 60,
            "midi": 72,
            "name": "C5",
            "ticks": 54540,
            "time": 209.76902099999995,
            "velocity": 0.6299212598425197
          },
          {
            "duration": 0.23076900000000933,
            "durationTicks": 60,
            "midi": 77,
            "name": "F5",
            "ticks": 54630,
            "time": 210.11517449999997,
            "velocity": 0.6299212598425197
          },
          {
            "duration": 0.23076900000000933,
            "durationTicks": 60,
            "midi": 80,
            "name": "G#5",
            "ticks": 54630,
            "time": 210.11517449999997,
            "velocity": 0.6299212598425197
          },
          {
            "duration": 0.23076900000000933,
            "durationTicks": 60,
            "midi": 72,
            "name": "C5",
            "ticks": 54630,
            "time": 210.11517449999997,
            "velocity": 0.6299212598425197
          },
          {
            "duration": 0.23076900000000933,
            "durationTicks": 60,
            "midi": 79,
            "name": "G5",
            "ticks": 54720,
            "time": 210.46132799999995,
            "velocity": 0.6299212598425197
          },
          {
            "duration": 0.23076900000000933,
            "durationTicks": 60,
            "midi": 75,
            "name": "D#5",
            "ticks": 54720,
            "time": 210.46132799999995,
            "velocity": 0.6299212598425197
          },
          {
            "duration": 0.23076900000000933,
            "durationTicks": 60,
            "midi": 70,
            "name": "A#4",
            "ticks": 54720,
            "time": 210.46132799999995,
            "velocity": 0.6299212598425197
          },
          {
            "duration": 0.23076900000000933,
            "durationTicks": 60,
            "midi": 70,
            "name": "A#4",
            "ticks": 54810,
            "time": 210.80748149999997,
            "velocity": 0.6299212598425197
          },
          {
            "duration": 0.23076900000000933,
            "durationTicks": 60,
            "midi": 79,
            "name": "G5",
            "ticks": 54810,
            "time": 210.80748149999997,
            "velocity": 0.6299212598425197
          },
          {
            "duration": 0.23076900000000933,
            "durationTicks": 60,
            "midi": 75,
            "name": "D#5",
            "ticks": 54810,
            "time": 210.80748149999997,
            "velocity": 0.6299212598425197
          },
          {
            "duration": 0.2307689999999809,
            "durationTicks": 60,
            "midi": 73,
            "name": "C#5",
            "ticks": 54900,
            "time": 211.15363499999998,
            "velocity": 0.6299212598425197
          },
          {
            "duration": 0.2307689999999809,
            "durationTicks": 60,
            "midi": 77,
            "name": "F5",
            "ticks": 54900,
            "time": 211.15363499999998,
            "velocity": 0.6299212598425197
          },
          {
            "duration": 0.2307689999999809,
            "durationTicks": 60,
            "midi": 80,
            "name": "G#5",
            "ticks": 54900,
            "time": 211.15363499999998,
            "velocity": 0.6299212598425197
          },
          {
            "duration": 0.2307689999999809,
            "durationTicks": 60,
            "midi": 68,
            "name": "G#4",
            "ticks": 54900,
            "time": 211.15363499999998,
            "velocity": 0.6299212598425197
          },
          {
            "duration": 0.23076900000000933,
            "durationTicks": 60,
            "midi": 68,
            "name": "G#4",
            "ticks": 55020,
            "time": 211.61517299999997,
            "velocity": 0.6299212598425197
          },
          {
            "duration": 0.23076900000000933,
            "durationTicks": 60,
            "midi": 77,
            "name": "F5",
            "ticks": 55020,
            "time": 211.61517299999997,
            "velocity": 0.6299212598425197
          },
          {
            "duration": 0.23076900000000933,
            "durationTicks": 60,
            "midi": 73,
            "name": "C#5",
            "ticks": 55020,
            "time": 211.61517299999997,
            "velocity": 0.6299212598425197
          },
          {
            "duration": 0.23076900000000933,
            "durationTicks": 60,
            "midi": 80,
            "name": "G#5",
            "ticks": 55020,
            "time": 211.61517299999997,
            "velocity": 0.6299212598425197
          },
          {
            "duration": 0.23076900000000933,
            "durationTicks": 60,
            "midi": 77,
            "name": "F5",
            "ticks": 55110,
            "time": 211.96132649999996,
            "velocity": 0.6299212598425197
          },
          {
            "duration": 0.23076900000000933,
            "durationTicks": 60,
            "midi": 68,
            "name": "G#4",
            "ticks": 55110,
            "time": 211.96132649999996,
            "velocity": 0.6299212598425197
          },
          {
            "duration": 0.23076900000000933,
            "durationTicks": 60,
            "midi": 80,
            "name": "G#5",
            "ticks": 55110,
            "time": 211.96132649999996,
            "velocity": 0.6299212598425197
          },
          {
            "duration": 0.23076900000000933,
            "durationTicks": 60,
            "midi": 73,
            "name": "C#5",
            "ticks": 55110,
            "time": 211.96132649999996,
            "velocity": 0.6299212598425197
          },
          {
            "duration": 0.2307689999999809,
            "durationTicks": 60,
            "midi": 77,
            "name": "F5",
            "ticks": 60000,
            "time": 230.76899999999998,
            "velocity": 0.6299212598425197
          },
          {
            "duration": 0.2307689999999809,
            "durationTicks": 60,
            "midi": 80,
            "name": "G#5",
            "ticks": 60000,
            "time": 230.76899999999998,
            "velocity": 0.6299212598425197
          },
          {
            "duration": 0.2307689999999809,
            "durationTicks": 60,
            "midi": 72,
            "name": "C5",
            "ticks": 60000,
            "time": 230.76899999999998,
            "velocity": 0.6299212598425197
          },
          {
            "duration": 0.23076900000000933,
            "durationTicks": 60,
            "midi": 80,
            "name": "G#5",
            "ticks": 60090,
            "time": 231.11515349999996,
            "velocity": 0.6299212598425197
          },
          {
            "duration": 0.23076900000000933,
            "durationTicks": 60,
            "midi": 77,
            "name": "F5",
            "ticks": 60090,
            "time": 231.11515349999996,
            "velocity": 0.6299212598425197
          },
          {
            "duration": 0.23076900000000933,
            "durationTicks": 60,
            "midi": 72,
            "name": "C5",
            "ticks": 60090,
            "time": 231.11515349999996,
            "velocity": 0.6299212598425197
          },
          {
            "duration": 0.2307689999999809,
            "durationTicks": 60,
            "midi": 77,
            "name": "F5",
            "ticks": 60180,
            "time": 231.46130699999998,
            "velocity": 0.6299212598425197
          },
          {
            "duration": 0.2307689999999809,
            "durationTicks": 60,
            "midi": 80,
            "name": "G#5",
            "ticks": 60180,
            "time": 231.46130699999998,
            "velocity": 0.6299212598425197
          },
          {
            "duration": 0.2307689999999809,
            "durationTicks": 60,
            "midi": 72,
            "name": "C5",
            "ticks": 60180,
            "time": 231.46130699999998,
            "velocity": 0.6299212598425197
          },
          {
            "duration": 0.23076900000000933,
            "durationTicks": 60,
            "midi": 80,
            "name": "G#5",
            "ticks": 60300,
            "time": 231.92284499999997,
            "velocity": 0.6299212598425197
          },
          {
            "duration": 0.23076900000000933,
            "durationTicks": 60,
            "midi": 77,
            "name": "F5",
            "ticks": 60300,
            "time": 231.92284499999997,
            "velocity": 0.6299212598425197
          },
          {
            "duration": 0.23076900000000933,
            "durationTicks": 60,
            "midi": 72,
            "name": "C5",
            "ticks": 60300,
            "time": 231.92284499999997,
            "velocity": 0.6299212598425197
          },
          {
            "duration": 0.23076900000000933,
            "durationTicks": 60,
            "midi": 77,
            "name": "F5",
            "ticks": 60390,
            "time": 232.26899849999995,
            "velocity": 0.6299212598425197
          },
          {
            "duration": 0.23076900000000933,
            "durationTicks": 60,
            "midi": 80,
            "name": "G#5",
            "ticks": 60390,
            "time": 232.26899849999995,
            "velocity": 0.6299212598425197
          },
          {
            "duration": 0.23076900000000933,
            "durationTicks": 60,
            "midi": 72,
            "name": "C5",
            "ticks": 60390,
            "time": 232.26899849999995,
            "velocity": 0.6299212598425197
          },
          {
            "duration": 0.23076900000000933,
            "durationTicks": 60,
            "midi": 75,
            "name": "D#5",
            "ticks": 60480,
            "time": 232.61515199999997,
            "velocity": 0.6299212598425197
          },
          {
            "duration": 0.23076900000000933,
            "durationTicks": 60,
            "midi": 79,
            "name": "G5",
            "ticks": 60480,
            "time": 232.61515199999997,
            "velocity": 0.6299212598425197
          },
          {
            "duration": 0.23076900000000933,
            "durationTicks": 60,
            "midi": 70,
            "name": "A#4",
            "ticks": 60480,
            "time": 232.61515199999997,
            "velocity": 0.6299212598425197
          },
          {
            "duration": 0.23076900000000933,
            "durationTicks": 60,
            "midi": 75,
            "name": "D#5",
            "ticks": 60570,
            "time": 232.96130549999995,
            "velocity": 0.6299212598425197
          },
          {
            "duration": 0.23076900000000933,
            "durationTicks": 60,
            "midi": 79,
            "name": "G5",
            "ticks": 60570,
            "time": 232.96130549999995,
            "velocity": 0.6299212598425197
          },
          {
            "duration": 0.23076900000000933,
            "durationTicks": 60,
            "midi": 70,
            "name": "A#4",
            "ticks": 60570,
            "time": 232.96130549999995,
            "velocity": 0.6299212598425197
          },
          {
            "duration": 0.23076900000000933,
            "durationTicks": 60,
            "midi": 73,
            "name": "C#5",
            "ticks": 60660,
            "time": 233.30745899999997,
            "velocity": 0.6299212598425197
          },
          {
            "duration": 0.23076900000000933,
            "durationTicks": 60,
            "midi": 77,
            "name": "F5",
            "ticks": 60660,
            "time": 233.30745899999997,
            "velocity": 0.6299212598425197
          },
          {
            "duration": 0.23076900000000933,
            "durationTicks": 60,
            "midi": 68,
            "name": "G#4",
            "ticks": 60660,
            "time": 233.30745899999997,
            "velocity": 0.6299212598425197
          },
          {
            "duration": 0.23076900000000933,
            "durationTicks": 60,
            "midi": 77,
            "name": "F5",
            "ticks": 60780,
            "time": 233.76899699999996,
            "velocity": 0.6299212598425197
          },
          {
            "duration": 0.23076900000000933,
            "durationTicks": 60,
            "midi": 73,
            "name": "C#5",
            "ticks": 60780,
            "time": 233.76899699999996,
            "velocity": 0.6299212598425197
          },
          {
            "duration": 0.23076900000000933,
            "durationTicks": 60,
            "midi": 68,
            "name": "G#4",
            "ticks": 60780,
            "time": 233.76899699999996,
            "velocity": 0.6299212598425197
          },
          {
            "duration": 0.2307689999999809,
            "durationTicks": 60,
            "midi": 77,
            "name": "F5",
            "ticks": 60870,
            "time": 234.11515049999997,
            "velocity": 0.6299212598425197
          },
          {
            "duration": 0.2307689999999809,
            "durationTicks": 60,
            "midi": 73,
            "name": "C#5",
            "ticks": 60870,
            "time": 234.11515049999997,
            "velocity": 0.6299212598425197
          },
          {
            "duration": 0.2307689999999809,
            "durationTicks": 60,
            "midi": 68,
            "name": "G#4",
            "ticks": 60870,
            "time": 234.11515049999997,
            "velocity": 0.6299212598425197
          },
          {
            "duration": 0.23076900000000933,
            "durationTicks": 60,
            "midi": 77,
            "name": "F5",
            "ticks": 60960,
            "time": 234.46130399999996,
            "velocity": 0.6299212598425197
          },
          {
            "duration": 0.23076900000000933,
            "durationTicks": 60,
            "midi": 80,
            "name": "G#5",
            "ticks": 60960,
            "time": 234.46130399999996,
            "velocity": 0.6299212598425197
          },
          {
            "duration": 0.23076900000000933,
            "durationTicks": 60,
            "midi": 72,
            "name": "C5",
            "ticks": 60960,
            "time": 234.46130399999996,
            "velocity": 0.6299212598425197
          },
          {
            "duration": 0.2307689999999809,
            "durationTicks": 60,
            "midi": 77,
            "name": "F5",
            "ticks": 61050,
            "time": 234.80745749999997,
            "velocity": 0.6299212598425197
          },
          {
            "duration": 0.2307689999999809,
            "durationTicks": 60,
            "midi": 80,
            "name": "G#5",
            "ticks": 61050,
            "time": 234.80745749999997,
            "velocity": 0.6299212598425197
          },
          {
            "duration": 0.2307689999999809,
            "durationTicks": 60,
            "midi": 72,
            "name": "C5",
            "ticks": 61050,
            "time": 234.80745749999997,
            "velocity": 0.6299212598425197
          },
          {
            "duration": 0.23076900000000933,
            "durationTicks": 60,
            "midi": 77,
            "name": "F5",
            "ticks": 61140,
            "time": 235.15361099999996,
            "velocity": 0.6299212598425197
          },
          {
            "duration": 0.23076900000000933,
            "durationTicks": 60,
            "midi": 80,
            "name": "G#5",
            "ticks": 61140,
            "time": 235.15361099999996,
            "velocity": 0.6299212598425197
          },
          {
            "duration": 0.23076900000000933,
            "durationTicks": 60,
            "midi": 72,
            "name": "C5",
            "ticks": 61140,
            "time": 235.15361099999996,
            "velocity": 0.6299212598425197
          },
          {
            "duration": 0.2307689999999809,
            "durationTicks": 60,
            "midi": 77,
            "name": "F5",
            "ticks": 61260,
            "time": 235.61514899999997,
            "velocity": 0.6299212598425197
          },
          {
            "duration": 0.2307689999999809,
            "durationTicks": 60,
            "midi": 80,
            "name": "G#5",
            "ticks": 61260,
            "time": 235.61514899999997,
            "velocity": 0.6299212598425197
          },
          {
            "duration": 0.2307689999999809,
            "durationTicks": 60,
            "midi": 72,
            "name": "C5",
            "ticks": 61260,
            "time": 235.61514899999997,
            "velocity": 0.6299212598425197
          },
          {
            "duration": 0.23076900000000933,
            "durationTicks": 60,
            "midi": 77,
            "name": "F5",
            "ticks": 61350,
            "time": 235.96130249999996,
            "velocity": 0.6299212598425197
          },
          {
            "duration": 0.23076900000000933,
            "durationTicks": 60,
            "midi": 80,
            "name": "G#5",
            "ticks": 61350,
            "time": 235.96130249999996,
            "velocity": 0.6299212598425197
          },
          {
            "duration": 0.23076900000000933,
            "durationTicks": 60,
            "midi": 72,
            "name": "C5",
            "ticks": 61350,
            "time": 235.96130249999996,
            "velocity": 0.6299212598425197
          },
          {
            "duration": 0.2307689999999809,
            "durationTicks": 60,
            "midi": 79,
            "name": "G5",
            "ticks": 61440,
            "time": 236.30745599999997,
            "velocity": 0.6299212598425197
          },
          {
            "duration": 0.2307689999999809,
            "durationTicks": 60,
            "midi": 75,
            "name": "D#5",
            "ticks": 61440,
            "time": 236.30745599999997,
            "velocity": 0.6299212598425197
          },
          {
            "duration": 0.2307689999999809,
            "durationTicks": 60,
            "midi": 70,
            "name": "A#4",
            "ticks": 61440,
            "time": 236.30745599999997,
            "velocity": 0.6299212598425197
          },
          {
            "duration": 0.23076900000000933,
            "durationTicks": 60,
            "midi": 70,
            "name": "A#4",
            "ticks": 61530,
            "time": 236.65360949999996,
            "velocity": 0.6299212598425197
          },
          {
            "duration": 0.23076900000000933,
            "durationTicks": 60,
            "midi": 79,
            "name": "G5",
            "ticks": 61530,
            "time": 236.65360949999996,
            "velocity": 0.6299212598425197
          },
          {
            "duration": 0.23076900000000933,
            "durationTicks": 60,
            "midi": 75,
            "name": "D#5",
            "ticks": 61530,
            "time": 236.65360949999996,
            "velocity": 0.6299212598425197
          },
          {
            "duration": 0.2307689999999809,
            "durationTicks": 60,
            "midi": 73,
            "name": "C#5",
            "ticks": 61620,
            "time": 236.99976299999997,
            "velocity": 0.6299212598425197
          },
          {
            "duration": 0.2307689999999809,
            "durationTicks": 60,
            "midi": 77,
            "name": "F5",
            "ticks": 61620,
            "time": 236.99976299999997,
            "velocity": 0.6299212598425197
          },
          {
            "duration": 0.2307689999999809,
            "durationTicks": 60,
            "midi": 80,
            "name": "G#5",
            "ticks": 61620,
            "time": 236.99976299999997,
            "velocity": 0.6299212598425197
          },
          {
            "duration": 0.2307689999999809,
            "durationTicks": 60,
            "midi": 68,
            "name": "G#4",
            "ticks": 61620,
            "time": 236.99976299999997,
            "velocity": 0.6299212598425197
          },
          {
            "duration": 0.23076900000000933,
            "durationTicks": 60,
            "midi": 68,
            "name": "G#4",
            "ticks": 61740,
            "time": 237.46130099999996,
            "velocity": 0.6299212598425197
          },
          {
            "duration": 0.23076900000000933,
            "durationTicks": 60,
            "midi": 77,
            "name": "F5",
            "ticks": 61740,
            "time": 237.46130099999996,
            "velocity": 0.6299212598425197
          },
          {
            "duration": 0.23076900000000933,
            "durationTicks": 60,
            "midi": 73,
            "name": "C#5",
            "ticks": 61740,
            "time": 237.46130099999996,
            "velocity": 0.6299212598425197
          },
          {
            "duration": 0.23076900000000933,
            "durationTicks": 60,
            "midi": 80,
            "name": "G#5",
            "ticks": 61740,
            "time": 237.46130099999996,
            "velocity": 0.6299212598425197
          },
          {
            "duration": 0.23076900000000933,
            "durationTicks": 60,
            "midi": 77,
            "name": "F5",
            "ticks": 61830,
            "time": 237.80745449999995,
            "velocity": 0.6299212598425197
          },
          {
            "duration": 0.23076900000000933,
            "durationTicks": 60,
            "midi": 68,
            "name": "G#4",
            "ticks": 61830,
            "time": 237.80745449999995,
            "velocity": 0.6299212598425197
          },
          {
            "duration": 0.23076900000000933,
            "durationTicks": 60,
            "midi": 80,
            "name": "G#5",
            "ticks": 61830,
            "time": 237.80745449999995,
            "velocity": 0.6299212598425197
          },
          {
            "duration": 0.23076900000000933,
            "durationTicks": 60,
            "midi": 73,
            "name": "C#5",
            "ticks": 61830,
            "time": 237.80745449999995,
            "velocity": 0.6299212598425197
          },
          {
            "duration": 0.23076900000000933,
            "durationTicks": 60,
            "midi": 77,
            "name": "F5",
            "ticks": 61920,
            "time": 238.15360799999996,
            "velocity": 0.6299212598425197
          },
          {
            "duration": 0.23076900000000933,
            "durationTicks": 60,
            "midi": 80,
            "name": "G#5",
            "ticks": 61920,
            "time": 238.15360799999996,
            "velocity": 0.6299212598425197
          },
          {
            "duration": 0.23076900000000933,
            "durationTicks": 60,
            "midi": 72,
            "name": "C5",
            "ticks": 61920,
            "time": 238.15360799999996,
            "velocity": 0.6299212598425197
          },
          {
            "duration": 0.2307689999999809,
            "durationTicks": 60,
            "midi": 80,
            "name": "G#5",
            "ticks": 62010,
            "time": 238.49976149999998,
            "velocity": 0.6299212598425197
          },
          {
            "duration": 0.2307689999999809,
            "durationTicks": 60,
            "midi": 77,
            "name": "F5",
            "ticks": 62010,
            "time": 238.49976149999998,
            "velocity": 0.6299212598425197
          },
          {
            "duration": 0.2307689999999809,
            "durationTicks": 60,
            "midi": 72,
            "name": "C5",
            "ticks": 62010,
            "time": 238.49976149999998,
            "velocity": 0.6299212598425197
          },
          {
            "duration": 0.23076900000000933,
            "durationTicks": 60,
            "midi": 77,
            "name": "F5",
            "ticks": 62100,
            "time": 238.84591499999996,
            "velocity": 0.6299212598425197
          },
          {
            "duration": 0.23076900000000933,
            "durationTicks": 60,
            "midi": 80,
            "name": "G#5",
            "ticks": 62100,
            "time": 238.84591499999996,
            "velocity": 0.6299212598425197
          },
          {
            "duration": 0.23076900000000933,
            "durationTicks": 60,
            "midi": 72,
            "name": "C5",
            "ticks": 62100,
            "time": 238.84591499999996,
            "velocity": 0.6299212598425197
          },
          {
            "duration": 0.23076900000000933,
            "durationTicks": 60,
            "midi": 80,
            "name": "G#5",
            "ticks": 62220,
            "time": 239.30745299999995,
            "velocity": 0.6299212598425197
          },
          {
            "duration": 0.23076900000000933,
            "durationTicks": 60,
            "midi": 77,
            "name": "F5",
            "ticks": 62220,
            "time": 239.30745299999995,
            "velocity": 0.6299212598425197
          },
          {
            "duration": 0.23076900000000933,
            "durationTicks": 60,
            "midi": 72,
            "name": "C5",
            "ticks": 62220,
            "time": 239.30745299999995,
            "velocity": 0.6299212598425197
          },
          {
            "duration": 0.23076900000000933,
            "durationTicks": 60,
            "midi": 77,
            "name": "F5",
            "ticks": 62310,
            "time": 239.65360649999997,
            "velocity": 0.6299212598425197
          },
          {
            "duration": 0.23076900000000933,
            "durationTicks": 60,
            "midi": 80,
            "name": "G#5",
            "ticks": 62310,
            "time": 239.65360649999997,
            "velocity": 0.6299212598425197
          },
          {
            "duration": 0.23076900000000933,
            "durationTicks": 60,
            "midi": 72,
            "name": "C5",
            "ticks": 62310,
            "time": 239.65360649999997,
            "velocity": 0.6299212598425197
          },
          {
            "duration": 0.23076900000000933,
            "durationTicks": 60,
            "midi": 75,
            "name": "D#5",
            "ticks": 62400,
            "time": 239.99975999999995,
            "velocity": 0.6299212598425197
          },
          {
            "duration": 0.23076900000000933,
            "durationTicks": 60,
            "midi": 79,
            "name": "G5",
            "ticks": 62400,
            "time": 239.99975999999995,
            "velocity": 0.6299212598425197
          },
          {
            "duration": 0.23076900000000933,
            "durationTicks": 60,
            "midi": 70,
            "name": "A#4",
            "ticks": 62400,
            "time": 239.99975999999995,
            "velocity": 0.6299212598425197
          },
          {
            "duration": 0.23076900000000933,
            "durationTicks": 60,
            "midi": 75,
            "name": "D#5",
            "ticks": 62490,
            "time": 240.34591349999997,
            "velocity": 0.6299212598425197
          },
          {
            "duration": 0.23076900000000933,
            "durationTicks": 60,
            "midi": 79,
            "name": "G5",
            "ticks": 62490,
            "time": 240.34591349999997,
            "velocity": 0.6299212598425197
          },
          {
            "duration": 0.23076900000000933,
            "durationTicks": 60,
            "midi": 70,
            "name": "A#4",
            "ticks": 62490,
            "time": 240.34591349999997,
            "velocity": 0.6299212598425197
          },
          {
            "duration": 0.23076900000000933,
            "durationTicks": 60,
            "midi": 73,
            "name": "C#5",
            "ticks": 62580,
            "time": 240.69206699999995,
            "velocity": 0.6299212598425197
          },
          {
            "duration": 0.23076900000000933,
            "durationTicks": 60,
            "midi": 77,
            "name": "F5",
            "ticks": 62580,
            "time": 240.69206699999995,
            "velocity": 0.6299212598425197
          },
          {
            "duration": 0.23076900000000933,
            "durationTicks": 60,
            "midi": 68,
            "name": "G#4",
            "ticks": 62580,
            "time": 240.69206699999995,
            "velocity": 0.6299212598425197
          },
          {
            "duration": 0.2307689999999809,
            "durationTicks": 60,
            "midi": 77,
            "name": "F5",
            "ticks": 62700,
            "time": 241.15360499999997,
            "velocity": 0.6299212598425197
          },
          {
            "duration": 0.2307689999999809,
            "durationTicks": 60,
            "midi": 73,
            "name": "C#5",
            "ticks": 62700,
            "time": 241.15360499999997,
            "velocity": 0.6299212598425197
          },
          {
            "duration": 0.2307689999999809,
            "durationTicks": 60,
            "midi": 68,
            "name": "G#4",
            "ticks": 62700,
            "time": 241.15360499999997,
            "velocity": 0.6299212598425197
          },
          {
            "duration": 0.23076900000000933,
            "durationTicks": 60,
            "midi": 77,
            "name": "F5",
            "ticks": 62790,
            "time": 241.49975849999996,
            "velocity": 0.6299212598425197
          },
          {
            "duration": 0.23076900000000933,
            "durationTicks": 60,
            "midi": 73,
            "name": "C#5",
            "ticks": 62790,
            "time": 241.49975849999996,
            "velocity": 0.6299212598425197
          },
          {
            "duration": 0.23076900000000933,
            "durationTicks": 60,
            "midi": 68,
            "name": "G#4",
            "ticks": 62790,
            "time": 241.49975849999996,
            "velocity": 0.6299212598425197
          },
          {
            "duration": 0.2307689999999809,
            "durationTicks": 60,
            "midi": 77,
            "name": "F5",
            "ticks": 62880,
            "time": 241.84591199999997,
            "velocity": 0.6299212598425197
          },
          {
            "duration": 0.2307689999999809,
            "durationTicks": 60,
            "midi": 80,
            "name": "G#5",
            "ticks": 62880,
            "time": 241.84591199999997,
            "velocity": 0.6299212598425197
          },
          {
            "duration": 0.2307689999999809,
            "durationTicks": 60,
            "midi": 72,
            "name": "C5",
            "ticks": 62880,
            "time": 241.84591199999997,
            "velocity": 0.6299212598425197
          },
          {
            "duration": 0.23076900000000933,
            "durationTicks": 60,
            "midi": 77,
            "name": "F5",
            "ticks": 62970,
            "time": 242.19206549999996,
            "velocity": 0.6299212598425197
          },
          {
            "duration": 0.23076900000000933,
            "durationTicks": 60,
            "midi": 80,
            "name": "G#5",
            "ticks": 62970,
            "time": 242.19206549999996,
            "velocity": 0.6299212598425197
          },
          {
            "duration": 0.23076900000000933,
            "durationTicks": 60,
            "midi": 72,
            "name": "C5",
            "ticks": 62970,
            "time": 242.19206549999996,
            "velocity": 0.6299212598425197
          },
          {
            "duration": 0.2307689999999809,
            "durationTicks": 60,
            "midi": 77,
            "name": "F5",
            "ticks": 63060,
            "time": 242.53821899999997,
            "velocity": 0.6299212598425197
          },
          {
            "duration": 0.2307689999999809,
            "durationTicks": 60,
            "midi": 80,
            "name": "G#5",
            "ticks": 63060,
            "time": 242.53821899999997,
            "velocity": 0.6299212598425197
          },
          {
            "duration": 0.2307689999999809,
            "durationTicks": 60,
            "midi": 72,
            "name": "C5",
            "ticks": 63060,
            "time": 242.53821899999997,
            "velocity": 0.6299212598425197
          },
          {
            "duration": 0.23076900000000933,
            "durationTicks": 60,
            "midi": 77,
            "name": "F5",
            "ticks": 63180,
            "time": 242.99975699999996,
            "velocity": 0.6299212598425197
          },
          {
            "duration": 0.23076900000000933,
            "durationTicks": 60,
            "midi": 80,
            "name": "G#5",
            "ticks": 63180,
            "time": 242.99975699999996,
            "velocity": 0.6299212598425197
          },
          {
            "duration": 0.23076900000000933,
            "durationTicks": 60,
            "midi": 72,
            "name": "C5",
            "ticks": 63180,
            "time": 242.99975699999996,
            "velocity": 0.6299212598425197
          },
          {
            "duration": 0.2307689999999809,
            "durationTicks": 60,
            "midi": 77,
            "name": "F5",
            "ticks": 63270,
            "time": 243.34591049999997,
            "velocity": 0.6299212598425197
          },
          {
            "duration": 0.2307689999999809,
            "durationTicks": 60,
            "midi": 80,
            "name": "G#5",
            "ticks": 63270,
            "time": 243.34591049999997,
            "velocity": 0.6299212598425197
          },
          {
            "duration": 0.2307689999999809,
            "durationTicks": 60,
            "midi": 72,
            "name": "C5",
            "ticks": 63270,
            "time": 243.34591049999997,
            "velocity": 0.6299212598425197
          },
          {
            "duration": 0.23076900000000933,
            "durationTicks": 60,
            "midi": 79,
            "name": "G5",
            "ticks": 63360,
            "time": 243.69206399999996,
            "velocity": 0.6299212598425197
          },
          {
            "duration": 0.23076900000000933,
            "durationTicks": 60,
            "midi": 75,
            "name": "D#5",
            "ticks": 63360,
            "time": 243.69206399999996,
            "velocity": 0.6299212598425197
          },
          {
            "duration": 0.23076900000000933,
            "durationTicks": 60,
            "midi": 70,
            "name": "A#4",
            "ticks": 63360,
            "time": 243.69206399999996,
            "velocity": 0.6299212598425197
          },
          {
            "duration": 0.2307689999999809,
            "durationTicks": 60,
            "midi": 70,
            "name": "A#4",
            "ticks": 63450,
            "time": 244.03821749999997,
            "velocity": 0.6299212598425197
          },
          {
            "duration": 0.2307689999999809,
            "durationTicks": 60,
            "midi": 79,
            "name": "G5",
            "ticks": 63450,
            "time": 244.03821749999997,
            "velocity": 0.6299212598425197
          },
          {
            "duration": 0.2307689999999809,
            "durationTicks": 60,
            "midi": 75,
            "name": "D#5",
            "ticks": 63450,
            "time": 244.03821749999997,
            "velocity": 0.6299212598425197
          },
          {
            "duration": 0.23076900000000933,
            "durationTicks": 60,
            "midi": 73,
            "name": "C#5",
            "ticks": 63540,
            "time": 244.38437099999996,
            "velocity": 0.6299212598425197
          },
          {
            "duration": 0.23076900000000933,
            "durationTicks": 60,
            "midi": 77,
            "name": "F5",
            "ticks": 63540,
            "time": 244.38437099999996,
            "velocity": 0.6299212598425197
          },
          {
            "duration": 0.23076900000000933,
            "durationTicks": 60,
            "midi": 80,
            "name": "G#5",
            "ticks": 63540,
            "time": 244.38437099999996,
            "velocity": 0.6299212598425197
          },
          {
            "duration": 0.23076900000000933,
            "durationTicks": 60,
            "midi": 68,
            "name": "G#4",
            "ticks": 63540,
            "time": 244.38437099999996,
            "velocity": 0.6299212598425197
          },
          {
            "duration": 0.23076900000000933,
            "durationTicks": 60,
            "midi": 68,
            "name": "G#4",
            "ticks": 63660,
            "time": 244.84590899999995,
            "velocity": 0.6299212598425197
          },
          {
            "duration": 0.23076900000000933,
            "durationTicks": 60,
            "midi": 77,
            "name": "F5",
            "ticks": 63660,
            "time": 244.84590899999995,
            "velocity": 0.6299212598425197
          },
          {
            "duration": 0.23076900000000933,
            "durationTicks": 60,
            "midi": 73,
            "name": "C#5",
            "ticks": 63660,
            "time": 244.84590899999995,
            "velocity": 0.6299212598425197
          },
          {
            "duration": 0.23076900000000933,
            "durationTicks": 60,
            "midi": 80,
            "name": "G#5",
            "ticks": 63660,
            "time": 244.84590899999995,
            "velocity": 0.6299212598425197
          },
          {
            "duration": 0.23076900000000933,
            "durationTicks": 60,
            "midi": 77,
            "name": "F5",
            "ticks": 63750,
            "time": 245.19206249999996,
            "velocity": 0.6299212598425197
          },
          {
            "duration": 0.23076900000000933,
            "durationTicks": 60,
            "midi": 68,
            "name": "G#4",
            "ticks": 63750,
            "time": 245.19206249999996,
            "velocity": 0.6299212598425197
          },
          {
            "duration": 0.23076900000000933,
            "durationTicks": 60,
            "midi": 80,
            "name": "G#5",
            "ticks": 63750,
            "time": 245.19206249999996,
            "velocity": 0.6299212598425197
          },
          {
            "duration": 0.23076900000000933,
            "durationTicks": 60,
            "midi": 73,
            "name": "C#5",
            "ticks": 63750,
            "time": 245.19206249999996,
            "velocity": 0.6299212598425197
          }
        ]
      },
      {
        "channel": 13,
        "controlChanges": {
          "7": [
            {
              "number": 7,
              "ticks": 0,
              "time": 0,
              "value": 0.6299212598425197
            }
          ],
          "64": [
            {
              "number": 64,
              "ticks": 31275,
              "time": 120.28834124999999,
              "value": 1
            },
            {
              "number": 64,
              "ticks": 31669,
              "time": 121.80372435,
              "value": 0
            },
            {
              "number": 64,
              "ticks": 31734,
              "time": 122.05372409999998,
              "value": 1
            },
            {
              "number": 64,
              "ticks": 31854,
              "time": 122.51526209999999,
              "value": 0
            },
            {
              "number": 64,
              "ticks": 31917,
              "time": 122.75756955,
              "value": 1
            },
            {
              "number": 64,
              "ticks": 32148,
              "time": 123.64603019999998,
              "value": 0
            },
            {
              "number": 64,
              "ticks": 32207,
              "time": 123.87295304999998,
              "value": 1
            },
            {
              "number": 64,
              "ticks": 32641,
              "time": 125.54218214999999,
              "value": 0
            },
            {
              "number": 64,
              "ticks": 32699,
              "time": 125.76525885,
              "value": 1
            },
            {
              "number": 64,
              "ticks": 32823,
              "time": 126.24218144999998,
              "value": 0
            },
            {
              "number": 64,
              "ticks": 32881,
              "time": 126.46525814999998,
              "value": 1
            },
            {
              "number": 64,
              "ticks": 33112,
              "time": 127.3537188,
              "value": 0
            },
            {
              "number": 64,
              "ticks": 33159,
              "time": 127.53448784999999,
              "value": 1
            },
            {
              "number": 64,
              "ticks": 33601,
              "time": 129.23448614999998,
              "value": 0
            },
            {
              "number": 64,
              "ticks": 33648,
              "time": 129.41525519999996,
              "value": 1
            },
            {
              "number": 64,
              "ticks": 33783,
              "time": 129.93448544999995,
              "value": 0
            },
            {
              "number": 64,
              "ticks": 33828,
              "time": 130.10756219999996,
              "value": 1
            },
            {
              "number": 64,
              "ticks": 34070,
              "time": 131.03833049999997,
              "value": 0
            },
            {
              "number": 64,
              "ticks": 34129,
              "time": 131.26525335,
              "value": 1
            },
            {
              "number": 64,
              "ticks": 34556,
              "time": 132.90755939999997,
              "value": 0
            },
            {
              "number": 64,
              "ticks": 34603,
              "time": 133.08832844999998,
              "value": 1
            },
            {
              "number": 64,
              "ticks": 34739,
              "time": 133.61140484999999,
              "value": 0
            },
            {
              "number": 64,
              "ticks": 51435,
              "time": 197.82672524999998,
              "value": 1
            },
            {
              "number": 64,
              "ticks": 51829,
              "time": 199.34210835,
              "value": 0
            },
            {
              "number": 64,
              "ticks": 51894,
              "time": 199.59210809999996,
              "value": 1
            },
            {
              "number": 64,
              "ticks": 52014,
              "time": 200.05364609999995,
              "value": 0
            },
            {
              "number": 64,
              "ticks": 52077,
              "time": 200.29595354999998,
              "value": 1
            },
            {
              "number": 64,
              "ticks": 52308,
              "time": 201.18441419999996,
              "value": 0
            },
            {
              "number": 64,
              "ticks": 52367,
              "time": 201.41133704999996,
              "value": 1
            },
            {
              "number": 64,
              "ticks": 52801,
              "time": 203.08056614999995,
              "value": 0
            },
            {
              "number": 64,
              "ticks": 52859,
              "time": 203.30364284999996,
              "value": 1
            },
            {
              "number": 64,
              "ticks": 52983,
              "time": 203.78056544999995,
              "value": 0
            },
            {
              "number": 64,
              "ticks": 53041,
              "time": 204.00364214999996,
              "value": 1
            },
            {
              "number": 64,
              "ticks": 53272,
              "time": 204.89210279999998,
              "value": 0
            },
            {
              "number": 64,
              "ticks": 53355,
              "time": 205.21133324999997,
              "value": 1
            },
            {
              "number": 64,
              "ticks": 53749,
              "time": 206.72671634999998,
              "value": 0
            },
            {
              "number": 64,
              "ticks": 53814,
              "time": 206.97671609999995,
              "value": 1
            },
            {
              "number": 64,
              "ticks": 53934,
              "time": 207.43825409999997,
              "value": 0
            },
            {
              "number": 64,
              "ticks": 53997,
              "time": 207.68056154999996,
              "value": 1
            },
            {
              "number": 64,
              "ticks": 54228,
              "time": 208.56902219999995,
              "value": 0
            },
            {
              "number": 64,
              "ticks": 54287,
              "time": 208.79594504999997,
              "value": 1
            },
            {
              "number": 64,
              "ticks": 54721,
              "time": 210.46517414999997,
              "value": 0
            },
            {
              "number": 64,
              "ticks": 54779,
              "time": 210.68825084999997,
              "value": 1
            },
            {
              "number": 64,
              "ticks": 54903,
              "time": 211.16517344999997,
              "value": 0
            },
            {
              "number": 64,
              "ticks": 54961,
              "time": 211.38825014999998,
              "value": 1
            },
            {
              "number": 64,
              "ticks": 55192,
              "time": 212.27671079999996,
              "value": 0
            },
            {
              "number": 64,
              "ticks": 55279,
              "time": 212.61132585,
              "value": 1
            },
            {
              "number": 64,
              "ticks": 55678,
              "time": 214.14593969999999,
              "value": 0
            },
            {
              "number": 64,
              "ticks": 55718,
              "time": 214.29978569999997,
              "value": 1
            },
            {
              "number": 64,
              "ticks": 55917,
              "time": 215.06516954999998,
              "value": 0
            },
            {
              "number": 64,
              "ticks": 55953,
              "time": 215.20363094999996,
              "value": 1
            },
            {
              "number": 64,
              "ticks": 56163,
              "time": 216.01132244999997,
              "value": 0
            },
            {
              "number": 64,
              "ticks": 56215,
              "time": 216.21132224999997,
              "value": 1
            },
            {
              "number": 64,
              "ticks": 56639,
              "time": 217.84208984999998,
              "value": 0
            },
            {
              "number": 64,
              "ticks": 56690,
              "time": 218.03824349999996,
              "value": 1
            },
            {
              "number": 64,
              "ticks": 56885,
              "time": 218.78824274999997,
              "value": 0
            },
            {
              "number": 64,
              "ticks": 56932,
              "time": 218.96901179999998,
              "value": 1
            },
            {
              "number": 64,
              "ticks": 57120,
              "time": 219.69208799999996,
              "value": 0
            },
            {
              "number": 64,
              "ticks": 57190,
              "time": 219.96131849999995,
              "value": 1
            },
            {
              "number": 64,
              "ticks": 57605,
              "time": 221.55747074999996,
              "value": 0
            },
            {
              "number": 64,
              "ticks": 57645,
              "time": 221.71131674999995,
              "value": 1
            },
            {
              "number": 64,
              "ticks": 57839,
              "time": 222.45746984999997,
              "value": 0
            },
            {
              "number": 64,
              "ticks": 57881,
              "time": 222.61900814999996,
              "value": 1
            },
            {
              "number": 64,
              "ticks": 58086,
              "time": 223.40746889999997,
              "value": 0
            },
            {
              "number": 64,
              "ticks": 58134,
              "time": 223.59208409999997,
              "value": 1
            },
            {
              "number": 64,
              "ticks": 58542,
              "time": 225.16131329999996,
              "value": 0
            },
            {
              "number": 64,
              "ticks": 58583,
              "time": 225.31900544999996,
              "value": 1
            },
            {
              "number": 64,
              "ticks": 58791,
              "time": 226.11900464999997,
              "value": 0
            },
            {
              "number": 64,
              "ticks": 60075,
              "time": 231.05746124999996,
              "value": 1
            },
            {
              "number": 64,
              "ticks": 60469,
              "time": 232.57284434999997,
              "value": 0
            },
            {
              "number": 64,
              "ticks": 60534,
              "time": 232.82284409999997,
              "value": 1
            },
            {
              "number": 64,
              "ticks": 60654,
              "time": 233.28438209999996,
              "value": 0
            },
            {
              "number": 64,
              "ticks": 60717,
              "time": 233.52668955,
              "value": 1
            },
            {
              "number": 64,
              "ticks": 60948,
              "time": 234.41515019999994,
              "value": 0
            },
            {
              "number": 64,
              "ticks": 61007,
              "time": 234.64207304999996,
              "value": 1
            },
            {
              "number": 64,
              "ticks": 61441,
              "time": 236.31130214999996,
              "value": 0
            },
            {
              "number": 64,
              "ticks": 61499,
              "time": 236.53437884999997,
              "value": 1
            },
            {
              "number": 64,
              "ticks": 61623,
              "time": 237.01130144999996,
              "value": 0
            },
            {
              "number": 64,
              "ticks": 61681,
              "time": 237.23437814999997,
              "value": 1
            },
            {
              "number": 64,
              "ticks": 61912,
              "time": 238.12283879999995,
              "value": 0
            },
            {
              "number": 64,
              "ticks": 61995,
              "time": 238.44206924999997,
              "value": 1
            },
            {
              "number": 64,
              "ticks": 62389,
              "time": 239.95745234999995,
              "value": 0
            },
            {
              "number": 64,
              "ticks": 62454,
              "time": 240.20745209999998,
              "value": 1
            },
            {
              "number": 64,
              "ticks": 62574,
              "time": 240.66899009999997,
              "value": 0
            },
            {
              "number": 64,
              "ticks": 62637,
              "time": 240.91129754999997,
              "value": 1
            },
            {
              "number": 64,
              "ticks": 62868,
              "time": 241.79975819999996,
              "value": 0
            },
            {
              "number": 64,
              "ticks": 62927,
              "time": 242.02668104999995,
              "value": 1
            },
            {
              "number": 64,
              "ticks": 63361,
              "time": 243.69591014999995,
              "value": 0
            },
            {
              "number": 64,
              "ticks": 63419,
              "time": 243.91898684999995,
              "value": 1
            },
            {
              "number": 64,
              "ticks": 63543,
              "time": 244.39590944999995,
              "value": 0
            },
            {
              "number": 64,
              "ticks": 63601,
              "time": 244.61898614999996,
              "value": 1
            },
            {
              "number": 64,
              "ticks": 63832,
              "time": 245.50744679999994,
              "value": 0
            },
            {
              "number": 64,
              "ticks": 63919,
              "time": 245.84206184999994,
              "value": 1
            },
            {
              "number": 64,
              "ticks": 64318,
              "time": 247.37667569999996,
              "value": 0
            },
            {
              "number": 64,
              "ticks": 64358,
              "time": 247.53052169999998,
              "value": 1
            },
            {
              "number": 64,
              "ticks": 64557,
              "time": 248.29590555,
              "value": 0
            },
            {
              "number": 64,
              "ticks": 64593,
              "time": 248.43436694999994,
              "value": 1
            },
            {
              "number": 64,
              "ticks": 64803,
              "time": 249.24205844999994,
              "value": 0
            },
            {
              "number": 64,
              "ticks": 64855,
              "time": 249.44205824999997,
              "value": 1
            },
            {
              "number": 64,
              "ticks": 65279,
              "time": 251.07282584999996,
              "value": 0
            },
            {
              "number": 64,
              "ticks": 65330,
              "time": 251.26897949999994,
              "value": 1
            },
            {
              "number": 64,
              "ticks": 65525,
              "time": 252.01897874999995,
              "value": 0
            },
            {
              "number": 64,
              "ticks": 65572,
              "time": 252.19974779999993,
              "value": 1
            },
            {
              "number": 64,
              "ticks": 65760,
              "time": 252.92282399999996,
              "value": 0
            },
            {
              "number": 64,
              "ticks": 65830,
              "time": 253.19205449999998,
              "value": 1
            },
            {
              "number": 64,
              "ticks": 66245,
              "time": 254.78820674999994,
              "value": 0
            },
            {
              "number": 64,
              "ticks": 66285,
              "time": 254.94205274999996,
              "value": 1
            },
            {
              "number": 64,
              "ticks": 66479,
              "time": 255.68820584999997,
              "value": 0
            },
            {
              "number": 64,
              "ticks": 66521,
              "time": 255.84974414999996,
              "value": 1
            },
            {
              "number": 64,
              "ticks": 66726,
              "time": 256.63820489999995,
              "value": 0
            },
            {
              "number": 64,
              "ticks": 66774,
              "time": 256.8228201,
              "value": 1
            },
            {
              "number": 64,
              "ticks": 67182,
              "time": 258.3920493,
              "value": 0
            }
          ],
          "91": [
            {
              "number": 91,
              "ticks": 480,
              "time": 1.8461519999999998,
              "value": 0.3937007874015748
            }
          ],
          "93": [
            {
              "number": 93,
              "ticks": 480,
              "time": 1.8461519999999998,
              "value": 0.15748031496062992
            }
          ]
        },
        "pitchBends": [],
        "instrument": {
          "family": "ensemble",
          "name": "string ensemble 1",
          "number": 48
        },
        "name": "Strings 1",
        "notes": [
          {
            "duration": 12.92306400000001,
            "durationTicks": 3360,
            "midi": 53,
            "name": "F3",
            "ticks": 15840,
            "time": 60.92301599999999,
            "velocity": 0.6299212598425197
          },
          {
            "duration": 12.92306400000001,
            "durationTicks": 3360,
            "midi": 68,
            "name": "G#4",
            "ticks": 15840,
            "time": 60.92301599999999,
            "velocity": 0.6299212598425197
          },
          {
            "duration": 12.92306400000001,
            "durationTicks": 3360,
            "midi": 65,
            "name": "F4",
            "ticks": 15840,
            "time": 60.92301599999999,
            "velocity": 0.6299212598425197
          },
          {
            "duration": 12.92306400000001,
            "durationTicks": 3360,
            "midi": 60,
            "name": "C4",
            "ticks": 15840,
            "time": 60.92301599999999,
            "velocity": 0.6299212598425197
          },
          {
            "duration": 0.5038456499999882,
            "durationTicks": 131,
            "midi": 53,
            "name": "F3",
            "ticks": 31200,
            "time": 119.99987999999999,
            "velocity": 0.6299212598425197
          },
          {
            "duration": 0.5153841000000057,
            "durationTicks": 134,
            "midi": 68,
            "name": "G#4",
            "ticks": 31200,
            "time": 119.99987999999999,
            "velocity": 0.6299212598425197
          },
          {
            "duration": 0.49999949999998705,
            "durationTicks": 130,
            "midi": 65,
            "name": "F4",
            "ticks": 31200,
            "time": 119.99987999999999,
            "velocity": 0.6299212598425197
          },
          {
            "duration": 0.49999949999998705,
            "durationTicks": 130,
            "midi": 60,
            "name": "C4",
            "ticks": 31200,
            "time": 119.99987999999999,
            "velocity": 0.6299212598425197
          },
          {
            "duration": 0.3692304000000064,
            "durationTicks": 96,
            "midi": 51,
            "name": "D#3",
            "ticks": 31680,
            "time": 121.846032,
            "velocity": 0.6299212598425197
          },
          {
            "duration": 0.26538434999999083,
            "durationTicks": 69,
            "midi": 63,
            "name": "D#4",
            "ticks": 31680,
            "time": 121.846032,
            "velocity": 0.6299212598425197
          },
          {
            "duration": 0.27692280000000835,
            "durationTicks": 72,
            "midi": 58,
            "name": "A#3",
            "ticks": 31680,
            "time": 121.846032,
            "velocity": 0.6299212598425197
          },
          {
            "duration": 0.2730766499999788,
            "durationTicks": 71,
            "midi": 67,
            "name": "G4",
            "ticks": 31680,
            "time": 121.846032,
            "velocity": 0.6299212598425197
          },
          {
            "duration": 0.3576919499999889,
            "durationTicks": 93,
            "midi": 49,
            "name": "C#3",
            "ticks": 31830,
            "time": 122.42295449999999,
            "velocity": 0.6299212598425197
          },
          {
            "duration": 0.3346150500000107,
            "durationTicks": 87,
            "midi": 65,
            "name": "F4",
            "ticks": 31830,
            "time": 122.42295449999999,
            "velocity": 0.6299212598425197
          },
          {
            "duration": 0.28846124999999745,
            "durationTicks": 75,
            "midi": 56,
            "name": "G#3",
            "ticks": 31860,
            "time": 122.538339,
            "velocity": 0.6299212598425197
          },
          {
            "duration": 0.29615354999998544,
            "durationTicks": 77,
            "midi": 61,
            "name": "C#4",
            "ticks": 31860,
            "time": 122.538339,
            "velocity": 0.6299212598425197
          },
          {
            "duration": 0.44999955000000114,
            "durationTicks": 117,
            "midi": 53,
            "name": "F3",
            "ticks": 32130,
            "time": 123.57679949999999,
            "velocity": 0.6299212598425197
          },
          {
            "duration": 0.42307650000002184,
            "durationTicks": 110,
            "midi": 68,
            "name": "G#4",
            "ticks": 32160,
            "time": 123.69218399999998,
            "velocity": 0.6299212598425197
          },
          {
            "duration": 0.392307300000013,
            "durationTicks": 102,
            "midi": 65,
            "name": "F4",
            "ticks": 32160,
            "time": 123.69218399999998,
            "velocity": 0.6299212598425197
          },
          {
            "duration": 0.3961534500000141,
            "durationTicks": 103,
            "midi": 60,
            "name": "C4",
            "ticks": 32160,
            "time": 123.69218399999998,
            "velocity": 0.6299212598425197
          },
          {
            "duration": 0.31923045000000627,
            "durationTicks": 83,
            "midi": 51,
            "name": "D#3",
            "ticks": 32640,
            "time": 125.53833599999999,
            "velocity": 0.6299212598425197
          },
          {
            "duration": 0.2153843999999907,
            "durationTicks": 56,
            "midi": 67,
            "name": "G4",
            "ticks": 32640,
            "time": 125.53833599999999,
            "velocity": 0.6299212598425197
          },
          {
            "duration": 0.2115382499999896,
            "durationTicks": 55,
            "midi": 63,
            "name": "D#4",
            "ticks": 32640,
            "time": 125.53833599999999,
            "velocity": 0.6299212598425197
          },
          {
            "duration": 0.2038459500000016,
            "durationTicks": 53,
            "midi": 58,
            "name": "A#3",
            "ticks": 32640,
            "time": 125.53833599999999,
            "velocity": 0.6299212598425197
          },
          {
            "duration": 0.31923045000000627,
            "durationTicks": 83,
            "midi": 49,
            "name": "C#3",
            "ticks": 32820,
            "time": 126.23064299999999,
            "velocity": 0.6299212598425197
          },
          {
            "duration": 0.29615354999999965,
            "durationTicks": 77,
            "midi": 65,
            "name": "F4",
            "ticks": 32820,
            "time": 126.23064299999999,
            "velocity": 0.6299212598425197
          },
          {
            "duration": 0.24230744999999843,
            "durationTicks": 63,
            "midi": 56,
            "name": "G#3",
            "ticks": 32820,
            "time": 126.23064299999999,
            "velocity": 0.6299212598425197
          },
          {
            "duration": 0.24615360000001374,
            "durationTicks": 64,
            "midi": 61,
            "name": "C#4",
            "ticks": 32820,
            "time": 126.23064299999999,
            "velocity": 0.6299212598425197
          },
          {
            "duration": 0.33076889999999537,
            "durationTicks": 86,
            "midi": 68,
            "name": "G#4",
            "ticks": 33090,
            "time": 127.26910349999999,
            "velocity": 0.6299212598425197
          },
          {
            "duration": 0.353845800000002,
            "durationTicks": 92,
            "midi": 53,
            "name": "F3",
            "ticks": 33090,
            "time": 127.26910349999999,
            "velocity": 0.6299212598425197
          },
          {
            "duration": 0.31538430000000517,
            "durationTicks": 82,
            "midi": 60,
            "name": "C4",
            "ticks": 33090,
            "time": 127.26910349999999,
            "velocity": 0.6299212598425197
          },
          {
            "duration": 0.3076920000000172,
            "durationTicks": 80,
            "midi": 65,
            "name": "F4",
            "ticks": 33090,
            "time": 127.26910349999999,
            "velocity": 0.6299212598425197
          },
          {
            "duration": 0.1961536499999852,
            "durationTicks": 51,
            "midi": 67,
            "name": "G4",
            "ticks": 33600,
            "time": 129.23064,
            "velocity": 0.6299212598425197
          },
          {
            "duration": 0.28846124999998324,
            "durationTicks": 75,
            "midi": 51,
            "name": "D#3",
            "ticks": 33600,
            "time": 129.23064,
            "velocity": 0.6299212598425197
          },
          {
            "duration": 0.23461514999999622,
            "durationTicks": 61,
            "midi": 58,
            "name": "A#3",
            "ticks": 33600,
            "time": 129.23064,
            "velocity": 0.6299212598425197
          },
          {
            "duration": 0.2038459499999874,
            "durationTicks": 53,
            "midi": 63,
            "name": "D#4",
            "ticks": 33600,
            "time": 129.23064,
            "velocity": 0.6299212598425197
          },
          {
            "duration": 0.29230739999997013,
            "durationTicks": 76,
            "midi": 65,
            "name": "F4",
            "ticks": 33750,
            "time": 129.8075625,
            "velocity": 0.6299212598425197
          },
          {
            "duration": 0.31538430000000517,
            "durationTicks": 82,
            "midi": 49,
            "name": "C#3",
            "ticks": 33780,
            "time": 129.92294699999997,
            "velocity": 0.6299212598425197
          },
          {
            "duration": 0.25384590000001594,
            "durationTicks": 66,
            "midi": 56,
            "name": "G#3",
            "ticks": 33780,
            "time": 129.92294699999997,
            "velocity": 0.6299212598425197
          },
          {
            "duration": 0.25769205000000284,
            "durationTicks": 67,
            "midi": 61,
            "name": "C#4",
            "ticks": 33780,
            "time": 129.92294699999997,
            "velocity": 0.6299212598425197
          },
          {
            "duration": 0.4230765000000076,
            "durationTicks": 110,
            "midi": 53,
            "name": "F3",
            "ticks": 34050,
            "time": 130.96140749999998,
            "velocity": 0.6299212598425197
          },
          {
            "duration": 0.3653842500000053,
            "durationTicks": 95,
            "midi": 68,
            "name": "G#4",
            "ticks": 34050,
            "time": 130.96140749999998,
            "velocity": 0.6299212598425197
          },
          {
            "duration": 0.3384612000000118,
            "durationTicks": 88,
            "midi": 65,
            "name": "F4",
            "ticks": 34050,
            "time": 130.96140749999998,
            "velocity": 0.6299212598425197
          },
          {
            "duration": 0.34615349999998557,
            "durationTicks": 90,
            "midi": 60,
            "name": "C4",
            "ticks": 34050,
            "time": 130.96140749999998,
            "velocity": 0.6299212598425197
          },
          {
            "duration": 0.24999975000000063,
            "durationTicks": 65,
            "midi": 58,
            "name": "A#3",
            "ticks": 34560,
            "time": 132.92294399999997,
            "velocity": 0.6299212598425197
          },
          {
            "duration": 0.21923055000002023,
            "durationTicks": 57,
            "midi": 63,
            "name": "D#4",
            "ticks": 34560,
            "time": 132.92294399999997,
            "velocity": 0.6299212598425197
          },
          {
            "duration": 0.29230739999999855,
            "durationTicks": 76,
            "midi": 51,
            "name": "D#3",
            "ticks": 34560,
            "time": 132.92294399999997,
            "velocity": 0.6299212598425197
          },
          {
            "duration": 0.2076921000000027,
            "durationTicks": 54,
            "midi": 67,
            "name": "G4",
            "ticks": 34560,
            "time": 132.92294399999997,
            "velocity": 0.6299212598425197
          },
          {
            "duration": 0.346153500000014,
            "durationTicks": 90,
            "midi": 65,
            "name": "F4",
            "ticks": 34710,
            "time": 133.49986649999997,
            "velocity": 0.6299212598425197
          },
          {
            "duration": 0.3423073499999987,
            "durationTicks": 89,
            "midi": 49,
            "name": "C#3",
            "ticks": 34710,
            "time": 133.49986649999997,
            "velocity": 0.6299212598425197
          },
          {
            "duration": 0.33076889999998116,
            "durationTicks": 86,
            "midi": 61,
            "name": "C#4",
            "ticks": 34710,
            "time": 133.49986649999997,
            "velocity": 0.6299212598425197
          },
          {
            "duration": 0.3346150500000249,
            "durationTicks": 87,
            "midi": 56,
            "name": "G#3",
            "ticks": 34710,
            "time": 133.49986649999997,
            "velocity": 0.6299212598425197
          },
          {
            "duration": 14.769216,
            "durationTicks": 3840,
            "midi": 53,
            "name": "F3",
            "ticks": 36000,
            "time": 138.46139999999997,
            "velocity": 0.6299212598425197
          },
          {
            "duration": 14.769216,
            "durationTicks": 3840,
            "midi": 68,
            "name": "G#4",
            "ticks": 36000,
            "time": 138.46139999999997,
            "velocity": 0.6299212598425197
          },
          {
            "duration": 14.769216,
            "durationTicks": 3840,
            "midi": 65,
            "name": "F4",
            "ticks": 36000,
            "time": 138.46139999999997,
            "velocity": 0.6299212598425197
          },
          {
            "duration": 14.769216,
            "durationTicks": 3840,
            "midi": 60,
            "name": "C4",
            "ticks": 36000,
            "time": 138.46139999999997,
            "velocity": 0.6299212598425197
          },
          {
            "duration": 0.5038456499999882,
            "durationTicks": 131,
            "midi": 53,
            "name": "F3",
            "ticks": 51360,
            "time": 197.53826399999997,
            "velocity": 0.6299212598425197
          },
          {
            "duration": 0.5153841000000057,
            "durationTicks": 134,
            "midi": 68,
            "name": "G#4",
            "ticks": 51360,
            "time": 197.53826399999997,
            "velocity": 0.6299212598425197
          },
          {
            "duration": 0.49999950000000126,
            "durationTicks": 130,
            "midi": 65,
            "name": "F4",
            "ticks": 51360,
            "time": 197.53826399999997,
            "velocity": 0.6299212598425197
          },
          {
            "duration": 0.49999950000000126,
            "durationTicks": 130,
            "midi": 60,
            "name": "C4",
            "ticks": 51360,
            "time": 197.53826399999997,
            "velocity": 0.6299212598425197
          },
          {
            "duration": 0.3692304000000206,
            "durationTicks": 96,
            "midi": 51,
            "name": "D#3",
            "ticks": 51840,
            "time": 199.38441599999996,
            "velocity": 0.6299212598425197
          },
          {
            "duration": 0.26538435000000504,
            "durationTicks": 69,
            "midi": 63,
            "name": "D#4",
            "ticks": 51840,
            "time": 199.38441599999996,
            "velocity": 0.6299212598425197
          },
          {
            "duration": 0.27692280000002256,
            "durationTicks": 72,
            "midi": 58,
            "name": "A#3",
            "ticks": 51840,
            "time": 199.38441599999996,
            "velocity": 0.6299212598425197
          },
          {
            "duration": 0.27307665000000725,
            "durationTicks": 71,
            "midi": 67,
            "name": "G4",
            "ticks": 51840,
            "time": 199.38441599999996,
            "velocity": 0.6299212598425197
          },
          {
            "duration": 0.3576919500000031,
            "durationTicks": 93,
            "midi": 49,
            "name": "C#3",
            "ticks": 51990,
            "time": 199.96133849999995,
            "velocity": 0.6299212598425197
          },
          {
            "duration": 0.3346150500000249,
            "durationTicks": 87,
            "midi": 65,
            "name": "F4",
            "ticks": 51990,
            "time": 199.96133849999995,
            "velocity": 0.6299212598425197
          },
          {
            "duration": 0.28846125000001166,
            "durationTicks": 75,
            "midi": 56,
            "name": "G#3",
            "ticks": 52020,
            "time": 200.07672299999996,
            "velocity": 0.6299212598425197
          },
          {
            "duration": 0.29615355000001387,
            "durationTicks": 77,
            "midi": 61,
            "name": "C#4",
            "ticks": 52020,
            "time": 200.07672299999996,
            "velocity": 0.6299212598425197
          },
          {
            "duration": 0.44999955000000114,
            "durationTicks": 117,
            "midi": 53,
            "name": "F3",
            "ticks": 52290,
            "time": 201.11518349999997,
            "velocity": 0.6299212598425197
          },
          {
            "duration": 0.4230765000000076,
            "durationTicks": 110,
            "midi": 68,
            "name": "G#4",
            "ticks": 52320,
            "time": 201.23056799999998,
            "velocity": 0.6299212598425197
          },
          {
            "duration": 0.3923072999999988,
            "durationTicks": 102,
            "midi": 65,
            "name": "F4",
            "ticks": 52320,
            "time": 201.23056799999998,
            "velocity": 0.6299212598425197
          },
          {
            "duration": 0.3961534499999857,
            "durationTicks": 103,
            "midi": 60,
            "name": "C4",
            "ticks": 52320,
            "time": 201.23056799999998,
            "velocity": 0.6299212598425197
          },
          {
            "duration": 0.31923044999999206,
            "durationTicks": 83,
            "midi": 51,
            "name": "D#3",
            "ticks": 52800,
            "time": 203.07671999999997,
            "velocity": 0.6299212598425197
          },
          {
            "duration": 0.2153843999999765,
            "durationTicks": 56,
            "midi": 67,
            "name": "G4",
            "ticks": 52800,
            "time": 203.07671999999997,
            "velocity": 0.6299212598425197
          },
          {
            "duration": 0.2115382499999896,
            "durationTicks": 55,
            "midi": 63,
            "name": "D#4",
            "ticks": 52800,
            "time": 203.07671999999997,
            "velocity": 0.6299212598425197
          },
          {
            "duration": 0.2038459499999874,
            "durationTicks": 53,
            "midi": 58,
            "name": "A#3",
            "ticks": 52800,
            "time": 203.07671999999997,
            "velocity": 0.6299212598425197
          },
          {
            "duration": 0.31923044999999206,
            "durationTicks": 83,
            "midi": 49,
            "name": "C#3",
            "ticks": 52980,
            "time": 203.76902699999997,
            "velocity": 0.6299212598425197
          },
          {
            "duration": 0.29615354999998544,
            "durationTicks": 77,
            "midi": 65,
            "name": "F4",
            "ticks": 52980,
            "time": 203.76902699999997,
            "velocity": 0.6299212598425197
          },
          {
            "duration": 0.24230744999999843,
            "durationTicks": 63,
            "midi": 56,
            "name": "G#3",
            "ticks": 52980,
            "time": 203.76902699999997,
            "velocity": 0.6299212598425197
          },
          {
            "duration": 0.24615360000001374,
            "durationTicks": 64,
            "midi": 61,
            "name": "C#4",
            "ticks": 52980,
            "time": 203.76902699999997,
            "velocity": 0.6299212598425197
          },
          {
            "duration": 0.33076889999998116,
            "durationTicks": 86,
            "midi": 68,
            "name": "G#4",
            "ticks": 53250,
            "time": 204.80748749999998,
            "velocity": 0.6299212598425197
          },
          {
            "duration": 0.3538457999999878,
            "durationTicks": 92,
            "midi": 53,
            "name": "F3",
            "ticks": 53250,
            "time": 204.80748749999998,
            "velocity": 0.6299212598425197
          },
          {
            "duration": 0.31538429999997675,
            "durationTicks": 82,
            "midi": 60,
            "name": "C4",
            "ticks": 53250,
            "time": 204.80748749999998,
            "velocity": 0.6299212598425197
          },
          {
            "duration": 0.30769200000000296,
            "durationTicks": 80,
            "midi": 65,
            "name": "F4",
            "ticks": 53250,
            "time": 204.80748749999998,
            "velocity": 0.6299212598425197
          },
          {
            "duration": 0.5038456499999882,
            "durationTicks": 131,
            "midi": 53,
            "name": "F3",
            "ticks": 53280,
            "time": 204.92287199999996,
            "velocity": 0.6299212598425197
          },
          {
            "duration": 0.5153841000000057,
            "durationTicks": 134,
            "midi": 68,
            "name": "G#4",
            "ticks": 53280,
            "time": 204.92287199999996,
            "velocity": 0.6299212598425197
          },
          {
            "duration": 0.49999950000000126,
            "durationTicks": 130,
            "midi": 65,
            "name": "F4",
            "ticks": 53280,
            "time": 204.92287199999996,
            "velocity": 0.6299212598425197
          },
          {
            "duration": 0.49999950000000126,
            "durationTicks": 130,
            "midi": 60,
            "name": "C4",
            "ticks": 53280,
            "time": 204.92287199999996,
            "velocity": 0.6299212598425197
          },
          {
            "duration": 0.3692303999999922,
            "durationTicks": 96,
            "midi": 51,
            "name": "D#3",
            "ticks": 53760,
            "time": 206.76902399999997,
            "velocity": 0.6299212598425197
          },
          {
            "duration": 0.2653843499999766,
            "durationTicks": 69,
            "midi": 63,
            "name": "D#4",
            "ticks": 53760,
            "time": 206.76902399999997,
            "velocity": 0.6299212598425197
          },
          {
            "duration": 0.27692279999999414,
            "durationTicks": 72,
            "midi": 58,
            "name": "A#3",
            "ticks": 53760,
            "time": 206.76902399999997,
            "velocity": 0.6299212598425197
          },
          {
            "duration": 0.2730766499999788,
            "durationTicks": 71,
            "midi": 67,
            "name": "G4",
            "ticks": 53760,
            "time": 206.76902399999997,
            "velocity": 0.6299212598425197
          },
          {
            "duration": 0.35769194999997467,
            "durationTicks": 93,
            "midi": 49,
            "name": "C#3",
            "ticks": 53910,
            "time": 207.34594649999997,
            "velocity": 0.6299212598425197
          },
          {
            "duration": 0.3346150499999965,
            "durationTicks": 87,
            "midi": 65,
            "name": "F4",
            "ticks": 53910,
            "time": 207.34594649999997,
            "velocity": 0.6299212598425197
          },
          {
            "duration": 0.28846124999998324,
            "durationTicks": 75,
            "midi": 56,
            "name": "G#3",
            "ticks": 53940,
            "time": 207.46133099999997,
            "velocity": 0.6299212598425197
          },
          {
            "duration": 0.29615354999998544,
            "durationTicks": 77,
            "midi": 61,
            "name": "C#4",
            "ticks": 53940,
            "time": 207.46133099999997,
            "velocity": 0.6299212598425197
          },
          {
            "duration": 0.44999955000002956,
            "durationTicks": 117,
            "midi": 53,
            "name": "F3",
            "ticks": 54210,
            "time": 208.49979149999996,
            "velocity": 0.6299212598425197
          },
          {
            "duration": 0.4230765000000076,
            "durationTicks": 110,
            "midi": 68,
            "name": "G#4",
            "ticks": 54240,
            "time": 208.61517599999996,
            "velocity": 0.6299212598425197
          },
          {
            "duration": 0.3923073000000272,
            "durationTicks": 102,
            "midi": 65,
            "name": "F4",
            "ticks": 54240,
            "time": 208.61517599999996,
            "velocity": 0.6299212598425197
          },
          {
            "duration": 0.3961534500000141,
            "durationTicks": 103,
            "midi": 60,
            "name": "C4",
            "ticks": 54240,
            "time": 208.61517599999996,
            "velocity": 0.6299212598425197
          },
          {
            "duration": 0.3192304500000205,
            "durationTicks": 83,
            "midi": 51,
            "name": "D#3",
            "ticks": 54720,
            "time": 210.46132799999995,
            "velocity": 0.6299212598425197
          },
          {
            "duration": 0.21538440000000492,
            "durationTicks": 56,
            "midi": 67,
            "name": "G4",
            "ticks": 54720,
            "time": 210.46132799999995,
            "velocity": 0.6299212598425197
          },
          {
            "duration": 0.21153825000001802,
            "durationTicks": 55,
            "midi": 63,
            "name": "D#4",
            "ticks": 54720,
            "time": 210.46132799999995,
            "velocity": 0.6299212598425197
          },
          {
            "duration": 0.20384595000001582,
            "durationTicks": 53,
            "midi": 58,
            "name": "A#3",
            "ticks": 54720,
            "time": 210.46132799999995,
            "velocity": 0.6299212598425197
          },
          {
            "duration": 0.31923044999999206,
            "durationTicks": 83,
            "midi": 49,
            "name": "C#3",
            "ticks": 54900,
            "time": 211.15363499999998,
            "velocity": 0.6299212598425197
          },
          {
            "duration": 0.29615354999998544,
            "durationTicks": 77,
            "midi": 65,
            "name": "F4",
            "ticks": 54900,
            "time": 211.15363499999998,
            "velocity": 0.6299212598425197
          },
          {
            "duration": 0.24230744999997,
            "durationTicks": 63,
            "midi": 56,
            "name": "G#3",
            "ticks": 54900,
            "time": 211.15363499999998,
            "velocity": 0.6299212598425197
          },
          {
            "duration": 0.24615359999998532,
            "durationTicks": 64,
            "midi": 61,
            "name": "C#4",
            "ticks": 54900,
            "time": 211.15363499999998,
            "velocity": 0.6299212598425197
          },
          {
            "duration": 0.6461531999999863,
            "durationTicks": 168,
            "midi": 68,
            "name": "G#4",
            "ticks": 55200,
            "time": 212.30747999999997,
            "velocity": 0.6299212598425197
          },
          {
            "duration": 0.6576916500000038,
            "durationTicks": 171,
            "midi": 53,
            "name": "F3",
            "ticks": 55200,
            "time": 212.30747999999997,
            "velocity": 0.6299212598425197
          },
          {
            "duration": 0.6346147499999972,
            "durationTicks": 165,
            "midi": 65,
            "name": "F4",
            "ticks": 55200,
            "time": 212.30747999999997,
            "velocity": 0.6299212598425197
          },
          {
            "duration": 0.6230763000000081,
            "durationTicks": 162,
            "midi": 60,
            "name": "C4",
            "ticks": 55200,
            "time": 212.30747999999997,
            "velocity": 0.6299212598425197
          },
          {
            "duration": 0.31923044999999206,
            "durationTicks": 83,
            "midi": 49,
            "name": "C#3",
            "ticks": 55680,
            "time": 214.15363199999996,
            "velocity": 0.6299212598425197
          },
          {
            "duration": 0.26923049999999193,
            "durationTicks": 70,
            "midi": 65,
            "name": "F4",
            "ticks": 55680,
            "time": 214.15363199999996,
            "velocity": 0.6299212598425197
          },
          {
            "duration": 0.27307665000000725,
            "durationTicks": 71,
            "midi": 61,
            "name": "C#4",
            "ticks": 55680,
            "time": 214.15363199999996,
            "velocity": 0.6299212598425197
          },
          {
            "duration": 0.30384585000001607,
            "durationTicks": 79,
            "midi": 68,
            "name": "G#4",
            "ticks": 55680,
            "time": 214.15363199999996,
            "velocity": 0.6299212598425197
          },
          {
            "duration": 0.346153500000014,
            "durationTicks": 90,
            "midi": 51,
            "name": "D#3",
            "ticks": 55890,
            "time": 214.96132349999996,
            "velocity": 0.6299212598425197
          },
          {
            "duration": 0.3346150500000249,
            "durationTicks": 87,
            "midi": 67,
            "name": "G4",
            "ticks": 55890,
            "time": 214.96132349999996,
            "velocity": 0.6299212598425197
          },
          {
            "duration": 0.29999970000000076,
            "durationTicks": 78,
            "midi": 63,
            "name": "D#4",
            "ticks": 55890,
            "time": 214.96132349999996,
            "velocity": 0.6299212598425197
          },
          {
            "duration": 0.28846124999998324,
            "durationTicks": 75,
            "midi": 58,
            "name": "A#3",
            "ticks": 55920,
            "time": 215.07670799999997,
            "velocity": 0.6299212598425197
          },
          {
            "duration": 0.4346149499999967,
            "durationTicks": 113,
            "midi": 53,
            "name": "F3",
            "ticks": 56160,
            "time": 215.99978399999998,
            "velocity": 0.6299212598425197
          },
          {
            "duration": 0.4307687999999814,
            "durationTicks": 112,
            "midi": 68,
            "name": "G#4",
            "ticks": 56160,
            "time": 215.99978399999998,
            "velocity": 0.6299212598425197
          },
          {
            "duration": 0.4038457499999879,
            "durationTicks": 105,
            "midi": 65,
            "name": "F4",
            "ticks": 56160,
            "time": 215.99978399999998,
            "velocity": 0.6299212598425197
          },
          {
            "duration": 0.3807688499999813,
            "durationTicks": 99,
            "midi": 60,
            "name": "C4",
            "ticks": 56160,
            "time": 215.99978399999998,
            "velocity": 0.6299212598425197
          },
          {
            "duration": 0.3653842500000053,
            "durationTicks": 95,
            "midi": 49,
            "name": "C#3",
            "ticks": 56640,
            "time": 217.84593599999997,
            "velocity": 0.6299212598425197
          },
          {
            "duration": 0.30769200000000296,
            "durationTicks": 80,
            "midi": 61,
            "name": "C#4",
            "ticks": 56640,
            "time": 217.84593599999997,
            "velocity": 0.6299212598425197
          },
          {
            "duration": 0.29999970000000076,
            "durationTicks": 78,
            "midi": 65,
            "name": "F4",
            "ticks": 56640,
            "time": 217.84593599999997,
            "velocity": 0.6299212598425197
          },
          {
            "duration": 0.3346150499999965,
            "durationTicks": 87,
            "midi": 68,
            "name": "G#4",
            "ticks": 56640,
            "time": 217.84593599999997,
            "velocity": 0.6299212598425197
          },
          {
            "duration": 0.399999600000001,
            "durationTicks": 104,
            "midi": 51,
            "name": "D#3",
            "ticks": 56850,
            "time": 218.65362749999997,
            "velocity": 0.6299212598425197
          },
          {
            "duration": 0.3692303999999922,
            "durationTicks": 96,
            "midi": 67,
            "name": "G4",
            "ticks": 56850,
            "time": 218.65362749999997,
            "velocity": 0.6299212598425197
          },
          {
            "duration": 0.33846119999998336,
            "durationTicks": 88,
            "midi": 63,
            "name": "D#4",
            "ticks": 56880,
            "time": 218.76901199999998,
            "velocity": 0.6299212598425197
          },
          {
            "duration": 0.3346150499999965,
            "durationTicks": 87,
            "midi": 58,
            "name": "A#3",
            "ticks": 56880,
            "time": 218.76901199999998,
            "velocity": 0.6299212598425197
          },
          {
            "duration": 0.5269225499999948,
            "durationTicks": 137,
            "midi": 53,
            "name": "F3",
            "ticks": 57120,
            "time": 219.69208799999996,
            "velocity": 0.6299212598425197
          },
          {
            "duration": 0.4846149000000253,
            "durationTicks": 126,
            "midi": 68,
            "name": "G#4",
            "ticks": 57120,
            "time": 219.69208799999996,
            "velocity": 0.6299212598425197
          },
          {
            "duration": 0.46923029999999244,
            "durationTicks": 122,
            "midi": 65,
            "name": "F4",
            "ticks": 57120,
            "time": 219.69208799999996,
            "velocity": 0.6299212598425197
          },
          {
            "duration": 0.45384570000001645,
            "durationTicks": 118,
            "midi": 60,
            "name": "C4",
            "ticks": 57120,
            "time": 219.69208799999996,
            "velocity": 0.6299212598425197
          },
          {
            "duration": 0.32692274999999427,
            "durationTicks": 85,
            "midi": 68,
            "name": "G#4",
            "ticks": 57600,
            "time": 221.53823999999997,
            "velocity": 0.6299212598425197
          },
          {
            "duration": 0.29999969999997234,
            "durationTicks": 78,
            "midi": 65,
            "name": "F4",
            "ticks": 57600,
            "time": 221.53823999999997,
            "velocity": 0.6299212598425197
          },
          {
            "duration": 0.30769200000000296,
            "durationTicks": 80,
            "midi": 61,
            "name": "C#4",
            "ticks": 57600,
            "time": 221.53823999999997,
            "velocity": 0.6299212598425197
          },
          {
            "duration": 0.31538430000000517,
            "durationTicks": 82,
            "midi": 49,
            "name": "C#3",
            "ticks": 57600,
            "time": 221.53823999999997,
            "velocity": 0.6299212598425197
          },
          {
            "duration": 0.4038457499999879,
            "durationTicks": 105,
            "midi": 51,
            "name": "D#3",
            "ticks": 57810,
            "time": 222.34593149999998,
            "velocity": 0.6299212598425197
          },
          {
            "duration": 0.3653842500000053,
            "durationTicks": 95,
            "midi": 67,
            "name": "G4",
            "ticks": 57810,
            "time": 222.34593149999998,
            "velocity": 0.6299212598425197
          },
          {
            "duration": 0.31538430000000517,
            "durationTicks": 82,
            "midi": 58,
            "name": "A#3",
            "ticks": 57840,
            "time": 222.46131599999995,
            "velocity": 0.6299212598425197
          },
          {
            "duration": 0.3346150500000249,
            "durationTicks": 87,
            "midi": 63,
            "name": "D#4",
            "ticks": 57840,
            "time": 222.46131599999995,
            "velocity": 0.6299212598425197
          },
          {
            "duration": 0.3423073499999987,
            "durationTicks": 89,
            "midi": 68,
            "name": "G#4",
            "ticks": 58080,
            "time": 223.38439199999996,
            "velocity": 0.6299212598425197
          },
          {
            "duration": 0.3115381500000183,
            "durationTicks": 81,
            "midi": 65,
            "name": "F4",
            "ticks": 58080,
            "time": 223.38439199999996,
            "velocity": 0.6299212598425197
          },
          {
            "duration": 0.29615354999998544,
            "durationTicks": 77,
            "midi": 60,
            "name": "C4",
            "ticks": 58080,
            "time": 223.38439199999996,
            "velocity": 0.6299212598425197
          },
          {
            "duration": 0.32692274999999427,
            "durationTicks": 85,
            "midi": 53,
            "name": "F3",
            "ticks": 58080,
            "time": 223.38439199999996,
            "velocity": 0.6299212598425197
          },
          {
            "duration": 0.25769205000000284,
            "durationTicks": 67,
            "midi": 68,
            "name": "G#4",
            "ticks": 58530,
            "time": 225.11515949999998,
            "velocity": 0.6299212598425197
          },
          {
            "duration": 0.22692285000002244,
            "durationTicks": 59,
            "midi": 65,
            "name": "F4",
            "ticks": 58560,
            "time": 225.23054399999995,
            "velocity": 0.6299212598425197
          },
          {
            "duration": 0.28461510000002477,
            "durationTicks": 74,
            "midi": 49,
            "name": "C#3",
            "ticks": 58560,
            "time": 225.23054399999995,
            "velocity": 0.6299212598425197
          },
          {
            "duration": 0.23076900000000933,
            "durationTicks": 60,
            "midi": 61,
            "name": "C#4",
            "ticks": 58560,
            "time": 225.23054399999995,
            "velocity": 0.6299212598425197
          },
          {
            "duration": 0.934614449999998,
            "durationTicks": 243,
            "midi": 51,
            "name": "D#3",
            "ticks": 58770,
            "time": 226.03823549999996,
            "velocity": 0.6299212598425197
          },
          {
            "duration": 0.9076914000000045,
            "durationTicks": 236,
            "midi": 58,
            "name": "A#3",
            "ticks": 58770,
            "time": 226.03823549999996,
            "velocity": 0.6299212598425197
          },
          {
            "duration": 0.9115375500000198,
            "durationTicks": 237,
            "midi": 67,
            "name": "G4",
            "ticks": 58770,
            "time": 226.03823549999996,
            "velocity": 0.6299212598425197
          },
          {
            "duration": 0.9076914000000045,
            "durationTicks": 236,
            "midi": 63,
            "name": "D#4",
            "ticks": 58770,
            "time": 226.03823549999996,
            "velocity": 0.6299212598425197
          },
          {
            "duration": 0.5038456499999882,
            "durationTicks": 131,
            "midi": 53,
            "name": "F3",
            "ticks": 60000,
            "time": 230.76899999999998,
            "velocity": 0.6299212598425197
          },
          {
            "duration": 0.5153840999999773,
            "durationTicks": 134,
            "midi": 68,
            "name": "G#4",
            "ticks": 60000,
            "time": 230.76899999999998,
            "velocity": 0.6299212598425197
          },
          {
            "duration": 0.49999949999997284,
            "durationTicks": 130,
            "midi": 65,
            "name": "F4",
            "ticks": 60000,
            "time": 230.76899999999998,
            "velocity": 0.6299212598425197
          },
          {
            "duration": 0.49999949999997284,
            "durationTicks": 130,
            "midi": 60,
            "name": "C4",
            "ticks": 60000,
            "time": 230.76899999999998,
            "velocity": 0.6299212598425197
          },
          {
            "duration": 0.3692303999999922,
            "durationTicks": 96,
            "midi": 51,
            "name": "D#3",
            "ticks": 60480,
            "time": 232.61515199999997,
            "velocity": 0.6299212598425197
          },
          {
            "duration": 0.26538435000000504,
            "durationTicks": 69,
            "midi": 63,
            "name": "D#4",
            "ticks": 60480,
            "time": 232.61515199999997,
            "velocity": 0.6299212598425197
          },
          {
            "duration": 0.27692279999999414,
            "durationTicks": 72,
            "midi": 58,
            "name": "A#3",
            "ticks": 60480,
            "time": 232.61515199999997,
            "velocity": 0.6299212598425197
          },
          {
            "duration": 0.2730766499999788,
            "durationTicks": 71,
            "midi": 67,
            "name": "G4",
            "ticks": 60480,
            "time": 232.61515199999997,
            "velocity": 0.6299212598425197
          },
          {
            "duration": 0.3576919500000031,
            "durationTicks": 93,
            "midi": 49,
            "name": "C#3",
            "ticks": 60630,
            "time": 233.19207449999996,
            "velocity": 0.6299212598425197
          },
          {
            "duration": 0.3346150500000249,
            "durationTicks": 87,
            "midi": 65,
            "name": "F4",
            "ticks": 60630,
            "time": 233.19207449999996,
            "velocity": 0.6299212598425197
          },
          {
            "duration": 0.28846124999998324,
            "durationTicks": 75,
            "midi": 56,
            "name": "G#3",
            "ticks": 60660,
            "time": 233.30745899999997,
            "velocity": 0.6299212598425197
          },
          {
            "duration": 0.29615354999998544,
            "durationTicks": 77,
            "midi": 61,
            "name": "C#4",
            "ticks": 60660,
            "time": 233.30745899999997,
            "velocity": 0.6299212598425197
          },
          {
            "duration": 0.44999955000002956,
            "durationTicks": 117,
            "midi": 53,
            "name": "F3",
            "ticks": 60930,
            "time": 234.34591949999995,
            "velocity": 0.6299212598425197
          },
          {
            "duration": 0.4230765000000076,
            "durationTicks": 110,
            "midi": 68,
            "name": "G#4",
            "ticks": 60960,
            "time": 234.46130399999996,
            "velocity": 0.6299212598425197
          },
          {
            "duration": 0.3923073000000272,
            "durationTicks": 102,
            "midi": 65,
            "name": "F4",
            "ticks": 60960,
            "time": 234.46130399999996,
            "velocity": 0.6299212598425197
          },
          {
            "duration": 0.3961534500000141,
            "durationTicks": 103,
            "midi": 60,
            "name": "C4",
            "ticks": 60960,
            "time": 234.46130399999996,
            "velocity": 0.6299212598425197
          },
          {
            "duration": 0.31923044999999206,
            "durationTicks": 83,
            "midi": 51,
            "name": "D#3",
            "ticks": 61440,
            "time": 236.30745599999997,
            "velocity": 0.6299212598425197
          },
          {
            "duration": 0.2153843999999765,
            "durationTicks": 56,
            "midi": 67,
            "name": "G4",
            "ticks": 61440,
            "time": 236.30745599999997,
            "velocity": 0.6299212598425197
          },
          {
            "duration": 0.2115382499999896,
            "durationTicks": 55,
            "midi": 63,
            "name": "D#4",
            "ticks": 61440,
            "time": 236.30745599999997,
            "velocity": 0.6299212598425197
          },
          {
            "duration": 0.2038459499999874,
            "durationTicks": 53,
            "midi": 58,
            "name": "A#3",
            "ticks": 61440,
            "time": 236.30745599999997,
            "velocity": 0.6299212598425197
          },
          {
            "duration": 0.31923044999999206,
            "durationTicks": 83,
            "midi": 49,
            "name": "C#3",
            "ticks": 61620,
            "time": 236.99976299999997,
            "velocity": 0.6299212598425197
          },
          {
            "duration": 0.29615354999998544,
            "durationTicks": 77,
            "midi": 65,
            "name": "F4",
            "ticks": 61620,
            "time": 236.99976299999997,
            "velocity": 0.6299212598425197
          },
          {
            "duration": 0.24230744999997,
            "durationTicks": 63,
            "midi": 56,
            "name": "G#3",
            "ticks": 61620,
            "time": 236.99976299999997,
            "velocity": 0.6299212598425197
          },
          {
            "duration": 0.24615360000001374,
            "durationTicks": 64,
            "midi": 61,
            "name": "C#4",
            "ticks": 61620,
            "time": 236.99976299999997,
            "velocity": 0.6299212598425197
          },
          {
            "duration": 0.3307689000000096,
            "durationTicks": 86,
            "midi": 68,
            "name": "G#4",
            "ticks": 61890,
            "time": 238.03822349999996,
            "velocity": 0.6299212598425197
          },
          {
            "duration": 0.3538457999999878,
            "durationTicks": 92,
            "midi": 53,
            "name": "F3",
            "ticks": 61890,
            "time": 238.03822349999996,
            "velocity": 0.6299212598425197
          },
          {
            "duration": 0.31538429999997675,
            "durationTicks": 82,
            "midi": 60,
            "name": "C4",
            "ticks": 61890,
            "time": 238.03822349999996,
            "velocity": 0.6299212598425197
          },
          {
            "duration": 0.30769199999997454,
            "durationTicks": 80,
            "midi": 65,
            "name": "F4",
            "ticks": 61890,
            "time": 238.03822349999996,
            "velocity": 0.6299212598425197
          },
          {
            "duration": 0.5038456500000166,
            "durationTicks": 131,
            "midi": 53,
            "name": "F3",
            "ticks": 61920,
            "time": 238.15360799999996,
            "velocity": 0.6299212598425197
          },
          {
            "duration": 0.5153841000000057,
            "durationTicks": 134,
            "midi": 68,
            "name": "G#4",
            "ticks": 61920,
            "time": 238.15360799999996,
            "velocity": 0.6299212598425197
          },
          {
            "duration": 0.4999995000000297,
            "durationTicks": 130,
            "midi": 65,
            "name": "F4",
            "ticks": 61920,
            "time": 238.15360799999996,
            "velocity": 0.6299212598425197
          },
          {
            "duration": 0.4999995000000297,
            "durationTicks": 130,
            "midi": 60,
            "name": "C4",
            "ticks": 61920,
            "time": 238.15360799999996,
            "velocity": 0.6299212598425197
          },
          {
            "duration": 0.3692303999999922,
            "durationTicks": 96,
            "midi": 51,
            "name": "D#3",
            "ticks": 62400,
            "time": 239.99975999999995,
            "velocity": 0.6299212598425197
          },
          {
            "duration": 0.26538435000003346,
            "durationTicks": 69,
            "midi": 63,
            "name": "D#4",
            "ticks": 62400,
            "time": 239.99975999999995,
            "velocity": 0.6299212598425197
          },
          {
            "duration": 0.27692280000002256,
            "durationTicks": 72,
            "midi": 58,
            "name": "A#3",
            "ticks": 62400,
            "time": 239.99975999999995,
            "velocity": 0.6299212598425197
          },
          {
            "duration": 0.27307665000003567,
            "durationTicks": 71,
            "midi": 67,
            "name": "G4",
            "ticks": 62400,
            "time": 239.99975999999995,
            "velocity": 0.6299212598425197
          },
          {
            "duration": 0.35769194999997467,
            "durationTicks": 93,
            "midi": 49,
            "name": "C#3",
            "ticks": 62550,
            "time": 240.57668249999998,
            "velocity": 0.6299212598425197
          },
          {
            "duration": 0.3346150499999965,
            "durationTicks": 87,
            "midi": 65,
            "name": "F4",
            "ticks": 62550,
            "time": 240.57668249999998,
            "velocity": 0.6299212598425197
          },
          {
            "duration": 0.28846125000001166,
            "durationTicks": 75,
            "midi": 56,
            "name": "G#3",
            "ticks": 62580,
            "time": 240.69206699999995,
            "velocity": 0.6299212598425197
          },
          {
            "duration": 0.29615355000001387,
            "durationTicks": 77,
            "midi": 61,
            "name": "C#4",
            "ticks": 62580,
            "time": 240.69206699999995,
            "velocity": 0.6299212598425197
          },
          {
            "duration": 0.44999955000000114,
            "durationTicks": 117,
            "midi": 53,
            "name": "F3",
            "ticks": 62850,
            "time": 241.73052749999997,
            "velocity": 0.6299212598425197
          },
          {
            "duration": 0.4230764999999792,
            "durationTicks": 110,
            "midi": 68,
            "name": "G#4",
            "ticks": 62880,
            "time": 241.84591199999997,
            "velocity": 0.6299212598425197
          },
          {
            "duration": 0.3923072999999988,
            "durationTicks": 102,
            "midi": 65,
            "name": "F4",
            "ticks": 62880,
            "time": 241.84591199999997,
            "velocity": 0.6299212598425197
          },
          {
            "duration": 0.3961534499999857,
            "durationTicks": 103,
            "midi": 60,
            "name": "C4",
            "ticks": 62880,
            "time": 241.84591199999997,
            "velocity": 0.6299212598425197
          },
          {
            "duration": 0.3192304500000205,
            "durationTicks": 83,
            "midi": 51,
            "name": "D#3",
            "ticks": 63360,
            "time": 243.69206399999996,
            "velocity": 0.6299212598425197
          },
          {
            "duration": 0.21538440000000492,
            "durationTicks": 56,
            "midi": 67,
            "name": "G4",
            "ticks": 63360,
            "time": 243.69206399999996,
            "velocity": 0.6299212598425197
          },
          {
            "duration": 0.21153825000001802,
            "durationTicks": 55,
            "midi": 63,
            "name": "D#4",
            "ticks": 63360,
            "time": 243.69206399999996,
            "velocity": 0.6299212598425197
          },
          {
            "duration": 0.20384595000001582,
            "durationTicks": 53,
            "midi": 58,
            "name": "A#3",
            "ticks": 63360,
            "time": 243.69206399999996,
            "velocity": 0.6299212598425197
          },
          {
            "duration": 0.3192304500000205,
            "durationTicks": 83,
            "midi": 49,
            "name": "C#3",
            "ticks": 63540,
            "time": 244.38437099999996,
            "velocity": 0.6299212598425197
          },
          {
            "duration": 0.29615354999998544,
            "durationTicks": 77,
            "midi": 65,
            "name": "F4",
            "ticks": 63540,
            "time": 244.38437099999996,
            "velocity": 0.6299212598425197
          },
          {
            "duration": 0.24230744999999843,
            "durationTicks": 63,
            "midi": 56,
            "name": "G#3",
            "ticks": 63540,
            "time": 244.38437099999996,
            "velocity": 0.6299212598425197
          },
          {
            "duration": 0.24615359999998532,
            "durationTicks": 64,
            "midi": 61,
            "name": "C#4",
            "ticks": 63540,
            "time": 244.38437099999996,
            "velocity": 0.6299212598425197
          },
          {
            "duration": 0.6461532000000147,
            "durationTicks": 168,
            "midi": 68,
            "name": "G#4",
            "ticks": 63840,
            "time": 245.53821599999995,
            "velocity": 0.6299212598425197
          },
          {
            "duration": 0.6576916500000038,
            "durationTicks": 171,
            "midi": 53,
            "name": "F3",
            "ticks": 63840,
            "time": 245.53821599999995,
            "velocity": 0.6299212598425197
          },
          {
            "duration": 0.6346147500000257,
            "durationTicks": 165,
            "midi": 65,
            "name": "F4",
            "ticks": 63840,
            "time": 245.53821599999995,
            "velocity": 0.6299212598425197
          },
          {
            "duration": 0.6230763000000366,
            "durationTicks": 162,
            "midi": 60,
            "name": "C4",
            "ticks": 63840,
            "time": 245.53821599999995,
            "velocity": 0.6299212598425197
          },
          {
            "duration": 0.3192304500000205,
            "durationTicks": 83,
            "midi": 49,
            "name": "C#3",
            "ticks": 64320,
            "time": 247.38436799999997,
            "velocity": 0.6299212598425197
          },
          {
            "duration": 0.26923050000002036,
            "durationTicks": 70,
            "midi": 65,
            "name": "F4",
            "ticks": 64320,
            "time": 247.38436799999997,
            "velocity": 0.6299212598425197
          },
          {
            "duration": 0.27307665000000725,
            "durationTicks": 71,
            "midi": 61,
            "name": "C#4",
            "ticks": 64320,
            "time": 247.38436799999997,
            "velocity": 0.6299212598425197
          },
          {
            "duration": 0.30384584999998765,
            "durationTicks": 79,
            "midi": 68,
            "name": "G#4",
            "ticks": 64320,
            "time": 247.38436799999997,
            "velocity": 0.6299212598425197
          },
          {
            "duration": 0.34615349999998557,
            "durationTicks": 90,
            "midi": 51,
            "name": "D#3",
            "ticks": 64530,
            "time": 248.19205949999997,
            "velocity": 0.6299212598425197
          },
          {
            "duration": 0.3346150499999965,
            "durationTicks": 87,
            "midi": 67,
            "name": "G4",
            "ticks": 64530,
            "time": 248.19205949999997,
            "velocity": 0.6299212598425197
          },
          {
            "duration": 0.29999969999997234,
            "durationTicks": 78,
            "midi": 63,
            "name": "D#4",
            "ticks": 64530,
            "time": 248.19205949999997,
            "velocity": 0.6299212598425197
          },
          {
            "duration": 0.28846124999998324,
            "durationTicks": 75,
            "midi": 58,
            "name": "A#3",
            "ticks": 64560,
            "time": 248.30744399999998,
            "velocity": 0.6299212598425197
          },
          {
            "duration": 0.43461495000002515,
            "durationTicks": 113,
            "midi": 53,
            "name": "F3",
            "ticks": 64800,
            "time": 249.23051999999996,
            "velocity": 0.6299212598425197
          },
          {
            "duration": 0.4307687999999814,
            "durationTicks": 112,
            "midi": 68,
            "name": "G#4",
            "ticks": 64800,
            "time": 249.23051999999996,
            "velocity": 0.6299212598425197
          },
          {
            "duration": 0.4038457500000163,
            "durationTicks": 105,
            "midi": 65,
            "name": "F4",
            "ticks": 64800,
            "time": 249.23051999999996,
            "velocity": 0.6299212598425197
          },
          {
            "duration": 0.38076885000003813,
            "durationTicks": 99,
            "midi": 60,
            "name": "C4",
            "ticks": 64800,
            "time": 249.23051999999996,
            "velocity": 0.6299212598425197
          },
          {
            "duration": 0.3653842499999769,
            "durationTicks": 95,
            "midi": 49,
            "name": "C#3",
            "ticks": 65280,
            "time": 251.07667199999997,
            "velocity": 0.6299212598425197
          },
          {
            "duration": 0.30769199999997454,
            "durationTicks": 80,
            "midi": 61,
            "name": "C#4",
            "ticks": 65280,
            "time": 251.07667199999997,
            "velocity": 0.6299212598425197
          },
          {
            "duration": 0.29999969999997234,
            "durationTicks": 78,
            "midi": 65,
            "name": "F4",
            "ticks": 65280,
            "time": 251.07667199999997,
            "velocity": 0.6299212598425197
          },
          {
            "duration": 0.3346150499999965,
            "durationTicks": 87,
            "midi": 68,
            "name": "G#4",
            "ticks": 65280,
            "time": 251.07667199999997,
            "velocity": 0.6299212598425197
          },
          {
            "duration": 0.39999960000002943,
            "durationTicks": 104,
            "midi": 51,
            "name": "D#3",
            "ticks": 65490,
            "time": 251.88436349999995,
            "velocity": 0.6299212598425197
          },
          {
            "duration": 0.3692303999999922,
            "durationTicks": 96,
            "midi": 67,
            "name": "G4",
            "ticks": 65490,
            "time": 251.88436349999995,
            "velocity": 0.6299212598425197
          },
          {
            "duration": 0.3384612000000118,
            "durationTicks": 88,
            "midi": 63,
            "name": "D#4",
            "ticks": 65520,
            "time": 251.99974799999995,
            "velocity": 0.6299212598425197
          },
          {
            "duration": 0.3346150500000249,
            "durationTicks": 87,
            "midi": 58,
            "name": "A#3",
            "ticks": 65520,
            "time": 251.99974799999995,
            "velocity": 0.6299212598425197
          },
          {
            "duration": 0.5269225499999948,
            "durationTicks": 137,
            "midi": 53,
            "name": "F3",
            "ticks": 65760,
            "time": 252.92282399999996,
            "velocity": 0.6299212598425197
          },
          {
            "duration": 0.48461489999996843,
            "durationTicks": 126,
            "midi": 68,
            "name": "G#4",
            "ticks": 65760,
            "time": 252.92282399999996,
            "velocity": 0.6299212598425197
          },
          {
            "duration": 0.46923029999999244,
            "durationTicks": 122,
            "midi": 65,
            "name": "F4",
            "ticks": 65760,
            "time": 252.92282399999996,
            "velocity": 0.6299212598425197
          },
          {
            "duration": 0.45384570000001645,
            "durationTicks": 118,
            "midi": 60,
            "name": "C4",
            "ticks": 65760,
            "time": 252.92282399999996,
            "velocity": 0.6299212598425197
          },
          {
            "duration": 0.3269227500000227,
            "durationTicks": 85,
            "midi": 68,
            "name": "G#4",
            "ticks": 66240,
            "time": 254.76897599999995,
            "velocity": 0.6299212598425197
          },
          {
            "duration": 0.29999970000000076,
            "durationTicks": 78,
            "midi": 65,
            "name": "F4",
            "ticks": 66240,
            "time": 254.76897599999995,
            "velocity": 0.6299212598425197
          },
          {
            "duration": 0.30769200000000296,
            "durationTicks": 80,
            "midi": 61,
            "name": "C#4",
            "ticks": 66240,
            "time": 254.76897599999995,
            "velocity": 0.6299212598425197
          },
          {
            "duration": 0.31538429999997675,
            "durationTicks": 82,
            "midi": 49,
            "name": "C#3",
            "ticks": 66240,
            "time": 254.76897599999995,
            "velocity": 0.6299212598425197
          },
          {
            "duration": 0.4038457500000163,
            "durationTicks": 105,
            "midi": 51,
            "name": "D#3",
            "ticks": 66450,
            "time": 255.57666749999996,
            "velocity": 0.6299212598425197
          },
          {
            "duration": 0.3653842499999769,
            "durationTicks": 95,
            "midi": 67,
            "name": "G4",
            "ticks": 66450,
            "time": 255.57666749999996,
            "velocity": 0.6299212598425197
          },
          {
            "duration": 0.31538429999997675,
            "durationTicks": 82,
            "midi": 58,
            "name": "A#3",
            "ticks": 66480,
            "time": 255.69205199999996,
            "velocity": 0.6299212598425197
          },
          {
            "duration": 0.3346150499999965,
            "durationTicks": 87,
            "midi": 63,
            "name": "D#4",
            "ticks": 66480,
            "time": 255.69205199999996,
            "velocity": 0.6299212598425197
          },
          {
            "duration": 0.3423073499999987,
            "durationTicks": 89,
            "midi": 68,
            "name": "G#4",
            "ticks": 66720,
            "time": 256.61512799999997,
            "velocity": 0.6299212598425197
          },
          {
            "duration": 0.31153814999998986,
            "durationTicks": 81,
            "midi": 65,
            "name": "F4",
            "ticks": 66720,
            "time": 256.61512799999997,
            "velocity": 0.6299212598425197
          },
          {
            "duration": 0.29615354999998544,
            "durationTicks": 77,
            "midi": 60,
            "name": "C4",
            "ticks": 66720,
            "time": 256.61512799999997,
            "velocity": 0.6299212598425197
          },
          {
            "duration": 0.32692274999999427,
            "durationTicks": 85,
            "midi": 53,
            "name": "F3",
            "ticks": 66720,
            "time": 256.61512799999997,
            "velocity": 0.6299212598425197
          },
          {
            "duration": 0.07307685000000674,
            "durationTicks": 19,
            "midi": 77,
            "name": "F5",
            "ticks": 67200,
            "time": 258.46128,
            "velocity": 0.8267716535433071
          },
          {
            "duration": 0.05384609999998702,
            "durationTicks": 14,
            "midi": 68,
            "name": "G#4",
            "ticks": 67200,
            "time": 258.46128,
            "velocity": 0.8346456692913385
          },
          {
            "duration": 0.06923069999999143,
            "durationTicks": 18,
            "midi": 65,
            "name": "F4",
            "ticks": 67200,
            "time": 258.46128,
            "velocity": 0.7086614173228346
          },
          {
            "duration": 0.03846150000003945,
            "durationTicks": 10,
            "midi": 72,
            "name": "C5",
            "ticks": 67200,
            "time": 258.46128,
            "velocity": 0.9921259842519685
          },
          {
            "duration": 0.061538400000017646,
            "durationTicks": 16,
            "midi": 60,
            "name": "C4",
            "ticks": 67200,
            "time": 258.46128,
            "velocity": 1
          },
          {
            "duration": 0.07692299999996521,
            "durationTicks": 20,
            "midi": 53,
            "name": "F3",
            "ticks": 67200,
            "time": 258.46128,
            "velocity": 0.5984251968503937
          },
          {
            "duration": 0.05769225000000233,
            "durationTicks": 15,
            "midi": 72,
            "name": "C5",
            "ticks": 67260,
            "time": 258.692049,
            "velocity": 0.9921259842519685
          },
          {
            "duration": 0.06923069999999143,
            "durationTicks": 18,
            "midi": 68,
            "name": "G#4",
            "ticks": 67260,
            "time": 258.692049,
            "velocity": 0.8110236220472441
          },
          {
            "duration": 0.0730768499999499,
            "durationTicks": 19,
            "midi": 77,
            "name": "F5",
            "ticks": 67260,
            "time": 258.692049,
            "velocity": 0.7637795275590551
          },
          {
            "duration": 0.08846145000001115,
            "durationTicks": 23,
            "midi": 53,
            "name": "F3",
            "ticks": 67260,
            "time": 258.692049,
            "velocity": 0.6771653543307087
          },
          {
            "duration": 0.0730768499999499,
            "durationTicks": 19,
            "midi": 65,
            "name": "F4",
            "ticks": 67260,
            "time": 258.692049,
            "velocity": 0.7007874015748031
          },
          {
            "duration": 0.05769225000000233,
            "durationTicks": 15,
            "midi": 60,
            "name": "C4",
            "ticks": 67260,
            "time": 258.692049,
            "velocity": 1
          },
          {
            "duration": 0.06538454999997612,
            "durationTicks": 17,
            "midi": 68,
            "name": "G#4",
            "ticks": 67320,
            "time": 258.922818,
            "velocity": 0.8346456692913385
          },
          {
            "duration": 0.049999949999971705,
            "durationTicks": 13,
            "midi": 72,
            "name": "C5",
            "ticks": 67320,
            "time": 258.922818,
            "velocity": 0.968503937007874
          },
          {
            "duration": 0.05384609999998702,
            "durationTicks": 14,
            "midi": 77,
            "name": "F5",
            "ticks": 67320,
            "time": 258.922818,
            "velocity": 0.7716535433070866
          },
          {
            "duration": 0.06923069999999143,
            "durationTicks": 18,
            "midi": 60,
            "name": "C4",
            "ticks": 67320,
            "time": 258.922818,
            "velocity": 1
          },
          {
            "duration": 0.06923069999999143,
            "durationTicks": 18,
            "midi": 65,
            "name": "F4",
            "ticks": 67320,
            "time": 258.922818,
            "velocity": 0.7086614173228346
          },
          {
            "duration": 0.2115382499999896,
            "durationTicks": 55,
            "midi": 53,
            "name": "F3",
            "ticks": 67320,
            "time": 258.922818,
            "velocity": 0.6614173228346457
          },
          {
            "duration": 0.09615374999998494,
            "durationTicks": 25,
            "midi": 68,
            "name": "G#4",
            "ticks": 67350,
            "time": 259.0382025,
            "velocity": 0.7480314960629921
          },
          {
            "duration": 0.09230760000002647,
            "durationTicks": 24,
            "midi": 77,
            "name": "F5",
            "ticks": 67350,
            "time": 259.0382025,
            "velocity": 0.7716535433070866
          },
          {
            "duration": 0.07692299999996521,
            "durationTicks": 20,
            "midi": 72,
            "name": "C5",
            "ticks": 67350,
            "time": 259.0382025,
            "velocity": 0.9921259842519685
          },
          {
            "duration": 0.09230760000002647,
            "durationTicks": 24,
            "midi": 60,
            "name": "C4",
            "ticks": 67350,
            "time": 259.0382025,
            "velocity": 1
          },
          {
            "duration": 0.08076914999998053,
            "durationTicks": 21,
            "midi": 65,
            "name": "F4",
            "ticks": 67350,
            "time": 259.0382025,
            "velocity": 0.4881889763779528
          },
          {
            "duration": 0.10769220000003088,
            "durationTicks": 28,
            "midi": 77,
            "name": "F5",
            "ticks": 67410,
            "time": 259.26897149999996,
            "velocity": 0.8582677165354331
          },
          {
            "duration": 0.088461450000068,
            "durationTicks": 23,
            "midi": 72,
            "name": "C5",
            "ticks": 67410,
            "time": 259.26897149999996,
            "velocity": 1
          },
          {
            "duration": 0.0999999000000571,
            "durationTicks": 26,
            "midi": 68,
            "name": "G#4",
            "ticks": 67410,
            "time": 259.26897149999996,
            "velocity": 0.8661417322834646
          },
          {
            "duration": 0.12307680000003529,
            "durationTicks": 32,
            "midi": 60,
            "name": "C4",
            "ticks": 67410,
            "time": 259.26897149999996,
            "velocity": 1
          },
          {
            "duration": 0.1346152500000244,
            "durationTicks": 35,
            "midi": 53,
            "name": "F3",
            "ticks": 67410,
            "time": 259.26897149999996,
            "velocity": 0.7007874015748031
          },
          {
            "duration": 0.11923065000001998,
            "durationTicks": 31,
            "midi": 65,
            "name": "F4",
            "ticks": 67410,
            "time": 259.26897149999996,
            "velocity": 0.7322834645669292
          }
        ]
      },
      {
        "channel": 14,
        "controlChanges": {
          "7": [
            {
              "number": 7,
              "ticks": 0,
              "time": 0,
              "value": 0.7874015748031497
            }
          ],
          "91": [
            {
              "number": 91,
              "ticks": 480,
              "time": 1.8461519999999998,
              "value": 0.7874015748031497
            }
          ],
          "93": [
            {
              "number": 93,
              "ticks": 480,
              "time": 1.8461519999999998,
              "value": 0.15748031496062992
            }
          ]
        },
        "pitchBends": [],
        "instrument": {
          "family": "guitar",
          "name": "electric guitar (clean)",
          "number": 27
        },
        "name": "Clean",
        "notes": [
          {
            "duration": 0.061538399999989224,
            "durationTicks": 16,
            "midi": 68,
            "name": "G#4",
            "ticks": 39840,
            "time": 153.23061599999997,
            "velocity": 0.7480314960629921
          },
          {
            "duration": 0.07307685000000674,
            "durationTicks": 19,
            "midi": 68,
            "name": "G#4",
            "ticks": 39870,
            "time": 153.34600049999997,
            "velocity": 0.7637795275590551
          },
          {
            "duration": 0.06923069999999143,
            "durationTicks": 18,
            "midi": 68,
            "name": "G#4",
            "ticks": 39900,
            "time": 153.46138499999998,
            "velocity": 0.7637795275590551
          },
          {
            "duration": 0.07692299999999364,
            "durationTicks": 20,
            "midi": 68,
            "name": "G#4",
            "ticks": 39930,
            "time": 153.57676949999998,
            "velocity": 0.7322834645669292
          },
          {
            "duration": 0.07692300000002206,
            "durationTicks": 20,
            "midi": 68,
            "name": "G#4",
            "ticks": 39960,
            "time": 153.69215399999996,
            "velocity": 0.7322834645669292
          },
          {
            "duration": 0.07692300000002206,
            "durationTicks": 20,
            "midi": 68,
            "name": "G#4",
            "ticks": 39990,
            "time": 153.80753849999996,
            "velocity": 0.6456692913385826
          },
          {
            "duration": 0.06923069999999143,
            "durationTicks": 18,
            "midi": 68,
            "name": "G#4",
            "ticks": 40020,
            "time": 153.92292299999997,
            "velocity": 0.7007874015748031
          },
          {
            "duration": 0.07692299999999364,
            "durationTicks": 20,
            "midi": 68,
            "name": "G#4",
            "ticks": 40050,
            "time": 154.03830749999997,
            "velocity": 0.6929133858267716
          },
          {
            "duration": 0.06538454999997612,
            "durationTicks": 17,
            "midi": 68,
            "name": "G#4",
            "ticks": 40080,
            "time": 154.15369199999998,
            "velocity": 0.7244094488188977
          },
          {
            "duration": 0.07307685000000674,
            "durationTicks": 19,
            "midi": 68,
            "name": "G#4",
            "ticks": 40110,
            "time": 154.26907649999998,
            "velocity": 0.6771653543307087
          },
          {
            "duration": 0.06923069999999143,
            "durationTicks": 18,
            "midi": 68,
            "name": "G#4",
            "ticks": 40140,
            "time": 154.38446099999996,
            "velocity": 0.7086614173228346
          },
          {
            "duration": 0.08076915000000895,
            "durationTicks": 21,
            "midi": 68,
            "name": "G#4",
            "ticks": 40170,
            "time": 154.49984549999996,
            "velocity": 0.6771653543307087
          },
          {
            "duration": 0.08076915000000895,
            "durationTicks": 21,
            "midi": 68,
            "name": "G#4",
            "ticks": 40200,
            "time": 154.61522999999997,
            "velocity": 0.7322834645669292
          },
          {
            "duration": 0.08461529999999584,
            "durationTicks": 22,
            "midi": 68,
            "name": "G#4",
            "ticks": 40230,
            "time": 154.73061449999997,
            "velocity": 0.7637795275590551
          },
          {
            "duration": 0.061538399999989224,
            "durationTicks": 16,
            "midi": 68,
            "name": "G#4",
            "ticks": 40260,
            "time": 154.84599899999998,
            "velocity": 0.7480314960629921
          },
          {
            "duration": 0.061538399999989224,
            "durationTicks": 16,
            "midi": 68,
            "name": "G#4",
            "ticks": 40290,
            "time": 154.96138349999998,
            "velocity": 0.7480314960629921
          },
          {
            "duration": 0.061538400000017646,
            "durationTicks": 16,
            "midi": 68,
            "name": "G#4",
            "ticks": 40320,
            "time": 155.07676799999996,
            "velocity": 0.7480314960629921
          },
          {
            "duration": 0.07307685000003517,
            "durationTicks": 19,
            "midi": 68,
            "name": "G#4",
            "ticks": 40350,
            "time": 155.19215249999996,
            "velocity": 0.7637795275590551
          },
          {
            "duration": 0.06923069999999143,
            "durationTicks": 18,
            "midi": 68,
            "name": "G#4",
            "ticks": 40380,
            "time": 155.30753699999997,
            "velocity": 0.7637795275590551
          },
          {
            "duration": 0.07692300000002206,
            "durationTicks": 20,
            "midi": 68,
            "name": "G#4",
            "ticks": 40410,
            "time": 155.42292149999997,
            "velocity": 0.7322834645669292
          },
          {
            "duration": 0.07692299999999364,
            "durationTicks": 20,
            "midi": 68,
            "name": "G#4",
            "ticks": 40440,
            "time": 155.53830599999998,
            "velocity": 0.7322834645669292
          },
          {
            "duration": 0.07692299999999364,
            "durationTicks": 20,
            "midi": 68,
            "name": "G#4",
            "ticks": 40470,
            "time": 155.65369049999998,
            "velocity": 0.6456692913385826
          },
          {
            "duration": 0.06923069999999143,
            "durationTicks": 18,
            "midi": 68,
            "name": "G#4",
            "ticks": 40500,
            "time": 155.76907499999996,
            "velocity": 0.7007874015748031
          },
          {
            "duration": 0.07692300000002206,
            "durationTicks": 20,
            "midi": 68,
            "name": "G#4",
            "ticks": 40530,
            "time": 155.88445949999996,
            "velocity": 0.6929133858267716
          },
          {
            "duration": 0.06538455000000454,
            "durationTicks": 17,
            "midi": 68,
            "name": "G#4",
            "ticks": 40560,
            "time": 155.99984399999997,
            "velocity": 0.7244094488188977
          },
          {
            "duration": 0.07307685000000674,
            "durationTicks": 19,
            "midi": 68,
            "name": "G#4",
            "ticks": 40590,
            "time": 156.11522849999997,
            "velocity": 0.6771653543307087
          },
          {
            "duration": 0.06923069999999143,
            "durationTicks": 18,
            "midi": 68,
            "name": "G#4",
            "ticks": 40620,
            "time": 156.23061299999998,
            "velocity": 0.7086614173228346
          },
          {
            "duration": 0.08076915000000895,
            "durationTicks": 21,
            "midi": 68,
            "name": "G#4",
            "ticks": 40650,
            "time": 156.34599749999998,
            "velocity": 0.6771653543307087
          },
          {
            "duration": 0.08076914999998053,
            "durationTicks": 21,
            "midi": 68,
            "name": "G#4",
            "ticks": 40680,
            "time": 156.461382,
            "velocity": 0.7322834645669292
          },
          {
            "duration": 0.08461530000002426,
            "durationTicks": 22,
            "midi": 68,
            "name": "G#4",
            "ticks": 40710,
            "time": 156.57676649999996,
            "velocity": 0.7637795275590551
          },
          {
            "duration": 0.061538399999989224,
            "durationTicks": 16,
            "midi": 68,
            "name": "G#4",
            "ticks": 40740,
            "time": 156.69215099999997,
            "velocity": 0.7480314960629921
          },
          {
            "duration": 0.061538399999989224,
            "durationTicks": 16,
            "midi": 68,
            "name": "G#4",
            "ticks": 40770,
            "time": 156.80753549999997,
            "velocity": 0.7480314960629921
          },
          {
            "duration": 0.061538399999989224,
            "durationTicks": 16,
            "midi": 68,
            "name": "G#4",
            "ticks": 40800,
            "time": 156.92291999999998,
            "velocity": 0.7480314960629921
          },
          {
            "duration": 0.07307685000000674,
            "durationTicks": 19,
            "midi": 68,
            "name": "G#4",
            "ticks": 40830,
            "time": 157.03830449999998,
            "velocity": 0.7637795275590551
          },
          {
            "duration": 0.06923069999996301,
            "durationTicks": 18,
            "midi": 68,
            "name": "G#4",
            "ticks": 40860,
            "time": 157.15368899999999,
            "velocity": 0.7637795275590551
          },
          {
            "duration": 0.07692300000002206,
            "durationTicks": 20,
            "midi": 68,
            "name": "G#4",
            "ticks": 40890,
            "time": 157.26907349999996,
            "velocity": 0.7322834645669292
          },
          {
            "duration": 0.07692300000002206,
            "durationTicks": 20,
            "midi": 68,
            "name": "G#4",
            "ticks": 40920,
            "time": 157.38445799999997,
            "velocity": 0.7322834645669292
          },
          {
            "duration": 0.07692300000002206,
            "durationTicks": 20,
            "midi": 68,
            "name": "G#4",
            "ticks": 40950,
            "time": 157.49984249999997,
            "velocity": 0.6456692913385826
          },
          {
            "duration": 0.06923069999999143,
            "durationTicks": 18,
            "midi": 68,
            "name": "G#4",
            "ticks": 40980,
            "time": 157.61522699999998,
            "velocity": 0.7007874015748031
          },
          {
            "duration": 0.07692299999999364,
            "durationTicks": 20,
            "midi": 68,
            "name": "G#4",
            "ticks": 41010,
            "time": 157.73061149999998,
            "velocity": 0.6929133858267716
          },
          {
            "duration": 0.06538454999997612,
            "durationTicks": 17,
            "midi": 68,
            "name": "G#4",
            "ticks": 41040,
            "time": 157.84599599999999,
            "velocity": 0.7244094488188977
          },
          {
            "duration": 0.07307685000003517,
            "durationTicks": 19,
            "midi": 68,
            "name": "G#4",
            "ticks": 41070,
            "time": 157.96138049999996,
            "velocity": 0.6771653543307087
          },
          {
            "duration": 0.06923069999999143,
            "durationTicks": 18,
            "midi": 68,
            "name": "G#4",
            "ticks": 41100,
            "time": 158.07676499999997,
            "velocity": 0.7086614173228346
          },
          {
            "duration": 0.08076915000000895,
            "durationTicks": 21,
            "midi": 68,
            "name": "G#4",
            "ticks": 41130,
            "time": 158.19214949999997,
            "velocity": 0.6771653543307087
          },
          {
            "duration": 0.08076915000000895,
            "durationTicks": 21,
            "midi": 68,
            "name": "G#4",
            "ticks": 41160,
            "time": 158.30753399999998,
            "velocity": 0.7322834645669292
          },
          {
            "duration": 0.08461529999999584,
            "durationTicks": 22,
            "midi": 68,
            "name": "G#4",
            "ticks": 41190,
            "time": 158.42291849999998,
            "velocity": 0.7637795275590551
          },
          {
            "duration": 0.061538399999989224,
            "durationTicks": 16,
            "midi": 68,
            "name": "G#4",
            "ticks": 41220,
            "time": 158.53830299999998,
            "velocity": 0.7480314960629921
          },
          {
            "duration": 0.061538400000017646,
            "durationTicks": 16,
            "midi": 68,
            "name": "G#4",
            "ticks": 41250,
            "time": 158.65368749999996,
            "velocity": 0.7480314960629921
          },
          {
            "duration": 0.061538399999989224,
            "durationTicks": 16,
            "midi": 68,
            "name": "G#4",
            "ticks": 41760,
            "time": 160.61522399999998,
            "velocity": 0.7480314960629921
          },
          {
            "duration": 0.07307685000003517,
            "durationTicks": 19,
            "midi": 68,
            "name": "G#4",
            "ticks": 41790,
            "time": 160.73060849999996,
            "velocity": 0.7637795275590551
          },
          {
            "duration": 0.06923069999999143,
            "durationTicks": 18,
            "midi": 68,
            "name": "G#4",
            "ticks": 41820,
            "time": 160.84599299999996,
            "velocity": 0.7637795275590551
          },
          {
            "duration": 0.07692300000002206,
            "durationTicks": 20,
            "midi": 68,
            "name": "G#4",
            "ticks": 41850,
            "time": 160.96137749999997,
            "velocity": 0.7322834645669292
          },
          {
            "duration": 0.07692299999999364,
            "durationTicks": 20,
            "midi": 68,
            "name": "G#4",
            "ticks": 41880,
            "time": 161.07676199999997,
            "velocity": 0.7322834645669292
          },
          {
            "duration": 0.07692299999999364,
            "durationTicks": 20,
            "midi": 68,
            "name": "G#4",
            "ticks": 41910,
            "time": 161.19214649999998,
            "velocity": 0.6456692913385826
          },
          {
            "duration": 0.06923069999999143,
            "durationTicks": 18,
            "midi": 68,
            "name": "G#4",
            "ticks": 41940,
            "time": 161.30753099999998,
            "velocity": 0.7007874015748031
          },
          {
            "duration": 0.07692300000002206,
            "durationTicks": 20,
            "midi": 68,
            "name": "G#4",
            "ticks": 41970,
            "time": 161.42291549999996,
            "velocity": 0.6929133858267716
          },
          {
            "duration": 0.06538455000000454,
            "durationTicks": 17,
            "midi": 68,
            "name": "G#4",
            "ticks": 42000,
            "time": 161.53829999999996,
            "velocity": 0.7244094488188977
          },
          {
            "duration": 0.07307685000000674,
            "durationTicks": 19,
            "midi": 68,
            "name": "G#4",
            "ticks": 42030,
            "time": 161.65368449999997,
            "velocity": 0.6771653543307087
          },
          {
            "duration": 0.06923069999999143,
            "durationTicks": 18,
            "midi": 68,
            "name": "G#4",
            "ticks": 42060,
            "time": 161.76906899999997,
            "velocity": 0.7086614173228346
          },
          {
            "duration": 0.08076915000000895,
            "durationTicks": 21,
            "midi": 68,
            "name": "G#4",
            "ticks": 42090,
            "time": 161.88445349999998,
            "velocity": 0.6771653543307087
          },
          {
            "duration": 0.08076914999998053,
            "durationTicks": 21,
            "midi": 68,
            "name": "G#4",
            "ticks": 42120,
            "time": 161.99983799999998,
            "velocity": 0.7322834645669292
          },
          {
            "duration": 0.08461530000002426,
            "durationTicks": 22,
            "midi": 68,
            "name": "G#4",
            "ticks": 42150,
            "time": 162.11522249999996,
            "velocity": 0.7637795275590551
          },
          {
            "duration": 0.061538400000017646,
            "durationTicks": 16,
            "midi": 68,
            "name": "G#4",
            "ticks": 42180,
            "time": 162.23060699999996,
            "velocity": 0.7480314960629921
          },
          {
            "duration": 0.061538399999989224,
            "durationTicks": 16,
            "midi": 68,
            "name": "G#4",
            "ticks": 42210,
            "time": 162.34599149999997,
            "velocity": 0.7480314960629921
          },
          {
            "duration": 0.061538399999989224,
            "durationTicks": 16,
            "midi": 68,
            "name": "G#4",
            "ticks": 42240,
            "time": 162.46137599999997,
            "velocity": 0.7480314960629921
          },
          {
            "duration": 0.07307685000000674,
            "durationTicks": 19,
            "midi": 68,
            "name": "G#4",
            "ticks": 42270,
            "time": 162.57676049999998,
            "velocity": 0.7637795275590551
          },
          {
            "duration": 0.06923069999999143,
            "durationTicks": 18,
            "midi": 68,
            "name": "G#4",
            "ticks": 42300,
            "time": 162.69214499999998,
            "velocity": 0.7637795275590551
          },
          {
            "duration": 0.07692300000002206,
            "durationTicks": 20,
            "midi": 68,
            "name": "G#4",
            "ticks": 42330,
            "time": 162.80752949999996,
            "velocity": 0.7322834645669292
          },
          {
            "duration": 0.07692300000002206,
            "durationTicks": 20,
            "midi": 68,
            "name": "G#4",
            "ticks": 42360,
            "time": 162.92291399999996,
            "velocity": 0.7322834645669292
          },
          {
            "duration": 0.07692300000002206,
            "durationTicks": 20,
            "midi": 68,
            "name": "G#4",
            "ticks": 42390,
            "time": 163.03829849999997,
            "velocity": 0.6456692913385826
          },
          {
            "duration": 0.06923069999999143,
            "durationTicks": 18,
            "midi": 68,
            "name": "G#4",
            "ticks": 42420,
            "time": 163.15368299999997,
            "velocity": 0.7007874015748031
          },
          {
            "duration": 0.07692299999999364,
            "durationTicks": 20,
            "midi": 68,
            "name": "G#4",
            "ticks": 42450,
            "time": 163.26906749999998,
            "velocity": 0.6929133858267716
          },
          {
            "duration": 0.06538454999997612,
            "durationTicks": 17,
            "midi": 68,
            "name": "G#4",
            "ticks": 42480,
            "time": 163.38445199999998,
            "velocity": 0.7244094488188977
          },
          {
            "duration": 0.07307685000003517,
            "durationTicks": 19,
            "midi": 68,
            "name": "G#4",
            "ticks": 42510,
            "time": 163.49983649999996,
            "velocity": 0.6771653543307087
          },
          {
            "duration": 0.06923069999999143,
            "durationTicks": 18,
            "midi": 68,
            "name": "G#4",
            "ticks": 42540,
            "time": 163.61522099999996,
            "velocity": 0.7086614173228346
          },
          {
            "duration": 0.08076915000000895,
            "durationTicks": 21,
            "midi": 68,
            "name": "G#4",
            "ticks": 42570,
            "time": 163.73060549999997,
            "velocity": 0.6771653543307087
          },
          {
            "duration": 0.08076915000000895,
            "durationTicks": 21,
            "midi": 68,
            "name": "G#4",
            "ticks": 42600,
            "time": 163.84598999999997,
            "velocity": 0.7322834645669292
          },
          {
            "duration": 0.08461529999999584,
            "durationTicks": 22,
            "midi": 68,
            "name": "G#4",
            "ticks": 42630,
            "time": 163.96137449999998,
            "velocity": 0.7637795275590551
          },
          {
            "duration": 0.061538399999989224,
            "durationTicks": 16,
            "midi": 68,
            "name": "G#4",
            "ticks": 42660,
            "time": 164.07675899999998,
            "velocity": 0.7480314960629921
          },
          {
            "duration": 0.061538400000017646,
            "durationTicks": 16,
            "midi": 68,
            "name": "G#4",
            "ticks": 42690,
            "time": 164.19214349999996,
            "velocity": 0.7480314960629921
          },
          {
            "duration": 0.061538400000017646,
            "durationTicks": 16,
            "midi": 68,
            "name": "G#4",
            "ticks": 42720,
            "time": 164.30752799999996,
            "velocity": 0.7480314960629921
          },
          {
            "duration": 0.07307685000000674,
            "durationTicks": 19,
            "midi": 68,
            "name": "G#4",
            "ticks": 42750,
            "time": 164.42291249999997,
            "velocity": 0.7637795275590551
          },
          {
            "duration": 0.06923069999999143,
            "durationTicks": 18,
            "midi": 68,
            "name": "G#4",
            "ticks": 42780,
            "time": 164.53829699999997,
            "velocity": 0.7637795275590551
          },
          {
            "duration": 0.07692299999999364,
            "durationTicks": 20,
            "midi": 68,
            "name": "G#4",
            "ticks": 42810,
            "time": 164.65368149999998,
            "velocity": 0.7322834645669292
          },
          {
            "duration": 0.07692299999999364,
            "durationTicks": 20,
            "midi": 68,
            "name": "G#4",
            "ticks": 42840,
            "time": 164.76906599999998,
            "velocity": 0.7322834645669292
          },
          {
            "duration": 0.07692300000002206,
            "durationTicks": 20,
            "midi": 68,
            "name": "G#4",
            "ticks": 42870,
            "time": 164.88445049999996,
            "velocity": 0.6456692913385826
          },
          {
            "duration": 0.06923069999999143,
            "durationTicks": 18,
            "midi": 68,
            "name": "G#4",
            "ticks": 42900,
            "time": 164.99983499999996,
            "velocity": 0.7007874015748031
          },
          {
            "duration": 0.07692300000002206,
            "durationTicks": 20,
            "midi": 68,
            "name": "G#4",
            "ticks": 42930,
            "time": 165.11521949999997,
            "velocity": 0.6929133858267716
          },
          {
            "duration": 0.06538455000000454,
            "durationTicks": 17,
            "midi": 68,
            "name": "G#4",
            "ticks": 42960,
            "time": 165.23060399999997,
            "velocity": 0.7244094488188977
          },
          {
            "duration": 0.07307685000000674,
            "durationTicks": 19,
            "midi": 68,
            "name": "G#4",
            "ticks": 42990,
            "time": 165.34598849999998,
            "velocity": 0.6771653543307087
          },
          {
            "duration": 0.06923069999999143,
            "durationTicks": 18,
            "midi": 68,
            "name": "G#4",
            "ticks": 43020,
            "time": 165.46137299999998,
            "velocity": 0.7086614173228346
          },
          {
            "duration": 0.08076914999998053,
            "durationTicks": 21,
            "midi": 68,
            "name": "G#4",
            "ticks": 43050,
            "time": 165.57675749999999,
            "velocity": 0.6771653543307087
          },
          {
            "duration": 0.08076915000000895,
            "durationTicks": 21,
            "midi": 68,
            "name": "G#4",
            "ticks": 43080,
            "time": 165.69214199999996,
            "velocity": 0.7322834645669292
          },
          {
            "duration": 0.08461529999999584,
            "durationTicks": 22,
            "midi": 68,
            "name": "G#4",
            "ticks": 43110,
            "time": 165.80752649999997,
            "velocity": 0.7637795275590551
          },
          {
            "duration": 0.061538399999989224,
            "durationTicks": 16,
            "midi": 68,
            "name": "G#4",
            "ticks": 43140,
            "time": 165.92291099999997,
            "velocity": 0.7480314960629921
          },
          {
            "duration": 0.061538399999989224,
            "durationTicks": 16,
            "midi": 68,
            "name": "G#4",
            "ticks": 43170,
            "time": 166.03829549999998,
            "velocity": 0.7480314960629921
          }
        ]
      },
      {
        "channel": 15,
        "controlChanges": {
          "6": [
            {
              "number": 6,
              "ticks": 480,
              "time": 1.8461519999999998,
              "value": 0.3858267716535433
            },
            {
              "number": 6,
              "ticks": 482,
              "time": 1.8538442999999998,
              "value": 0.1889763779527559
            }
          ],
          "7": [
            {
              "number": 7,
              "ticks": 0,
              "time": 0,
              "value": 1
            }
          ],
          "38": [
            {
              "number": 38,
              "ticks": 483,
              "time": 1.8576904499999998,
              "value": 0
            }
          ],
          "91": [
            {
              "number": 91,
              "ticks": 480,
              "time": 1.8461519999999998,
              "value": 0.7086614173228346
            }
          ],
          "93": [
            {
              "number": 93,
              "ticks": 480,
              "time": 1.8461519999999998,
              "value": 0.23622047244094488
            }
          ],
          "100": [
            {
              "number": 100,
              "ticks": 481,
              "time": 1.8499981499999998,
              "value": 0
            }
          ],
          "101": [
            {
              "number": 101,
              "ticks": 480,
              "time": 1.8461519999999998,
              "value": 0
            }
          ]
        },
        "pitchBends": [
          {
            "ticks": 49713,
            "time": 191.20365494999996,
            "value": 0.015869140625
          },
          {
            "ticks": 49738,
            "time": 191.29980869999997,
            "value": 0.03173828125
          },
          {
            "ticks": 49749,
            "time": 191.34211634999997,
            "value": 0.047607421875
          },
          {
            "ticks": 49782,
            "time": 191.4690393,
            "value": 0.0634765625
          },
          {
            "ticks": 49797,
            "time": 191.52673154999997,
            "value": 0.079345703125
          },
          {
            "ticks": 49826,
            "time": 191.63826989999995,
            "value": 0.09521484375
          },
          {
            "ticks": 49878,
            "time": 191.83826969999996,
            "value": 0.111083984375
          },
          {
            "ticks": 49916,
            "time": 191.98442339999997,
            "value": 0.126953125
          },
          {
            "ticks": 49955,
            "time": 192.13442324999997,
            "value": 0.142822265625
          },
          {
            "ticks": 49972,
            "time": 192.19980779999997,
            "value": 0.15869140625
          },
          {
            "ticks": 49995,
            "time": 192.28826924999996,
            "value": 0.174560546875
          },
          {
            "ticks": 50022,
            "time": 192.39211529999997,
            "value": 0.1904296875
          },
          {
            "ticks": 50030,
            "time": 192.42288449999998,
            "value": 0.206298828125
          },
          {
            "ticks": 50058,
            "time": 192.53057669999995,
            "value": 0.22216796875
          },
          {
            "ticks": 50095,
            "time": 192.67288424999995,
            "value": 0.238037109375
          },
          {
            "ticks": 50133,
            "time": 192.81903794999997,
            "value": 0.25390625
          },
          {
            "ticks": 50156,
            "time": 192.90749939999995,
            "value": 0.269775390625
          },
          {
            "ticks": 50166,
            "time": 192.94596089999996,
            "value": 0.28564453125
          },
          {
            "ticks": 50189,
            "time": 193.03442234999997,
            "value": 0.301513671875
          },
          {
            "ticks": 50219,
            "time": 193.14980684999998,
            "value": 0.3173828125
          },
          {
            "ticks": 50239,
            "time": 193.22672984999997,
            "value": 0.333251953125
          },
          {
            "ticks": 50272,
            "time": 193.35365279999996,
            "value": 0.34912109375
          },
          {
            "ticks": 50300,
            "time": 193.46134499999997,
            "value": 0.380859375
          },
          {
            "ticks": 50315,
            "time": 193.51903724999997,
            "value": 0.396728515625
          },
          {
            "ticks": 50337,
            "time": 193.60365255,
            "value": 0.41259765625
          },
          {
            "ticks": 50362,
            "time": 193.69980629999998,
            "value": 0.428466796875
          },
          {
            "ticks": 50398,
            "time": 193.8382677,
            "value": 0.4443359375
          },
          {
            "ticks": 50444,
            "time": 194.01519059999998,
            "value": 0.460205078125
          },
          {
            "ticks": 50473,
            "time": 194.12672894999997,
            "value": 0.47607421875
          },
          {
            "ticks": 50494,
            "time": 194.20749809999998,
            "value": 0.491943359375
          },
          {
            "ticks": 50513,
            "time": 194.28057494999996,
            "value": 0.5078125
          },
          {
            "ticks": 50536,
            "time": 194.36903639999997,
            "value": 0.53955078125
          },
          {
            "ticks": 50561,
            "time": 194.46519014999996,
            "value": 0.555419921875
          },
          {
            "ticks": 50609,
            "time": 194.64980534999998,
            "value": 0.5712890625
          },
          {
            "ticks": 50649,
            "time": 194.80365134999997,
            "value": 0.587158203125
          },
          {
            "ticks": 50661,
            "time": 194.84980514999998,
            "value": 0.60302734375
          },
          {
            "ticks": 50684,
            "time": 194.93826659999996,
            "value": 0.618896484375
          },
          {
            "ticks": 50705,
            "time": 195.01903574999997,
            "value": 0.634765625
          },
          {
            "ticks": 50718,
            "time": 195.06903569999994,
            "value": 0.650634765625
          },
          {
            "ticks": 50753,
            "time": 195.20365094999997,
            "value": 0.66650390625
          },
          {
            "ticks": 50793,
            "time": 195.35749694999996,
            "value": 0.682373046875
          },
          {
            "ticks": 50818,
            "time": 195.45365069999997,
            "value": 0.6982421875
          },
          {
            "ticks": 50836,
            "time": 195.52288139999996,
            "value": 0.714111328125
          },
          {
            "ticks": 50849,
            "time": 195.57288134999996,
            "value": 0.72998046875
          },
          {
            "ticks": 50861,
            "time": 195.61903514999995,
            "value": 0.745849609375
          },
          {
            "ticks": 50884,
            "time": 195.70749659999998,
            "value": 0.76171875
          },
          {
            "ticks": 50895,
            "time": 195.74980424999995,
            "value": 0.777587890625
          },
          {
            "ticks": 50910,
            "time": 195.80749649999996,
            "value": 0.79345703125
          },
          {
            "ticks": 50922,
            "time": 195.85365029999997,
            "value": 0.809326171875
          },
          {
            "ticks": 50937,
            "time": 195.91134254999997,
            "value": 0.8251953125
          },
          {
            "ticks": 50945,
            "time": 195.94211174999998,
            "value": 0.841064453125
          },
          {
            "ticks": 50970,
            "time": 196.03826549999997,
            "value": 0.85693359375
          },
          {
            "ticks": 50999,
            "time": 196.14980384999998,
            "value": 0.872802734375
          },
          {
            "ticks": 51024,
            "time": 196.24595759999997,
            "value": 0.904541015625
          },
          {
            "ticks": 51043,
            "time": 196.31903444999998,
            "value": 0.92041015625
          },
          {
            "ticks": 51050,
            "time": 196.34595749999997,
            "value": 0.936279296875
          },
          {
            "ticks": 51060,
            "time": 196.38441899999998,
            "value": 0.9521484375
          },
          {
            "ticks": 51078,
            "time": 196.45364969999994,
            "value": 0.968017578125
          },
          {
            "ticks": 51085,
            "time": 196.48057274999996,
            "value": 0.999755859375
          },
          {
            "ticks": 51365,
            "time": 197.55749475,
            "value": 0.809326171875
          },
          {
            "ticks": 51367,
            "time": 197.56518704999996,
            "value": 0.238037109375
          },
          {
            "ticks": 51369,
            "time": 197.57287934999997,
            "value": -0.15625
          },
          {
            "ticks": 51371,
            "time": 197.58057164999997,
            "value": -0.421875
          },
          {
            "ticks": 51373,
            "time": 197.58826394999997,
            "value": -0.3125
          },
          {
            "ticks": 51375,
            "time": 197.59595624999997,
            "value": 0
          },
          {
            "ticks": 51377,
            "time": 197.60364854999997,
            "value": 0.206298828125
          },
          {
            "ticks": 51379,
            "time": 197.61134084999998,
            "value": 0.28564453125
          },
          {
            "ticks": 51381,
            "time": 197.61903314999998,
            "value": 0.111083984375
          },
          {
            "ticks": 51383,
            "time": 197.62672544999995,
            "value": 0
          },
          {
            "ticks": 51388,
            "time": 197.64595619999997,
            "value": 0.079345703125
          },
          {
            "ticks": 51390,
            "time": 197.65364849999997,
            "value": 0.015869140625
          },
          {
            "ticks": 51392,
            "time": 197.66134079999995,
            "value": 0
          },
          {
            "ticks": 51394,
            "time": 197.66903309999998,
            "value": 0.015869140625
          },
          {
            "ticks": 51396,
            "time": 197.67672539999998,
            "value": 0
          },
          {
            "ticks": 51657,
            "time": 198.68057054999997,
            "value": 0.888671875
          },
          {
            "ticks": 51659,
            "time": 198.68826284999997,
            "value": 0.809326171875
          },
          {
            "ticks": 51661,
            "time": 198.69595514999997,
            "value": 0.714111328125
          },
          {
            "ticks": 51663,
            "time": 198.70364744999995,
            "value": 0.60302734375
          },
          {
            "ticks": 51666,
            "time": 198.71518589999997,
            "value": 0.47607421875
          },
          {
            "ticks": 51667,
            "time": 198.71903204999998,
            "value": 0.301513671875
          },
          {
            "ticks": 51669,
            "time": 198.72672434999996,
            "value": 0.03173828125
          },
          {
            "ticks": 51672,
            "time": 198.73826279999997,
            "value": 0
          },
          {
            "ticks": 51674,
            "time": 198.74595509999997,
            "value": 0
          },
          {
            "ticks": 51676,
            "time": 198.75364739999998,
            "value": 0.09521484375
          },
          {
            "ticks": 51678,
            "time": 198.76133969999995,
            "value": 0.047607421875
          },
          {
            "ticks": 51680,
            "time": 198.76903199999998,
            "value": 0
          },
          {
            "ticks": 51682,
            "time": 198.77672429999996,
            "value": 0.03173828125
          },
          {
            "ticks": 51684,
            "time": 198.78441659999996,
            "value": 0
          },
          {
            "ticks": 51687,
            "time": 198.79595504999998,
            "value": 0.015869140625
          },
          {
            "ticks": 51689,
            "time": 198.80364734999998,
            "value": 0
          },
          {
            "ticks": 60005,
            "time": 230.78823074999997,
            "value": 0.809326171875
          },
          {
            "ticks": 60007,
            "time": 230.79592304999997,
            "value": 0.238037109375
          },
          {
            "ticks": 60009,
            "time": 230.80361534999994,
            "value": -0.15625
          },
          {
            "ticks": 60011,
            "time": 230.81130764999995,
            "value": -0.421875
          },
          {
            "ticks": 60013,
            "time": 230.81899994999998,
            "value": -0.3125
          },
          {
            "ticks": 60015,
            "time": 230.82669224999995,
            "value": 0
          },
          {
            "ticks": 60017,
            "time": 230.83438454999995,
            "value": 0.206298828125
          },
          {
            "ticks": 60019,
            "time": 230.84207684999998,
            "value": 0.28564453125
          },
          {
            "ticks": 60021,
            "time": 230.84976914999996,
            "value": 0.111083984375
          },
          {
            "ticks": 60023,
            "time": 230.85746144999996,
            "value": 0
          },
          {
            "ticks": 60028,
            "time": 230.87669219999998,
            "value": 0.079345703125
          },
          {
            "ticks": 60030,
            "time": 230.88438449999995,
            "value": 0.015869140625
          },
          {
            "ticks": 60032,
            "time": 230.89207679999996,
            "value": 0
          },
          {
            "ticks": 60034,
            "time": 230.8997691,
            "value": 0.015869140625
          },
          {
            "ticks": 60036,
            "time": 230.90746139999996,
            "value": 0
          },
          {
            "ticks": 60297,
            "time": 231.91130654999998,
            "value": 0.888671875
          },
          {
            "ticks": 60299,
            "time": 231.91899884999998,
            "value": 0.809326171875
          },
          {
            "ticks": 60301,
            "time": 231.92669114999995,
            "value": 0.714111328125
          },
          {
            "ticks": 60303,
            "time": 231.93438344999996,
            "value": 0.60302734375
          },
          {
            "ticks": 60306,
            "time": 231.94592189999997,
            "value": 0.47607421875
          },
          {
            "ticks": 60307,
            "time": 231.94976804999996,
            "value": 0.301513671875
          },
          {
            "ticks": 60309,
            "time": 231.95746034999996,
            "value": 0.03173828125
          },
          {
            "ticks": 60312,
            "time": 231.96899879999998,
            "value": 0
          },
          {
            "ticks": 60314,
            "time": 231.97669109999995,
            "value": 0
          },
          {
            "ticks": 60316,
            "time": 231.98438339999996,
            "value": 0.09521484375
          },
          {
            "ticks": 60318,
            "time": 231.99207569999996,
            "value": 0.047607421875
          },
          {
            "ticks": 60320,
            "time": 231.99976799999996,
            "value": 0
          },
          {
            "ticks": 60322,
            "time": 232.00746029999996,
            "value": 0.03173828125
          },
          {
            "ticks": 60324,
            "time": 232.01515259999996,
            "value": 0
          },
          {
            "ticks": 60327,
            "time": 232.02669104999998,
            "value": 0.015869140625
          },
          {
            "ticks": 60329,
            "time": 232.03438334999996,
            "value": 0
          }
        ],
        "instrument": {
          "family": "synth lead",
          "name": "lead 2 (sawtooth)",
          "number": 81
        },
        "name": "Sawtooth bend",
        "notes": [
          {
            "duration": 7.326915750000012,
            "durationTicks": 1905,
            "midi": 65,
            "name": "F4",
            "ticks": 49440,
            "time": 190.15365599999996,
            "velocity": 0.5433070866141733
          },
          {
            "duration": 7.31922345000001,
            "durationTicks": 1903,
            "midi": 53,
            "name": "F3",
            "ticks": 49440,
            "time": 190.15365599999996,
            "velocity": 0.6062992125984252
          }
        ]
      },
      {
        "channel": 9,
        "controlChanges": {
          "0": [
            {
              "number": 0,
              "ticks": 0,
              "time": 0,
              "value": 0
            }
          ],
          "7": [
            {
              "number": 7,
              "ticks": 0,
              "time": 0,
              "value": 0.9448818897637795
            }
          ],
          "91": [
            {
              "number": 91,
              "ticks": 480,
              "time": 1.8461519999999998,
              "value": 0.23622047244094488
            }
          ]
        },
        "pitchBends": [],
        "instrument": {
          "family": "drums",
          "name": "room kit",
          "number": 8
        },
        "name": "Kick 2",
        "notes": [
          {
            "duration": 0.1153845,
            "durationTicks": 30,
            "midi": 35,
            "name": "B1",
            "ticks": 480,
            "time": 1.8461519999999998,
            "velocity": 1
          },
          {
            "duration": 0.11153835000000001,
            "durationTicks": 29,
            "midi": 35,
            "name": "B1",
            "ticks": 600,
            "time": 2.3076899999999996,
            "velocity": 1
          },
          {
            "duration": 0.11538449999999978,
            "durationTicks": 30,
            "midi": 35,
            "name": "B1",
            "ticks": 720,
            "time": 2.7692279999999996,
            "velocity": 1
          },
          {
            "duration": 0.12307680000000021,
            "durationTicks": 32,
            "midi": 35,
            "name": "B1",
            "ticks": 840,
            "time": 3.2307659999999996,
            "velocity": 1
          },
          {
            "duration": 0.11538449999999978,
            "durationTicks": 30,
            "midi": 35,
            "name": "B1",
            "ticks": 960,
            "time": 3.6923039999999996,
            "velocity": 1
          },
          {
            "duration": 0.11153835000000001,
            "durationTicks": 29,
            "midi": 35,
            "name": "B1",
            "ticks": 1080,
            "time": 4.153841999999999,
            "velocity": 1
          },
          {
            "duration": 0.11538450000000022,
            "durationTicks": 30,
            "midi": 35,
            "name": "B1",
            "ticks": 1200,
            "time": 4.615379999999999,
            "velocity": 1
          },
          {
            "duration": 0.12307680000000065,
            "durationTicks": 32,
            "midi": 35,
            "name": "B1",
            "ticks": 1320,
            "time": 5.076917999999999,
            "velocity": 1
          },
          {
            "duration": 0.11538450000000022,
            "durationTicks": 30,
            "midi": 35,
            "name": "B1",
            "ticks": 1440,
            "time": 5.538455999999999,
            "velocity": 1
          },
          {
            "duration": 0.1115383500000009,
            "durationTicks": 29,
            "midi": 35,
            "name": "B1",
            "ticks": 1560,
            "time": 5.999993999999999,
            "velocity": 1
          },
          {
            "duration": 0.11538450000000022,
            "durationTicks": 30,
            "midi": 35,
            "name": "B1",
            "ticks": 1680,
            "time": 6.461531999999999,
            "velocity": 1
          },
          {
            "duration": 0.12307680000000065,
            "durationTicks": 32,
            "midi": 35,
            "name": "B1",
            "ticks": 1800,
            "time": 6.923069999999999,
            "velocity": 1
          },
          {
            "duration": 0.11538450000000022,
            "durationTicks": 30,
            "midi": 35,
            "name": "B1",
            "ticks": 1920,
            "time": 7.384607999999999,
            "velocity": 1
          },
          {
            "duration": 0.11153835000000001,
            "durationTicks": 29,
            "midi": 35,
            "name": "B1",
            "ticks": 2040,
            "time": 7.846145999999999,
            "velocity": 1
          },
          {
            "duration": 0.11538450000000111,
            "durationTicks": 30,
            "midi": 35,
            "name": "B1",
            "ticks": 2160,
            "time": 8.307683999999998,
            "velocity": 1
          },
          {
            "duration": 0.12307679999999976,
            "durationTicks": 32,
            "midi": 35,
            "name": "B1",
            "ticks": 2280,
            "time": 8.769222,
            "velocity": 1
          },
          {
            "duration": 0.11538450000000111,
            "durationTicks": 30,
            "midi": 35,
            "name": "B1",
            "ticks": 2400,
            "time": 9.230759999999998,
            "velocity": 1
          },
          {
            "duration": 0.11153835000000001,
            "durationTicks": 29,
            "midi": 35,
            "name": "B1",
            "ticks": 2520,
            "time": 9.692298,
            "velocity": 1
          },
          {
            "duration": 0.11538450000000111,
            "durationTicks": 30,
            "midi": 35,
            "name": "B1",
            "ticks": 2640,
            "time": 10.153835999999998,
            "velocity": 1
          },
          {
            "duration": 0.12307679999999976,
            "durationTicks": 32,
            "midi": 35,
            "name": "B1",
            "ticks": 2760,
            "time": 10.615374,
            "velocity": 1
          },
          {
            "duration": 0.11538450000000111,
            "durationTicks": 30,
            "midi": 35,
            "name": "B1",
            "ticks": 2880,
            "time": 11.076911999999998,
            "velocity": 1
          },
          {
            "duration": 0.11153835000000001,
            "durationTicks": 29,
            "midi": 35,
            "name": "B1",
            "ticks": 3000,
            "time": 11.53845,
            "velocity": 1
          },
          {
            "duration": 0.11538450000000111,
            "durationTicks": 30,
            "midi": 35,
            "name": "B1",
            "ticks": 3120,
            "time": 11.999987999999998,
            "velocity": 1
          },
          {
            "duration": 0.12307679999999976,
            "durationTicks": 32,
            "midi": 35,
            "name": "B1",
            "ticks": 3240,
            "time": 12.461526,
            "velocity": 1
          },
          {
            "duration": 0.11538450000000111,
            "durationTicks": 30,
            "midi": 35,
            "name": "B1",
            "ticks": 3360,
            "time": 12.923063999999998,
            "velocity": 1
          },
          {
            "duration": 0.11153835000000001,
            "durationTicks": 29,
            "midi": 35,
            "name": "B1",
            "ticks": 3480,
            "time": 13.384602,
            "velocity": 1
          },
          {
            "duration": 0.11538450000000111,
            "durationTicks": 30,
            "midi": 35,
            "name": "B1",
            "ticks": 3600,
            "time": 13.846139999999998,
            "velocity": 1
          },
          {
            "duration": 0.12307679999999976,
            "durationTicks": 32,
            "midi": 35,
            "name": "B1",
            "ticks": 3720,
            "time": 14.307678,
            "velocity": 1
          },
          {
            "duration": 0.11538449999999933,
            "durationTicks": 30,
            "midi": 35,
            "name": "B1",
            "ticks": 3840,
            "time": 14.769215999999998,
            "velocity": 1
          },
          {
            "duration": 0.11153835000000001,
            "durationTicks": 29,
            "midi": 35,
            "name": "B1",
            "ticks": 3960,
            "time": 15.230754,
            "velocity": 1
          },
          {
            "duration": 0.11538449999999933,
            "durationTicks": 30,
            "midi": 35,
            "name": "B1",
            "ticks": 4080,
            "time": 15.692291999999998,
            "velocity": 1
          },
          {
            "duration": 0.12307679999999621,
            "durationTicks": 32,
            "midi": 35,
            "name": "B1",
            "ticks": 4200,
            "time": 16.15383,
            "velocity": 1
          },
          {
            "duration": 0.11538449999999756,
            "durationTicks": 30,
            "midi": 35,
            "name": "B1",
            "ticks": 15840,
            "time": 60.92301599999999,
            "velocity": 1
          },
          {
            "duration": 0.11153835000000356,
            "durationTicks": 29,
            "midi": 35,
            "name": "B1",
            "ticks": 15960,
            "time": 61.38455399999999,
            "velocity": 1
          },
          {
            "duration": 0.11538449999999756,
            "durationTicks": 30,
            "midi": 35,
            "name": "B1",
            "ticks": 16080,
            "time": 61.84609199999999,
            "velocity": 1
          },
          {
            "duration": 0.12307680000000687,
            "durationTicks": 32,
            "midi": 35,
            "name": "B1",
            "ticks": 16200,
            "time": 62.30762999999999,
            "velocity": 1
          },
          {
            "duration": 0.11538450000000466,
            "durationTicks": 30,
            "midi": 35,
            "name": "B1",
            "ticks": 16320,
            "time": 62.769167999999986,
            "velocity": 1
          },
          {
            "duration": 0.11153835000000356,
            "durationTicks": 29,
            "midi": 35,
            "name": "B1",
            "ticks": 16440,
            "time": 63.23070599999999,
            "velocity": 1
          },
          {
            "duration": 0.11538450000000466,
            "durationTicks": 30,
            "midi": 35,
            "name": "B1",
            "ticks": 16560,
            "time": 63.69224399999999,
            "velocity": 1
          },
          {
            "duration": 0.12307680000000687,
            "durationTicks": 32,
            "midi": 35,
            "name": "B1",
            "ticks": 16680,
            "time": 64.15378199999999,
            "velocity": 1
          },
          {
            "duration": 0.11538449999999045,
            "durationTicks": 30,
            "midi": 35,
            "name": "B1",
            "ticks": 16800,
            "time": 64.61532,
            "velocity": 1
          },
          {
            "duration": 0.11153835000000356,
            "durationTicks": 29,
            "midi": 35,
            "name": "B1",
            "ticks": 16920,
            "time": 65.07685799999999,
            "velocity": 1
          },
          {
            "duration": 0.11538450000000466,
            "durationTicks": 30,
            "midi": 35,
            "name": "B1",
            "ticks": 17040,
            "time": 65.53839599999999,
            "velocity": 1
          },
          {
            "duration": 0.12307680000000687,
            "durationTicks": 32,
            "midi": 35,
            "name": "B1",
            "ticks": 17160,
            "time": 65.999934,
            "velocity": 1
          },
          {
            "duration": 0.11538449999999045,
            "durationTicks": 30,
            "midi": 35,
            "name": "B1",
            "ticks": 17280,
            "time": 66.461472,
            "velocity": 1
          },
          {
            "duration": 0.11153835000000356,
            "durationTicks": 29,
            "midi": 35,
            "name": "B1",
            "ticks": 17400,
            "time": 66.92300999999999,
            "velocity": 1
          },
          {
            "duration": 0.11538450000000466,
            "durationTicks": 30,
            "midi": 35,
            "name": "B1",
            "ticks": 17520,
            "time": 67.384548,
            "velocity": 1
          },
          {
            "duration": 0.11538450000000466,
            "durationTicks": 30,
            "midi": 35,
            "name": "B1",
            "ticks": 17760,
            "time": 68.30762399999999,
            "velocity": 1
          },
          {
            "duration": 0.11153835000000356,
            "durationTicks": 29,
            "midi": 35,
            "name": "B1",
            "ticks": 17880,
            "time": 68.769162,
            "velocity": 1
          },
          {
            "duration": 0.11538449999999045,
            "durationTicks": 30,
            "midi": 35,
            "name": "B1",
            "ticks": 18000,
            "time": 69.2307,
            "velocity": 1
          },
          {
            "duration": 0.12307680000000687,
            "durationTicks": 32,
            "midi": 35,
            "name": "B1",
            "ticks": 18120,
            "time": 69.69223799999999,
            "velocity": 1
          },
          {
            "duration": 0.11538450000000466,
            "durationTicks": 30,
            "midi": 35,
            "name": "B1",
            "ticks": 18240,
            "time": 70.153776,
            "velocity": 1
          },
          {
            "duration": 0.11153835000000356,
            "durationTicks": 29,
            "midi": 35,
            "name": "B1",
            "ticks": 18360,
            "time": 70.615314,
            "velocity": 1
          },
          {
            "duration": 0.11538449999999045,
            "durationTicks": 30,
            "midi": 35,
            "name": "B1",
            "ticks": 18480,
            "time": 71.076852,
            "velocity": 1
          },
          {
            "duration": 0.12307680000000687,
            "durationTicks": 32,
            "midi": 35,
            "name": "B1",
            "ticks": 18600,
            "time": 71.53838999999999,
            "velocity": 1
          },
          {
            "duration": 0.11538450000000466,
            "durationTicks": 30,
            "midi": 35,
            "name": "B1",
            "ticks": 18720,
            "time": 71.999928,
            "velocity": 1
          },
          {
            "duration": 0.11153835000000356,
            "durationTicks": 29,
            "midi": 35,
            "name": "B1",
            "ticks": 18840,
            "time": 72.461466,
            "velocity": 1
          },
          {
            "duration": 0.11538450000000466,
            "durationTicks": 30,
            "midi": 35,
            "name": "B1",
            "ticks": 18960,
            "time": 72.92300399999999,
            "velocity": 1
          },
          {
            "duration": 0.12307680000000687,
            "durationTicks": 32,
            "midi": 35,
            "name": "B1",
            "ticks": 19080,
            "time": 73.384542,
            "velocity": 1
          },
          {
            "duration": 0.11538450000000466,
            "durationTicks": 30,
            "midi": 35,
            "name": "B1",
            "ticks": 19680,
            "time": 75.69223199999999,
            "velocity": 1
          },
          {
            "duration": 0.11153835000000356,
            "durationTicks": 29,
            "midi": 35,
            "name": "B1",
            "ticks": 19800,
            "time": 76.15377,
            "velocity": 1
          },
          {
            "duration": 0.11538449999999045,
            "durationTicks": 30,
            "midi": 35,
            "name": "B1",
            "ticks": 19920,
            "time": 76.615308,
            "velocity": 1
          },
          {
            "duration": 0.12307680000000687,
            "durationTicks": 32,
            "midi": 35,
            "name": "B1",
            "ticks": 20040,
            "time": 77.07684599999999,
            "velocity": 1
          },
          {
            "duration": 0.11538450000000466,
            "durationTicks": 30,
            "midi": 35,
            "name": "B1",
            "ticks": 20160,
            "time": 77.538384,
            "velocity": 1
          },
          {
            "duration": 0.11153835000000356,
            "durationTicks": 29,
            "midi": 35,
            "name": "B1",
            "ticks": 20280,
            "time": 77.999922,
            "velocity": 1
          },
          {
            "duration": 0.11538450000000466,
            "durationTicks": 30,
            "midi": 35,
            "name": "B1",
            "ticks": 20400,
            "time": 78.46145999999999,
            "velocity": 1
          },
          {
            "duration": 0.12307680000000687,
            "durationTicks": 32,
            "midi": 35,
            "name": "B1",
            "ticks": 20520,
            "time": 78.92299799999999,
            "velocity": 1
          },
          {
            "duration": 0.11538450000000466,
            "durationTicks": 30,
            "midi": 35,
            "name": "B1",
            "ticks": 20640,
            "time": 79.384536,
            "velocity": 1
          },
          {
            "duration": 0.11153835000000356,
            "durationTicks": 29,
            "midi": 35,
            "name": "B1",
            "ticks": 20760,
            "time": 79.846074,
            "velocity": 1
          },
          {
            "duration": 0.11538450000000466,
            "durationTicks": 30,
            "midi": 35,
            "name": "B1",
            "ticks": 20880,
            "time": 80.30761199999999,
            "velocity": 1
          },
          {
            "duration": 0.12307680000000687,
            "durationTicks": 32,
            "midi": 35,
            "name": "B1",
            "ticks": 21000,
            "time": 80.76915,
            "velocity": 1
          },
          {
            "duration": 0.11538449999999045,
            "durationTicks": 30,
            "midi": 35,
            "name": "B1",
            "ticks": 21120,
            "time": 81.230688,
            "velocity": 1
          },
          {
            "duration": 0.11153835000000356,
            "durationTicks": 29,
            "midi": 35,
            "name": "B1",
            "ticks": 21240,
            "time": 81.69222599999999,
            "velocity": 1
          },
          {
            "duration": 0.11538450000000466,
            "durationTicks": 30,
            "midi": 35,
            "name": "B1",
            "ticks": 21360,
            "time": 82.153764,
            "velocity": 1
          },
          {
            "duration": 0.12307680000000687,
            "durationTicks": 32,
            "midi": 35,
            "name": "B1",
            "ticks": 21480,
            "time": 82.615302,
            "velocity": 1
          },
          {
            "duration": 0.11538450000000466,
            "durationTicks": 30,
            "midi": 35,
            "name": "B1",
            "ticks": 21600,
            "time": 83.07683999999999,
            "velocity": 1
          },
          {
            "duration": 0.11153835000000356,
            "durationTicks": 29,
            "midi": 35,
            "name": "B1",
            "ticks": 21720,
            "time": 83.538378,
            "velocity": 1
          },
          {
            "duration": 0.11538449999999045,
            "durationTicks": 30,
            "midi": 35,
            "name": "B1",
            "ticks": 21840,
            "time": 83.999916,
            "velocity": 1
          },
          {
            "duration": 0.12307680000000687,
            "durationTicks": 32,
            "midi": 35,
            "name": "B1",
            "ticks": 21960,
            "time": 84.46145399999999,
            "velocity": 1
          },
          {
            "duration": 0.11538450000000466,
            "durationTicks": 30,
            "midi": 35,
            "name": "B1",
            "ticks": 22080,
            "time": 84.922992,
            "velocity": 1
          },
          {
            "duration": 0.11153835000000356,
            "durationTicks": 29,
            "midi": 35,
            "name": "B1",
            "ticks": 22200,
            "time": 85.38453,
            "velocity": 1
          },
          {
            "duration": 0.11538450000000466,
            "durationTicks": 30,
            "midi": 35,
            "name": "B1",
            "ticks": 22320,
            "time": 85.84606799999999,
            "velocity": 1
          },
          {
            "duration": 0.12307680000000687,
            "durationTicks": 32,
            "midi": 35,
            "name": "B1",
            "ticks": 22440,
            "time": 86.30760599999999,
            "velocity": 1
          },
          {
            "duration": 0.11538449999999045,
            "durationTicks": 30,
            "midi": 35,
            "name": "B1",
            "ticks": 22560,
            "time": 86.769144,
            "velocity": 1
          },
          {
            "duration": 0.11153835000000356,
            "durationTicks": 29,
            "midi": 35,
            "name": "B1",
            "ticks": 22680,
            "time": 87.23068199999999,
            "velocity": 1
          },
          {
            "duration": 0.11538450000000466,
            "durationTicks": 30,
            "midi": 35,
            "name": "B1",
            "ticks": 22800,
            "time": 87.69221999999999,
            "velocity": 1
          },
          {
            "duration": 0.12307680000000687,
            "durationTicks": 32,
            "midi": 35,
            "name": "B1",
            "ticks": 22920,
            "time": 88.153758,
            "velocity": 1
          },
          {
            "duration": 0.12307679999999266,
            "durationTicks": 32,
            "midi": 35,
            "name": "B1",
            "ticks": 23040,
            "time": 88.615296,
            "velocity": 1
          },
          {
            "duration": 0.11538450000000466,
            "durationTicks": 30,
            "midi": 35,
            "name": "B1",
            "ticks": 23520,
            "time": 90.46144799999999,
            "velocity": 1
          },
          {
            "duration": 0.11153835000000356,
            "durationTicks": 29,
            "midi": 35,
            "name": "B1",
            "ticks": 23640,
            "time": 90.922986,
            "velocity": 1
          },
          {
            "duration": 0.11538449999999045,
            "durationTicks": 30,
            "midi": 35,
            "name": "B1",
            "ticks": 23760,
            "time": 91.384524,
            "velocity": 1
          },
          {
            "duration": 0.12307680000000687,
            "durationTicks": 32,
            "midi": 35,
            "name": "B1",
            "ticks": 23880,
            "time": 91.84606199999999,
            "velocity": 1
          },
          {
            "duration": 0.11538450000000466,
            "durationTicks": 30,
            "midi": 35,
            "name": "B1",
            "ticks": 24000,
            "time": 92.3076,
            "velocity": 1
          },
          {
            "duration": 0.11153835000000356,
            "durationTicks": 29,
            "midi": 35,
            "name": "B1",
            "ticks": 24120,
            "time": 92.769138,
            "velocity": 1
          },
          {
            "duration": 0.11538450000000466,
            "durationTicks": 30,
            "midi": 35,
            "name": "B1",
            "ticks": 24240,
            "time": 93.23067599999999,
            "velocity": 1
          },
          {
            "duration": 0.12307680000000687,
            "durationTicks": 32,
            "midi": 35,
            "name": "B1",
            "ticks": 24360,
            "time": 93.69221399999999,
            "velocity": 1
          },
          {
            "duration": 0.11538449999999045,
            "durationTicks": 30,
            "midi": 35,
            "name": "B1",
            "ticks": 24480,
            "time": 94.153752,
            "velocity": 1
          },
          {
            "duration": 0.11153835000000356,
            "durationTicks": 29,
            "midi": 35,
            "name": "B1",
            "ticks": 24600,
            "time": 94.61528999999999,
            "velocity": 1
          },
          {
            "duration": 0.11538450000000466,
            "durationTicks": 30,
            "midi": 35,
            "name": "B1",
            "ticks": 24720,
            "time": 95.07682799999999,
            "velocity": 1
          },
          {
            "duration": 0.12307680000000687,
            "durationTicks": 32,
            "midi": 35,
            "name": "B1",
            "ticks": 24840,
            "time": 95.538366,
            "velocity": 1
          },
          {
            "duration": 0.11538450000000466,
            "durationTicks": 30,
            "midi": 35,
            "name": "B1",
            "ticks": 24960,
            "time": 95.99990399999999,
            "velocity": 1
          },
          {
            "duration": 0.11153835000000356,
            "durationTicks": 29,
            "midi": 35,
            "name": "B1",
            "ticks": 25080,
            "time": 96.46144199999999,
            "velocity": 1
          },
          {
            "duration": 0.11538449999999045,
            "durationTicks": 30,
            "midi": 35,
            "name": "B1",
            "ticks": 25200,
            "time": 96.92298,
            "velocity": 1
          },
          {
            "duration": 0.12307679999999266,
            "durationTicks": 32,
            "midi": 35,
            "name": "B1",
            "ticks": 25320,
            "time": 97.384518,
            "velocity": 1
          },
          {
            "duration": 0.11538450000000466,
            "durationTicks": 30,
            "midi": 35,
            "name": "B1",
            "ticks": 25440,
            "time": 97.84605599999999,
            "velocity": 1
          },
          {
            "duration": 0.11153835000000356,
            "durationTicks": 29,
            "midi": 35,
            "name": "B1",
            "ticks": 25560,
            "time": 98.307594,
            "velocity": 1
          },
          {
            "duration": 0.11538449999999045,
            "durationTicks": 30,
            "midi": 35,
            "name": "B1",
            "ticks": 25680,
            "time": 98.769132,
            "velocity": 1
          },
          {
            "duration": 0.12307680000000687,
            "durationTicks": 32,
            "midi": 35,
            "name": "B1",
            "ticks": 25800,
            "time": 99.23066999999999,
            "velocity": 1
          },
          {
            "duration": 0.11538450000000466,
            "durationTicks": 30,
            "midi": 35,
            "name": "B1",
            "ticks": 25920,
            "time": 99.692208,
            "velocity": 1
          },
          {
            "duration": 0.11153835000000356,
            "durationTicks": 29,
            "midi": 35,
            "name": "B1",
            "ticks": 26040,
            "time": 100.153746,
            "velocity": 1
          },
          {
            "duration": 0.11538450000000466,
            "durationTicks": 30,
            "midi": 35,
            "name": "B1",
            "ticks": 26160,
            "time": 100.61528399999999,
            "velocity": 1
          },
          {
            "duration": 0.12307680000000687,
            "durationTicks": 32,
            "midi": 35,
            "name": "B1",
            "ticks": 26280,
            "time": 101.07682199999999,
            "velocity": 1
          },
          {
            "duration": 0.11538450000000466,
            "durationTicks": 30,
            "midi": 35,
            "name": "B1",
            "ticks": 31200,
            "time": 119.99987999999999,
            "velocity": 1
          },
          {
            "duration": 0.11153835000000356,
            "durationTicks": 29,
            "midi": 35,
            "name": "B1",
            "ticks": 31320,
            "time": 120.461418,
            "velocity": 1
          },
          {
            "duration": 0.11538450000000466,
            "durationTicks": 30,
            "midi": 35,
            "name": "B1",
            "ticks": 31440,
            "time": 120.92295599999999,
            "velocity": 1
          },
          {
            "duration": 0.12307679999999266,
            "durationTicks": 32,
            "midi": 35,
            "name": "B1",
            "ticks": 31560,
            "time": 121.38449399999999,
            "velocity": 1
          },
          {
            "duration": 0.11538449999999045,
            "durationTicks": 30,
            "midi": 35,
            "name": "B1",
            "ticks": 31680,
            "time": 121.846032,
            "velocity": 1
          },
          {
            "duration": 0.11153835000000356,
            "durationTicks": 29,
            "midi": 35,
            "name": "B1",
            "ticks": 31800,
            "time": 122.30756999999998,
            "velocity": 1
          },
          {
            "duration": 0.11538450000000466,
            "durationTicks": 30,
            "midi": 35,
            "name": "B1",
            "ticks": 31920,
            "time": 122.76910799999999,
            "velocity": 1
          },
          {
            "duration": 0.12307679999999266,
            "durationTicks": 32,
            "midi": 35,
            "name": "B1",
            "ticks": 32040,
            "time": 123.230646,
            "velocity": 1
          },
          {
            "duration": 0.11538450000000466,
            "durationTicks": 30,
            "midi": 35,
            "name": "B1",
            "ticks": 32160,
            "time": 123.69218399999998,
            "velocity": 1
          },
          {
            "duration": 0.11153835000000356,
            "durationTicks": 29,
            "midi": 35,
            "name": "B1",
            "ticks": 32280,
            "time": 124.15372199999999,
            "velocity": 1
          },
          {
            "duration": 0.11538450000000466,
            "durationTicks": 30,
            "midi": 35,
            "name": "B1",
            "ticks": 32400,
            "time": 124.61525999999999,
            "velocity": 1
          },
          {
            "duration": 0.12307679999999266,
            "durationTicks": 32,
            "midi": 35,
            "name": "B1",
            "ticks": 32520,
            "time": 125.076798,
            "velocity": 1
          },
          {
            "duration": 0.11538450000000466,
            "durationTicks": 30,
            "midi": 35,
            "name": "B1",
            "ticks": 32640,
            "time": 125.53833599999999,
            "velocity": 1
          },
          {
            "duration": 0.11153835000000356,
            "durationTicks": 29,
            "midi": 35,
            "name": "B1",
            "ticks": 32760,
            "time": 125.99987399999999,
            "velocity": 1
          },
          {
            "duration": 0.11538449999999045,
            "durationTicks": 30,
            "midi": 35,
            "name": "B1",
            "ticks": 32880,
            "time": 126.461412,
            "velocity": 1
          },
          {
            "duration": 0.12307679999999266,
            "durationTicks": 32,
            "midi": 35,
            "name": "B1",
            "ticks": 33000,
            "time": 126.92294999999999,
            "velocity": 1
          },
          {
            "duration": 0.11538450000000466,
            "durationTicks": 30,
            "midi": 35,
            "name": "B1",
            "ticks": 33120,
            "time": 127.38448799999999,
            "velocity": 1
          },
          {
            "duration": 0.11153835000000356,
            "durationTicks": 29,
            "midi": 35,
            "name": "B1",
            "ticks": 33240,
            "time": 127.846026,
            "velocity": 1
          },
          {
            "duration": 0.11538450000000466,
            "durationTicks": 30,
            "midi": 35,
            "name": "B1",
            "ticks": 33360,
            "time": 128.30756399999999,
            "velocity": 1
          },
          {
            "duration": 0.12307680000000687,
            "durationTicks": 32,
            "midi": 35,
            "name": "B1",
            "ticks": 33480,
            "time": 128.76910199999998,
            "velocity": 1
          },
          {
            "duration": 0.11538449999997624,
            "durationTicks": 30,
            "midi": 35,
            "name": "B1",
            "ticks": 33600,
            "time": 129.23064,
            "velocity": 1
          },
          {
            "duration": 0.11153834999998935,
            "durationTicks": 29,
            "midi": 35,
            "name": "B1",
            "ticks": 33720,
            "time": 129.69217799999998,
            "velocity": 1
          },
          {
            "duration": 0.11538450000000466,
            "durationTicks": 30,
            "midi": 35,
            "name": "B1",
            "ticks": 33840,
            "time": 130.15371599999997,
            "velocity": 1
          },
          {
            "duration": 0.12307680000000687,
            "durationTicks": 32,
            "midi": 35,
            "name": "B1",
            "ticks": 33960,
            "time": 130.61525399999996,
            "velocity": 1
          },
          {
            "duration": 0.11538450000000466,
            "durationTicks": 30,
            "midi": 35,
            "name": "B1",
            "ticks": 34080,
            "time": 131.07679199999998,
            "velocity": 1
          },
          {
            "duration": 0.11153835000001777,
            "durationTicks": 29,
            "midi": 35,
            "name": "B1",
            "ticks": 34200,
            "time": 131.53832999999997,
            "velocity": 1
          },
          {
            "duration": 0.11538450000000466,
            "durationTicks": 30,
            "midi": 35,
            "name": "B1",
            "ticks": 34320,
            "time": 131.99986799999996,
            "velocity": 1
          },
          {
            "duration": 0.12307679999997845,
            "durationTicks": 32,
            "midi": 35,
            "name": "B1",
            "ticks": 34440,
            "time": 132.46140599999998,
            "velocity": 1
          },
          {
            "duration": 0.11538450000000466,
            "durationTicks": 30,
            "midi": 35,
            "name": "B1",
            "ticks": 36000,
            "time": 138.46139999999997,
            "velocity": 1
          },
          {
            "duration": 0.11153834999998935,
            "durationTicks": 29,
            "midi": 35,
            "name": "B1",
            "ticks": 36120,
            "time": 138.922938,
            "velocity": 1
          },
          {
            "duration": 0.11538450000000466,
            "durationTicks": 30,
            "midi": 35,
            "name": "B1",
            "ticks": 36240,
            "time": 139.38447599999998,
            "velocity": 1
          },
          {
            "duration": 0.12307680000000687,
            "durationTicks": 32,
            "midi": 35,
            "name": "B1",
            "ticks": 36360,
            "time": 139.84601399999997,
            "velocity": 1
          },
          {
            "duration": 0.11538449999997624,
            "durationTicks": 30,
            "midi": 35,
            "name": "B1",
            "ticks": 36480,
            "time": 140.307552,
            "velocity": 1
          },
          {
            "duration": 0.11153834999998935,
            "durationTicks": 29,
            "midi": 35,
            "name": "B1",
            "ticks": 36600,
            "time": 140.76908999999998,
            "velocity": 1
          },
          {
            "duration": 0.11538450000000466,
            "durationTicks": 30,
            "midi": 35,
            "name": "B1",
            "ticks": 36720,
            "time": 141.23062799999997,
            "velocity": 1
          },
          {
            "duration": 0.12307679999997845,
            "durationTicks": 32,
            "midi": 35,
            "name": "B1",
            "ticks": 36840,
            "time": 141.692166,
            "velocity": 1
          },
          {
            "duration": 0.11538450000000466,
            "durationTicks": 30,
            "midi": 35,
            "name": "B1",
            "ticks": 36960,
            "time": 142.15370399999998,
            "velocity": 1
          },
          {
            "duration": 0.11153835000001777,
            "durationTicks": 29,
            "midi": 35,
            "name": "B1",
            "ticks": 37080,
            "time": 142.61524199999997,
            "velocity": 1
          },
          {
            "duration": 0.11538449999997624,
            "durationTicks": 30,
            "midi": 35,
            "name": "B1",
            "ticks": 37200,
            "time": 143.07677999999999,
            "velocity": 1
          },
          {
            "duration": 0.12307679999997845,
            "durationTicks": 32,
            "midi": 35,
            "name": "B1",
            "ticks": 37320,
            "time": 143.53831799999998,
            "velocity": 1
          },
          {
            "duration": 0.11538450000000466,
            "durationTicks": 30,
            "midi": 35,
            "name": "B1",
            "ticks": 37440,
            "time": 143.99985599999997,
            "velocity": 1
          },
          {
            "duration": 0.11153834999998935,
            "durationTicks": 29,
            "midi": 35,
            "name": "B1",
            "ticks": 37560,
            "time": 144.46139399999998,
            "velocity": 1
          },
          {
            "duration": 0.11538450000000466,
            "durationTicks": 30,
            "midi": 35,
            "name": "B1",
            "ticks": 37680,
            "time": 144.92293199999997,
            "velocity": 1
          },
          {
            "duration": 0.11538449999997624,
            "durationTicks": 30,
            "midi": 35,
            "name": "B1",
            "ticks": 37920,
            "time": 145.84600799999998,
            "velocity": 1
          },
          {
            "duration": 0.11153834999998935,
            "durationTicks": 29,
            "midi": 35,
            "name": "B1",
            "ticks": 38040,
            "time": 146.30754599999997,
            "velocity": 1
          },
          {
            "duration": 0.11538450000000466,
            "durationTicks": 30,
            "midi": 35,
            "name": "B1",
            "ticks": 38160,
            "time": 146.76908399999996,
            "velocity": 1
          },
          {
            "duration": 0.12307679999997845,
            "durationTicks": 32,
            "midi": 35,
            "name": "B1",
            "ticks": 38280,
            "time": 147.23062199999998,
            "velocity": 1
          },
          {
            "duration": 0.11538450000000466,
            "durationTicks": 30,
            "midi": 35,
            "name": "B1",
            "ticks": 38400,
            "time": 147.69215999999997,
            "velocity": 1
          },
          {
            "duration": 0.11153835000001777,
            "durationTicks": 29,
            "midi": 35,
            "name": "B1",
            "ticks": 38520,
            "time": 148.15369799999996,
            "velocity": 1
          },
          {
            "duration": 0.11538450000000466,
            "durationTicks": 30,
            "midi": 35,
            "name": "B1",
            "ticks": 38640,
            "time": 148.61523599999998,
            "velocity": 1
          },
          {
            "duration": 0.12307680000000687,
            "durationTicks": 32,
            "midi": 35,
            "name": "B1",
            "ticks": 38760,
            "time": 149.07677399999997,
            "velocity": 1
          },
          {
            "duration": 0.11538450000000466,
            "durationTicks": 30,
            "midi": 35,
            "name": "B1",
            "ticks": 38880,
            "time": 149.53831199999996,
            "velocity": 1
          },
          {
            "duration": 0.11153834999998935,
            "durationTicks": 29,
            "midi": 35,
            "name": "B1",
            "ticks": 39000,
            "time": 149.99984999999998,
            "velocity": 1
          },
          {
            "duration": 0.11538450000000466,
            "durationTicks": 30,
            "midi": 35,
            "name": "B1",
            "ticks": 39120,
            "time": 150.46138799999997,
            "velocity": 1
          },
          {
            "duration": 0.12307680000000687,
            "durationTicks": 32,
            "midi": 35,
            "name": "B1",
            "ticks": 39240,
            "time": 150.92292599999996,
            "velocity": 1
          },
          {
            "duration": 0.11538450000000466,
            "durationTicks": 30,
            "midi": 35,
            "name": "B1",
            "ticks": 39360,
            "time": 151.38446399999998,
            "velocity": 1
          },
          {
            "duration": 0.11153835000001777,
            "durationTicks": 29,
            "midi": 35,
            "name": "B1",
            "ticks": 39480,
            "time": 151.84600199999997,
            "velocity": 1
          },
          {
            "duration": 0.11538450000000466,
            "durationTicks": 30,
            "midi": 35,
            "name": "B1",
            "ticks": 39600,
            "time": 152.30753999999996,
            "velocity": 1
          },
          {
            "duration": 0.08461529999999584,
            "durationTicks": 22,
            "midi": 35,
            "name": "B1",
            "ticks": 39840,
            "time": 153.23061599999997,
            "velocity": 0.9448818897637795
          },
          {
            "duration": 0.08461529999999584,
            "durationTicks": 22,
            "midi": 35,
            "name": "B1",
            "ticks": 41760,
            "time": 160.61522399999998,
            "velocity": 0.9448818897637795
          },
          {
            "duration": 0.05769225000000233,
            "durationTicks": 15,
            "midi": 35,
            "name": "B1",
            "ticks": 41850,
            "time": 160.96137749999997,
            "velocity": 0.8976377952755905
          },
          {
            "duration": 0.07692299999999364,
            "durationTicks": 20,
            "midi": 35,
            "name": "B1",
            "ticks": 41880,
            "time": 161.07676199999997,
            "velocity": 0.8110236220472441
          },
          {
            "duration": 0.07692299999999364,
            "durationTicks": 20,
            "midi": 35,
            "name": "B1",
            "ticks": 41940,
            "time": 161.30753099999998,
            "velocity": 0.9448818897637795
          },
          {
            "duration": 0.07307685000000674,
            "durationTicks": 19,
            "midi": 35,
            "name": "B1",
            "ticks": 42060,
            "time": 161.76906899999997,
            "velocity": 0.9212598425196851
          },
          {
            "duration": 0.08461530000002426,
            "durationTicks": 22,
            "midi": 35,
            "name": "B1",
            "ticks": 42150,
            "time": 162.11522249999996,
            "velocity": 0.9606299212598425
          },
          {
            "duration": 0.08461529999999584,
            "durationTicks": 22,
            "midi": 35,
            "name": "B1",
            "ticks": 42240,
            "time": 162.46137599999997,
            "velocity": 0.9448818897637795
          },
          {
            "duration": 0.05769225000000233,
            "durationTicks": 15,
            "midi": 35,
            "name": "B1",
            "ticks": 42330,
            "time": 162.80752949999996,
            "velocity": 0.8976377952755905
          },
          {
            "duration": 0.07692300000002206,
            "durationTicks": 20,
            "midi": 35,
            "name": "B1",
            "ticks": 42360,
            "time": 162.92291399999996,
            "velocity": 0.8110236220472441
          },
          {
            "duration": 0.07692299999999364,
            "durationTicks": 20,
            "midi": 35,
            "name": "B1",
            "ticks": 42420,
            "time": 163.15368299999997,
            "velocity": 0.9448818897637795
          },
          {
            "duration": 0.07307685000000674,
            "durationTicks": 19,
            "midi": 35,
            "name": "B1",
            "ticks": 42540,
            "time": 163.61522099999996,
            "velocity": 0.9212598425196851
          },
          {
            "duration": 0.08461529999999584,
            "durationTicks": 22,
            "midi": 35,
            "name": "B1",
            "ticks": 42630,
            "time": 163.96137449999998,
            "velocity": 0.9606299212598425
          },
          {
            "duration": 0.08461530000002426,
            "durationTicks": 22,
            "midi": 35,
            "name": "B1",
            "ticks": 42720,
            "time": 164.30752799999996,
            "velocity": 0.9448818897637795
          },
          {
            "duration": 0.05769225000000233,
            "durationTicks": 15,
            "midi": 35,
            "name": "B1",
            "ticks": 42810,
            "time": 164.65368149999998,
            "velocity": 0.8976377952755905
          },
          {
            "duration": 0.07692299999999364,
            "durationTicks": 20,
            "midi": 35,
            "name": "B1",
            "ticks": 42840,
            "time": 164.76906599999998,
            "velocity": 0.8110236220472441
          },
          {
            "duration": 0.07692300000002206,
            "durationTicks": 20,
            "midi": 35,
            "name": "B1",
            "ticks": 42900,
            "time": 164.99983499999996,
            "velocity": 0.9448818897637795
          },
          {
            "duration": 0.07307685000000674,
            "durationTicks": 19,
            "midi": 35,
            "name": "B1",
            "ticks": 43020,
            "time": 165.46137299999998,
            "velocity": 0.9212598425196851
          },
          {
            "duration": 0.08461529999999584,
            "durationTicks": 22,
            "midi": 35,
            "name": "B1",
            "ticks": 43110,
            "time": 165.80752649999997,
            "velocity": 0.9606299212598425
          },
          {
            "duration": 0.11153834999998935,
            "durationTicks": 29,
            "midi": 35,
            "name": "B1",
            "ticks": 45600,
            "time": 175.38443999999998,
            "velocity": 1
          },
          {
            "duration": 0.11153835000001777,
            "durationTicks": 29,
            "midi": 35,
            "name": "B1",
            "ticks": 46560,
            "time": 179.07674399999996,
            "velocity": 1
          },
          {
            "duration": 0.11153834999998935,
            "durationTicks": 29,
            "midi": 35,
            "name": "B1",
            "ticks": 47520,
            "time": 182.76904799999997,
            "velocity": 1
          },
          {
            "duration": 0.11538450000000466,
            "durationTicks": 30,
            "midi": 35,
            "name": "B1",
            "ticks": 51360,
            "time": 197.53826399999997,
            "velocity": 1
          },
          {
            "duration": 0.11153835000001777,
            "durationTicks": 29,
            "midi": 35,
            "name": "B1",
            "ticks": 51480,
            "time": 197.99980199999996,
            "velocity": 1
          },
          {
            "duration": 0.11538449999997624,
            "durationTicks": 30,
            "midi": 35,
            "name": "B1",
            "ticks": 51600,
            "time": 198.46133999999998,
            "velocity": 1
          },
          {
            "duration": 0.12307679999997845,
            "durationTicks": 32,
            "midi": 35,
            "name": "B1",
            "ticks": 51720,
            "time": 198.92287799999997,
            "velocity": 1
          },
          {
            "duration": 0.11538450000000466,
            "durationTicks": 30,
            "midi": 35,
            "name": "B1",
            "ticks": 51840,
            "time": 199.38441599999996,
            "velocity": 1
          },
          {
            "duration": 0.11153834999998935,
            "durationTicks": 29,
            "midi": 35,
            "name": "B1",
            "ticks": 51960,
            "time": 199.84595399999998,
            "velocity": 1
          },
          {
            "duration": 0.11538450000000466,
            "durationTicks": 30,
            "midi": 35,
            "name": "B1",
            "ticks": 52080,
            "time": 200.30749199999997,
            "velocity": 1
          },
          {
            "duration": 0.12307680000000687,
            "durationTicks": 32,
            "midi": 35,
            "name": "B1",
            "ticks": 52200,
            "time": 200.76902999999996,
            "velocity": 1
          },
          {
            "duration": 0.11538449999997624,
            "durationTicks": 30,
            "midi": 35,
            "name": "B1",
            "ticks": 52320,
            "time": 201.23056799999998,
            "velocity": 1
          },
          {
            "duration": 0.11153834999998935,
            "durationTicks": 29,
            "midi": 35,
            "name": "B1",
            "ticks": 52440,
            "time": 201.69210599999997,
            "velocity": 1
          },
          {
            "duration": 0.11538450000000466,
            "durationTicks": 30,
            "midi": 35,
            "name": "B1",
            "ticks": 52560,
            "time": 202.15364399999996,
            "velocity": 1
          },
          {
            "duration": 0.12307679999997845,
            "durationTicks": 32,
            "midi": 35,
            "name": "B1",
            "ticks": 52680,
            "time": 202.61518199999998,
            "velocity": 1
          },
          {
            "duration": 0.11538450000000466,
            "durationTicks": 30,
            "midi": 35,
            "name": "B1",
            "ticks": 52800,
            "time": 203.07671999999997,
            "velocity": 1
          },
          {
            "duration": 0.11153835000001777,
            "durationTicks": 29,
            "midi": 35,
            "name": "B1",
            "ticks": 52920,
            "time": 203.53825799999996,
            "velocity": 1
          },
          {
            "duration": 0.11538450000000466,
            "durationTicks": 30,
            "midi": 35,
            "name": "B1",
            "ticks": 53040,
            "time": 203.99979599999998,
            "velocity": 1
          },
          {
            "duration": 0.12307680000000687,
            "durationTicks": 32,
            "midi": 35,
            "name": "B1",
            "ticks": 53160,
            "time": 204.46133399999997,
            "velocity": 1
          },
          {
            "duration": 0.11538450000000466,
            "durationTicks": 30,
            "midi": 35,
            "name": "B1",
            "ticks": 53280,
            "time": 204.92287199999996,
            "velocity": 1
          },
          {
            "duration": 0.11153834999998935,
            "durationTicks": 29,
            "midi": 35,
            "name": "B1",
            "ticks": 53400,
            "time": 205.38440999999997,
            "velocity": 1
          },
          {
            "duration": 0.11538450000000466,
            "durationTicks": 30,
            "midi": 35,
            "name": "B1",
            "ticks": 53520,
            "time": 205.84594799999996,
            "velocity": 1
          },
          {
            "duration": 0.12307680000000687,
            "durationTicks": 32,
            "midi": 35,
            "name": "B1",
            "ticks": 53640,
            "time": 206.30748599999995,
            "velocity": 1
          },
          {
            "duration": 0.11538450000000466,
            "durationTicks": 30,
            "midi": 35,
            "name": "B1",
            "ticks": 53760,
            "time": 206.76902399999997,
            "velocity": 1
          },
          {
            "duration": 0.11153835000001777,
            "durationTicks": 29,
            "midi": 35,
            "name": "B1",
            "ticks": 53880,
            "time": 207.23056199999996,
            "velocity": 1
          },
          {
            "duration": 0.11538450000000466,
            "durationTicks": 30,
            "midi": 35,
            "name": "B1",
            "ticks": 54000,
            "time": 207.69209999999995,
            "velocity": 1
          },
          {
            "duration": 0.12307679999997845,
            "durationTicks": 32,
            "midi": 35,
            "name": "B1",
            "ticks": 54120,
            "time": 208.15363799999997,
            "velocity": 1
          },
          {
            "duration": 0.11538450000000466,
            "durationTicks": 30,
            "midi": 35,
            "name": "B1",
            "ticks": 54240,
            "time": 208.61517599999996,
            "velocity": 1
          },
          {
            "duration": 0.11153835000001777,
            "durationTicks": 29,
            "midi": 35,
            "name": "B1",
            "ticks": 54360,
            "time": 209.07671399999995,
            "velocity": 1
          },
          {
            "duration": 0.11538450000000466,
            "durationTicks": 30,
            "midi": 35,
            "name": "B1",
            "ticks": 54480,
            "time": 209.53825199999997,
            "velocity": 1
          },
          {
            "duration": 0.12307680000000687,
            "durationTicks": 32,
            "midi": 35,
            "name": "B1",
            "ticks": 54600,
            "time": 209.99978999999996,
            "velocity": 1
          },
          {
            "duration": 0.11538450000000466,
            "durationTicks": 30,
            "midi": 35,
            "name": "B1",
            "ticks": 54720,
            "time": 210.46132799999995,
            "velocity": 1
          },
          {
            "duration": 0.11153834999998935,
            "durationTicks": 29,
            "midi": 35,
            "name": "B1",
            "ticks": 54840,
            "time": 210.92286599999997,
            "velocity": 1
          },
          {
            "duration": 0.11538450000000466,
            "durationTicks": 30,
            "midi": 35,
            "name": "B1",
            "ticks": 54960,
            "time": 211.38440399999996,
            "velocity": 1
          },
          {
            "duration": 0.12307679999997845,
            "durationTicks": 32,
            "midi": 35,
            "name": "B1",
            "ticks": 55080,
            "time": 211.84594199999998,
            "velocity": 1
          },
          {
            "duration": 0.11538450000000466,
            "durationTicks": 30,
            "midi": 35,
            "name": "B1",
            "ticks": 55200,
            "time": 212.30747999999997,
            "velocity": 1
          },
          {
            "duration": 0.11153835000001777,
            "durationTicks": 29,
            "midi": 35,
            "name": "B1",
            "ticks": 55320,
            "time": 212.76901799999996,
            "velocity": 1
          },
          {
            "duration": 0.11538449999997624,
            "durationTicks": 30,
            "midi": 35,
            "name": "B1",
            "ticks": 55440,
            "time": 213.23055599999998,
            "velocity": 1
          },
          {
            "duration": 0.12307679999997845,
            "durationTicks": 32,
            "midi": 35,
            "name": "B1",
            "ticks": 55560,
            "time": 213.69209399999997,
            "velocity": 1
          },
          {
            "duration": 0.11538450000000466,
            "durationTicks": 30,
            "midi": 35,
            "name": "B1",
            "ticks": 55680,
            "time": 214.15363199999996,
            "velocity": 1
          },
          {
            "duration": 0.11153834999998935,
            "durationTicks": 29,
            "midi": 35,
            "name": "B1",
            "ticks": 55800,
            "time": 214.61516999999998,
            "velocity": 1
          },
          {
            "duration": 0.11538450000000466,
            "durationTicks": 30,
            "midi": 35,
            "name": "B1",
            "ticks": 55920,
            "time": 215.07670799999997,
            "velocity": 1
          },
          {
            "duration": 0.12307680000000687,
            "durationTicks": 32,
            "midi": 35,
            "name": "B1",
            "ticks": 56040,
            "time": 215.53824599999996,
            "velocity": 1
          },
          {
            "duration": 0.11538449999997624,
            "durationTicks": 30,
            "midi": 35,
            "name": "B1",
            "ticks": 56160,
            "time": 215.99978399999998,
            "velocity": 1
          },
          {
            "duration": 0.11153834999998935,
            "durationTicks": 29,
            "midi": 35,
            "name": "B1",
            "ticks": 56280,
            "time": 216.46132199999997,
            "velocity": 1
          },
          {
            "duration": 0.11538450000000466,
            "durationTicks": 30,
            "midi": 35,
            "name": "B1",
            "ticks": 56400,
            "time": 216.92285999999996,
            "velocity": 1
          },
          {
            "duration": 0.12307679999997845,
            "durationTicks": 32,
            "midi": 35,
            "name": "B1",
            "ticks": 56520,
            "time": 217.38439799999998,
            "velocity": 1
          },
          {
            "duration": 0.11538450000000466,
            "durationTicks": 30,
            "midi": 35,
            "name": "B1",
            "ticks": 56640,
            "time": 217.84593599999997,
            "velocity": 1
          },
          {
            "duration": 0.11153835000001777,
            "durationTicks": 29,
            "midi": 35,
            "name": "B1",
            "ticks": 56760,
            "time": 218.30747399999996,
            "velocity": 1
          },
          {
            "duration": 0.11538449999997624,
            "durationTicks": 30,
            "midi": 35,
            "name": "B1",
            "ticks": 56880,
            "time": 218.76901199999998,
            "velocity": 1
          },
          {
            "duration": 0.12307679999997845,
            "durationTicks": 32,
            "midi": 35,
            "name": "B1",
            "ticks": 57000,
            "time": 219.23054999999997,
            "velocity": 1
          },
          {
            "duration": 0.11538450000000466,
            "durationTicks": 30,
            "midi": 35,
            "name": "B1",
            "ticks": 57120,
            "time": 219.69208799999996,
            "velocity": 1
          },
          {
            "duration": 0.11153834999998935,
            "durationTicks": 29,
            "midi": 35,
            "name": "B1",
            "ticks": 57240,
            "time": 220.15362599999997,
            "velocity": 1
          },
          {
            "duration": 0.11538450000000466,
            "durationTicks": 30,
            "midi": 35,
            "name": "B1",
            "ticks": 57360,
            "time": 220.61516399999996,
            "velocity": 1
          },
          {
            "duration": 0.12307680000000687,
            "durationTicks": 32,
            "midi": 35,
            "name": "B1",
            "ticks": 57480,
            "time": 221.07670199999995,
            "velocity": 1
          },
          {
            "duration": 0.11538450000000466,
            "durationTicks": 30,
            "midi": 35,
            "name": "B1",
            "ticks": 57600,
            "time": 221.53823999999997,
            "velocity": 1
          },
          {
            "duration": 0.11153835000001777,
            "durationTicks": 29,
            "midi": 35,
            "name": "B1",
            "ticks": 57720,
            "time": 221.99977799999996,
            "velocity": 1
          },
          {
            "duration": 0.11538450000000466,
            "durationTicks": 30,
            "midi": 35,
            "name": "B1",
            "ticks": 57840,
            "time": 222.46131599999995,
            "velocity": 1
          },
          {
            "duration": 0.12307679999997845,
            "durationTicks": 32,
            "midi": 35,
            "name": "B1",
            "ticks": 57960,
            "time": 222.92285399999997,
            "velocity": 1
          },
          {
            "duration": 0.11538450000000466,
            "durationTicks": 30,
            "midi": 35,
            "name": "B1",
            "ticks": 58080,
            "time": 223.38439199999996,
            "velocity": 1
          },
          {
            "duration": 0.11153835000001777,
            "durationTicks": 29,
            "midi": 35,
            "name": "B1",
            "ticks": 58200,
            "time": 223.84592999999995,
            "velocity": 1
          },
          {
            "duration": 0.11538450000000466,
            "durationTicks": 30,
            "midi": 35,
            "name": "B1",
            "ticks": 58320,
            "time": 224.30746799999997,
            "velocity": 1
          },
          {
            "duration": 0.12307680000000687,
            "durationTicks": 32,
            "midi": 35,
            "name": "B1",
            "ticks": 58440,
            "time": 224.76900599999996,
            "velocity": 1
          },
          {
            "duration": 0.11538450000000466,
            "durationTicks": 30,
            "midi": 35,
            "name": "B1",
            "ticks": 58560,
            "time": 225.23054399999995,
            "velocity": 1
          },
          {
            "duration": 0.11153834999998935,
            "durationTicks": 29,
            "midi": 35,
            "name": "B1",
            "ticks": 58680,
            "time": 225.69208199999997,
            "velocity": 1
          },
          {
            "duration": 0.11538450000000466,
            "durationTicks": 30,
            "midi": 35,
            "name": "B1",
            "ticks": 58800,
            "time": 226.15361999999996,
            "velocity": 1
          },
          {
            "duration": 0.12307680000000687,
            "durationTicks": 32,
            "midi": 35,
            "name": "B1",
            "ticks": 58920,
            "time": 226.61515799999995,
            "velocity": 1
          },
          {
            "duration": 0.11538450000000466,
            "durationTicks": 30,
            "midi": 35,
            "name": "B1",
            "ticks": 59040,
            "time": 227.07669599999997,
            "velocity": 1
          },
          {
            "duration": 0.11153835000001777,
            "durationTicks": 29,
            "midi": 35,
            "name": "B1",
            "ticks": 59160,
            "time": 227.53823399999996,
            "velocity": 1
          },
          {
            "duration": 0.11538450000000466,
            "durationTicks": 30,
            "midi": 35,
            "name": "B1",
            "ticks": 59280,
            "time": 227.99977199999995,
            "velocity": 1
          },
          {
            "duration": 0.12307679999997845,
            "durationTicks": 32,
            "midi": 35,
            "name": "B1",
            "ticks": 59400,
            "time": 228.46130999999997,
            "velocity": 1
          },
          {
            "duration": 0.11538450000000466,
            "durationTicks": 30,
            "midi": 35,
            "name": "B1",
            "ticks": 59520,
            "time": 228.92284799999996,
            "velocity": 1
          },
          {
            "duration": 0.11153834999998935,
            "durationTicks": 29,
            "midi": 35,
            "name": "B1",
            "ticks": 59640,
            "time": 229.38438599999998,
            "velocity": 1
          },
          {
            "duration": 0.11538450000000466,
            "durationTicks": 30,
            "midi": 35,
            "name": "B1",
            "ticks": 59760,
            "time": 229.84592399999997,
            "velocity": 1
          },
          {
            "duration": 0.12307680000000687,
            "durationTicks": 32,
            "midi": 35,
            "name": "B1",
            "ticks": 59880,
            "time": 230.30746199999996,
            "velocity": 1
          },
          {
            "duration": 0.11538449999997624,
            "durationTicks": 30,
            "midi": 35,
            "name": "B1",
            "ticks": 60000,
            "time": 230.76899999999998,
            "velocity": 1
          },
          {
            "duration": 0.11153834999998935,
            "durationTicks": 29,
            "midi": 35,
            "name": "B1",
            "ticks": 60120,
            "time": 231.23053799999997,
            "velocity": 1
          },
          {
            "duration": 0.11538450000000466,
            "durationTicks": 30,
            "midi": 35,
            "name": "B1",
            "ticks": 60240,
            "time": 231.69207599999996,
            "velocity": 1
          },
          {
            "duration": 0.12307679999997845,
            "durationTicks": 32,
            "midi": 35,
            "name": "B1",
            "ticks": 60360,
            "time": 232.15361399999998,
            "velocity": 1
          },
          {
            "duration": 0.11538450000000466,
            "durationTicks": 30,
            "midi": 35,
            "name": "B1",
            "ticks": 60480,
            "time": 232.61515199999997,
            "velocity": 1
          },
          {
            "duration": 0.11153835000001777,
            "durationTicks": 29,
            "midi": 35,
            "name": "B1",
            "ticks": 60600,
            "time": 233.07668999999996,
            "velocity": 1
          },
          {
            "duration": 0.11538449999997624,
            "durationTicks": 30,
            "midi": 35,
            "name": "B1",
            "ticks": 60720,
            "time": 233.53822799999998,
            "velocity": 1
          },
          {
            "duration": 0.12307679999997845,
            "durationTicks": 32,
            "midi": 35,
            "name": "B1",
            "ticks": 60840,
            "time": 233.99976599999997,
            "velocity": 1
          },
          {
            "duration": 0.11538450000000466,
            "durationTicks": 30,
            "midi": 35,
            "name": "B1",
            "ticks": 60960,
            "time": 234.46130399999996,
            "velocity": 1
          },
          {
            "duration": 0.11153834999998935,
            "durationTicks": 29,
            "midi": 35,
            "name": "B1",
            "ticks": 61080,
            "time": 234.92284199999997,
            "velocity": 1
          },
          {
            "duration": 0.11538450000000466,
            "durationTicks": 30,
            "midi": 35,
            "name": "B1",
            "ticks": 61200,
            "time": 235.38437999999996,
            "velocity": 1
          },
          {
            "duration": 0.12307680000000687,
            "durationTicks": 32,
            "midi": 35,
            "name": "B1",
            "ticks": 61320,
            "time": 235.84591799999995,
            "velocity": 1
          },
          {
            "duration": 0.11538449999997624,
            "durationTicks": 30,
            "midi": 35,
            "name": "B1",
            "ticks": 61440,
            "time": 236.30745599999997,
            "velocity": 1
          },
          {
            "duration": 0.11153834999998935,
            "durationTicks": 29,
            "midi": 35,
            "name": "B1",
            "ticks": 61560,
            "time": 236.76899399999996,
            "velocity": 1
          },
          {
            "duration": 0.11538450000000466,
            "durationTicks": 30,
            "midi": 35,
            "name": "B1",
            "ticks": 61680,
            "time": 237.23053199999995,
            "velocity": 1
          },
          {
            "duration": 0.12307679999997845,
            "durationTicks": 32,
            "midi": 35,
            "name": "B1",
            "ticks": 61800,
            "time": 237.69206999999997,
            "velocity": 1
          },
          {
            "duration": 0.11538450000000466,
            "durationTicks": 30,
            "midi": 35,
            "name": "B1",
            "ticks": 61920,
            "time": 238.15360799999996,
            "velocity": 1
          },
          {
            "duration": 0.11153835000001777,
            "durationTicks": 29,
            "midi": 35,
            "name": "B1",
            "ticks": 62040,
            "time": 238.61514599999995,
            "velocity": 1
          },
          {
            "duration": 0.11538450000000466,
            "durationTicks": 30,
            "midi": 35,
            "name": "B1",
            "ticks": 62160,
            "time": 239.07668399999997,
            "velocity": 1
          },
          {
            "duration": 0.12307680000000687,
            "durationTicks": 32,
            "midi": 35,
            "name": "B1",
            "ticks": 62280,
            "time": 239.53822199999996,
            "velocity": 1
          },
          {
            "duration": 0.11538450000000466,
            "durationTicks": 30,
            "midi": 35,
            "name": "B1",
            "ticks": 62400,
            "time": 239.99975999999995,
            "velocity": 1
          },
          {
            "duration": 0.11153834999998935,
            "durationTicks": 29,
            "midi": 35,
            "name": "B1",
            "ticks": 62520,
            "time": 240.46129799999997,
            "velocity": 1
          },
          {
            "duration": 0.11538450000000466,
            "durationTicks": 30,
            "midi": 35,
            "name": "B1",
            "ticks": 62640,
            "time": 240.92283599999996,
            "velocity": 1
          },
          {
            "duration": 0.12307680000000687,
            "durationTicks": 32,
            "midi": 35,
            "name": "B1",
            "ticks": 62760,
            "time": 241.38437399999995,
            "velocity": 1
          },
          {
            "duration": 0.11538450000000466,
            "durationTicks": 30,
            "midi": 35,
            "name": "B1",
            "ticks": 62880,
            "time": 241.84591199999997,
            "velocity": 1
          },
          {
            "duration": 0.11153835000001777,
            "durationTicks": 29,
            "midi": 35,
            "name": "B1",
            "ticks": 63000,
            "time": 242.30744999999996,
            "velocity": 1
          },
          {
            "duration": 0.11538450000000466,
            "durationTicks": 30,
            "midi": 35,
            "name": "B1",
            "ticks": 63120,
            "time": 242.76898799999995,
            "velocity": 1
          },
          {
            "duration": 0.12307679999997845,
            "durationTicks": 32,
            "midi": 35,
            "name": "B1",
            "ticks": 63240,
            "time": 243.23052599999997,
            "velocity": 1
          },
          {
            "duration": 0.11538450000000466,
            "durationTicks": 30,
            "midi": 35,
            "name": "B1",
            "ticks": 63360,
            "time": 243.69206399999996,
            "velocity": 1
          },
          {
            "duration": 0.11153835000001777,
            "durationTicks": 29,
            "midi": 35,
            "name": "B1",
            "ticks": 63480,
            "time": 244.15360199999995,
            "velocity": 1
          },
          {
            "duration": 0.11538450000000466,
            "durationTicks": 30,
            "midi": 35,
            "name": "B1",
            "ticks": 63600,
            "time": 244.61513999999997,
            "velocity": 1
          },
          {
            "duration": 0.12307680000000687,
            "durationTicks": 32,
            "midi": 35,
            "name": "B1",
            "ticks": 63720,
            "time": 245.07667799999996,
            "velocity": 1
          },
          {
            "duration": 0.11538450000000466,
            "durationTicks": 30,
            "midi": 35,
            "name": "B1",
            "ticks": 63840,
            "time": 245.53821599999995,
            "velocity": 1
          },
          {
            "duration": 0.11153834999998935,
            "durationTicks": 29,
            "midi": 35,
            "name": "B1",
            "ticks": 63960,
            "time": 245.99975399999997,
            "velocity": 1
          },
          {
            "duration": 0.11538450000000466,
            "durationTicks": 30,
            "midi": 35,
            "name": "B1",
            "ticks": 64080,
            "time": 246.46129199999996,
            "velocity": 1
          },
          {
            "duration": 0.12307680000000687,
            "durationTicks": 32,
            "midi": 35,
            "name": "B1",
            "ticks": 64200,
            "time": 246.92282999999995,
            "velocity": 1
          },
          {
            "duration": 0.11538450000000466,
            "durationTicks": 30,
            "midi": 35,
            "name": "B1",
            "ticks": 64320,
            "time": 247.38436799999997,
            "velocity": 1
          },
          {
            "duration": 0.11153835000001777,
            "durationTicks": 29,
            "midi": 35,
            "name": "B1",
            "ticks": 64440,
            "time": 247.84590599999996,
            "velocity": 1
          },
          {
            "duration": 0.11538449999997624,
            "durationTicks": 30,
            "midi": 35,
            "name": "B1",
            "ticks": 64560,
            "time": 248.30744399999998,
            "velocity": 1
          },
          {
            "duration": 0.12307679999997845,
            "durationTicks": 32,
            "midi": 35,
            "name": "B1",
            "ticks": 64680,
            "time": 248.76898199999997,
            "velocity": 1
          },
          {
            "duration": 0.11538450000000466,
            "durationTicks": 30,
            "midi": 35,
            "name": "B1",
            "ticks": 64800,
            "time": 249.23051999999996,
            "velocity": 1
          },
          {
            "duration": 0.11153834999998935,
            "durationTicks": 29,
            "midi": 35,
            "name": "B1",
            "ticks": 64920,
            "time": 249.69205799999997,
            "velocity": 1
          },
          {
            "duration": 0.11538450000000466,
            "durationTicks": 30,
            "midi": 35,
            "name": "B1",
            "ticks": 65040,
            "time": 250.15359599999996,
            "velocity": 1
          },
          {
            "duration": 0.12307680000000687,
            "durationTicks": 32,
            "midi": 35,
            "name": "B1",
            "ticks": 65160,
            "time": 250.61513399999995,
            "velocity": 1
          },
          {
            "duration": 0.11538449999997624,
            "durationTicks": 30,
            "midi": 35,
            "name": "B1",
            "ticks": 65280,
            "time": 251.07667199999997,
            "velocity": 1
          },
          {
            "duration": 0.11153834999998935,
            "durationTicks": 29,
            "midi": 35,
            "name": "B1",
            "ticks": 65400,
            "time": 251.53820999999996,
            "velocity": 1
          },
          {
            "duration": 0.11538450000000466,
            "durationTicks": 30,
            "midi": 35,
            "name": "B1",
            "ticks": 65520,
            "time": 251.99974799999995,
            "velocity": 1
          },
          {
            "duration": 0.12307679999997845,
            "durationTicks": 32,
            "midi": 35,
            "name": "B1",
            "ticks": 65640,
            "time": 252.46128599999997,
            "velocity": 1
          },
          {
            "duration": 0.11538450000000466,
            "durationTicks": 30,
            "midi": 35,
            "name": "B1",
            "ticks": 65760,
            "time": 252.92282399999996,
            "velocity": 1
          },
          {
            "duration": 0.11153835000001777,
            "durationTicks": 29,
            "midi": 35,
            "name": "B1",
            "ticks": 65880,
            "time": 253.38436199999995,
            "velocity": 1
          },
          {
            "duration": 0.11538449999997624,
            "durationTicks": 30,
            "midi": 35,
            "name": "B1",
            "ticks": 66000,
            "time": 253.84589999999997,
            "velocity": 1
          },
          {
            "duration": 0.12307679999997845,
            "durationTicks": 32,
            "midi": 35,
            "name": "B1",
            "ticks": 66120,
            "time": 254.30743799999996,
            "velocity": 1
          },
          {
            "duration": 0.11538450000000466,
            "durationTicks": 30,
            "midi": 35,
            "name": "B1",
            "ticks": 66240,
            "time": 254.76897599999995,
            "velocity": 1
          },
          {
            "duration": 0.11153834999998935,
            "durationTicks": 29,
            "midi": 35,
            "name": "B1",
            "ticks": 66360,
            "time": 255.23051399999997,
            "velocity": 1
          },
          {
            "duration": 0.11538450000000466,
            "durationTicks": 30,
            "midi": 35,
            "name": "B1",
            "ticks": 66480,
            "time": 255.69205199999996,
            "velocity": 1
          },
          {
            "duration": 0.12307680000003529,
            "durationTicks": 32,
            "midi": 35,
            "name": "B1",
            "ticks": 66600,
            "time": 256.15358999999995,
            "velocity": 1
          },
          {
            "duration": 0.11538450000000466,
            "durationTicks": 30,
            "midi": 35,
            "name": "B1",
            "ticks": 66720,
            "time": 256.61512799999997,
            "velocity": 1
          },
          {
            "duration": 0.11153834999998935,
            "durationTicks": 29,
            "midi": 35,
            "name": "B1",
            "ticks": 66840,
            "time": 257.076666,
            "velocity": 1
          },
          {
            "duration": 0.11538450000000466,
            "durationTicks": 30,
            "midi": 35,
            "name": "B1",
            "ticks": 66960,
            "time": 257.53820399999995,
            "velocity": 1
          },
          {
            "duration": 0.12307680000003529,
            "durationTicks": 32,
            "midi": 35,
            "name": "B1",
            "ticks": 67080,
            "time": 257.99974199999997,
            "velocity": 1
          },
          {
            "duration": 0.04999995000002855,
            "durationTicks": 13,
            "midi": 35,
            "name": "B1",
            "ticks": 67200,
            "time": 258.46128,
            "velocity": 1
          },
          {
            "duration": 0.07692299999996521,
            "durationTicks": 20,
            "midi": 35,
            "name": "B1",
            "ticks": 67260,
            "time": 258.692049,
            "velocity": 1
          },
          {
            "duration": 0.06538454999997612,
            "durationTicks": 17,
            "midi": 35,
            "name": "B1",
            "ticks": 67320,
            "time": 258.922818,
            "velocity": 1
          },
          {
            "duration": 0.07692299999996521,
            "durationTicks": 20,
            "midi": 35,
            "name": "B1",
            "ticks": 67350,
            "time": 259.0382025,
            "velocity": 1
          },
          {
            "duration": 0.06538455000003296,
            "durationTicks": 17,
            "midi": 35,
            "name": "B1",
            "ticks": 67410,
            "time": 259.26897149999996,
            "velocity": 1
          }
        ]
      },
      {
        "channel": 9,
        "controlChanges": {
          "0": [
            {
              "number": 0,
              "ticks": 0,
              "time": 0,
              "value": 0
            }
          ]
        },
        "pitchBends": [],
        "instrument": {
          "family": "drums",
          "name": "room kit",
          "number": 8
        },
        "name": "Snare 2",
        "notes": [
          {
            "duration": 0.10384605000000136,
            "durationTicks": 27,
            "midi": 38,
            "name": "D2",
            "ticks": 15960,
            "time": 61.38455399999999,
            "velocity": 0.9448818897637795
          },
          {
            "duration": 0.08846144999999694,
            "durationTicks": 23,
            "midi": 38,
            "name": "D2",
            "ticks": 16200,
            "time": 62.30762999999999,
            "velocity": 0.9448818897637795
          },
          {
            "duration": 0.09230759999999094,
            "durationTicks": 24,
            "midi": 38,
            "name": "D2",
            "ticks": 16440,
            "time": 63.23070599999999,
            "velocity": 0.9448818897637795
          },
          {
            "duration": 0.08461529999999584,
            "durationTicks": 22,
            "midi": 38,
            "name": "D2",
            "ticks": 16680,
            "time": 64.15378199999999,
            "velocity": 0.9448818897637795
          },
          {
            "duration": 0.09230759999999805,
            "durationTicks": 24,
            "midi": 38,
            "name": "D2",
            "ticks": 16920,
            "time": 65.07685799999999,
            "velocity": 0.9448818897637795
          },
          {
            "duration": 0.08076915000000895,
            "durationTicks": 21,
            "midi": 38,
            "name": "D2",
            "ticks": 17160,
            "time": 65.999934,
            "velocity": 0.9448818897637795
          },
          {
            "duration": 0.08076915000000895,
            "durationTicks": 21,
            "midi": 38,
            "name": "D2",
            "ticks": 17400,
            "time": 66.92300999999999,
            "velocity": 0.9448818897637795
          },
          {
            "duration": 0.08461530000001005,
            "durationTicks": 22,
            "midi": 38,
            "name": "D2",
            "ticks": 17880,
            "time": 68.769162,
            "velocity": 0.9448818897637795
          },
          {
            "duration": 0.08846145000001115,
            "durationTicks": 23,
            "midi": 38,
            "name": "D2",
            "ticks": 18120,
            "time": 69.69223799999999,
            "velocity": 0.9448818897637795
          },
          {
            "duration": 0.08461529999999584,
            "durationTicks": 22,
            "midi": 38,
            "name": "D2",
            "ticks": 18360,
            "time": 70.615314,
            "velocity": 0.9448818897637795
          },
          {
            "duration": 0.09230759999999805,
            "durationTicks": 24,
            "midi": 38,
            "name": "D2",
            "ticks": 18600,
            "time": 71.53838999999999,
            "velocity": 0.9448818897637795
          },
          {
            "duration": 0.08461529999999584,
            "durationTicks": 22,
            "midi": 38,
            "name": "D2",
            "ticks": 18840,
            "time": 72.461466,
            "velocity": 0.9448818897637795
          },
          {
            "duration": 0.07307684999999253,
            "durationTicks": 19,
            "midi": 38,
            "name": "D2",
            "ticks": 19080,
            "time": 73.384542,
            "velocity": 0.9448818897637795
          },
          {
            "duration": 0.08461529999999584,
            "durationTicks": 22,
            "midi": 38,
            "name": "D2",
            "ticks": 19800,
            "time": 76.15377,
            "velocity": 0.9448818897637795
          },
          {
            "duration": 0.07307685000000674,
            "durationTicks": 19,
            "midi": 38,
            "name": "D2",
            "ticks": 20040,
            "time": 77.07684599999999,
            "velocity": 0.9448818897637795
          },
          {
            "duration": 0.08461529999999584,
            "durationTicks": 22,
            "midi": 38,
            "name": "D2",
            "ticks": 20280,
            "time": 77.999922,
            "velocity": 0.9448818897637795
          },
          {
            "duration": 0.07307685000000674,
            "durationTicks": 19,
            "midi": 38,
            "name": "D2",
            "ticks": 20520,
            "time": 78.92299799999999,
            "velocity": 0.9448818897637795
          },
          {
            "duration": 0.08461529999999584,
            "durationTicks": 22,
            "midi": 38,
            "name": "D2",
            "ticks": 20760,
            "time": 79.846074,
            "velocity": 0.9448818897637795
          },
          {
            "duration": 0.07307684999999253,
            "durationTicks": 19,
            "midi": 38,
            "name": "D2",
            "ticks": 21000,
            "time": 80.76915,
            "velocity": 0.9448818897637795
          },
          {
            "duration": 0.08461530000001005,
            "durationTicks": 22,
            "midi": 38,
            "name": "D2",
            "ticks": 21240,
            "time": 81.69222599999999,
            "velocity": 0.9448818897637795
          },
          {
            "duration": 0.07307684999999253,
            "durationTicks": 19,
            "midi": 38,
            "name": "D2",
            "ticks": 21480,
            "time": 82.615302,
            "velocity": 0.9448818897637795
          },
          {
            "duration": 0.08461529999999584,
            "durationTicks": 22,
            "midi": 38,
            "name": "D2",
            "ticks": 21720,
            "time": 83.538378,
            "velocity": 0.9448818897637795
          },
          {
            "duration": 0.07307685000000674,
            "durationTicks": 19,
            "midi": 38,
            "name": "D2",
            "ticks": 21960,
            "time": 84.46145399999999,
            "velocity": 0.9448818897637795
          },
          {
            "duration": 0.08461529999999584,
            "durationTicks": 22,
            "midi": 38,
            "name": "D2",
            "ticks": 22200,
            "time": 85.38453,
            "velocity": 0.9448818897637795
          },
          {
            "duration": 0.07307685000000674,
            "durationTicks": 19,
            "midi": 38,
            "name": "D2",
            "ticks": 22440,
            "time": 86.30760599999999,
            "velocity": 0.9448818897637795
          },
          {
            "duration": 0.08461530000001005,
            "durationTicks": 22,
            "midi": 38,
            "name": "D2",
            "ticks": 22680,
            "time": 87.23068199999999,
            "velocity": 0.9448818897637795
          },
          {
            "duration": 0.07307684999999253,
            "durationTicks": 19,
            "midi": 38,
            "name": "D2",
            "ticks": 22920,
            "time": 88.153758,
            "velocity": 0.9448818897637795
          },
          {
            "duration": 0.08461529999999584,
            "durationTicks": 22,
            "midi": 38,
            "name": "D2",
            "ticks": 23640,
            "time": 90.922986,
            "velocity": 0.9448818897637795
          },
          {
            "duration": 0.07307685000000674,
            "durationTicks": 19,
            "midi": 38,
            "name": "D2",
            "ticks": 23880,
            "time": 91.84606199999999,
            "velocity": 0.9448818897637795
          },
          {
            "duration": 0.08461529999999584,
            "durationTicks": 22,
            "midi": 38,
            "name": "D2",
            "ticks": 24120,
            "time": 92.769138,
            "velocity": 0.9448818897637795
          },
          {
            "duration": 0.07307684999999253,
            "durationTicks": 19,
            "midi": 38,
            "name": "D2",
            "ticks": 24360,
            "time": 93.69221399999999,
            "velocity": 0.9448818897637795
          },
          {
            "duration": 0.08461529999999584,
            "durationTicks": 22,
            "midi": 38,
            "name": "D2",
            "ticks": 25560,
            "time": 98.307594,
            "velocity": 0.9448818897637795
          },
          {
            "duration": 0.07307685000000674,
            "durationTicks": 19,
            "midi": 38,
            "name": "D2",
            "ticks": 25800,
            "time": 99.23066999999999,
            "velocity": 0.9448818897637795
          },
          {
            "duration": 0.08461529999999584,
            "durationTicks": 22,
            "midi": 38,
            "name": "D2",
            "ticks": 26040,
            "time": 100.153746,
            "velocity": 0.9448818897637795
          },
          {
            "duration": 0.07307684999999253,
            "durationTicks": 19,
            "midi": 38,
            "name": "D2",
            "ticks": 26280,
            "time": 101.07682199999999,
            "velocity": 0.9448818897637795
          },
          {
            "duration": 0.08461529999999584,
            "durationTicks": 22,
            "midi": 38,
            "name": "D2",
            "ticks": 31320,
            "time": 120.461418,
            "velocity": 0.9448818897637795
          },
          {
            "duration": 0.07307685000000674,
            "durationTicks": 19,
            "midi": 38,
            "name": "D2",
            "ticks": 31560,
            "time": 121.38449399999999,
            "velocity": 0.9448818897637795
          },
          {
            "duration": 0.08461530000001005,
            "durationTicks": 22,
            "midi": 38,
            "name": "D2",
            "ticks": 31800,
            "time": 122.30756999999998,
            "velocity": 0.9448818897637795
          },
          {
            "duration": 0.07307685000000674,
            "durationTicks": 19,
            "midi": 38,
            "name": "D2",
            "ticks": 32040,
            "time": 123.230646,
            "velocity": 0.9448818897637795
          },
          {
            "duration": 0.08461530000001005,
            "durationTicks": 22,
            "midi": 38,
            "name": "D2",
            "ticks": 32280,
            "time": 124.15372199999999,
            "velocity": 0.9448818897637795
          },
          {
            "duration": 0.07307685000000674,
            "durationTicks": 19,
            "midi": 38,
            "name": "D2",
            "ticks": 32520,
            "time": 125.076798,
            "velocity": 0.9448818897637795
          },
          {
            "duration": 0.08461529999999584,
            "durationTicks": 22,
            "midi": 38,
            "name": "D2",
            "ticks": 32760,
            "time": 125.99987399999999,
            "velocity": 0.9448818897637795
          },
          {
            "duration": 0.07307685000002095,
            "durationTicks": 19,
            "midi": 38,
            "name": "D2",
            "ticks": 33000,
            "time": 126.92294999999999,
            "velocity": 0.9448818897637795
          },
          {
            "duration": 0.08461529999999584,
            "durationTicks": 22,
            "midi": 38,
            "name": "D2",
            "ticks": 33240,
            "time": 127.846026,
            "velocity": 0.9448818897637795
          },
          {
            "duration": 0.07307685000000674,
            "durationTicks": 19,
            "midi": 38,
            "name": "D2",
            "ticks": 33480,
            "time": 128.76910199999998,
            "velocity": 0.9448818897637795
          },
          {
            "duration": 0.08461529999999584,
            "durationTicks": 22,
            "midi": 38,
            "name": "D2",
            "ticks": 33720,
            "time": 129.69217799999998,
            "velocity": 0.9448818897637795
          },
          {
            "duration": 0.07307685000003517,
            "durationTicks": 19,
            "midi": 38,
            "name": "D2",
            "ticks": 33960,
            "time": 130.61525399999996,
            "velocity": 0.9448818897637795
          },
          {
            "duration": 0.08461529999999584,
            "durationTicks": 22,
            "midi": 38,
            "name": "D2",
            "ticks": 34200,
            "time": 131.53832999999997,
            "velocity": 0.9448818897637795
          },
          {
            "duration": 0.07307685000000674,
            "durationTicks": 19,
            "midi": 38,
            "name": "D2",
            "ticks": 34440,
            "time": 132.46140599999998,
            "velocity": 0.9448818897637795
          },
          {
            "duration": 0.10384604999998714,
            "durationTicks": 27,
            "midi": 38,
            "name": "D2",
            "ticks": 36120,
            "time": 138.922938,
            "velocity": 0.9448818897637795
          },
          {
            "duration": 0.08846145000001115,
            "durationTicks": 23,
            "midi": 38,
            "name": "D2",
            "ticks": 36360,
            "time": 139.84601399999997,
            "velocity": 0.9448818897637795
          },
          {
            "duration": 0.09230759999999805,
            "durationTicks": 24,
            "midi": 38,
            "name": "D2",
            "ticks": 36600,
            "time": 140.76908999999998,
            "velocity": 0.9448818897637795
          },
          {
            "duration": 0.08461529999999584,
            "durationTicks": 22,
            "midi": 38,
            "name": "D2",
            "ticks": 36840,
            "time": 141.692166,
            "velocity": 0.9448818897637795
          },
          {
            "duration": 0.09230759999999805,
            "durationTicks": 24,
            "midi": 38,
            "name": "D2",
            "ticks": 37080,
            "time": 142.61524199999997,
            "velocity": 0.9448818897637795
          },
          {
            "duration": 0.08076915000000895,
            "durationTicks": 21,
            "midi": 38,
            "name": "D2",
            "ticks": 37320,
            "time": 143.53831799999998,
            "velocity": 0.9448818897637795
          },
          {
            "duration": 0.08076914999998053,
            "durationTicks": 21,
            "midi": 38,
            "name": "D2",
            "ticks": 37560,
            "time": 144.46139399999998,
            "velocity": 0.9448818897637795
          },
          {
            "duration": 0.10384605000001557,
            "durationTicks": 27,
            "midi": 38,
            "name": "D2",
            "ticks": 38040,
            "time": 146.30754599999997,
            "velocity": 0.9448818897637795
          },
          {
            "duration": 0.08846144999998273,
            "durationTicks": 23,
            "midi": 38,
            "name": "D2",
            "ticks": 38280,
            "time": 147.23062199999998,
            "velocity": 0.9448818897637795
          },
          {
            "duration": 0.09230759999999805,
            "durationTicks": 24,
            "midi": 38,
            "name": "D2",
            "ticks": 38520,
            "time": 148.15369799999996,
            "velocity": 0.9448818897637795
          },
          {
            "duration": 0.08461529999999584,
            "durationTicks": 22,
            "midi": 38,
            "name": "D2",
            "ticks": 38760,
            "time": 149.07677399999997,
            "velocity": 0.9448818897637795
          },
          {
            "duration": 0.09230759999999805,
            "durationTicks": 24,
            "midi": 38,
            "name": "D2",
            "ticks": 39000,
            "time": 149.99984999999998,
            "velocity": 0.9448818897637795
          },
          {
            "duration": 0.08076915000000895,
            "durationTicks": 21,
            "midi": 38,
            "name": "D2",
            "ticks": 39240,
            "time": 150.92292599999996,
            "velocity": 0.9448818897637795
          },
          {
            "duration": 0.08076915000000895,
            "durationTicks": 21,
            "midi": 38,
            "name": "D2",
            "ticks": 39480,
            "time": 151.84600199999997,
            "velocity": 0.9448818897637795
          },
          {
            "duration": 0.08461529999999584,
            "durationTicks": 22,
            "midi": 38,
            "name": "D2",
            "ticks": 51480,
            "time": 197.99980199999996,
            "velocity": 0.9448818897637795
          },
          {
            "duration": 0.07307685000000674,
            "durationTicks": 19,
            "midi": 38,
            "name": "D2",
            "ticks": 51720,
            "time": 198.92287799999997,
            "velocity": 0.9448818897637795
          },
          {
            "duration": 0.08461529999999584,
            "durationTicks": 22,
            "midi": 38,
            "name": "D2",
            "ticks": 51960,
            "time": 199.84595399999998,
            "velocity": 0.9448818897637795
          },
          {
            "duration": 0.07307685000003517,
            "durationTicks": 19,
            "midi": 38,
            "name": "D2",
            "ticks": 52200,
            "time": 200.76902999999996,
            "velocity": 0.9448818897637795
          },
          {
            "duration": 0.08461529999999584,
            "durationTicks": 22,
            "midi": 38,
            "name": "D2",
            "ticks": 52440,
            "time": 201.69210599999997,
            "velocity": 0.9448818897637795
          },
          {
            "duration": 0.07307685000000674,
            "durationTicks": 19,
            "midi": 38,
            "name": "D2",
            "ticks": 52680,
            "time": 202.61518199999998,
            "velocity": 0.9448818897637795
          },
          {
            "duration": 0.08461530000002426,
            "durationTicks": 22,
            "midi": 38,
            "name": "D2",
            "ticks": 52920,
            "time": 203.53825799999996,
            "velocity": 0.9448818897637795
          },
          {
            "duration": 0.07307685000000674,
            "durationTicks": 19,
            "midi": 38,
            "name": "D2",
            "ticks": 53160,
            "time": 204.46133399999997,
            "velocity": 0.9448818897637795
          },
          {
            "duration": 0.08461529999999584,
            "durationTicks": 22,
            "midi": 38,
            "name": "D2",
            "ticks": 53400,
            "time": 205.38440999999997,
            "velocity": 0.9448818897637795
          },
          {
            "duration": 0.07307685000003517,
            "durationTicks": 19,
            "midi": 38,
            "name": "D2",
            "ticks": 53640,
            "time": 206.30748599999995,
            "velocity": 0.9448818897637795
          },
          {
            "duration": 0.08461529999999584,
            "durationTicks": 22,
            "midi": 38,
            "name": "D2",
            "ticks": 53880,
            "time": 207.23056199999996,
            "velocity": 0.9448818897637795
          },
          {
            "duration": 0.07307685000000674,
            "durationTicks": 19,
            "midi": 38,
            "name": "D2",
            "ticks": 54120,
            "time": 208.15363799999997,
            "velocity": 0.9448818897637795
          },
          {
            "duration": 0.08461530000002426,
            "durationTicks": 22,
            "midi": 38,
            "name": "D2",
            "ticks": 54360,
            "time": 209.07671399999995,
            "velocity": 0.9448818897637795
          },
          {
            "duration": 0.07307685000000674,
            "durationTicks": 19,
            "midi": 38,
            "name": "D2",
            "ticks": 54600,
            "time": 209.99978999999996,
            "velocity": 0.9448818897637795
          },
          {
            "duration": 0.08461529999999584,
            "durationTicks": 22,
            "midi": 38,
            "name": "D2",
            "ticks": 54840,
            "time": 210.92286599999997,
            "velocity": 0.9448818897637795
          },
          {
            "duration": 0.07307685000000674,
            "durationTicks": 19,
            "midi": 38,
            "name": "D2",
            "ticks": 55080,
            "time": 211.84594199999998,
            "velocity": 0.9448818897637795
          },
          {
            "duration": 0.10384605000001557,
            "durationTicks": 27,
            "midi": 38,
            "name": "D2",
            "ticks": 55320,
            "time": 212.76901799999996,
            "velocity": 0.9448818897637795
          },
          {
            "duration": 0.08846144999998273,
            "durationTicks": 23,
            "midi": 38,
            "name": "D2",
            "ticks": 55560,
            "time": 213.69209399999997,
            "velocity": 0.9448818897637795
          },
          {
            "duration": 0.09230759999996963,
            "durationTicks": 24,
            "midi": 38,
            "name": "D2",
            "ticks": 55800,
            "time": 214.61516999999998,
            "velocity": 0.9448818897637795
          },
          {
            "duration": 0.08461529999999584,
            "durationTicks": 22,
            "midi": 38,
            "name": "D2",
            "ticks": 56040,
            "time": 215.53824599999996,
            "velocity": 0.9448818897637795
          },
          {
            "duration": 0.09230759999999805,
            "durationTicks": 24,
            "midi": 38,
            "name": "D2",
            "ticks": 56280,
            "time": 216.46132199999997,
            "velocity": 0.9448818897637795
          },
          {
            "duration": 0.08076914999998053,
            "durationTicks": 21,
            "midi": 38,
            "name": "D2",
            "ticks": 56520,
            "time": 217.38439799999998,
            "velocity": 0.9448818897637795
          },
          {
            "duration": 0.09230759999999805,
            "durationTicks": 24,
            "midi": 38,
            "name": "D2",
            "ticks": 56760,
            "time": 218.30747399999996,
            "velocity": 0.9448818897637795
          },
          {
            "duration": 0.08076915000000895,
            "durationTicks": 21,
            "midi": 38,
            "name": "D2",
            "ticks": 57000,
            "time": 219.23054999999997,
            "velocity": 0.9448818897637795
          },
          {
            "duration": 0.10384604999998714,
            "durationTicks": 27,
            "midi": 38,
            "name": "D2",
            "ticks": 57240,
            "time": 220.15362599999997,
            "velocity": 0.9448818897637795
          },
          {
            "duration": 0.08846145000001115,
            "durationTicks": 23,
            "midi": 38,
            "name": "D2",
            "ticks": 57480,
            "time": 221.07670199999995,
            "velocity": 0.9448818897637795
          },
          {
            "duration": 0.09230759999999805,
            "durationTicks": 24,
            "midi": 38,
            "name": "D2",
            "ticks": 57720,
            "time": 221.99977799999996,
            "velocity": 0.9448818897637795
          },
          {
            "duration": 0.08461529999999584,
            "durationTicks": 22,
            "midi": 38,
            "name": "D2",
            "ticks": 57960,
            "time": 222.92285399999997,
            "velocity": 0.9448818897637795
          },
          {
            "duration": 0.09230759999999805,
            "durationTicks": 24,
            "midi": 38,
            "name": "D2",
            "ticks": 58200,
            "time": 223.84592999999995,
            "velocity": 0.9448818897637795
          },
          {
            "duration": 0.08076915000000895,
            "durationTicks": 21,
            "midi": 38,
            "name": "D2",
            "ticks": 58440,
            "time": 224.76900599999996,
            "velocity": 0.9448818897637795
          },
          {
            "duration": 0.09230759999999805,
            "durationTicks": 24,
            "midi": 38,
            "name": "D2",
            "ticks": 58680,
            "time": 225.69208199999997,
            "velocity": 0.9448818897637795
          },
          {
            "duration": 0.08076915000000895,
            "durationTicks": 21,
            "midi": 38,
            "name": "D2",
            "ticks": 58920,
            "time": 226.61515799999995,
            "velocity": 0.9448818897637795
          },
          {
            "duration": 0.08461529999999584,
            "durationTicks": 22,
            "midi": 38,
            "name": "D2",
            "ticks": 60120,
            "time": 231.23053799999997,
            "velocity": 0.9448818897637795
          },
          {
            "duration": 0.07307685000000674,
            "durationTicks": 19,
            "midi": 38,
            "name": "D2",
            "ticks": 60360,
            "time": 232.15361399999998,
            "velocity": 0.9448818897637795
          },
          {
            "duration": 0.08461529999999584,
            "durationTicks": 22,
            "midi": 38,
            "name": "D2",
            "ticks": 60600,
            "time": 233.07668999999996,
            "velocity": 0.9448818897637795
          },
          {
            "duration": 0.07307685000000674,
            "durationTicks": 19,
            "midi": 38,
            "name": "D2",
            "ticks": 60840,
            "time": 233.99976599999997,
            "velocity": 0.9448818897637795
          },
          {
            "duration": 0.08461529999999584,
            "durationTicks": 22,
            "midi": 38,
            "name": "D2",
            "ticks": 61080,
            "time": 234.92284199999997,
            "velocity": 0.9448818897637795
          },
          {
            "duration": 0.07307685000000674,
            "durationTicks": 19,
            "midi": 38,
            "name": "D2",
            "ticks": 61320,
            "time": 235.84591799999995,
            "velocity": 0.9448818897637795
          },
          {
            "duration": 0.08461529999999584,
            "durationTicks": 22,
            "midi": 38,
            "name": "D2",
            "ticks": 61560,
            "time": 236.76899399999996,
            "velocity": 0.9448818897637795
          },
          {
            "duration": 0.07307685000000674,
            "durationTicks": 19,
            "midi": 38,
            "name": "D2",
            "ticks": 61800,
            "time": 237.69206999999997,
            "velocity": 0.9448818897637795
          },
          {
            "duration": 0.08461529999999584,
            "durationTicks": 22,
            "midi": 38,
            "name": "D2",
            "ticks": 62040,
            "time": 238.61514599999995,
            "velocity": 0.9448818897637795
          },
          {
            "duration": 0.07307684999997832,
            "durationTicks": 19,
            "midi": 38,
            "name": "D2",
            "ticks": 62280,
            "time": 239.53822199999996,
            "velocity": 0.9448818897637795
          },
          {
            "duration": 0.08461529999996742,
            "durationTicks": 22,
            "midi": 38,
            "name": "D2",
            "ticks": 62520,
            "time": 240.46129799999997,
            "velocity": 0.9448818897637795
          },
          {
            "duration": 0.07307685000000674,
            "durationTicks": 19,
            "midi": 38,
            "name": "D2",
            "ticks": 62760,
            "time": 241.38437399999995,
            "velocity": 0.9448818897637795
          },
          {
            "duration": 0.08461529999996742,
            "durationTicks": 22,
            "midi": 38,
            "name": "D2",
            "ticks": 63000,
            "time": 242.30744999999996,
            "velocity": 0.9448818897637795
          },
          {
            "duration": 0.07307684999997832,
            "durationTicks": 19,
            "midi": 38,
            "name": "D2",
            "ticks": 63240,
            "time": 243.23052599999997,
            "velocity": 0.9448818897637795
          },
          {
            "duration": 0.08461529999999584,
            "durationTicks": 22,
            "midi": 38,
            "name": "D2",
            "ticks": 63480,
            "time": 244.15360199999995,
            "velocity": 0.9448818897637795
          },
          {
            "duration": 0.07307684999997832,
            "durationTicks": 19,
            "midi": 38,
            "name": "D2",
            "ticks": 63720,
            "time": 245.07667799999996,
            "velocity": 0.9448818897637795
          },
          {
            "duration": 0.10384605000001557,
            "durationTicks": 27,
            "midi": 38,
            "name": "D2",
            "ticks": 63960,
            "time": 245.99975399999997,
            "velocity": 0.9448818897637795
          },
          {
            "duration": 0.08846145000003958,
            "durationTicks": 23,
            "midi": 38,
            "name": "D2",
            "ticks": 64200,
            "time": 246.92282999999995,
            "velocity": 0.9448818897637795
          },
          {
            "duration": 0.09230760000002647,
            "durationTicks": 24,
            "midi": 38,
            "name": "D2",
            "ticks": 64440,
            "time": 247.84590599999996,
            "velocity": 0.9448818897637795
          },
          {
            "duration": 0.08461529999996742,
            "durationTicks": 22,
            "midi": 38,
            "name": "D2",
            "ticks": 64680,
            "time": 248.76898199999997,
            "velocity": 0.9448818897637795
          },
          {
            "duration": 0.09230759999999805,
            "durationTicks": 24,
            "midi": 38,
            "name": "D2",
            "ticks": 64920,
            "time": 249.69205799999997,
            "velocity": 0.9448818897637795
          },
          {
            "duration": 0.08076914999998053,
            "durationTicks": 21,
            "midi": 38,
            "name": "D2",
            "ticks": 65160,
            "time": 250.61513399999995,
            "velocity": 0.9448818897637795
          },
          {
            "duration": 0.09230760000002647,
            "durationTicks": 24,
            "midi": 38,
            "name": "D2",
            "ticks": 65400,
            "time": 251.53820999999996,
            "velocity": 0.9448818897637795
          },
          {
            "duration": 0.08076914999998053,
            "durationTicks": 21,
            "midi": 38,
            "name": "D2",
            "ticks": 65640,
            "time": 252.46128599999997,
            "velocity": 0.9448818897637795
          },
          {
            "duration": 0.10384605000001557,
            "durationTicks": 27,
            "midi": 38,
            "name": "D2",
            "ticks": 65880,
            "time": 253.38436199999995,
            "velocity": 0.9448818897637795
          },
          {
            "duration": 0.08846145000001115,
            "durationTicks": 23,
            "midi": 38,
            "name": "D2",
            "ticks": 66120,
            "time": 254.30743799999996,
            "velocity": 0.9448818897637795
          },
          {
            "duration": 0.09230759999999805,
            "durationTicks": 24,
            "midi": 38,
            "name": "D2",
            "ticks": 66360,
            "time": 255.23051399999997,
            "velocity": 0.9448818897637795
          },
          {
            "duration": 0.08461529999999584,
            "durationTicks": 22,
            "midi": 38,
            "name": "D2",
            "ticks": 66600,
            "time": 256.15358999999995,
            "velocity": 0.9448818897637795
          },
          {
            "duration": 0.09230760000002647,
            "durationTicks": 24,
            "midi": 38,
            "name": "D2",
            "ticks": 66840,
            "time": 257.076666,
            "velocity": 0.9448818897637795
          },
          {
            "duration": 0.08076914999998053,
            "durationTicks": 21,
            "midi": 38,
            "name": "D2",
            "ticks": 67080,
            "time": 257.99974199999997,
            "velocity": 0.9448818897637795
          }
        ]
      },
      {
        "channel": 9,
        "controlChanges": {
          "0": [
            {
              "number": 0,
              "ticks": 0,
              "time": 0,
              "value": 0
            }
          ]
        },
        "pitchBends": [],
        "instrument": {
          "family": "drums",
          "name": "room kit",
          "number": 8
        },
        "name": "Open hihat",
        "notes": [
          {
            "duration": 0.09999990000000025,
            "durationTicks": 26,
            "midi": 46,
            "name": "A#2",
            "ticks": 15900,
            "time": 61.15378499999999,
            "velocity": 0.7874015748031497
          },
          {
            "duration": 0.11153835000000356,
            "durationTicks": 29,
            "midi": 46,
            "name": "A#2",
            "ticks": 16020,
            "time": 61.61532299999999,
            "velocity": 0.7874015748031497
          },
          {
            "duration": 0.11153835000000356,
            "durationTicks": 29,
            "midi": 46,
            "name": "A#2",
            "ticks": 16140,
            "time": 62.07686099999999,
            "velocity": 0.7874015748031497
          },
          {
            "duration": 0.09615375000000626,
            "durationTicks": 25,
            "midi": 46,
            "name": "A#2",
            "ticks": 16260,
            "time": 62.53839899999999,
            "velocity": 0.7874015748031497
          },
          {
            "duration": 0.09999990000000025,
            "durationTicks": 26,
            "midi": 46,
            "name": "A#2",
            "ticks": 16380,
            "time": 62.99993699999999,
            "velocity": 0.7874015748031497
          },
          {
            "duration": 0.11153835000000356,
            "durationTicks": 29,
            "midi": 46,
            "name": "A#2",
            "ticks": 16500,
            "time": 63.46147499999999,
            "velocity": 0.7874015748031497
          },
          {
            "duration": 0.11153835000001067,
            "durationTicks": 29,
            "midi": 46,
            "name": "A#2",
            "ticks": 16620,
            "time": 63.92301299999999,
            "velocity": 0.7874015748031497
          },
          {
            "duration": 0.09615375000001336,
            "durationTicks": 25,
            "midi": 46,
            "name": "A#2",
            "ticks": 16740,
            "time": 64.38455099999999,
            "velocity": 0.7874015748031497
          },
          {
            "duration": 0.09999990000000025,
            "durationTicks": 26,
            "midi": 46,
            "name": "A#2",
            "ticks": 16860,
            "time": 64.84608899999999,
            "velocity": 0.7874015748031497
          },
          {
            "duration": 0.11153835000000356,
            "durationTicks": 29,
            "midi": 46,
            "name": "A#2",
            "ticks": 16980,
            "time": 65.307627,
            "velocity": 0.7874015748031497
          },
          {
            "duration": 0.11153835000001777,
            "durationTicks": 29,
            "midi": 46,
            "name": "A#2",
            "ticks": 17100,
            "time": 65.76916499999999,
            "velocity": 0.7874015748031497
          },
          {
            "duration": 0.09615375000001336,
            "durationTicks": 25,
            "midi": 46,
            "name": "A#2",
            "ticks": 17220,
            "time": 66.23070299999999,
            "velocity": 0.7874015748031497
          },
          {
            "duration": 0.09999990000000025,
            "durationTicks": 26,
            "midi": 46,
            "name": "A#2",
            "ticks": 17340,
            "time": 66.692241,
            "velocity": 0.7874015748031497
          },
          {
            "duration": 0.11153835000000356,
            "durationTicks": 29,
            "midi": 46,
            "name": "A#2",
            "ticks": 17460,
            "time": 67.153779,
            "velocity": 0.7874015748031497
          },
          {
            "duration": 0.11153835000000356,
            "durationTicks": 29,
            "midi": 46,
            "name": "A#2",
            "ticks": 17580,
            "time": 67.61531699999999,
            "velocity": 0.7874015748031497
          },
          {
            "duration": 0.09615374999999915,
            "durationTicks": 25,
            "midi": 46,
            "name": "A#2",
            "ticks": 17700,
            "time": 68.076855,
            "velocity": 0.7874015748031497
          },
          {
            "duration": 0.09999990000000025,
            "durationTicks": 26,
            "midi": 46,
            "name": "A#2",
            "ticks": 17820,
            "time": 68.538393,
            "velocity": 0.7874015748031497
          },
          {
            "duration": 0.11153835000000356,
            "durationTicks": 29,
            "midi": 46,
            "name": "A#2",
            "ticks": 17940,
            "time": 68.99993099999999,
            "velocity": 0.7874015748031497
          },
          {
            "duration": 0.11153835000000356,
            "durationTicks": 29,
            "midi": 46,
            "name": "A#2",
            "ticks": 18060,
            "time": 69.461469,
            "velocity": 0.7874015748031497
          },
          {
            "duration": 0.09615374999999915,
            "durationTicks": 25,
            "midi": 46,
            "name": "A#2",
            "ticks": 18180,
            "time": 69.923007,
            "velocity": 0.7874015748031497
          },
          {
            "duration": 0.09999990000000025,
            "durationTicks": 26,
            "midi": 46,
            "name": "A#2",
            "ticks": 18300,
            "time": 70.384545,
            "velocity": 0.7874015748031497
          },
          {
            "duration": 0.11153835000000356,
            "durationTicks": 29,
            "midi": 46,
            "name": "A#2",
            "ticks": 18420,
            "time": 70.846083,
            "velocity": 0.7874015748031497
          },
          {
            "duration": 0.11153835000000356,
            "durationTicks": 29,
            "midi": 46,
            "name": "A#2",
            "ticks": 18540,
            "time": 71.307621,
            "velocity": 0.7874015748031497
          },
          {
            "duration": 0.09615374999999915,
            "durationTicks": 25,
            "midi": 46,
            "name": "A#2",
            "ticks": 18660,
            "time": 71.769159,
            "velocity": 0.7874015748031497
          },
          {
            "duration": 0.09999990000000025,
            "durationTicks": 26,
            "midi": 46,
            "name": "A#2",
            "ticks": 18780,
            "time": 72.23069699999999,
            "velocity": 0.7874015748031497
          },
          {
            "duration": 0.11153835000000356,
            "durationTicks": 29,
            "midi": 46,
            "name": "A#2",
            "ticks": 18900,
            "time": 72.692235,
            "velocity": 0.7874015748031497
          },
          {
            "duration": 0.11153835000000356,
            "durationTicks": 29,
            "midi": 46,
            "name": "A#2",
            "ticks": 19020,
            "time": 73.153773,
            "velocity": 0.7874015748031497
          },
          {
            "duration": 0.09615375000001336,
            "durationTicks": 25,
            "midi": 46,
            "name": "A#2",
            "ticks": 19140,
            "time": 73.61531099999999,
            "velocity": 0.7874015748031497
          },
          {
            "duration": 0.09999990000000025,
            "durationTicks": 26,
            "midi": 46,
            "name": "A#2",
            "ticks": 23580,
            "time": 90.692217,
            "velocity": 0.7874015748031497
          },
          {
            "duration": 0.11153835000000356,
            "durationTicks": 29,
            "midi": 46,
            "name": "A#2",
            "ticks": 23700,
            "time": 91.15375499999999,
            "velocity": 0.7874015748031497
          },
          {
            "duration": 0.11153835000000356,
            "durationTicks": 29,
            "midi": 46,
            "name": "A#2",
            "ticks": 23820,
            "time": 91.615293,
            "velocity": 0.7874015748031497
          },
          {
            "duration": 0.09615374999999915,
            "durationTicks": 25,
            "midi": 46,
            "name": "A#2",
            "ticks": 23940,
            "time": 92.076831,
            "velocity": 0.7874015748031497
          },
          {
            "duration": 0.09999990000000025,
            "durationTicks": 26,
            "midi": 46,
            "name": "A#2",
            "ticks": 24060,
            "time": 92.53836899999999,
            "velocity": 0.7874015748031497
          },
          {
            "duration": 0.11153835000000356,
            "durationTicks": 29,
            "midi": 46,
            "name": "A#2",
            "ticks": 24180,
            "time": 92.999907,
            "velocity": 0.7874015748031497
          },
          {
            "duration": 0.11153835000000356,
            "durationTicks": 29,
            "midi": 46,
            "name": "A#2",
            "ticks": 24300,
            "time": 93.461445,
            "velocity": 0.7874015748031497
          },
          {
            "duration": 0.09615375000001336,
            "durationTicks": 25,
            "midi": 46,
            "name": "A#2",
            "ticks": 24420,
            "time": 93.92298299999999,
            "velocity": 0.7874015748031497
          },
          {
            "duration": 0.09999990000000025,
            "durationTicks": 26,
            "midi": 46,
            "name": "A#2",
            "ticks": 24540,
            "time": 94.38452099999999,
            "velocity": 0.7874015748031497
          },
          {
            "duration": 0.11153835000000356,
            "durationTicks": 29,
            "midi": 46,
            "name": "A#2",
            "ticks": 24660,
            "time": 94.846059,
            "velocity": 0.7874015748031497
          },
          {
            "duration": 0.11153835000000356,
            "durationTicks": 29,
            "midi": 46,
            "name": "A#2",
            "ticks": 24780,
            "time": 95.30759699999999,
            "velocity": 0.7874015748031497
          },
          {
            "duration": 0.09615374999999915,
            "durationTicks": 25,
            "midi": 46,
            "name": "A#2",
            "ticks": 24900,
            "time": 95.76913499999999,
            "velocity": 0.7874015748031497
          },
          {
            "duration": 0.09999990000000025,
            "durationTicks": 26,
            "midi": 46,
            "name": "A#2",
            "ticks": 25020,
            "time": 96.230673,
            "velocity": 0.7874015748031497
          },
          {
            "duration": 0.11153835000000356,
            "durationTicks": 29,
            "midi": 46,
            "name": "A#2",
            "ticks": 25140,
            "time": 96.69221099999999,
            "velocity": 0.7874015748031497
          },
          {
            "duration": 0.11153835000000356,
            "durationTicks": 29,
            "midi": 46,
            "name": "A#2",
            "ticks": 25260,
            "time": 97.15374899999999,
            "velocity": 0.7874015748031497
          },
          {
            "duration": 0.09615374999999915,
            "durationTicks": 25,
            "midi": 46,
            "name": "A#2",
            "ticks": 25380,
            "time": 97.615287,
            "velocity": 0.7874015748031497
          },
          {
            "duration": 0.09999990000000025,
            "durationTicks": 26,
            "midi": 46,
            "name": "A#2",
            "ticks": 25500,
            "time": 98.076825,
            "velocity": 0.7874015748031497
          },
          {
            "duration": 0.11153835000000356,
            "durationTicks": 29,
            "midi": 46,
            "name": "A#2",
            "ticks": 25620,
            "time": 98.53836299999999,
            "velocity": 0.7874015748031497
          },
          {
            "duration": 0.11153835000000356,
            "durationTicks": 29,
            "midi": 46,
            "name": "A#2",
            "ticks": 25740,
            "time": 98.999901,
            "velocity": 0.7874015748031497
          },
          {
            "duration": 0.09615374999999915,
            "durationTicks": 25,
            "midi": 46,
            "name": "A#2",
            "ticks": 25860,
            "time": 99.461439,
            "velocity": 0.7874015748031497
          },
          {
            "duration": 0.09999990000000025,
            "durationTicks": 26,
            "midi": 46,
            "name": "A#2",
            "ticks": 25980,
            "time": 99.92297699999999,
            "velocity": 0.7874015748031497
          },
          {
            "duration": 0.11153835000000356,
            "durationTicks": 29,
            "midi": 46,
            "name": "A#2",
            "ticks": 26100,
            "time": 100.384515,
            "velocity": 0.7874015748031497
          },
          {
            "duration": 0.11153835000000356,
            "durationTicks": 29,
            "midi": 46,
            "name": "A#2",
            "ticks": 26220,
            "time": 100.846053,
            "velocity": 0.7874015748031497
          },
          {
            "duration": 0.09615375000001336,
            "durationTicks": 25,
            "midi": 46,
            "name": "A#2",
            "ticks": 26340,
            "time": 101.30759099999999,
            "velocity": 0.7874015748031497
          },
          {
            "duration": 0.09999989999998604,
            "durationTicks": 26,
            "midi": 46,
            "name": "A#2",
            "ticks": 31260,
            "time": 120.23064899999999,
            "velocity": 0.7874015748031497
          },
          {
            "duration": 0.11153835000000356,
            "durationTicks": 29,
            "midi": 46,
            "name": "A#2",
            "ticks": 31380,
            "time": 120.69218699999999,
            "velocity": 0.7874015748031497
          },
          {
            "duration": 0.11153835000000356,
            "durationTicks": 29,
            "midi": 46,
            "name": "A#2",
            "ticks": 31500,
            "time": 121.153725,
            "velocity": 0.7874015748031497
          },
          {
            "duration": 0.09615374999999915,
            "durationTicks": 25,
            "midi": 46,
            "name": "A#2",
            "ticks": 31620,
            "time": 121.61526299999998,
            "velocity": 0.7874015748031497
          },
          {
            "duration": 0.09999989999998604,
            "durationTicks": 26,
            "midi": 46,
            "name": "A#2",
            "ticks": 31740,
            "time": 122.07680099999999,
            "velocity": 0.7874015748031497
          },
          {
            "duration": 0.11153835000000356,
            "durationTicks": 29,
            "midi": 46,
            "name": "A#2",
            "ticks": 31860,
            "time": 122.538339,
            "velocity": 0.7874015748031497
          },
          {
            "duration": 0.11153835000000356,
            "durationTicks": 29,
            "midi": 46,
            "name": "A#2",
            "ticks": 31980,
            "time": 122.99987699999998,
            "velocity": 0.7874015748031497
          },
          {
            "duration": 0.09615374999999915,
            "durationTicks": 25,
            "midi": 46,
            "name": "A#2",
            "ticks": 32100,
            "time": 123.46141499999999,
            "velocity": 0.7874015748031497
          },
          {
            "duration": 0.09999989999998604,
            "durationTicks": 26,
            "midi": 46,
            "name": "A#2",
            "ticks": 32220,
            "time": 123.92295299999999,
            "velocity": 0.7874015748031497
          },
          {
            "duration": 0.11153835000000356,
            "durationTicks": 29,
            "midi": 46,
            "name": "A#2",
            "ticks": 32340,
            "time": 124.38449099999998,
            "velocity": 0.7874015748031497
          },
          {
            "duration": 0.11153835000000356,
            "durationTicks": 29,
            "midi": 46,
            "name": "A#2",
            "ticks": 32460,
            "time": 124.84602899999999,
            "velocity": 0.7874015748031497
          },
          {
            "duration": 0.09615374999998494,
            "durationTicks": 25,
            "midi": 46,
            "name": "A#2",
            "ticks": 32580,
            "time": 125.30756699999999,
            "velocity": 0.7874015748031497
          },
          {
            "duration": 0.09999989999998604,
            "durationTicks": 26,
            "midi": 46,
            "name": "A#2",
            "ticks": 32700,
            "time": 125.769105,
            "velocity": 0.7874015748031497
          },
          {
            "duration": 0.11153835000000356,
            "durationTicks": 29,
            "midi": 46,
            "name": "A#2",
            "ticks": 32820,
            "time": 126.23064299999999,
            "velocity": 0.7874015748031497
          },
          {
            "duration": 0.11153835000000356,
            "durationTicks": 29,
            "midi": 46,
            "name": "A#2",
            "ticks": 32940,
            "time": 126.69218099999999,
            "velocity": 0.7874015748031497
          },
          {
            "duration": 0.09615374999998494,
            "durationTicks": 25,
            "midi": 46,
            "name": "A#2",
            "ticks": 33060,
            "time": 127.153719,
            "velocity": 0.7874015748031497
          },
          {
            "duration": 0.09999989999998604,
            "durationTicks": 26,
            "midi": 46,
            "name": "A#2",
            "ticks": 33180,
            "time": 127.61525699999999,
            "velocity": 0.7874015748031497
          },
          {
            "duration": 0.11153835000001777,
            "durationTicks": 29,
            "midi": 46,
            "name": "A#2",
            "ticks": 33300,
            "time": 128.07679499999998,
            "velocity": 0.7874015748031497
          },
          {
            "duration": 0.11153834999998935,
            "durationTicks": 29,
            "midi": 46,
            "name": "A#2",
            "ticks": 33420,
            "time": 128.538333,
            "velocity": 0.7874015748031497
          },
          {
            "duration": 0.09615374999998494,
            "durationTicks": 25,
            "midi": 46,
            "name": "A#2",
            "ticks": 33540,
            "time": 128.99987099999998,
            "velocity": 0.7874015748031497
          },
          {
            "duration": 0.09999990000000025,
            "durationTicks": 26,
            "midi": 46,
            "name": "A#2",
            "ticks": 33660,
            "time": 129.46140899999997,
            "velocity": 0.7874015748031497
          },
          {
            "duration": 0.11153835000001777,
            "durationTicks": 29,
            "midi": 46,
            "name": "A#2",
            "ticks": 33780,
            "time": 129.92294699999997,
            "velocity": 0.7874015748031497
          },
          {
            "duration": 0.11153834999998935,
            "durationTicks": 29,
            "midi": 46,
            "name": "A#2",
            "ticks": 33900,
            "time": 130.38448499999998,
            "velocity": 0.7874015748031497
          },
          {
            "duration": 0.09615374999998494,
            "durationTicks": 25,
            "midi": 46,
            "name": "A#2",
            "ticks": 34020,
            "time": 130.84602299999997,
            "velocity": 0.7874015748031497
          },
          {
            "duration": 0.09999990000000025,
            "durationTicks": 26,
            "midi": 46,
            "name": "A#2",
            "ticks": 34140,
            "time": 131.30756099999996,
            "velocity": 0.7874015748031497
          },
          {
            "duration": 0.11153834999998935,
            "durationTicks": 29,
            "midi": 46,
            "name": "A#2",
            "ticks": 34260,
            "time": 131.76909899999998,
            "velocity": 0.7874015748031497
          },
          {
            "duration": 0.11153835000001777,
            "durationTicks": 29,
            "midi": 46,
            "name": "A#2",
            "ticks": 34380,
            "time": 132.23063699999997,
            "velocity": 0.7874015748031497
          },
          {
            "duration": 0.09615375000001336,
            "durationTicks": 25,
            "midi": 46,
            "name": "A#2",
            "ticks": 34500,
            "time": 132.69217499999996,
            "velocity": 0.7874015748031497
          },
          {
            "duration": 0.09999989999997183,
            "durationTicks": 26,
            "midi": 46,
            "name": "A#2",
            "ticks": 36060,
            "time": 138.69216899999998,
            "velocity": 0.7874015748031497
          },
          {
            "duration": 0.11153835000001777,
            "durationTicks": 29,
            "midi": 46,
            "name": "A#2",
            "ticks": 36180,
            "time": 139.15370699999997,
            "velocity": 0.7874015748031497
          },
          {
            "duration": 0.11153834999998935,
            "durationTicks": 29,
            "midi": 46,
            "name": "A#2",
            "ticks": 36300,
            "time": 139.615245,
            "velocity": 0.7874015748031497
          },
          {
            "duration": 0.09615374999998494,
            "durationTicks": 25,
            "midi": 46,
            "name": "A#2",
            "ticks": 36420,
            "time": 140.07678299999998,
            "velocity": 0.7874015748031497
          },
          {
            "duration": 0.09999990000000025,
            "durationTicks": 26,
            "midi": 46,
            "name": "A#2",
            "ticks": 36540,
            "time": 140.53832099999997,
            "velocity": 0.7874015748031497
          },
          {
            "duration": 0.11153834999998935,
            "durationTicks": 29,
            "midi": 46,
            "name": "A#2",
            "ticks": 36660,
            "time": 140.999859,
            "velocity": 0.7874015748031497
          },
          {
            "duration": 0.11153834999998935,
            "durationTicks": 29,
            "midi": 46,
            "name": "A#2",
            "ticks": 36780,
            "time": 141.46139699999998,
            "velocity": 0.7874015748031497
          },
          {
            "duration": 0.09615374999998494,
            "durationTicks": 25,
            "midi": 46,
            "name": "A#2",
            "ticks": 36900,
            "time": 141.92293499999997,
            "velocity": 0.7874015748031497
          },
          {
            "duration": 0.09999989999997183,
            "durationTicks": 26,
            "midi": 46,
            "name": "A#2",
            "ticks": 37020,
            "time": 142.38447299999999,
            "velocity": 0.7874015748031497
          },
          {
            "duration": 0.11153834999998935,
            "durationTicks": 29,
            "midi": 46,
            "name": "A#2",
            "ticks": 37140,
            "time": 142.84601099999998,
            "velocity": 0.7874015748031497
          },
          {
            "duration": 0.11153835000001777,
            "durationTicks": 29,
            "midi": 46,
            "name": "A#2",
            "ticks": 37260,
            "time": 143.30754899999997,
            "velocity": 0.7874015748031497
          },
          {
            "duration": 0.09615374999998494,
            "durationTicks": 25,
            "midi": 46,
            "name": "A#2",
            "ticks": 37380,
            "time": 143.76908699999998,
            "velocity": 0.7874015748031497
          },
          {
            "duration": 0.09999990000000025,
            "durationTicks": 26,
            "midi": 46,
            "name": "A#2",
            "ticks": 37500,
            "time": 144.23062499999997,
            "velocity": 0.7874015748031497
          },
          {
            "duration": 0.11153835000001777,
            "durationTicks": 29,
            "midi": 46,
            "name": "A#2",
            "ticks": 37620,
            "time": 144.69216299999997,
            "velocity": 0.7874015748031497
          },
          {
            "duration": 0.11153834999998935,
            "durationTicks": 29,
            "midi": 46,
            "name": "A#2",
            "ticks": 37740,
            "time": 145.15370099999998,
            "velocity": 0.7874015748031497
          },
          {
            "duration": 0.09615374999998494,
            "durationTicks": 25,
            "midi": 46,
            "name": "A#2",
            "ticks": 37860,
            "time": 145.61523899999997,
            "velocity": 0.7874015748031497
          },
          {
            "duration": 0.09999990000000025,
            "durationTicks": 26,
            "midi": 46,
            "name": "A#2",
            "ticks": 37980,
            "time": 146.07677699999996,
            "velocity": 0.7874015748031497
          },
          {
            "duration": 0.11153834999998935,
            "durationTicks": 29,
            "midi": 46,
            "name": "A#2",
            "ticks": 38100,
            "time": 146.53831499999998,
            "velocity": 0.7874015748031497
          },
          {
            "duration": 0.11153834999998935,
            "durationTicks": 29,
            "midi": 46,
            "name": "A#2",
            "ticks": 38220,
            "time": 146.99985299999997,
            "velocity": 0.7874015748031497
          },
          {
            "duration": 0.09615375000001336,
            "durationTicks": 25,
            "midi": 46,
            "name": "A#2",
            "ticks": 38340,
            "time": 147.46139099999996,
            "velocity": 0.7874015748031497
          },
          {
            "duration": 0.09999989999997183,
            "durationTicks": 26,
            "midi": 46,
            "name": "A#2",
            "ticks": 38460,
            "time": 147.92292899999998,
            "velocity": 0.7874015748031497
          },
          {
            "duration": 0.11153835000001777,
            "durationTicks": 29,
            "midi": 46,
            "name": "A#2",
            "ticks": 38580,
            "time": 148.38446699999997,
            "velocity": 0.7874015748031497
          },
          {
            "duration": 0.11153835000001777,
            "durationTicks": 29,
            "midi": 46,
            "name": "A#2",
            "ticks": 38700,
            "time": 148.84600499999996,
            "velocity": 0.7874015748031497
          },
          {
            "duration": 0.09615374999998494,
            "durationTicks": 25,
            "midi": 46,
            "name": "A#2",
            "ticks": 38820,
            "time": 149.30754299999998,
            "velocity": 0.7874015748031497
          },
          {
            "duration": 0.09999990000000025,
            "durationTicks": 26,
            "midi": 46,
            "name": "A#2",
            "ticks": 38940,
            "time": 149.76908099999997,
            "velocity": 0.7874015748031497
          },
          {
            "duration": 0.11153835000001777,
            "durationTicks": 29,
            "midi": 46,
            "name": "A#2",
            "ticks": 39060,
            "time": 150.23061899999996,
            "velocity": 0.7874015748031497
          },
          {
            "duration": 0.11153834999998935,
            "durationTicks": 29,
            "midi": 46,
            "name": "A#2",
            "ticks": 39180,
            "time": 150.69215699999998,
            "velocity": 0.7874015748031497
          },
          {
            "duration": 0.09615374999998494,
            "durationTicks": 25,
            "midi": 46,
            "name": "A#2",
            "ticks": 39300,
            "time": 151.15369499999997,
            "velocity": 0.7874015748031497
          },
          {
            "duration": 0.09999990000000025,
            "durationTicks": 26,
            "midi": 46,
            "name": "A#2",
            "ticks": 39420,
            "time": 151.61523299999996,
            "velocity": 0.7874015748031497
          },
          {
            "duration": 0.11153834999998935,
            "durationTicks": 29,
            "midi": 46,
            "name": "A#2",
            "ticks": 39540,
            "time": 152.07677099999998,
            "velocity": 0.7874015748031497
          },
          {
            "duration": 0.11153835000001777,
            "durationTicks": 29,
            "midi": 46,
            "name": "A#2",
            "ticks": 39660,
            "time": 152.53830899999997,
            "velocity": 0.7874015748031497
          },
          {
            "duration": 0.09615375000001336,
            "durationTicks": 25,
            "midi": 46,
            "name": "A#2",
            "ticks": 39780,
            "time": 152.99984699999996,
            "velocity": 0.7874015748031497
          },
          {
            "duration": 0.09999989999997183,
            "durationTicks": 26,
            "midi": 46,
            "name": "A#2",
            "ticks": 51420,
            "time": 197.76903299999998,
            "velocity": 0.7874015748031497
          },
          {
            "duration": 0.11153834999998935,
            "durationTicks": 29,
            "midi": 46,
            "name": "A#2",
            "ticks": 51540,
            "time": 198.23057099999997,
            "velocity": 0.7874015748031497
          },
          {
            "duration": 0.11153835000001777,
            "durationTicks": 29,
            "midi": 46,
            "name": "A#2",
            "ticks": 51660,
            "time": 198.69210899999996,
            "velocity": 0.7874015748031497
          },
          {
            "duration": 0.09615374999998494,
            "durationTicks": 25,
            "midi": 46,
            "name": "A#2",
            "ticks": 51780,
            "time": 199.15364699999998,
            "velocity": 0.7874015748031497
          },
          {
            "duration": 0.09999990000000025,
            "durationTicks": 26,
            "midi": 46,
            "name": "A#2",
            "ticks": 51900,
            "time": 199.61518499999997,
            "velocity": 0.7874015748031497
          },
          {
            "duration": 0.11153835000001777,
            "durationTicks": 29,
            "midi": 46,
            "name": "A#2",
            "ticks": 52020,
            "time": 200.07672299999996,
            "velocity": 0.7874015748031497
          },
          {
            "duration": 0.11153834999998935,
            "durationTicks": 29,
            "midi": 46,
            "name": "A#2",
            "ticks": 52140,
            "time": 200.53826099999998,
            "velocity": 0.7874015748031497
          },
          {
            "duration": 0.09615374999998494,
            "durationTicks": 25,
            "midi": 46,
            "name": "A#2",
            "ticks": 52260,
            "time": 200.99979899999997,
            "velocity": 0.7874015748031497
          },
          {
            "duration": 0.09999990000000025,
            "durationTicks": 26,
            "midi": 46,
            "name": "A#2",
            "ticks": 52380,
            "time": 201.46133699999996,
            "velocity": 0.7874015748031497
          },
          {
            "duration": 0.11153834999998935,
            "durationTicks": 29,
            "midi": 46,
            "name": "A#2",
            "ticks": 52500,
            "time": 201.92287499999998,
            "velocity": 0.7874015748031497
          },
          {
            "duration": 0.11153835000001777,
            "durationTicks": 29,
            "midi": 46,
            "name": "A#2",
            "ticks": 52620,
            "time": 202.38441299999997,
            "velocity": 0.7874015748031497
          },
          {
            "duration": 0.09615375000001336,
            "durationTicks": 25,
            "midi": 46,
            "name": "A#2",
            "ticks": 52740,
            "time": 202.84595099999996,
            "velocity": 0.7874015748031497
          },
          {
            "duration": 0.09999989999997183,
            "durationTicks": 26,
            "midi": 46,
            "name": "A#2",
            "ticks": 52860,
            "time": 203.30748899999998,
            "velocity": 0.7874015748031497
          },
          {
            "duration": 0.11153835000001777,
            "durationTicks": 29,
            "midi": 46,
            "name": "A#2",
            "ticks": 52980,
            "time": 203.76902699999997,
            "velocity": 0.7874015748031497
          },
          {
            "duration": 0.11153835000001777,
            "durationTicks": 29,
            "midi": 46,
            "name": "A#2",
            "ticks": 53100,
            "time": 204.23056499999996,
            "velocity": 0.7874015748031497
          },
          {
            "duration": 0.09615374999998494,
            "durationTicks": 25,
            "midi": 46,
            "name": "A#2",
            "ticks": 53220,
            "time": 204.69210299999997,
            "velocity": 0.7874015748031497
          },
          {
            "duration": 0.09999990000000025,
            "durationTicks": 26,
            "midi": 46,
            "name": "A#2",
            "ticks": 53340,
            "time": 205.15364099999996,
            "velocity": 0.7874015748031497
          },
          {
            "duration": 0.11153835000001777,
            "durationTicks": 29,
            "midi": 46,
            "name": "A#2",
            "ticks": 53460,
            "time": 205.61517899999996,
            "velocity": 0.7874015748031497
          },
          {
            "duration": 0.11153834999998935,
            "durationTicks": 29,
            "midi": 46,
            "name": "A#2",
            "ticks": 53580,
            "time": 206.07671699999997,
            "velocity": 0.7874015748031497
          },
          {
            "duration": 0.09615374999998494,
            "durationTicks": 25,
            "midi": 46,
            "name": "A#2",
            "ticks": 53700,
            "time": 206.53825499999996,
            "velocity": 0.7874015748031497
          },
          {
            "duration": 0.09999990000000025,
            "durationTicks": 26,
            "midi": 46,
            "name": "A#2",
            "ticks": 53820,
            "time": 206.99979299999995,
            "velocity": 0.7874015748031497
          },
          {
            "duration": 0.11153834999998935,
            "durationTicks": 29,
            "midi": 46,
            "name": "A#2",
            "ticks": 53940,
            "time": 207.46133099999997,
            "velocity": 0.7874015748031497
          },
          {
            "duration": 0.11153835000001777,
            "durationTicks": 29,
            "midi": 46,
            "name": "A#2",
            "ticks": 54060,
            "time": 207.92286899999996,
            "velocity": 0.7874015748031497
          },
          {
            "duration": 0.09615375000001336,
            "durationTicks": 25,
            "midi": 46,
            "name": "A#2",
            "ticks": 54180,
            "time": 208.38440699999995,
            "velocity": 0.7874015748031497
          },
          {
            "duration": 0.09999989999997183,
            "durationTicks": 26,
            "midi": 46,
            "name": "A#2",
            "ticks": 54300,
            "time": 208.84594499999997,
            "velocity": 0.7874015748031497
          },
          {
            "duration": 0.11153835000001777,
            "durationTicks": 29,
            "midi": 46,
            "name": "A#2",
            "ticks": 54420,
            "time": 209.30748299999996,
            "velocity": 0.7874015748031497
          },
          {
            "duration": 0.11153835000001777,
            "durationTicks": 29,
            "midi": 46,
            "name": "A#2",
            "ticks": 54540,
            "time": 209.76902099999995,
            "velocity": 0.7874015748031497
          },
          {
            "duration": 0.09615374999998494,
            "durationTicks": 25,
            "midi": 46,
            "name": "A#2",
            "ticks": 54660,
            "time": 210.23055899999997,
            "velocity": 0.7874015748031497
          },
          {
            "duration": 0.09999990000000025,
            "durationTicks": 26,
            "midi": 46,
            "name": "A#2",
            "ticks": 54780,
            "time": 210.69209699999996,
            "velocity": 0.7874015748031497
          },
          {
            "duration": 0.11153834999998935,
            "durationTicks": 29,
            "midi": 46,
            "name": "A#2",
            "ticks": 54900,
            "time": 211.15363499999998,
            "velocity": 0.7874015748031497
          },
          {
            "duration": 0.11153834999998935,
            "durationTicks": 29,
            "midi": 46,
            "name": "A#2",
            "ticks": 55020,
            "time": 211.61517299999997,
            "velocity": 0.7874015748031497
          },
          {
            "duration": 0.09615374999998494,
            "durationTicks": 25,
            "midi": 46,
            "name": "A#2",
            "ticks": 55140,
            "time": 212.07671099999996,
            "velocity": 0.7874015748031497
          },
          {
            "duration": 0.09999989999997183,
            "durationTicks": 26,
            "midi": 46,
            "name": "A#2",
            "ticks": 55260,
            "time": 212.53824899999998,
            "velocity": 0.7874015748031497
          },
          {
            "duration": 0.11153834999998935,
            "durationTicks": 29,
            "midi": 46,
            "name": "A#2",
            "ticks": 55380,
            "time": 212.99978699999997,
            "velocity": 0.7874015748031497
          },
          {
            "duration": 0.11153835000001777,
            "durationTicks": 29,
            "midi": 46,
            "name": "A#2",
            "ticks": 55500,
            "time": 213.46132499999996,
            "velocity": 0.7874015748031497
          },
          {
            "duration": 0.09615374999998494,
            "durationTicks": 25,
            "midi": 46,
            "name": "A#2",
            "ticks": 55620,
            "time": 213.92286299999998,
            "velocity": 0.7874015748031497
          },
          {
            "duration": 0.09999989999997183,
            "durationTicks": 26,
            "midi": 46,
            "name": "A#2",
            "ticks": 55740,
            "time": 214.38440099999997,
            "velocity": 0.7874015748031497
          },
          {
            "duration": 0.11153835000001777,
            "durationTicks": 29,
            "midi": 46,
            "name": "A#2",
            "ticks": 55860,
            "time": 214.84593899999996,
            "velocity": 0.7874015748031497
          },
          {
            "duration": 0.11153834999998935,
            "durationTicks": 29,
            "midi": 46,
            "name": "A#2",
            "ticks": 55980,
            "time": 215.30747699999998,
            "velocity": 0.7874015748031497
          },
          {
            "duration": 0.09615374999998494,
            "durationTicks": 25,
            "midi": 46,
            "name": "A#2",
            "ticks": 56100,
            "time": 215.76901499999997,
            "velocity": 0.7874015748031497
          },
          {
            "duration": 0.09999990000000025,
            "durationTicks": 26,
            "midi": 46,
            "name": "A#2",
            "ticks": 56220,
            "time": 216.23055299999996,
            "velocity": 0.7874015748031497
          },
          {
            "duration": 0.11153834999998935,
            "durationTicks": 29,
            "midi": 46,
            "name": "A#2",
            "ticks": 56340,
            "time": 216.69209099999998,
            "velocity": 0.7874015748031497
          },
          {
            "duration": 0.11153834999998935,
            "durationTicks": 29,
            "midi": 46,
            "name": "A#2",
            "ticks": 56460,
            "time": 217.15362899999997,
            "velocity": 0.7874015748031497
          },
          {
            "duration": 0.09615375000001336,
            "durationTicks": 25,
            "midi": 46,
            "name": "A#2",
            "ticks": 56580,
            "time": 217.61516699999996,
            "velocity": 0.7874015748031497
          },
          {
            "duration": 0.09999989999997183,
            "durationTicks": 26,
            "midi": 46,
            "name": "A#2",
            "ticks": 56700,
            "time": 218.07670499999998,
            "velocity": 0.7874015748031497
          },
          {
            "duration": 0.11153834999998935,
            "durationTicks": 29,
            "midi": 46,
            "name": "A#2",
            "ticks": 56820,
            "time": 218.53824299999997,
            "velocity": 0.7874015748031497
          },
          {
            "duration": 0.11153835000001777,
            "durationTicks": 29,
            "midi": 46,
            "name": "A#2",
            "ticks": 56940,
            "time": 218.99978099999996,
            "velocity": 0.7874015748031497
          },
          {
            "duration": 0.09615374999998494,
            "durationTicks": 25,
            "midi": 46,
            "name": "A#2",
            "ticks": 57060,
            "time": 219.46131899999997,
            "velocity": 0.7874015748031497
          },
          {
            "duration": 0.09999990000000025,
            "durationTicks": 26,
            "midi": 46,
            "name": "A#2",
            "ticks": 57180,
            "time": 219.92285699999996,
            "velocity": 0.7874015748031497
          },
          {
            "duration": 0.11153835000001777,
            "durationTicks": 29,
            "midi": 46,
            "name": "A#2",
            "ticks": 57300,
            "time": 220.38439499999996,
            "velocity": 0.7874015748031497
          },
          {
            "duration": 0.11153834999998935,
            "durationTicks": 29,
            "midi": 46,
            "name": "A#2",
            "ticks": 57420,
            "time": 220.84593299999997,
            "velocity": 0.7874015748031497
          },
          {
            "duration": 0.09615374999998494,
            "durationTicks": 25,
            "midi": 46,
            "name": "A#2",
            "ticks": 57540,
            "time": 221.30747099999996,
            "velocity": 0.7874015748031497
          },
          {
            "duration": 0.09999990000000025,
            "durationTicks": 26,
            "midi": 46,
            "name": "A#2",
            "ticks": 57660,
            "time": 221.76900899999995,
            "velocity": 0.7874015748031497
          },
          {
            "duration": 0.11153834999998935,
            "durationTicks": 29,
            "midi": 46,
            "name": "A#2",
            "ticks": 57780,
            "time": 222.23054699999997,
            "velocity": 0.7874015748031497
          },
          {
            "duration": 0.11153835000001777,
            "durationTicks": 29,
            "midi": 46,
            "name": "A#2",
            "ticks": 57900,
            "time": 222.69208499999996,
            "velocity": 0.7874015748031497
          },
          {
            "duration": 0.09615375000001336,
            "durationTicks": 25,
            "midi": 46,
            "name": "A#2",
            "ticks": 58020,
            "time": 223.15362299999995,
            "velocity": 0.7874015748031497
          },
          {
            "duration": 0.09999989999997183,
            "durationTicks": 26,
            "midi": 46,
            "name": "A#2",
            "ticks": 58140,
            "time": 223.61516099999997,
            "velocity": 0.7874015748031497
          },
          {
            "duration": 0.11153835000001777,
            "durationTicks": 29,
            "midi": 46,
            "name": "A#2",
            "ticks": 58260,
            "time": 224.07669899999996,
            "velocity": 0.7874015748031497
          },
          {
            "duration": 0.11153835000001777,
            "durationTicks": 29,
            "midi": 46,
            "name": "A#2",
            "ticks": 58380,
            "time": 224.53823699999995,
            "velocity": 0.7874015748031497
          },
          {
            "duration": 0.09615374999998494,
            "durationTicks": 25,
            "midi": 46,
            "name": "A#2",
            "ticks": 58500,
            "time": 224.99977499999997,
            "velocity": 0.7874015748031497
          },
          {
            "duration": 0.09999990000000025,
            "durationTicks": 26,
            "midi": 46,
            "name": "A#2",
            "ticks": 58620,
            "time": 225.46131299999996,
            "velocity": 0.7874015748031497
          },
          {
            "duration": 0.11153835000001777,
            "durationTicks": 29,
            "midi": 46,
            "name": "A#2",
            "ticks": 58740,
            "time": 225.92285099999995,
            "velocity": 0.7874015748031497
          },
          {
            "duration": 0.11153834999998935,
            "durationTicks": 29,
            "midi": 46,
            "name": "A#2",
            "ticks": 58860,
            "time": 226.38438899999997,
            "velocity": 0.7874015748031497
          },
          {
            "duration": 0.09615374999998494,
            "durationTicks": 25,
            "midi": 46,
            "name": "A#2",
            "ticks": 58980,
            "time": 226.84592699999996,
            "velocity": 0.7874015748031497
          },
          {
            "duration": 0.09999990000000025,
            "durationTicks": 26,
            "midi": 46,
            "name": "A#2",
            "ticks": 59100,
            "time": 227.30746499999995,
            "velocity": 0.7874015748031497
          },
          {
            "duration": 0.11153834999998935,
            "durationTicks": 29,
            "midi": 46,
            "name": "A#2",
            "ticks": 59220,
            "time": 227.76900299999997,
            "velocity": 0.7874015748031497
          },
          {
            "duration": 0.11153835000001777,
            "durationTicks": 29,
            "midi": 46,
            "name": "A#2",
            "ticks": 59340,
            "time": 228.23054099999996,
            "velocity": 0.7874015748031497
          },
          {
            "duration": 0.09615375000001336,
            "durationTicks": 25,
            "midi": 46,
            "name": "A#2",
            "ticks": 59460,
            "time": 228.69207899999995,
            "velocity": 0.7874015748031497
          },
          {
            "duration": 0.09999989999997183,
            "durationTicks": 26,
            "midi": 46,
            "name": "A#2",
            "ticks": 59580,
            "time": 229.15361699999997,
            "velocity": 0.7874015748031497
          },
          {
            "duration": 0.11153835000001777,
            "durationTicks": 29,
            "midi": 46,
            "name": "A#2",
            "ticks": 59700,
            "time": 229.61515499999996,
            "velocity": 0.7874015748031497
          },
          {
            "duration": 0.11153834999998935,
            "durationTicks": 29,
            "midi": 46,
            "name": "A#2",
            "ticks": 59820,
            "time": 230.07669299999998,
            "velocity": 0.7874015748031497
          },
          {
            "duration": 0.09615374999998494,
            "durationTicks": 25,
            "midi": 46,
            "name": "A#2",
            "ticks": 59940,
            "time": 230.53823099999997,
            "velocity": 0.7874015748031497
          },
          {
            "duration": 0.09999990000000025,
            "durationTicks": 26,
            "midi": 46,
            "name": "A#2",
            "ticks": 60060,
            "time": 230.99976899999996,
            "velocity": 0.7874015748031497
          },
          {
            "duration": 0.11153834999998935,
            "durationTicks": 29,
            "midi": 46,
            "name": "A#2",
            "ticks": 60180,
            "time": 231.46130699999998,
            "velocity": 0.7874015748031497
          },
          {
            "duration": 0.11153834999998935,
            "durationTicks": 29,
            "midi": 46,
            "name": "A#2",
            "ticks": 60300,
            "time": 231.92284499999997,
            "velocity": 0.7874015748031497
          },
          {
            "duration": 0.09615374999998494,
            "durationTicks": 25,
            "midi": 46,
            "name": "A#2",
            "ticks": 60420,
            "time": 232.38438299999996,
            "velocity": 0.7874015748031497
          },
          {
            "duration": 0.09999989999997183,
            "durationTicks": 26,
            "midi": 46,
            "name": "A#2",
            "ticks": 60540,
            "time": 232.84592099999998,
            "velocity": 0.7874015748031497
          },
          {
            "duration": 0.11153834999998935,
            "durationTicks": 29,
            "midi": 46,
            "name": "A#2",
            "ticks": 60660,
            "time": 233.30745899999997,
            "velocity": 0.7874015748031497
          },
          {
            "duration": 0.11153835000001777,
            "durationTicks": 29,
            "midi": 46,
            "name": "A#2",
            "ticks": 60780,
            "time": 233.76899699999996,
            "velocity": 0.7874015748031497
          },
          {
            "duration": 0.09615374999998494,
            "durationTicks": 25,
            "midi": 46,
            "name": "A#2",
            "ticks": 60900,
            "time": 234.23053499999997,
            "velocity": 0.7874015748031497
          },
          {
            "duration": 0.09999989999997183,
            "durationTicks": 26,
            "midi": 46,
            "name": "A#2",
            "ticks": 61020,
            "time": 234.69207299999997,
            "velocity": 0.7874015748031497
          },
          {
            "duration": 0.11153835000001777,
            "durationTicks": 29,
            "midi": 46,
            "name": "A#2",
            "ticks": 61140,
            "time": 235.15361099999996,
            "velocity": 0.7874015748031497
          },
          {
            "duration": 0.11153834999998935,
            "durationTicks": 29,
            "midi": 46,
            "name": "A#2",
            "ticks": 61260,
            "time": 235.61514899999997,
            "velocity": 0.7874015748031497
          },
          {
            "duration": 0.09615374999998494,
            "durationTicks": 25,
            "midi": 46,
            "name": "A#2",
            "ticks": 61380,
            "time": 236.07668699999996,
            "velocity": 0.7874015748031497
          },
          {
            "duration": 0.09999990000000025,
            "durationTicks": 26,
            "midi": 46,
            "name": "A#2",
            "ticks": 61500,
            "time": 236.53822499999995,
            "velocity": 0.7874015748031497
          },
          {
            "duration": 0.11153834999998935,
            "durationTicks": 29,
            "midi": 46,
            "name": "A#2",
            "ticks": 61620,
            "time": 236.99976299999997,
            "velocity": 0.7874015748031497
          },
          {
            "duration": 0.11153834999998935,
            "durationTicks": 29,
            "midi": 46,
            "name": "A#2",
            "ticks": 61740,
            "time": 237.46130099999996,
            "velocity": 0.7874015748031497
          },
          {
            "duration": 0.09615375000001336,
            "durationTicks": 25,
            "midi": 46,
            "name": "A#2",
            "ticks": 61860,
            "time": 237.92283899999995,
            "velocity": 0.7874015748031497
          },
          {
            "duration": 0.09999990000000025,
            "durationTicks": 26,
            "midi": 46,
            "name": "A#2",
            "ticks": 61980,
            "time": 238.38437699999997,
            "velocity": 0.7874015748031497
          },
          {
            "duration": 0.11153835000001777,
            "durationTicks": 29,
            "midi": 46,
            "name": "A#2",
            "ticks": 62100,
            "time": 238.84591499999996,
            "velocity": 0.7874015748031497
          },
          {
            "duration": 0.11153835000001777,
            "durationTicks": 29,
            "midi": 46,
            "name": "A#2",
            "ticks": 62220,
            "time": 239.30745299999995,
            "velocity": 0.7874015748031497
          },
          {
            "duration": 0.09615375000001336,
            "durationTicks": 25,
            "midi": 46,
            "name": "A#2",
            "ticks": 62340,
            "time": 239.76899099999997,
            "velocity": 0.7874015748031497
          },
          {
            "duration": 0.09999990000002867,
            "durationTicks": 26,
            "midi": 46,
            "name": "A#2",
            "ticks": 62460,
            "time": 240.23052899999996,
            "velocity": 0.7874015748031497
          },
          {
            "duration": 0.11153835000001777,
            "durationTicks": 29,
            "midi": 46,
            "name": "A#2",
            "ticks": 62580,
            "time": 240.69206699999995,
            "velocity": 0.7874015748031497
          },
          {
            "duration": 0.11153834999998935,
            "durationTicks": 29,
            "midi": 46,
            "name": "A#2",
            "ticks": 62700,
            "time": 241.15360499999997,
            "velocity": 0.7874015748031497
          },
          {
            "duration": 0.09615375000001336,
            "durationTicks": 25,
            "midi": 46,
            "name": "A#2",
            "ticks": 62820,
            "time": 241.61514299999996,
            "velocity": 0.7874015748031497
          },
          {
            "duration": 0.09999990000002867,
            "durationTicks": 26,
            "midi": 46,
            "name": "A#2",
            "ticks": 62940,
            "time": 242.07668099999995,
            "velocity": 0.7874015748031497
          },
          {
            "duration": 0.11153834999998935,
            "durationTicks": 29,
            "midi": 46,
            "name": "A#2",
            "ticks": 63060,
            "time": 242.53821899999997,
            "velocity": 0.7874015748031497
          },
          {
            "duration": 0.11153835000001777,
            "durationTicks": 29,
            "midi": 46,
            "name": "A#2",
            "ticks": 63180,
            "time": 242.99975699999996,
            "velocity": 0.7874015748031497
          },
          {
            "duration": 0.09615375000004178,
            "durationTicks": 25,
            "midi": 46,
            "name": "A#2",
            "ticks": 63300,
            "time": 243.46129499999995,
            "velocity": 0.7874015748031497
          },
          {
            "duration": 0.09999990000000025,
            "durationTicks": 26,
            "midi": 46,
            "name": "A#2",
            "ticks": 63420,
            "time": 243.92283299999997,
            "velocity": 0.7874015748031497
          },
          {
            "duration": 0.11153835000001777,
            "durationTicks": 29,
            "midi": 46,
            "name": "A#2",
            "ticks": 63540,
            "time": 244.38437099999996,
            "velocity": 0.7874015748031497
          },
          {
            "duration": 0.11153835000001777,
            "durationTicks": 29,
            "midi": 46,
            "name": "A#2",
            "ticks": 63660,
            "time": 244.84590899999995,
            "velocity": 0.7874015748031497
          },
          {
            "duration": 0.09615375000001336,
            "durationTicks": 25,
            "midi": 46,
            "name": "A#2",
            "ticks": 63780,
            "time": 245.30744699999997,
            "velocity": 0.7874015748031497
          },
          {
            "duration": 0.09999990000002867,
            "durationTicks": 26,
            "midi": 46,
            "name": "A#2",
            "ticks": 63900,
            "time": 245.76898499999996,
            "velocity": 0.7874015748031497
          },
          {
            "duration": 0.11153835000001777,
            "durationTicks": 29,
            "midi": 46,
            "name": "A#2",
            "ticks": 64020,
            "time": 246.23052299999995,
            "velocity": 0.7874015748031497
          },
          {
            "duration": 0.11153834999998935,
            "durationTicks": 29,
            "midi": 46,
            "name": "A#2",
            "ticks": 64140,
            "time": 246.69206099999997,
            "velocity": 0.7874015748031497
          },
          {
            "duration": 0.09615375000001336,
            "durationTicks": 25,
            "midi": 46,
            "name": "A#2",
            "ticks": 64260,
            "time": 247.15359899999996,
            "velocity": 0.7874015748031497
          },
          {
            "duration": 0.09999990000000025,
            "durationTicks": 26,
            "midi": 46,
            "name": "A#2",
            "ticks": 64380,
            "time": 247.61513699999998,
            "velocity": 0.7874015748031497
          },
          {
            "duration": 0.11153834999998935,
            "durationTicks": 29,
            "midi": 46,
            "name": "A#2",
            "ticks": 64500,
            "time": 248.07667499999997,
            "velocity": 0.7874015748031497
          },
          {
            "duration": 0.11153835000001777,
            "durationTicks": 29,
            "midi": 46,
            "name": "A#2",
            "ticks": 64620,
            "time": 248.53821299999996,
            "velocity": 0.7874015748031497
          },
          {
            "duration": 0.09615375000001336,
            "durationTicks": 25,
            "midi": 46,
            "name": "A#2",
            "ticks": 64740,
            "time": 248.99975099999997,
            "velocity": 0.7874015748031497
          },
          {
            "duration": 0.09999990000000025,
            "durationTicks": 26,
            "midi": 46,
            "name": "A#2",
            "ticks": 64860,
            "time": 249.46128899999997,
            "velocity": 0.7874015748031497
          },
          {
            "duration": 0.11153835000001777,
            "durationTicks": 29,
            "midi": 46,
            "name": "A#2",
            "ticks": 64980,
            "time": 249.92282699999996,
            "velocity": 0.7874015748031497
          },
          {
            "duration": 0.11153834999998935,
            "durationTicks": 29,
            "midi": 46,
            "name": "A#2",
            "ticks": 65100,
            "time": 250.38436499999997,
            "velocity": 0.7874015748031497
          },
          {
            "duration": 0.09615375000001336,
            "durationTicks": 25,
            "midi": 46,
            "name": "A#2",
            "ticks": 65220,
            "time": 250.84590299999996,
            "velocity": 0.7874015748031497
          },
          {
            "duration": 0.09999990000002867,
            "durationTicks": 26,
            "midi": 46,
            "name": "A#2",
            "ticks": 65340,
            "time": 251.30744099999995,
            "velocity": 0.7874015748031497
          },
          {
            "duration": 0.11153834999998935,
            "durationTicks": 29,
            "midi": 46,
            "name": "A#2",
            "ticks": 65460,
            "time": 251.76897899999997,
            "velocity": 0.7874015748031497
          },
          {
            "duration": 0.11153834999998935,
            "durationTicks": 29,
            "midi": 46,
            "name": "A#2",
            "ticks": 65580,
            "time": 252.23051699999996,
            "velocity": 0.7874015748031497
          },
          {
            "duration": 0.09615375000001336,
            "durationTicks": 25,
            "midi": 46,
            "name": "A#2",
            "ticks": 65700,
            "time": 252.69205499999995,
            "velocity": 0.7874015748031497
          },
          {
            "duration": 0.09999990000000025,
            "durationTicks": 26,
            "midi": 46,
            "name": "A#2",
            "ticks": 65820,
            "time": 253.15359299999997,
            "velocity": 0.7874015748031497
          },
          {
            "duration": 0.11153834999998935,
            "durationTicks": 29,
            "midi": 46,
            "name": "A#2",
            "ticks": 65940,
            "time": 253.61513099999996,
            "velocity": 0.7874015748031497
          },
          {
            "duration": 0.11153835000001777,
            "durationTicks": 29,
            "midi": 46,
            "name": "A#2",
            "ticks": 66060,
            "time": 254.07666899999995,
            "velocity": 0.7874015748031497
          },
          {
            "duration": 0.09615375000001336,
            "durationTicks": 25,
            "midi": 46,
            "name": "A#2",
            "ticks": 66180,
            "time": 254.53820699999997,
            "velocity": 0.7874015748031497
          },
          {
            "duration": 0.09999990000000025,
            "durationTicks": 26,
            "midi": 46,
            "name": "A#2",
            "ticks": 66300,
            "time": 254.99974499999996,
            "velocity": 0.7874015748031497
          },
          {
            "duration": 0.11153835000001777,
            "durationTicks": 29,
            "midi": 46,
            "name": "A#2",
            "ticks": 66420,
            "time": 255.46128299999995,
            "velocity": 0.7874015748031497
          },
          {
            "duration": 0.11153835000001777,
            "durationTicks": 29,
            "midi": 46,
            "name": "A#2",
            "ticks": 66540,
            "time": 255.92282099999997,
            "velocity": 0.7874015748031497
          },
          {
            "duration": 0.09615375000004178,
            "durationTicks": 25,
            "midi": 46,
            "name": "A#2",
            "ticks": 66660,
            "time": 256.38435899999996,
            "velocity": 0.7874015748031497
          },
          {
            "duration": 0.09999990000000025,
            "durationTicks": 26,
            "midi": 46,
            "name": "A#2",
            "ticks": 66780,
            "time": 256.845897,
            "velocity": 0.7874015748031497
          },
          {
            "duration": 0.11153834999998935,
            "durationTicks": 29,
            "midi": 46,
            "name": "A#2",
            "ticks": 66900,
            "time": 257.307435,
            "velocity": 0.7874015748031497
          },
          {
            "duration": 0.1115383500000462,
            "durationTicks": 29,
            "midi": 46,
            "name": "A#2",
            "ticks": 67020,
            "time": 257.76897299999996,
            "velocity": 0.7874015748031497
          },
          {
            "duration": 0.09615375000004178,
            "durationTicks": 25,
            "midi": 46,
            "name": "A#2",
            "ticks": 67140,
            "time": 258.230511,
            "velocity": 0.7874015748031497
          },
          {
            "duration": 0.02692304999999351,
            "durationTicks": 7,
            "midi": 46,
            "name": "A#2",
            "ticks": 67200,
            "time": 258.46128,
            "velocity": 0.8661417322834646
          },
          {
            "duration": 0.049999949999971705,
            "durationTicks": 13,
            "midi": 46,
            "name": "A#2",
            "ticks": 67260,
            "time": 258.692049,
            "velocity": 0.8661417322834646
          },
          {
            "duration": 0.049999949999971705,
            "durationTicks": 13,
            "midi": 46,
            "name": "A#2",
            "ticks": 67320,
            "time": 258.922818,
            "velocity": 0.8661417322834646
          },
          {
            "duration": 0.05769225000000233,
            "durationTicks": 15,
            "midi": 46,
            "name": "A#2",
            "ticks": 67350,
            "time": 259.0382025,
            "velocity": 0.8661417322834646
          },
          {
            "duration": 0.04999995000002855,
            "durationTicks": 13,
            "midi": 46,
            "name": "A#2",
            "ticks": 67410,
            "time": 259.26897149999996,
            "velocity": 0.8661417322834646
          }
        ]
      },
      {
        "channel": 9,
        "controlChanges": {
          "0": [
            {
              "number": 0,
              "ticks": 0,
              "time": 0,
              "value": 0
            }
          ]
        },
        "pitchBends": [],
        "instrument": {
          "family": "drums",
          "name": "room kit",
          "number": 8
        },
        "name": "Pedal hihat",
        "notes": [
          {
            "duration": 0.08846145000000005,
            "durationTicks": 23,
            "midi": 44,
            "name": "G#2",
            "ticks": 540,
            "time": 2.0769209999999996,
            "velocity": 0.9448818897637795
          },
          {
            "duration": 0.07307685000000008,
            "durationTicks": 19,
            "midi": 44,
            "name": "G#2",
            "ticks": 660,
            "time": 2.5384589999999996,
            "velocity": 0.9448818897637795
          },
          {
            "duration": 0.07307685000000008,
            "durationTicks": 19,
            "midi": 44,
            "name": "G#2",
            "ticks": 780,
            "time": 2.9999969999999996,
            "velocity": 0.9448818897637795
          },
          {
            "duration": 0.08076915000000007,
            "durationTicks": 21,
            "midi": 44,
            "name": "G#2",
            "ticks": 900,
            "time": 3.4615349999999996,
            "velocity": 0.9448818897637795
          },
          {
            "duration": 0.08846144999999961,
            "durationTicks": 23,
            "midi": 44,
            "name": "G#2",
            "ticks": 1020,
            "time": 3.9230729999999996,
            "velocity": 0.9448818897637795
          },
          {
            "duration": 0.07307684999999964,
            "durationTicks": 19,
            "midi": 44,
            "name": "G#2",
            "ticks": 1140,
            "time": 4.384611,
            "velocity": 0.9448818897637795
          },
          {
            "duration": 0.07307684999999964,
            "durationTicks": 19,
            "midi": 44,
            "name": "G#2",
            "ticks": 1260,
            "time": 4.846149,
            "velocity": 0.9448818897637795
          },
          {
            "duration": 0.08076915000000007,
            "durationTicks": 21,
            "midi": 44,
            "name": "G#2",
            "ticks": 1380,
            "time": 5.307687,
            "velocity": 0.9448818897637795
          },
          {
            "duration": 0.08846144999999961,
            "durationTicks": 23,
            "midi": 44,
            "name": "G#2",
            "ticks": 1500,
            "time": 5.769225,
            "velocity": 0.9448818897637795
          },
          {
            "duration": 0.07307684999999964,
            "durationTicks": 19,
            "midi": 44,
            "name": "G#2",
            "ticks": 1620,
            "time": 6.230763,
            "velocity": 0.9448818897637795
          },
          {
            "duration": 0.07307684999999964,
            "durationTicks": 19,
            "midi": 44,
            "name": "G#2",
            "ticks": 1740,
            "time": 6.692301,
            "velocity": 0.9448818897637795
          },
          {
            "duration": 0.08076915000000007,
            "durationTicks": 21,
            "midi": 44,
            "name": "G#2",
            "ticks": 1860,
            "time": 7.153839,
            "velocity": 0.9448818897637795
          },
          {
            "duration": 0.08846144999999961,
            "durationTicks": 23,
            "midi": 44,
            "name": "G#2",
            "ticks": 1980,
            "time": 7.615377,
            "velocity": 0.9448818897637795
          },
          {
            "duration": 0.07307684999999964,
            "durationTicks": 19,
            "midi": 44,
            "name": "G#2",
            "ticks": 2100,
            "time": 8.076915,
            "velocity": 0.9448818897637795
          },
          {
            "duration": 0.07307684999999964,
            "durationTicks": 19,
            "midi": 44,
            "name": "G#2",
            "ticks": 2220,
            "time": 8.538452999999999,
            "velocity": 0.9448818897637795
          },
          {
            "duration": 0.08076915000000007,
            "durationTicks": 21,
            "midi": 44,
            "name": "G#2",
            "ticks": 2340,
            "time": 8.999991,
            "velocity": 0.9448818897637795
          },
          {
            "duration": 0.0884614500000005,
            "durationTicks": 23,
            "midi": 44,
            "name": "G#2",
            "ticks": 2460,
            "time": 9.461528999999999,
            "velocity": 0.9448818897637795
          },
          {
            "duration": 0.07307684999999964,
            "durationTicks": 19,
            "midi": 44,
            "name": "G#2",
            "ticks": 2580,
            "time": 9.923067,
            "velocity": 0.9448818897637795
          },
          {
            "duration": 0.07307685000000141,
            "durationTicks": 19,
            "midi": 44,
            "name": "G#2",
            "ticks": 2700,
            "time": 10.384604999999999,
            "velocity": 0.9448818897637795
          },
          {
            "duration": 0.08076915000000007,
            "durationTicks": 21,
            "midi": 44,
            "name": "G#2",
            "ticks": 2820,
            "time": 10.846143,
            "velocity": 0.9448818897637795
          },
          {
            "duration": 0.0884614500000005,
            "durationTicks": 23,
            "midi": 44,
            "name": "G#2",
            "ticks": 2940,
            "time": 11.307680999999999,
            "velocity": 0.9448818897637795
          },
          {
            "duration": 0.07307684999999964,
            "durationTicks": 19,
            "midi": 44,
            "name": "G#2",
            "ticks": 3060,
            "time": 11.769219,
            "velocity": 0.9448818897637795
          },
          {
            "duration": 0.07307685000000141,
            "durationTicks": 19,
            "midi": 44,
            "name": "G#2",
            "ticks": 3180,
            "time": 12.230756999999999,
            "velocity": 0.9448818897637795
          },
          {
            "duration": 0.08076915000000007,
            "durationTicks": 21,
            "midi": 44,
            "name": "G#2",
            "ticks": 3300,
            "time": 12.692295,
            "velocity": 0.9448818897637795
          },
          {
            "duration": 0.0884614500000005,
            "durationTicks": 23,
            "midi": 44,
            "name": "G#2",
            "ticks": 3420,
            "time": 13.153832999999999,
            "velocity": 0.9448818897637795
          },
          {
            "duration": 0.07307685000000141,
            "durationTicks": 19,
            "midi": 44,
            "name": "G#2",
            "ticks": 3540,
            "time": 13.615370999999998,
            "velocity": 0.9448818897637795
          },
          {
            "duration": 0.07307685000000141,
            "durationTicks": 19,
            "midi": 44,
            "name": "G#2",
            "ticks": 3660,
            "time": 14.076908999999999,
            "velocity": 0.9448818897637795
          },
          {
            "duration": 0.08076915000000184,
            "durationTicks": 21,
            "midi": 44,
            "name": "G#2",
            "ticks": 3780,
            "time": 14.538446999999998,
            "velocity": 0.9448818897637795
          },
          {
            "duration": 0.0884614500000005,
            "durationTicks": 23,
            "midi": 44,
            "name": "G#2",
            "ticks": 3900,
            "time": 14.999984999999999,
            "velocity": 0.9448818897637795
          },
          {
            "duration": 0.07307685000000141,
            "durationTicks": 19,
            "midi": 44,
            "name": "G#2",
            "ticks": 4020,
            "time": 15.461522999999998,
            "velocity": 0.9448818897637795
          },
          {
            "duration": 0.07307684999999964,
            "durationTicks": 19,
            "midi": 44,
            "name": "G#2",
            "ticks": 4140,
            "time": 15.923060999999999,
            "velocity": 0.9448818897637795
          },
          {
            "duration": 0.08076914999999829,
            "durationTicks": 21,
            "midi": 44,
            "name": "G#2",
            "ticks": 4260,
            "time": 16.384598999999998,
            "velocity": 0.9448818897637795
          },
          {
            "duration": 0.10769219999998825,
            "durationTicks": 28,
            "midi": 44,
            "name": "G#2",
            "ticks": 19740,
            "time": 75.923001,
            "velocity": 0.9448818897637795
          },
          {
            "duration": 0.08846144999999694,
            "durationTicks": 23,
            "midi": 44,
            "name": "G#2",
            "ticks": 19860,
            "time": 76.38453899999999,
            "velocity": 0.9448818897637795
          },
          {
            "duration": 0.08461529999999584,
            "durationTicks": 22,
            "midi": 44,
            "name": "G#2",
            "ticks": 19980,
            "time": 76.846077,
            "velocity": 0.9448818897637795
          },
          {
            "duration": 0.08461529999999584,
            "durationTicks": 22,
            "midi": 44,
            "name": "G#2",
            "ticks": 20100,
            "time": 77.307615,
            "velocity": 0.9448818897637795
          },
          {
            "duration": 0.10769220000000246,
            "durationTicks": 28,
            "midi": 44,
            "name": "G#2",
            "ticks": 20220,
            "time": 77.76915299999999,
            "velocity": 0.9448818897637795
          },
          {
            "duration": 0.08846144999999694,
            "durationTicks": 23,
            "midi": 44,
            "name": "G#2",
            "ticks": 20340,
            "time": 78.230691,
            "velocity": 0.9448818897637795
          },
          {
            "duration": 0.08461529999999584,
            "durationTicks": 22,
            "midi": 44,
            "name": "G#2",
            "ticks": 20460,
            "time": 78.692229,
            "velocity": 0.9448818897637795
          },
          {
            "duration": 0.08461529999999584,
            "durationTicks": 22,
            "midi": 44,
            "name": "G#2",
            "ticks": 20580,
            "time": 79.153767,
            "velocity": 0.9448818897637795
          },
          {
            "duration": 0.10769220000000246,
            "durationTicks": 28,
            "midi": 44,
            "name": "G#2",
            "ticks": 20700,
            "time": 79.61530499999999,
            "velocity": 0.9448818897637795
          },
          {
            "duration": 0.08846144999999694,
            "durationTicks": 23,
            "midi": 44,
            "name": "G#2",
            "ticks": 20820,
            "time": 80.076843,
            "velocity": 0.9448818897637795
          },
          {
            "duration": 0.08461529999999584,
            "durationTicks": 22,
            "midi": 44,
            "name": "G#2",
            "ticks": 20940,
            "time": 80.538381,
            "velocity": 0.9448818897637795
          },
          {
            "duration": 0.08461530000001005,
            "durationTicks": 22,
            "midi": 44,
            "name": "G#2",
            "ticks": 21060,
            "time": 80.99991899999999,
            "velocity": 0.9448818897637795
          },
          {
            "duration": 0.10769219999998825,
            "durationTicks": 28,
            "midi": 44,
            "name": "G#2",
            "ticks": 21180,
            "time": 81.461457,
            "velocity": 0.9448818897637795
          },
          {
            "duration": 0.08846144999999694,
            "durationTicks": 23,
            "midi": 44,
            "name": "G#2",
            "ticks": 21300,
            "time": 81.922995,
            "velocity": 0.9448818897637795
          },
          {
            "duration": 0.08461530000001005,
            "durationTicks": 22,
            "midi": 44,
            "name": "G#2",
            "ticks": 21420,
            "time": 82.38453299999999,
            "velocity": 0.9448818897637795
          },
          {
            "duration": 0.08461529999999584,
            "durationTicks": 22,
            "midi": 44,
            "name": "G#2",
            "ticks": 21540,
            "time": 82.846071,
            "velocity": 0.9448818897637795
          },
          {
            "duration": 0.10769219999998825,
            "durationTicks": 28,
            "midi": 44,
            "name": "G#2",
            "ticks": 21660,
            "time": 83.307609,
            "velocity": 0.9448818897637795
          },
          {
            "duration": 0.08846144999999694,
            "durationTicks": 23,
            "midi": 44,
            "name": "G#2",
            "ticks": 21780,
            "time": 83.76914699999999,
            "velocity": 0.9448818897637795
          },
          {
            "duration": 0.08461529999999584,
            "durationTicks": 22,
            "midi": 44,
            "name": "G#2",
            "ticks": 21900,
            "time": 84.230685,
            "velocity": 0.9448818897637795
          },
          {
            "duration": 0.08461529999999584,
            "durationTicks": 22,
            "midi": 44,
            "name": "G#2",
            "ticks": 22020,
            "time": 84.692223,
            "velocity": 0.9448818897637795
          },
          {
            "duration": 0.10769220000000246,
            "durationTicks": 28,
            "midi": 44,
            "name": "G#2",
            "ticks": 22140,
            "time": 85.15376099999999,
            "velocity": 0.9448818897637795
          },
          {
            "duration": 0.08846144999999694,
            "durationTicks": 23,
            "midi": 44,
            "name": "G#2",
            "ticks": 22260,
            "time": 85.615299,
            "velocity": 0.9448818897637795
          },
          {
            "duration": 0.08461529999999584,
            "durationTicks": 22,
            "midi": 44,
            "name": "G#2",
            "ticks": 22380,
            "time": 86.076837,
            "velocity": 0.9448818897637795
          },
          {
            "duration": 0.08461530000001005,
            "durationTicks": 22,
            "midi": 44,
            "name": "G#2",
            "ticks": 22500,
            "time": 86.53837499999999,
            "velocity": 0.9448818897637795
          },
          {
            "duration": 0.10769220000000246,
            "durationTicks": 28,
            "midi": 44,
            "name": "G#2",
            "ticks": 22620,
            "time": 86.99991299999999,
            "velocity": 0.9448818897637795
          },
          {
            "duration": 0.08846144999999694,
            "durationTicks": 23,
            "midi": 44,
            "name": "G#2",
            "ticks": 22740,
            "time": 87.461451,
            "velocity": 0.9448818897637795
          },
          {
            "duration": 0.08461530000001005,
            "durationTicks": 22,
            "midi": 44,
            "name": "G#2",
            "ticks": 22860,
            "time": 87.92298899999999,
            "velocity": 0.9448818897637795
          },
          {
            "duration": 0.08461530000001005,
            "durationTicks": 22,
            "midi": 44,
            "name": "G#2",
            "ticks": 22980,
            "time": 88.38452699999999,
            "velocity": 0.9448818897637795
          },
          {
            "duration": 0.05769224999998812,
            "durationTicks": 15,
            "midi": 44,
            "name": "G#2",
            "ticks": 26400,
            "time": 101.53836,
            "velocity": 0.9448818897637795
          },
          {
            "duration": 0.05769225000000233,
            "durationTicks": 15,
            "midi": 44,
            "name": "G#2",
            "ticks": 26460,
            "time": 101.76912899999999,
            "velocity": 0.9448818897637795
          },
          {
            "duration": 0.061538400000003435,
            "durationTicks": 16,
            "midi": 44,
            "name": "G#2",
            "ticks": 26520,
            "time": 101.99989799999999,
            "velocity": 0.9448818897637795
          },
          {
            "duration": 0.061538399999989224,
            "durationTicks": 16,
            "midi": 44,
            "name": "G#2",
            "ticks": 26580,
            "time": 102.230667,
            "velocity": 0.9448818897637795
          },
          {
            "duration": 0.061538400000003435,
            "durationTicks": 16,
            "midi": 44,
            "name": "G#2",
            "ticks": 26640,
            "time": 102.46143599999999,
            "velocity": 0.9448818897637795
          },
          {
            "duration": 0.06538455000000454,
            "durationTicks": 17,
            "midi": 44,
            "name": "G#2",
            "ticks": 26700,
            "time": 102.69220499999999,
            "velocity": 0.9448818897637795
          },
          {
            "duration": 0.06538455000000454,
            "durationTicks": 17,
            "midi": 44,
            "name": "G#2",
            "ticks": 26760,
            "time": 102.922974,
            "velocity": 0.9448818897637795
          },
          {
            "duration": 0.061538400000003435,
            "durationTicks": 16,
            "midi": 44,
            "name": "G#2",
            "ticks": 26820,
            "time": 103.15374299999999,
            "velocity": 0.9448818897637795
          },
          {
            "duration": 0.06923070000000564,
            "durationTicks": 18,
            "midi": 44,
            "name": "G#2",
            "ticks": 26880,
            "time": 103.38451199999999,
            "velocity": 0.7874015748031497
          },
          {
            "duration": 0.06538455000000454,
            "durationTicks": 17,
            "midi": 44,
            "name": "G#2",
            "ticks": 27000,
            "time": 103.84604999999999,
            "velocity": 0.7874015748031497
          },
          {
            "duration": 0.06923070000000564,
            "durationTicks": 18,
            "midi": 44,
            "name": "G#2",
            "ticks": 27120,
            "time": 104.307588,
            "velocity": 0.7874015748031497
          },
          {
            "duration": 0.061538400000003435,
            "durationTicks": 16,
            "midi": 44,
            "name": "G#2",
            "ticks": 27240,
            "time": 104.76912599999999,
            "velocity": 0.7874015748031497
          },
          {
            "duration": 0.06923069999999143,
            "durationTicks": 18,
            "midi": 44,
            "name": "G#2",
            "ticks": 35040,
            "time": 134.76909599999996,
            "velocity": 0.7874015748031497
          },
          {
            "duration": 0.06538454999997612,
            "durationTicks": 17,
            "midi": 44,
            "name": "G#2",
            "ticks": 35160,
            "time": 135.23063399999998,
            "velocity": 0.7874015748031497
          },
          {
            "duration": 0.06923069999999143,
            "durationTicks": 18,
            "midi": 44,
            "name": "G#2",
            "ticks": 35280,
            "time": 135.69217199999997,
            "velocity": 0.7874015748031497
          },
          {
            "duration": 0.061538400000017646,
            "durationTicks": 16,
            "midi": 44,
            "name": "G#2",
            "ticks": 35400,
            "time": 136.15370999999996,
            "velocity": 0.7874015748031497
          },
          {
            "duration": 0.06923069999999143,
            "durationTicks": 18,
            "midi": 44,
            "name": "G#2",
            "ticks": 35520,
            "time": 136.61524799999998,
            "velocity": 0.7874015748031497
          },
          {
            "duration": 0.06538455000000454,
            "durationTicks": 17,
            "midi": 44,
            "name": "G#2",
            "ticks": 35640,
            "time": 137.07678599999997,
            "velocity": 0.7874015748031497
          },
          {
            "duration": 0.06923069999999143,
            "durationTicks": 18,
            "midi": 44,
            "name": "G#2",
            "ticks": 35760,
            "time": 137.53832399999996,
            "velocity": 0.7874015748031497
          },
          {
            "duration": 0.061538399999989224,
            "durationTicks": 16,
            "midi": 44,
            "name": "G#2",
            "ticks": 35880,
            "time": 137.99986199999998,
            "velocity": 0.7874015748031497
          },
          {
            "duration": 0.06923069999999143,
            "durationTicks": 18,
            "midi": 44,
            "name": "G#2",
            "ticks": 41280,
            "time": 158.76907199999997,
            "velocity": 0.7874015748031497
          },
          {
            "duration": 0.06538454999997612,
            "durationTicks": 17,
            "midi": 44,
            "name": "G#2",
            "ticks": 41400,
            "time": 159.23060999999998,
            "velocity": 0.7874015748031497
          },
          {
            "duration": 0.06923069999999143,
            "durationTicks": 18,
            "midi": 44,
            "name": "G#2",
            "ticks": 41520,
            "time": 159.69214799999997,
            "velocity": 0.7874015748031497
          },
          {
            "duration": 0.061538399999989224,
            "durationTicks": 16,
            "midi": 44,
            "name": "G#2",
            "ticks": 41640,
            "time": 160.15368599999996,
            "velocity": 0.7874015748031497
          }
        ]
      },
      {
        "channel": 9,
        "controlChanges": {
          "0": [
            {
              "number": 0,
              "ticks": 0,
              "time": 0,
              "value": 0
            }
          ]
        },
        "pitchBends": [],
        "instrument": {
          "family": "drums",
          "name": "room kit",
          "number": 8
        },
        "name": "Crash",
        "notes": [
          {
            "duration": 1.246152599999995,
            "durationTicks": 324,
            "midi": 49,
            "name": "C#3",
            "ticks": 15840,
            "time": 60.92301599999999,
            "velocity": 0.7874015748031497
          },
          {
            "duration": 1.246152600000002,
            "durationTicks": 324,
            "midi": 49,
            "name": "C#3",
            "ticks": 19680,
            "time": 75.69223199999999,
            "velocity": 0.7874015748031497
          },
          {
            "duration": 1.246152600000002,
            "durationTicks": 324,
            "midi": 49,
            "name": "C#3",
            "ticks": 23520,
            "time": 90.46144799999999,
            "velocity": 0.7874015748031497
          },
          {
            "duration": 1.246152600000002,
            "durationTicks": 324,
            "midi": 49,
            "name": "C#3",
            "ticks": 25440,
            "time": 97.84605599999999,
            "velocity": 0.7874015748031497
          },
          {
            "duration": 1.2461525999999878,
            "durationTicks": 324,
            "midi": 49,
            "name": "C#3",
            "ticks": 31200,
            "time": 119.99987999999999,
            "velocity": 0.7874015748031497
          },
          {
            "duration": 1.2461525999999878,
            "durationTicks": 324,
            "midi": 49,
            "name": "C#3",
            "ticks": 36000,
            "time": 138.46139999999997,
            "velocity": 0.7874015748031497
          },
          {
            "duration": 1.2461525999999878,
            "durationTicks": 324,
            "midi": 49,
            "name": "C#3",
            "ticks": 37920,
            "time": 145.84600799999998,
            "velocity": 0.7874015748031497
          },
          {
            "duration": 1.2461525999999878,
            "durationTicks": 324,
            "midi": 49,
            "name": "C#3",
            "ticks": 39840,
            "time": 153.23061599999997,
            "velocity": 0.7874015748031497
          },
          {
            "duration": 1.2461525999999878,
            "durationTicks": 324,
            "midi": 49,
            "name": "C#3",
            "ticks": 41760,
            "time": 160.61522399999998,
            "velocity": 0.7874015748031497
          },
          {
            "duration": 1.2461525999999878,
            "durationTicks": 324,
            "midi": 49,
            "name": "C#3",
            "ticks": 45600,
            "time": 175.38443999999998,
            "velocity": 0.7874015748031497
          },
          {
            "duration": 1.2461525999999878,
            "durationTicks": 324,
            "midi": 49,
            "name": "C#3",
            "ticks": 46560,
            "time": 179.07674399999996,
            "velocity": 0.7874015748031497
          },
          {
            "duration": 1.2461525999999878,
            "durationTicks": 324,
            "midi": 49,
            "name": "C#3",
            "ticks": 47520,
            "time": 182.76904799999997,
            "velocity": 0.7874015748031497
          },
          {
            "duration": 1.2461525999999878,
            "durationTicks": 324,
            "midi": 49,
            "name": "C#3",
            "ticks": 51360,
            "time": 197.53826399999997,
            "velocity": 0.7874015748031497
          },
          {
            "duration": 1.2461526000000163,
            "durationTicks": 324,
            "midi": 49,
            "name": "C#3",
            "ticks": 53280,
            "time": 204.92287199999996,
            "velocity": 0.7874015748031497
          },
          {
            "duration": 1.2461525999999878,
            "durationTicks": 324,
            "midi": 49,
            "name": "C#3",
            "ticks": 55200,
            "time": 212.30747999999997,
            "velocity": 0.7874015748031497
          },
          {
            "duration": 1.2461526000000163,
            "durationTicks": 324,
            "midi": 49,
            "name": "C#3",
            "ticks": 57120,
            "time": 219.69208799999996,
            "velocity": 0.7874015748031497
          },
          {
            "duration": 1.2461525999999878,
            "durationTicks": 324,
            "midi": 49,
            "name": "C#3",
            "ticks": 60000,
            "time": 230.76899999999998,
            "velocity": 0.7874015748031497
          },
          {
            "duration": 1.2461526000000163,
            "durationTicks": 324,
            "midi": 49,
            "name": "C#3",
            "ticks": 61920,
            "time": 238.15360799999996,
            "velocity": 0.7874015748031497
          },
          {
            "duration": 1.2461526000000447,
            "durationTicks": 324,
            "midi": 49,
            "name": "C#3",
            "ticks": 63840,
            "time": 245.53821599999995,
            "velocity": 0.7874015748031497
          },
          {
            "duration": 1.2461526000000163,
            "durationTicks": 324,
            "midi": 49,
            "name": "C#3",
            "ticks": 65760,
            "time": 252.92282399999996,
            "velocity": 0.7874015748031497
          },
          {
            "duration": 0.04999995000002855,
            "durationTicks": 13,
            "midi": 49,
            "name": "C#3",
            "ticks": 67200,
            "time": 258.46128,
            "velocity": 0.8582677165354331
          },
          {
            "duration": 0.05769225000000233,
            "durationTicks": 15,
            "midi": 49,
            "name": "C#3",
            "ticks": 67410,
            "time": 259.26897149999996,
            "velocity": 0.8346456692913385
          }
        ]
      },
      {
        "channel": 9,
        "controlChanges": {
          "0": [
            {
              "number": 0,
              "ticks": 0,
              "time": 0,
              "value": 0
            }
          ]
        },
        "pitchBends": [],
        "instrument": {
          "family": "drums",
          "name": "room kit",
          "number": 8
        },
        "name": "Hand clap",
        "notes": [
          {
            "duration": 0.08076915000000184,
            "durationTicks": 21,
            "midi": 39,
            "name": "D#2",
            "ticks": 12000,
            "time": 46.15379999999999,
            "velocity": 0.7874015748031497
          },
          {
            "duration": 0.08076914999999474,
            "durationTicks": 21,
            "midi": 39,
            "name": "D#2",
            "ticks": 12120,
            "time": 46.615337999999994,
            "velocity": 0.7874015748031497
          },
          {
            "duration": 0.08846144999999694,
            "durationTicks": 23,
            "midi": 39,
            "name": "D#2",
            "ticks": 12240,
            "time": 47.07687599999999,
            "velocity": 0.7874015748031497
          },
          {
            "duration": 0.07692300000000785,
            "durationTicks": 20,
            "midi": 39,
            "name": "D#2",
            "ticks": 12360,
            "time": 47.53841399999999,
            "velocity": 0.7874015748031497
          },
          {
            "duration": 0.08076914999999474,
            "durationTicks": 21,
            "midi": 39,
            "name": "D#2",
            "ticks": 12480,
            "time": 47.99995199999999,
            "velocity": 0.7874015748031497
          },
          {
            "duration": 0.08076915000000184,
            "durationTicks": 21,
            "midi": 39,
            "name": "D#2",
            "ticks": 12600,
            "time": 48.46148999999999,
            "velocity": 0.7874015748031497
          },
          {
            "duration": 0.08846145000000405,
            "durationTicks": 23,
            "midi": 39,
            "name": "D#2",
            "ticks": 12720,
            "time": 48.92302799999999,
            "velocity": 0.7874015748031497
          },
          {
            "duration": 0.07692300000000074,
            "durationTicks": 20,
            "midi": 39,
            "name": "D#2",
            "ticks": 12840,
            "time": 49.38456599999999,
            "velocity": 0.7874015748031497
          },
          {
            "duration": 0.08076915000000184,
            "durationTicks": 21,
            "midi": 39,
            "name": "D#2",
            "ticks": 12960,
            "time": 49.84610399999999,
            "velocity": 0.7874015748031497
          },
          {
            "duration": 0.08076914999999474,
            "durationTicks": 21,
            "midi": 39,
            "name": "D#2",
            "ticks": 13080,
            "time": 50.307641999999994,
            "velocity": 0.7874015748031497
          },
          {
            "duration": 0.08846144999999694,
            "durationTicks": 23,
            "midi": 39,
            "name": "D#2",
            "ticks": 13200,
            "time": 50.76917999999999,
            "velocity": 0.7874015748031497
          },
          {
            "duration": 0.07692300000000074,
            "durationTicks": 20,
            "midi": 39,
            "name": "D#2",
            "ticks": 13320,
            "time": 51.23071799999999,
            "velocity": 0.7874015748031497
          },
          {
            "duration": 0.08076914999999474,
            "durationTicks": 21,
            "midi": 39,
            "name": "D#2",
            "ticks": 13440,
            "time": 51.69225599999999,
            "velocity": 0.7874015748031497
          },
          {
            "duration": 0.08076915000000184,
            "durationTicks": 21,
            "midi": 39,
            "name": "D#2",
            "ticks": 13560,
            "time": 52.15379399999999,
            "velocity": 0.7874015748031497
          },
          {
            "duration": 0.08846145000000405,
            "durationTicks": 23,
            "midi": 39,
            "name": "D#2",
            "ticks": 13680,
            "time": 52.61533199999999,
            "velocity": 0.7874015748031497
          },
          {
            "duration": 0.07692300000000074,
            "durationTicks": 20,
            "midi": 39,
            "name": "D#2",
            "ticks": 13800,
            "time": 53.07686999999999,
            "velocity": 0.7874015748031497
          },
          {
            "duration": 0.08076915000000184,
            "durationTicks": 21,
            "midi": 39,
            "name": "D#2",
            "ticks": 13920,
            "time": 53.53840799999999,
            "velocity": 0.7874015748031497
          },
          {
            "duration": 0.08076915000000184,
            "durationTicks": 21,
            "midi": 39,
            "name": "D#2",
            "ticks": 14040,
            "time": 53.99994599999999,
            "velocity": 0.7874015748031497
          },
          {
            "duration": 0.08846144999999694,
            "durationTicks": 23,
            "midi": 39,
            "name": "D#2",
            "ticks": 14160,
            "time": 54.46148399999999,
            "velocity": 0.7874015748031497
          },
          {
            "duration": 0.07692300000000074,
            "durationTicks": 20,
            "midi": 39,
            "name": "D#2",
            "ticks": 14280,
            "time": 54.92302199999999,
            "velocity": 0.7874015748031497
          },
          {
            "duration": 0.08076914999999474,
            "durationTicks": 21,
            "midi": 39,
            "name": "D#2",
            "ticks": 14400,
            "time": 55.38455999999999,
            "velocity": 0.7874015748031497
          },
          {
            "duration": 0.08076915000000184,
            "durationTicks": 21,
            "midi": 39,
            "name": "D#2",
            "ticks": 14520,
            "time": 55.84609799999999,
            "velocity": 0.7874015748031497
          },
          {
            "duration": 0.08846145000000405,
            "durationTicks": 23,
            "midi": 39,
            "name": "D#2",
            "ticks": 14640,
            "time": 56.30763599999999,
            "velocity": 0.7874015748031497
          },
          {
            "duration": 0.07692300000000074,
            "durationTicks": 20,
            "midi": 39,
            "name": "D#2",
            "ticks": 14760,
            "time": 56.76917399999999,
            "velocity": 0.7874015748031497
          },
          {
            "duration": 0.08076915000000184,
            "durationTicks": 21,
            "midi": 39,
            "name": "D#2",
            "ticks": 14880,
            "time": 57.23071199999999,
            "velocity": 0.7874015748031497
          },
          {
            "duration": 0.08076915000000184,
            "durationTicks": 21,
            "midi": 39,
            "name": "D#2",
            "ticks": 15000,
            "time": 57.69224999999999,
            "velocity": 0.7874015748031497
          },
          {
            "duration": 0.08846144999999694,
            "durationTicks": 23,
            "midi": 39,
            "name": "D#2",
            "ticks": 15120,
            "time": 58.15378799999999,
            "velocity": 0.7874015748031497
          },
          {
            "duration": 0.07692300000000074,
            "durationTicks": 20,
            "midi": 39,
            "name": "D#2",
            "ticks": 15240,
            "time": 58.61532599999999,
            "velocity": 0.7874015748031497
          },
          {
            "duration": 0.08076914999999474,
            "durationTicks": 21,
            "midi": 39,
            "name": "D#2",
            "ticks": 17640,
            "time": 67.846086,
            "velocity": 0.7874015748031497
          },
          {
            "duration": 0.08076915000000895,
            "durationTicks": 21,
            "midi": 39,
            "name": "D#2",
            "ticks": 27360,
            "time": 105.23066399999999,
            "velocity": 0.7874015748031497
          },
          {
            "duration": 0.08076915000000895,
            "durationTicks": 21,
            "midi": 39,
            "name": "D#2",
            "ticks": 27480,
            "time": 105.692202,
            "velocity": 0.7874015748031497
          },
          {
            "duration": 0.08846145000001115,
            "durationTicks": 23,
            "midi": 39,
            "name": "D#2",
            "ticks": 27600,
            "time": 106.15373999999998,
            "velocity": 0.7874015748031497
          },
          {
            "duration": 0.07692299999999364,
            "durationTicks": 20,
            "midi": 39,
            "name": "D#2",
            "ticks": 27720,
            "time": 106.61527799999999,
            "velocity": 0.7874015748031497
          },
          {
            "duration": 0.08076915000000895,
            "durationTicks": 21,
            "midi": 39,
            "name": "D#2",
            "ticks": 27840,
            "time": 107.076816,
            "velocity": 0.7874015748031497
          },
          {
            "duration": 0.08076914999999474,
            "durationTicks": 21,
            "midi": 39,
            "name": "D#2",
            "ticks": 27960,
            "time": 107.538354,
            "velocity": 0.7874015748031497
          },
          {
            "duration": 0.08846144999999694,
            "durationTicks": 23,
            "midi": 39,
            "name": "D#2",
            "ticks": 28080,
            "time": 107.99989199999999,
            "velocity": 0.7874015748031497
          },
          {
            "duration": 0.07692299999999364,
            "durationTicks": 20,
            "midi": 39,
            "name": "D#2",
            "ticks": 28200,
            "time": 108.46143,
            "velocity": 0.7874015748031497
          },
          {
            "duration": 0.08076914999999474,
            "durationTicks": 21,
            "midi": 39,
            "name": "D#2",
            "ticks": 28320,
            "time": 108.922968,
            "velocity": 0.7874015748031497
          },
          {
            "duration": 0.08076915000000895,
            "durationTicks": 21,
            "midi": 39,
            "name": "D#2",
            "ticks": 28440,
            "time": 109.38450599999999,
            "velocity": 0.7874015748031497
          },
          {
            "duration": 0.08846144999999694,
            "durationTicks": 23,
            "midi": 39,
            "name": "D#2",
            "ticks": 28560,
            "time": 109.84604399999999,
            "velocity": 0.7874015748031497
          },
          {
            "duration": 0.07692299999999364,
            "durationTicks": 20,
            "midi": 39,
            "name": "D#2",
            "ticks": 28680,
            "time": 110.307582,
            "velocity": 0.7874015748031497
          },
          {
            "duration": 0.08076915000000895,
            "durationTicks": 21,
            "midi": 39,
            "name": "D#2",
            "ticks": 28800,
            "time": 110.76911999999999,
            "velocity": 0.7874015748031497
          },
          {
            "duration": 0.08076915000000895,
            "durationTicks": 21,
            "midi": 39,
            "name": "D#2",
            "ticks": 28920,
            "time": 111.23065799999999,
            "velocity": 0.7874015748031497
          },
          {
            "duration": 0.08846144999999694,
            "durationTicks": 23,
            "midi": 39,
            "name": "D#2",
            "ticks": 29040,
            "time": 111.692196,
            "velocity": 0.7874015748031497
          },
          {
            "duration": 0.07692300000000785,
            "durationTicks": 20,
            "midi": 39,
            "name": "D#2",
            "ticks": 29160,
            "time": 112.15373399999999,
            "velocity": 0.7874015748031497
          },
          {
            "duration": 0.08076915000000895,
            "durationTicks": 21,
            "midi": 39,
            "name": "D#2",
            "ticks": 29280,
            "time": 112.61527199999999,
            "velocity": 0.7874015748031497
          },
          {
            "duration": 0.08076914999999474,
            "durationTicks": 21,
            "midi": 39,
            "name": "D#2",
            "ticks": 29400,
            "time": 113.07681,
            "velocity": 0.7874015748031497
          },
          {
            "duration": 0.08846145000001115,
            "durationTicks": 23,
            "midi": 39,
            "name": "D#2",
            "ticks": 29520,
            "time": 113.53834799999998,
            "velocity": 0.7874015748031497
          },
          {
            "duration": 0.07692299999999364,
            "durationTicks": 20,
            "midi": 39,
            "name": "D#2",
            "ticks": 29640,
            "time": 113.99988599999999,
            "velocity": 0.7874015748031497
          },
          {
            "duration": 0.08076915000000895,
            "durationTicks": 21,
            "midi": 39,
            "name": "D#2",
            "ticks": 29760,
            "time": 114.461424,
            "velocity": 0.7874015748031497
          },
          {
            "duration": 0.08076915000000895,
            "durationTicks": 21,
            "midi": 39,
            "name": "D#2",
            "ticks": 29880,
            "time": 114.92296199999998,
            "velocity": 0.7874015748031497
          },
          {
            "duration": 0.08846144999999694,
            "durationTicks": 23,
            "midi": 39,
            "name": "D#2",
            "ticks": 30000,
            "time": 115.38449999999999,
            "velocity": 0.7874015748031497
          },
          {
            "duration": 0.07692299999999364,
            "durationTicks": 20,
            "midi": 39,
            "name": "D#2",
            "ticks": 30120,
            "time": 115.846038,
            "velocity": 0.7874015748031497
          },
          {
            "duration": 0.08076914999999474,
            "durationTicks": 21,
            "midi": 39,
            "name": "D#2",
            "ticks": 30240,
            "time": 116.307576,
            "velocity": 0.7874015748031497
          },
          {
            "duration": 0.08076915000000895,
            "durationTicks": 21,
            "midi": 39,
            "name": "D#2",
            "ticks": 30360,
            "time": 116.76911399999999,
            "velocity": 0.7874015748031497
          },
          {
            "duration": 0.08846144999999694,
            "durationTicks": 23,
            "midi": 39,
            "name": "D#2",
            "ticks": 30480,
            "time": 117.23065199999999,
            "velocity": 0.7874015748031497
          },
          {
            "duration": 0.07692299999999364,
            "durationTicks": 20,
            "midi": 39,
            "name": "D#2",
            "ticks": 30600,
            "time": 117.69219,
            "velocity": 0.7874015748031497
          },
          {
            "duration": 0.08076915000000895,
            "durationTicks": 21,
            "midi": 39,
            "name": "D#2",
            "ticks": 30720,
            "time": 118.15372799999999,
            "velocity": 0.7874015748031497
          },
          {
            "duration": 0.08076915000000895,
            "durationTicks": 21,
            "midi": 39,
            "name": "D#2",
            "ticks": 30840,
            "time": 118.61526599999999,
            "velocity": 0.7874015748031497
          },
          {
            "duration": 0.08846144999999694,
            "durationTicks": 23,
            "midi": 39,
            "name": "D#2",
            "ticks": 30960,
            "time": 119.076804,
            "velocity": 0.7874015748031497
          },
          {
            "duration": 0.07692299999999364,
            "durationTicks": 20,
            "midi": 39,
            "name": "D#2",
            "ticks": 31080,
            "time": 119.53834199999999,
            "velocity": 0.7874015748031497
          },
          {
            "duration": 0.08076915000000895,
            "durationTicks": 21,
            "midi": 39,
            "name": "D#2",
            "ticks": 31200,
            "time": 119.99987999999999,
            "velocity": 0.7874015748031497
          },
          {
            "duration": 0.08076914999999474,
            "durationTicks": 21,
            "midi": 39,
            "name": "D#2",
            "ticks": 31320,
            "time": 120.461418,
            "velocity": 0.7874015748031497
          },
          {
            "duration": 0.08846144999999694,
            "durationTicks": 23,
            "midi": 39,
            "name": "D#2",
            "ticks": 31440,
            "time": 120.92295599999999,
            "velocity": 0.7874015748031497
          },
          {
            "duration": 0.07692300000000785,
            "durationTicks": 20,
            "midi": 39,
            "name": "D#2",
            "ticks": 31560,
            "time": 121.38449399999999,
            "velocity": 0.7874015748031497
          },
          {
            "duration": 0.08076914999999474,
            "durationTicks": 21,
            "midi": 39,
            "name": "D#2",
            "ticks": 31680,
            "time": 121.846032,
            "velocity": 0.7874015748031497
          },
          {
            "duration": 0.08076915000000895,
            "durationTicks": 21,
            "midi": 39,
            "name": "D#2",
            "ticks": 31800,
            "time": 122.30756999999998,
            "velocity": 0.7874015748031497
          },
          {
            "duration": 0.08846144999999694,
            "durationTicks": 23,
            "midi": 39,
            "name": "D#2",
            "ticks": 31920,
            "time": 122.76910799999999,
            "velocity": 0.7874015748031497
          },
          {
            "duration": 0.07692300000000785,
            "durationTicks": 20,
            "midi": 39,
            "name": "D#2",
            "ticks": 32040,
            "time": 123.230646,
            "velocity": 0.7874015748031497
          },
          {
            "duration": 0.08076915000000895,
            "durationTicks": 21,
            "midi": 39,
            "name": "D#2",
            "ticks": 32160,
            "time": 123.69218399999998,
            "velocity": 0.7874015748031497
          },
          {
            "duration": 0.08076915000000895,
            "durationTicks": 21,
            "midi": 39,
            "name": "D#2",
            "ticks": 32280,
            "time": 124.15372199999999,
            "velocity": 0.7874015748031497
          },
          {
            "duration": 0.08846144999999694,
            "durationTicks": 23,
            "midi": 39,
            "name": "D#2",
            "ticks": 32400,
            "time": 124.61525999999999,
            "velocity": 0.7874015748031497
          },
          {
            "duration": 0.07692300000000785,
            "durationTicks": 20,
            "midi": 39,
            "name": "D#2",
            "ticks": 32520,
            "time": 125.076798,
            "velocity": 0.7874015748031497
          },
          {
            "duration": 0.08076915000000895,
            "durationTicks": 21,
            "midi": 39,
            "name": "D#2",
            "ticks": 32640,
            "time": 125.53833599999999,
            "velocity": 0.7874015748031497
          },
          {
            "duration": 0.08076915000000895,
            "durationTicks": 21,
            "midi": 39,
            "name": "D#2",
            "ticks": 32760,
            "time": 125.99987399999999,
            "velocity": 0.7874015748031497
          },
          {
            "duration": 0.08846144999999694,
            "durationTicks": 23,
            "midi": 39,
            "name": "D#2",
            "ticks": 32880,
            "time": 126.461412,
            "velocity": 0.7874015748031497
          },
          {
            "duration": 0.07692300000000785,
            "durationTicks": 20,
            "midi": 39,
            "name": "D#2",
            "ticks": 33000,
            "time": 126.92294999999999,
            "velocity": 0.7874015748031497
          },
          {
            "duration": 0.08076915000000895,
            "durationTicks": 21,
            "midi": 39,
            "name": "D#2",
            "ticks": 33120,
            "time": 127.38448799999999,
            "velocity": 0.7874015748031497
          },
          {
            "duration": 0.08076914999999474,
            "durationTicks": 21,
            "midi": 39,
            "name": "D#2",
            "ticks": 33240,
            "time": 127.846026,
            "velocity": 0.7874015748031497
          },
          {
            "duration": 0.08846144999998273,
            "durationTicks": 23,
            "midi": 39,
            "name": "D#2",
            "ticks": 33360,
            "time": 128.30756399999999,
            "velocity": 0.7874015748031497
          },
          {
            "duration": 0.07692300000002206,
            "durationTicks": 20,
            "midi": 39,
            "name": "D#2",
            "ticks": 33480,
            "time": 128.76910199999998,
            "velocity": 0.7874015748031497
          },
          {
            "duration": 0.08076914999998053,
            "durationTicks": 21,
            "midi": 39,
            "name": "D#2",
            "ticks": 33600,
            "time": 129.23064,
            "velocity": 0.7874015748031497
          },
          {
            "duration": 0.08076915000000895,
            "durationTicks": 21,
            "midi": 39,
            "name": "D#2",
            "ticks": 33720,
            "time": 129.69217799999998,
            "velocity": 0.7874015748031497
          },
          {
            "duration": 0.08846145000001115,
            "durationTicks": 23,
            "midi": 39,
            "name": "D#2",
            "ticks": 33840,
            "time": 130.15371599999997,
            "velocity": 0.7874015748031497
          },
          {
            "duration": 0.07692300000002206,
            "durationTicks": 20,
            "midi": 39,
            "name": "D#2",
            "ticks": 33960,
            "time": 130.61525399999996,
            "velocity": 0.7874015748031497
          },
          {
            "duration": 0.08076915000000895,
            "durationTicks": 21,
            "midi": 39,
            "name": "D#2",
            "ticks": 34080,
            "time": 131.07679199999998,
            "velocity": 0.7874015748031497
          },
          {
            "duration": 0.08076915000000895,
            "durationTicks": 21,
            "midi": 39,
            "name": "D#2",
            "ticks": 34200,
            "time": 131.53832999999997,
            "velocity": 0.7874015748031497
          },
          {
            "duration": 0.08846145000001115,
            "durationTicks": 23,
            "midi": 39,
            "name": "D#2",
            "ticks": 34320,
            "time": 131.99986799999996,
            "velocity": 0.7874015748031497
          },
          {
            "duration": 0.07692299999999364,
            "durationTicks": 20,
            "midi": 39,
            "name": "D#2",
            "ticks": 34440,
            "time": 132.46140599999998,
            "velocity": 0.7874015748031497
          },
          {
            "duration": 0.08076915000000895,
            "durationTicks": 21,
            "midi": 39,
            "name": "D#2",
            "ticks": 37800,
            "time": 145.38446999999996,
            "velocity": 0.7874015748031497
          },
          {
            "duration": 0.08076915000000895,
            "durationTicks": 21,
            "midi": 39,
            "name": "D#2",
            "ticks": 39720,
            "time": 152.76907799999998,
            "velocity": 0.7874015748031497
          },
          {
            "duration": 0.08076915000000895,
            "durationTicks": 21,
            "midi": 39,
            "name": "D#2",
            "ticks": 43680,
            "time": 167.99983199999997,
            "velocity": 0.7874015748031497
          },
          {
            "duration": 0.08076915000000895,
            "durationTicks": 21,
            "midi": 39,
            "name": "D#2",
            "ticks": 43800,
            "time": 168.46136999999996,
            "velocity": 0.7874015748031497
          },
          {
            "duration": 0.08846144999998273,
            "durationTicks": 23,
            "midi": 39,
            "name": "D#2",
            "ticks": 43920,
            "time": 168.92290799999998,
            "velocity": 0.7874015748031497
          },
          {
            "duration": 0.07692300000002206,
            "durationTicks": 20,
            "midi": 39,
            "name": "D#2",
            "ticks": 44040,
            "time": 169.38444599999997,
            "velocity": 0.7874015748031497
          },
          {
            "duration": 0.08076915000000895,
            "durationTicks": 21,
            "midi": 39,
            "name": "D#2",
            "ticks": 44160,
            "time": 169.84598399999996,
            "velocity": 0.7874015748031497
          },
          {
            "duration": 0.08076915000000895,
            "durationTicks": 21,
            "midi": 39,
            "name": "D#2",
            "ticks": 44280,
            "time": 170.30752199999998,
            "velocity": 0.7874015748031497
          },
          {
            "duration": 0.08846145000001115,
            "durationTicks": 23,
            "midi": 39,
            "name": "D#2",
            "ticks": 44400,
            "time": 170.76905999999997,
            "velocity": 0.7874015748031497
          },
          {
            "duration": 0.07692300000002206,
            "durationTicks": 20,
            "midi": 39,
            "name": "D#2",
            "ticks": 44520,
            "time": 171.23059799999996,
            "velocity": 0.7874015748031497
          },
          {
            "duration": 0.08076915000000895,
            "durationTicks": 21,
            "midi": 39,
            "name": "D#2",
            "ticks": 44640,
            "time": 171.69213599999998,
            "velocity": 0.7874015748031497
          },
          {
            "duration": 0.08076915000000895,
            "durationTicks": 21,
            "midi": 39,
            "name": "D#2",
            "ticks": 44760,
            "time": 172.15367399999997,
            "velocity": 0.7874015748031497
          },
          {
            "duration": 0.08846145000001115,
            "durationTicks": 23,
            "midi": 39,
            "name": "D#2",
            "ticks": 44880,
            "time": 172.61521199999996,
            "velocity": 0.7874015748031497
          },
          {
            "duration": 0.07692299999999364,
            "durationTicks": 20,
            "midi": 39,
            "name": "D#2",
            "ticks": 45000,
            "time": 173.07674999999998,
            "velocity": 0.7874015748031497
          },
          {
            "duration": 0.08076915000000895,
            "durationTicks": 21,
            "midi": 39,
            "name": "D#2",
            "ticks": 45120,
            "time": 173.53828799999997,
            "velocity": 0.7874015748031497
          },
          {
            "duration": 0.08076915000000895,
            "durationTicks": 21,
            "midi": 39,
            "name": "D#2",
            "ticks": 45240,
            "time": 173.99982599999996,
            "velocity": 0.7874015748031497
          },
          {
            "duration": 0.08846144999998273,
            "durationTicks": 23,
            "midi": 39,
            "name": "D#2",
            "ticks": 45360,
            "time": 174.46136399999997,
            "velocity": 0.7874015748031497
          },
          {
            "duration": 0.07692300000002206,
            "durationTicks": 20,
            "midi": 39,
            "name": "D#2",
            "ticks": 45480,
            "time": 174.92290199999997,
            "velocity": 0.7874015748031497
          },
          {
            "duration": 0.08076914999998053,
            "durationTicks": 21,
            "midi": 39,
            "name": "D#2",
            "ticks": 45600,
            "time": 175.38443999999998,
            "velocity": 0.7874015748031497
          },
          {
            "duration": 0.08076915000000895,
            "durationTicks": 21,
            "midi": 39,
            "name": "D#2",
            "ticks": 45720,
            "time": 175.84597799999997,
            "velocity": 0.7874015748031497
          },
          {
            "duration": 0.08846145000001115,
            "durationTicks": 23,
            "midi": 39,
            "name": "D#2",
            "ticks": 45840,
            "time": 176.30751599999996,
            "velocity": 0.7874015748031497
          },
          {
            "duration": 0.07692299999999364,
            "durationTicks": 20,
            "midi": 39,
            "name": "D#2",
            "ticks": 45960,
            "time": 176.76905399999998,
            "velocity": 0.7874015748031497
          },
          {
            "duration": 0.08076915000000895,
            "durationTicks": 21,
            "midi": 39,
            "name": "D#2",
            "ticks": 46080,
            "time": 177.23059199999997,
            "velocity": 0.7874015748031497
          },
          {
            "duration": 0.08076915000000895,
            "durationTicks": 21,
            "midi": 39,
            "name": "D#2",
            "ticks": 46200,
            "time": 177.69212999999996,
            "velocity": 0.7874015748031497
          },
          {
            "duration": 0.08846144999998273,
            "durationTicks": 23,
            "midi": 39,
            "name": "D#2",
            "ticks": 46320,
            "time": 178.15366799999998,
            "velocity": 0.7874015748031497
          },
          {
            "duration": 0.07692299999999364,
            "durationTicks": 20,
            "midi": 39,
            "name": "D#2",
            "ticks": 46440,
            "time": 178.61520599999997,
            "velocity": 0.7874015748031497
          },
          {
            "duration": 0.08076915000000895,
            "durationTicks": 21,
            "midi": 39,
            "name": "D#2",
            "ticks": 46560,
            "time": 179.07674399999996,
            "velocity": 0.7874015748031497
          },
          {
            "duration": 0.08076914999998053,
            "durationTicks": 21,
            "midi": 39,
            "name": "D#2",
            "ticks": 46680,
            "time": 179.53828199999998,
            "velocity": 0.7874015748031497
          },
          {
            "duration": 0.08846144999998273,
            "durationTicks": 23,
            "midi": 39,
            "name": "D#2",
            "ticks": 46800,
            "time": 179.99981999999997,
            "velocity": 0.7874015748031497
          },
          {
            "duration": 0.07692300000002206,
            "durationTicks": 20,
            "midi": 39,
            "name": "D#2",
            "ticks": 46920,
            "time": 180.46135799999996,
            "velocity": 0.7874015748031497
          },
          {
            "duration": 0.08076914999998053,
            "durationTicks": 21,
            "midi": 39,
            "name": "D#2",
            "ticks": 47040,
            "time": 180.92289599999998,
            "velocity": 0.7874015748031497
          },
          {
            "duration": 0.08076915000000895,
            "durationTicks": 21,
            "midi": 39,
            "name": "D#2",
            "ticks": 47160,
            "time": 181.38443399999997,
            "velocity": 0.7874015748031497
          },
          {
            "duration": 0.08846145000001115,
            "durationTicks": 23,
            "midi": 39,
            "name": "D#2",
            "ticks": 47280,
            "time": 181.84597199999996,
            "velocity": 0.7874015748031497
          },
          {
            "duration": 0.07692299999999364,
            "durationTicks": 20,
            "midi": 39,
            "name": "D#2",
            "ticks": 47400,
            "time": 182.30750999999998,
            "velocity": 0.7874015748031497
          },
          {
            "duration": 0.08076915000000895,
            "durationTicks": 21,
            "midi": 39,
            "name": "D#2",
            "ticks": 47520,
            "time": 182.76904799999997,
            "velocity": 0.7874015748031497
          },
          {
            "duration": 0.08076915000000895,
            "durationTicks": 21,
            "midi": 39,
            "name": "D#2",
            "ticks": 47640,
            "time": 183.23058599999996,
            "velocity": 0.7874015748031497
          },
          {
            "duration": 0.08846144999998273,
            "durationTicks": 23,
            "midi": 39,
            "name": "D#2",
            "ticks": 47760,
            "time": 183.69212399999998,
            "velocity": 0.7874015748031497
          },
          {
            "duration": 0.07692300000002206,
            "durationTicks": 20,
            "midi": 39,
            "name": "D#2",
            "ticks": 47880,
            "time": 184.15366199999997,
            "velocity": 0.7874015748031497
          },
          {
            "duration": 0.08076915000000895,
            "durationTicks": 21,
            "midi": 39,
            "name": "D#2",
            "ticks": 48000,
            "time": 184.61519999999996,
            "velocity": 0.7874015748031497
          },
          {
            "duration": 0.08076915000000895,
            "durationTicks": 21,
            "midi": 39,
            "name": "D#2",
            "ticks": 48120,
            "time": 185.07673799999998,
            "velocity": 0.7874015748031497
          },
          {
            "duration": 0.08846145000001115,
            "durationTicks": 23,
            "midi": 39,
            "name": "D#2",
            "ticks": 48240,
            "time": 185.53827599999997,
            "velocity": 0.7874015748031497
          },
          {
            "duration": 0.07692300000002206,
            "durationTicks": 20,
            "midi": 39,
            "name": "D#2",
            "ticks": 48360,
            "time": 185.99981399999996,
            "velocity": 0.7874015748031497
          },
          {
            "duration": 0.08076915000000895,
            "durationTicks": 21,
            "midi": 39,
            "name": "D#2",
            "ticks": 48480,
            "time": 186.46135199999998,
            "velocity": 0.7874015748031497
          },
          {
            "duration": 0.08076915000000895,
            "durationTicks": 21,
            "midi": 39,
            "name": "D#2",
            "ticks": 48600,
            "time": 186.92288999999997,
            "velocity": 0.7874015748031497
          },
          {
            "duration": 0.08846145000001115,
            "durationTicks": 23,
            "midi": 39,
            "name": "D#2",
            "ticks": 48720,
            "time": 187.38442799999996,
            "velocity": 0.7874015748031497
          },
          {
            "duration": 0.07692299999999364,
            "durationTicks": 20,
            "midi": 39,
            "name": "D#2",
            "ticks": 48840,
            "time": 187.84596599999998,
            "velocity": 0.7874015748031497
          },
          {
            "duration": 0.08076915000000895,
            "durationTicks": 21,
            "midi": 39,
            "name": "D#2",
            "ticks": 48960,
            "time": 188.30750399999997,
            "velocity": 0.7874015748031497
          },
          {
            "duration": 0.08076915000000895,
            "durationTicks": 21,
            "midi": 39,
            "name": "D#2",
            "ticks": 49080,
            "time": 188.76904199999996,
            "velocity": 0.7874015748031497
          },
          {
            "duration": 0.08846144999998273,
            "durationTicks": 23,
            "midi": 39,
            "name": "D#2",
            "ticks": 49200,
            "time": 189.23057999999997,
            "velocity": 0.7874015748031497
          },
          {
            "duration": 0.07692300000002206,
            "durationTicks": 20,
            "midi": 39,
            "name": "D#2",
            "ticks": 49320,
            "time": 189.69211799999997,
            "velocity": 0.7874015748031497
          },
          {
            "duration": 0.08076915000000895,
            "durationTicks": 21,
            "midi": 39,
            "name": "D#2",
            "ticks": 49440,
            "time": 190.15365599999996,
            "velocity": 0.7874015748031497
          },
          {
            "duration": 0.08076915000000895,
            "durationTicks": 21,
            "midi": 39,
            "name": "D#2",
            "ticks": 49560,
            "time": 190.61519399999997,
            "velocity": 0.7874015748031497
          },
          {
            "duration": 0.08846145000001115,
            "durationTicks": 23,
            "midi": 39,
            "name": "D#2",
            "ticks": 49680,
            "time": 191.07673199999996,
            "velocity": 0.7874015748031497
          },
          {
            "duration": 0.07692300000002206,
            "durationTicks": 20,
            "midi": 39,
            "name": "D#2",
            "ticks": 49800,
            "time": 191.53826999999995,
            "velocity": 0.7874015748031497
          },
          {
            "duration": 0.08076915000000895,
            "durationTicks": 21,
            "midi": 39,
            "name": "D#2",
            "ticks": 49920,
            "time": 191.99980799999997,
            "velocity": 0.7874015748031497
          },
          {
            "duration": 0.08076915000000895,
            "durationTicks": 21,
            "midi": 39,
            "name": "D#2",
            "ticks": 50040,
            "time": 192.46134599999996,
            "velocity": 0.7874015748031497
          },
          {
            "duration": 0.08846144999998273,
            "durationTicks": 23,
            "midi": 39,
            "name": "D#2",
            "ticks": 50160,
            "time": 192.92288399999998,
            "velocity": 0.7874015748031497
          },
          {
            "duration": 0.07692299999999364,
            "durationTicks": 20,
            "midi": 39,
            "name": "D#2",
            "ticks": 50280,
            "time": 193.38442199999997,
            "velocity": 0.7874015748031497
          },
          {
            "duration": 0.08076915000000895,
            "durationTicks": 21,
            "midi": 39,
            "name": "D#2",
            "ticks": 50400,
            "time": 193.84595999999996,
            "velocity": 0.7874015748031497
          },
          {
            "duration": 0.08076914999998053,
            "durationTicks": 21,
            "midi": 39,
            "name": "D#2",
            "ticks": 50520,
            "time": 194.30749799999998,
            "velocity": 0.7874015748031497
          },
          {
            "duration": 0.08846144999998273,
            "durationTicks": 23,
            "midi": 39,
            "name": "D#2",
            "ticks": 50640,
            "time": 194.76903599999997,
            "velocity": 0.7874015748031497
          },
          {
            "duration": 0.07692300000002206,
            "durationTicks": 20,
            "midi": 39,
            "name": "D#2",
            "ticks": 50760,
            "time": 195.23057399999996,
            "velocity": 0.7874015748031497
          },
          {
            "duration": 0.08076914999998053,
            "durationTicks": 21,
            "midi": 39,
            "name": "D#2",
            "ticks": 50880,
            "time": 195.69211199999998,
            "velocity": 0.7874015748031497
          },
          {
            "duration": 0.08076915000000895,
            "durationTicks": 21,
            "midi": 39,
            "name": "D#2",
            "ticks": 51000,
            "time": 196.15364999999997,
            "velocity": 0.7874015748031497
          },
          {
            "duration": 0.08846145000001115,
            "durationTicks": 23,
            "midi": 39,
            "name": "D#2",
            "ticks": 51120,
            "time": 196.61518799999996,
            "velocity": 0.7874015748031497
          },
          {
            "duration": 0.07692299999999364,
            "durationTicks": 20,
            "midi": 39,
            "name": "D#2",
            "ticks": 51240,
            "time": 197.07672599999998,
            "velocity": 0.7874015748031497
          },
          {
            "duration": 0.08076915000000895,
            "durationTicks": 21,
            "midi": 39,
            "name": "D#2",
            "ticks": 51360,
            "time": 197.53826399999997,
            "velocity": 0.7874015748031497
          },
          {
            "duration": 0.08076915000000895,
            "durationTicks": 21,
            "midi": 39,
            "name": "D#2",
            "ticks": 51480,
            "time": 197.99980199999996,
            "velocity": 0.7874015748031497
          },
          {
            "duration": 0.08846144999998273,
            "durationTicks": 23,
            "midi": 39,
            "name": "D#2",
            "ticks": 51600,
            "time": 198.46133999999998,
            "velocity": 0.7874015748031497
          },
          {
            "duration": 0.07692299999999364,
            "durationTicks": 20,
            "midi": 39,
            "name": "D#2",
            "ticks": 51720,
            "time": 198.92287799999997,
            "velocity": 0.7874015748031497
          },
          {
            "duration": 0.08076915000000895,
            "durationTicks": 21,
            "midi": 39,
            "name": "D#2",
            "ticks": 51840,
            "time": 199.38441599999996,
            "velocity": 0.7874015748031497
          },
          {
            "duration": 0.08076915000000895,
            "durationTicks": 21,
            "midi": 39,
            "name": "D#2",
            "ticks": 51960,
            "time": 199.84595399999998,
            "velocity": 0.7874015748031497
          },
          {
            "duration": 0.08846145000001115,
            "durationTicks": 23,
            "midi": 39,
            "name": "D#2",
            "ticks": 52080,
            "time": 200.30749199999997,
            "velocity": 0.7874015748031497
          },
          {
            "duration": 0.07692300000002206,
            "durationTicks": 20,
            "midi": 39,
            "name": "D#2",
            "ticks": 52200,
            "time": 200.76902999999996,
            "velocity": 0.7874015748031497
          },
          {
            "duration": 0.08076915000000895,
            "durationTicks": 21,
            "midi": 39,
            "name": "D#2",
            "ticks": 52320,
            "time": 201.23056799999998,
            "velocity": 0.7874015748031497
          },
          {
            "duration": 0.08076915000000895,
            "durationTicks": 21,
            "midi": 39,
            "name": "D#2",
            "ticks": 52440,
            "time": 201.69210599999997,
            "velocity": 0.7874015748031497
          },
          {
            "duration": 0.08846145000001115,
            "durationTicks": 23,
            "midi": 39,
            "name": "D#2",
            "ticks": 52560,
            "time": 202.15364399999996,
            "velocity": 0.7874015748031497
          },
          {
            "duration": 0.07692299999999364,
            "durationTicks": 20,
            "midi": 39,
            "name": "D#2",
            "ticks": 52680,
            "time": 202.61518199999998,
            "velocity": 0.7874015748031497
          },
          {
            "duration": 0.08076915000000895,
            "durationTicks": 21,
            "midi": 39,
            "name": "D#2",
            "ticks": 52800,
            "time": 203.07671999999997,
            "velocity": 0.7874015748031497
          },
          {
            "duration": 0.08076915000000895,
            "durationTicks": 21,
            "midi": 39,
            "name": "D#2",
            "ticks": 52920,
            "time": 203.53825799999996,
            "velocity": 0.7874015748031497
          },
          {
            "duration": 0.08846144999998273,
            "durationTicks": 23,
            "midi": 39,
            "name": "D#2",
            "ticks": 53040,
            "time": 203.99979599999998,
            "velocity": 0.7874015748031497
          },
          {
            "duration": 0.07692300000002206,
            "durationTicks": 20,
            "midi": 39,
            "name": "D#2",
            "ticks": 53160,
            "time": 204.46133399999997,
            "velocity": 0.7874015748031497
          },
          {
            "duration": 0.08076915000000895,
            "durationTicks": 21,
            "midi": 39,
            "name": "D#2",
            "ticks": 53280,
            "time": 204.92287199999996,
            "velocity": 0.7874015748031497
          },
          {
            "duration": 0.08076915000000895,
            "durationTicks": 21,
            "midi": 39,
            "name": "D#2",
            "ticks": 53400,
            "time": 205.38440999999997,
            "velocity": 0.7874015748031497
          },
          {
            "duration": 0.08846145000001115,
            "durationTicks": 23,
            "midi": 39,
            "name": "D#2",
            "ticks": 53520,
            "time": 205.84594799999996,
            "velocity": 0.7874015748031497
          },
          {
            "duration": 0.07692300000002206,
            "durationTicks": 20,
            "midi": 39,
            "name": "D#2",
            "ticks": 53640,
            "time": 206.30748599999995,
            "velocity": 0.7874015748031497
          },
          {
            "duration": 0.08076915000000895,
            "durationTicks": 21,
            "midi": 39,
            "name": "D#2",
            "ticks": 53760,
            "time": 206.76902399999997,
            "velocity": 0.7874015748031497
          },
          {
            "duration": 0.08076915000000895,
            "durationTicks": 21,
            "midi": 39,
            "name": "D#2",
            "ticks": 53880,
            "time": 207.23056199999996,
            "velocity": 0.7874015748031497
          },
          {
            "duration": 0.08846145000001115,
            "durationTicks": 23,
            "midi": 39,
            "name": "D#2",
            "ticks": 54000,
            "time": 207.69209999999995,
            "velocity": 0.7874015748031497
          },
          {
            "duration": 0.07692299999999364,
            "durationTicks": 20,
            "midi": 39,
            "name": "D#2",
            "ticks": 54120,
            "time": 208.15363799999997,
            "velocity": 0.7874015748031497
          },
          {
            "duration": 0.08076915000000895,
            "durationTicks": 21,
            "midi": 39,
            "name": "D#2",
            "ticks": 54240,
            "time": 208.61517599999996,
            "velocity": 0.7874015748031497
          },
          {
            "duration": 0.08076915000000895,
            "durationTicks": 21,
            "midi": 39,
            "name": "D#2",
            "ticks": 54360,
            "time": 209.07671399999995,
            "velocity": 0.7874015748031497
          },
          {
            "duration": 0.08846144999998273,
            "durationTicks": 23,
            "midi": 39,
            "name": "D#2",
            "ticks": 54480,
            "time": 209.53825199999997,
            "velocity": 0.7874015748031497
          },
          {
            "duration": 0.07692300000002206,
            "durationTicks": 20,
            "midi": 39,
            "name": "D#2",
            "ticks": 54600,
            "time": 209.99978999999996,
            "velocity": 0.7874015748031497
          },
          {
            "duration": 0.08076915000000895,
            "durationTicks": 21,
            "midi": 39,
            "name": "D#2",
            "ticks": 54720,
            "time": 210.46132799999995,
            "velocity": 0.7874015748031497
          },
          {
            "duration": 0.08076915000000895,
            "durationTicks": 21,
            "midi": 39,
            "name": "D#2",
            "ticks": 54840,
            "time": 210.92286599999997,
            "velocity": 0.7874015748031497
          },
          {
            "duration": 0.08846145000001115,
            "durationTicks": 23,
            "midi": 39,
            "name": "D#2",
            "ticks": 54960,
            "time": 211.38440399999996,
            "velocity": 0.7874015748031497
          },
          {
            "duration": 0.07692299999999364,
            "durationTicks": 20,
            "midi": 39,
            "name": "D#2",
            "ticks": 55080,
            "time": 211.84594199999998,
            "velocity": 0.7874015748031497
          },
          {
            "duration": 0.08076915000000895,
            "durationTicks": 21,
            "midi": 39,
            "name": "D#2",
            "ticks": 57000,
            "time": 219.23054999999997,
            "velocity": 0.7874015748031497
          },
          {
            "duration": 0.08076915000000895,
            "durationTicks": 21,
            "midi": 39,
            "name": "D#2",
            "ticks": 58920,
            "time": 226.61515799999995,
            "velocity": 0.7874015748031497
          },
          {
            "duration": 0.08076915000000895,
            "durationTicks": 21,
            "midi": 39,
            "name": "D#2",
            "ticks": 59880,
            "time": 230.30746199999996,
            "velocity": 0.7874015748031497
          },
          {
            "duration": 0.08076914999998053,
            "durationTicks": 21,
            "midi": 39,
            "name": "D#2",
            "ticks": 60000,
            "time": 230.76899999999998,
            "velocity": 0.7874015748031497
          },
          {
            "duration": 0.08076915000000895,
            "durationTicks": 21,
            "midi": 39,
            "name": "D#2",
            "ticks": 60120,
            "time": 231.23053799999997,
            "velocity": 0.7874015748031497
          },
          {
            "duration": 0.08846145000001115,
            "durationTicks": 23,
            "midi": 39,
            "name": "D#2",
            "ticks": 60240,
            "time": 231.69207599999996,
            "velocity": 0.7874015748031497
          },
          {
            "duration": 0.07692299999999364,
            "durationTicks": 20,
            "midi": 39,
            "name": "D#2",
            "ticks": 60360,
            "time": 232.15361399999998,
            "velocity": 0.7874015748031497
          },
          {
            "duration": 0.08076915000000895,
            "durationTicks": 21,
            "midi": 39,
            "name": "D#2",
            "ticks": 60480,
            "time": 232.61515199999997,
            "velocity": 0.7874015748031497
          },
          {
            "duration": 0.08076915000000895,
            "durationTicks": 21,
            "midi": 39,
            "name": "D#2",
            "ticks": 60600,
            "time": 233.07668999999996,
            "velocity": 0.7874015748031497
          },
          {
            "duration": 0.08846144999998273,
            "durationTicks": 23,
            "midi": 39,
            "name": "D#2",
            "ticks": 60720,
            "time": 233.53822799999998,
            "velocity": 0.7874015748031497
          },
          {
            "duration": 0.07692299999999364,
            "durationTicks": 20,
            "midi": 39,
            "name": "D#2",
            "ticks": 60840,
            "time": 233.99976599999997,
            "velocity": 0.7874015748031497
          },
          {
            "duration": 0.08076915000000895,
            "durationTicks": 21,
            "midi": 39,
            "name": "D#2",
            "ticks": 60960,
            "time": 234.46130399999996,
            "velocity": 0.7874015748031497
          },
          {
            "duration": 0.08076914999998053,
            "durationTicks": 21,
            "midi": 39,
            "name": "D#2",
            "ticks": 61080,
            "time": 234.92284199999997,
            "velocity": 0.7874015748031497
          },
          {
            "duration": 0.08846144999998273,
            "durationTicks": 23,
            "midi": 39,
            "name": "D#2",
            "ticks": 61200,
            "time": 235.38437999999996,
            "velocity": 0.7874015748031497
          },
          {
            "duration": 0.07692300000002206,
            "durationTicks": 20,
            "midi": 39,
            "name": "D#2",
            "ticks": 61320,
            "time": 235.84591799999995,
            "velocity": 0.7874015748031497
          },
          {
            "duration": 0.08076915000000895,
            "durationTicks": 21,
            "midi": 39,
            "name": "D#2",
            "ticks": 61440,
            "time": 236.30745599999997,
            "velocity": 0.7874015748031497
          },
          {
            "duration": 0.08076915000000895,
            "durationTicks": 21,
            "midi": 39,
            "name": "D#2",
            "ticks": 61560,
            "time": 236.76899399999996,
            "velocity": 0.7874015748031497
          },
          {
            "duration": 0.08846145000001115,
            "durationTicks": 23,
            "midi": 39,
            "name": "D#2",
            "ticks": 61680,
            "time": 237.23053199999995,
            "velocity": 0.7874015748031497
          },
          {
            "duration": 0.07692299999999364,
            "durationTicks": 20,
            "midi": 39,
            "name": "D#2",
            "ticks": 61800,
            "time": 237.69206999999997,
            "velocity": 0.7874015748031497
          },
          {
            "duration": 0.08076914999998053,
            "durationTicks": 21,
            "midi": 39,
            "name": "D#2",
            "ticks": 61920,
            "time": 238.15360799999996,
            "velocity": 0.7874015748031497
          },
          {
            "duration": 0.08076914999998053,
            "durationTicks": 21,
            "midi": 39,
            "name": "D#2",
            "ticks": 62040,
            "time": 238.61514599999995,
            "velocity": 0.7874015748031497
          },
          {
            "duration": 0.08846145000001115,
            "durationTicks": 23,
            "midi": 39,
            "name": "D#2",
            "ticks": 62160,
            "time": 239.07668399999997,
            "velocity": 0.7874015748031497
          },
          {
            "duration": 0.07692299999999364,
            "durationTicks": 20,
            "midi": 39,
            "name": "D#2",
            "ticks": 62280,
            "time": 239.53822199999996,
            "velocity": 0.7874015748031497
          },
          {
            "duration": 0.08076914999998053,
            "durationTicks": 21,
            "midi": 39,
            "name": "D#2",
            "ticks": 62400,
            "time": 239.99975999999995,
            "velocity": 0.7874015748031497
          },
          {
            "duration": 0.08076914999998053,
            "durationTicks": 21,
            "midi": 39,
            "name": "D#2",
            "ticks": 62520,
            "time": 240.46129799999997,
            "velocity": 0.7874015748031497
          },
          {
            "duration": 0.08846145000003958,
            "durationTicks": 23,
            "midi": 39,
            "name": "D#2",
            "ticks": 62640,
            "time": 240.92283599999996,
            "velocity": 0.7874015748031497
          },
          {
            "duration": 0.07692299999999364,
            "durationTicks": 20,
            "midi": 39,
            "name": "D#2",
            "ticks": 62760,
            "time": 241.38437399999995,
            "velocity": 0.7874015748031497
          },
          {
            "duration": 0.08076914999998053,
            "durationTicks": 21,
            "midi": 39,
            "name": "D#2",
            "ticks": 62880,
            "time": 241.84591199999997,
            "velocity": 0.7874015748031497
          },
          {
            "duration": 0.08076914999998053,
            "durationTicks": 21,
            "midi": 39,
            "name": "D#2",
            "ticks": 63000,
            "time": 242.30744999999996,
            "velocity": 0.7874015748031497
          },
          {
            "duration": 0.08846145000003958,
            "durationTicks": 23,
            "midi": 39,
            "name": "D#2",
            "ticks": 63120,
            "time": 242.76898799999995,
            "velocity": 0.7874015748031497
          },
          {
            "duration": 0.07692299999996521,
            "durationTicks": 20,
            "midi": 39,
            "name": "D#2",
            "ticks": 63240,
            "time": 243.23052599999997,
            "velocity": 0.7874015748031497
          },
          {
            "duration": 0.08076914999998053,
            "durationTicks": 21,
            "midi": 39,
            "name": "D#2",
            "ticks": 63360,
            "time": 243.69206399999996,
            "velocity": 0.7874015748031497
          },
          {
            "duration": 0.08076914999998053,
            "durationTicks": 21,
            "midi": 39,
            "name": "D#2",
            "ticks": 63480,
            "time": 244.15360199999995,
            "velocity": 0.7874015748031497
          },
          {
            "duration": 0.08846145000001115,
            "durationTicks": 23,
            "midi": 39,
            "name": "D#2",
            "ticks": 63600,
            "time": 244.61513999999997,
            "velocity": 0.7874015748031497
          },
          {
            "duration": 0.07692299999999364,
            "durationTicks": 20,
            "midi": 39,
            "name": "D#2",
            "ticks": 63720,
            "time": 245.07667799999996,
            "velocity": 0.7874015748031497
          },
          {
            "duration": 0.08076914999998053,
            "durationTicks": 21,
            "midi": 39,
            "name": "D#2",
            "ticks": 65640,
            "time": 252.46128599999997,
            "velocity": 0.7874015748031497
          }
        ]
      },
      {
        "channel": 10,
        "controlChanges": {
          "0": [
            {
              "number": 0,
              "ticks": 0,
              "time": 0,
              "value": 0
            }
          ],
          "7": [
            {
              "number": 7,
              "ticks": 0,
              "time": 0,
              "value": 0.905511811023622
            }
          ],
          "32": [
            {
              "number": 32,
              "ticks": 1,
              "time": 0.0038461499999999996,
              "value": 0
            }
          ],
          "91": [
            {
              "number": 91,
              "ticks": 480,
              "time": 1.8461519999999998,
              "value": 0.47244094488188976
            }
          ],
          "93": [
            {
              "number": 93,
              "ticks": 480,
              "time": 1.8461519999999998,
              "value": 1
            }
          ]
        },
        "pitchBends": [],
        "instrument": {
          "family": "piano",
          "name": "bright acoustic piano",
          "number": 1
        },
        "name": "Snare 1",
        "notes": [
          {
            "duration": 0.034615350000000156,
            "durationTicks": 9,
            "midi": 38,
            "name": "D2",
            "ticks": 930,
            "time": 3.5769195,
            "velocity": 0.7874015748031497
          },
          {
            "duration": 0.03461534999999927,
            "durationTicks": 9,
            "midi": 38,
            "name": "D2",
            "ticks": 1410,
            "time": 5.4230715,
            "velocity": 0.7874015748031497
          },
          {
            "duration": 0.03461534999999927,
            "durationTicks": 9,
            "midi": 38,
            "name": "D2",
            "ticks": 1890,
            "time": 7.2692235,
            "velocity": 0.7874015748031497
          },
          {
            "duration": 0.03461534999999927,
            "durationTicks": 9,
            "midi": 38,
            "name": "D2",
            "ticks": 2370,
            "time": 9.115375499999999,
            "velocity": 0.7874015748031497
          },
          {
            "duration": 0.0461538000000008,
            "durationTicks": 12,
            "midi": 38,
            "name": "D2",
            "ticks": 2580,
            "time": 9.923067,
            "velocity": 0.7874015748031497
          },
          {
            "duration": 0.03076919999999994,
            "durationTicks": 8,
            "midi": 38,
            "name": "D2",
            "ticks": 2670,
            "time": 10.2692205,
            "velocity": 0.7874015748031497
          },
          {
            "duration": 0.026923050000000615,
            "durationTicks": 7,
            "midi": 38,
            "name": "D2",
            "ticks": 2760,
            "time": 10.615374,
            "velocity": 0.7874015748031497
          },
          {
            "duration": 0.03076919999999994,
            "durationTicks": 8,
            "midi": 38,
            "name": "D2",
            "ticks": 2850,
            "time": 10.961527499999999,
            "velocity": 0.7874015748031497
          },
          {
            "duration": 0.038461499999998594,
            "durationTicks": 10,
            "midi": 38,
            "name": "D2",
            "ticks": 3060,
            "time": 11.769219,
            "velocity": 0.7874015748031497
          },
          {
            "duration": 0.038461499999998594,
            "durationTicks": 10,
            "midi": 38,
            "name": "D2",
            "ticks": 3150,
            "time": 12.1153725,
            "velocity": 0.7874015748031497
          },
          {
            "duration": 0.038461499999998594,
            "durationTicks": 10,
            "midi": 38,
            "name": "D2",
            "ticks": 3240,
            "time": 12.461526,
            "velocity": 0.7874015748031497
          },
          {
            "duration": 0.03461534999999927,
            "durationTicks": 9,
            "midi": 38,
            "name": "D2",
            "ticks": 3330,
            "time": 12.807679499999999,
            "velocity": 0.7874015748031497
          },
          {
            "duration": 0.03846150000000037,
            "durationTicks": 10,
            "midi": 38,
            "name": "D2",
            "ticks": 3540,
            "time": 13.615370999999998,
            "velocity": 0.7874015748031497
          },
          {
            "duration": 0.04230764999999792,
            "durationTicks": 11,
            "midi": 38,
            "name": "D2",
            "ticks": 3630,
            "time": 13.9615245,
            "velocity": 0.7874015748031497
          },
          {
            "duration": 0.038461499999998594,
            "durationTicks": 10,
            "midi": 38,
            "name": "D2",
            "ticks": 3720,
            "time": 14.307678,
            "velocity": 0.7874015748031497
          },
          {
            "duration": 0.03461534999999927,
            "durationTicks": 9,
            "midi": 38,
            "name": "D2",
            "ticks": 3810,
            "time": 14.653831499999999,
            "velocity": 0.7874015748031497
          },
          {
            "duration": 0.0461538000000008,
            "durationTicks": 12,
            "midi": 38,
            "name": "D2",
            "ticks": 4020,
            "time": 15.461522999999998,
            "velocity": 0.7874015748031497
          },
          {
            "duration": 0.0461538000000008,
            "durationTicks": 12,
            "midi": 38,
            "name": "D2",
            "ticks": 4110,
            "time": 15.807676499999998,
            "velocity": 0.7874015748031497
          },
          {
            "duration": 0.030769199999998165,
            "durationTicks": 8,
            "midi": 38,
            "name": "D2",
            "ticks": 4200,
            "time": 16.15383,
            "velocity": 0.7874015748031497
          },
          {
            "duration": 0.03846149999999682,
            "durationTicks": 10,
            "midi": 38,
            "name": "D2",
            "ticks": 4290,
            "time": 16.4999835,
            "velocity": 0.7874015748031497
          },
          {
            "duration": 0.03846150000001103,
            "durationTicks": 10,
            "midi": 38,
            "name": "D2",
            "ticks": 20610,
            "time": 79.26915149999999,
            "velocity": 0.7874015748031497
          },
          {
            "duration": 0.03846149999999682,
            "durationTicks": 10,
            "midi": 38,
            "name": "D2",
            "ticks": 21570,
            "time": 82.9614555,
            "velocity": 0.7874015748031497
          },
          {
            "duration": 0.03846150000001103,
            "durationTicks": 10,
            "midi": 38,
            "name": "D2",
            "ticks": 22530,
            "time": 86.65375949999999,
            "velocity": 0.7874015748031497
          },
          {
            "duration": 0.03846149999999682,
            "durationTicks": 10,
            "midi": 38,
            "name": "D2",
            "ticks": 23490,
            "time": 90.3460635,
            "velocity": 0.7874015748031497
          },
          {
            "duration": 0.03846150000001103,
            "durationTicks": 10,
            "midi": 38,
            "name": "D2",
            "ticks": 24450,
            "time": 94.03836749999999,
            "velocity": 0.7874015748031497
          },
          {
            "duration": 0.06923070000000564,
            "durationTicks": 18,
            "midi": 38,
            "name": "D2",
            "ticks": 24570,
            "time": 94.4999055,
            "velocity": 0.8661417322834646
          },
          {
            "duration": 0.05384610000000123,
            "durationTicks": 14,
            "midi": 38,
            "name": "D2",
            "ticks": 24660,
            "time": 94.846059,
            "velocity": 0.8661417322834646
          },
          {
            "duration": 0.06923070000000564,
            "durationTicks": 18,
            "midi": 38,
            "name": "D2",
            "ticks": 24810,
            "time": 95.42298149999999,
            "velocity": 0.889763779527559
          },
          {
            "duration": 0.06538455000000454,
            "durationTicks": 17,
            "midi": 38,
            "name": "D2",
            "ticks": 24900,
            "time": 95.76913499999999,
            "velocity": 0.889763779527559
          },
          {
            "duration": 0.06923070000000564,
            "durationTicks": 18,
            "midi": 38,
            "name": "D2",
            "ticks": 25050,
            "time": 96.34605749999999,
            "velocity": 0.8661417322834646
          },
          {
            "duration": 0.05384610000001544,
            "durationTicks": 14,
            "midi": 38,
            "name": "D2",
            "ticks": 25140,
            "time": 96.69221099999999,
            "velocity": 0.8661417322834646
          },
          {
            "duration": 0.06923070000000564,
            "durationTicks": 18,
            "midi": 38,
            "name": "D2",
            "ticks": 25290,
            "time": 97.2691335,
            "velocity": 0.889763779527559
          },
          {
            "duration": 0.06538455000000454,
            "durationTicks": 17,
            "midi": 38,
            "name": "D2",
            "ticks": 25380,
            "time": 97.615287,
            "velocity": 0.889763779527559
          },
          {
            "duration": 0.03846150000001103,
            "durationTicks": 10,
            "midi": 38,
            "name": "D2",
            "ticks": 26370,
            "time": 101.42297549999999,
            "velocity": 0.7874015748031497
          },
          {
            "duration": 0.03846150000001103,
            "durationTicks": 10,
            "midi": 38,
            "name": "D2",
            "ticks": 31170,
            "time": 119.88449549999999,
            "velocity": 0.7874015748031497
          },
          {
            "duration": 0.08076915000000895,
            "durationTicks": 21,
            "midi": 38,
            "name": "D2",
            "ticks": 47520,
            "time": 182.76904799999997,
            "velocity": 0.8582677165354331
          },
          {
            "duration": 0.07307685000003517,
            "durationTicks": 19,
            "midi": 38,
            "name": "D2",
            "ticks": 47640,
            "time": 183.23058599999996,
            "velocity": 0.8582677165354331
          },
          {
            "duration": 0.08076915000000895,
            "durationTicks": 21,
            "midi": 38,
            "name": "D2",
            "ticks": 47760,
            "time": 183.69212399999998,
            "velocity": 0.8346456692913385
          },
          {
            "duration": 0.07307685000000674,
            "durationTicks": 19,
            "midi": 38,
            "name": "D2",
            "ticks": 47880,
            "time": 184.15366199999997,
            "velocity": 0.889763779527559
          },
          {
            "duration": 0.08076915000000895,
            "durationTicks": 21,
            "midi": 38,
            "name": "D2",
            "ticks": 48000,
            "time": 184.61519999999996,
            "velocity": 0.905511811023622
          },
          {
            "duration": 0.08461529999999584,
            "durationTicks": 22,
            "midi": 38,
            "name": "D2",
            "ticks": 48120,
            "time": 185.07673799999998,
            "velocity": 0.8661417322834646
          },
          {
            "duration": 0.07692300000002206,
            "durationTicks": 20,
            "midi": 38,
            "name": "D2",
            "ticks": 48240,
            "time": 185.53827599999997,
            "velocity": 0.889763779527559
          },
          {
            "duration": 0.07692300000002206,
            "durationTicks": 20,
            "midi": 38,
            "name": "D2",
            "ticks": 48360,
            "time": 185.99981399999996,
            "velocity": 0.889763779527559
          },
          {
            "duration": 0.07692299999999364,
            "durationTicks": 20,
            "midi": 38,
            "name": "D2",
            "ticks": 48480,
            "time": 186.46135199999998,
            "velocity": 0.889763779527559
          },
          {
            "duration": 0.08461529999999584,
            "durationTicks": 22,
            "midi": 38,
            "name": "D2",
            "ticks": 48600,
            "time": 186.92288999999997,
            "velocity": 0.8661417322834646
          },
          {
            "duration": 0.08076915000000895,
            "durationTicks": 21,
            "midi": 38,
            "name": "D2",
            "ticks": 48720,
            "time": 187.38442799999996,
            "velocity": 0.889763779527559
          },
          {
            "duration": 0.08461529999999584,
            "durationTicks": 22,
            "midi": 38,
            "name": "D2",
            "ticks": 48840,
            "time": 187.84596599999998,
            "velocity": 0.889763779527559
          },
          {
            "duration": 0.07307685000000674,
            "durationTicks": 19,
            "midi": 38,
            "name": "D2",
            "ticks": 48960,
            "time": 188.30750399999997,
            "velocity": 0.889763779527559
          },
          {
            "duration": 0.09230759999999805,
            "durationTicks": 24,
            "midi": 38,
            "name": "D2",
            "ticks": 49080,
            "time": 188.76904199999996,
            "velocity": 0.889763779527559
          },
          {
            "duration": 0.08076915000000895,
            "durationTicks": 21,
            "midi": 38,
            "name": "D2",
            "ticks": 49200,
            "time": 189.23057999999997,
            "velocity": 0.8661417322834646
          },
          {
            "duration": 0.08076915000000895,
            "durationTicks": 21,
            "midi": 38,
            "name": "D2",
            "ticks": 49320,
            "time": 189.69211799999997,
            "velocity": 0.8582677165354331
          },
          {
            "duration": 0.06923069999999143,
            "durationTicks": 18,
            "midi": 38,
            "name": "D2",
            "ticks": 49440,
            "time": 190.15365599999996,
            "velocity": 0.8661417322834646
          },
          {
            "duration": 0.06538455000000454,
            "durationTicks": 17,
            "midi": 38,
            "name": "D2",
            "ticks": 49500,
            "time": 190.38442499999996,
            "velocity": 0.7874015748031497
          },
          {
            "duration": 0.06538454999997612,
            "durationTicks": 17,
            "midi": 38,
            "name": "D2",
            "ticks": 49560,
            "time": 190.61519399999997,
            "velocity": 0.8267716535433071
          },
          {
            "duration": 0.06923069999999143,
            "durationTicks": 18,
            "midi": 38,
            "name": "D2",
            "ticks": 49620,
            "time": 190.84596299999995,
            "velocity": 0.8110236220472441
          },
          {
            "duration": 0.07307685000000674,
            "durationTicks": 19,
            "midi": 38,
            "name": "D2",
            "ticks": 49680,
            "time": 191.07673199999996,
            "velocity": 0.8267716535433071
          },
          {
            "duration": 0.06923069999999143,
            "durationTicks": 18,
            "midi": 38,
            "name": "D2",
            "ticks": 49740,
            "time": 191.30750099999997,
            "velocity": 0.8110236220472441
          },
          {
            "duration": 0.06923069999999143,
            "durationTicks": 18,
            "midi": 38,
            "name": "D2",
            "ticks": 49800,
            "time": 191.53826999999995,
            "velocity": 0.8267716535433071
          },
          {
            "duration": 0.061538399999989224,
            "durationTicks": 16,
            "midi": 38,
            "name": "D2",
            "ticks": 49860,
            "time": 191.76903899999996,
            "velocity": 0.8031496062992126
          },
          {
            "duration": 0.06923069999999143,
            "durationTicks": 18,
            "midi": 38,
            "name": "D2",
            "ticks": 49920,
            "time": 191.99980799999997,
            "velocity": 0.8661417322834646
          },
          {
            "duration": 0.06538455000000454,
            "durationTicks": 17,
            "midi": 38,
            "name": "D2",
            "ticks": 49980,
            "time": 192.23057699999995,
            "velocity": 0.8346456692913385
          },
          {
            "duration": 0.06538455000000454,
            "durationTicks": 17,
            "midi": 38,
            "name": "D2",
            "ticks": 50040,
            "time": 192.46134599999996,
            "velocity": 0.8346456692913385
          },
          {
            "duration": 0.07307685000000674,
            "durationTicks": 19,
            "midi": 38,
            "name": "D2",
            "ticks": 50100,
            "time": 192.69211499999997,
            "velocity": 0.8267716535433071
          },
          {
            "duration": 0.06923069999996301,
            "durationTicks": 18,
            "midi": 38,
            "name": "D2",
            "ticks": 50160,
            "time": 192.92288399999998,
            "velocity": 0.8031496062992126
          },
          {
            "duration": 0.06538455000000454,
            "durationTicks": 17,
            "midi": 38,
            "name": "D2",
            "ticks": 50220,
            "time": 193.15365299999996,
            "velocity": 0.8267716535433071
          },
          {
            "duration": 0.05769225000000233,
            "durationTicks": 15,
            "midi": 38,
            "name": "D2",
            "ticks": 50280,
            "time": 193.38442199999997,
            "velocity": 0.8346456692913385
          },
          {
            "duration": 0.05384609999998702,
            "durationTicks": 14,
            "midi": 38,
            "name": "D2",
            "ticks": 50340,
            "time": 193.61519099999998,
            "velocity": 0.8582677165354331
          },
          {
            "duration": 0.02692304999999351,
            "durationTicks": 7,
            "midi": 38,
            "name": "D2",
            "ticks": 50400,
            "time": 193.84595999999996,
            "velocity": 0.889763779527559
          },
          {
            "duration": 0.07307685000000674,
            "durationTicks": 19,
            "midi": 38,
            "name": "D2",
            "ticks": 50430,
            "time": 193.96134449999997,
            "velocity": 0.7874015748031497
          },
          {
            "duration": 0.034615349999995715,
            "durationTicks": 9,
            "midi": 38,
            "name": "D2",
            "ticks": 50460,
            "time": 194.07672899999997,
            "velocity": 0.7716535433070866
          },
          {
            "duration": 0.06538454999997612,
            "durationTicks": 17,
            "midi": 38,
            "name": "D2",
            "ticks": 50490,
            "time": 194.19211349999998,
            "velocity": 0.7086614173228346
          },
          {
            "duration": 0.03846149999998261,
            "durationTicks": 10,
            "midi": 38,
            "name": "D2",
            "ticks": 50520,
            "time": 194.30749799999998,
            "velocity": 0.8110236220472441
          },
          {
            "duration": 0.07692300000002206,
            "durationTicks": 20,
            "midi": 38,
            "name": "D2",
            "ticks": 50550,
            "time": 194.42288249999996,
            "velocity": 0.7716535433070866
          },
          {
            "duration": 0.046153800000013234,
            "durationTicks": 12,
            "midi": 38,
            "name": "D2",
            "ticks": 50580,
            "time": 194.53826699999996,
            "velocity": 0.8267716535433071
          },
          {
            "duration": 0.06923069999999143,
            "durationTicks": 18,
            "midi": 38,
            "name": "D2",
            "ticks": 50610,
            "time": 194.65365149999997,
            "velocity": 0.7480314960629921
          },
          {
            "duration": 0.03846149999998261,
            "durationTicks": 10,
            "midi": 38,
            "name": "D2",
            "ticks": 50640,
            "time": 194.76903599999997,
            "velocity": 0.7874015748031497
          },
          {
            "duration": 0.07307685000000674,
            "durationTicks": 19,
            "midi": 38,
            "name": "D2",
            "ticks": 50670,
            "time": 194.88442049999998,
            "velocity": 0.7637795275590551
          },
          {
            "duration": 0.04615379999998481,
            "durationTicks": 12,
            "midi": 38,
            "name": "D2",
            "ticks": 50700,
            "time": 194.99980499999998,
            "velocity": 0.8031496062992126
          },
          {
            "duration": 0.08076915000000895,
            "durationTicks": 21,
            "midi": 38,
            "name": "D2",
            "ticks": 50730,
            "time": 195.11518949999996,
            "velocity": 0.7716535433070866
          },
          {
            "duration": 0.03846150000001103,
            "durationTicks": 10,
            "midi": 38,
            "name": "D2",
            "ticks": 50760,
            "time": 195.23057399999996,
            "velocity": 0.8110236220472441
          },
          {
            "duration": 0.07307685000000674,
            "durationTicks": 19,
            "midi": 38,
            "name": "D2",
            "ticks": 50790,
            "time": 195.34595849999997,
            "velocity": 0.7480314960629921
          },
          {
            "duration": 0.046153800000013234,
            "durationTicks": 12,
            "midi": 38,
            "name": "D2",
            "ticks": 50820,
            "time": 195.46134299999997,
            "velocity": 0.8582677165354331
          },
          {
            "duration": 0.046153800000013234,
            "durationTicks": 12,
            "midi": 38,
            "name": "D2",
            "ticks": 50850,
            "time": 195.57672749999998,
            "velocity": 0.8582677165354331
          },
          {
            "duration": 0.02692304999999351,
            "durationTicks": 7,
            "midi": 38,
            "name": "D2",
            "ticks": 50880,
            "time": 195.69211199999998,
            "velocity": 0.889763779527559
          },
          {
            "duration": 0.07307685000003517,
            "durationTicks": 19,
            "midi": 38,
            "name": "D2",
            "ticks": 50910,
            "time": 195.80749649999996,
            "velocity": 0.7874015748031497
          },
          {
            "duration": 0.034615349999995715,
            "durationTicks": 9,
            "midi": 38,
            "name": "D2",
            "ticks": 50940,
            "time": 195.92288099999996,
            "velocity": 0.7716535433070866
          },
          {
            "duration": 0.06538455000000454,
            "durationTicks": 17,
            "midi": 38,
            "name": "D2",
            "ticks": 50970,
            "time": 196.03826549999997,
            "velocity": 0.7086614173228346
          },
          {
            "duration": 0.03846149999998261,
            "durationTicks": 10,
            "midi": 38,
            "name": "D2",
            "ticks": 51000,
            "time": 196.15364999999997,
            "velocity": 0.8110236220472441
          },
          {
            "duration": 0.07692299999999364,
            "durationTicks": 20,
            "midi": 38,
            "name": "D2",
            "ticks": 51030,
            "time": 196.26903449999998,
            "velocity": 0.7716535433070866
          },
          {
            "duration": 0.04615379999998481,
            "durationTicks": 12,
            "midi": 38,
            "name": "D2",
            "ticks": 51060,
            "time": 196.38441899999998,
            "velocity": 0.8267716535433071
          },
          {
            "duration": 0.06923069999999143,
            "durationTicks": 18,
            "midi": 38,
            "name": "D2",
            "ticks": 51090,
            "time": 196.49980349999996,
            "velocity": 0.7480314960629921
          },
          {
            "duration": 0.03846150000001103,
            "durationTicks": 10,
            "midi": 38,
            "name": "D2",
            "ticks": 51120,
            "time": 196.61518799999996,
            "velocity": 0.7874015748031497
          },
          {
            "duration": 0.07307685000000674,
            "durationTicks": 19,
            "midi": 38,
            "name": "D2",
            "ticks": 51150,
            "time": 196.73057249999997,
            "velocity": 0.7637795275590551
          },
          {
            "duration": 0.046153800000013234,
            "durationTicks": 12,
            "midi": 38,
            "name": "D2",
            "ticks": 51180,
            "time": 196.84595699999997,
            "velocity": 0.8031496062992126
          },
          {
            "duration": 0.08076915000000895,
            "durationTicks": 21,
            "midi": 38,
            "name": "D2",
            "ticks": 51210,
            "time": 196.96134149999997,
            "velocity": 0.7716535433070866
          },
          {
            "duration": 0.03846149999998261,
            "durationTicks": 10,
            "midi": 38,
            "name": "D2",
            "ticks": 51240,
            "time": 197.07672599999998,
            "velocity": 0.8110236220472441
          },
          {
            "duration": 0.07307685000003517,
            "durationTicks": 19,
            "midi": 38,
            "name": "D2",
            "ticks": 51270,
            "time": 197.19211049999996,
            "velocity": 0.7480314960629921
          },
          {
            "duration": 0.046153800000013234,
            "durationTicks": 12,
            "midi": 38,
            "name": "D2",
            "ticks": 51300,
            "time": 197.30749499999996,
            "velocity": 0.8582677165354331
          },
          {
            "duration": 0.046153800000013234,
            "durationTicks": 12,
            "midi": 38,
            "name": "D2",
            "ticks": 51330,
            "time": 197.42287949999996,
            "velocity": 0.8582677165354331
          },
          {
            "duration": 0.08076915000000895,
            "durationTicks": 21,
            "midi": 38,
            "name": "D2",
            "ticks": 59040,
            "time": 227.07669599999997,
            "velocity": 0.8582677165354331
          },
          {
            "duration": 0.07307685000000674,
            "durationTicks": 19,
            "midi": 38,
            "name": "D2",
            "ticks": 59160,
            "time": 227.53823399999996,
            "velocity": 0.8582677165354331
          },
          {
            "duration": 0.08076915000000895,
            "durationTicks": 21,
            "midi": 38,
            "name": "D2",
            "ticks": 59280,
            "time": 227.99977199999995,
            "velocity": 0.8346456692913385
          },
          {
            "duration": 0.07307685000000674,
            "durationTicks": 19,
            "midi": 38,
            "name": "D2",
            "ticks": 59400,
            "time": 228.46130999999997,
            "velocity": 0.889763779527559
          },
          {
            "duration": 0.02692304999999351,
            "durationTicks": 7,
            "midi": 38,
            "name": "D2",
            "ticks": 59520,
            "time": 228.92284799999996,
            "velocity": 0.889763779527559
          },
          {
            "duration": 0.07307685000000674,
            "durationTicks": 19,
            "midi": 38,
            "name": "D2",
            "ticks": 59550,
            "time": 229.03823249999996,
            "velocity": 0.7874015748031497
          },
          {
            "duration": 0.034615349999995715,
            "durationTicks": 9,
            "midi": 38,
            "name": "D2",
            "ticks": 59580,
            "time": 229.15361699999997,
            "velocity": 0.7716535433070866
          },
          {
            "duration": 0.06538454999997612,
            "durationTicks": 17,
            "midi": 38,
            "name": "D2",
            "ticks": 59610,
            "time": 229.26900149999997,
            "velocity": 0.7086614173228346
          },
          {
            "duration": 0.03846149999998261,
            "durationTicks": 10,
            "midi": 38,
            "name": "D2",
            "ticks": 59640,
            "time": 229.38438599999998,
            "velocity": 0.8110236220472441
          },
          {
            "duration": 0.07692300000002206,
            "durationTicks": 20,
            "midi": 38,
            "name": "D2",
            "ticks": 59670,
            "time": 229.49977049999995,
            "velocity": 0.7716535433070866
          },
          {
            "duration": 0.046153800000013234,
            "durationTicks": 12,
            "midi": 38,
            "name": "D2",
            "ticks": 59700,
            "time": 229.61515499999996,
            "velocity": 0.8267716535433071
          },
          {
            "duration": 0.06923069999999143,
            "durationTicks": 18,
            "midi": 38,
            "name": "D2",
            "ticks": 59730,
            "time": 229.73053949999996,
            "velocity": 0.7480314960629921
          },
          {
            "duration": 0.03846149999998261,
            "durationTicks": 10,
            "midi": 38,
            "name": "D2",
            "ticks": 59760,
            "time": 229.84592399999997,
            "velocity": 0.7874015748031497
          },
          {
            "duration": 0.07307685000000674,
            "durationTicks": 19,
            "midi": 38,
            "name": "D2",
            "ticks": 59790,
            "time": 229.96130849999997,
            "velocity": 0.7637795275590551
          },
          {
            "duration": 0.04615379999998481,
            "durationTicks": 12,
            "midi": 38,
            "name": "D2",
            "ticks": 59820,
            "time": 230.07669299999998,
            "velocity": 0.8031496062992126
          },
          {
            "duration": 0.08076915000000895,
            "durationTicks": 21,
            "midi": 38,
            "name": "D2",
            "ticks": 59850,
            "time": 230.19207749999995,
            "velocity": 0.7716535433070866
          },
          {
            "duration": 0.03846149999998261,
            "durationTicks": 10,
            "midi": 38,
            "name": "D2",
            "ticks": 59880,
            "time": 230.30746199999996,
            "velocity": 0.8110236220472441
          },
          {
            "duration": 0.07307685000000674,
            "durationTicks": 19,
            "midi": 38,
            "name": "D2",
            "ticks": 59910,
            "time": 230.42284649999996,
            "velocity": 0.7480314960629921
          },
          {
            "duration": 0.046153800000013234,
            "durationTicks": 12,
            "midi": 38,
            "name": "D2",
            "ticks": 59940,
            "time": 230.53823099999997,
            "velocity": 0.8582677165354331
          },
          {
            "duration": 0.046153800000013234,
            "durationTicks": 12,
            "midi": 38,
            "name": "D2",
            "ticks": 59970,
            "time": 230.65361549999997,
            "velocity": 0.8582677165354331
          }
        ]
      }
    ]
  }